%TF.GenerationSoftware,Altium Limited,Altium Designer,21.2.2 (38)*%
G04 Layer_Physical_Order=1*
G04 Layer_Color=255*
%FSLAX45Y45*%
%MOMM*%
%TF.SameCoordinates,97337FA2-2587-4777-A85E-210607466B5F*%
%TF.FilePolarity,Positive*%
%TF.FileFunction,Copper,L1,Top,Signal*%
%TF.Part,Single*%
G01*
G75*
%TA.AperFunction,Conductor*%
%ADD10C,0.40000*%
%TA.AperFunction,ComponentPad*%
G04:AMPARAMS|DCode=11|XSize=1.2mm|YSize=1.1mm|CornerRadius=0.275mm|HoleSize=0mm|Usage=FLASHONLY|Rotation=90.000|XOffset=0mm|YOffset=0mm|HoleType=Round|Shape=RoundedRectangle|*
%AMROUNDEDRECTD11*
21,1,1.20000,0.55000,0,0,90.0*
21,1,0.65000,1.10000,0,0,90.0*
1,1,0.55000,0.27500,0.32500*
1,1,0.55000,0.27500,-0.32500*
1,1,0.55000,-0.27500,-0.32500*
1,1,0.55000,-0.27500,0.32500*
%
%ADD11ROUNDEDRECTD11*%
%ADD12R,1.10000X1.20000*%
G04:AMPARAMS|DCode=13|XSize=1.2mm|YSize=1.1mm|CornerRadius=0.275mm|HoleSize=0mm|Usage=FLASHONLY|Rotation=0.000|XOffset=0mm|YOffset=0mm|HoleType=Round|Shape=RoundedRectangle|*
%AMROUNDEDRECTD13*
21,1,1.20000,0.55000,0,0,0.0*
21,1,0.65000,1.10000,0,0,0.0*
1,1,0.55000,0.32500,-0.27500*
1,1,0.55000,-0.32500,-0.27500*
1,1,0.55000,-0.32500,0.27500*
1,1,0.55000,0.32500,0.27500*
%
%ADD13ROUNDEDRECTD13*%
%ADD14R,1.20000X1.10000*%
D10*
X475000Y1100000D02*
Y4875000D01*
X711630Y780370D02*
Y863370D01*
X475000Y1100000D02*
X711630Y863370D01*
X602000Y1098000D02*
Y4875000D01*
X838630Y780370D02*
Y861370D01*
X602000Y1098000D02*
X838630Y861370D01*
X729000Y1096000D02*
Y4875000D01*
X965630Y780370D02*
Y859370D01*
X729000Y1096000D02*
X965630Y859370D01*
X856000Y1144000D02*
Y4875000D01*
X1092630Y780370D02*
Y907370D01*
X856000Y1144000D02*
X1092630Y907370D01*
X1215000Y785000D02*
Y985000D01*
X983000Y1217000D02*
Y4875000D01*
Y1217000D02*
X1215000Y985000D01*
X1527000Y3748001D02*
Y4875000D01*
X1575000Y625000D02*
Y3700001D01*
X1527000Y3748001D02*
X1575000Y3700001D01*
X1400000Y3575000D02*
X1475000Y3500000D01*
X1400000Y3575000D02*
Y4875000D01*
X1475000Y625000D02*
Y3500000D01*
X1273000Y1077000D02*
Y4875000D01*
X1375000Y650000D02*
Y975000D01*
X1273000Y1077000D02*
X1375000Y975000D01*
X1272000Y547000D02*
X1375000Y650000D01*
X1270000Y420000D02*
X1475000Y625000D01*
X1245569Y295569D02*
X1575000Y625000D01*
X1149000Y547000D02*
X1272000D01*
X1149000Y420000D02*
X1270000D01*
X1151568Y295569D02*
X1245569D01*
X1149000Y293000D02*
X1151568Y295569D01*
X1215000Y785000D02*
X1250000Y750000D01*
X1092630Y780370D02*
X1123000Y750000D01*
X965630Y780370D02*
X996000Y750000D01*
X838630Y780370D02*
X869000Y750000D01*
X711630Y780370D02*
X742000Y750000D01*
X348000Y1017000D02*
X575000Y790000D01*
X348000Y1017000D02*
Y4875000D01*
X615000Y750000D02*
Y750941D01*
X575941Y790000D02*
X615000Y750941D01*
X575000Y790000D02*
X575941D01*
D11*
X1527000Y4875000D02*
D03*
X1400000D02*
D03*
X475000D02*
D03*
X348000D02*
D03*
X729000D02*
D03*
X602000D02*
D03*
X856000D02*
D03*
X742000Y750000D02*
D03*
X615000D02*
D03*
X996000D02*
D03*
X869000D02*
D03*
X1123000D02*
D03*
D12*
X1273000Y4875000D02*
D03*
X983000D02*
D03*
X1250000Y750000D02*
D03*
D13*
X1149000Y293000D02*
D03*
Y420000D02*
D03*
D14*
Y547000D02*
D03*
%TF.MD5,5f8fe71ce9ec691459bf912569063cd4*%
M02*
