%TF.GenerationSoftware,Altium Limited,Altium Designer,21.2.2 (38)*%
G04 Layer_Color=128*
%FSLAX45Y45*%
%MOMM*%
%TF.SameCoordinates,EE3A7C27-349B-46B6-A90B-2B7A9072729B*%
%TF.FilePolarity,Positive*%
%TF.FileFunction,Paste,Bot*%
%TF.Part,Single*%
G01*
G75*
%TA.AperFunction,SMDPad,CuDef*%
%ADD11R,0.90000X0.80000*%
%ADD12R,0.80000X0.90000*%
%ADD15R,0.60000X0.50000*%
%ADD19R,0.50000X0.60000*%
%ADD21R,0.50000X0.30000*%
%ADD49R,0.30000X0.50000*%
%ADD81R,1.95000X0.95000*%
%ADD82R,0.30000X0.70000*%
%ADD83R,2.00000X1.20000*%
%TA.AperFunction,ConnectorPad*%
%ADD84R,1.05000X1.40000*%
%TA.AperFunction,SMDPad,CuDef*%
%ADD85R,2.10000X1.40000*%
%ADD86R,1.50000X0.80000*%
%ADD87R,1.00000X1.80000*%
G36*
X3450001Y2775000D02*
Y2905000D01*
X3310001D01*
Y2775000D01*
X3450001D01*
D02*
G37*
G36*
Y3345000D02*
X3310001D01*
Y3475000D01*
X3450001D01*
Y3345000D01*
D02*
G37*
G36*
X4700001Y2330000D02*
Y2190000D01*
X4890001D01*
Y2330000D01*
X4700001D01*
D02*
G37*
G36*
X4790001Y3500000D02*
Y3640000D01*
X4600001D01*
Y3500000D01*
X4790001D01*
D02*
G37*
D11*
X2670000Y3700000D02*
D03*
Y3560000D02*
D03*
X3090000Y3110000D02*
D03*
Y2970000D02*
D03*
X3210000Y3110000D02*
D03*
Y2970000D02*
D03*
D12*
X2610000Y3230000D02*
D03*
X2470000D02*
D03*
D15*
X2770000Y3530000D02*
D03*
Y3630000D02*
D03*
X2830001Y2990000D02*
D03*
Y3090000D02*
D03*
X2910001Y2990000D02*
D03*
Y3089999D02*
D03*
X2990001Y2990000D02*
D03*
Y3089999D02*
D03*
X2050000Y1600000D02*
D03*
Y1700000D02*
D03*
D19*
X480000Y3430000D02*
D03*
X580000D02*
D03*
X980000Y3930000D02*
D03*
X880000D02*
D03*
X270000Y3920000D02*
D03*
X370000D02*
D03*
X200000D02*
D03*
X100000D02*
D03*
X210000Y4730000D02*
D03*
X110000D02*
D03*
D21*
X3040001Y2590000D02*
D03*
X2940000D02*
D03*
X3040001Y2720000D02*
D03*
X2940000D02*
D03*
X3040001Y2840000D02*
D03*
X2940000D02*
D03*
X3050001Y3240000D02*
D03*
X2950000D02*
D03*
X3050001Y3370000D02*
D03*
X2950000D02*
D03*
X3050001Y3510000D02*
D03*
X2950000D02*
D03*
D49*
X2720001Y2990000D02*
D03*
Y3090000D02*
D03*
D81*
X2495000Y3525000D02*
D03*
D82*
X2520000Y3420000D02*
D03*
X2470000D02*
D03*
X2570000D02*
D03*
X2470000Y3630000D02*
D03*
X2520000D02*
D03*
X2570000D02*
D03*
X2420000Y3420000D02*
D03*
Y3630000D02*
D03*
D83*
X580000Y3790000D02*
D03*
X950000D02*
D03*
Y3570000D02*
D03*
X580000D02*
D03*
D84*
X235000Y4170000D02*
D03*
Y4530000D02*
D03*
X90000Y4170000D02*
D03*
Y4530000D02*
D03*
D85*
X2045000Y1368001D02*
D03*
Y922001D02*
D03*
X2955000Y1368001D02*
D03*
Y922001D02*
D03*
D86*
X4430001Y2720000D02*
D03*
X4390001Y2830000D02*
D03*
X4430001Y2940000D02*
D03*
X4450001Y3050000D02*
D03*
X4430001Y3160000D02*
D03*
X4450001Y3270000D02*
D03*
X4430001Y3380000D02*
D03*
Y3490000D02*
D03*
D87*
X120000Y3760000D02*
D03*
X370000D02*
D03*
%TF.MD5,7662602b21c80077a74c4e4f7a81b906*%
M02*
