%TF.GenerationSoftware,Altium Limited,Altium Designer,21.2.2 (38)*%
G04 Layer_Color=16711935*
%FSLAX45Y45*%
%MOMM*%
%TF.SameCoordinates,EE3A7C27-349B-46B6-A90B-2B7A9072729B*%
%TF.FilePolarity,Positive*%
%TF.FileFunction,Other,Mechanical_13*%
%TF.Part,Single*%
G01*
G75*
%TA.AperFunction,NonConductor*%
%ADD89C,0.10000*%
%ADD91C,0.20000*%
%ADD101C,0.30000*%
%ADD103C,0.12700*%
%ADD138C,0.00000*%
%ADD139C,0.01000*%
D89*
X945000Y2570000D02*
G03*
X945000Y2570000I-50000J0D01*
G01*
X4875000Y6795000D02*
G03*
X4875000Y6795000I-50000J0D01*
G01*
X1825000Y2835000D02*
G03*
X1825000Y2835000I-50000J0D01*
G01*
X1522500Y4912500D02*
Y5087500D01*
X1617500Y4912500D02*
Y5087500D01*
X1522500Y4912500D02*
X1617500D01*
X1522500Y5087500D02*
X1617500D01*
X3627500Y5742500D02*
Y5917500D01*
X3532500Y5742500D02*
Y5917500D01*
X3627500D01*
X3532500Y5742500D02*
X3627500D01*
X3747500D02*
Y5917500D01*
X3652500Y5742500D02*
Y5917500D01*
X3747500D01*
X3652500Y5742500D02*
X3747500D01*
X2592500Y3842500D02*
Y4017500D01*
X2687500Y3842500D02*
Y4017500D01*
X2592500Y3842500D02*
X2687500D01*
X2592500Y4017500D02*
X2687500D01*
X2627500Y3182500D02*
Y3277500D01*
X2452500Y3182500D02*
Y3277500D01*
X2627500D01*
X2452500Y3182500D02*
X2627500D01*
X1055000Y2042500D02*
X1230000D01*
X1055000Y2137500D02*
X1230000D01*
Y2042500D02*
Y2137500D01*
X1055000Y2042500D02*
Y2137500D01*
Y2282500D02*
X1230000D01*
X1055000Y2377500D02*
X1230000D01*
Y2282500D02*
Y2377500D01*
X1055000Y2282500D02*
Y2377500D01*
X1054950Y2162562D02*
X1229950D01*
X1054950Y2257562D02*
X1229950D01*
Y2162562D02*
Y2257562D01*
X1054950Y2162562D02*
Y2257562D01*
X4055000Y5555000D02*
Y5725000D01*
X4365000Y5555000D02*
Y5725000D01*
X4055000Y5555000D02*
X4365000D01*
X4055000Y5725000D02*
X4365000D01*
X3032500Y2557500D02*
Y2622500D01*
X2947501Y2557500D02*
Y2622500D01*
X3032500D01*
X2947501Y2557500D02*
X3032500D01*
Y2687500D02*
Y2752500D01*
X2947501Y2687500D02*
Y2752500D01*
X3032500D01*
X2947501Y2687500D02*
X3032500D01*
X2622500Y3542500D02*
Y3717500D01*
X2717500Y3542500D02*
Y3717500D01*
X2622500D02*
X2717500D01*
X2622500Y3542500D02*
X2717500D01*
X3032500Y2807500D02*
Y2872500D01*
X2947501Y2807500D02*
Y2872500D01*
X3032500D01*
X2947501Y2807500D02*
X3032500D01*
X2687501Y2997500D02*
X2752501D01*
X2687501Y3082500D02*
X2752501D01*
Y2997500D02*
Y3082500D01*
X2687501Y2997500D02*
Y3082500D01*
X3042500Y3127500D02*
X3137500D01*
X3042500Y2952500D02*
X3137500D01*
X3042500D02*
Y3127500D01*
X3137500Y2952500D02*
Y3127500D01*
X3162500D02*
X3257500D01*
X3162500Y2952500D02*
X3257500D01*
X3162500D02*
Y3127500D01*
X3257500Y2952500D02*
Y3127500D01*
X3042500Y3207500D02*
Y3272500D01*
X2957501Y3207500D02*
Y3272500D01*
X3042500D01*
X2957501Y3207500D02*
X3042500D01*
Y3337500D02*
Y3402500D01*
X2957501Y3337500D02*
Y3402500D01*
X3042500D01*
X2957501Y3337500D02*
X3042500D01*
Y3477500D02*
Y3542500D01*
X2957501Y3477500D02*
Y3542500D01*
X3042500D01*
X2957501Y3477500D02*
X3042500D01*
X2500Y4620000D02*
X322500D01*
Y4080000D02*
Y4620000D01*
X2500Y4080000D02*
X322500D01*
X2500D02*
Y4620000D01*
X4147500Y5212500D02*
Y5307500D01*
X3972500Y5212500D02*
Y5307500D01*
Y5212500D02*
X4147500D01*
X3972500Y5307500D02*
X4147500D01*
X3842500Y4752500D02*
Y4847500D01*
X4017500Y4752500D02*
Y4847500D01*
X3842500D02*
X4017500D01*
X3842500Y4752500D02*
X4017500D01*
X2910000Y4902500D02*
X3130000D01*
X2910000Y4757500D02*
X3130000D01*
X2910000D02*
Y4902500D01*
X3130000Y4757500D02*
Y4902500D01*
X3432500Y4602500D02*
Y4697500D01*
X3607500Y4602500D02*
Y4697500D01*
X3432500D02*
X3607500D01*
X3432500Y4602500D02*
X3607500D01*
X2472500Y3112500D02*
X2567500D01*
X2472500Y3287500D02*
X2567500D01*
X2472500Y3112500D02*
Y3287500D01*
X2567500Y3112500D02*
Y3287500D01*
X475000Y2260000D02*
Y2660000D01*
X985000Y2260000D02*
Y2660000D01*
X475000Y2260000D02*
X985000D01*
X475000Y2660000D02*
X985000D01*
X102500Y2502500D02*
X277500D01*
X102500Y2597500D02*
X277500D01*
Y2502500D02*
Y2597500D01*
X102500Y2502500D02*
Y2597500D01*
X3072500Y2557500D02*
Y2622500D01*
X2987500Y2557500D02*
Y2622500D01*
Y2557500D02*
X3072500D01*
X2987500Y2622500D02*
X3072500D01*
X2932500Y3207499D02*
Y3272499D01*
X2847500Y3207499D02*
Y3272499D01*
Y3207499D02*
X2932500D01*
X2847500Y3272499D02*
X2932500D01*
X2847500Y3582500D02*
X2932500D01*
X2847500Y3517499D02*
X2932500D01*
X2847500D02*
Y3582500D01*
X2932500Y3517499D02*
Y3582500D01*
X3182500Y4242500D02*
X3277500D01*
X3182500Y4417500D02*
X3277500D01*
X3182500Y4242500D02*
Y4417500D01*
X3277500Y4242500D02*
Y4417500D01*
X3662500Y4667500D02*
X3757500D01*
X3662500Y4492500D02*
X3757500D01*
Y4667500D01*
X3662500Y4492500D02*
Y4667500D01*
X3987500Y4402500D02*
Y4497500D01*
X3812500Y4402500D02*
Y4497500D01*
Y4402500D02*
X3987500D01*
X3812500Y4497500D02*
X3987500D01*
X3987500Y4522500D02*
Y4617500D01*
X3812500Y4522500D02*
Y4617500D01*
Y4522500D02*
X3987500D01*
X3812500Y4617500D02*
X3987500D01*
X4427500Y4852500D02*
Y4947500D01*
X4252500Y4852500D02*
Y4947500D01*
Y4852500D02*
X4427500D01*
X4252500Y4947500D02*
X4427500D01*
X3777500Y4752500D02*
Y4847500D01*
X3602500Y4752500D02*
Y4847500D01*
Y4752500D02*
X3777500D01*
X3602500Y4847500D02*
X3777500D01*
X3512500Y5212500D02*
Y5307500D01*
X3687500Y5212500D02*
Y5307500D01*
X3512500D02*
X3687500D01*
X3512500Y5212500D02*
X3687500D01*
X3772500Y5862500D02*
X3867500D01*
X3772500Y6037500D02*
X3867500D01*
X3772500Y5862500D02*
Y6037500D01*
X3867500Y5862500D02*
Y6037500D01*
X4605000Y6885000D02*
X4915000D01*
X4605000Y6575000D02*
X4915000D01*
Y6885000D01*
X4605000Y6575000D02*
Y6885000D01*
X4087500Y6652500D02*
Y6827500D01*
X3992500Y6652500D02*
Y6827500D01*
X4087500D01*
X3992500Y6652500D02*
X4087500D01*
X3762500Y6702500D02*
X3857500D01*
X3762500Y6877500D02*
X3857500D01*
X3762500Y6702500D02*
Y6877500D01*
X3857500Y6702500D02*
Y6877500D01*
X3482500Y5972500D02*
Y6067500D01*
X3657500Y5972500D02*
Y6067500D01*
X3482500D02*
X3657500D01*
X3482500Y5972500D02*
X3657500D01*
X3417500Y5982500D02*
Y6077500D01*
X3242499Y5982500D02*
Y6077500D01*
Y5982500D02*
X3417500D01*
X3242499Y6077500D02*
X3417500D01*
X3377500Y5862500D02*
Y5957500D01*
X3202500Y5862500D02*
Y5957500D01*
Y5862500D02*
X3377500D01*
X3202500Y5957500D02*
X3377500D01*
X3357500Y5742500D02*
Y5837500D01*
X3182500Y5742500D02*
Y5837500D01*
Y5742500D02*
X3357500D01*
X3182500Y5837500D02*
X3357500D01*
Y5622500D02*
Y5717500D01*
X3182500Y5622500D02*
Y5717500D01*
Y5622500D02*
X3357500D01*
X3182500Y5717500D02*
X3357500D01*
Y5502500D02*
Y5597500D01*
X3182500Y5502500D02*
Y5597500D01*
Y5502500D02*
X3357500D01*
X3182500Y5597500D02*
X3357500D01*
Y5382500D02*
Y5477500D01*
X3182500Y5382500D02*
Y5477500D01*
Y5382500D02*
X3357500D01*
X3182500Y5477500D02*
X3357500D01*
X3317500Y5272500D02*
Y5367500D01*
X3142500Y5272500D02*
Y5367500D01*
Y5272500D02*
X3317500D01*
X3142500Y5367500D02*
X3317500D01*
X1447500Y5720000D02*
X1592500D01*
X1447500Y5500000D02*
X1592500D01*
Y5720000D01*
X1447500Y5500000D02*
Y5720000D01*
X2257499Y4812501D02*
Y4987501D01*
X2162499Y4812501D02*
Y4987501D01*
X2257499D01*
X2162499Y4812501D02*
X2257499D01*
X1737500Y4830000D02*
Y5005000D01*
X1642500Y4830000D02*
Y5005000D01*
X1737500D01*
X1642500Y4830000D02*
X1737500D01*
X452500Y4647500D02*
X547500D01*
X452500Y4472500D02*
X547500D01*
Y4647500D01*
X452500Y4472500D02*
Y4647500D01*
X310000Y5307500D02*
Y5452500D01*
X530000Y5307500D02*
Y5452500D01*
X310000D02*
X530000D01*
X310000Y5307500D02*
X530000D01*
X350000Y6282500D02*
Y6427500D01*
X570000Y6282500D02*
Y6427500D01*
X350000D02*
X570000D01*
X350000Y6282500D02*
X570000D01*
X4237500Y1927500D02*
Y2012500D01*
X4302500Y1927500D02*
Y2012500D01*
X4237500Y1927500D02*
X4302500D01*
X4237500Y2012500D02*
X4302500D01*
X2142500Y5812502D02*
X2237500D01*
X2142500Y5987502D02*
X2237500D01*
X2142500Y5812502D02*
Y5987502D01*
X2237500Y5812502D02*
Y5987502D01*
X2262500Y5812502D02*
X2357500D01*
X2262500Y5987502D02*
X2357500D01*
X2262500Y5812502D02*
Y5987502D01*
X2357500Y5812502D02*
Y5987502D01*
X2232500Y5617500D02*
X2327500D01*
X2232500Y5442500D02*
X2327500D01*
Y5617500D01*
X2232500Y5442500D02*
Y5617500D01*
Y5247500D02*
X2327500D01*
X2232500Y5072500D02*
X2327500D01*
Y5247500D01*
X2232500Y5072500D02*
Y5247500D01*
X4740000Y1450000D02*
Y1890000D01*
X4340000Y1450000D02*
X4740000D01*
X4340000D02*
Y1890000D01*
X4740000D01*
X1087500Y1077500D02*
X1172500D01*
X1087500Y1142500D02*
X1172500D01*
Y1077500D02*
Y1142500D01*
X1087500Y1077500D02*
Y1142500D01*
X1685000Y2415000D02*
Y2925000D01*
X2135000Y2415000D02*
Y2925000D01*
X1685000D02*
X2135000D01*
X1685000Y2415000D02*
X2135000D01*
X240000Y890000D02*
Y1330000D01*
X640000D01*
Y890000D02*
Y1330000D01*
X240000Y890000D02*
X640000D01*
X1572500Y2162500D02*
Y2337500D01*
X1667500Y2162500D02*
Y2337500D01*
X1572500Y2162500D02*
X1667500D01*
X1572500Y2337500D02*
X1667500D01*
X812500Y1172500D02*
X987500D01*
X812500Y1267500D02*
X987500D01*
Y1172500D02*
Y1267500D01*
X812500Y1172500D02*
Y1267500D01*
X1292500Y2352500D02*
X1437501D01*
X1292500Y2132500D02*
X1437501D01*
Y2352500D01*
X1292500Y2132500D02*
Y2352500D01*
X1460000Y2162500D02*
Y2337500D01*
X1555000Y2162500D02*
Y2337500D01*
X1460000Y2162500D02*
X1555000D01*
X1460000Y2337500D02*
X1555000D01*
X1062500Y862500D02*
X1237500D01*
X1062500Y957500D02*
X1237500D01*
Y862500D02*
Y957500D01*
X1062500Y862500D02*
Y957500D01*
X3972500Y6457500D02*
X4067500D01*
X3972500Y6282500D02*
X4067500D01*
Y6457500D01*
X3972500Y6282500D02*
Y6457500D01*
D91*
X2036250Y3265000D02*
G03*
X2036250Y3265000I-10000J0D01*
G01*
D101*
X4105000Y4065000D02*
G03*
X4105000Y4065000I-10000J0D01*
G01*
D103*
X2076250Y3285000D02*
X2276250D01*
Y3085000D02*
Y3285000D01*
X2076250Y3085000D02*
X2276250D01*
X2076250D02*
Y3285000D01*
X4195000Y4675000D02*
X4955000D01*
Y3885000D02*
Y4675000D01*
X4195000Y3885000D02*
X4955000D01*
X4195000D02*
Y4675000D01*
D138*
X2675000Y1145001D02*
G03*
X2675000Y1145001I-175000J0D01*
G01*
D139*
X2350000Y1345001D02*
G03*
X2350000Y1345001I-50000J0D01*
G01*
Y945001D02*
G03*
X2350000Y945001I-50000J0D01*
G01*
X2750000Y1345001D02*
G03*
X2750000Y1345001I-50000J0D01*
G01*
Y945001D02*
G03*
X2750000Y945001I-50000J0D01*
G01*
%TF.MD5,8c6c14a0efd96f9502cd9515d8ae87b6*%
M02*
