  0
SECTION
  2
HEADER
  9
$ACADVER
  1
AC1014
  9
$ACADMAINTVER
 70
     9
  9
$DWGCODEPAGE
  3
ANSI_1252
  9
$INSBASE
 10
0.0
 20
0.0
 30
0.0
  9
$EXTMIN
 10
0.0063519351
 20
-29.2375273763
 30
0.0
  9
$EXTMAX
 10
63.8354926001
 20
-0.0063480205
 30
0.0
  9
$LIMMIN
 10
0.0
 20
0.0
  9
$LIMMAX
 10
420.0
 20
297.0
  9
$ORTHOMODE
 70
     0
  9
$REGENMODE
 70
     1
  9
$FILLMODE
 70
     1
  9
$QTEXTMODE
 70
     0
  9
$MIRRTEXT
 70
     1
  9
$DRAGMODE
 70
     2
  9
$LTSCALE
 40
1.0
  9
$OSMODE
 70
    37
  9
$ATTMODE
 70
     1
  9
$TEXTSIZE
 40
3.5
  9
$TRACEWID
 40
1.0
  9
$TEXTSTYLE
  7
STANDARD
  9
$CLAYER
  8
0
  9
$CELTYPE
  6
BYLAYER
  9
$CECOLOR
 62
   256
  9
$CELTSCALE
 40
1.0
  9
$DELOBJ
 70
     1
  9
$DISPSILH
 70
     0
  9
$DIMSCALE
 40
1.0
  9
$DIMASZ
 40
6.0
  9
$DIMEXO
 40
0.0
  9
$DIMDLI
 40
3.75
  9
$DIMRND
 40
0.0
  9
$DIMDLE
 40
0.0
  9
$DIMEXE
 40
1.0
  9
$DIMTP
 40
0.0
  9
$DIMTM
 40
0.0
  9
$DIMTXT
 40
3.5
  9
$DIMCEN
 40
2.5
  9
$DIMTSZ
 40
0.0
  9
$DIMTOL
 70
     0
  9
$DIMLIM
 70
     0
  9
$DIMTIH
 70
     1
  9
$DIMTOH
 70
     1
  9
$DIMSE1
 70
     0
  9
$DIMSE2
 70
     0
  9
$DIMTAD
 70
     1
  9
$DIMZIN
 70
     0
  9
$DIMBLK
  1

  9
$DIMASO
 70
     1
  9
$DIMSHO
 70
     1
  9
$DIMPOST
  1

  9
$DIMAPOST
  1

  9
$DIMALT
 70
     0
  9
$DIMALTD
 70
     3
  9
$DIMALTF
 40
0.0393700787
  9
$DIMLFAC
 40
1.0
  9
$DIMTOFL
 70
     1
  9
$DIMTVP
 40
0.0
  9
$DIMTIX
 70
     0
  9
$DIMSOXD
 70
     0
  9
$DIMSAH
 70
     0
  9
$DIMBLK1
  1

  9
$DIMBLK2
  1

  9
$DIMSTYLE
  2
ISO-25
  9
$DIMCLRD
 70
     0
  9
$DIMCLRE
 70
     0
  9
$DIMCLRT
 70
     0
  9
$DIMTFAC
 40
1.0
  9
$DIMGAP
 40
1.524
  9
$DIMJUST
 70
     0
  9
$DIMSD1
 70
     0
  9
$DIMSD2
 70
     0
  9
$DIMTOLJ
 70
     0
  9
$DIMTZIN
 70
     0
  9
$DIMALTZ
 70
     0
  9
$DIMALTTZ
 70
     0
  9
$DIMFIT
 70
     3
  9
$DIMUPT
 70
     0
  9
$DIMUNIT
 70
     2
  9
$DIMDEC
 70
     3
  9
$DIMTDEC
 70
     3
  9
$DIMALTU
 70
     2
  9
$DIMALTTD
 70
     3
  9
$DIMTXSTY
  7
STANDARD
  9
$DIMAUNIT
 70
     0
  9
$LUNITS
 70
     2
  9
$LUPREC
 70
     2
  9
$SKETCHINC
 40
1.0
  9
$FILLETRAD
 40
10.0
  9
$AUNITS
 70
     0
  9
$AUPREC
 70
     2
  9
$MENU
  1
.
  9
$ELEVATION
 40
0.0
  9
$PELEVATION
 40
0.0
  9
$THICKNESS
 40
0.0
  9
$LIMCHECK
 70
     0
  9
$CHAMFERA
 40
0.0
  9
$CHAMFERB
 40
0.0
  9
$CHAMFERC
 40
0.0
  9
$CHAMFERD
 40
0.0
  9
$SKPOLY
 70
     0
  9
$TDCREATE
 40
2459257.641313356
  9
$TDUPDATE
 40
2459257.64138081
  9
$TDINDWG
 40
0.0000000116
  9
$TDUSRTIMER
 40
0.0000000116
  9
$USRTIMER
 70
     1
  9
$ANGBASE
 50
0.0
  9
$ANGDIR
 70
     0
  9
$PDMODE
 70
     0
  9
$PDSIZE
 40
-1.0
  9
$PLINEWID
 40
0.0
  9
$COORDS
 70
     1
  9
$SPLFRAME
 70
     0
  9
$SPLINETYPE
 70
     6
  9
$SPLINESEGS
 70
     8
  9
$ATTDIA
 70
     0
  9
$ATTREQ
 70
     1
  9
$HANDLING
 70
     1
  9
$HANDSEED
  5
166
  9
$SURFTAB1
 70
     6
  9
$SURFTAB2
 70
     6
  9
$SURFTYPE
 70
     6
  9
$SURFU
 70
     6
  9
$SURFV
 70
     6
  9
$UCSNAME
  2

  9
$UCSORG
 10
0.0
 20
0.0
 30
0.0
  9
$UCSXDIR
 10
1.0
 20
0.0
 30
0.0
  9
$UCSYDIR
 10
0.0
 20
1.0
 30
0.0
  9
$PUCSNAME
  2

  9
$PUCSORG
 10
0.0
 20
0.0
 30
0.0
  9
$PUCSXDIR
 10
1.0
 20
0.0
 30
0.0
  9
$PUCSYDIR
 10
0.0
 20
1.0
 30
0.0
  9
$USERI1
 70
     0
  9
$USERI2
 70
     0
  9
$USERI3
 70
     0
  9
$USERI4
 70
     0
  9
$USERI5
 70
     0
  9
$USERR1
 40
0.0
  9
$USERR2
 40
0.0
  9
$USERR3
 40
0.0
  9
$USERR4
 40
0.0
  9
$USERR5
 40
0.0
  9
$WORLDVIEW
 70
     1
  9
$SHADEDGE
 70
     3
  9
$SHADEDIF
 70
    70
  9
$TILEMODE
 70
     1
  9
$MAXACTVP
 70
    64
  9
$PINSBASE
 10
0.0
 20
0.0
 30
0.0
  9
$PLIMCHECK
 70
     0
  9
$PEXTMIN
 10
0.0063519351
 20
0.0063480205
 30
0.0
  9
$PEXTMAX
 10
63.8354926001
 20
29.2375273763
 30
0.0
  9
$PLIMMIN
 10
-4.9608963657
 20
-1.8563700923
  9
$PLIMMAX
 10
68.8027409009
 20
50.2997370659
  9
$UNITMODE
 70
     0
  9
$VISRETAIN
 70
     1
  9
$PLINEGEN
 70
     0
  9
$PSLTSCALE
 70
     1
  9
$TREEDEPTH
 70
  3020
  9
$PICKSTYLE
 70
     1
  9
$CMLSTYLE
  2
STANDARD
  9
$CMLJUST
 70
     0
  9
$CMLSCALE
 40
20.0
  9
$PROXYGRAPHICS
 70
     1
  9
$MEASUREMENT
 70
     1
  0
ENDSEC
  0
SECTION
  2
CLASSES
  0
CLASS
  1
ACDBDICTIONARYWDFLT
  2
AcDbDictionaryWithDefault
  3
ObjectDBX Classes
 90
        0
280
     0
281
     0
  0
CLASS
  1
VISUALSTYLE
  2
AcDbVisualStyle
  3
ObjectDBX Classes
 90
     4095
280
     0
281
     0
  0
CLASS
  1
MATERIAL
  2
AcDbMaterial
  3
ObjectDBX Classes
 90
     1153
280
     0
281
     0
  0
CLASS
  1
SCALE
  2
AcDbScale
  3
ObjectDBX Classes
 90
     1153
280
     0
281
     0
  0
CLASS
  1
TABLESTYLE
  2
AcDbTableStyle
  3
ObjectDBX Classes
 90
     4095
280
     0
281
     0
  0
CLASS
  1
MLEADERSTYLE
  2
AcDbMLeaderStyle
  3
ACDB_MLEADERSTYLE_CLASS
 90
     4095
280
     0
281
     0
  0
CLASS
  1
SUN
  2
AcDbSun
  3
SCENEOE
 90
     1153
280
     0
281
     0
  0
CLASS
  1
XRECORD
  2
AcDbXrecord
  3
ObjectDBX Classes
 90
        0
280
     0
281
     0
  0
CLASS
  1
LWPOLYLINE
  2
AcDbPolyline
  3
ObjectDBX Classes
 90
        0
280
     0
281
     1
  0
CLASS
  1
HATCH
  2
AcDbHatch
  3
ObjectDBX Classes
 90
        0
280
     0
281
     1
  0
ENDSEC
  0
SECTION
  2
TABLES
  0
TABLE
  2
VPORT
  5
8
330
0
100
AcDbSymbolTable
 70
     1
  0
VPORT
  5
29
330
8
100
AcDbSymbolTableRecord
100
AcDbViewportTableRecord
  2
*ACTIVE
 70
     0
 10
0.0
 20
0.0
 11
1.0
 21
1.0
 12
31.9209222676
 22
-14.6219376984
 13
0.0
 23
0.0
 14
10.0
 24
10.0
 15
10.0
 25
10.0
 16
0.0
 26
0.0
 36
1.0
 17
0.0
 27
0.0
 37
0.0
 40
29.8158029429
 41
2.1835978593
 42
50.0
 43
0.0
 44
0.0
 50
0.0
 51
0.0
 71
     0
 72
   100
 73
     1
 74
     3
 75
     0
 76
     0
 77
     0
 78
     0
  0
ENDTAB
  0
TABLE
  2
LTYPE
  5
5
330
0
100
AcDbSymbolTable
 70
     6
  0
LTYPE
  5
14
330
5
100
AcDbSymbolTableRecord
100
AcDbLinetypeTableRecord
  2
BYBLOCK
 70
     0
  3

 72
    65
 73
     0
 40
0.0
  0
LTYPE
  5
15
330
5
100
AcDbSymbolTableRecord
100
AcDbLinetypeTableRecord
  2
BYLAYER
 70
     0
  3

 72
    65
 73
     0
 40
0.0
  0
LTYPE
  5
16
330
5
100
AcDbSymbolTableRecord
100
AcDbLinetypeTableRecord
  2
CONTINUOUS
 70
     0
  3
Solid line
 72
    65
 73
     0
 40
0.0
  0
LTYPE
  5
6E
330
5
100
AcDbSymbolTableRecord
100
AcDbLinetypeTableRecord
  2
HIDDEN
 70
     0
  3
Hidden __ __ __ __ __ __ __ __ __ __ __ __ __ __
 72
    65
 73
     2
 40
1.905
 49
1.27
 74
     0
 49
-0.635
 74
     0
  0
LTYPE
  5
6F
330
5
100
AcDbSymbolTableRecord
100
AcDbLinetypeTableRecord
  2
PHANTOM
 70
     0
  3
Phantom ______  __  __  ______  __  __  ______
 72
    65
 73
     6
 40
12.7
 49
6.35
 74
     0
 49
-1.27
 74
     0
 49
1.27
 74
     0
 49
-1.27
 74
     0
 49
1.27
 74
     0
 49
-1.27
 74
     0
  0
LTYPE
  5
70
330
5
100
AcDbSymbolTableRecord
100
AcDbLinetypeTableRecord
  2
CENTER
 70
     0
  3
Center ____ _ ____ _ ____ _ ____ _ ____ _ ____
 72
    65
 73
     4
 40
10.16
 49
6.35
 74
     0
 49
-1.27
 74
     0
 49
1.27
 74
     0
 49
-1.27
 74
     0
  0
LTYPE
  5
71
330
5
100
AcDbSymbolTableRecord
100
AcDbLinetypeTableRecord
  2
CENTERX2
 70
     0
  3
Center (2x) ________  __  ________  __  _____
 72
    65
 73
     4
 40
20.32
 49
12.7
 74
     0
 49
-2.54
 74
     0
 49
2.54
 74
     0
 49
-2.54
 74
     0
  0
LTYPE
  5
72
330
5
100
AcDbSymbolTableRecord
100
AcDbLinetypeTableRecord
  2
DOT2
 70
     0
  3
Dot (.5x) ........................................
 72
    65
 73
     2
 40
0.635
 49
0.0
 74
     0
 49
-0.635
 74
     0
  0
ENDTAB
  0
TABLE
  2
LAYER
  5
2
330
0
100
AcDbSymbolTable
 70
     1
  0
LAYER
  5
10
330
2
100
AcDbSymbolTableRecord
100
AcDbLayerTableRecord
  2
0
 70
     0
 62
     7
  6
CONTINUOUS
  0
ENDTAB
  0
TABLE
  2
STYLE
  5
3
330
0
100
AcDbSymbolTable
 70
     1
  0
STYLE
  5
11
330
3
100
AcDbSymbolTableRecord
100
AcDbTextStyleTableRecord
  2
STANDARD
 70
     0
 40
0.0
 41
1.0
 50
0.0
 71
     0
 42
3.5
  3
txt
  4

  0
ENDTAB
  0
TABLE
  2
VIEW
  5
6
330
0
100
AcDbSymbolTable
 70
     0
  0
ENDTAB
  0
TABLE
  2
UCS
  5
7
330
0
100
AcDbSymbolTable
 70
     0
  0
ENDTAB
  0
TABLE
  2
APPID
  5
9
330
0
100
AcDbSymbolTable
 70
     1
  0
APPID
  5
12
330
9
100
AcDbSymbolTableRecord
100
AcDbRegAppTableRecord
  2
ACAD
 70
     0
  0
ENDTAB
  0
TABLE
  2
DIMSTYLE
  5
A
330
0
100
AcDbSymbolTable
 70
     1
  0
DIMSTYLE
105
27
330
A
100
AcDbSymbolTableRecord
100
AcDbDimStyleTableRecord
  2
ISO-25
 70
     0
  3

  4

  5

  6

  7

 40
1.0
 41
2.5
 42
0.625
 43
3.75
 44
1.25
 45
0.0
 46
0.0
 47
0.0
 48
0.0
140
2.5
141
2.5
142
0.0
143
0.0393700787
144
1.0
145
0.0
146
1.0
147
0.625
 71
     0
 72
     0
 73
     0
 74
     0
 75
     0
 76
     0
 77
     1
 78
     8
170
     0
171
     3
172
     1
173
     0
174
     0
175
     0
176
     0
177
     0
178
     0
270
     2
271
     2
272
     2
273
     2
274
     3
340
11
275
     0
280
     0
281
     0
282
     0
283
     0
284
     8
285
     0
286
     0
287
     3
288
     0
  0
ENDTAB
  0
TABLE
  2
BLOCK_RECORD
  5
1
330
0
100
AcDbSymbolTable
 70
     1
  0
BLOCK_RECORD
  5
1F
330
1
100
AcDbSymbolTableRecord
100
AcDbBlockTableRecord
  2
*MODEL_SPACE
  0
BLOCK_RECORD
  5
1B
330
1
100
AcDbSymbolTableRecord
100
AcDbBlockTableRecord
  2
*PAPER_SPACE
  0
BLOCK_RECORD
  5
23
330
1
100
AcDbSymbolTableRecord
100
AcDbBlockTableRecord
  2
*PAPER_SPACE0
  0
ENDTAB
  0
ENDSEC
  0
SECTION
  2
BLOCKS
  0
BLOCK
  5
20
330
1F
100
AcDbEntity
  8
0
100
AcDbBlockBegin
  2
*MODEL_SPACE
 70
     0
 10
0.0
 20
0.0
 30
0.0
  3
*MODEL_SPACE
  1

  0
ENDBLK
  5
21
330
1F
100
AcDbEntity
  8
0
100
AcDbBlockEnd
  0
BLOCK
  5
1C
330
1B
100
AcDbEntity
 67
     1
  8
0
100
AcDbBlockBegin
  2
*PAPER_SPACE
 70
     0
 10
0.0
 20
0.0
 30
0.0
  3
*PAPER_SPACE
  1

  0
ENDBLK
  5
1D
330
1B
100
AcDbEntity
 67
     1
  8
0
100
AcDbBlockEnd
  0
BLOCK
  5
24
330
23
100
AcDbEntity
  8
0
100
AcDbBlockBegin
  2
*PAPER_SPACE0
 70
     0
 10
0.0
 20
0.0
 30
0.0
  3
*PAPER_SPACE0
  1

  0
ENDBLK
  5
25
330
23
100
AcDbEntity
  8
0
100
AcDbBlockEnd
  0
ENDSEC
  0
SECTION
  2
ENTITIES
  0
CIRCLE
  5
73
330
1F
100
AcDbEntity
  8
0
  6
CONTINUOUS
 62
     7
100
AcDbCircle
 10
13.6558254944
 20
-22.117965627
 30
0.0
 40
2.100000000000009
  0
CIRCLE
  5
74
330
1F
100
AcDbEntity
  8
0
  6
CONTINUOUS
 62
     7
100
AcDbCircle
 10
13.6419520791
 20
-14.6220471928
 30
0.0
 40
2.099999999999998
  0
CIRCLE
  5
75
330
1F
100
AcDbEntity
  8
0
  6
CONTINUOUS
 62
     7
100
AcDbCircle
 10
13.6419248955
 20
-7.1143240162
 30
0.0
 40
2.100000000000002
  0
CIRCLE
  5
76
330
1F
100
AcDbEntity
  8
0
  6
CONTINUOUS
 62
     7
100
AcDbCircle
 10
6.9420033267
 20
-7.1218488652
 30
0.0
 40
2.100000000000001
  0
CIRCLE
  5
77
330
1F
100
AcDbEntity
  8
0
  6
CONTINUOUS
 62
     7
100
AcDbCircle
 10
6.94195208
 20
-14.62193672
 30
0.0
 40
2.099999999999991
  0
CIRCLE
  5
78
330
1F
100
AcDbEntity
  8
0
  6
CONTINUOUS
 62
     7
100
AcDbCircle
 10
6.9419008333
 20
-22.1220245748
 30
0.0
 40
2.100000000000033
  0
CIRCLE
  5
AC
330
1F
100
AcDbEntity
  8
0
  6
CONTINUOUS
 62
     7
100
AcDbCircle
 10
6.9419008333
 20
-22.1220245748
 30
0.0
 40
2.100000000000033
  0
CIRCLE
  5
AD
330
1F
100
AcDbEntity
  8
0
  6
CONTINUOUS
 62
     7
100
AcDbCircle
 10
6.94195208
 20
-14.62193672
 30
0.0
 40
2.099999999999991
  0
CIRCLE
  5
AE
330
1F
100
AcDbEntity
  8
0
  6
CONTINUOUS
 62
     7
100
AcDbCircle
 10
6.9420033267
 20
-7.1218488652
 30
0.0
 40
2.100000000000001
  0
CIRCLE
  5
AF
330
1F
100
AcDbEntity
  8
0
  6
CONTINUOUS
 62
     7
100
AcDbCircle
 10
13.6419248955
 20
-7.1143240162
 30
0.0
 40
2.100000000000002
  0
CIRCLE
  5
B0
330
1F
100
AcDbEntity
  8
0
  6
CONTINUOUS
 62
     7
100
AcDbCircle
 10
13.6419520791
 20
-14.6220471928
 30
0.0
 40
2.099999999999998
  0
CIRCLE
  5
B1
330
1F
100
AcDbEntity
  8
0
  6
CONTINUOUS
 62
     7
100
AcDbCircle
 10
13.6558254944
 20
-22.117965627
 30
0.0
 40
2.100000000000009
  0
CIRCLE
  5
B2
330
1F
100
AcDbEntity
  8
0
  6
CONTINUOUS
 62
     7
100
AcDbCircle
 10
16.943685857
 20
-25.6344488558
 30
0.0
 40
1.024999999999995
  0
CIRCLE
  5
B3
330
1F
100
AcDbEntity
  8
0
  6
CONTINUOUS
 62
     7
100
AcDbCircle
 10
3.4434978783
 20
-25.6198825377
 30
0.0
 40
1.024999999999999
  0
CIRCLE
  5
B4
330
1F
100
AcDbEntity
  8
0
  6
CONTINUOUS
 62
     7
100
AcDbCircle
 10
3.4437078226
 20
-3.6194013527
 30
0.0
 40
1.024999999999999
  0
CIRCLE
  5
B5
330
1F
100
AcDbEntity
  8
0
  6
CONTINUOUS
 62
     7
100
AcDbCircle
 10
16.9436932692
 20
-3.6344904592
 30
0.0
 40
1.024999999999999
  0
LINE
  5
B7
330
1F
100
AcDbEntity
  8
0
  6
CONTINUOUS
 62
     7
100
AcDbLine
 10
58.8798721395
 20
-29.2374481247
 30
0.0
 11
58.0073921805
 21
-29.2321072753
 31
0.0
  0
LINE
  5
B8
330
1F
100
AcDbEntity
  8
0
  6
CONTINUOUS
 62
     7
100
AcDbLine
 10
58.001042277
 20
-29.2320725106
 30
0.0
 11
56.883693663
 21
-29.2266777294
 31
0.0
  0
LINE
  5
B9
330
1F
100
AcDbEntity
  8
0
  6
CONTINUOUS
 62
     7
100
AcDbLine
 10
56.8773437285
 20
-29.2266489486
 30
0.0
 11
6.8841568915
 21
-29.0148423914
 31
0.0
  0
LINE
  5
BA
330
1F
100
AcDbEntity
  8
0
  6
CONTINUOUS
 62
     7
100
AcDbLine
 10
6.8778069428
 20
-29.0148169165
 30
0.0
 11
6.0008109372
 21
-29.0114957835
 31
0.0
  0
LINE
  5
BB
330
1F
100
AcDbEntity
  8
0
  6
CONTINUOUS
 62
     7
100
AcDbLine
 10
5.9944609701
 20
-29.0114757618
 30
0.0
 11
4.8816082099
 21
-29.0086723582
 31
0.0
  0
LINE
  5
BC
330
1F
100
AcDbEntity
  8
0
  6
CONTINUOUS
 62
     7
100
AcDbLine
 10
0.0064303953
 20
-24.0920118195
 30
0.0
 11
0.0117712447
 21
-23.2195318605
 31
0.0
  0
LINE
  5
BD
330
1F
100
AcDbEntity
  8
0
  6
CONTINUOUS
 62
     7
100
AcDbLine
 10
0.0118060165
 20
-23.213181957
 30
0.0
 11
0.0172033235
 21
-22.095828263
 31
0.0
  0
LINE
  5
BE
330
1F
100
AcDbEntity
  8
0
  6
CONTINUOUS
 62
     7
100
AcDbLine
 10
0.0172321027
 20
-22.0894783285
 30
0.0
 11
0.0488358373
 21
-14.6251116915
 31
0.0
  0
LINE
  5
BF
330
1F
100
AcDbEntity
  8
0
  6
CONTINUOUS
 62
     7
100
AcDbLine
 10
0.0488358373
 20
-14.6187617485
 30
0.0
 11
0.0172321027
 21
-7.1543925715
 31
0.0
  0
LINE
  5
C0
330
1F
100
AcDbEntity
  8
0
  6
CONTINUOUS
 62
     7
100
AcDbLine
 10
0.01720377
 20
-7.1480426349
 30
0.0
 11
0.01309081
 21
-6.2710466051
 31
0.0
  0
LINE
  5
C1
330
1F
100
AcDbEntity
  8
0
  6
CONTINUOUS
 62
     7
100
AcDbLine
 10
0.0130570126
 20
-6.2646966963
 30
0.0
 11
0.0064298674
 21
-5.1518590837
 31
0.0
  0
LINE
  5
C2
330
1F
100
AcDbEntity
  8
0
  6
CONTINUOUS
 62
     7
100
AcDbLine
 10
4.8816082112
 20
-0.2351990705
 30
0.0
 11
5.7541007688
 21
-0.2331464495
 31
0.0
  0
LINE
  5
C3
330
1F
100
AcDbEntity
  8
0
  6
CONTINUOUS
 62
     7
100
AcDbLine
 10
5.7604507389
 20
-0.2331274041
 30
0.0
 11
6.8778069411
 21
-0.2290535359
 31
0.0
  0
LINE
  5
C4
330
1F
100
AcDbEntity
  8
0
  6
CONTINUOUS
 62
     7
100
AcDbLine
 10
56.8836936651
 20
-0.0171936099
 30
0.0
 11
57.7606846149
 21
-0.0130806501
 31
0.0
  0
LINE
  5
C5
330
1F
100
AcDbEntity
  8
0
  6
CONTINUOUS
 62
     7
100
AcDbLine
 10
57.7670345238
 20
-0.013046867
 30
0.0
 11
58.8798721352
 21
-0.0064247579
 31
0.0
  0
LINE
  5
C6
330
1F
100
AcDbEntity
  8
0
  6
CONTINUOUS
 62
     7
100
AcDbLine
 10
63.7965321495
 20
-4.8815980512
 30
0.0
 11
63.7985847705
 21
-5.7540906088
 31
0.0
  0
LINE
  5
C7
330
1F
100
AcDbEntity
  8
0
  6
CONTINUOUS
 62
     7
100
AcDbLine
 10
63.7986038159
 20
-5.7604405789
 30
0.0
 11
63.8026776841
 21
-6.8778018611
 31
0.0
  0
LINE
  5
C8
330
1F
100
AcDbEntity
  8
0
  6
CONTINUOUS
 62
     7
100
AcDbLine
 10
63.8027027199
 20
-6.8841518115
 30
0.0
 11
63.8354926001
 21
-14.6187617485
 31
0.0
  0
LINE
  5
C9
330
1F
100
AcDbEntity
  8
0
  6
CONTINUOUS
 62
     7
100
AcDbLine
 10
63.8354926001
 20
-14.6251116915
 30
0.0
 11
63.8027027199
 21
-22.3597190885
 31
0.0
  0
LINE
  5
CA
330
1F
100
AcDbEntity
  8
0
  6
CONTINUOUS
 62
     7
100
AcDbLine
 10
63.8026772366
 20
-22.3660690372
 30
0.0
 11
63.7993561034
 21
-23.2430675828
 31
0.0
  0
LINE
  5
CB
330
1F
100
AcDbEntity
  8
0
  6
CONTINUOUS
 62
     7
100
AcDbLine
 10
63.7993360819
 20
-23.2494175499
 30
0.0
 11
63.7965326781
 21
-24.3622728501
 31
0.0
  0
LINE
  5
CC
330
1F
100
AcDbEntity
  8
0
  6
CONTINUOUS
 62
     7
100
AcDbLine
 10
6.8841568915
 20
-0.2290285086
 30
0.0
 11
56.8773437285
 21
-0.0172219514
 31
0.0
  0
ARC
  5
CD
330
1F
100
AcDbEntity
  8
0
  6
CONTINUOUS
 62
     7
100
AcDbCircle
 10
58.88304708
 20
-29.23746756
 30
0.0
 40
0.0031750000000092
100
AcDbArc
 50
359.7351878092
 51
179.6492706699
  0
ARC
  5
CE
330
1F
100
AcDbEntity
  8
0
  6
CONTINUOUS
 62
     7
100
AcDbCircle
 10
58.00421724
 20
-29.23208784
 30
0.0
 40
0.0031750000000208
100
AcDbArc
 50
359.6492706702
 51
179.7233667326
  0
ARC
  5
CF
330
1F
100
AcDbEntity
  8
0
  6
CONTINUOUS
 62
     7
100
AcDbCircle
 10
56.8805187
 20
-29.2266624
 30
0.0
 40
0.0031750000000084
100
AcDbArc
 50
359.7233667326
 51
179.7572559391
  0
ARC
  5
D0
330
1F
100
AcDbEntity
  8
0
  6
CONTINUOUS
 62
     7
100
AcDbCircle
 10
6.88098192
 20
-29.01482894
 30
0.0
 40
0.0031750000000003
100
AcDbArc
 50
359.7572559392
 51
179.7830252379
  0
ARC
  5
D1
330
1F
100
AcDbEntity
  8
0
  6
CONTINUOUS
 62
     7
100
AcDbCircle
 10
5.99763596
 20
-29.01148376
 30
0.0
 40
0.0031750000000008
100
AcDbArc
 50
359.7830252379
 51
179.8556656687
  0
ARC
  5
D2
330
1F
100
AcDbEntity
  8
0
  6
CONTINUOUS
 62
     7
100
AcDbCircle
 10
4.87843322
 20
-29.00866436
 30
0.0
 40
0.003175000000001
100
AcDbArc
 50
359.8556656687
 51
179.7774737316
  0
ARC
  5
D3
330
1F
100
AcDbEntity
  8
0
  6
CONTINUOUS
 62
     7
100
AcDbCircle
 10
4.8958355382
 20
-24.1192117256
 30
0.0
 40
4.889483603045301
100
AcDbArc
 50
179.7556755137
 51
269.758871143
  0
ARC
  5
D4
330
1F
100
AcDbEntity
  8
0
  6
CONTINUOUS
 62
     7
100
AcDbCircle
 10
0.00641096
 20
-24.09518676
 30
0.0
 40
0.0031750000000031
100
AcDbArc
 50
269.7370729252
 51
89.64927067
  0
ARC
  5
D5
330
1F
100
AcDbEntity
  8
0
  6
CONTINUOUS
 62
     7
100
AcDbCircle
 10
0.01179068
 20
-23.21635692
 30
0.0
 40
0.0031749999999995
100
AcDbArc
 50
269.64927067
 51
89.7232384759
  0
ARC
  5
D6
330
1F
100
AcDbEntity
  8
0
  6
CONTINUOUS
 62
     7
100
AcDbCircle
 10
0.01721866
 20
-22.0926533
 30
0.0
 40
0.0031750000000022
100
AcDbArc
 50
269.7232384759
 51
89.7574141408
  0
ARC
  5
D7
330
1F
100
AcDbEntity
  8
0
  6
CONTINUOUS
 62
     7
100
AcDbCircle
 10
0.04884928
 20
-14.62193672
 30
0.0
 40
0.0031750000000017
100
AcDbArc
 50
269.7574141408
 51
90.2425857767
  0
ARC
  5
D8
330
1F
100
AcDbEntity
  8
0
  6
CONTINUOUS
 62
     7
100
AcDbCircle
 10
0.01721866
 20
-7.1512176
 30
0.0
 40
0.0031750000000008
100
AcDbArc
 50
270.2425857766
 51
90.268705341
  0
ARC
  5
D9
330
1F
100
AcDbEntity
  8
0
  6
CONTINUOUS
 62
     7
100
AcDbCircle
 10
0.01307592
 20
-6.26787164
 30
0.0
 40
0.0031750000000005
100
AcDbArc
 50
270.268705341
 51
90.3412024924
  0
ARC
  5
DA
330
1F
100
AcDbEntity
  8
0
  6
CONTINUOUS
 62
     7
100
AcDbCircle
 10
0.00641096
 20
-5.14868414
 30
0.0
 40
0.0031749999999996
100
AcDbArc
 50
270.3412024923
 51
90.2612206815
  0
ARC
  5
DB
330
1F
100
AcDbEntity
  8
0
  6
CONTINUOUS
 62
     7
100
AcDbCircle
 10
4.895981726
 20
-5.1248041289
 30
0.0
 40
4.88962907909197
100
AcDbArc
 50
90.2428346968
 51
180.2426186464
  0
ARC
  5
DC
330
1F
100
AcDbEntity
  8
0
  6
CONTINUOUS
 62
     7
100
AcDbCircle
 10
4.87843322
 20
-0.23520654
 30
0.0
 40
0.0031750000000001
100
AcDbArc
 50
180.2242326617
 51
0.1347934789
  0
ARC
  5
DD
330
1F
100
AcDbEntity
  8
0
  6
CONTINUOUS
 62
     7
100
AcDbCircle
 10
5.75727576
 20
-0.23313898
 30
0.0
 40
0.0031750000000003
100
AcDbArc
 50
180.1347934789
 51
0.208898841
  0
ARC
  5
DE
330
1F
100
AcDbEntity
  8
0
  6
CONTINUOUS
 62
     7
100
AcDbCircle
 10
6.88098192
 20
-0.22904196
 30
0.0
 40
0.0031749999999995
100
AcDbArc
 50
180.208898841
 51
0.2427440609
  0
ARC
  5
DF
330
1F
100
AcDbEntity
  8
0
  6
CONTINUOUS
 62
     7
100
AcDbCircle
 10
56.8805187
 20
-0.0172085
 30
0.0
 40
0.0031750000000083
100
AcDbArc
 50
180.2427440608
 51
0.2687068863
  0
ARC
  5
E0
330
1F
100
AcDbEntity
  8
0
  6
CONTINUOUS
 62
     7
100
AcDbCircle
 10
57.76385958
 20
-0.01306576
 30
0.0
 40
0.0031749999999916
100
AcDbArc
 50
180.2687068863
 51
0.3409432094
  0
ARC
  5
E1
330
1F
100
AcDbEntity
  8
0
  6
CONTINUOUS
 62
     7
100
AcDbCircle
 10
58.88304454
 20
-0.00640588
 30
0.0
 40
0.0031724610168247
100
AcDbArc
 50
180.3409432095
 51
0.2601429282
  0
ARC
  5
E2
330
1F
100
AcDbEntity
  8
0
  6
CONTINUOUS
 62
     7
100
AcDbCircle
 10
58.9068317417
 20
-4.8960728128
 30
0.0
 40
4.889724792283779
100
AcDbArc
 50
0.2440163184
 51
90.2415561329
  0
ARC
  5
E3
330
1F
100
AcDbEntity
  8
0
  6
CONTINUOUS
 62
     7
100
AcDbCircle
 10
63.79652468
 20
-4.87842306
 30
0.0
 40
0.0031749999999948
100
AcDbArc
 50
90.2254146476
 51
270.1347934787
  0
ARC
  5
E4
330
1F
100
AcDbEntity
  8
0
  6
CONTINUOUS
 62
     7
100
AcDbCircle
 10
63.79859224
 20
-5.7572656
 30
0.0
 40
0.0031749999999951
100
AcDbArc
 50
90.1347934787
 51
270.2088978964
  0
ARC
  5
E5
330
1F
100
AcDbEntity
  8
0
  6
CONTINUOUS
 62
     7
100
AcDbCircle
 10
63.80268926
 20
-6.88097684
 30
0.0
 40
0.0031749999999947
100
AcDbArc
 50
90.2088978965
 51
270.2428966053
  0
ARC
  5
E6
330
1F
100
AcDbEntity
  8
0
  6
CONTINUOUS
 62
     7
100
AcDbCircle
 10
63.83550606
 20
-14.62193672
 30
0.0
 40
0.0031750000000098
100
AcDbArc
 50
90.242896605
 51
269.7571033154
  0
ARC
  5
E7
330
1F
100
AcDbEntity
  8
0
  6
CONTINUOUS
 62
     7
100
AcDbCircle
 10
63.80268926
 20
-22.36289406
 30
0.0
 40
0.0031749999999938
100
AcDbArc
 50
89.7571033154
 51
269.7830258618
  0
ARC
  5
E8
330
1F
100
AcDbEntity
  8
0
  6
CONTINUOUS
 62
     7
100
AcDbCircle
 10
63.79934408
 20
-23.24624256
 30
0.0
 40
0.0031749999999792
100
AcDbArc
 50
89.7830258616
 51
269.8556659962
  0
ARC
  5
E9
330
1F
100
AcDbEntity
  8
0
  6
CONTINUOUS
 62
     7
100
AcDbCircle
 10
63.79652468
 20
-24.36544784
 30
0.0
 40
0.0031749999999978
100
AcDbArc
 50
89.8556659963
 51
269.7793289777
  0
ARC
  5
EA
330
1F
100
AcDbEntity
  8
0
  6
CONTINUOUS
 62
     7
100
AcDbCircle
 10
58.9072321723
 20
-24.348204462
 30
0.0
 40
4.88932291431042
100
AcDbArc
 50
269.7537910091
 51
359.760725778
  0
CIRCLE
  5
EB
330
1B
100
AcDbEntity
 67
     1
  8
0
  6
CONTINUOUS
 62
     7
100
AcDbCircle
 10
13.6558254944
 20
22.117965627
 30
0.0
 40
2.100000000000009
  0
CIRCLE
  5
EC
330
1B
100
AcDbEntity
 67
     1
  8
0
  6
CONTINUOUS
 62
     7
100
AcDbCircle
 10
13.6419520791
 20
14.6220471928
 30
0.0
 40
2.099999999999998
  0
CIRCLE
  5
ED
330
1B
100
AcDbEntity
 67
     1
  8
0
  6
CONTINUOUS
 62
     7
100
AcDbCircle
 10
13.6419248955
 20
7.1143240162
 30
0.0
 40
2.100000000000002
  0
CIRCLE
  5
EE
330
1B
100
AcDbEntity
 67
     1
  8
0
  6
CONTINUOUS
 62
     7
100
AcDbCircle
 10
6.9420033267
 20
7.1218488652
 30
0.0
 40
2.100000000000001
  0
CIRCLE
  5
EF
330
1B
100
AcDbEntity
 67
     1
  8
0
  6
CONTINUOUS
 62
     7
100
AcDbCircle
 10
6.94195208
 20
14.62193672
 30
0.0
 40
2.099999999999991
  0
CIRCLE
  5
F0
330
1B
100
AcDbEntity
 67
     1
  8
0
  6
CONTINUOUS
 62
     7
100
AcDbCircle
 10
6.9419008333
 20
22.1220245748
 30
0.0
 40
2.100000000000033
  0
CIRCLE
  5
118
330
1B
100
AcDbEntity
 67
     1
  8
0
  6
CONTINUOUS
 62
     7
100
AcDbCircle
 10
6.9419008333
 20
22.1220245748
 30
0.0
 40
2.100000000000033
  0
CIRCLE
  5
119
330
1B
100
AcDbEntity
 67
     1
  8
0
  6
CONTINUOUS
 62
     7
100
AcDbCircle
 10
6.94195208
 20
14.62193672
 30
0.0
 40
2.099999999999991
  0
CIRCLE
  5
11A
330
1B
100
AcDbEntity
 67
     1
  8
0
  6
CONTINUOUS
 62
     7
100
AcDbCircle
 10
6.9420033267
 20
7.1218488652
 30
0.0
 40
2.100000000000001
  0
CIRCLE
  5
11B
330
1B
100
AcDbEntity
 67
     1
  8
0
  6
CONTINUOUS
 62
     7
100
AcDbCircle
 10
13.6419248955
 20
7.1143240162
 30
0.0
 40
2.100000000000002
  0
CIRCLE
  5
11C
330
1B
100
AcDbEntity
 67
     1
  8
0
  6
CONTINUOUS
 62
     7
100
AcDbCircle
 10
13.6419520791
 20
14.6220471928
 30
0.0
 40
2.099999999999998
  0
CIRCLE
  5
11D
330
1B
100
AcDbEntity
 67
     1
  8
0
  6
CONTINUOUS
 62
     7
100
AcDbCircle
 10
13.6558254944
 20
22.117965627
 30
0.0
 40
2.100000000000009
  0
CIRCLE
  5
11E
330
1B
100
AcDbEntity
 67
     1
  8
0
  6
CONTINUOUS
 62
     7
100
AcDbCircle
 10
16.943685857
 20
25.6344488558
 30
0.0
 40
1.024999999999995
  0
CIRCLE
  5
11F
330
1B
100
AcDbEntity
 67
     1
  8
0
  6
CONTINUOUS
 62
     7
100
AcDbCircle
 10
3.4434978783
 20
25.6198825377
 30
0.0
 40
1.024999999999999
  0
CIRCLE
  5
120
330
1B
100
AcDbEntity
 67
     1
  8
0
  6
CONTINUOUS
 62
     7
100
AcDbCircle
 10
3.4437078226
 20
3.6194013527
 30
0.0
 40
1.024999999999999
  0
CIRCLE
  5
121
330
1B
100
AcDbEntity
 67
     1
  8
0
  6
CONTINUOUS
 62
     7
100
AcDbCircle
 10
16.9436932692
 20
3.6344904592
 30
0.0
 40
1.024999999999999
  0
LINE
  5
12F
330
1B
100
AcDbEntity
 67
     1
  8
0
  6
CONTINUOUS
 62
     7
100
AcDbLine
 10
63.7993360819
 20
23.2494175499
 30
0.0
 11
63.7965326781
 21
24.3622728501
 31
0.0
  0
LINE
  5
130
330
1B
100
AcDbEntity
 67
     1
  8
0
  6
CONTINUOUS
 62
     7
100
AcDbLine
 10
63.8026772366
 20
22.3660690372
 30
0.0
 11
63.7993561034
 21
23.2430675828
 31
0.0
  0
LINE
  5
131
330
1B
100
AcDbEntity
 67
     1
  8
0
  6
CONTINUOUS
 62
     7
100
AcDbLine
 10
63.8354926001
 20
14.6251116915
 30
0.0
 11
63.8027027199
 21
22.3597190885
 31
0.0
  0
LINE
  5
132
330
1B
100
AcDbEntity
 67
     1
  8
0
  6
CONTINUOUS
 62
     7
100
AcDbLine
 10
63.8027027199
 20
6.8841518115
 30
0.0
 11
63.8354926001
 21
14.6187617485
 31
0.0
  0
LINE
  5
133
330
1B
100
AcDbEntity
 67
     1
  8
0
  6
CONTINUOUS
 62
     7
100
AcDbLine
 10
63.7986038159
 20
5.7604405789
 30
0.0
 11
63.8026776841
 21
6.8778018611
 31
0.0
  0
LINE
  5
134
330
1B
100
AcDbEntity
 67
     1
  8
0
  6
CONTINUOUS
 62
     7
100
AcDbLine
 10
63.7965321495
 20
4.8815980512
 30
0.0
 11
63.7985847705
 21
5.7540906088
 31
0.0
  0
LINE
  5
135
330
1B
100
AcDbEntity
 67
     1
  8
0
  6
CONTINUOUS
 62
     7
100
AcDbLine
 10
57.7670345238
 20
0.013046867
 30
0.0
 11
58.8798721352
 21
0.0064247579
 31
0.0
  0
LINE
  5
136
330
1B
100
AcDbEntity
 67
     1
  8
0
  6
CONTINUOUS
 62
     7
100
AcDbLine
 10
56.8836936651
 20
0.0171936099
 30
0.0
 11
57.7606846149
 21
0.0130806501
 31
0.0
  0
LINE
  5
137
330
1B
100
AcDbEntity
 67
     1
  8
0
  6
CONTINUOUS
 62
     7
100
AcDbLine
 10
6.8841568915
 20
0.2290285086
 30
0.0
 11
56.8773437285
 21
0.0172219514
 31
0.0
  0
LINE
  5
138
330
1B
100
AcDbEntity
 67
     1
  8
0
  6
CONTINUOUS
 62
     7
100
AcDbLine
 10
5.7604507389
 20
0.2331274041
 30
0.0
 11
6.8778069411
 21
0.2290535359
 31
0.0
  0
LINE
  5
139
330
1B
100
AcDbEntity
 67
     1
  8
0
  6
CONTINUOUS
 62
     7
100
AcDbLine
 10
4.8816082112
 20
0.2351990705
 30
0.0
 11
5.7541007688
 21
0.2331464495
 31
0.0
  0
LINE
  5
13A
330
1B
100
AcDbEntity
 67
     1
  8
0
  6
CONTINUOUS
 62
     7
100
AcDbLine
 10
0.0130570126
 20
6.2646966963
 30
0.0
 11
0.0064298674
 21
5.1518590837
 31
0.0
  0
LINE
  5
13B
330
1B
100
AcDbEntity
 67
     1
  8
0
  6
CONTINUOUS
 62
     7
100
AcDbLine
 10
0.01720377
 20
7.1480426349
 30
0.0
 11
0.01309081
 21
6.2710466051
 31
0.0
  0
LINE
  5
13C
330
1B
100
AcDbEntity
 67
     1
  8
0
  6
CONTINUOUS
 62
     7
100
AcDbLine
 10
0.0488358373
 20
14.6187617485
 30
0.0
 11
0.0172321027
 21
7.1543925715
 31
0.0
  0
LINE
  5
13D
330
1B
100
AcDbEntity
 67
     1
  8
0
  6
CONTINUOUS
 62
     7
100
AcDbLine
 10
0.0172321027
 20
22.0894783285
 30
0.0
 11
0.0488358373
 21
14.6251116915
 31
0.0
  0
LINE
  5
13E
330
1B
100
AcDbEntity
 67
     1
  8
0
  6
CONTINUOUS
 62
     7
100
AcDbLine
 10
0.0118060165
 20
23.213181957
 30
0.0
 11
0.0172033235
 21
22.095828263
 31
0.0
  0
LINE
  5
13F
330
1B
100
AcDbEntity
 67
     1
  8
0
  6
CONTINUOUS
 62
     7
100
AcDbLine
 10
0.0064303953
 20
24.0920118195
 30
0.0
 11
0.0117712447
 21
23.2195318605
 31
0.0
  0
LINE
  5
140
330
1B
100
AcDbEntity
 67
     1
  8
0
  6
CONTINUOUS
 62
     7
100
AcDbLine
 10
58.8798721395
 20
29.2374481247
 30
0.0
 11
58.0073921805
 21
29.2321072753
 31
0.0
  0
LINE
  5
141
330
1B
100
AcDbEntity
 67
     1
  8
0
  6
CONTINUOUS
 62
     7
100
AcDbLine
 10
58.001042277
 20
29.2320725106
 30
0.0
 11
56.883693663
 21
29.2266777294
 31
0.0
  0
LINE
  5
142
330
1B
100
AcDbEntity
 67
     1
  8
0
  6
CONTINUOUS
 62
     7
100
AcDbLine
 10
56.8773437285
 20
29.2266489486
 30
0.0
 11
6.8841568915
 21
29.0148423914
 31
0.0
  0
LINE
  5
143
330
1B
100
AcDbEntity
 67
     1
  8
0
  6
CONTINUOUS
 62
     7
100
AcDbLine
 10
6.8778069428
 20
29.0148169165
 30
0.0
 11
6.0008109372
 21
29.0114957835
 31
0.0
  0
LINE
  5
144
330
1B
100
AcDbEntity
 67
     1
  8
0
  6
CONTINUOUS
 62
     7
100
AcDbLine
 10
5.9944609701
 20
29.0114757618
 30
0.0
 11
4.8816082099
 21
29.0086723582
 31
0.0
  0
ARC
  5
145
330
1B
100
AcDbEntity
 67
     1
  8
0
  6
CONTINUOUS
 62
     7
100
AcDbCircle
 10
63.79652468
 20
24.36544784
 30
0.0
 40
0.0031749999999978
100
AcDbArc
 50
90.2206710224
 51
270.1443340037
  0
ARC
  5
146
330
1B
100
AcDbEntity
 67
     1
  8
0
  6
CONTINUOUS
 62
     7
100
AcDbCircle
 10
63.79934408
 20
23.24624256
 30
0.0
 40
0.0031749999999792
100
AcDbArc
 50
90.1443340038
 51
270.2169741384
  0
ARC
  5
147
330
1B
100
AcDbEntity
 67
     1
  8
0
  6
CONTINUOUS
 62
     7
100
AcDbCircle
 10
63.80268926
 20
22.36289406
 30
0.0
 40
0.0031749999999938
100
AcDbArc
 50
90.2169741382
 51
270.2428966846
  0
ARC
  5
148
330
1B
100
AcDbEntity
 67
     1
  8
0
  6
CONTINUOUS
 62
     7
100
AcDbCircle
 10
63.83550606
 20
14.62193672
 30
0.0
 40
0.0031750000000098
100
AcDbArc
 50
90.2428966846
 51
269.757103395
  0
ARC
  5
149
330
1B
100
AcDbEntity
 67
     1
  8
0
  6
CONTINUOUS
 62
     7
100
AcDbCircle
 10
63.80268926
 20
6.88097684
 30
0.0
 40
0.0031749999999947
100
AcDbArc
 50
89.7571033947
 51
269.7911021035
  0
ARC
  5
14A
330
1B
100
AcDbEntity
 67
     1
  8
0
  6
CONTINUOUS
 62
     7
100
AcDbCircle
 10
63.79859224
 20
5.7572656
 30
0.0
 40
0.0031749999999951
100
AcDbArc
 50
89.7911021036
 51
269.8652065213
  0
ARC
  5
14B
330
1B
100
AcDbEntity
 67
     1
  8
0
  6
CONTINUOUS
 62
     7
100
AcDbCircle
 10
63.79652468
 20
4.87842306
 30
0.0
 40
0.0031749999999948
100
AcDbArc
 50
89.8652065213
 51
269.7745853524
  0
ARC
  5
14C
330
1B
100
AcDbEntity
 67
     1
  8
0
  6
CONTINUOUS
 62
     7
100
AcDbCircle
 10
58.9068317417
 20
4.8960728128
 30
0.0
 40
4.889724792283779
100
AcDbArc
 50
269.7584438671
 51
359.7559836816
  0
ARC
  5
14D
330
1B
100
AcDbEntity
 67
     1
  8
0
  6
CONTINUOUS
 62
     7
100
AcDbCircle
 10
58.88304454
 20
0.00640588
 30
0.0
 40
0.0031724610168247
100
AcDbArc
 50
359.7398570718
 51
179.6590567905
  0
ARC
  5
14E
330
1B
100
AcDbEntity
 67
     1
  8
0
  6
CONTINUOUS
 62
     7
100
AcDbCircle
 10
57.76385958
 20
0.01306576
 30
0.0
 40
0.0031749999999916
100
AcDbArc
 50
359.6590567906
 51
179.7312931137
  0
ARC
  5
14F
330
1B
100
AcDbEntity
 67
     1
  8
0
  6
CONTINUOUS
 62
     7
100
AcDbCircle
 10
56.8805187
 20
0.0172085
 30
0.0
 40
0.0031750000000083
100
AcDbArc
 50
359.7312931137
 51
179.7572559392
  0
ARC
  5
150
330
1B
100
AcDbEntity
 67
     1
  8
0
  6
CONTINUOUS
 62
     7
100
AcDbCircle
 10
6.88098192
 20
0.22904196
 30
0.0
 40
0.0031749999999995
100
AcDbArc
 50
359.7572559391
 51
179.791101159
  0
ARC
  5
151
330
1B
100
AcDbEntity
 67
     1
  8
0
  6
CONTINUOUS
 62
     7
100
AcDbCircle
 10
5.75727576
 20
0.23313898
 30
0.0
 40
0.0031750000000003
100
AcDbArc
 50
359.791101159
 51
179.8652065211
  0
ARC
  5
152
330
1B
100
AcDbEntity
 67
     1
  8
0
  6
CONTINUOUS
 62
     7
100
AcDbCircle
 10
4.87843322
 20
0.23520654
 30
0.0
 40
0.0031750000000001
100
AcDbArc
 50
359.8652065211
 51
179.7757673383
  0
ARC
  5
153
330
1B
100
AcDbEntity
 67
     1
  8
0
  6
CONTINUOUS
 62
     7
100
AcDbCircle
 10
4.895981726
 20
5.1248041289
 30
0.0
 40
4.88962907909197
100
AcDbArc
 50
179.7573813536
 51
269.7571653032
  0
ARC
  5
154
330
1B
100
AcDbEntity
 67
     1
  8
0
  6
CONTINUOUS
 62
     7
100
AcDbCircle
 10
0.00641096
 20
5.14868414
 30
0.0
 40
0.0031749999999996
100
AcDbArc
 50
269.7387793185
 51
89.6587975077
  0
ARC
  5
155
330
1B
100
AcDbEntity
 67
     1
  8
0
  6
CONTINUOUS
 62
     7
100
AcDbCircle
 10
0.01307592
 20
6.26787164
 30
0.0
 40
0.0031750000000005
100
AcDbArc
 50
269.6587975076
 51
89.731294659
  0
ARC
  5
156
330
1B
100
AcDbEntity
 67
     1
  8
0
  6
CONTINUOUS
 62
     7
100
AcDbCircle
 10
0.01721866
 20
7.1512176
 30
0.0
 40
0.0031750000000008
100
AcDbArc
 50
269.731294659
 51
89.7574142234
  0
ARC
  5
157
330
1B
100
AcDbEntity
 67
     1
  8
0
  6
CONTINUOUS
 62
     7
100
AcDbCircle
 10
0.04884928
 20
14.62193672
 30
0.0
 40
0.0031750000000017
100
AcDbArc
 50
269.7574142233
 51
90.2425858592
  0
ARC
  5
158
330
1B
100
AcDbEntity
 67
     1
  8
0
  6
CONTINUOUS
 62
     7
100
AcDbCircle
 10
0.01721866
 20
22.0926533
 30
0.0
 40
0.0031750000000022
100
AcDbArc
 50
270.2425858592
 51
90.2767615241
  0
ARC
  5
159
330
1B
100
AcDbEntity
 67
     1
  8
0
  6
CONTINUOUS
 62
     7
100
AcDbCircle
 10
0.01179068
 20
23.21635692
 30
0.0
 40
0.0031749999999995
100
AcDbArc
 50
270.2767615241
 51
90.35072933
  0
ARC
  5
15A
330
1B
100
AcDbEntity
 67
     1
  8
0
  6
CONTINUOUS
 62
     7
100
AcDbCircle
 10
0.00641096
 20
24.09518676
 30
0.0
 40
0.0031750000000031
100
AcDbArc
 50
270.35072933
 51
90.2629270748
  0
ARC
  5
15B
330
1B
100
AcDbEntity
 67
     1
  8
0
  6
CONTINUOUS
 62
     7
100
AcDbCircle
 10
58.9072321723
 20
24.348204462
 30
0.0
 40
4.889322914310421
100
AcDbArc
 50
0.239274222
 51
90.2462089909
  0
ARC
  5
15C
330
1B
100
AcDbEntity
 67
     1
  8
0
  6
CONTINUOUS
 62
     7
100
AcDbCircle
 10
58.88304708
 20
29.23746756
 30
0.0
 40
0.0031750000000092
100
AcDbArc
 50
180.3507293301
 51
0.2648121908
  0
ARC
  5
15D
330
1B
100
AcDbEntity
 67
     1
  8
0
  6
CONTINUOUS
 62
     7
100
AcDbCircle
 10
58.00421724
 20
29.23208784
 30
0.0
 40
0.0031750000000208
100
AcDbArc
 50
180.2766332674
 51
0.3507293298
  0
ARC
  5
15E
330
1B
100
AcDbEntity
 67
     1
  8
0
  6
CONTINUOUS
 62
     7
100
AcDbCircle
 10
56.8805187
 20
29.2266624
 30
0.0
 40
0.0031750000000084
100
AcDbArc
 50
180.2427440609
 51
0.2766332674
  0
ARC
  5
15F
330
1B
100
AcDbEntity
 67
     1
  8
0
  6
CONTINUOUS
 62
     7
100
AcDbCircle
 10
6.88098192
 20
29.01482894
 30
0.0
 40
0.0031750000000003
100
AcDbArc
 50
180.2169747621
 51
0.2427440608
  0
ARC
  5
160
330
1B
100
AcDbEntity
 67
     1
  8
0
  6
CONTINUOUS
 62
     7
100
AcDbCircle
 10
5.99763596
 20
29.01148376
 30
0.0
 40
0.0031750000000008
100
AcDbArc
 50
180.1443343313
 51
0.2169747621
  0
ARC
  5
161
330
1B
100
AcDbEntity
 67
     1
  8
0
  6
CONTINUOUS
 62
     7
100
AcDbCircle
 10
4.87843322
 20
29.00866436
 30
0.0
 40
0.003175000000001
100
AcDbArc
 50
180.2225262684
 51
0.1443343313
  0
ARC
  5
162
330
1B
100
AcDbEntity
 67
     1
  8
0
  6
CONTINUOUS
 62
     7
100
AcDbCircle
 10
4.8958355382
 20
24.1192117256
 30
0.0
 40
4.889483603045301
100
AcDbArc
 50
90.241128857
 51
180.2443244863
  0
VIEWPORT
  5
163
330
1B
100
AcDbEntity
 67
     1
  8
0
100
AcDbViewport
 10
0.0
 20
0.0
 30
0.0
 40
205.6
 41
156.0
 68
     1
 69
     1
1001
ACAD
1000
MVIEW
1002
{
1070
    16
1010
0.0
1020
0.0
1030
0.0
1010
0.0
1020
0.0
1030
1.0
1040
0.0
1040
49.3992843512
1040
31.9209222676
1040
-14.6219376984
1040
50.0
1040
0.0
1040
0.0
1070
     0
1070
   100
1070
     0
1070
     3
1070
     0
1070
     0
1070
     0
1070
     0
1040
0.0
1040
0.0
1040
0.0
1040
10.0
1040
10.0
1040
10.0
1040
10.0
1070
     0
1002
{
1002
}
1002
}
  0
ENDSEC
  0
SECTION
  2
OBJECTS
  0
DICTIONARY
  5
C
330
0
100
AcDbDictionary
  3
ACAD_GROUP
350
D
  3
ACAD_MLINESTYLE
350
17
  3
ACAD_SCALELIST
350
47
  3
DWGPROPS
350
165
  0
DICTIONARY
  5
D
102
{ACAD_REACTORS
330
C
102
}
330
C
100
AcDbDictionary
  0
DICTIONARY
  5
17
102
{ACAD_REACTORS
330
C
102
}
330
C
100
AcDbDictionary
  3
STANDARD
350
18
  0
DICTIONARY
  5
47
102
{ACAD_REACTORS
330
C
102
}
330
C
100
AcDbDictionary
  0
XRECORD
  5
165
102
{ACAD_REACTORS
330
C
102
}
330
C
100
AcDbXrecord
  1
DWGPROPS COOKIE
  2

  3

  4

  6

  7

  8
andreas.karlsson
  9

300
=
301
=
302
=
303
=
304
=
305
=
306
=
307
=
308
=
309
=
 40
0.0
 41
2459257.59964669
 42
2459257.599714144
  1

 90
        0
  0
MLINESTYLE
  5
18
102
{ACAD_REACTORS
330
17
102
}
330
17
100
AcDbMlineStyle
  2
Standard
 70
     0
  3

 62
   256
 51
90.0
 52
90.0
 71
     2
 49
0.5
 62
   256
  6
BYLAYER
 49
-0.5
 62
   256
  6
BYLAYER
  0
ENDSEC
  0
EOF
