%TF.GenerationSoftware,Altium Limited,Altium Designer,20.1.14 (287)*%
G04 Layer_Physical_Order=1*
G04 Layer_Color=255*
%FSLAX45Y45*%
%MOMM*%
%TF.SameCoordinates,D919A4BC-3EF6-4BA5-801F-EB9C9E4D33F9*%
%TF.FilePolarity,Positive*%
%TF.FileFunction,Copper,L1,Top,Signal*%
%TF.Part,Single*%
G01*
G75*
%TA.AperFunction,Conductor*%
%ADD10C,0.20000*%
%TA.AperFunction,SMDPad,CuDef*%
%ADD11R,0.90000X1.00000*%
%ADD12R,0.60000X0.55000*%
%ADD13R,0.30000X1.20000*%
%ADD14R,1.20000X0.30000*%
%ADD15O,2.00000X0.60000*%
%ADD16R,3.20000X1.00000*%
%ADD17R,0.64000X0.64000*%
%ADD18R,0.35000X0.75000*%
%ADD19R,1.60000X0.70000*%
%ADD20R,0.35000X0.55000*%
%ADD21R,0.64000X0.64000*%
%ADD22R,0.50000X0.25000*%
%ADD23R,0.65000X1.35000*%
%ADD24R,1.05000X0.45000*%
%ADD25R,0.55000X0.60000*%
%ADD26R,1.15000X1.40000*%
%ADD27R,0.30000X1.45000*%
%ADD28R,1.40000X1.00000*%
%ADD29R,1.80000X2.70000*%
%ADD30R,1.20000X1.80000*%
%ADD31R,0.91000X1.22000*%
%TA.AperFunction,ConnectorPad*%
%ADD32R,0.40000X1.35000*%
%ADD33R,1.80000X1.90000*%
%TA.AperFunction,SMDPad,CuDef*%
%ADD34R,0.40000X0.85000*%
%ADD35R,1.20000X0.60000*%
%ADD36R,1.22000X0.91000*%
%ADD37R,1.00000X1.40000*%
%ADD38R,1.00000X0.90000*%
%ADD39R,1.80000X1.00000*%
%TA.AperFunction,Conductor*%
%ADD40C,0.30000*%
%ADD41C,0.50000*%
%ADD42C,0.60000*%
%ADD43C,0.75000*%
%ADD44C,1.00000*%
%TA.AperFunction,ComponentPad*%
%ADD45C,3.50000*%
%ADD46R,1.10000X1.10000*%
%ADD47C,1.10000*%
%ADD48C,1.70000*%
%ADD49R,1.70000X1.70000*%
%ADD50R,1.10000X1.10000*%
%TA.AperFunction,ViaPad*%
%ADD51C,0.60000*%
G36*
X1867598Y3164145D02*
Y3050126D01*
X1853186D01*
Y3005126D01*
X1853185Y2985127D01*
D01*
Y2985126D01*
X1849495Y2981137D01*
X1823479Y2979781D01*
X1676632Y3126629D01*
X1666708Y3133259D01*
X1655003Y3135588D01*
X1655002Y3135588D01*
X1334927D01*
X1334926Y3135588D01*
X1323221Y3133259D01*
X1313297Y3126629D01*
X1228388Y3041720D01*
X1206550Y3048166D01*
X1197943Y3061048D01*
X1181404Y3072099D01*
X1176895Y3072996D01*
Y3025000D01*
X1146895D01*
Y3072996D01*
X1145000Y3072619D01*
X1142319Y3073529D01*
X1125000Y3080000D01*
D01*
X1112500Y3094823D01*
Y3165000D01*
X1123000Y3173000D01*
X1142300Y3177879D01*
X1143000Y3177779D01*
X1161895Y3174021D01*
X1181404Y3177901D01*
X1197943Y3188952D01*
X1208994Y3205491D01*
X1212875Y3225000D01*
X1208994Y3244509D01*
X1206242Y3248628D01*
X1216932Y3268628D01*
X1763114D01*
X1867598Y3164145D01*
D02*
G37*
G36*
X725922Y3349022D02*
X726577Y3348330D01*
X734781Y3329022D01*
X727901Y3318725D01*
X727004Y3314216D01*
X775000D01*
Y3284216D01*
X719200D01*
X710493Y3272500D01*
X692500D01*
Y3167500D01*
X737500D01*
Y3162500D01*
X760000D01*
Y3220000D01*
X790000D01*
Y3162500D01*
X812500D01*
X828617Y3153126D01*
X830765Y3150978D01*
X823111Y3132500D01*
X762500D01*
Y3137500D01*
X740000D01*
Y3083472D01*
X739309Y3080000D01*
X725000D01*
Y3065000D01*
X687500D01*
Y3058720D01*
X667500Y3048312D01*
X659509Y3053651D01*
X655000Y3054548D01*
Y3006552D01*
X625000D01*
Y3063407D01*
X620979Y3065000D01*
X617099Y3084509D01*
X606048Y3101048D01*
X589509Y3112099D01*
X585000Y3112996D01*
Y3065000D01*
X570000D01*
Y3050000D01*
X519769D01*
X520000Y3045000D01*
X519999Y3044999D01*
X520000Y3044999D01*
Y3012500D01*
X570000D01*
Y2982500D01*
X520000D01*
Y2950000D01*
X512546Y2933088D01*
X470170D01*
X269928Y3133330D01*
X260005Y3139960D01*
X248299Y3142289D01*
X248298Y3142288D01*
X218509D01*
X215512Y3149524D01*
X203491Y3165191D01*
X187824Y3177213D01*
X169579Y3184770D01*
X150000Y3187348D01*
X130421Y3184770D01*
X112176Y3177213D01*
X96509Y3165191D01*
X84488Y3149524D01*
X76931Y3131279D01*
X74353Y3111701D01*
X76931Y3092122D01*
X84488Y3073877D01*
X96509Y3058210D01*
X96522Y3058201D01*
Y3038201D01*
X96509Y3038191D01*
X84488Y3022524D01*
X76931Y3004279D01*
X74353Y2984701D01*
X76931Y2965122D01*
X84488Y2946877D01*
X96509Y2931210D01*
X96522Y2931201D01*
Y2911201D01*
X96509Y2911191D01*
X84488Y2895524D01*
X76931Y2877279D01*
X74353Y2857701D01*
X76931Y2838122D01*
X84488Y2819877D01*
X96509Y2804210D01*
X96522Y2804201D01*
Y2784201D01*
X96509Y2784191D01*
X84488Y2768524D01*
X76931Y2750279D01*
X74353Y2730701D01*
X76931Y2711122D01*
X84488Y2692877D01*
X96509Y2677210D01*
X96522Y2677201D01*
Y2657201D01*
X96509Y2657191D01*
X84488Y2641524D01*
X76931Y2623279D01*
X76328Y2618701D01*
X150000D01*
X223672D01*
X223069Y2623279D01*
X215512Y2641524D01*
X203491Y2657191D01*
X203478Y2657201D01*
Y2677201D01*
X203491Y2677210D01*
X215512Y2692877D01*
X223069Y2711122D01*
X225647Y2730701D01*
X223069Y2750279D01*
X215512Y2768524D01*
X203491Y2784191D01*
X203478Y2784201D01*
Y2804201D01*
X203491Y2804210D01*
X215512Y2819877D01*
X223069Y2838122D01*
X225647Y2857701D01*
X223069Y2877279D01*
X215512Y2895524D01*
X203491Y2911191D01*
X203478Y2911201D01*
Y2931201D01*
X203491Y2931210D01*
X215512Y2946877D01*
X218509Y2954113D01*
X282629D01*
X436585Y2800158D01*
X428931Y2781680D01*
X423108D01*
X403599Y2777800D01*
X387060Y2766749D01*
X376009Y2750210D01*
X372129Y2730701D01*
X376009Y2711192D01*
X387060Y2694653D01*
X403599Y2683602D01*
X423108Y2679721D01*
X563108D01*
X582617Y2683602D01*
X599156Y2694653D01*
X602805Y2700113D01*
X956629D01*
X1007670Y2649073D01*
X1007670Y2649072D01*
X1017594Y2642442D01*
X1029299Y2640113D01*
X1029300Y2640113D01*
X1123250D01*
X1130888Y2629994D01*
X1135393Y2620113D01*
X1132129Y2603701D01*
X1133410Y2597260D01*
X1078371Y2542222D01*
X1071741Y2532298D01*
X1069412Y2520593D01*
X1069412Y2520592D01*
Y2461717D01*
X1069412Y2461716D01*
X1071741Y2450010D01*
X1078371Y2440087D01*
X1122232Y2396227D01*
X1122232Y2396226D01*
X1127607Y2392634D01*
X1134825Y2375476D01*
X1136009Y2369209D01*
X1132129Y2349700D01*
X1136009Y2330191D01*
X1137087Y2328578D01*
X1126397Y2308578D01*
X1064521D01*
X874769Y2498330D01*
X864846Y2504960D01*
X853141Y2507289D01*
X853139Y2507288D01*
X602805D01*
X599156Y2512749D01*
X582617Y2523800D01*
X563108Y2527680D01*
X432543D01*
X421288Y2542695D01*
X420768Y2546986D01*
X426217Y2552721D01*
X563108D01*
X582617Y2556602D01*
X599156Y2567653D01*
X610207Y2584192D01*
X614088Y2603701D01*
X610207Y2623210D01*
X599156Y2639749D01*
X582617Y2650800D01*
X563108Y2654680D01*
X423108D01*
X403599Y2650800D01*
X387060Y2639749D01*
X376009Y2623210D01*
X372129Y2603701D01*
X373410Y2597260D01*
X328371Y2552221D01*
X321741Y2542298D01*
X319412Y2530593D01*
X319412Y2530591D01*
Y2450001D01*
X319412Y2450000D01*
X321741Y2438295D01*
X328371Y2428371D01*
X336159Y2420583D01*
X329556Y2398902D01*
X320491Y2397099D01*
X303952Y2386048D01*
X292901Y2369509D01*
X292004Y2365000D01*
X340000D01*
Y2350000D01*
X355000D01*
Y2302004D01*
X359509Y2302901D01*
X366893Y2307835D01*
X381825Y2312142D01*
X395938Y2307721D01*
X403599Y2302601D01*
X423108Y2298721D01*
X478108D01*
Y2349700D01*
X493108D01*
Y2364700D01*
X616015D01*
X625813Y2379113D01*
X840130D01*
X979632Y2239610D01*
X979483Y2233127D01*
X974768Y2216190D01*
X969237Y2212494D01*
X969236Y2212493D01*
X942330Y2185588D01*
X795000D01*
Y2245000D01*
X655000D01*
Y2200882D01*
X617573D01*
X612009Y2204599D01*
X592500Y2208480D01*
X572991Y2204599D01*
X556452Y2193548D01*
X545401Y2177009D01*
X541521Y2157500D01*
X545401Y2137991D01*
X556452Y2121452D01*
X572991Y2110401D01*
X592500Y2106521D01*
X605561Y2109118D01*
X655000D01*
Y2065000D01*
X795000D01*
Y2124412D01*
X954999D01*
X955000Y2124412D01*
X966705Y2126741D01*
X976629Y2133371D01*
X1003535Y2160278D01*
X1326868D01*
X1337558Y2140278D01*
X1332901Y2133308D01*
X1332004Y2128799D01*
X1380000D01*
Y2113799D01*
X1395000D01*
Y2061471D01*
X1409999Y2051300D01*
Y2046299D01*
X1410000D01*
Y1916300D01*
X1415216D01*
X1430273Y1896300D01*
X1429020Y1890000D01*
X1432901Y1870491D01*
X1443952Y1853952D01*
X1460491Y1842901D01*
X1476431Y1839730D01*
X1480000Y1839020D01*
X1495000Y1821612D01*
Y1781225D01*
X1339271D01*
X1336048Y1786048D01*
X1319509Y1797099D01*
X1300000Y1800980D01*
X1280491Y1797099D01*
X1263952Y1786048D01*
X1252901Y1769509D01*
X1249020Y1750000D01*
X1252901Y1730491D01*
X1263952Y1713952D01*
X1280491Y1702901D01*
X1300000Y1699020D01*
X1319509Y1702901D01*
X1336048Y1713952D01*
X1340122Y1720049D01*
X1373354D01*
X1375324Y1700049D01*
X1360491Y1697099D01*
X1343952Y1686048D01*
X1332901Y1669509D01*
X1329020Y1650000D01*
X1332901Y1630491D01*
X1339446Y1620696D01*
X1339518Y1620245D01*
X1329115Y1601643D01*
X1327000Y1601921D01*
X1307421Y1599344D01*
X1289176Y1591787D01*
X1273509Y1579765D01*
X1273500Y1579753D01*
X1253500D01*
X1253491Y1579765D01*
X1237824Y1591787D01*
X1219579Y1599344D01*
X1200000Y1601921D01*
X1180421Y1599344D01*
X1168000Y1594199D01*
X1147999Y1601274D01*
Y1601274D01*
X1088000D01*
Y1526274D01*
Y1451274D01*
X1147999D01*
Y1451274D01*
X1168000Y1458350D01*
X1180421Y1453205D01*
X1200000Y1450627D01*
X1212401Y1452260D01*
X1245016Y1419645D01*
X1254939Y1413015D01*
X1266645Y1410686D01*
X1266646Y1410687D01*
X1293446D01*
X1301100Y1392209D01*
X1264649Y1355758D01*
X930147D01*
X910638Y1351877D01*
X894099Y1340826D01*
X798952Y1245679D01*
X787901Y1229140D01*
X784020Y1209631D01*
Y1143763D01*
X775940Y1135683D01*
X772506Y1135000D01*
X740000D01*
Y1092425D01*
X739020Y1087500D01*
X740000Y1082575D01*
Y1044734D01*
X727465Y1039165D01*
X720000Y1038667D01*
X711455Y1051455D01*
X692435Y1064164D01*
X670000Y1068627D01*
X631000D01*
Y1072895D01*
X469000D01*
Y974913D01*
X450522Y967259D01*
X411000Y1006782D01*
Y1072895D01*
X249000D01*
Y941895D01*
X346114D01*
X445452Y842557D01*
X460337Y832611D01*
X477895Y829118D01*
X604118D01*
Y755000D01*
X607611Y737442D01*
X617557Y722557D01*
X632442Y712611D01*
X634476Y712206D01*
X679119Y667564D01*
Y575000D01*
X682611Y557442D01*
X692557Y542557D01*
X694244Y540869D01*
X693709Y520462D01*
X692825Y519717D01*
X675318Y512961D01*
X674003Y513840D01*
X666200Y515392D01*
X456200D01*
X448396Y513840D01*
X441781Y509419D01*
X437360Y502804D01*
X435808Y495000D01*
Y335000D01*
X437360Y327196D01*
X441781Y320581D01*
X448396Y316160D01*
X456200Y314608D01*
X666200D01*
X674003Y316160D01*
X680619Y320581D01*
X685040Y327196D01*
X685515Y329584D01*
X698838Y338431D01*
X704436Y340000D01*
X706592Y340000D01*
X986200D01*
Y427500D01*
X1016200D01*
Y340000D01*
X1037964D01*
X1043562Y338431D01*
X1056885Y329584D01*
X1057360Y327196D01*
X1061781Y320581D01*
X1068396Y316160D01*
X1076200Y314608D01*
X1286200D01*
X1294004Y316160D01*
X1300619Y320581D01*
X1305040Y327196D01*
X1306592Y335000D01*
Y495000D01*
X1305040Y502804D01*
X1300619Y509419D01*
X1294004Y513840D01*
X1286200Y515392D01*
X1076200D01*
X1068396Y513840D01*
X1061781Y509419D01*
X1061200Y508550D01*
X1059714Y509001D01*
X1041200Y515000D01*
X1039287Y535000D01*
X1047099Y546691D01*
X1047996Y551200D01*
X1000000D01*
Y566200D01*
X985000D01*
Y623718D01*
X975000Y631853D01*
Y669532D01*
X1026434Y720966D01*
X1030945Y727718D01*
X1050000Y730000D01*
X1054055Y730000D01*
X1130000D01*
X1149999Y730000D01*
Y730000D01*
X1150000D01*
Y730000D01*
X1206742D01*
X1408370Y528372D01*
X1408371Y528371D01*
X1418294Y521741D01*
X1430000Y519412D01*
X1647145D01*
X1657886Y499412D01*
X1654804Y483915D01*
X1658685Y464406D01*
X1669736Y447867D01*
X1686275Y436816D01*
X1705783Y432936D01*
X1718081Y435382D01*
X1764986Y388478D01*
X1757332Y370000D01*
X1523258D01*
X1486628Y406629D01*
X1476705Y413259D01*
X1475000Y413598D01*
Y445000D01*
X1375000D01*
Y370000D01*
X1375000Y350001D01*
X1375000D01*
Y349999D01*
X1375000D01*
Y317499D01*
X1425000D01*
Y302500D01*
X1440000D01*
Y255000D01*
X1475000D01*
X1480000Y237071D01*
Y230000D01*
X1813105D01*
X1815075Y210000D01*
X1800491Y207099D01*
X1783952Y196048D01*
X1772901Y179509D01*
X1772004Y175000D01*
X1820000D01*
Y160000D01*
X1835000D01*
Y112004D01*
X1839509Y112901D01*
X1856048Y123952D01*
X1856615Y124801D01*
X1880491Y132901D01*
X1900000Y129020D01*
X1919509Y132901D01*
X1936048Y143952D01*
X1939696Y149412D01*
X1987742D01*
X2058783Y78372D01*
X2058783Y78371D01*
X2068707Y71741D01*
X2072539Y70978D01*
X2070569Y50978D01*
X1381200D01*
Y95078D01*
X1401200Y105768D01*
X1405491Y102901D01*
X1410000Y102004D01*
Y150000D01*
Y197996D01*
X1405491Y197099D01*
X1401200Y194232D01*
X1381200Y204922D01*
Y255000D01*
X1410000D01*
Y287500D01*
X1375000D01*
Y275000D01*
X1286200D01*
Y160000D01*
X1271200D01*
Y145000D01*
X1161200D01*
Y50978D01*
X1123108D01*
X1106592Y65000D01*
Y255000D01*
X1105040Y262804D01*
X1100619Y269419D01*
X1094004Y273840D01*
X1086200Y275392D01*
X896200D01*
X888396Y273840D01*
X882514Y269910D01*
X881309Y269419D01*
X861091D01*
X859886Y269910D01*
X854004Y273840D01*
X846200Y275392D01*
X656200D01*
X648396Y273840D01*
X641781Y269419D01*
X637360Y262804D01*
X635808Y255000D01*
Y65000D01*
X619292Y50978D01*
X581200D01*
Y145000D01*
X361200D01*
Y50978D01*
X95172D01*
X85701Y52862D01*
X76780Y56557D01*
X68750Y61923D01*
X61923Y68750D01*
X56557Y76780D01*
X52862Y85701D01*
X50978Y95172D01*
Y617815D01*
X55627Y619675D01*
X70978Y621262D01*
X87079Y591140D01*
X111447Y561447D01*
X141140Y537079D01*
X175016Y518972D01*
X211773Y507822D01*
X235000Y505534D01*
Y700000D01*
Y894466D01*
X211773Y892179D01*
X175016Y881028D01*
X141140Y862921D01*
X111447Y838553D01*
X87079Y808860D01*
X70978Y778738D01*
X55627Y780325D01*
X50978Y782186D01*
Y3300000D01*
Y3304828D01*
X52862Y3314298D01*
X56557Y3323220D01*
X61923Y3331250D01*
X68750Y3338077D01*
X76780Y3343442D01*
X85702Y3347138D01*
X95172Y3349022D01*
X100001D01*
X725922D01*
D02*
G37*
G36*
X2743164Y3349021D02*
X2747679Y3339243D01*
X2748652Y3329022D01*
X2729484Y3314313D01*
X2712654Y3292379D01*
X2702074Y3266837D01*
X2700440Y3254427D01*
X2804371D01*
X2908302D01*
X2906668Y3266837D01*
X2896088Y3292379D01*
X2879258Y3314313D01*
X2860090Y3329022D01*
X2861063Y3339244D01*
X2865577Y3349021D01*
X2997164D01*
X3001679Y3339244D01*
X3002652Y3329022D01*
X2983484Y3314313D01*
X2966654Y3292379D01*
X2956074Y3266837D01*
X2952465Y3239427D01*
X2956074Y3212016D01*
X2966654Y3186474D01*
X2983484Y3164540D01*
X2987767Y3161253D01*
Y3070627D01*
X2990173Y3052353D01*
X2997226Y3035325D01*
X3008446Y3020702D01*
X3045774Y2983375D01*
X3046604Y2980392D01*
X3046707Y2975789D01*
X3042140Y2958724D01*
X3041066Y2958006D01*
X3041065Y2958005D01*
X2985687Y2902627D01*
X2936371D01*
X2936371Y2802627D01*
X2924571Y2797552D01*
Y2743327D01*
Y2691327D01*
X2957370D01*
Y2743326D01*
X2972370D01*
Y2758326D01*
X3020366D01*
X3019469Y2762835D01*
X3008418Y2779374D01*
X3003551Y2782627D01*
X3009618Y2802627D01*
X3031370Y2802627D01*
Y2802626D01*
X3031371D01*
Y2802627D01*
X3107746D01*
Y2800627D01*
X3129158D01*
Y2764970D01*
X3062242Y2698055D01*
X3055612Y2688131D01*
X3053283Y2676426D01*
X3035269Y2670126D01*
X3011371D01*
Y2658214D01*
X3006371D01*
X2994665Y2655886D01*
X2984742Y2649255D01*
X2939742Y2604255D01*
X2933111Y2594332D01*
X2930783Y2582627D01*
X2930783Y2582625D01*
Y2402424D01*
X2930783Y2402423D01*
X2933111Y2390717D01*
X2939742Y2380794D01*
X2976253Y2344283D01*
X2976254Y2344282D01*
X2982202Y2340307D01*
X2977250Y2320588D01*
X2891784D01*
X2881094Y2340588D01*
X2883820Y2344668D01*
X2884717Y2349177D01*
X2836721D01*
Y2379177D01*
X2890976D01*
X2896371Y2390127D01*
X2896371D01*
Y2417626D01*
X2823870D01*
Y2447626D01*
X2896371D01*
Y2455127D01*
Y2520127D01*
Y2585127D01*
Y2670126D01*
X2869752D01*
Y2691327D01*
X2894571D01*
Y2743327D01*
Y2795326D01*
X2887287D01*
X2884948Y2796740D01*
X2872426Y2815327D01*
X2874350Y2825000D01*
X2870469Y2844509D01*
X2859418Y2861048D01*
X2842879Y2872099D01*
X2823370Y2875980D01*
X2803861Y2872099D01*
X2787322Y2861048D01*
X2776271Y2844509D01*
X2772391Y2825000D01*
X2774315Y2815327D01*
X2765571Y2795326D01*
X2748104Y2789208D01*
X2738370D01*
X2720812Y2785716D01*
X2705927Y2775770D01*
X2651128Y2720970D01*
X2642679Y2708326D01*
X2633571D01*
Y2633326D01*
X2633571Y2613327D01*
X2633570D01*
Y2613326D01*
X2633571D01*
Y2518327D01*
X2633571D01*
X2638416Y2506629D01*
X2625495Y2490240D01*
X2605024D01*
X2597571Y2507152D01*
X2597570Y2527152D01*
Y2602152D01*
X2581686D01*
X2580945Y2622152D01*
X2583639Y2623952D01*
X2594691Y2640491D01*
X2598571Y2660000D01*
X2594691Y2679509D01*
X2583639Y2696048D01*
X2567101Y2707099D01*
X2547592Y2710980D01*
X2528083Y2707099D01*
X2511544Y2696048D01*
X2500493Y2679509D01*
X2496612Y2660000D01*
X2500493Y2640491D01*
X2507010Y2630737D01*
X2503272Y2610529D01*
X2501044Y2606914D01*
X2493640Y2603834D01*
X2480685Y2609027D01*
X2480418Y2609026D01*
X2405685D01*
Y2539027D01*
Y2469027D01*
X2477570D01*
X2480685Y2469026D01*
X2497571Y2461507D01*
Y2426546D01*
X2480685Y2419027D01*
X2480418Y2419026D01*
X2300686D01*
Y2332895D01*
X2280686Y2323262D01*
X2271760Y2329225D01*
X2252251Y2333106D01*
X2232742Y2329225D01*
X2216203Y2318174D01*
X2205152Y2301635D01*
X2203332Y2292489D01*
X2181692Y2285845D01*
X2111988Y2355549D01*
X2119641Y2374027D01*
X2235685D01*
Y2514026D01*
X2060569D01*
X2049879Y2531621D01*
X2212670Y2694412D01*
X2385304D01*
X2388952Y2688952D01*
X2405491Y2677901D01*
X2425000Y2674020D01*
X2444509Y2677901D01*
X2461048Y2688952D01*
X2472099Y2705491D01*
X2475980Y2725000D01*
X2472099Y2744509D01*
X2461048Y2761048D01*
X2447592Y2770039D01*
X2448555Y2783424D01*
X2450919Y2790039D01*
X2613226D01*
X2613952Y2788952D01*
X2630491Y2777901D01*
X2650000Y2774020D01*
X2669509Y2777901D01*
X2686048Y2788952D01*
X2697099Y2805491D01*
X2700980Y2825000D01*
X2697099Y2844509D01*
X2686048Y2861048D01*
X2669509Y2872099D01*
X2650000Y2875980D01*
X2630491Y2872099D01*
X2613952Y2861048D01*
X2607381Y2851214D01*
X2341881D01*
X2331099Y2871214D01*
X2334165Y2886626D01*
X2330284Y2906135D01*
X2319233Y2922674D01*
X2302694Y2933725D01*
X2283185Y2937606D01*
X2275185Y2936015D01*
X2255185Y2950275D01*
Y2963627D01*
X2203185D01*
Y2993626D01*
X2255185D01*
Y3030626D01*
X2255185D01*
X2248620Y3050626D01*
X2250284Y3053118D01*
X2251181Y3057627D01*
X2203185D01*
Y3072627D01*
X2188185D01*
Y3120622D01*
X2183676Y3119726D01*
X2167137Y3108675D01*
X2156086Y3092136D01*
X2155881Y3091104D01*
X2135490D01*
X2135284Y3092136D01*
X2124233Y3108675D01*
X2107694Y3119726D01*
X2103185Y3120622D01*
Y3072627D01*
X2088185D01*
Y3057627D01*
X2038174D01*
X2029475Y3043306D01*
X2025713Y3040127D01*
X2008185D01*
Y2952627D01*
X1978186D01*
Y3040127D01*
X1943185D01*
Y3050126D01*
X1928773D01*
Y3146227D01*
X2510515D01*
X2675301Y2981441D01*
X2674020Y2975000D01*
X2677901Y2955491D01*
X2688952Y2938952D01*
X2705491Y2927901D01*
X2725000Y2924020D01*
X2744509Y2927901D01*
X2761048Y2938952D01*
X2772099Y2955491D01*
X2775979Y2975000D01*
X2772099Y2994509D01*
X2761048Y3011048D01*
X2744509Y3022099D01*
X2725000Y3025979D01*
X2718559Y3024698D01*
X2544814Y3198443D01*
X2534891Y3205074D01*
X2523185Y3207403D01*
X2523184Y3207402D01*
X1910855D01*
X1797413Y3320845D01*
X1787489Y3327475D01*
X1779716Y3329022D01*
X1781686Y3349022D01*
X2743164Y3349021D01*
D02*
G37*
G36*
X1961887Y2698290D02*
X1952901Y2684842D01*
X1949020Y2665333D01*
X1952901Y2645824D01*
X1963952Y2629285D01*
X1980491Y2618234D01*
X2000000Y2614354D01*
X2019509Y2618234D01*
X2026089Y2622631D01*
X2038838Y2607096D01*
X1982330Y2550587D01*
X1682500D01*
Y2599209D01*
X1702500Y2609900D01*
X1705491Y2607901D01*
X1710000Y2607004D01*
Y2655000D01*
Y2710000D01*
X1650000D01*
Y2740000D01*
X1697996D01*
X1697099Y2744509D01*
X1693131Y2750446D01*
X1707551Y2764866D01*
X1710491Y2762901D01*
X1715000Y2762004D01*
Y2810000D01*
Y2857996D01*
X1710491Y2857099D01*
X1702500Y2851759D01*
X1682500Y2862167D01*
Y2910000D01*
X1632500D01*
Y2840000D01*
X1602500D01*
Y2910000D01*
X1552500D01*
X1552500Y2910000D01*
X1533627Y2912720D01*
Y2955126D01*
X1529164Y2977562D01*
X1516455Y2996582D01*
X1497435Y3009290D01*
X1475000Y3013753D01*
X1452565Y3009290D01*
X1433545Y2996582D01*
X1420836Y2977562D01*
X1416374Y2955126D01*
Y2856850D01*
X1414673Y2848299D01*
Y2776582D01*
X1344439D01*
X1342617Y2777800D01*
X1323108Y2781680D01*
X1281069D01*
X1273416Y2800158D01*
X1333559Y2860302D01*
X1340000Y2859020D01*
X1359509Y2862901D01*
X1376048Y2873952D01*
X1387099Y2890491D01*
X1390980Y2910000D01*
X1387099Y2929509D01*
X1376048Y2946048D01*
X1359509Y2957099D01*
X1340000Y2960980D01*
X1320491Y2957099D01*
X1308207Y2948891D01*
X1295458Y2964426D01*
X1365444Y3034412D01*
X1625764D01*
X1961887Y2698290D01*
D02*
G37*
G36*
X3904829Y3349021D02*
X3914297Y3347138D01*
X3923220Y3343442D01*
X3931250Y3338077D01*
X3938077Y3331250D01*
X3943442Y3323220D01*
X3947138Y3314298D01*
X3949022Y3304828D01*
Y3300000D01*
Y2282186D01*
X3944375Y2280326D01*
X3929022Y2278738D01*
X3912921Y2308860D01*
X3888553Y2338553D01*
X3858860Y2362921D01*
X3824984Y2381028D01*
X3788227Y2392178D01*
X3750000Y2395943D01*
X3743225Y2415373D01*
X3747960Y2418537D01*
X3759011Y2435076D01*
X3759908Y2439585D01*
X3711912D01*
Y2454585D01*
X3696912D01*
Y2502581D01*
X3692403Y2501684D01*
X3675864Y2490633D01*
X3668173Y2479122D01*
X3651228Y2484228D01*
X3611173D01*
Y2447228D01*
X3642004D01*
X3648173Y2447228D01*
X3664270Y2437806D01*
X3664813Y2435076D01*
X3675864Y2418537D01*
X3692403Y2407486D01*
X3692968Y2407374D01*
X3693979Y2386781D01*
X3675016Y2381028D01*
X3641140Y2362921D01*
X3611447Y2338553D01*
X3587079Y2308860D01*
X3568972Y2274984D01*
X3566276Y2266097D01*
X3543657Y2260432D01*
X3507434Y2296656D01*
X3497510Y2303286D01*
X3485805Y2305615D01*
X3485804Y2305614D01*
X3436541D01*
X3430526Y2311629D01*
X3420603Y2318259D01*
X3408897Y2320588D01*
X3408896Y2320588D01*
X3246544D01*
X3242011Y2340588D01*
X3247540Y2344282D01*
X3345499Y2442241D01*
X3345500Y2442242D01*
X3352130Y2452166D01*
X3354459Y2463871D01*
X3373960Y2467197D01*
X3374459Y2467246D01*
X3376772Y2455617D01*
X3387823Y2439078D01*
X3404362Y2428027D01*
X3408871Y2427131D01*
Y2475126D01*
X3423871D01*
Y2490126D01*
X3478904D01*
X3487920Y2502527D01*
X3508871D01*
Y2555542D01*
X3544173D01*
Y2514228D01*
X3596173D01*
X3648173D01*
Y2592272D01*
X3653275Y2596049D01*
X3668173Y2601132D01*
X3680491Y2592901D01*
X3700000Y2589020D01*
X3719509Y2592901D01*
X3736048Y2603952D01*
X3747099Y2620491D01*
X3750980Y2640000D01*
X3747099Y2659509D01*
X3736048Y2676048D01*
X3730588Y2679696D01*
Y2707627D01*
X3741371D01*
Y2782627D01*
X3741371Y2802626D01*
X3741371D01*
Y2802627D01*
X3741371D01*
Y2897626D01*
X3720588D01*
Y2930304D01*
X3726048Y2933952D01*
X3737099Y2950491D01*
X3740980Y2970000D01*
X3737099Y2989509D01*
X3726048Y3006048D01*
X3709509Y3017099D01*
X3690000Y3020979D01*
X3671371Y3017274D01*
X3670334Y3017192D01*
X3651371Y3028377D01*
Y3067626D01*
X3637056D01*
Y3134427D01*
X3671371D01*
Y3329022D01*
X3689467Y3349021D01*
X3904829D01*
D02*
G37*
G36*
X3238871Y2247526D02*
Y2207185D01*
X3218871Y2196494D01*
X3213380Y2200163D01*
X3208871Y2201060D01*
Y2153065D01*
Y2105069D01*
X3213380Y2105966D01*
X3218871Y2109635D01*
X3238871Y2098944D01*
Y2062526D01*
X3258871D01*
Y2155026D01*
X3288871D01*
Y2062526D01*
X3308871D01*
Y2155026D01*
X3338866D01*
Y2062526D01*
X3444412D01*
Y2030588D01*
X3137670D01*
X2928846Y2239412D01*
X2937130Y2259412D01*
X3223794D01*
X3238871Y2247526D01*
D02*
G37*
G36*
X3765000Y2005534D02*
X3788227Y2007821D01*
X3824984Y2018972D01*
X3858860Y2037079D01*
X3888553Y2061447D01*
X3912921Y2091140D01*
X3929022Y2121262D01*
X3944375Y2119674D01*
X3949022Y2117814D01*
X3949022Y100000D01*
Y95171D01*
X3947138Y85702D01*
X3943442Y76780D01*
X3938077Y68750D01*
X3931250Y61923D01*
X3923220Y56557D01*
X3914299Y52862D01*
X3904828Y50978D01*
X3297000D01*
Y175000D01*
X3187000D01*
Y205000D01*
X3297000D01*
Y324412D01*
X3775000D01*
Y321000D01*
X3925000D01*
Y471000D01*
X3925000D01*
X3917924Y491000D01*
X3923069Y503421D01*
X3923672Y508001D01*
X3850000D01*
X3776327D01*
X3776930Y503421D01*
X3782075Y491000D01*
X3775000Y471000D01*
X3775000D01*
Y385587D01*
X2992711D01*
X2982020Y405587D01*
X2982813Y406775D01*
X3019240Y406774D01*
X3039240Y406775D01*
X3114240D01*
X3119426Y419400D01*
X3279425D01*
Y499400D01*
X3279425Y519400D01*
X3279425Y539400D01*
Y619400D01*
X3119426D01*
X3114240Y631800D01*
X3039240D01*
X3019240Y631800D01*
X2991203Y631800D01*
X2983549Y650277D01*
X3079684Y746412D01*
X3781491D01*
X3784488Y739177D01*
X3794003Y726776D01*
X3796521Y713900D01*
Y713100D01*
X3794003Y700224D01*
X3784488Y687823D01*
X3776930Y669579D01*
X3774353Y650000D01*
X3776930Y630421D01*
X3784488Y612177D01*
X3794003Y599776D01*
X3796521Y586900D01*
Y586100D01*
X3794003Y573224D01*
X3784488Y560823D01*
X3776930Y542579D01*
X3776328Y538000D01*
X3850000D01*
X3923672D01*
X3923069Y542579D01*
X3915512Y560823D01*
X3905997Y573224D01*
X3903478Y586100D01*
Y586900D01*
X3905997Y599776D01*
X3915512Y612177D01*
X3923069Y630421D01*
X3925647Y650000D01*
X3923069Y669579D01*
X3915512Y687823D01*
X3905997Y700224D01*
X3903478Y713100D01*
Y713900D01*
X3905997Y726776D01*
X3915512Y739177D01*
X3923069Y757421D01*
X3925647Y777000D01*
X3923069Y796579D01*
X3915512Y814823D01*
X3905997Y827224D01*
X3903478Y840100D01*
Y840900D01*
X3905997Y853776D01*
X3915512Y866177D01*
X3923069Y884421D01*
X3925647Y904000D01*
X3923069Y923579D01*
X3915512Y941823D01*
X3905997Y954224D01*
X3903478Y967100D01*
Y967900D01*
X3905997Y980776D01*
X3915512Y993177D01*
X3923069Y1011421D01*
X3925647Y1031000D01*
X3923069Y1050579D01*
X3915512Y1068823D01*
X3903491Y1084491D01*
X3887823Y1096512D01*
X3869579Y1104069D01*
X3850000Y1106647D01*
X3830421Y1104069D01*
X3812177Y1096512D01*
X3796509Y1084491D01*
X3784488Y1068823D01*
X3781491Y1061588D01*
X3207877D01*
X3196172Y1059259D01*
X3186248Y1052629D01*
X2784207Y650588D01*
X2611112D01*
X2611048Y650651D01*
X2602253Y670588D01*
X2608870Y680491D01*
X2612750Y700000D01*
X2611222Y707685D01*
X2629654Y717537D01*
X2643819Y703372D01*
X2643819Y703371D01*
X2653743Y696741D01*
X2665448Y694412D01*
X2665449Y694412D01*
X2710304D01*
X2713952Y688952D01*
X2730491Y677901D01*
X2750000Y674020D01*
X2769509Y677901D01*
X2786048Y688952D01*
X2797099Y705491D01*
X2800980Y725000D01*
X2797099Y744509D01*
X2786048Y761048D01*
X2769509Y772099D01*
X2750000Y775980D01*
X2730491Y772099D01*
X2713952Y761048D01*
X2713624Y760557D01*
X2694490Y761260D01*
X2694509Y777901D01*
X2711048Y788952D01*
X2722099Y805491D01*
X2725980Y825000D01*
X2722099Y844509D01*
X2711048Y861048D01*
X2694509Y872099D01*
X2689526Y873090D01*
X2677232Y890305D01*
X2677847Y894253D01*
X2677996Y895000D01*
X2630000D01*
Y925000D01*
X2677996D01*
X2677099Y929509D01*
X2675585Y931775D01*
X2686275Y951775D01*
X2870000D01*
X2881000Y936331D01*
Y932000D01*
X2985000D01*
Y1024000D01*
Y1061000D01*
X2933000D01*
Y1091000D01*
X2985000D01*
Y1127835D01*
X2999223Y1134314D01*
X3001893Y1135500D01*
X3021363D01*
X3032103Y1115500D01*
X3032004Y1115000D01*
X3127996D01*
X3127896Y1115500D01*
X3138637Y1135500D01*
X3161825D01*
Y1230500D01*
X3081825D01*
Y1260500D01*
X3161825D01*
Y1313933D01*
X3181825Y1322217D01*
X3200170Y1303872D01*
X3200171Y1303871D01*
X3210094Y1297241D01*
X3221800Y1294912D01*
X3241825D01*
Y1135500D01*
X3401825D01*
Y1223412D01*
X3421871D01*
Y1202000D01*
X3525871D01*
Y1294000D01*
Y1331000D01*
X3421871D01*
Y1284587D01*
X3401825D01*
Y1355500D01*
X3274782D01*
X3271825Y1356088D01*
X3271824Y1356088D01*
X3234469D01*
X3203428Y1387129D01*
X3193505Y1393759D01*
X3181800Y1396088D01*
X3181798Y1396088D01*
X3095477D01*
X3087823Y1414565D01*
X3103454Y1430196D01*
X3110084Y1440120D01*
X3112413Y1451825D01*
X3112413Y1451826D01*
Y1535500D01*
X3161825D01*
Y1755500D01*
X3112413D01*
Y1776825D01*
X3148000D01*
Y1880825D01*
X3019000D01*
Y1828825D01*
X2989000D01*
Y1880825D01*
X2952001D01*
X2952000Y1880825D01*
Y1880825D01*
X2945000Y1880740D01*
Y1830000D01*
X2915000D01*
Y1877996D01*
X2910491Y1877099D01*
X2893952Y1866048D01*
X2885341Y1853161D01*
X2874339Y1849104D01*
X2862315Y1848535D01*
X2854543Y1853728D01*
X2848638Y1876107D01*
X2875234Y1902703D01*
X2878022Y1906876D01*
X3226352D01*
X3262378Y1870851D01*
X3261696Y1866886D01*
X3255000Y1861977D01*
Y1800000D01*
X3240000D01*
Y1785000D01*
X3192004D01*
X3192901Y1780491D01*
X3203952Y1763952D01*
X3220491Y1752901D01*
X3240000Y1749020D01*
X3241825Y1747523D01*
Y1660500D01*
X3321825D01*
X3401825D01*
Y1705272D01*
X3420303Y1712926D01*
X3710637Y1422591D01*
X3722215Y1414856D01*
X3735871Y1412139D01*
X3775000D01*
Y1372825D01*
X3925000D01*
Y1522824D01*
X3925000D01*
X3917924Y1542825D01*
X3923069Y1555246D01*
X3923672Y1559825D01*
X3850000D01*
X3776328D01*
X3776930Y1555246D01*
X3782075Y1542825D01*
X3775000Y1522824D01*
X3775000D01*
Y1483511D01*
X3750652D01*
X3694616Y1539547D01*
X3701199Y1561248D01*
X3709509Y1562901D01*
X3726048Y1573952D01*
X3737099Y1590491D01*
X3737996Y1595000D01*
X3690000D01*
Y1610000D01*
X3675000D01*
Y1657996D01*
X3670491Y1657099D01*
X3653952Y1646048D01*
X3642901Y1629509D01*
X3641248Y1621199D01*
X3619547Y1614616D01*
X3284751Y1949412D01*
X3293035Y1969412D01*
X3450614D01*
X3739830Y1680197D01*
X3739830Y1680196D01*
X3749754Y1673566D01*
X3761459Y1671237D01*
X3761461Y1671237D01*
X3781491D01*
X3784488Y1664001D01*
X3796509Y1648334D01*
X3796521Y1648325D01*
Y1628325D01*
X3796509Y1628316D01*
X3784488Y1612648D01*
X3776930Y1594404D01*
X3776328Y1589825D01*
X3850000D01*
X3923672D01*
X3923069Y1594404D01*
X3915512Y1612648D01*
X3903491Y1628316D01*
X3903478Y1628325D01*
Y1648325D01*
X3903491Y1648334D01*
X3915512Y1664001D01*
X3923069Y1682246D01*
X3925647Y1701825D01*
X3923069Y1721404D01*
X3915512Y1739648D01*
X3903491Y1755316D01*
X3903478Y1755325D01*
Y1775325D01*
X3903491Y1775334D01*
X3915512Y1791001D01*
X3923069Y1809246D01*
X3925647Y1828825D01*
X3923069Y1848404D01*
X3915512Y1866648D01*
X3903491Y1882316D01*
X3887824Y1894337D01*
X3869579Y1901894D01*
X3850000Y1904472D01*
X3830421Y1901894D01*
X3812176Y1894337D01*
X3796509Y1882316D01*
X3793640Y1878576D01*
X3767878Y1876053D01*
X3576525Y2067406D01*
X3577530Y2071249D01*
X3599461Y2076052D01*
X3611447Y2061447D01*
X3641140Y2037079D01*
X3675016Y2018972D01*
X3711773Y2007821D01*
X3735000Y2005534D01*
Y2200000D01*
X3765000D01*
Y2005534D01*
D02*
G37*
G36*
X1789995Y1947827D02*
Y1871275D01*
X1832440D01*
X1832870Y1870829D01*
X1841300Y1851275D01*
X1834519Y1841127D01*
X1830638Y1821618D01*
X1834519Y1802109D01*
X1845570Y1785570D01*
X1862109Y1774519D01*
X1881618Y1770638D01*
X1901127Y1774519D01*
X1909727Y1780265D01*
X1921358Y1764413D01*
X1910307Y1747874D01*
X1906426Y1728365D01*
X1910307Y1708856D01*
X1921358Y1692317D01*
X1937897Y1681266D01*
X1957406Y1677385D01*
X1973988Y1680684D01*
X1979889Y1676741D01*
X1991594Y1674412D01*
X2202780D01*
X2202781Y1674412D01*
X2209497Y1675748D01*
X2230024Y1674996D01*
X2234902Y1667717D01*
X2241090Y1658456D01*
X2247176Y1654390D01*
X2254937Y1639354D01*
X2251555Y1629241D01*
X2245357Y1619965D01*
X2244460Y1615456D01*
X2292456D01*
Y1585456D01*
X2244460D01*
X2245357Y1580947D01*
X2256408Y1564408D01*
X2263402Y1559734D01*
X2264250Y1536247D01*
X2263952Y1536048D01*
X2252901Y1519509D01*
X2249020Y1500000D01*
X2252901Y1480491D01*
X2263952Y1463952D01*
X2280491Y1452901D01*
X2300000Y1449020D01*
X2319509Y1452901D01*
X2325000Y1456570D01*
X2345000Y1445880D01*
Y1365647D01*
X2325000Y1349982D01*
X2319995Y1350977D01*
X2300486Y1347096D01*
X2283947Y1336045D01*
X2272896Y1319506D01*
X2270659Y1308257D01*
X2255000Y1290980D01*
X2235491Y1287099D01*
X2225882Y1280678D01*
X2205882Y1289746D01*
Y1444670D01*
X2202389Y1462228D01*
X2192443Y1477113D01*
X2190882Y1478675D01*
Y1564944D01*
X2192099Y1566765D01*
X2195980Y1586274D01*
X2192099Y1605783D01*
X2181048Y1622322D01*
X2164509Y1633373D01*
X2145000Y1637254D01*
X2125491Y1633373D01*
X2108952Y1622322D01*
X2097901Y1605783D01*
X2094020Y1586274D01*
X2097901Y1566765D01*
X2099118Y1564944D01*
Y1459670D01*
X2102611Y1442112D01*
X2112557Y1427227D01*
X2114118Y1425665D01*
Y1294709D01*
X2094118Y1284019D01*
X2089509Y1287099D01*
X2070000Y1290980D01*
X2050491Y1287099D01*
X2033952Y1276048D01*
X2014111Y1282353D01*
Y1564944D01*
X2015328Y1566765D01*
X2019209Y1586274D01*
X2015328Y1605783D01*
X2004277Y1622322D01*
X1987738Y1633373D01*
X1968229Y1637254D01*
X1948721Y1633373D01*
X1932182Y1622322D01*
X1921131Y1605783D01*
X1917250Y1586274D01*
X1921131Y1566765D01*
X1922348Y1564944D01*
Y1295893D01*
X1902348Y1285202D01*
X1899509Y1287099D01*
X1880000Y1290980D01*
X1860491Y1287099D01*
X1843952Y1276048D01*
X1832901Y1259509D01*
X1829664Y1243233D01*
X1786717D01*
X1786716Y1243234D01*
X1775010Y1240905D01*
X1765087Y1234275D01*
X1765086Y1234274D01*
X1753371Y1222559D01*
X1746741Y1212635D01*
X1744412Y1200930D01*
X1744412Y1200929D01*
Y1181274D01*
X1690000D01*
Y1021275D01*
X1694412D01*
Y887930D01*
X1694412Y887929D01*
X1696741Y876224D01*
X1703371Y866300D01*
X1781194Y788477D01*
X1773540Y770000D01*
X1480000D01*
Y756459D01*
X1460000Y745769D01*
X1458009Y747099D01*
X1438500Y750979D01*
X1418991Y747099D01*
X1402452Y736048D01*
X1391401Y719509D01*
X1387520Y700000D01*
X1391401Y680491D01*
X1402452Y663952D01*
X1418991Y652901D01*
X1438500Y649020D01*
X1458009Y652901D01*
X1460000Y654231D01*
X1480000Y643541D01*
Y630000D01*
X1699682D01*
X1707967Y610000D01*
X1678554Y580588D01*
X1442669D01*
X1250000Y773258D01*
X1250000Y825000D01*
X1255012Y829488D01*
X1270000Y834911D01*
X1280491Y827901D01*
X1300000Y824020D01*
X1319509Y827901D01*
X1336048Y838952D01*
X1347099Y855491D01*
X1350980Y875000D01*
X1347099Y894509D01*
X1336048Y911048D01*
X1319509Y922099D01*
X1300000Y925980D01*
X1280491Y922099D01*
X1270000Y915089D01*
X1250000Y920000D01*
Y920000D01*
X1163851Y920000D01*
X1161151Y921691D01*
X1152018Y935000D01*
X1100000D01*
Y950000D01*
X1085000D01*
Y997996D01*
X1080491Y997099D01*
X1063952Y986048D01*
X1055015Y972673D01*
X1042069Y972565D01*
X1034203Y974785D01*
X1034169Y974956D01*
X1026434Y986533D01*
X1020000Y992967D01*
Y1039999D01*
X1020000D01*
X1020000Y1040000D01*
X1020000Y1059999D01*
Y1082575D01*
X1020979Y1087500D01*
X1020000Y1092425D01*
Y1135000D01*
X1002544D01*
X994170Y1143799D01*
X1002747Y1163799D01*
X1323045D01*
X1342554Y1167680D01*
X1347500Y1170985D01*
X1367500Y1160295D01*
Y1155000D01*
X1432500D01*
Y1125000D01*
X1367500D01*
Y1070000D01*
X1367500D01*
X1371005Y1065000D01*
X1432500D01*
Y1050000D01*
X1447500D01*
Y1002004D01*
X1452009Y1002901D01*
X1468548Y1013952D01*
X1479599Y1030491D01*
X1483479Y1050000D01*
X1487787Y1056145D01*
X1512212Y1056145D01*
X1516520Y1050000D01*
X1520401Y1030491D01*
X1531452Y1013952D01*
X1547991Y1002901D01*
X1567500Y999020D01*
X1587009Y1002901D01*
X1603548Y1013952D01*
X1614599Y1030491D01*
X1618480Y1050000D01*
X1632500Y1070000D01*
X1632500D01*
Y1210000D01*
X1636936Y1211599D01*
X1655000Y1216274D01*
D01*
X1675000Y1226570D01*
X1680491Y1222901D01*
X1685000Y1222004D01*
Y1270000D01*
X1700000D01*
Y1285000D01*
X1747996D01*
X1747099Y1289509D01*
X1736048Y1306048D01*
X1735231Y1330648D01*
X1742213Y1341098D01*
X1746094Y1360607D01*
X1742213Y1380116D01*
X1731162Y1396655D01*
X1714623Y1407706D01*
X1695114Y1411586D01*
X1675605Y1407706D01*
X1675000Y1407301D01*
X1658421Y1414740D01*
X1655000Y1417992D01*
Y1466274D01*
Y1566274D01*
Y1670687D01*
X1745807D01*
X1764617Y1651877D01*
X1767901Y1635367D01*
X1778952Y1618828D01*
X1795491Y1607777D01*
X1815000Y1603896D01*
X1834509Y1607777D01*
X1851048Y1618828D01*
X1862099Y1635367D01*
X1865980Y1654876D01*
X1862099Y1674385D01*
X1851048Y1690923D01*
X1834509Y1701974D01*
X1815000Y1705855D01*
X1800115Y1702894D01*
X1780105Y1722903D01*
X1770182Y1729534D01*
X1758477Y1731862D01*
X1758475Y1731862D01*
X1714737D01*
X1712767Y1751862D01*
X1714261Y1752159D01*
X1730800Y1763210D01*
X1741851Y1779749D01*
X1745732Y1799258D01*
X1741851Y1818767D01*
X1730800Y1835306D01*
X1714261Y1846357D01*
X1694752Y1850238D01*
X1675243Y1846357D01*
X1671782Y1844044D01*
X1654999Y1836274D01*
X1525591D01*
X1520256Y1846157D01*
X1517599Y1856274D01*
X1527099Y1870491D01*
X1530979Y1890000D01*
X1529726Y1896300D01*
X1535247Y1903632D01*
X1550000Y1916300D01*
X1568000Y1920799D01*
Y1920799D01*
X1568001Y1920800D01*
X1624136D01*
X1627869Y1918305D01*
X1641525Y1915589D01*
X1690000D01*
Y1871275D01*
X1760005D01*
Y1947827D01*
X1760691Y1951275D01*
X1789309D01*
X1789995Y1947827D01*
D02*
G37*
G36*
X1878918Y971305D02*
X1892574Y968588D01*
X1910000D01*
X1923656Y971305D01*
X1924412Y971810D01*
X1944412Y961119D01*
Y950504D01*
X1944412Y950503D01*
X1946741Y938798D01*
X1953371Y928874D01*
X1980173Y902072D01*
X1974601Y879360D01*
X1963952Y872245D01*
X1952901Y855706D01*
X1952004Y851197D01*
X2000000D01*
Y836197D01*
X2015000D01*
Y788201D01*
X2019509Y789098D01*
X2036048Y800149D01*
X2043163Y810797D01*
X2065875Y816370D01*
X2123874Y758371D01*
X2133798Y751741D01*
X2145503Y749412D01*
X2160000Y736875D01*
Y650587D01*
X2062167D01*
X1855588Y857167D01*
Y963371D01*
X1875588Y973530D01*
X1878918Y971305D01*
D02*
G37*
G36*
X1286200Y335000D02*
X1076200D01*
Y495000D01*
X1286200D01*
Y335000D01*
D02*
G37*
G36*
X666200D02*
X456200D01*
Y495000D01*
X666200D01*
Y335000D01*
D02*
G37*
G36*
X2432004Y228971D02*
X2439911Y210000D01*
X2432901Y199509D01*
X2432005Y195000D01*
X2480000D01*
Y165000D01*
X2432005D01*
X2432901Y160491D01*
X2439518Y150588D01*
X2430723Y130652D01*
X2430659Y130588D01*
X2249341D01*
X2249278Y130652D01*
X2240482Y150588D01*
X2247099Y160491D01*
X2250979Y180000D01*
X2247099Y199509D01*
X2240089Y210000D01*
X2247997Y228971D01*
X2248948Y230000D01*
X2431052D01*
X2432004Y228971D01*
D02*
G37*
G36*
X1086200Y65000D02*
X896200D01*
Y255000D01*
X1086200D01*
Y65000D01*
D02*
G37*
G36*
X846200D02*
X656200D01*
Y255000D01*
X846200D01*
Y65000D01*
D02*
G37*
%LPC*%
G36*
X409849Y3300000D02*
X390151D01*
X370831Y3296157D01*
X352632Y3288619D01*
X336254Y3277675D01*
X322325Y3263746D01*
X311381Y3247368D01*
X303843Y3229169D01*
X300000Y3209849D01*
Y3190151D01*
X303843Y3170831D01*
X311381Y3152632D01*
X322325Y3136254D01*
X336254Y3122325D01*
X352632Y3111381D01*
X370831Y3103843D01*
X390151Y3100000D01*
X409849D01*
X429169Y3103843D01*
X447368Y3111381D01*
X463746Y3122325D01*
X477675Y3136254D01*
X488619Y3152632D01*
X496157Y3170831D01*
X500000Y3190151D01*
Y3209849D01*
X496157Y3229169D01*
X488619Y3247368D01*
X477675Y3263746D01*
X463746Y3277675D01*
X447368Y3288619D01*
X429169Y3296157D01*
X409849Y3300000D01*
D02*
G37*
G36*
X710000Y3137500D02*
X687500D01*
Y3095000D01*
X710000D01*
Y3137500D01*
D02*
G37*
G36*
X555000Y3112996D02*
X550491Y3112099D01*
X533952Y3101048D01*
X522901Y3084509D01*
X522004Y3080000D01*
X555000D01*
Y3112996D01*
D02*
G37*
G36*
X223672Y2588701D02*
X150000D01*
X76328D01*
X76931Y2584122D01*
X82076Y2571700D01*
X75000Y2551700D01*
X75000D01*
Y2401701D01*
X225000D01*
Y2551700D01*
X225000D01*
X217924Y2571700D01*
X223069Y2584122D01*
X223672Y2588701D01*
D02*
G37*
G36*
X325000Y2335000D02*
X292004D01*
X292901Y2330491D01*
X303952Y2313952D01*
X320491Y2302901D01*
X325000Y2302004D01*
Y2335000D01*
D02*
G37*
G36*
X611104Y2334700D02*
X508108D01*
Y2298721D01*
X563108D01*
X582617Y2302601D01*
X599156Y2313652D01*
X610207Y2330191D01*
X611104Y2334700D01*
D02*
G37*
G36*
X455000Y2197996D02*
Y2165000D01*
X487996D01*
X487099Y2169509D01*
X476048Y2186048D01*
X459509Y2197099D01*
X455000Y2197996D01*
D02*
G37*
G36*
X425000D02*
X420491Y2197099D01*
X403952Y2186048D01*
X392901Y2169509D01*
X392004Y2165000D01*
X425000D01*
Y2197996D01*
D02*
G37*
G36*
X255000D02*
Y2165000D01*
X287996D01*
X287099Y2169509D01*
X276048Y2186048D01*
X259509Y2197099D01*
X255000Y2197996D01*
D02*
G37*
G36*
X225000D02*
X220491Y2197099D01*
X203952Y2186048D01*
X192901Y2169509D01*
X192004Y2165000D01*
X225000D01*
Y2197996D01*
D02*
G37*
G36*
X1365000Y2098799D02*
X1332004D01*
X1332901Y2094290D01*
X1343952Y2077751D01*
X1360491Y2066700D01*
X1365000Y2065804D01*
Y2098799D01*
D02*
G37*
G36*
X487996Y2135000D02*
X392004D01*
X392901Y2130491D01*
X393212Y2130025D01*
X382522Y2110025D01*
X365200D01*
Y2060025D01*
X505200D01*
Y2110025D01*
X497478D01*
X486788Y2130025D01*
X487099Y2130491D01*
X487996Y2135000D01*
D02*
G37*
G36*
X287996D02*
X192004D01*
X192901Y2130491D01*
X193212Y2130025D01*
X182522Y2110025D01*
X175200D01*
Y2060025D01*
X315200D01*
Y2110025D01*
X297478D01*
X286788Y2130025D01*
X287099Y2130491D01*
X287996Y2135000D01*
D02*
G37*
G36*
X505200Y2030025D02*
X365200D01*
Y1995025D01*
X365200Y1980026D01*
X365200Y1960025D01*
Y1845026D01*
X365200D01*
X365000Y1837499D01*
X365000D01*
X365000Y1825108D01*
Y1675025D01*
X365000Y1664117D01*
X347333Y1651867D01*
X339508Y1657096D01*
X320000Y1660976D01*
X315000Y1665079D01*
Y1837499D01*
X315000D01*
X315200Y1845026D01*
X315200D01*
Y1960025D01*
X315200Y1975025D01*
X315200Y1995025D01*
Y2030025D01*
X175200D01*
Y1995025D01*
X175200Y1980026D01*
X175200Y1960025D01*
Y1845026D01*
X175200D01*
X175000Y1837499D01*
X175000D01*
X175000Y1825108D01*
Y1657500D01*
X199118D01*
Y1403895D01*
X202611Y1386337D01*
X212557Y1371452D01*
X249000Y1335009D01*
Y1268895D01*
X411000D01*
Y1288514D01*
X469000D01*
Y1268895D01*
X631000D01*
Y1399895D01*
X469000D01*
Y1380277D01*
X411921D01*
X411000Y1399895D01*
X410000Y1412501D01*
X410000D01*
Y1487500D01*
X340000D01*
Y1517500D01*
X410000D01*
Y1592500D01*
X383262D01*
X381213Y1594997D01*
X319999D01*
Y1624997D01*
X367995D01*
X367098Y1629506D01*
X361743Y1637521D01*
X360516Y1639358D01*
X372162Y1657500D01*
X382259Y1657500D01*
X505000D01*
Y1701619D01*
X556000D01*
Y1636500D01*
X567587D01*
X570000Y1617500D01*
X570000D01*
Y1517500D01*
X645000D01*
X664999Y1517500D01*
Y1517500D01*
X665001D01*
Y1517500D01*
X697500D01*
Y1567500D01*
Y1617500D01*
X689414D01*
X687000Y1636500D01*
X687000D01*
Y1798500D01*
X671632D01*
Y1820000D01*
X700000D01*
Y2000000D01*
X560000D01*
Y1820000D01*
X579869D01*
Y1798500D01*
X556000D01*
Y1793382D01*
X505000D01*
Y1837499D01*
X505000D01*
X505200Y1845026D01*
X505200D01*
Y1960025D01*
X505200Y1975025D01*
X505200Y1995025D01*
Y2030025D01*
D02*
G37*
G36*
X890000Y2000000D02*
X750000D01*
Y1820000D01*
X825114D01*
X882119Y1762995D01*
Y1738000D01*
X883000Y1733568D01*
Y1636500D01*
X1014000D01*
Y1636500D01*
X1034000Y1650142D01*
X1039641Y1649020D01*
X1059150Y1652901D01*
X1075689Y1663952D01*
X1086740Y1680491D01*
X1090620Y1700000D01*
X1086740Y1719509D01*
X1075689Y1736048D01*
X1059150Y1747099D01*
X1039641Y1750979D01*
X1034000Y1749858D01*
X1014000Y1765225D01*
Y1798500D01*
X970600D01*
X970389Y1799558D01*
X960443Y1814443D01*
X890000Y1884887D01*
Y2000000D01*
D02*
G37*
G36*
X775000Y1618563D02*
X760000Y1617500D01*
X760000Y1617500D01*
X759999Y1617500D01*
X727500D01*
Y1567500D01*
Y1517500D01*
X760000D01*
X760000Y1517500D01*
X775000Y1520132D01*
Y1570000D01*
Y1618563D01*
D02*
G37*
G36*
X805000Y1617996D02*
Y1585000D01*
X837996D01*
X837099Y1589509D01*
X826048Y1606048D01*
X809509Y1617099D01*
X805000Y1617996D01*
D02*
G37*
G36*
X1058000Y1601274D02*
X998000D01*
Y1541274D01*
X1058000D01*
Y1601274D01*
D02*
G37*
G36*
X837996Y1555000D02*
X805000D01*
Y1522004D01*
X809509Y1522901D01*
X826048Y1533952D01*
X837099Y1550491D01*
X837996Y1555000D01*
D02*
G37*
G36*
X1058000Y1511274D02*
X998000D01*
Y1451274D01*
X1058000D01*
Y1511274D01*
D02*
G37*
G36*
X265000Y894466D02*
Y715000D01*
X444466D01*
X442178Y738227D01*
X431028Y774984D01*
X412921Y808860D01*
X388553Y838553D01*
X358860Y862921D01*
X324984Y881028D01*
X288227Y892179D01*
X265000Y894466D01*
D02*
G37*
G36*
X1015000Y614196D02*
Y581200D01*
X1047996D01*
X1047099Y585709D01*
X1036048Y602248D01*
X1019509Y613299D01*
X1015000Y614196D01*
D02*
G37*
G36*
X444466Y685000D02*
X265000D01*
Y505534D01*
X288227Y507822D01*
X324984Y518972D01*
X358860Y537079D01*
X388553Y561447D01*
X412921Y591140D01*
X431028Y625016D01*
X442178Y661773D01*
X444466Y685000D01*
D02*
G37*
G36*
X355000Y487996D02*
Y455000D01*
X387996D01*
X387099Y459509D01*
X376048Y476048D01*
X359509Y487099D01*
X355000Y487996D01*
D02*
G37*
G36*
X325000D02*
X320491Y487099D01*
X303952Y476048D01*
X292901Y459509D01*
X292004Y455000D01*
X325000D01*
Y487996D01*
D02*
G37*
G36*
X387996Y425000D02*
X355000D01*
Y392004D01*
X359509Y392901D01*
X376048Y403952D01*
X387099Y420491D01*
X387996Y425000D01*
D02*
G37*
G36*
X325000D02*
X292004D01*
X292901Y420491D01*
X303952Y403952D01*
X320491Y392901D01*
X325000Y392004D01*
Y425000D01*
D02*
G37*
G36*
X1256200Y275000D02*
X1161200D01*
Y175000D01*
X1256200D01*
Y275000D01*
D02*
G37*
G36*
X581200D02*
X486200D01*
Y175000D01*
X581200D01*
Y275000D01*
D02*
G37*
G36*
X456200D02*
X361200D01*
Y175000D01*
X456200D01*
Y275000D01*
D02*
G37*
G36*
X1440000Y197996D02*
Y165000D01*
X1472996D01*
X1472099Y169509D01*
X1461048Y186048D01*
X1444509Y197099D01*
X1440000Y197996D01*
D02*
G37*
G36*
X1805000Y145000D02*
X1772004D01*
X1772901Y140491D01*
X1783952Y123952D01*
X1800491Y112901D01*
X1805000Y112004D01*
Y145000D01*
D02*
G37*
G36*
X1472996Y135000D02*
X1440000D01*
Y102004D01*
X1444509Y102901D01*
X1461048Y113952D01*
X1472099Y130491D01*
X1472996Y135000D01*
D02*
G37*
G36*
X209849Y300000D02*
X190151D01*
X170831Y296157D01*
X152632Y288619D01*
X136254Y277675D01*
X122325Y263746D01*
X111381Y247368D01*
X103843Y229169D01*
X100000Y209849D01*
Y190151D01*
X103843Y170831D01*
X111381Y152632D01*
X122325Y136254D01*
X136254Y122325D01*
X152632Y111381D01*
X170831Y103843D01*
X190151Y100000D01*
X209849D01*
X229169Y103843D01*
X247368Y111381D01*
X263746Y122325D01*
X277675Y136254D01*
X288619Y152632D01*
X296157Y170831D01*
X300000Y190151D01*
Y209849D01*
X296157Y229169D01*
X288619Y247368D01*
X277675Y263746D01*
X263746Y277675D01*
X247368Y288619D01*
X229169Y296157D01*
X209849Y300000D01*
D02*
G37*
%LPD*%
G36*
X428322Y3242388D02*
X442388Y3228322D01*
X450000Y3209945D01*
Y3200000D01*
Y3190054D01*
X442388Y3171677D01*
X428322Y3157612D01*
X409945Y3150000D01*
X390054D01*
X371677Y3157612D01*
X357612Y3171677D01*
X350000Y3190054D01*
Y3200000D01*
Y3209945D01*
X357612Y3228322D01*
X371677Y3242388D01*
X390054Y3250000D01*
X409945D01*
X428322Y3242388D01*
D02*
G37*
G36*
X228323Y242388D02*
X242388Y228323D01*
X250000Y209945D01*
Y200000D01*
Y190054D01*
X242388Y171677D01*
X228323Y157612D01*
X209945Y150000D01*
X190054D01*
X171677Y157612D01*
X157612Y171677D01*
X150000Y190054D01*
Y200000D01*
Y209945D01*
X157612Y228323D01*
X171677Y242388D01*
X190054Y250000D01*
X209945D01*
X228323Y242388D01*
D02*
G37*
%LPC*%
G36*
X2908302Y3224427D02*
X2819371D01*
Y3135496D01*
X2831781Y3137129D01*
X2857324Y3147709D01*
X2879258Y3164540D01*
X2896088Y3186474D01*
X2906668Y3212016D01*
X2908302Y3224427D01*
D02*
G37*
G36*
X2789371D02*
X2700440D01*
X2702074Y3212016D01*
X2712654Y3186474D01*
X2729484Y3164540D01*
X2751418Y3147709D01*
X2776960Y3137129D01*
X2789371Y3135495D01*
Y3224427D01*
D02*
G37*
G36*
X2218185Y3120622D02*
Y3087627D01*
X2251181D01*
X2250284Y3092136D01*
X2239233Y3108675D01*
X2222694Y3119726D01*
X2218185Y3120622D01*
D02*
G37*
G36*
X2073185D02*
X2068676Y3119726D01*
X2052137Y3108675D01*
X2041086Y3092136D01*
X2040189Y3087627D01*
X2073185D01*
Y3120622D01*
D02*
G37*
G36*
X3020366Y2728327D02*
X2987370D01*
Y2695331D01*
X2991879Y2696228D01*
X3008418Y2707279D01*
X3019469Y2723818D01*
X3020366Y2728327D01*
D02*
G37*
G36*
X2225000Y2633122D02*
X2220491Y2632225D01*
X2203952Y2621174D01*
X2192901Y2604635D01*
X2192004Y2600126D01*
X2225000D01*
Y2633122D01*
D02*
G37*
G36*
X2255000D02*
Y2585126D01*
Y2537131D01*
X2259509Y2538027D01*
X2276048Y2549078D01*
X2280686Y2556019D01*
X2287254Y2554027D01*
X2375685D01*
Y2609026D01*
X2306388D01*
X2300686Y2609027D01*
X2282017Y2612241D01*
X2276048Y2621174D01*
X2259509Y2632225D01*
X2255000Y2633122D01*
D02*
G37*
G36*
X2225000Y2570126D02*
X2192004D01*
X2192901Y2565617D01*
X2203952Y2549078D01*
X2220491Y2538027D01*
X2225000Y2537131D01*
Y2570126D01*
D02*
G37*
G36*
X2375685Y2524027D02*
X2300686D01*
Y2469027D01*
X2375685D01*
Y2524027D01*
D02*
G37*
G36*
X1745000Y2857996D02*
Y2825000D01*
X1777996D01*
X1777099Y2829509D01*
X1766048Y2846048D01*
X1749509Y2857099D01*
X1745000Y2857996D01*
D02*
G37*
G36*
X1777996Y2795000D02*
X1745000D01*
Y2762004D01*
X1749509Y2762901D01*
X1766048Y2773952D01*
X1777099Y2790491D01*
X1777996Y2795000D01*
D02*
G37*
G36*
X1740000Y2702996D02*
Y2670000D01*
X1772996D01*
X1772099Y2674509D01*
X1761048Y2691048D01*
X1744509Y2702099D01*
X1740000Y2702996D01*
D02*
G37*
G36*
X1772996Y2640000D02*
X1740000D01*
Y2607004D01*
X1744509Y2607901D01*
X1761048Y2618952D01*
X1772099Y2635491D01*
X1772996Y2640000D01*
D02*
G37*
G36*
X3726912Y2502581D02*
Y2469585D01*
X3759908D01*
X3759011Y2474094D01*
X3747960Y2490633D01*
X3731421Y2501684D01*
X3726912Y2502581D01*
D02*
G37*
G36*
X3581173Y2484228D02*
X3544173D01*
Y2447228D01*
X3581173D01*
Y2484228D01*
D02*
G37*
G36*
X3471867Y2460126D02*
X3438871D01*
Y2427131D01*
X3443380Y2428027D01*
X3459919Y2439078D01*
X3470970Y2455617D01*
X3471867Y2460126D01*
D02*
G37*
G36*
X3178871Y2201060D02*
X3174362Y2200163D01*
X3157823Y2189112D01*
X3146772Y2172574D01*
X3145875Y2168064D01*
X3178871D01*
Y2201060D01*
D02*
G37*
G36*
Y2138065D02*
X3145875D01*
X3146772Y2133556D01*
X3157823Y2117017D01*
X3174362Y2105966D01*
X3178871Y2105069D01*
Y2138065D01*
D02*
G37*
G36*
X3225000Y1847996D02*
X3220491Y1847099D01*
X3203952Y1836048D01*
X3192901Y1819509D01*
X3192004Y1815000D01*
X3225000D01*
Y1847996D01*
D02*
G37*
G36*
X3705000Y1657996D02*
Y1625000D01*
X3737996D01*
X3737099Y1629509D01*
X3726048Y1646048D01*
X3709509Y1657099D01*
X3705000Y1657996D01*
D02*
G37*
G36*
X3401825Y1630500D02*
X3336825D01*
Y1535500D01*
X3401825D01*
Y1630500D01*
D02*
G37*
G36*
X3306825D02*
X3241825D01*
Y1535500D01*
X3306825D01*
Y1630500D01*
D02*
G37*
G36*
X3525871Y1398000D02*
X3488871D01*
Y1361000D01*
X3525871D01*
Y1398000D01*
D02*
G37*
G36*
X3458871D02*
X3421871D01*
Y1361000D01*
X3458871D01*
Y1398000D01*
D02*
G37*
G36*
X3127996Y1085000D02*
X3095000D01*
Y1052004D01*
X3099509Y1052901D01*
X3116048Y1063952D01*
X3127099Y1080491D01*
X3127996Y1085000D01*
D02*
G37*
G36*
X3065000D02*
X3032004D01*
X3032901Y1080491D01*
X3043952Y1063952D01*
X3060491Y1052901D01*
X3065000Y1052004D01*
Y1085000D01*
D02*
G37*
G36*
X3519425Y619400D02*
X3359425D01*
Y539399D01*
X3359425Y519400D01*
X3359425D01*
Y519399D01*
X3359425D01*
Y419400D01*
X3519425D01*
Y435407D01*
X3527591Y437031D01*
X3539168Y444766D01*
X3564513Y470112D01*
X3570000Y469020D01*
X3589509Y472901D01*
X3606048Y483952D01*
X3617099Y500491D01*
X3620980Y520000D01*
X3617099Y539509D01*
X3606048Y556048D01*
X3589509Y567099D01*
X3570000Y570980D01*
X3569573Y570894D01*
X3560834Y579633D01*
X3549257Y587369D01*
X3535600Y590085D01*
X3519425D01*
Y619400D01*
D02*
G37*
G36*
X3395000Y237996D02*
Y205000D01*
X3427996D01*
X3427099Y209509D01*
X3416048Y226048D01*
X3399509Y237099D01*
X3395000Y237996D01*
D02*
G37*
G36*
X3365000D02*
X3360491Y237099D01*
X3343952Y226048D01*
X3332901Y209509D01*
X3332004Y205000D01*
X3365000D01*
Y237996D01*
D02*
G37*
G36*
X3427996Y175000D02*
X3395000D01*
Y142004D01*
X3399509Y142901D01*
X3416048Y153952D01*
X3427099Y170491D01*
X3427996Y175000D01*
D02*
G37*
G36*
X3365000D02*
X3332004D01*
X3332901Y170491D01*
X3343952Y153952D01*
X3360491Y142901D01*
X3365000Y142004D01*
Y175000D01*
D02*
G37*
G36*
X3609849Y300000D02*
X3590151D01*
X3570831Y296157D01*
X3552632Y288619D01*
X3536254Y277675D01*
X3522325Y263746D01*
X3511381Y247368D01*
X3503843Y229169D01*
X3500000Y209849D01*
Y190150D01*
X3503843Y170831D01*
X3511381Y152632D01*
X3522325Y136253D01*
X3536254Y122325D01*
X3552632Y111381D01*
X3570831Y103843D01*
X3590151Y100000D01*
X3609849D01*
X3629169Y103843D01*
X3647368Y111381D01*
X3663746Y122325D01*
X3677675Y136253D01*
X3688619Y152632D01*
X3696157Y170831D01*
X3700000Y190150D01*
Y209849D01*
X3696157Y229169D01*
X3688619Y247368D01*
X3677675Y263746D01*
X3663746Y277675D01*
X3647368Y288619D01*
X3629169Y296157D01*
X3609849Y300000D01*
D02*
G37*
%LPD*%
G36*
X3628322Y242388D02*
X3642388Y228322D01*
X3650000Y209945D01*
Y200000D01*
Y190054D01*
X3642388Y171677D01*
X3628322Y157612D01*
X3609945Y150000D01*
X3590054D01*
X3571677Y157612D01*
X3557612Y171677D01*
X3550000Y190054D01*
Y200000D01*
Y209945D01*
X3557612Y228322D01*
X3571677Y242388D01*
X3590054Y250000D01*
X3609945D01*
X3628322Y242388D01*
D02*
G37*
%LPC*%
G36*
X1747996Y1255000D02*
X1715000D01*
Y1222004D01*
X1719509Y1222901D01*
X1736048Y1233952D01*
X1747099Y1250491D01*
X1747996Y1255000D01*
D02*
G37*
G36*
X1417500Y1035000D02*
X1384504D01*
X1385401Y1030491D01*
X1396452Y1013952D01*
X1412991Y1002901D01*
X1417500Y1002004D01*
Y1035000D01*
D02*
G37*
G36*
X1115000Y997996D02*
Y965000D01*
X1147996D01*
X1147099Y969509D01*
X1136048Y986048D01*
X1119509Y997099D01*
X1115000Y997996D01*
D02*
G37*
G36*
X1985000Y821197D02*
X1952004D01*
X1952901Y816688D01*
X1963952Y800149D01*
X1980491Y789098D01*
X1985000Y788201D01*
Y821197D01*
D02*
G37*
%LPD*%
D10*
X1361888Y1441274D02*
G03*
X1391327Y1470713I-186600J216038D01*
G01*
X2702118Y2290000D02*
X3408897D01*
X2650000Y2237882D02*
X2702118Y2290000D01*
X2650000Y2235824D02*
Y2237882D01*
X3485805Y2275027D02*
X3536771Y2224061D01*
Y2063902D02*
Y2224061D01*
Y2063902D02*
X3771848Y1828825D01*
X3850000D01*
X2252285Y1754504D02*
X2421770D01*
X2202781Y1705000D02*
X2252285Y1754504D01*
X2277138Y1694504D02*
X2283271Y1700637D01*
X2424363D01*
X1464228Y1451274D02*
X1575000D01*
X1388704Y1375751D02*
X1464228Y1451274D01*
X1502574Y1396274D02*
X1570000D01*
X1408033Y1301734D02*
X1502574Y1396274D01*
X1570000D02*
X1575000Y1401274D01*
X2547570Y2657571D02*
X2547592Y2657592D01*
Y2660000D01*
X1920447Y2349700D02*
X2000000Y2270148D01*
X1253108Y2349700D02*
X1920447D01*
X1575000Y1801275D02*
X1576008Y1800266D01*
X1693744D01*
X1881618Y1821618D02*
X1925000Y1865000D01*
X1693744Y1800266D02*
X1694752Y1799258D01*
X1686429Y1351922D02*
X1695114Y1360607D01*
X1575647Y1351922D02*
X1686429D01*
X1705783Y483915D02*
X1712806D01*
X1816721Y380000D01*
X1340961Y2670701D02*
X1386517Y2625144D01*
X969299Y2730701D02*
X1029299Y2670701D01*
X1340961D01*
X1425074Y2520000D02*
X1995000D01*
X1386517Y2558556D02*
X1425074Y2520000D01*
X1386517Y2558556D02*
Y2625144D01*
X1253108Y2476701D02*
X1260762Y2469047D01*
X1953423D01*
X2053444Y2369027D01*
X2125000Y1951274D02*
Y2238485D01*
X1945631Y2417855D02*
X2125000Y2238485D01*
X1349115Y2417855D02*
X1945631D01*
X1143861D02*
X1157102D01*
X1158255Y2416701D02*
X1347961D01*
X1157102Y2417855D02*
X1158255Y2416701D01*
X1347961D02*
X1349115Y2417855D01*
X1051851Y2277990D02*
X1897736D01*
X853141Y2476701D02*
X1051851Y2277990D01*
X1897736D02*
X2075000Y2100727D01*
X1400570Y2230865D02*
X1401005Y2231300D01*
X1558995D01*
X1644853Y2190865D02*
X1675718Y2160000D01*
X1417139Y2190865D02*
X1417573Y2191300D01*
X1558995Y2231300D02*
X1559429Y2230865D01*
X1542426Y2191300D02*
X1542861Y2190865D01*
X1644853D01*
X955000Y2155000D02*
X990865Y2190865D01*
X852800Y2409700D02*
X1031635Y2230865D01*
X1887841D02*
X2025000Y2093707D01*
X990865Y2190865D02*
X1417139D01*
X1031635Y2230865D02*
X1400570D01*
X1559429D02*
X1887841D01*
X1417573Y2191300D02*
X1542426D01*
X1675718Y2160000D02*
X1740000D01*
X2075000Y1951274D02*
Y2100727D01*
X2025000Y1951274D02*
Y2093707D01*
X350000Y2450000D02*
X390300Y2409700D01*
X852800D01*
X982500Y2886716D02*
Y2925000D01*
X994216Y2875000D02*
X1104926D01*
X982500Y2886716D02*
X994216Y2875000D01*
X975000Y2932500D02*
X982500Y2925000D01*
X590000Y2885000D02*
X640000Y2835000D01*
X1122774D01*
X570000Y2902500D02*
X587500Y2885000D01*
X590000D01*
X1122774Y2835000D02*
X1352774Y3065000D01*
X1638434D01*
X1655003Y3105000D02*
X1869876Y2890127D01*
X1334926Y3105000D02*
X1655003D01*
X1895685Y2890127D02*
X1900686Y2885126D01*
X1869876Y2890127D02*
X1895685D01*
X1104926Y2875000D02*
X1334926Y3105000D01*
X1996624Y2668709D02*
Y2706810D01*
Y2668709D02*
X2000000Y2665333D01*
X1638434Y3065000D02*
X1996624Y2706810D01*
X1225000Y2795000D02*
X1340000Y2910000D01*
X295299Y2984701D02*
X485000Y2795000D01*
X1225000D01*
X2645627Y2820627D02*
X2650000Y2825000D01*
X1913186Y2885126D02*
X1977685Y2820627D01*
X2645627D01*
X1900686Y2885126D02*
X1913186D01*
X2639273Y2212876D02*
Y2234524D01*
X2983871Y2852627D02*
X3001371Y2870127D01*
Y2875053D01*
X3062694Y2936377D01*
X3088871D01*
X3136371Y2983877D01*
Y2992627D01*
X3403908Y2870090D02*
X3421371Y2852627D01*
X3403908Y2870090D02*
Y2895090D01*
X3366371Y2932627D02*
X3403908Y2895090D01*
X3353871Y2932627D02*
X3366371D01*
X3306371Y2980127D02*
X3353871Y2932627D01*
X3306371Y2980127D02*
Y2992627D01*
X2755649Y1926334D02*
X2756474D01*
X2718974Y1963009D02*
X2755649Y1926334D01*
X2175624Y1775625D02*
X2177500Y1777501D01*
Y1948775D01*
X2429995Y1806270D02*
Y1889996D01*
X2425000Y1801275D02*
X2429995Y1806270D01*
X1991594Y1705000D02*
X2202781D01*
X2250000Y1820000D02*
Y1830824D01*
X2225000Y1855824D02*
X2250000Y1830824D01*
X1968229Y1728365D02*
X1991594Y1705000D01*
X2423150Y1549424D02*
X2425000Y1551275D01*
X2349424Y1549424D02*
X2423150D01*
X2300000Y1500000D02*
X2349424Y1549424D01*
X2701775Y1412000D02*
X3042000D01*
X3081825Y1451825D01*
X2425000Y1501274D02*
X2426274Y1500000D01*
X2613775D01*
X2701775Y1412000D01*
X2425000Y1451274D02*
X2597069D01*
X2682843Y1365500D01*
X3181800D01*
X2425000Y1351274D02*
X2561771D01*
X2425000Y1401274D02*
X2590501D01*
X2720000Y1271775D01*
X2611770Y1223229D02*
Y1301275D01*
X2561771Y1351274D02*
X2611770Y1301275D01*
X3181800Y1365500D02*
X3221800Y1325500D01*
X3081825Y1451825D02*
Y1645500D01*
X2325494Y1305317D02*
X2330174Y1300637D01*
X2319995Y1299997D02*
X2320174D01*
X2325494Y1305317D01*
X1957406Y1728365D02*
X1968229D01*
X1574363Y1750637D02*
X1575000Y1751274D01*
X2070000Y1240000D02*
X2072500Y1237500D01*
X2175000Y1951274D02*
X2177500Y1948775D01*
X1775000Y1200930D02*
X1786716Y1212646D01*
X2610448Y780000D02*
X2665448Y725000D01*
X2157071Y825000D02*
X2675000D01*
X1975000Y1951274D02*
X1975000Y1951275D01*
X1300637Y1750637D02*
X1574363D01*
X1804875Y1654876D02*
X1815000D01*
X1852646Y1212646D02*
X1880000Y1240000D01*
X2072500Y1103775D02*
X2075000Y1101274D01*
X2225000Y1855824D02*
Y1951274D01*
X1574363Y1650637D02*
X1575000Y1651274D01*
X1775000Y1101274D02*
Y1200930D01*
X2424363Y1300637D02*
X2425000Y1301275D01*
X2665448Y725000D02*
X2750000D01*
X2145503Y780000D02*
X2610448D01*
X1975000Y1825000D02*
Y1951274D01*
X2072500Y1103775D02*
Y1237500D01*
X2424363Y1700637D02*
X2425000Y1701274D01*
X1786716Y1212646D02*
X1852646D01*
X2421770Y1754504D02*
X2425000Y1751274D01*
X1575000Y1351274D02*
X1575647Y1351922D01*
X1925000Y1865000D02*
Y1951274D01*
X2330174Y1300637D02*
X2424363D01*
X1975000Y1825000D02*
X1975000Y1825000D01*
X1975000Y950503D02*
X2145503Y780000D01*
X1300000Y1750000D02*
X1300637Y1750637D01*
X1975000Y950503D02*
Y1101274D01*
X1380637Y1650637D02*
X1574363D01*
X1380000Y1650000D02*
X1380637Y1650637D01*
X2025000Y957071D02*
X2157071Y825000D01*
X1575000Y1701274D02*
X1758477D01*
X1804875Y1654876D01*
X2025000Y957071D02*
Y1101274D01*
X2049497Y620000D02*
X2512426D01*
X1825000Y844497D02*
X2049497Y620000D01*
X2796877Y620000D02*
X3207877Y1031000D01*
X2512426Y620000D02*
X2512427Y620000D01*
X2796877D01*
X3207877Y1031000D02*
X3850000D01*
X1725000Y887929D02*
X2032929Y580000D01*
X1725000Y887929D02*
Y1101274D01*
X2032929Y580000D02*
X2300000D01*
X2760014Y470000D02*
X3067014Y777000D01*
X3850000D01*
X3137446Y904000D02*
X3850000D01*
X2753446Y520000D02*
X3137446Y904000D01*
X2478404Y520000D02*
X2753446D01*
X2410000Y470000D02*
X2760014D01*
X2814005Y395000D02*
X2909965D01*
X2799006Y380000D02*
X2814005Y395000D01*
X2795574Y320000D02*
X2830574Y355000D01*
X3809000D01*
X2782437Y420000D02*
X2797437Y435000D01*
X2824939D01*
X2971740Y579300D02*
Y581800D01*
X1900001Y420000D02*
X2782437D01*
X2954240Y561800D02*
X2971740Y579300D01*
X2824939Y435000D02*
X2951740Y561800D01*
X2954240D01*
X2909965Y395000D02*
X2951740Y436775D01*
X2971740Y454275D02*
Y456775D01*
X3809000Y355000D02*
X3850000Y396000D01*
X2954240Y436775D02*
X2971740Y454275D01*
X1816721Y380000D02*
X2799006D01*
X2951740Y436775D02*
X2954240D01*
X2722500Y320000D02*
X2795574D01*
X2080412Y100000D02*
X2502500D01*
X2722500Y320000D01*
X1742179Y600955D02*
X1854046D01*
X1917089Y537912D02*
X2174060D01*
X1854046Y600955D02*
X1917089Y537912D01*
X1804794Y515207D02*
Y523379D01*
X1327000Y1526274D02*
X1348482Y1562806D01*
X1570000Y1556275D02*
X1575000Y1551275D01*
X1502574Y1556275D02*
X1570000D01*
X1486179Y1572669D02*
X1502574Y1556275D01*
X1354287Y1572669D02*
X1486179D01*
X1349776Y1565007D02*
X1354287Y1572669D01*
X1348482Y1562806D02*
X1349776Y1565007D01*
X1260787Y1447132D02*
X1266645Y1441274D01*
X1361888D01*
X1200000Y1507919D02*
X1260787Y1447132D01*
X1391327Y1470713D02*
X1421888Y1501274D01*
X1575000D01*
X2616773Y2190376D02*
X2639273Y2212876D01*
X2718974Y1963009D02*
Y2036809D01*
X2174060Y537912D02*
X2200000Y511972D01*
X3081825Y1645500D02*
Y1814650D01*
X1804794Y515207D02*
X1900001Y420000D01*
X150000Y2984701D02*
X295299D01*
X2200000Y2725000D02*
X2425000D01*
X1995000Y2520000D02*
X2200000Y2725000D01*
X457500Y2902500D02*
X570000D01*
X248299Y3111701D02*
X457500Y2902500D01*
X150000Y3111701D02*
X248299D01*
X725000Y2155000D02*
X955000D01*
X2053444Y2369027D02*
X2055253D01*
X2275000Y2149279D01*
Y1951274D02*
Y2149279D01*
X3691371Y2755127D02*
X3700000Y2746497D01*
Y2640000D02*
Y2746497D01*
X3083871Y2432626D02*
X3085284Y2434040D01*
X3192457D01*
X3193871Y2435454D01*
X2547570Y2554652D02*
Y2657571D01*
X3690000Y2851497D02*
X3691371Y2850127D01*
X3690000Y2851497D02*
Y2970000D01*
X3323871Y2463871D02*
Y2595027D01*
X3225911Y2365911D02*
X3323871Y2463871D01*
X2961371Y2402423D02*
X2997883Y2365911D01*
X3225911D01*
X2961371Y2402423D02*
Y2582627D01*
X3006371Y2627626D02*
X3083871D01*
X2961371Y2582627D02*
X3006371Y2627626D01*
X3408897Y2290000D02*
X3423871Y2275027D01*
X1900000Y180000D02*
X2000412D01*
X2080412Y100000D01*
X2340000Y300000D02*
X2350000Y310000D01*
X2200000Y180000D02*
Y260000D01*
X2240000Y300000D01*
X2446056Y552348D02*
X2478404Y520000D01*
X2300000Y580000D02*
X2410000Y470000D01*
X1660000Y300000D02*
X2240000D01*
X2340000D01*
X1825000Y844497D02*
Y1101274D01*
X2571275Y1551275D02*
X2580000Y1560000D01*
X2425000Y1551275D02*
X2571275D01*
X3083871Y2562626D02*
X3096371Y2575126D01*
X3152220D01*
X3251746Y2674652D01*
Y2852627D01*
Y2674652D02*
X3273871Y2652527D01*
Y2595027D02*
Y2652527D01*
X3083871Y2627626D02*
Y2676426D01*
X3159746Y2752301D02*
Y2852627D01*
X3083871Y2676426D02*
X3159746Y2752301D01*
X3601371Y2755127D02*
X3691371D01*
X3411716Y2750000D02*
X3475000D01*
X3373871Y2595027D02*
Y2712155D01*
X3411716Y2750000D01*
X3506771Y2781771D02*
Y2925126D01*
X3475000Y2750000D02*
X3506771Y2781771D01*
X3423871Y2275027D02*
X3485805D01*
X3761459Y1701825D02*
X3850000D01*
X3463284Y2000000D02*
X3761459Y1701825D01*
X2718974Y2212403D02*
X2721148D01*
X2732864Y2224118D01*
X2718974Y2131809D02*
Y2212403D01*
X3423871Y2155026D02*
Y2275027D01*
X3125000Y2000000D02*
X3463284D01*
X3473871Y2155026D02*
X3475000Y2153897D01*
Y2011716D02*
Y2153897D01*
X3463284Y2000000D02*
X3475000Y2011716D01*
X2725000Y2225000D02*
X2900000D01*
X3125000Y2000000D01*
X1898185Y3176815D02*
X2523185D01*
X2725000Y2975000D01*
X2616773Y2130000D02*
Y2190376D01*
X2712500Y2131300D02*
X2797500D01*
X2537500D02*
X2627500D01*
X1775784Y3299216D02*
X1898185Y3176815D01*
Y3017626D02*
Y3176815D01*
X884216Y3299216D02*
X1775784D01*
X825000Y3240000D02*
X884216Y3299216D01*
X825000Y3220000D02*
Y3240000D01*
Y3060000D02*
X940037Y2944963D01*
X967500D01*
X825000Y3060000D02*
Y3080000D01*
Y3200000D02*
Y3220000D01*
Y3200000D02*
X907500Y3117500D01*
X975000D01*
X2616773Y1971200D02*
Y2035000D01*
Y1971200D02*
X2639273Y1948700D01*
X350000Y2530593D02*
X423108Y2603701D01*
X350000Y2450000D02*
Y2530593D01*
X1100000Y2461716D02*
X1143861Y2417855D01*
X1100000Y2461716D02*
Y2520593D01*
X493108Y2476701D02*
X853141D01*
X423108Y2603701D02*
X493108D01*
Y2730701D02*
X969299D01*
X1183108Y2603701D02*
X1253108D01*
X1100000Y2520593D02*
X1183108Y2603701D01*
X1425000Y397500D02*
X1437500Y385000D01*
X1465000D01*
X1550000Y300000D01*
X1660000D01*
X1430000Y550000D02*
X1691224D01*
X1202500Y777500D02*
X1430000Y550000D01*
X1691224D02*
X1742179Y600955D01*
X1200000Y777500D02*
X1202500D01*
X1100000D02*
X1200000D01*
X3321825Y1254000D02*
Y1275500D01*
X2760001Y1021775D02*
X2775776Y1006000D01*
X2911000D01*
X2720000Y1021775D02*
X2760000D01*
Y1271775D02*
X2779725Y1291500D01*
X2933000D01*
X2911000Y1006000D02*
X2933000Y984000D01*
X2680000Y1061775D02*
X2720000Y1021775D01*
X2680000Y1061775D02*
Y1155000D01*
X2611770Y1223229D02*
X2680000Y1155000D01*
X2720000Y1271775D02*
X2760000D01*
X3321825Y1245500D02*
Y1254000D01*
X3271825Y1325500D02*
X3321825Y1275500D01*
X3221800Y1325500D02*
X3271825D01*
X3330325Y1254000D02*
X3473871D01*
X3321825Y1245500D02*
X3330325Y1254000D01*
X3081825Y1814650D02*
X3096000Y1828825D01*
X1200000Y1507919D02*
Y1526274D01*
X3251746Y2852627D02*
X3326371D01*
X3078871D02*
X3159746D01*
X2390685Y2349027D02*
X2391285Y2349626D01*
X2545870D02*
X2547570Y2351327D01*
X2683571Y2565826D02*
X2686771Y2562626D01*
X2547570Y2459652D02*
X2642370D01*
X2680345Y2497626D01*
X2547570Y2351327D02*
Y2459652D01*
X2391285Y2349626D02*
X2545870D01*
X2686771Y2562626D02*
X2823871D01*
X2680345Y2497626D02*
X2823871D01*
D11*
X1617500Y2840000D02*
D03*
X1482500D02*
D03*
X1617500Y2600000D02*
D03*
X1482500D02*
D03*
X2916865Y1700000D02*
D03*
X2781865D02*
D03*
X2402500Y910000D02*
D03*
X2537500D02*
D03*
X1567500Y1140000D02*
D03*
X1432500D02*
D03*
D12*
X1100000Y872500D02*
D03*
Y777500D02*
D03*
X1200000D02*
D03*
Y872500D02*
D03*
X3691371Y2755127D02*
D03*
Y2850127D02*
D03*
X3601371D02*
D03*
Y2755127D02*
D03*
Y3020127D02*
D03*
Y2925126D02*
D03*
X2683571Y2565826D02*
D03*
Y2660827D02*
D03*
X3506771Y3020127D02*
D03*
Y2925126D02*
D03*
X2545870Y2254626D02*
D03*
Y2349626D02*
D03*
X2547570Y2459652D02*
D03*
Y2554652D02*
D03*
X970000Y1087500D02*
D03*
Y992500D02*
D03*
X790000Y1087500D02*
D03*
Y992500D02*
D03*
X1425000Y302500D02*
D03*
Y397500D02*
D03*
X570000Y2902500D02*
D03*
Y2997500D02*
D03*
X2522713Y2036809D02*
D03*
Y2131809D02*
D03*
X2616773Y2035000D02*
D03*
Y2130000D02*
D03*
X2718974Y2036809D02*
D03*
Y2131809D02*
D03*
X2819365Y2036339D02*
D03*
Y2131339D02*
D03*
D13*
X2275000Y1101274D02*
D03*
X2225000D02*
D03*
X2175000D02*
D03*
X2125000D02*
D03*
X2075000D02*
D03*
X2025000D02*
D03*
X1975000D02*
D03*
X1925000D02*
D03*
X1875000D02*
D03*
X1825000D02*
D03*
X1775000D02*
D03*
X1725000D02*
D03*
Y1951274D02*
D03*
X1775000D02*
D03*
X1825000D02*
D03*
X1875000D02*
D03*
X1925000D02*
D03*
X1975000D02*
D03*
X2025000D02*
D03*
X2075000D02*
D03*
X2125000D02*
D03*
X2175000D02*
D03*
X2225000D02*
D03*
X2275000D02*
D03*
D14*
X1575000Y1251274D02*
D03*
Y1301275D02*
D03*
Y1351274D02*
D03*
Y1401274D02*
D03*
Y1451274D02*
D03*
Y1501274D02*
D03*
Y1551275D02*
D03*
Y1601274D02*
D03*
Y1651274D02*
D03*
Y1701274D02*
D03*
Y1751274D02*
D03*
Y1801275D02*
D03*
X2425000D02*
D03*
Y1751274D02*
D03*
Y1701274D02*
D03*
Y1651274D02*
D03*
Y1601274D02*
D03*
Y1551275D02*
D03*
Y1501274D02*
D03*
Y1451274D02*
D03*
Y1401274D02*
D03*
Y1351274D02*
D03*
Y1301275D02*
D03*
Y1251274D02*
D03*
D15*
X493108Y2730701D02*
D03*
X1253108Y2349700D02*
D03*
Y2730701D02*
D03*
Y2476701D02*
D03*
Y2603701D02*
D03*
X493108Y2476701D02*
D03*
Y2349700D02*
D03*
Y2603701D02*
D03*
D16*
X2340000Y700000D02*
D03*
X1660000D02*
D03*
Y300000D02*
D03*
X2340000D02*
D03*
D17*
X1484000Y2720000D02*
D03*
X1576000D02*
D03*
X2817570Y2743326D02*
D03*
X2909571D02*
D03*
X3251746Y2852627D02*
D03*
X3159746D02*
D03*
X821000Y2950000D02*
D03*
X729000D02*
D03*
X1071000Y3225000D02*
D03*
X979000D02*
D03*
X3004000Y1828825D02*
D03*
X3096000D02*
D03*
X2476000Y1036274D02*
D03*
X2384000D02*
D03*
X2454000Y1160000D02*
D03*
X2546000D02*
D03*
D18*
X825000Y3080000D02*
D03*
X775000D02*
D03*
X725000D02*
D03*
Y3220000D02*
D03*
X775000D02*
D03*
X825000D02*
D03*
D19*
X1025000Y3025000D02*
D03*
D20*
X1075000Y2932500D02*
D03*
X975000D02*
D03*
Y3117500D02*
D03*
X1075000D02*
D03*
D21*
X2203185Y2886626D02*
D03*
Y2978627D02*
D03*
X3596173Y2591228D02*
D03*
Y2499228D02*
D03*
X2933000Y1199500D02*
D03*
Y1291500D02*
D03*
X2780000Y1566000D02*
D03*
Y1474000D02*
D03*
X2933000Y1076000D02*
D03*
Y984000D02*
D03*
X3473871Y1346000D02*
D03*
Y1254000D02*
D03*
X2895900Y1474000D02*
D03*
Y1566000D02*
D03*
X1620000Y2064800D02*
D03*
Y1972799D02*
D03*
D22*
X2088185Y2887626D02*
D03*
Y2952627D02*
D03*
Y3017626D02*
D03*
X1898185D02*
D03*
Y2952627D02*
D03*
Y2887626D02*
D03*
D23*
X1993185Y2952627D02*
D03*
D24*
X3083871Y2627626D02*
D03*
Y2562626D02*
D03*
X2823871Y2432626D02*
D03*
Y2627626D02*
D03*
Y2562626D02*
D03*
Y2497626D02*
D03*
X3083871Y2432626D02*
D03*
Y2497626D02*
D03*
D25*
X2983871Y2852627D02*
D03*
X3078871D02*
D03*
X3421371D02*
D03*
X3326371D02*
D03*
X617500Y1567500D02*
D03*
X712500D02*
D03*
X2675000Y1560000D02*
D03*
X2580000D02*
D03*
X2971740Y581800D02*
D03*
X3066740D02*
D03*
X2971740Y456775D02*
D03*
X3066740D02*
D03*
D26*
X3136371Y2992627D02*
D03*
X3306371D02*
D03*
D27*
X3473871Y2155026D02*
D03*
X3273871D02*
D03*
X3323871D02*
D03*
X3373871D02*
D03*
X3423871D02*
D03*
X3473871Y2595027D02*
D03*
X3423871D02*
D03*
X3373871D02*
D03*
X3323871D02*
D03*
X3273871D02*
D03*
D28*
X2145685Y2444027D02*
D03*
X2390685Y2539026D02*
D03*
Y2349027D02*
D03*
D29*
X3187000Y190000D02*
D03*
X2933000D02*
D03*
D30*
X3321825Y1245500D02*
D03*
X3081825Y1645500D02*
D03*
Y1245500D02*
D03*
X3321825Y1645500D02*
D03*
D31*
X621500Y1717500D02*
D03*
X948500D02*
D03*
D32*
X871200Y427500D02*
D03*
X936200D02*
D03*
X1001200D02*
D03*
X806200D02*
D03*
X741200D02*
D03*
D33*
X471200Y160000D02*
D03*
X1271200D02*
D03*
D34*
X805000Y680000D02*
D03*
X870000D02*
D03*
X935000D02*
D03*
Y865000D02*
D03*
X805000D02*
D03*
D35*
X3439425Y569400D02*
D03*
Y469400D02*
D03*
X3199425D02*
D03*
Y569400D02*
D03*
D36*
X330000Y1334395D02*
D03*
Y1007395D02*
D03*
X550000D02*
D03*
Y1334395D02*
D03*
D37*
X630000Y1910000D02*
D03*
X820000D02*
D03*
X725000Y2155000D02*
D03*
X435000Y1747500D02*
D03*
X245000D02*
D03*
X340000Y1502500D02*
D03*
D38*
X245200Y1910025D02*
D03*
Y2045025D02*
D03*
X435200Y1910025D02*
D03*
Y2045025D02*
D03*
X1480000Y1981300D02*
D03*
Y2116300D02*
D03*
D39*
X2760000Y1271775D02*
D03*
Y1021775D02*
D03*
D40*
X2157071Y1190000D02*
X2175000Y1172072D01*
Y1007574D02*
Y1172072D01*
X3193871Y2153065D02*
X3273871D01*
Y2155026D01*
Y2067813D02*
Y2153065D01*
Y2067813D02*
X3287972Y2053711D01*
X3306297D01*
X3323871Y2071285D02*
Y2155026D01*
X3306297Y2053711D02*
X3323871Y2071285D01*
X2157426Y990000D02*
X2175000Y1007574D01*
X2140000Y990000D02*
X2157426D01*
X2125000Y1005000D02*
Y1101274D01*
Y1005000D02*
X2140000Y990000D01*
X1925000Y1019274D02*
Y1101274D01*
X1910000Y1004274D02*
X1925000Y1019274D01*
X1892574Y1004274D02*
X1910000D01*
X1875000Y1021848D02*
Y1101274D01*
Y1021848D02*
X1892574Y1004274D01*
X2916865Y1700000D02*
Y1705000D01*
X2886865Y1735000D02*
X2916865Y1705000D01*
X2886006Y1735000D02*
X2886865D01*
X2861865Y1759141D02*
Y1777423D01*
Y1759141D02*
X2886006Y1735000D01*
X2829994Y1809294D02*
X2861865Y1777423D01*
X2829994Y1809294D02*
Y1809996D01*
X2615676Y1738324D02*
X2654000Y1700000D01*
X2781865D01*
X2850000Y1927937D02*
Y1942562D01*
X2783398Y1861334D02*
X2850000Y1927937D01*
X2619474Y1861334D02*
X2783398D01*
X2522713Y1958096D02*
X2619474Y1861334D01*
X2522713Y1958096D02*
Y2036299D01*
X2819365Y2036339D02*
X2821865D01*
X2834365Y2023839D01*
Y2021339D02*
Y2023839D01*
Y2021339D02*
X2850000Y2005704D01*
X2522713Y2036299D02*
X2537500D01*
X2443791D02*
X2522713D01*
Y2036809D01*
X2850000Y1942562D02*
Y2005704D01*
X3711912Y2454585D02*
Y2454585D01*
X3667270Y2499228D02*
X3711912Y2454585D01*
X3596173Y2499228D02*
X3667270D01*
X2545870Y2254626D02*
X2558371Y2267127D01*
X2570368D01*
X2666391Y2363149D01*
Y2364177D01*
X2823871Y2377027D02*
Y2432626D01*
Y2377027D02*
X2836721Y2364177D01*
X1694538Y2059326D02*
X1741447D01*
X1693784Y2058572D02*
X1694538Y2059326D01*
X1741447D02*
X1775000Y2025773D01*
X1668568Y1301275D02*
X1699843Y1270000D01*
X1700000D01*
X1575000Y1301275D02*
X1668568D01*
X1620000Y2064800D02*
Y2130865D01*
X1380000Y2113799D02*
X1382500Y2116300D01*
X1480000D01*
X878476Y2910741D02*
X884216Y2905001D01*
X804000Y2967000D02*
X860259Y2910741D01*
X878476D01*
X1075000Y3006552D02*
X1093448Y3025000D01*
X1161895D01*
X1075000Y2932500D02*
Y3006552D01*
X1775000Y1951274D02*
Y2025773D01*
X3473871Y2591228D02*
X3596173D01*
X2607591Y1645500D02*
X2630000D01*
X2662500Y1613000D01*
X2503774Y1651274D02*
X2590824Y1738324D01*
X2662500Y1572500D02*
Y1613000D01*
X2590824Y1738324D02*
X2615676D01*
X2662500Y1572500D02*
X2675000Y1560000D01*
X2425000Y1651274D02*
X2503774D01*
X2293274Y1601274D02*
X2425000D01*
X2292456Y1600456D02*
X2293274Y1601274D01*
X2895900Y1474000D02*
X2899900Y1478000D01*
X2976000D02*
X2980000Y1482000D01*
X2899900Y1478000D02*
X2976000D01*
X2379995Y1149998D02*
X2443998D01*
X2454000Y1160000D01*
X2157071Y1190000D02*
Y1233340D01*
X2160000Y1236269D01*
X2225000Y1206274D02*
X2255000Y1236274D01*
Y1240000D01*
X1875000Y1951274D02*
Y2065000D01*
X1825000Y1951274D02*
Y2065000D01*
X1925000Y1175772D02*
X1968229Y1219001D01*
X1825000Y2065000D02*
X1850000Y2090000D01*
X1875000Y2065000D01*
X1925000Y1101274D02*
Y1175772D01*
X2225000Y1101274D02*
Y1206274D01*
X3596173Y2591228D02*
Y2660827D01*
X3473871Y2591228D02*
Y2595027D01*
X804000Y2967000D02*
Y3003574D01*
X777500Y3030074D02*
X804000Y3003574D01*
X777500Y3030074D02*
Y3077500D01*
X775000Y3080000D02*
X777500Y3077500D01*
X1071000Y3225000D02*
X1161895D01*
X1073000Y3119500D02*
X1075000Y3117500D01*
X1073000Y3119500D02*
Y3223000D01*
X1071000Y3225000D02*
X1073000Y3223000D01*
X2850000Y1942562D02*
X3241134D01*
X3735871Y1447825D02*
X3850000D01*
X3241134Y1942562D02*
X3735871Y1447825D01*
X2330811Y2149279D02*
Y2203566D01*
X2252251Y2282127D02*
X2330811Y2203566D01*
Y2149279D02*
X2443791Y2036299D01*
X3439425Y469400D02*
X3440026Y470000D01*
X3513934D01*
X3563934Y520000D02*
X3570000D01*
X3513934Y470000D02*
X3563934Y520000D01*
X3439425Y569400D02*
X3454425Y554400D01*
X3535600D01*
X3570000Y520000D01*
X2546000Y1160000D02*
X2606000Y1100000D01*
X2607500D01*
X2340000Y700000D02*
X2561771D01*
X2300000Y910000D02*
X2402500D01*
X1438500Y700000D02*
X1660000D01*
X775000Y3220000D02*
Y3299216D01*
X725000Y3060000D02*
Y3080000D01*
X677292Y3012292D02*
X725000Y3060000D01*
X645740Y3012292D02*
X677292D01*
X640000Y3006552D02*
X645740Y3012292D01*
X678188Y3000812D02*
X729000Y2950000D01*
X570000Y2997500D02*
Y3065000D01*
X907500Y3225000D02*
X979000D01*
X1993185Y2952627D02*
X2088185D01*
X2240000Y2582212D02*
X2283185Y2539026D01*
X2240000Y2582212D02*
Y2585126D01*
X2283185Y2539026D02*
X2390685D01*
X3423871Y2475127D02*
Y2595027D01*
X3423871Y2475126D02*
X3423871Y2475127D01*
X3003413Y1829412D02*
X3004000Y1828825D01*
X2930587Y1829412D02*
X3003413D01*
X2930000Y1830000D02*
X2930587Y1829412D01*
X3321825Y1645500D02*
Y1675500D01*
X3245740Y1751585D02*
X3321825Y1675500D01*
X3245740Y1751585D02*
Y1794260D01*
X3240000Y1800000D02*
X3245740Y1794260D01*
X2537500Y910000D02*
X2630000D01*
X1698568Y2840000D02*
X1728568Y2810000D01*
X1730000D01*
X1617500Y2840000D02*
X1698568D01*
X1645000Y2720000D02*
X1650000Y2725000D01*
X1576000Y2720000D02*
X1645000D01*
X340000Y2350000D02*
X340300Y2349700D01*
X493108D01*
X1700402Y2600000D02*
X1719260Y2618858D01*
Y2649260D02*
X1725000Y2655000D01*
X1719260Y2618858D02*
Y2649260D01*
X1617500Y2600000D02*
X1700402D01*
X245200Y2045025D02*
Y2144800D01*
X240000Y2150000D02*
X245200Y2144800D01*
X435200Y2045025D02*
X440000Y2049825D01*
Y2150000D01*
X433108Y2156892D02*
X440000Y2150000D01*
X1271200Y160000D02*
X1281200Y150000D01*
X1425000D01*
Y302500D01*
X1201250Y873750D02*
X1298750D01*
X1300000Y875000D01*
X1200000Y872500D02*
X1201250Y873750D01*
X872500Y772500D02*
X875000Y775000D01*
X872500Y682500D02*
Y772500D01*
X870000Y680000D02*
X872500Y682500D01*
X1100000Y872500D02*
Y950000D01*
X730000Y780000D02*
Y932500D01*
Y780000D02*
X805000Y705000D01*
Y680000D02*
X806200Y678800D01*
X805000Y680000D02*
Y705000D01*
X730000Y932500D02*
X790000Y992500D01*
X810000Y892500D02*
X857426D01*
X869260Y944260D02*
X875000Y950000D01*
X869260Y904333D02*
Y944260D01*
X857426Y892500D02*
X869260Y904333D01*
X805000Y865000D02*
Y887500D01*
X810000Y892500D01*
X2089185Y2886626D02*
X2203185D01*
X3601371Y2850127D02*
Y2925126D01*
X3566371Y3239427D02*
X3601371Y3204427D01*
X2203185Y2978627D02*
Y3072627D01*
X3601371Y3020127D02*
Y3204427D01*
X2088185Y2887626D02*
X2089185Y2886626D01*
X2203185D02*
X2283185D01*
X2088185Y3017626D02*
Y3072627D01*
X2909571Y2743326D02*
X2972370D01*
X3506771Y3020127D02*
X3601371D01*
X2088185Y2952627D02*
Y3017626D01*
X1432500Y1050000D02*
Y1140000D01*
X1432500Y1050000D02*
X1432500Y1050000D01*
X2780000Y1474000D02*
X2895900D01*
X2476000Y1036274D02*
X2537500Y974774D01*
Y910000D02*
Y974774D01*
X806200Y427500D02*
Y678800D01*
X871200Y427500D02*
Y551200D01*
X970000Y992500D02*
X1001200Y961300D01*
Y746200D02*
Y961300D01*
X935000Y680000D02*
X1001200Y746200D01*
X935000Y615000D02*
Y680000D01*
X871200Y551200D02*
X935000Y615000D01*
X2546000Y1160000D02*
Y1224000D01*
X2518726Y1251274D02*
X2546000Y1224000D01*
X2425000Y1251274D02*
X2518726D01*
X2275000Y1101274D02*
X2319000D01*
X2384000Y1036274D01*
Y928500D02*
Y1036274D01*
Y928500D02*
X2402500Y910000D01*
X1641525Y1951274D02*
X1725000D01*
X1620000Y1972799D02*
X1641525Y1951274D01*
X1488500Y1972799D02*
X1620000D01*
X1480000Y1981300D02*
X1488500Y1972799D01*
X1480000Y1890000D02*
Y1981300D01*
X1567500Y1140000D02*
Y1243774D01*
X1575000Y1251274D01*
X1567500Y1050000D02*
Y1140000D01*
X3079140Y569400D02*
X3199425D01*
X3066740Y581800D02*
X3079140Y569400D01*
X3079365Y469400D02*
X3199425D01*
X3066740Y456775D02*
X3079365Y469400D01*
X2780000Y1566000D02*
Y1652500D01*
X2772500Y1660000D02*
X2780000Y1652500D01*
X2895900Y1648400D02*
X2907500Y1660000D01*
X2895900Y1566000D02*
Y1648400D01*
D41*
X2145000Y1459670D02*
Y1586274D01*
Y1459670D02*
X2160000Y1444670D01*
X1968229Y1219001D02*
Y1586274D01*
X2160000Y1236269D02*
Y1444670D01*
X319999Y1609997D02*
X328874D01*
X330784Y1608087D01*
Y1519216D02*
Y1608087D01*
X2817570Y2743326D02*
X2823370Y2749126D01*
Y2825000D01*
X966000Y1700000D02*
X1039641D01*
X948500Y1717500D02*
X966000Y1700000D01*
X3081825Y1101825D02*
Y1234500D01*
X2933000Y1199500D02*
X3046825D01*
X3081825Y1234500D01*
Y1245500D01*
X2933000Y1076000D02*
X3053294D01*
X3080000Y1100000D02*
X3081825Y1101825D01*
X406200Y225000D02*
X471200Y160000D01*
X406200Y225000D02*
Y373800D01*
X340000Y440000D02*
X406200Y373800D01*
X595000Y2155000D02*
X725000D01*
X592500Y2157500D02*
X595000Y2155000D01*
X820000Y1890000D02*
Y1910000D01*
Y1890000D02*
X928000Y1782000D01*
Y1738000D02*
Y1782000D01*
Y1738000D02*
X948500Y1717500D01*
X712500Y1567500D02*
X787500D01*
X790000Y1570000D01*
X619500Y1715500D02*
X621500Y1717500D01*
X619500Y1569500D02*
Y1715500D01*
X617500Y1567500D02*
X619500Y1569500D01*
X621500Y1717500D02*
X625750Y1721750D01*
Y1905750D01*
X630000Y1910000D01*
X435000Y1747500D02*
X601000D01*
X330784Y1519216D02*
X347500Y1502500D01*
X340000D02*
X347500D01*
X314500Y1334395D02*
X330000D01*
X245000Y1403895D02*
X314500Y1334395D01*
X245000Y1403895D02*
Y1747500D01*
X330000Y1007395D02*
X345500D01*
X477895Y875000D01*
X650000D01*
X435100Y1909925D02*
X435200Y1910025D01*
X435100Y1747600D02*
Y1909925D01*
X435000Y1747500D02*
X435100Y1747600D01*
X245000Y1747500D02*
X245100Y1747600D01*
Y1909926D01*
X245200Y1910025D01*
X330000Y1334395D02*
X550000D01*
X1483250Y2719250D02*
X1484000Y2720000D01*
X1483250Y2600750D02*
Y2719250D01*
X1482500Y2600000D02*
X1483250Y2600750D01*
X1253108Y2730701D02*
X1473299D01*
X1484000Y2720000D01*
X650000Y755000D02*
Y761568D01*
Y875000D01*
X741200Y427500D02*
Y558800D01*
X725000Y575000D02*
X741200Y558800D01*
X650000Y761568D02*
X725000Y686568D01*
Y575000D02*
Y686568D01*
X2683571Y2660827D02*
Y2688527D01*
X2817570Y2743326D02*
X2823871Y2737026D01*
Y2650127D02*
Y2737026D01*
X2738370Y2743326D02*
X2817570D01*
X2683571Y2688527D02*
X2738370Y2743326D01*
X1000000Y566200D02*
X1001200Y565000D01*
Y427500D02*
Y565000D01*
D42*
X1323045Y1214779D02*
X1409017Y1300751D01*
X925000Y1122647D02*
Y1172352D01*
X930147Y1304778D02*
X1285766D01*
X960147Y1087500D02*
X970000D01*
X967426Y1214779D02*
X1323045D01*
X835000Y1122647D02*
Y1209631D01*
X790000Y1087500D02*
X799853D01*
X1362261Y1381274D02*
X1383181D01*
X925000Y1122647D02*
X960147Y1087500D01*
X835000Y1209631D02*
X930147Y1304778D01*
X1285766D02*
X1362261Y1381274D01*
X925000Y1172352D02*
X967426Y1214779D01*
X799853Y1087500D02*
X835000Y1122647D01*
D43*
X1852509Y2127509D02*
X1853444D01*
X1850000Y2090000D02*
Y2125000D01*
X1852509Y2127509D01*
X1475000Y2850000D02*
Y2955126D01*
X550000Y1007395D02*
X552605Y1010000D01*
X670000D01*
X1473299Y2848299D02*
X1475000Y2850000D01*
X1473299Y2730701D02*
Y2848299D01*
X550000Y1007395D02*
X558000Y999395D01*
D44*
X3058371Y3070627D02*
X3136371Y2992627D01*
X3187000Y190000D02*
X3380000D01*
X2750000Y200000D02*
X2923000D01*
X2933000Y190000D01*
X3058371Y3070627D02*
Y3239427D01*
X3306371Y3233427D02*
X3312371Y3239427D01*
X3306371Y2992627D02*
Y3233427D01*
D45*
X3750000Y2200000D02*
D03*
X250000Y700000D02*
D03*
D46*
X150000Y2476701D02*
D03*
X3850000Y1447825D02*
D03*
Y396000D02*
D03*
D47*
X150000Y2603701D02*
D03*
Y2730701D02*
D03*
Y2857701D02*
D03*
Y2984701D02*
D03*
Y3111701D02*
D03*
X3850000Y1574825D02*
D03*
Y1701825D02*
D03*
Y1828825D02*
D03*
Y523000D02*
D03*
Y650000D02*
D03*
Y777000D02*
D03*
Y904000D02*
D03*
Y1031000D02*
D03*
X1327000Y1526274D02*
D03*
X1200000D02*
D03*
D48*
X3312371Y3239427D02*
D03*
X3058371D02*
D03*
X2804371D02*
D03*
D49*
X3566371D02*
D03*
D50*
X1073000Y1526274D02*
D03*
D51*
X3193871Y2153065D02*
D03*
X2829994Y1809996D02*
D03*
X2480000Y180000D02*
D03*
X3690000Y1610000D02*
D03*
X592500Y2157500D02*
D03*
X2145000Y1586274D02*
D03*
X2277138Y1694504D02*
D03*
X3711912Y2454585D02*
D03*
X2666391Y2364177D02*
D03*
X2547592Y2660000D02*
D03*
X2836721Y2364177D02*
D03*
X2000000Y2270148D02*
D03*
X1693784Y2058572D02*
D03*
X1853444Y2127509D02*
D03*
X1694752Y1799258D02*
D03*
X1881618Y1821618D02*
D03*
X1695114Y1360607D02*
D03*
X1700000Y1270000D02*
D03*
X1705783Y483915D02*
D03*
X1620000Y2130865D02*
D03*
X1740000Y2160000D02*
D03*
X1380000Y2113799D02*
D03*
X884216Y2905001D02*
D03*
X1161895Y3025000D02*
D03*
X2639273Y2223700D02*
D03*
X2756474Y1926334D02*
D03*
X2429995Y1889996D02*
D03*
X2175624Y1775625D02*
D03*
X2250000Y1820000D02*
D03*
X2607591Y1645500D02*
D03*
X2292456Y1600456D02*
D03*
X2980000Y1482000D02*
D03*
X2319995Y1299997D02*
D03*
X2379995Y1149998D02*
D03*
X2675000Y825000D02*
D03*
X1975000Y1825000D02*
D03*
X2750000Y725000D02*
D03*
X1300000Y1750000D02*
D03*
X1815000Y1654876D02*
D03*
X1968229Y1586274D02*
D03*
X2300000Y1500000D02*
D03*
X1880000Y1240000D02*
D03*
X1957406Y1728365D02*
D03*
X2255000Y1240000D02*
D03*
X1380000Y1650000D02*
D03*
X2070000Y1240000D02*
D03*
X1804794Y523379D02*
D03*
X319999Y1609997D02*
D03*
X2823370Y2825000D02*
D03*
X3596173Y2660827D02*
D03*
X1161895Y3225000D02*
D03*
X2283185Y2886626D02*
D03*
X2252251Y2282127D02*
D03*
X3570000Y520000D02*
D03*
X2607500Y1100000D02*
D03*
X2561771Y700000D02*
D03*
X2300000Y910000D02*
D03*
X2200000Y511972D02*
D03*
X1438500Y700000D02*
D03*
X1567500Y1050000D02*
D03*
X1039641Y1700000D02*
D03*
X775000Y3299216D02*
D03*
X640000Y3006552D02*
D03*
X570000Y3065000D02*
D03*
X907500Y3225000D02*
D03*
X1432500Y1050000D02*
D03*
X2203185Y3072627D02*
D03*
X2088185D02*
D03*
X2240000Y2585126D02*
D03*
X2972370Y2743326D02*
D03*
X3423871Y2475126D02*
D03*
X2930000Y1830000D02*
D03*
X3240000Y1800000D02*
D03*
X2000000Y836197D02*
D03*
X1820000Y160000D02*
D03*
X2630000Y910000D02*
D03*
X3080000Y1100000D02*
D03*
X3380000Y190000D02*
D03*
X340000Y440000D02*
D03*
X1000000Y566200D02*
D03*
X1340000Y2910000D02*
D03*
X1730000Y2810000D02*
D03*
X2000000Y2665333D02*
D03*
X1475000Y2955126D02*
D03*
X1650000Y2725000D02*
D03*
X1480000Y1890000D02*
D03*
X790000Y1570000D02*
D03*
X670000Y1010000D02*
D03*
X340000Y2350000D02*
D03*
X3700000Y2640000D02*
D03*
X3193871Y2435454D02*
D03*
X3690000Y2970000D02*
D03*
X2200000Y180000D02*
D03*
X2100000Y210000D02*
D03*
X1900000Y180000D02*
D03*
X2446056Y552348D02*
D03*
X2732864Y2224118D02*
D03*
X2650000Y2825000D02*
D03*
X2725000Y2975000D02*
D03*
X2639273Y1948700D02*
D03*
X2425000Y2725000D02*
D03*
X1725000Y2655000D02*
D03*
X240000Y2150000D02*
D03*
X440000D02*
D03*
X1425000Y150000D02*
D03*
X2750000Y200000D02*
D03*
X1300000Y875000D02*
D03*
X875000Y775000D02*
D03*
X1100000Y950000D02*
D03*
X650000Y875000D02*
D03*
X875000Y950000D02*
D03*
%TF.MD5,8a639a43f26ce0a71448c686c853f08f*%
M02*
