%TF.GenerationSoftware,Altium Limited,Altium Designer,20.1.14 (287)*%
G04 Layer_Color=128*
%FSLAX45Y45*%
%MOMM*%
%TF.SameCoordinates,D919A4BC-3EF6-4BA5-801F-EB9C9E4D33F9*%
%TF.FilePolarity,Positive*%
%TF.FileFunction,Drillmap*%
%TF.Part,Single*%
G01*
G75*
%TA.AperFunction,NonConductor*%
%ADD116C,0.12700*%
D116*
X3635000Y2200000D02*
X3865000D01*
X3750000Y2085000D02*
Y2315000D01*
X135000Y700000D02*
X365000D01*
X250000Y585000D02*
Y815000D01*
X115000Y2476701D02*
X185000D01*
X150000Y2441701D02*
Y2511701D01*
X115000Y2603701D02*
X185000D01*
X150000Y2568701D02*
Y2638701D01*
X115000Y2730701D02*
X185000D01*
X150000Y2695701D02*
Y2765701D01*
X115000Y2857701D02*
X185000D01*
X150000Y2822701D02*
Y2892701D01*
X115000Y2984701D02*
X185000D01*
X150000Y2949701D02*
Y3019701D01*
X115000Y3111701D02*
X185000D01*
X150000Y3076701D02*
Y3146701D01*
X3815000Y1447825D02*
X3885000D01*
X3850000Y1412825D02*
Y1482825D01*
X3815000Y1574825D02*
X3885000D01*
X3850000Y1539825D02*
Y1609825D01*
X3815000Y1701825D02*
X3885000D01*
X3850000Y1666825D02*
Y1736825D01*
X3815000Y1828825D02*
X3885000D01*
X3850000Y1793825D02*
Y1863825D01*
X3815000Y396000D02*
X3885000D01*
X3850000Y361000D02*
Y431000D01*
X3815000Y523000D02*
X3885000D01*
X3850000Y488000D02*
Y558000D01*
X3815000Y650000D02*
X3885000D01*
X3850000Y615000D02*
Y685000D01*
X3815000Y777000D02*
X3885000D01*
X3850000Y742000D02*
Y812000D01*
X3815000Y904000D02*
X3885000D01*
X3850000Y869000D02*
Y939000D01*
X3815000Y1031000D02*
X3885000D01*
X3850000Y996000D02*
Y1066000D01*
X3262371Y3239427D02*
X3362371D01*
X3312371Y3189427D02*
Y3289426D01*
X3008371Y3239427D02*
X3108371D01*
X3058371Y3189427D02*
Y3289426D01*
X2754371Y3239427D02*
X2854371D01*
X2804371Y3189427D02*
Y3289426D01*
X3516371Y3239427D02*
X3616371D01*
X3566371Y3189427D02*
Y3289426D01*
X1292000Y1526274D02*
X1362000D01*
X1327000Y1491274D02*
Y1561274D01*
X1165000Y1526274D02*
X1235000D01*
X1200000Y1491274D02*
Y1561274D01*
X1038000Y1526274D02*
X1108000D01*
X1073000Y1491274D02*
Y1561274D01*
X3178871Y2153065D02*
X3208871D01*
X3193871Y2138065D02*
Y2168064D01*
X2814994Y1809996D02*
X2844994D01*
X2829994Y1794996D02*
Y1824996D01*
X2465000Y180000D02*
X2495000D01*
X2480000Y165000D02*
Y195000D01*
X3675000Y1610000D02*
X3705000D01*
X3690000Y1595000D02*
Y1625000D01*
X577500Y2157500D02*
X607500D01*
X592500Y2142500D02*
Y2172500D01*
X2130000Y1586274D02*
X2160000D01*
X2145000Y1571274D02*
Y1601274D01*
X2262138Y1694504D02*
X2292138D01*
X2277138Y1679504D02*
Y1709504D01*
X3696912Y2454585D02*
X3726912D01*
X3711912Y2439585D02*
Y2469585D01*
X2651391Y2364177D02*
X2681391D01*
X2666391Y2349177D02*
Y2379177D01*
X2532592Y2660000D02*
X2562592D01*
X2547592Y2645000D02*
Y2675000D01*
X2821721Y2364177D02*
X2851721D01*
X2836721Y2349177D02*
Y2379177D01*
X1985000Y2270148D02*
X2015000D01*
X2000000Y2255148D02*
Y2285148D01*
X1678784Y2058572D02*
X1708783D01*
X1693784Y2043572D02*
Y2073572D01*
X1838444Y2127509D02*
X1868444D01*
X1853444Y2112509D02*
Y2142509D01*
X1679752Y1799258D02*
X1709752D01*
X1694752Y1784258D02*
Y1814258D01*
X1866618Y1821618D02*
X1896618D01*
X1881618Y1806618D02*
Y1836618D01*
X1680114Y1360607D02*
X1710114D01*
X1695114Y1345607D02*
Y1375607D01*
X1685000Y1270000D02*
X1715000D01*
X1700000Y1255000D02*
Y1285000D01*
X1690784Y483915D02*
X1720783D01*
X1705783Y468915D02*
Y498915D01*
X1605000Y2130865D02*
X1635000D01*
X1620000Y2115865D02*
Y2145865D01*
X1725000Y2160000D02*
X1755000D01*
X1740000Y2145000D02*
Y2175000D01*
X1365000Y2113799D02*
X1395000D01*
X1380000Y2098799D02*
Y2128799D01*
X869216Y2905001D02*
X899216D01*
X884216Y2890001D02*
Y2920001D01*
X1146895Y3025000D02*
X1176895D01*
X1161895Y3010000D02*
Y3040000D01*
X2624273Y2223700D02*
X2654273D01*
X2639273Y2208700D02*
Y2238700D01*
X2741474Y1926334D02*
X2771474D01*
X2756474Y1911334D02*
Y1941334D01*
X2414995Y1889996D02*
X2444995D01*
X2429995Y1874996D02*
Y1904996D01*
X2160624Y1775625D02*
X2190624D01*
X2175624Y1760625D02*
Y1790625D01*
X2235000Y1820000D02*
X2265000D01*
X2250000Y1805000D02*
Y1835000D01*
X2592591Y1645500D02*
X2622591D01*
X2607591Y1630500D02*
Y1660500D01*
X2277456Y1600456D02*
X2307456D01*
X2292456Y1585456D02*
Y1615456D01*
X2965000Y1482000D02*
X2995000D01*
X2980000Y1467000D02*
Y1497000D01*
X2304995Y1299997D02*
X2334995D01*
X2319995Y1284997D02*
Y1314997D01*
X2364995Y1149998D02*
X2394995D01*
X2379995Y1134998D02*
Y1164998D01*
X2660000Y825000D02*
X2690000D01*
X2675000Y810000D02*
Y840000D01*
X1960000Y1825000D02*
X1990000D01*
X1975000Y1810000D02*
Y1840000D01*
X2735000Y725000D02*
X2765000D01*
X2750000Y710000D02*
Y740000D01*
X1285000Y1750000D02*
X1315000D01*
X1300000Y1735000D02*
Y1765000D01*
X1800000Y1654876D02*
X1830000D01*
X1815000Y1639876D02*
Y1669876D01*
X1953230Y1586274D02*
X1983229D01*
X1968229Y1571274D02*
Y1601274D01*
X2285000Y1500000D02*
X2315000D01*
X2300000Y1485000D02*
Y1515000D01*
X1865000Y1240000D02*
X1895000D01*
X1880000Y1225000D02*
Y1255000D01*
X1942406Y1728365D02*
X1972406D01*
X1957406Y1713365D02*
Y1743365D01*
X2240000Y1240000D02*
X2270000D01*
X2255000Y1225000D02*
Y1255000D01*
X1365000Y1650000D02*
X1395000D01*
X1380000Y1635000D02*
Y1665000D01*
X2055000Y1240000D02*
X2085000D01*
X2070000Y1225000D02*
Y1255000D01*
X1789794Y523379D02*
X1819794D01*
X1804794Y508379D02*
Y538379D01*
X304999Y1609997D02*
X334999D01*
X319999Y1594997D02*
Y1624997D01*
X2808370Y2825000D02*
X2838370D01*
X2823370Y2810000D02*
Y2840000D01*
X3581173Y2660827D02*
X3611173D01*
X3596173Y2645827D02*
Y2675826D01*
X1146895Y3225000D02*
X1176895D01*
X1161895Y3210000D02*
Y3240000D01*
X2268185Y2886626D02*
X2298185D01*
X2283185Y2871626D02*
Y2901626D01*
X2237251Y2282127D02*
X2267251D01*
X2252251Y2267127D02*
Y2297126D01*
X3555000Y520000D02*
X3585000D01*
X3570000Y505000D02*
Y535000D01*
X2592500Y1100000D02*
X2622500D01*
X2607500Y1085000D02*
Y1115000D01*
X2546771Y700000D02*
X2576771D01*
X2561771Y685000D02*
Y715000D01*
X2285000Y910000D02*
X2315000D01*
X2300000Y895000D02*
Y925000D01*
X2185000Y511972D02*
X2215000D01*
X2200000Y496972D02*
Y526972D01*
X1423500Y700000D02*
X1453500D01*
X1438500Y685000D02*
Y715000D01*
X1552500Y1050000D02*
X1582500D01*
X1567500Y1035000D02*
Y1065000D01*
X1024641Y1700000D02*
X1054641D01*
X1039641Y1685000D02*
Y1715000D01*
X760000Y3299216D02*
X790000D01*
X775000Y3284216D02*
Y3314216D01*
X625000Y3006552D02*
X655000D01*
X640000Y2991552D02*
Y3021552D01*
X555000Y3065000D02*
X585000D01*
X570000Y3050000D02*
Y3080000D01*
X892500Y3225000D02*
X922500D01*
X907500Y3210000D02*
Y3240000D01*
X1417500Y1050000D02*
X1447500D01*
X1432500Y1035000D02*
Y1065000D01*
X2188185Y3072627D02*
X2218185D01*
X2203185Y3057627D02*
Y3087627D01*
X2073185Y3072627D02*
X2103185D01*
X2088185Y3057627D02*
Y3087627D01*
X2225000Y2585126D02*
X2255000D01*
X2240000Y2570126D02*
Y2600126D01*
X2957370Y2743326D02*
X2987370D01*
X2972370Y2728327D02*
Y2758326D01*
X3408871Y2475126D02*
X3438871D01*
X3423871Y2460126D02*
Y2490126D01*
X2915000Y1830000D02*
X2945000D01*
X2930000Y1815000D02*
Y1845000D01*
X3225000Y1800000D02*
X3255000D01*
X3240000Y1785000D02*
Y1815000D01*
X1985000Y836197D02*
X2015000D01*
X2000000Y821197D02*
Y851197D01*
X1805000Y160000D02*
X1835000D01*
X1820000Y145000D02*
Y175000D01*
X2615000Y910000D02*
X2645000D01*
X2630000Y895000D02*
Y925000D01*
X3065000Y1100000D02*
X3095000D01*
X3080000Y1085000D02*
Y1115000D01*
X3365000Y190000D02*
X3395000D01*
X3380000Y175000D02*
Y205000D01*
X325000Y440000D02*
X355000D01*
X340000Y425000D02*
Y455000D01*
X985000Y566200D02*
X1015000D01*
X1000000Y551200D02*
Y581200D01*
X1325000Y2910000D02*
X1355000D01*
X1340000Y2895000D02*
Y2925000D01*
X1715000Y2810000D02*
X1745000D01*
X1730000Y2795000D02*
Y2825000D01*
X1985000Y2665333D02*
X2015000D01*
X2000000Y2650333D02*
Y2680333D01*
X1460000Y2955126D02*
X1490000D01*
X1475000Y2940126D02*
Y2970126D01*
X1635000Y2725000D02*
X1665000D01*
X1650000Y2710000D02*
Y2740000D01*
X1465000Y1890000D02*
X1495000D01*
X1480000Y1875000D02*
Y1905000D01*
X775000Y1570000D02*
X805000D01*
X790000Y1555000D02*
Y1585000D01*
X655000Y1010000D02*
X685000D01*
X670000Y995000D02*
Y1025000D01*
X325000Y2350000D02*
X355000D01*
X340000Y2335000D02*
Y2365000D01*
X3685000Y2640000D02*
X3715000D01*
X3700000Y2625000D02*
Y2655000D01*
X3178871Y2435454D02*
X3208871D01*
X3193871Y2420454D02*
Y2450454D01*
X3675000Y2970000D02*
X3705000D01*
X3690000Y2955000D02*
Y2985000D01*
X2185000Y180000D02*
X2215000D01*
X2200000Y165000D02*
Y195000D01*
X2085000Y210000D02*
X2115000D01*
X2100000Y195000D02*
Y225000D01*
X1885000Y180000D02*
X1915000D01*
X1900000Y165000D02*
Y195000D01*
X2431056Y552348D02*
X2461056D01*
X2446056Y537348D02*
Y567348D01*
X2717864Y2224118D02*
X2747864D01*
X2732864Y2209119D02*
Y2239118D01*
X2635000Y2825000D02*
X2665000D01*
X2650000Y2810000D02*
Y2840000D01*
X2710000Y2975000D02*
X2740000D01*
X2725000Y2960000D02*
Y2990000D01*
X2624273Y1948700D02*
X2654273D01*
X2639273Y1933700D02*
Y1963700D01*
X2410000Y2725000D02*
X2440000D01*
X2425000Y2710000D02*
Y2740000D01*
X1710000Y2655000D02*
X1740000D01*
X1725000Y2640000D02*
Y2670000D01*
X225000Y2150000D02*
X255000D01*
X240000Y2135000D02*
Y2165000D01*
X425000Y2150000D02*
X455000D01*
X440000Y2135000D02*
Y2165000D01*
X1410000Y150000D02*
X1440000D01*
X1425000Y135000D02*
Y165000D01*
X2735000Y200000D02*
X2765000D01*
X2750000Y185000D02*
Y215000D01*
X1285000Y875000D02*
X1315000D01*
X1300000Y860000D02*
Y890000D01*
X860000Y775000D02*
X890000D01*
X875000Y760000D02*
Y790000D01*
X1085000Y950000D02*
X1115000D01*
X1100000Y935000D02*
Y965000D01*
X635000Y875000D02*
X665000D01*
X650000Y860000D02*
Y890000D01*
X860000Y950000D02*
X890000D01*
X875000Y935000D02*
Y965000D01*
%TF.MD5,f66658434c06b83020cdc43b47e96578*%
M02*
