%TF.GenerationSoftware,Altium Limited,Altium Designer,20.1.14 (287)*%
G04 Layer_Physical_Order=4*
G04 Layer_Color=16711680*
%FSLAX45Y45*%
%MOMM*%
%TF.SameCoordinates,D919A4BC-3EF6-4BA5-801F-EB9C9E4D33F9*%
%TF.FilePolarity,Positive*%
%TF.FileFunction,Copper,L4,Bot,Signal*%
%TF.Part,Single*%
G01*
G75*
%TA.AperFunction,Conductor*%
%ADD10C,0.20000*%
%ADD40C,0.30000*%
%ADD41C,0.50000*%
%ADD43C,0.75000*%
%TA.AperFunction,ComponentPad*%
%ADD45C,3.50000*%
%ADD46R,1.10000X1.10000*%
%ADD47C,1.10000*%
%ADD48C,1.70000*%
%ADD49R,1.70000X1.70000*%
%ADD50R,1.10000X1.10000*%
%TA.AperFunction,ViaPad*%
%ADD51C,0.60000*%
%TA.AperFunction,SMDPad,CuDef*%
%ADD57R,3.20000X4.20000*%
%ADD58R,1.50000X3.40000*%
%ADD59R,1.00000X3.50000*%
G36*
X725922Y3349022D02*
X726577Y3348330D01*
X734781Y3329022D01*
X727901Y3318725D01*
X727004Y3314216D01*
X822996D01*
X822099Y3318725D01*
X815219Y3329022D01*
X823423Y3348330D01*
X824078Y3349022D01*
X2743164Y3349021D01*
X2747679Y3339243D01*
X2748652Y3329022D01*
X2729484Y3314313D01*
X2712654Y3292379D01*
X2702074Y3266837D01*
X2700440Y3254427D01*
X2804371D01*
X2908302D01*
X2906668Y3266837D01*
X2896088Y3292379D01*
X2879258Y3314313D01*
X2860090Y3329022D01*
X2861063Y3339244D01*
X2865577Y3349021D01*
X2997164D01*
X3001679Y3339244D01*
X3002652Y3329022D01*
X2983484Y3314313D01*
X2966654Y3292379D01*
X2956074Y3266837D01*
X2952465Y3239427D01*
X2956074Y3212016D01*
X2966654Y3186474D01*
X2983484Y3164540D01*
X3005418Y3147709D01*
X3030960Y3137129D01*
X3058371Y3133521D01*
X3085781Y3137129D01*
X3111324Y3147709D01*
X3133258Y3164540D01*
X3150088Y3186474D01*
X3160668Y3212016D01*
X3164277Y3239427D01*
X3160668Y3266837D01*
X3150088Y3292379D01*
X3133258Y3314313D01*
X3114090Y3329022D01*
X3115063Y3339244D01*
X3119577Y3349021D01*
X3251164D01*
X3255678Y3339244D01*
X3256652Y3329022D01*
X3237484Y3314313D01*
X3220654Y3292379D01*
X3210074Y3266837D01*
X3206465Y3239427D01*
X3210074Y3212016D01*
X3220654Y3186474D01*
X3237484Y3164540D01*
X3259418Y3147709D01*
X3284960Y3137129D01*
X3312371Y3133521D01*
X3339781Y3137129D01*
X3365324Y3147709D01*
X3387258Y3164540D01*
X3404088Y3186474D01*
X3414668Y3212016D01*
X3418277Y3239427D01*
X3414668Y3266837D01*
X3404088Y3292379D01*
X3387258Y3314313D01*
X3368090Y3329022D01*
X3369063Y3339244D01*
X3373577Y3349021D01*
X3443274D01*
X3461371Y3344426D01*
X3461371Y3329022D01*
Y3134427D01*
X3671371D01*
Y3329022D01*
X3689467Y3349021D01*
X3904829D01*
X3914297Y3347138D01*
X3923220Y3343442D01*
X3931250Y3338077D01*
X3938077Y3331250D01*
X3943442Y3323220D01*
X3947138Y3314298D01*
X3949022Y3304828D01*
Y3300000D01*
Y2282186D01*
X3944375Y2280326D01*
X3929022Y2278738D01*
X3912921Y2308860D01*
X3888553Y2338553D01*
X3858860Y2362921D01*
X3824984Y2381028D01*
X3788227Y2392178D01*
X3750000Y2395943D01*
X3743225Y2415373D01*
X3747960Y2418537D01*
X3759011Y2435076D01*
X3759908Y2439585D01*
X3711912D01*
Y2469585D01*
X3759908D01*
X3759011Y2474094D01*
X3747960Y2490633D01*
X3737889Y2497362D01*
X3730412Y2508905D01*
X3728488Y2522659D01*
X3729175Y2526113D01*
Y2599360D01*
X3736048Y2603952D01*
X3747099Y2620491D01*
X3750980Y2640000D01*
X3747099Y2659509D01*
X3736048Y2676048D01*
X3719509Y2687099D01*
X3700000Y2690980D01*
X3680491Y2687099D01*
X3663952Y2676048D01*
X3643272Y2680336D01*
X3632221Y2696874D01*
X3615682Y2707925D01*
X3596173Y2711806D01*
X3576664Y2707925D01*
X3560125Y2696874D01*
X3549074Y2680336D01*
X3545193Y2660827D01*
X3549074Y2641318D01*
X3560125Y2624779D01*
X3576664Y2613728D01*
X3596173Y2609847D01*
X3615682Y2613728D01*
X3632221Y2624779D01*
X3652901Y2620491D01*
X3663952Y2603952D01*
X3668000Y2601247D01*
Y2538783D01*
X3261011Y2131794D01*
X3249280Y2138065D01*
X3145875D01*
X3146606Y2134387D01*
X3146694Y2133423D01*
X3135526Y2114387D01*
X2942194D01*
X2934540Y2132865D01*
X3187430Y2385755D01*
X3193871Y2384474D01*
X3213380Y2388355D01*
X3229919Y2399406D01*
X3240970Y2415945D01*
X3244850Y2435454D01*
X3240970Y2454963D01*
X3229919Y2471502D01*
X3213380Y2482553D01*
X3193871Y2486433D01*
X3174362Y2482553D01*
X3157823Y2471502D01*
X3146772Y2454963D01*
X3142891Y2435454D01*
X3144172Y2429013D01*
X2875747Y2160588D01*
X2763780D01*
X2757714Y2180588D01*
X2768912Y2188071D01*
X2779963Y2204610D01*
X2783844Y2224118D01*
X2779963Y2243627D01*
X2768912Y2260166D01*
X2756978Y2268140D01*
Y2796057D01*
X2775498Y2804680D01*
X2776978Y2804433D01*
X2787322Y2788952D01*
X2803861Y2777901D01*
X2823370Y2774020D01*
X2842879Y2777901D01*
X2859418Y2788952D01*
X2870469Y2805491D01*
X2874350Y2825000D01*
X2870469Y2844509D01*
X2859418Y2861048D01*
X2842879Y2872099D01*
X2823370Y2875980D01*
X2803861Y2872099D01*
X2787322Y2861048D01*
X2776978Y2845567D01*
X2775498Y2845320D01*
X2756978Y2853943D01*
Y2936233D01*
X2761048Y2938952D01*
X2772099Y2955491D01*
X2775979Y2975000D01*
X2772099Y2994509D01*
X2761048Y3011048D01*
X2744509Y3022099D01*
X2728318Y3025320D01*
X2730287Y3045320D01*
X3571423D01*
X3640302Y2976441D01*
X3639020Y2970000D01*
X3642901Y2950491D01*
X3653952Y2933952D01*
X3670491Y2922901D01*
X3690000Y2919020D01*
X3709509Y2922901D01*
X3726048Y2933952D01*
X3737099Y2950491D01*
X3740980Y2970000D01*
X3737099Y2989509D01*
X3726048Y3006048D01*
X3709509Y3017099D01*
X3690000Y3020979D01*
X3683559Y3019698D01*
X3605722Y3097536D01*
X3595798Y3104167D01*
X3584093Y3106495D01*
X3584091Y3106495D01*
X2323637D01*
X2323635Y3106495D01*
X2311930Y3104167D01*
X2302007Y3097536D01*
X2273684Y3069213D01*
X2266073Y3070544D01*
X2253277Y3077091D01*
X2250284Y3092136D01*
X2239233Y3108675D01*
X2222694Y3119726D01*
X2218185Y3120622D01*
Y3072627D01*
X2188185D01*
Y3120622D01*
X2183676Y3119726D01*
X2167137Y3108675D01*
X2156086Y3092136D01*
X2155881Y3091104D01*
X2135490D01*
X2135284Y3092136D01*
X2124233Y3108675D01*
X2107694Y3119726D01*
X2103185Y3120622D01*
Y3072627D01*
Y3024631D01*
X2107694Y3025528D01*
X2124233Y3036579D01*
X2135284Y3053118D01*
X2135490Y3054149D01*
X2155881D01*
X2156086Y3053118D01*
X2167137Y3036579D01*
X2183676Y3025528D01*
X2198721Y3022535D01*
X2205268Y3009738D01*
X2206599Y3002128D01*
X1901265Y2696795D01*
X1894635Y2686871D01*
X1892306Y2675166D01*
X1892306Y2675165D01*
Y2341735D01*
X1873829Y2334082D01*
X1533627Y2674284D01*
Y2955126D01*
X1529164Y2977562D01*
X1516455Y2996582D01*
X1497435Y3009290D01*
X1475000Y3013753D01*
X1452565Y3009290D01*
X1433545Y2996582D01*
X1420836Y2977562D01*
X1416374Y2955126D01*
Y2650000D01*
X1420836Y2627565D01*
X1433545Y2608545D01*
X1792764Y2249325D01*
Y2207029D01*
X1785036Y2201952D01*
X1772764Y2198242D01*
X1759509Y2207099D01*
X1740000Y2210980D01*
X1720491Y2207099D01*
X1703952Y2196048D01*
X1692901Y2179509D01*
X1689020Y2160000D01*
X1692901Y2140491D01*
X1685108Y2123286D01*
X1681994Y2124957D01*
X1670348Y2134038D01*
X1667099Y2150374D01*
X1656048Y2166913D01*
X1639509Y2177964D01*
X1635000Y2178861D01*
Y2130865D01*
X1605000D01*
Y2178861D01*
X1600491Y2177964D01*
X1583952Y2166913D01*
X1572901Y2150374D01*
X1570795Y2139785D01*
X1549871Y2132425D01*
X1370588Y2311708D01*
Y2870304D01*
X1376048Y2873952D01*
X1387099Y2890491D01*
X1390980Y2910000D01*
X1387099Y2929509D01*
X1376048Y2946048D01*
X1359509Y2957099D01*
X1340000Y2960980D01*
X1320491Y2957099D01*
X1303952Y2946048D01*
X1292901Y2929509D01*
X1289021Y2910000D01*
X1292901Y2890491D01*
X1303952Y2873952D01*
X1309412Y2870304D01*
Y2299039D01*
X1309412Y2299038D01*
X1311741Y2287333D01*
X1318371Y2277409D01*
X1564428Y2031353D01*
X1564505Y2030967D01*
X1571135Y2021044D01*
X1713172Y1879007D01*
X1712060Y1865036D01*
X1694752Y1850238D01*
X1675243Y1846357D01*
X1658704Y1835306D01*
X1647653Y1818767D01*
X1643773Y1799258D01*
X1647653Y1779749D01*
X1658704Y1763210D01*
X1669412Y1756055D01*
Y1660001D01*
X1669412Y1660000D01*
X1671741Y1648295D01*
X1678371Y1638371D01*
X1742819Y1573923D01*
Y1412467D01*
X1722819Y1402229D01*
X1714623Y1407706D01*
X1695114Y1411586D01*
X1675605Y1407706D01*
X1659066Y1396655D01*
X1648015Y1380116D01*
X1644134Y1360607D01*
X1646007Y1351191D01*
X1606572Y1311756D01*
X1599941Y1301832D01*
X1597613Y1290127D01*
X1597613Y1290125D01*
Y1112237D01*
X1577613Y1098968D01*
X1567500Y1100980D01*
X1547991Y1097099D01*
X1531452Y1086048D01*
X1520401Y1069509D01*
X1516520Y1050000D01*
X1520401Y1030491D01*
X1531452Y1013952D01*
X1547991Y1002901D01*
X1567500Y999020D01*
X1577613Y1001032D01*
X1597613Y987763D01*
Y451802D01*
X1597613Y451801D01*
X1599941Y440095D01*
X1605835Y431274D01*
X1603961Y422436D01*
X1599338Y411275D01*
X1577500D01*
Y236275D01*
X1672500D01*
Y206275D01*
X1577500D01*
Y50978D01*
X95172D01*
X85701Y52862D01*
X76780Y56557D01*
X68750Y61923D01*
X61923Y68750D01*
X56557Y76780D01*
X52862Y85701D01*
X50978Y95172D01*
Y617815D01*
X55627Y619675D01*
X70978Y621262D01*
X87079Y591140D01*
X111447Y561447D01*
X141140Y537079D01*
X175016Y518972D01*
X211773Y507822D01*
X235000Y505534D01*
Y700000D01*
Y894466D01*
X211773Y892179D01*
X175016Y881028D01*
X141140Y862921D01*
X111447Y838553D01*
X87079Y808860D01*
X70978Y778738D01*
X55627Y780325D01*
X50978Y782186D01*
Y3300000D01*
Y3304828D01*
X52862Y3314298D01*
X56557Y3323220D01*
X61923Y3331250D01*
X68750Y3338077D01*
X76780Y3343442D01*
X85702Y3347138D01*
X95172Y3349022D01*
X100001D01*
X725922D01*
D02*
G37*
G36*
X3670533Y2426516D02*
X3675864Y2418537D01*
X3692403Y2407486D01*
X3692968Y2407374D01*
X3693979Y2386781D01*
X3675016Y2381028D01*
X3641140Y2362921D01*
X3611447Y2338553D01*
X3587079Y2308860D01*
X3568972Y2274984D01*
X3557822Y2238227D01*
X3555534Y2215000D01*
X3750000D01*
Y2200000D01*
X3765000D01*
Y2005534D01*
X3788227Y2007821D01*
X3824984Y2018972D01*
X3858860Y2037079D01*
X3888553Y2061447D01*
X3912921Y2091140D01*
X3929022Y2121262D01*
X3944375Y2119674D01*
X3949022Y2117814D01*
X3949022Y100000D01*
Y95171D01*
X3947138Y85702D01*
X3943442Y76780D01*
X3938077Y68750D01*
X3931250Y61923D01*
X3923220Y56557D01*
X3914299Y52862D01*
X3904828Y50978D01*
X2437500D01*
Y124210D01*
X2457500Y134900D01*
X2460491Y132901D01*
X2465000Y132004D01*
Y180000D01*
Y227996D01*
X2460491Y227099D01*
X2457500Y225100D01*
X2437500Y235790D01*
Y411275D01*
X2357500D01*
Y221275D01*
X2327500D01*
Y411275D01*
X2293164D01*
X2285510Y429752D01*
X2299129Y443371D01*
X2305759Y453294D01*
X2308088Y465000D01*
X2308088Y465001D01*
Y832500D01*
X2306607Y839943D01*
X2309635Y850211D01*
X2317578Y862517D01*
X2319509Y862901D01*
X2336048Y873952D01*
X2347099Y890491D01*
X2350980Y910000D01*
X2347099Y929509D01*
X2336048Y946048D01*
X2319509Y957099D01*
X2300000Y960980D01*
X2290588Y959107D01*
X2270588Y972705D01*
Y1095111D01*
X2311419Y1135943D01*
X2332669Y1130546D01*
X2333438Y1129678D01*
X2343947Y1113950D01*
X2360486Y1102899D01*
X2364995Y1102002D01*
Y1149998D01*
Y1202904D01*
X2350583Y1212702D01*
Y1260301D01*
X2356043Y1263949D01*
X2367094Y1280488D01*
X2370975Y1299997D01*
X2367094Y1319506D01*
X2356043Y1336045D01*
X2339504Y1347096D01*
X2319995Y1350977D01*
X2300486Y1347096D01*
X2283947Y1336045D01*
X2272896Y1319506D01*
X2270659Y1308257D01*
X2255000Y1290980D01*
X2245588Y1289107D01*
X2225588Y1302705D01*
Y1538752D01*
X2239990Y1553155D01*
X2243539Y1555587D01*
X2251951Y1551346D01*
X2253102Y1549879D01*
X2258053Y1527219D01*
X2252901Y1519509D01*
X2249020Y1500000D01*
X2252901Y1480491D01*
X2263952Y1463952D01*
X2280491Y1452901D01*
X2300000Y1449020D01*
X2306441Y1450302D01*
X2415468Y1341274D01*
Y1208653D01*
X2395468Y1197900D01*
X2394995Y1197994D01*
Y1149998D01*
Y1102002D01*
X2395468Y1102096D01*
X2415468Y1091342D01*
Y592044D01*
X2410008Y588396D01*
X2398957Y571857D01*
X2395076Y552348D01*
X2398957Y532839D01*
X2410008Y516300D01*
X2426547Y505249D01*
X2446056Y501368D01*
X2465565Y505249D01*
X2482104Y516300D01*
X2493155Y532839D01*
X2497035Y552348D01*
X2493155Y571857D01*
X2482104Y588396D01*
X2476644Y592044D01*
Y1353944D01*
X2474315Y1365650D01*
X2467685Y1375573D01*
X2467684Y1375574D01*
X2349698Y1493559D01*
X2350980Y1500000D01*
X2347099Y1519509D01*
X2336048Y1536048D01*
X2329054Y1540722D01*
X2328205Y1564209D01*
X2328504Y1564408D01*
X2339555Y1580947D01*
X2340452Y1585456D01*
X2292456D01*
Y1615456D01*
X2340452D01*
X2339555Y1619965D01*
X2328504Y1636504D01*
X2322418Y1640571D01*
X2314657Y1655606D01*
X2318039Y1665719D01*
X2324237Y1674995D01*
X2328118Y1694504D01*
X2325152Y1709412D01*
X2336170Y1729412D01*
X2487143D01*
X2487144Y1729412D01*
X2498849Y1731741D01*
X2508773Y1738371D01*
X2581628Y1811227D01*
X2581629Y1811227D01*
X2588259Y1821151D01*
X2590588Y1832856D01*
X2590588Y1832857D01*
Y1898307D01*
X2610588Y1907733D01*
X2619764Y1901601D01*
X2639273Y1897721D01*
X2646717Y1899201D01*
X2674634Y1871285D01*
Y1667263D01*
X2654690Y1665009D01*
X2643639Y1681548D01*
X2627100Y1692599D01*
X2607591Y1696480D01*
X2588082Y1692599D01*
X2571543Y1681548D01*
X2560492Y1665009D01*
X2556612Y1645500D01*
X2560492Y1625991D01*
X2571543Y1609452D01*
X2588082Y1598401D01*
X2607591Y1594521D01*
X2627100Y1598401D01*
X2643639Y1609452D01*
X2654690Y1625991D01*
X2674634Y1623738D01*
Y1121303D01*
X2654634Y1119333D01*
X2654599Y1119509D01*
X2643548Y1136048D01*
X2627009Y1147099D01*
X2607500Y1150980D01*
X2587991Y1147099D01*
X2571452Y1136048D01*
X2560401Y1119509D01*
X2556520Y1100000D01*
X2560401Y1080491D01*
X2571452Y1063952D01*
X2587991Y1052901D01*
X2607500Y1049021D01*
X2627009Y1052901D01*
X2643548Y1063952D01*
X2654599Y1080491D01*
X2654634Y1080667D01*
X2674634Y1078697D01*
Y964365D01*
X2654634Y953674D01*
X2649509Y957099D01*
X2645000Y957996D01*
Y910000D01*
X2630000D01*
Y895000D01*
X2582004D01*
X2582901Y890491D01*
X2593952Y873952D01*
X2610491Y862901D01*
X2615474Y861910D01*
X2627768Y844695D01*
X2627153Y840747D01*
X2624020Y825000D01*
X2627901Y805491D01*
X2638952Y788952D01*
X2655491Y777901D01*
X2675000Y774020D01*
X2687247Y776456D01*
X2704898Y765883D01*
X2707690Y762654D01*
X2708871Y753444D01*
X2702901Y744509D01*
X2699021Y725000D01*
X2702901Y705491D01*
X2713952Y688952D01*
X2730491Y677901D01*
X2750000Y674020D01*
X2769509Y677901D01*
X2786048Y688952D01*
X2797099Y705491D01*
X2800980Y725000D01*
X2797099Y744509D01*
X2786048Y761048D01*
X2780588Y764696D01*
Y1760652D01*
X2780643Y1760707D01*
X2800588Y1769511D01*
X2810485Y1762897D01*
X2829994Y1759017D01*
X2849503Y1762897D01*
X2866042Y1773948D01*
X2874653Y1786836D01*
X2885656Y1790893D01*
X2897679Y1791462D01*
X2910491Y1782901D01*
X2915000Y1782004D01*
Y1830000D01*
Y1877996D01*
X2910491Y1877099D01*
X2893952Y1866048D01*
X2885341Y1853161D01*
X2874339Y1849104D01*
X2862315Y1848535D01*
X2849503Y1857095D01*
X2829994Y1860976D01*
X2810485Y1857095D01*
X2800588Y1850482D01*
X2780643Y1859286D01*
X2780588Y1859341D01*
Y1882312D01*
X2792522Y1890286D01*
X2803573Y1906825D01*
X2807453Y1926334D01*
X2803573Y1945843D01*
X2792522Y1962382D01*
X2775983Y1973433D01*
X2756474Y1977314D01*
X2736965Y1973433D01*
X2720426Y1962382D01*
X2711578Y1949140D01*
X2709026Y1948365D01*
X2688375Y1958139D01*
X2686372Y1968209D01*
X2675321Y1984748D01*
X2658782Y1995799D01*
X2639273Y1999680D01*
X2619764Y1995799D01*
X2610588Y1989668D01*
X2590588Y1999093D01*
Y2033630D01*
X2610170Y2053212D01*
X3256273D01*
X3256275Y2053212D01*
X3267980Y2055540D01*
X3277904Y2062171D01*
X3646776Y2431043D01*
X3670533Y2426516D01*
D02*
G37*
G36*
X2525203Y2705175D02*
X2511544Y2696048D01*
X2500493Y2679509D01*
X2496612Y2660000D01*
X2500493Y2640491D01*
X2511544Y2623952D01*
X2528083Y2612901D01*
X2547592Y2609020D01*
X2567101Y2612901D01*
X2583639Y2623952D01*
X2594691Y2640491D01*
X2598571Y2660000D01*
X2594691Y2679509D01*
X2586378Y2691949D01*
Y2794220D01*
X2606378Y2800287D01*
X2613952Y2788952D01*
X2619412Y2785304D01*
Y2581279D01*
X2584762Y2546629D01*
X2578131Y2536705D01*
X2575803Y2525000D01*
X2575803Y2524999D01*
Y2268611D01*
X2575803Y2268609D01*
X2578131Y2256904D01*
X2584762Y2246981D01*
X2591570Y2240172D01*
X2588294Y2223700D01*
X2592174Y2204191D01*
X2603225Y2187652D01*
X2613798Y2180588D01*
X2607731Y2160588D01*
X2583700D01*
X2571995Y2158259D01*
X2562072Y2151629D01*
X2562071Y2151628D01*
X2498371Y2087929D01*
X2491741Y2078005D01*
X2489412Y2066300D01*
X2489412Y2066298D01*
Y1940171D01*
X2469412Y1930575D01*
X2460583Y1937659D01*
Y2688641D01*
X2461048Y2688952D01*
X2472099Y2705491D01*
X2475980Y2725000D01*
X2472099Y2744509D01*
X2461048Y2761048D01*
X2444509Y2772099D01*
X2425000Y2775979D01*
X2405491Y2772099D01*
X2388952Y2761048D01*
X2377901Y2744509D01*
X2374020Y2725000D01*
X2377901Y2705491D01*
X2388952Y2688952D01*
X2399407Y2681966D01*
Y1929693D01*
X2393947Y1926044D01*
X2382896Y1909505D01*
X2379016Y1889996D01*
X2382896Y1870487D01*
X2372139Y1850588D01*
X2289696D01*
X2286048Y1856048D01*
X2269509Y1867099D01*
X2250000Y1870979D01*
X2230491Y1867099D01*
X2213952Y1856048D01*
X2202901Y1839509D01*
X2199960Y1824723D01*
X2195133Y1822724D01*
X2175624Y1826604D01*
X2156115Y1822724D01*
X2139576Y1811673D01*
X2130588Y1798221D01*
X2117173Y1799193D01*
X2110588Y1801548D01*
Y2585332D01*
X2110588Y2585333D01*
X2108259Y2597039D01*
X2101629Y2606962D01*
X2101628Y2606963D01*
X2049698Y2658893D01*
X2050980Y2665333D01*
X2047099Y2684842D01*
X2036048Y2701381D01*
X2026818Y2707548D01*
X2021802Y2730816D01*
X2336305Y3045320D01*
X2525203D01*
Y2705175D01*
D02*
G37*
G36*
X2049412Y1822793D02*
Y1286378D01*
X2033952Y1276048D01*
X2022901Y1259509D01*
X2019020Y1240000D01*
X2022901Y1220491D01*
X2033952Y1203952D01*
X2050491Y1192901D01*
X2070000Y1189020D01*
X2089509Y1192901D01*
X2106048Y1203952D01*
X2117099Y1220491D01*
X2120980Y1240000D01*
X2117099Y1259509D01*
X2110473Y1269425D01*
X2110588Y1270000D01*
X2110588Y1270001D01*
Y1526911D01*
X2130588Y1538162D01*
X2145000Y1535295D01*
X2148952Y1536081D01*
X2164412Y1523393D01*
Y991275D01*
X2037500D01*
Y895328D01*
X2021166Y884404D01*
X2017500Y883695D01*
X2015000Y884193D01*
Y836197D01*
Y788201D01*
X2017500Y788698D01*
X2021166Y787990D01*
X2037500Y777065D01*
Y601275D01*
X2041374D01*
Y210000D01*
X2045836Y187565D01*
X2058545Y168545D01*
X2077565Y155836D01*
X2100000Y151374D01*
X2122435Y155836D01*
X2132145Y162324D01*
X2150479Y160705D01*
X2155913Y155983D01*
X2163952Y143952D01*
X2180491Y132901D01*
X2200000Y129020D01*
X2219509Y132901D01*
X2227500Y138241D01*
X2247500Y127833D01*
Y50978D01*
X1767500D01*
Y112722D01*
X1774523Y117516D01*
X1787500Y121582D01*
X1800491Y112901D01*
X1805000Y112004D01*
Y160000D01*
X1835000D01*
Y112004D01*
X1839509Y112901D01*
X1856048Y123952D01*
X1856615Y124801D01*
X1880491Y132901D01*
X1900000Y129020D01*
X1919509Y132901D01*
X1936048Y143952D01*
X1947099Y160491D01*
X1950980Y180000D01*
X1947099Y199509D01*
X1936048Y216048D01*
X1930588Y219696D01*
Y329999D01*
X1930588Y330000D01*
X1928259Y341705D01*
X1921629Y351629D01*
X1921628Y351629D01*
X1863580Y409678D01*
X1863579Y409679D01*
X1830354Y442904D01*
X1820430Y449534D01*
X1808725Y451863D01*
X1808724Y451862D01*
X1783237D01*
X1771727Y467965D01*
X1785285Y476280D01*
X1804794Y472399D01*
X1824303Y476280D01*
X1840842Y487331D01*
X1851893Y503870D01*
X1855774Y523379D01*
X1851893Y542888D01*
X1845106Y553045D01*
X1845514Y555095D01*
Y601275D01*
X1889300D01*
Y796275D01*
Y991275D01*
X1845514D01*
Y1180685D01*
X1865514Y1191902D01*
X1880000Y1189020D01*
X1899509Y1192901D01*
X1916048Y1203952D01*
X1927099Y1220491D01*
X1930980Y1240000D01*
X1927099Y1259509D01*
X1916048Y1276048D01*
X1910588Y1279696D01*
Y1546545D01*
X1930588Y1552612D01*
X1932182Y1550227D01*
X1948721Y1539175D01*
X1968229Y1535295D01*
X1987738Y1539175D01*
X2004277Y1550227D01*
X2015328Y1566765D01*
X2019209Y1586274D01*
X2015328Y1605783D01*
X2004277Y1622322D01*
X1987738Y1633373D01*
X1968229Y1637254D01*
X1948721Y1633373D01*
X1932182Y1622322D01*
X1930588Y1619937D01*
X1910588Y1626004D01*
Y1675459D01*
X1921025Y1683722D01*
X1929629Y1686790D01*
X1937897Y1681266D01*
X1957406Y1677385D01*
X1976915Y1681266D01*
X1993453Y1692317D01*
X2004504Y1708856D01*
X2008385Y1728365D01*
X2004504Y1747874D01*
X1997649Y1758134D01*
X1995828Y1769598D01*
X2001888Y1782831D01*
X2011048Y1788952D01*
X2022099Y1805491D01*
X2025980Y1825000D01*
X2029412Y1829523D01*
X2049412Y1822793D01*
D02*
G37*
G36*
X1715000Y1222004D02*
X1719509Y1222901D01*
X1722819Y1225113D01*
X1742819Y1214423D01*
Y675093D01*
X1684155Y616429D01*
X1662140Y619416D01*
X1658788Y621862D01*
Y1213348D01*
X1678788Y1224038D01*
X1680491Y1222901D01*
X1685000Y1222004D01*
Y1270000D01*
X1715000D01*
Y1222004D01*
D02*
G37*
%LPC*%
G36*
X822996Y3284216D02*
X790000D01*
Y3251220D01*
X794509Y3252117D01*
X811048Y3263168D01*
X822099Y3279707D01*
X822996Y3284216D01*
D02*
G37*
G36*
X760000D02*
X727004D01*
X727901Y3279707D01*
X738952Y3263168D01*
X755491Y3252117D01*
X760000Y3251220D01*
Y3284216D01*
D02*
G37*
G36*
X922500Y3272996D02*
Y3240000D01*
X955496D01*
X954599Y3244509D01*
X943548Y3261048D01*
X927009Y3272099D01*
X922500Y3272996D01*
D02*
G37*
G36*
X892500D02*
X887991Y3272099D01*
X871452Y3261048D01*
X860401Y3244509D01*
X859504Y3240000D01*
X892500D01*
Y3272996D01*
D02*
G37*
G36*
X955496Y3210000D02*
X922500D01*
Y3177004D01*
X927009Y3177901D01*
X943548Y3188952D01*
X954599Y3205491D01*
X955496Y3210000D01*
D02*
G37*
G36*
X892500D02*
X859504D01*
X860401Y3205491D01*
X871452Y3188952D01*
X887991Y3177901D01*
X892500Y3177004D01*
Y3210000D01*
D02*
G37*
G36*
X1161895Y3275980D02*
X1142386Y3272099D01*
X1125847Y3261048D01*
X1114796Y3244509D01*
X1110915Y3225000D01*
X1114796Y3205491D01*
X1125847Y3188952D01*
X1142386Y3177901D01*
X1161895Y3174021D01*
X1181404Y3177901D01*
X1197943Y3188952D01*
X1208994Y3205491D01*
X1212875Y3225000D01*
X1208994Y3244509D01*
X1197943Y3261048D01*
X1181404Y3272099D01*
X1161895Y3275980D01*
D02*
G37*
G36*
X2908302Y3224427D02*
X2819371D01*
Y3135496D01*
X2831781Y3137129D01*
X2857324Y3147709D01*
X2879258Y3164540D01*
X2896088Y3186474D01*
X2906668Y3212016D01*
X2908302Y3224427D01*
D02*
G37*
G36*
X2789371D02*
X2700440D01*
X2702074Y3212016D01*
X2712654Y3186474D01*
X2729484Y3164540D01*
X2751418Y3147709D01*
X2776960Y3137129D01*
X2789371Y3135495D01*
Y3224427D01*
D02*
G37*
G36*
X409849Y3300000D02*
X390151D01*
X370831Y3296157D01*
X352632Y3288619D01*
X336254Y3277675D01*
X322325Y3263746D01*
X311381Y3247368D01*
X303843Y3229169D01*
X300000Y3209849D01*
Y3190151D01*
X303843Y3170831D01*
X311381Y3152632D01*
X322325Y3136254D01*
X336254Y3122325D01*
X352632Y3111381D01*
X370831Y3103843D01*
X390151Y3100000D01*
X409849D01*
X429169Y3103843D01*
X447368Y3111381D01*
X463746Y3122325D01*
X477675Y3136254D01*
X488619Y3152632D01*
X496157Y3170831D01*
X500000Y3190151D01*
Y3209849D01*
X496157Y3229169D01*
X488619Y3247368D01*
X477675Y3263746D01*
X463746Y3277675D01*
X447368Y3288619D01*
X429169Y3296157D01*
X409849Y3300000D01*
D02*
G37*
G36*
X2073185Y3120622D02*
X2068676Y3119726D01*
X2052137Y3108675D01*
X2041086Y3092136D01*
X2040189Y3087627D01*
X2073185D01*
Y3120622D01*
D02*
G37*
G36*
X555000Y3112996D02*
X550491Y3112099D01*
X533952Y3101048D01*
X522901Y3084509D01*
X522004Y3080000D01*
X555000D01*
Y3112996D01*
D02*
G37*
G36*
X1176895Y3072996D02*
Y3040000D01*
X1209891D01*
X1208994Y3044509D01*
X1197943Y3061048D01*
X1181404Y3072099D01*
X1176895Y3072996D01*
D02*
G37*
G36*
X1146895D02*
X1142386Y3072099D01*
X1125847Y3061048D01*
X1114796Y3044509D01*
X1113899Y3040000D01*
X1146895D01*
Y3072996D01*
D02*
G37*
G36*
X2073185Y3057627D02*
X2040189D01*
X2041086Y3053118D01*
X2052137Y3036579D01*
X2068676Y3025528D01*
X2073185Y3024631D01*
Y3057627D01*
D02*
G37*
G36*
X655000Y3054548D02*
Y3021552D01*
X687996D01*
X687099Y3026061D01*
X676048Y3042600D01*
X659509Y3053651D01*
X655000Y3054548D01*
D02*
G37*
G36*
X555000Y3050000D02*
X522004D01*
X522901Y3045491D01*
X533952Y3028952D01*
X550491Y3017901D01*
X555000Y3017004D01*
Y3050000D01*
D02*
G37*
G36*
X1209891Y3010000D02*
X1176895D01*
Y2977004D01*
X1181404Y2977901D01*
X1197943Y2988952D01*
X1208994Y3005491D01*
X1209891Y3010000D01*
D02*
G37*
G36*
X1146895D02*
X1113899D01*
X1114796Y3005491D01*
X1125847Y2988952D01*
X1142386Y2977901D01*
X1146895Y2977004D01*
Y3010000D01*
D02*
G37*
G36*
X687996Y2991552D02*
X655000D01*
Y2958556D01*
X659509Y2959453D01*
X676048Y2970504D01*
X687099Y2987043D01*
X687996Y2991552D01*
D02*
G37*
G36*
X585000Y3112996D02*
Y3065000D01*
Y3008146D01*
X589020Y3006552D01*
X592901Y2987043D01*
X603952Y2970504D01*
X620491Y2959453D01*
X625000Y2958556D01*
Y3006552D01*
Y3063407D01*
X620979Y3065000D01*
X617099Y3084509D01*
X606048Y3101048D01*
X589509Y3112099D01*
X585000Y3112996D01*
D02*
G37*
G36*
X884216Y2955981D02*
X864707Y2952100D01*
X848168Y2941049D01*
X837117Y2924510D01*
X833236Y2905001D01*
X837117Y2885492D01*
X848168Y2868953D01*
X864707Y2857902D01*
X884216Y2854021D01*
X903725Y2857902D01*
X920264Y2868953D01*
X931315Y2885492D01*
X935195Y2905001D01*
X931315Y2924510D01*
X920264Y2941049D01*
X903725Y2952100D01*
X884216Y2955981D01*
D02*
G37*
G36*
X1745000Y2857996D02*
Y2825000D01*
X1777996D01*
X1777099Y2829509D01*
X1766048Y2846048D01*
X1749509Y2857099D01*
X1745000Y2857996D01*
D02*
G37*
G36*
X1715000D02*
X1710491Y2857099D01*
X1693952Y2846048D01*
X1682901Y2829509D01*
X1682004Y2825000D01*
X1715000D01*
Y2857996D01*
D02*
G37*
G36*
Y2795000D02*
X1682004D01*
X1682901Y2790491D01*
X1686869Y2784553D01*
X1672449Y2770134D01*
X1669509Y2772099D01*
X1665000Y2772996D01*
Y2740000D01*
X1697996D01*
X1697099Y2744509D01*
X1693131Y2750446D01*
X1707551Y2764866D01*
X1710491Y2762901D01*
X1715000Y2762004D01*
Y2795000D01*
D02*
G37*
G36*
X1777996D02*
X1745000D01*
Y2762004D01*
X1749509Y2762901D01*
X1766048Y2773952D01*
X1777099Y2790491D01*
X1777996Y2795000D01*
D02*
G37*
G36*
X2987370Y2791322D02*
Y2758326D01*
X3020366D01*
X3019469Y2762835D01*
X3008418Y2779374D01*
X2991879Y2790425D01*
X2987370Y2791322D01*
D02*
G37*
G36*
X2957370D02*
X2952861Y2790425D01*
X2936322Y2779374D01*
X2925271Y2762835D01*
X2924374Y2758326D01*
X2957370D01*
Y2791322D01*
D02*
G37*
G36*
X1635000Y2772996D02*
X1630491Y2772099D01*
X1613952Y2761048D01*
X1602901Y2744509D01*
X1602004Y2740000D01*
X1635000D01*
Y2772996D01*
D02*
G37*
G36*
X3020366Y2728327D02*
X2987370D01*
Y2695331D01*
X2991879Y2696228D01*
X3008418Y2707279D01*
X3019469Y2723818D01*
X3020366Y2728327D01*
D02*
G37*
G36*
X2957370D02*
X2924374D01*
X2925271Y2723818D01*
X2936322Y2707279D01*
X2952861Y2696228D01*
X2957370Y2695331D01*
Y2728327D01*
D02*
G37*
G36*
X1635000Y2710000D02*
X1602004D01*
X1602901Y2705491D01*
X1613952Y2688952D01*
X1630491Y2677901D01*
X1635000Y2677004D01*
Y2710000D01*
D02*
G37*
G36*
X1740000Y2702996D02*
Y2670000D01*
X1772996D01*
X1772099Y2674509D01*
X1761048Y2691048D01*
X1744509Y2702099D01*
X1740000Y2702996D01*
D02*
G37*
G36*
X1710000Y2710000D02*
X1665000D01*
Y2670000D01*
X1710000D01*
Y2710000D01*
D02*
G37*
G36*
X1772996Y2640000D02*
X1740000D01*
Y2607004D01*
X1744509Y2607901D01*
X1761048Y2618952D01*
X1772099Y2635491D01*
X1772996Y2640000D01*
D02*
G37*
G36*
X1710000D02*
X1677004D01*
X1677901Y2635491D01*
X1688952Y2618952D01*
X1705491Y2607901D01*
X1710000Y2607004D01*
Y2640000D01*
D02*
G37*
G36*
X223672Y2588701D02*
X150000D01*
X76328D01*
X76931Y2584122D01*
X82076Y2571700D01*
X75000Y2551700D01*
X75000D01*
Y2401701D01*
X225000D01*
Y2551700D01*
X225000D01*
X217924Y2571700D01*
X223069Y2584122D01*
X223672Y2588701D01*
D02*
G37*
G36*
X3438871Y2523122D02*
Y2490126D01*
X3471867D01*
X3470970Y2494635D01*
X3459919Y2511174D01*
X3443380Y2522225D01*
X3438871Y2523122D01*
D02*
G37*
G36*
X3408871D02*
X3404362Y2522225D01*
X3387823Y2511174D01*
X3376772Y2494635D01*
X3375875Y2490126D01*
X3408871D01*
Y2523122D01*
D02*
G37*
G36*
X3471867Y2460126D02*
X3438871D01*
Y2427131D01*
X3443380Y2428027D01*
X3459919Y2439078D01*
X3470970Y2455617D01*
X3471867Y2460126D01*
D02*
G37*
G36*
X3408871D02*
X3375875D01*
X3376772Y2455617D01*
X3387823Y2439078D01*
X3404362Y2428027D01*
X3408871Y2427131D01*
Y2460126D01*
D02*
G37*
G36*
X2851721Y2412172D02*
Y2379177D01*
X2884717D01*
X2883820Y2383686D01*
X2872769Y2400225D01*
X2856230Y2411276D01*
X2851721Y2412172D01*
D02*
G37*
G36*
X2821721D02*
X2817212Y2411276D01*
X2800673Y2400225D01*
X2789622Y2383686D01*
X2788725Y2379177D01*
X2821721D01*
Y2412172D01*
D02*
G37*
G36*
X355000Y2397996D02*
Y2365000D01*
X387996D01*
X387099Y2369509D01*
X376048Y2386048D01*
X359509Y2397099D01*
X355000Y2397996D01*
D02*
G37*
G36*
X325000D02*
X320491Y2397099D01*
X303952Y2386048D01*
X292901Y2369509D01*
X292004Y2365000D01*
X325000D01*
Y2397996D01*
D02*
G37*
G36*
X2884717Y2349177D02*
X2851721D01*
Y2316181D01*
X2856230Y2317078D01*
X2872769Y2328129D01*
X2883820Y2344668D01*
X2884717Y2349177D01*
D02*
G37*
G36*
X2821721D02*
X2788725D01*
X2789622Y2344668D01*
X2800673Y2328129D01*
X2817212Y2317078D01*
X2821721Y2316181D01*
Y2349177D01*
D02*
G37*
G36*
X387996Y2335000D02*
X355000D01*
Y2302004D01*
X359509Y2302901D01*
X376048Y2313952D01*
X387099Y2330491D01*
X387996Y2335000D01*
D02*
G37*
G36*
X325000D02*
X292004D01*
X292901Y2330491D01*
X303952Y2313952D01*
X320491Y2302901D01*
X325000Y2302004D01*
Y2335000D01*
D02*
G37*
G36*
X3208871Y2201060D02*
Y2168064D01*
X3241867D01*
X3240970Y2172574D01*
X3229919Y2189112D01*
X3213380Y2200163D01*
X3208871Y2201060D01*
D02*
G37*
G36*
X3178871D02*
X3174362Y2200163D01*
X3157823Y2189112D01*
X3146772Y2172574D01*
X3145875Y2168064D01*
X3178871D01*
Y2201060D01*
D02*
G37*
G36*
X425000Y2197996D02*
X420491Y2197099D01*
X403952Y2186048D01*
X392901Y2169509D01*
X392004Y2165000D01*
X425000D01*
Y2197996D01*
D02*
G37*
G36*
X255000D02*
Y2165000D01*
X287996D01*
X287099Y2169509D01*
X276048Y2186048D01*
X259509Y2197099D01*
X255000Y2197996D01*
D02*
G37*
G36*
X225000D02*
X220491Y2197099D01*
X203952Y2186048D01*
X192901Y2169509D01*
X192004Y2165000D01*
X225000D01*
Y2197996D01*
D02*
G37*
G36*
X592500Y2208480D02*
X572991Y2204599D01*
X556452Y2193548D01*
X545401Y2177009D01*
X544471Y2172333D01*
X508698Y2136560D01*
X490266Y2146412D01*
X490980Y2150000D01*
X487099Y2169509D01*
X476048Y2186048D01*
X459509Y2197099D01*
X455000Y2197996D01*
Y2150000D01*
Y2102004D01*
X459509Y2102901D01*
X470226Y2110062D01*
X488476Y2099293D01*
X487989Y2096846D01*
Y1930000D01*
X353871D01*
Y1669722D01*
X334999Y1658866D01*
Y1609997D01*
Y1561127D01*
X353871Y1550272D01*
Y1470000D01*
X713871D01*
Y1930000D01*
X579752D01*
Y2077842D01*
X612922Y2111011D01*
X628548Y2121452D01*
X639599Y2137991D01*
X643480Y2157500D01*
X639599Y2177009D01*
X628548Y2193548D01*
X612009Y2204599D01*
X592500Y2208480D01*
D02*
G37*
G36*
X1395000Y2161795D02*
Y2128799D01*
X1427996D01*
X1427099Y2133308D01*
X1416048Y2149847D01*
X1399509Y2160898D01*
X1395000Y2161795D01*
D02*
G37*
G36*
X1365000D02*
X1360491Y2160898D01*
X1343952Y2149847D01*
X1332901Y2133308D01*
X1332004Y2128799D01*
X1365000D01*
Y2161795D01*
D02*
G37*
G36*
X425000Y2135000D02*
X392004D01*
X392901Y2130491D01*
X403952Y2113952D01*
X420491Y2102901D01*
X425000Y2102004D01*
Y2135000D01*
D02*
G37*
G36*
X287996D02*
X255000D01*
Y2102004D01*
X259509Y2102901D01*
X276048Y2113952D01*
X287099Y2130491D01*
X287996Y2135000D01*
D02*
G37*
G36*
X225000D02*
X192004D01*
X192901Y2130491D01*
X203952Y2113952D01*
X220491Y2102901D01*
X225000Y2102004D01*
Y2135000D01*
D02*
G37*
G36*
X1427996Y2098799D02*
X1395000D01*
Y2065804D01*
X1399509Y2066700D01*
X1416048Y2077751D01*
X1427099Y2094290D01*
X1427996Y2098799D01*
D02*
G37*
G36*
X1365000D02*
X1332004D01*
X1332901Y2094290D01*
X1343952Y2077751D01*
X1360491Y2066700D01*
X1365000Y2065804D01*
Y2098799D01*
D02*
G37*
G36*
X1480000Y1940980D02*
X1460491Y1937099D01*
X1443952Y1926048D01*
X1432901Y1909509D01*
X1429020Y1890000D01*
X1432901Y1870491D01*
X1443952Y1853952D01*
X1460491Y1842901D01*
X1480000Y1839020D01*
X1499509Y1842901D01*
X1516048Y1853952D01*
X1527099Y1870491D01*
X1530979Y1890000D01*
X1527099Y1909509D01*
X1516048Y1926048D01*
X1499509Y1937099D01*
X1480000Y1940980D01*
D02*
G37*
G36*
X1039641Y1750979D02*
X1020132Y1747099D01*
X1003593Y1736048D01*
X992542Y1719509D01*
X988661Y1700000D01*
X992542Y1680491D01*
X1003593Y1663952D01*
X1020132Y1652901D01*
X1039641Y1649020D01*
X1059150Y1652901D01*
X1075689Y1663952D01*
X1086740Y1680491D01*
X1090620Y1700000D01*
X1086740Y1719509D01*
X1075689Y1736048D01*
X1059150Y1747099D01*
X1039641Y1750979D01*
D02*
G37*
G36*
X304999Y1657993D02*
X300490Y1657096D01*
X283951Y1646045D01*
X272900Y1629506D01*
X272004Y1624997D01*
X304999D01*
Y1657993D01*
D02*
G37*
G36*
X150000Y3187348D02*
X130421Y3184770D01*
X112176Y3177213D01*
X96509Y3165191D01*
X84488Y3149524D01*
X76931Y3131279D01*
X74353Y3111701D01*
X76931Y3092122D01*
X84488Y3073877D01*
X96509Y3058210D01*
X96522Y3058201D01*
Y3038201D01*
X96509Y3038191D01*
X84488Y3022524D01*
X76931Y3004279D01*
X74353Y2984701D01*
X76931Y2965122D01*
X84488Y2946877D01*
X96509Y2931210D01*
X96522Y2931201D01*
Y2911201D01*
X96509Y2911191D01*
X84488Y2895524D01*
X76931Y2877279D01*
X74353Y2857701D01*
X76931Y2838122D01*
X84488Y2819877D01*
X96509Y2804210D01*
X96522Y2804201D01*
Y2784201D01*
X96509Y2784191D01*
X84488Y2768524D01*
X76931Y2750279D01*
X74353Y2730701D01*
X76931Y2711122D01*
X84488Y2692877D01*
X96509Y2677210D01*
X96522Y2677201D01*
Y2657201D01*
X96509Y2657191D01*
X84488Y2641524D01*
X76931Y2623279D01*
X76328Y2618701D01*
X150000D01*
X223672D01*
X223069Y2623279D01*
X215512Y2641524D01*
X203491Y2657191D01*
X203478Y2657201D01*
Y2677201D01*
X203491Y2677210D01*
X215512Y2692877D01*
X218509Y2700113D01*
X399938D01*
X1269412Y1830639D01*
Y1789696D01*
X1263952Y1786048D01*
X1252901Y1769509D01*
X1249020Y1750000D01*
X1252901Y1730491D01*
X1263952Y1713952D01*
X1280491Y1702901D01*
X1300000Y1699020D01*
X1319509Y1702901D01*
X1328150Y1701124D01*
X1340500Y1692873D01*
X1341527Y1682419D01*
X1332901Y1669509D01*
X1329020Y1650000D01*
X1332901Y1630491D01*
X1339622Y1620432D01*
X1329115Y1601643D01*
X1327000Y1601921D01*
X1307421Y1599344D01*
X1289176Y1591787D01*
X1273509Y1579765D01*
X1273500Y1579753D01*
X1253500D01*
X1253491Y1579765D01*
X1237824Y1591787D01*
X1219579Y1599344D01*
X1200000Y1601921D01*
X1180421Y1599344D01*
X1168000Y1594199D01*
X1147999Y1601274D01*
Y1601274D01*
X1088000D01*
Y1526274D01*
Y1451274D01*
X1147999D01*
Y1451274D01*
X1168000Y1458350D01*
X1180421Y1453205D01*
X1200000Y1450627D01*
X1219579Y1453205D01*
X1237824Y1460762D01*
X1253491Y1472784D01*
X1253500Y1472796D01*
X1273500D01*
X1273509Y1472784D01*
X1289176Y1460762D01*
X1307421Y1453205D01*
X1327000Y1450627D01*
X1346579Y1453205D01*
X1364824Y1460762D01*
X1380491Y1472784D01*
X1392512Y1488451D01*
X1400069Y1506695D01*
X1402647Y1526274D01*
X1400069Y1545853D01*
X1392512Y1564098D01*
X1380491Y1579765D01*
X1379959Y1580173D01*
X1379959Y1580283D01*
X1386551Y1600324D01*
X1399509Y1602901D01*
X1416048Y1613952D01*
X1427099Y1630491D01*
X1430980Y1650000D01*
X1427099Y1669509D01*
X1416048Y1686048D01*
X1410588Y1689696D01*
Y1860000D01*
X1408259Y1871705D01*
X1401629Y1881629D01*
X1401628Y1881629D01*
X403928Y2879330D01*
X394005Y2885960D01*
X382299Y2888289D01*
X382298Y2888288D01*
X218509D01*
X215512Y2895524D01*
X203491Y2911191D01*
X203478Y2911201D01*
Y2931201D01*
X203491Y2931210D01*
X215512Y2946877D01*
X223069Y2965122D01*
X225647Y2984701D01*
X223069Y3004279D01*
X215512Y3022524D01*
X203491Y3038191D01*
X203478Y3038201D01*
Y3058201D01*
X203491Y3058210D01*
X215512Y3073877D01*
X223069Y3092122D01*
X225647Y3111701D01*
X223069Y3131279D01*
X215512Y3149524D01*
X203491Y3165191D01*
X187824Y3177213D01*
X169579Y3184770D01*
X150000Y3187348D01*
D02*
G37*
G36*
X805000Y1617996D02*
Y1585000D01*
X837996D01*
X837099Y1589509D01*
X826048Y1606048D01*
X809509Y1617099D01*
X805000Y1617996D01*
D02*
G37*
G36*
X775000D02*
X770491Y1617099D01*
X753952Y1606048D01*
X742901Y1589509D01*
X742004Y1585000D01*
X775000D01*
Y1617996D01*
D02*
G37*
G36*
X304999Y1594997D02*
X272004D01*
X272900Y1590488D01*
X283951Y1573949D01*
X300490Y1562898D01*
X304999Y1562001D01*
Y1594997D01*
D02*
G37*
G36*
X1058000Y1601274D02*
X998000D01*
Y1541274D01*
X1058000D01*
Y1601274D01*
D02*
G37*
G36*
X837996Y1555000D02*
X805000D01*
Y1522004D01*
X809509Y1522901D01*
X826048Y1533952D01*
X837099Y1550491D01*
X837996Y1555000D01*
D02*
G37*
G36*
X775000D02*
X742004D01*
X742901Y1550491D01*
X753952Y1533952D01*
X770491Y1522901D01*
X775000Y1522004D01*
Y1555000D01*
D02*
G37*
G36*
X1058000Y1511274D02*
X998000D01*
Y1451274D01*
X1058000D01*
Y1511274D01*
D02*
G37*
G36*
X1447500Y1097996D02*
Y1065000D01*
X1480496D01*
X1479599Y1069509D01*
X1468548Y1086048D01*
X1452009Y1097099D01*
X1447500Y1097996D01*
D02*
G37*
G36*
X1417500D02*
X1412991Y1097099D01*
X1396452Y1086048D01*
X1385401Y1069509D01*
X1384504Y1065000D01*
X1417500D01*
Y1097996D01*
D02*
G37*
G36*
X1480496Y1035000D02*
X1447500D01*
Y1002004D01*
X1452009Y1002901D01*
X1468548Y1013952D01*
X1479599Y1030491D01*
X1480496Y1035000D01*
D02*
G37*
G36*
X1417500D02*
X1384504D01*
X1385401Y1030491D01*
X1396452Y1013952D01*
X1412991Y1002901D01*
X1417500Y1002004D01*
Y1035000D01*
D02*
G37*
G36*
X1115000Y997996D02*
Y965000D01*
X1147996D01*
X1147099Y969509D01*
X1136048Y986048D01*
X1119509Y997099D01*
X1115000Y997996D01*
D02*
G37*
G36*
X1085000D02*
X1080491Y997099D01*
X1063952Y986048D01*
X1052901Y969509D01*
X1052004Y965000D01*
X1085000D01*
Y997996D01*
D02*
G37*
G36*
X670000Y1060980D02*
X650491Y1057099D01*
X633952Y1046048D01*
X622901Y1029509D01*
X619020Y1010000D01*
X622901Y990491D01*
X633952Y973952D01*
X650491Y962901D01*
X670000Y959020D01*
X689509Y962901D01*
X706048Y973952D01*
X717099Y990491D01*
X720980Y1010000D01*
X717099Y1029509D01*
X706048Y1046048D01*
X689509Y1057099D01*
X670000Y1060980D01*
D02*
G37*
G36*
X875000Y1000979D02*
X855491Y997099D01*
X838952Y986048D01*
X827901Y969509D01*
X824020Y950000D01*
X824106Y949573D01*
X785219Y910686D01*
X686290D01*
X686048Y911048D01*
X669509Y922099D01*
X650000Y925980D01*
X630491Y922099D01*
X613952Y911048D01*
X602901Y894509D01*
X599020Y875000D01*
X602901Y855491D01*
X613952Y838952D01*
X630491Y827901D01*
X650000Y824020D01*
X669509Y827901D01*
X686048Y838952D01*
X686290Y839314D01*
X800000D01*
X813656Y842031D01*
X825234Y849766D01*
X874573Y899105D01*
X875000Y899020D01*
X875427Y899105D01*
X924766Y849766D01*
X936344Y842031D01*
X950000Y839314D01*
X1263710D01*
X1263952Y838952D01*
X1280491Y827901D01*
X1300000Y824020D01*
X1319509Y827901D01*
X1336048Y838952D01*
X1347099Y855491D01*
X1350980Y875000D01*
X1347099Y894509D01*
X1336048Y911048D01*
X1319509Y922099D01*
X1300000Y925980D01*
X1280491Y922099D01*
X1263952Y911048D01*
X1263710Y910686D01*
X1157919D01*
X1147099Y930491D01*
X1147996Y935000D01*
X1052004D01*
X1052901Y930491D01*
X1042080Y910686D01*
X964781D01*
X925895Y949573D01*
X925980Y950000D01*
X922099Y969509D01*
X911048Y986048D01*
X894509Y997099D01*
X875000Y1000979D01*
D02*
G37*
G36*
X890000Y822996D02*
Y790000D01*
X922996D01*
X922099Y794509D01*
X911048Y811048D01*
X894509Y822099D01*
X890000Y822996D01*
D02*
G37*
G36*
X860000D02*
X855491Y822099D01*
X838952Y811048D01*
X827901Y794509D01*
X827004Y790000D01*
X860000D01*
Y822996D01*
D02*
G37*
G36*
X922996Y760000D02*
X890000D01*
Y727004D01*
X894509Y727901D01*
X911048Y738952D01*
X922099Y755491D01*
X922996Y760000D01*
D02*
G37*
G36*
X860000D02*
X827004D01*
X827901Y755491D01*
X838952Y738952D01*
X855491Y727901D01*
X860000Y727004D01*
Y760000D01*
D02*
G37*
G36*
X265000Y894466D02*
Y715000D01*
X444466D01*
X442178Y738227D01*
X431028Y774984D01*
X412921Y808860D01*
X388553Y838553D01*
X358860Y862921D01*
X324984Y881028D01*
X288227Y892179D01*
X265000Y894466D01*
D02*
G37*
G36*
X1438500Y750979D02*
X1418991Y747099D01*
X1402452Y736048D01*
X1391401Y719509D01*
X1387520Y700000D01*
X1391401Y680491D01*
X1402452Y663952D01*
X1418991Y652901D01*
X1438500Y649020D01*
X1458009Y652901D01*
X1474548Y663952D01*
X1485599Y680491D01*
X1489480Y700000D01*
X1485599Y719509D01*
X1474548Y736048D01*
X1458009Y747099D01*
X1438500Y750979D01*
D02*
G37*
G36*
X1015000Y614196D02*
Y581200D01*
X1047996D01*
X1047099Y585709D01*
X1036048Y602248D01*
X1019509Y613299D01*
X1015000Y614196D01*
D02*
G37*
G36*
X985000D02*
X980491Y613299D01*
X963952Y602248D01*
X952901Y585709D01*
X952004Y581200D01*
X985000D01*
Y614196D01*
D02*
G37*
G36*
X1047996Y551200D02*
X1015000D01*
Y518204D01*
X1019509Y519101D01*
X1036048Y530152D01*
X1047099Y546691D01*
X1047996Y551200D01*
D02*
G37*
G36*
X985000D02*
X952004D01*
X952901Y546691D01*
X963952Y530152D01*
X980491Y519101D01*
X985000Y518204D01*
Y551200D01*
D02*
G37*
G36*
X444466Y685000D02*
X265000D01*
Y505534D01*
X288227Y507822D01*
X324984Y518972D01*
X358860Y537079D01*
X388553Y561447D01*
X412921Y591140D01*
X431028Y625016D01*
X442178Y661773D01*
X444466Y685000D01*
D02*
G37*
G36*
X355000Y487996D02*
Y455000D01*
X387996D01*
X387099Y459509D01*
X376048Y476048D01*
X359509Y487099D01*
X355000Y487996D01*
D02*
G37*
G36*
X325000D02*
X320491Y487099D01*
X303952Y476048D01*
X292901Y459509D01*
X292004Y455000D01*
X325000D01*
Y487996D01*
D02*
G37*
G36*
X387996Y425000D02*
X355000D01*
Y392004D01*
X359509Y392901D01*
X376048Y403952D01*
X387099Y420491D01*
X387996Y425000D01*
D02*
G37*
G36*
X325000D02*
X292004D01*
X292901Y420491D01*
X303952Y403952D01*
X320491Y392901D01*
X325000Y392004D01*
Y425000D01*
D02*
G37*
G36*
X1440000Y197996D02*
Y165000D01*
X1472996D01*
X1472099Y169509D01*
X1461048Y186048D01*
X1444509Y197099D01*
X1440000Y197996D01*
D02*
G37*
G36*
X1410000D02*
X1405491Y197099D01*
X1388952Y186048D01*
X1377901Y169509D01*
X1377004Y165000D01*
X1410000D01*
Y197996D01*
D02*
G37*
G36*
X1472996Y135000D02*
X1440000D01*
Y102004D01*
X1444509Y102901D01*
X1461048Y113952D01*
X1472099Y130491D01*
X1472996Y135000D01*
D02*
G37*
G36*
X1410000D02*
X1377004D01*
X1377901Y130491D01*
X1388952Y113952D01*
X1405491Y102901D01*
X1410000Y102004D01*
Y135000D01*
D02*
G37*
G36*
X209849Y300000D02*
X190151D01*
X170831Y296157D01*
X152632Y288619D01*
X136254Y277675D01*
X122325Y263746D01*
X111381Y247368D01*
X103843Y229169D01*
X100000Y209849D01*
Y190151D01*
X103843Y170831D01*
X111381Y152632D01*
X122325Y136254D01*
X136254Y122325D01*
X152632Y111381D01*
X170831Y103843D01*
X190151Y100000D01*
X209849D01*
X229169Y103843D01*
X247368Y111381D01*
X263746Y122325D01*
X277675Y136254D01*
X288619Y152632D01*
X296157Y170831D01*
X300000Y190151D01*
Y209849D01*
X296157Y229169D01*
X288619Y247368D01*
X277675Y263746D01*
X263746Y277675D01*
X247368Y288619D01*
X229169Y296157D01*
X209849Y300000D01*
D02*
G37*
%LPD*%
G36*
X428322Y3242388D02*
X442388Y3228322D01*
X450000Y3209945D01*
Y3200000D01*
Y3190054D01*
X442388Y3171677D01*
X428322Y3157612D01*
X409945Y3150000D01*
X390054D01*
X371677Y3157612D01*
X357612Y3171677D01*
X350000Y3190054D01*
Y3200000D01*
Y3209945D01*
X357612Y3228322D01*
X371677Y3242388D01*
X390054Y3250000D01*
X409945D01*
X428322Y3242388D01*
D02*
G37*
G36*
X228323Y242388D02*
X242388Y228323D01*
X250000Y209945D01*
Y200000D01*
Y190054D01*
X242388Y171677D01*
X228323Y157612D01*
X209945Y150000D01*
X190054D01*
X171677Y157612D01*
X157612Y171677D01*
X150000Y190054D01*
Y200000D01*
Y209945D01*
X157612Y228323D01*
X171677Y242388D01*
X190054Y250000D01*
X209945D01*
X228323Y242388D01*
D02*
G37*
%LPC*%
G36*
X3735000Y2185000D02*
X3555534D01*
X3557822Y2161773D01*
X3568972Y2125016D01*
X3587079Y2091140D01*
X3611447Y2061447D01*
X3641140Y2037079D01*
X3675016Y2018972D01*
X3711773Y2007821D01*
X3735000Y2005534D01*
Y2185000D01*
D02*
G37*
G36*
X2945000Y1877996D02*
Y1845000D01*
X2977996D01*
X2977099Y1849509D01*
X2966048Y1866048D01*
X2949509Y1877099D01*
X2945000Y1877996D01*
D02*
G37*
G36*
X3448871Y1930000D02*
X3283871D01*
Y1854875D01*
X3263871Y1844185D01*
X3259509Y1847099D01*
X3255000Y1847996D01*
Y1800000D01*
Y1752004D01*
X3259509Y1752901D01*
X3263871Y1755815D01*
X3283871Y1745125D01*
Y1715000D01*
X3448871D01*
Y1930000D01*
D02*
G37*
G36*
X3225000Y1847996D02*
X3220491Y1847099D01*
X3203952Y1836048D01*
X3192901Y1819509D01*
X3192004Y1815000D01*
X3225000D01*
Y1847996D01*
D02*
G37*
G36*
X2977996Y1815000D02*
X2945000D01*
Y1782004D01*
X2949509Y1782901D01*
X2966048Y1793952D01*
X2977099Y1810491D01*
X2977996Y1815000D01*
D02*
G37*
G36*
X3225000Y1785000D02*
X3192004D01*
X3192901Y1780491D01*
X3203952Y1763952D01*
X3220491Y1752901D01*
X3225000Y1752004D01*
Y1785000D01*
D02*
G37*
G36*
X3643871Y1930000D02*
X3478871D01*
Y1715000D01*
X3643871D01*
Y1930000D01*
D02*
G37*
G36*
X3705000Y1657996D02*
Y1625000D01*
X3737996D01*
X3737099Y1629509D01*
X3726048Y1646048D01*
X3709509Y1657099D01*
X3705000Y1657996D01*
D02*
G37*
G36*
X3850000Y1904472D02*
X3830421Y1901894D01*
X3812176Y1894337D01*
X3796509Y1882316D01*
X3784488Y1866648D01*
X3776930Y1848404D01*
X3774353Y1828825D01*
X3776930Y1809246D01*
X3784488Y1791001D01*
X3796509Y1775334D01*
X3796521Y1775325D01*
Y1755325D01*
X3796509Y1755316D01*
X3784488Y1739648D01*
X3776930Y1721404D01*
X3774353Y1701825D01*
X3776930Y1682246D01*
X3784488Y1664001D01*
X3796509Y1648334D01*
X3796521Y1648325D01*
Y1628325D01*
X3796509Y1628316D01*
X3784488Y1612648D01*
X3776930Y1594404D01*
X3776328Y1589825D01*
X3850000D01*
X3923672D01*
X3923069Y1594404D01*
X3915512Y1612648D01*
X3903491Y1628316D01*
X3903478Y1628325D01*
Y1648325D01*
X3903491Y1648334D01*
X3915512Y1664001D01*
X3923069Y1682246D01*
X3925647Y1701825D01*
X3923069Y1721404D01*
X3915512Y1739648D01*
X3903491Y1755316D01*
X3903478Y1755325D01*
Y1775325D01*
X3903491Y1775334D01*
X3915512Y1791001D01*
X3923069Y1809246D01*
X3925647Y1828825D01*
X3923069Y1848404D01*
X3915512Y1866648D01*
X3903491Y1882316D01*
X3887824Y1894337D01*
X3869579Y1901894D01*
X3850000Y1904472D01*
D02*
G37*
G36*
X3737996Y1595000D02*
X3705000D01*
Y1562004D01*
X3709509Y1562901D01*
X3726048Y1573952D01*
X3737099Y1590491D01*
X3737996Y1595000D01*
D02*
G37*
G36*
X3643871Y1685000D02*
X3478871D01*
Y1470000D01*
X3643871D01*
Y1556634D01*
X3663871Y1567325D01*
X3670491Y1562901D01*
X3675000Y1562004D01*
Y1610000D01*
Y1657996D01*
X3670491Y1657099D01*
X3663871Y1652676D01*
X3643871Y1663366D01*
Y1685000D01*
D02*
G37*
G36*
X3923672Y1559825D02*
X3850000D01*
X3776328D01*
X3776930Y1555246D01*
X3782075Y1542825D01*
X3775000Y1522824D01*
X3775000D01*
Y1372825D01*
X3925000D01*
Y1522824D01*
X3925000D01*
X3917924Y1542825D01*
X3923069Y1555246D01*
X3923672Y1559825D01*
D02*
G37*
G36*
X2995000Y1529996D02*
Y1497000D01*
X3027996D01*
X3027099Y1501509D01*
X3016048Y1518048D01*
X2999509Y1529099D01*
X2995000Y1529996D01*
D02*
G37*
G36*
X2965000D02*
X2960491Y1529099D01*
X2943952Y1518048D01*
X2932901Y1501509D01*
X2932004Y1497000D01*
X2965000D01*
Y1529996D01*
D02*
G37*
G36*
X3448871Y1685000D02*
X3283871D01*
Y1470000D01*
X3448871D01*
Y1685000D01*
D02*
G37*
G36*
X3027996Y1467000D02*
X2995000D01*
Y1434004D01*
X2999509Y1434901D01*
X3016048Y1445952D01*
X3027099Y1462491D01*
X3027996Y1467000D01*
D02*
G37*
G36*
X2965000D02*
X2932004D01*
X2932901Y1462491D01*
X2943952Y1445952D01*
X2960491Y1434901D01*
X2965000Y1434004D01*
Y1467000D01*
D02*
G37*
G36*
X3095000Y1147996D02*
Y1115000D01*
X3127996D01*
X3127099Y1119509D01*
X3116048Y1136048D01*
X3099509Y1147099D01*
X3095000Y1147996D01*
D02*
G37*
G36*
X3065000D02*
X3060491Y1147099D01*
X3043952Y1136048D01*
X3032901Y1119509D01*
X3032004Y1115000D01*
X3065000D01*
Y1147996D01*
D02*
G37*
G36*
X3127996Y1085000D02*
X3095000D01*
Y1052004D01*
X3099509Y1052901D01*
X3116048Y1063952D01*
X3127099Y1080491D01*
X3127996Y1085000D01*
D02*
G37*
G36*
X3065000D02*
X3032004D01*
X3032901Y1080491D01*
X3043952Y1063952D01*
X3060491Y1052901D01*
X3065000Y1052004D01*
Y1085000D01*
D02*
G37*
G36*
X2615000Y957996D02*
X2610491Y957099D01*
X2593952Y946048D01*
X2582901Y929509D01*
X2582004Y925000D01*
X2615000D01*
Y957996D01*
D02*
G37*
G36*
X2561771Y750979D02*
X2542262Y747099D01*
X2525723Y736048D01*
X2514672Y719509D01*
X2510791Y700000D01*
X2514672Y680491D01*
X2525723Y663952D01*
X2542262Y652901D01*
X2561771Y649020D01*
X2581280Y652901D01*
X2597819Y663952D01*
X2608870Y680491D01*
X2612750Y700000D01*
X2608870Y719509D01*
X2597819Y736048D01*
X2581280Y747099D01*
X2561771Y750979D01*
D02*
G37*
G36*
X3850000Y1106647D02*
X3830421Y1104069D01*
X3812177Y1096512D01*
X3796509Y1084491D01*
X3784488Y1068823D01*
X3776930Y1050579D01*
X3774353Y1031000D01*
X3776930Y1011421D01*
X3784488Y993177D01*
X3794003Y980776D01*
X3796521Y967900D01*
Y967100D01*
X3794003Y954224D01*
X3784488Y941823D01*
X3776930Y923579D01*
X3774353Y904000D01*
X3776930Y884421D01*
X3784488Y866177D01*
X3794003Y853776D01*
X3796521Y840900D01*
Y840100D01*
X3794003Y827224D01*
X3784488Y814823D01*
X3776930Y796579D01*
X3774353Y777000D01*
X3776930Y757421D01*
X3784488Y739177D01*
X3794003Y726776D01*
X3796521Y713900D01*
Y713100D01*
X3794003Y700224D01*
X3784488Y687823D01*
X3776930Y669579D01*
X3774353Y650000D01*
X3776930Y630421D01*
X3784488Y612177D01*
X3794003Y599776D01*
X3796521Y586900D01*
Y586100D01*
X3794003Y573224D01*
X3784488Y560823D01*
X3776930Y542579D01*
X3776328Y538000D01*
X3850000D01*
X3923672D01*
X3923069Y542579D01*
X3915512Y560823D01*
X3905997Y573224D01*
X3903478Y586100D01*
Y586900D01*
X3905997Y599776D01*
X3915512Y612177D01*
X3923069Y630421D01*
X3925647Y650000D01*
X3923069Y669579D01*
X3915512Y687823D01*
X3905997Y700224D01*
X3903478Y713100D01*
Y713900D01*
X3905997Y726776D01*
X3915512Y739177D01*
X3923069Y757421D01*
X3925647Y777000D01*
X3923069Y796579D01*
X3915512Y814823D01*
X3905997Y827224D01*
X3903478Y840100D01*
Y840900D01*
X3905997Y853776D01*
X3915512Y866177D01*
X3923069Y884421D01*
X3925647Y904000D01*
X3923069Y923579D01*
X3915512Y941823D01*
X3905997Y954224D01*
X3903478Y967100D01*
Y967900D01*
X3905997Y980776D01*
X3915512Y993177D01*
X3923069Y1011421D01*
X3925647Y1031000D01*
X3923069Y1050579D01*
X3915512Y1068823D01*
X3903491Y1084491D01*
X3887823Y1096512D01*
X3869579Y1104069D01*
X3850000Y1106647D01*
D02*
G37*
G36*
X3923672Y508001D02*
X3850000D01*
X3776327D01*
X3776930Y503421D01*
X3782075Y491000D01*
X3775000Y471000D01*
X3775000D01*
Y321000D01*
X3925000D01*
Y471000D01*
X3925000D01*
X3917924Y491000D01*
X3923069Y503421D01*
X3923672Y508001D01*
D02*
G37*
G36*
X3570000Y570980D02*
X3550491Y567099D01*
X3533952Y556048D01*
X3522901Y539509D01*
X3519020Y520000D01*
X3522901Y500491D01*
X3533952Y483952D01*
X3550491Y472901D01*
X3570000Y469020D01*
X3589509Y472901D01*
X3606048Y483952D01*
X3617099Y500491D01*
X3620980Y520000D01*
X3617099Y539509D01*
X3606048Y556048D01*
X3589509Y567099D01*
X3570000Y570980D01*
D02*
G37*
G36*
X3395000Y237996D02*
Y205000D01*
X3427996D01*
X3427099Y209509D01*
X3416048Y226048D01*
X3399509Y237099D01*
X3395000Y237996D01*
D02*
G37*
G36*
X3365000D02*
X3360491Y237099D01*
X3343952Y226048D01*
X3332901Y209509D01*
X3332004Y205000D01*
X3365000D01*
Y237996D01*
D02*
G37*
G36*
X2495000Y227996D02*
Y195000D01*
X2527996D01*
X2527099Y199509D01*
X2516048Y216048D01*
X2499509Y227099D01*
X2495000Y227996D01*
D02*
G37*
G36*
X2750000Y250980D02*
X2730491Y247099D01*
X2713952Y236048D01*
X2702901Y219509D01*
X2699021Y200000D01*
X2702901Y180491D01*
X2713952Y163952D01*
X2730491Y152901D01*
X2750000Y149021D01*
X2769509Y152901D01*
X2786048Y163952D01*
X2797099Y180491D01*
X2800980Y200000D01*
X2797099Y219509D01*
X2786048Y236048D01*
X2769509Y247099D01*
X2750000Y250980D01*
D02*
G37*
G36*
X3427996Y175000D02*
X3395000D01*
Y142004D01*
X3399509Y142901D01*
X3416048Y153952D01*
X3427099Y170491D01*
X3427996Y175000D01*
D02*
G37*
G36*
X3365000D02*
X3332004D01*
X3332901Y170491D01*
X3343952Y153952D01*
X3360491Y142901D01*
X3365000Y142004D01*
Y175000D01*
D02*
G37*
G36*
X2527996Y165000D02*
X2495000D01*
Y132004D01*
X2499509Y132901D01*
X2516048Y143952D01*
X2527099Y160491D01*
X2527996Y165000D01*
D02*
G37*
G36*
X3609849Y300000D02*
X3590151D01*
X3570831Y296157D01*
X3552632Y288619D01*
X3536254Y277675D01*
X3522325Y263746D01*
X3511381Y247368D01*
X3503843Y229169D01*
X3500000Y209849D01*
Y190150D01*
X3503843Y170831D01*
X3511381Y152632D01*
X3522325Y136253D01*
X3536254Y122325D01*
X3552632Y111381D01*
X3570831Y103843D01*
X3590151Y100000D01*
X3609849D01*
X3629169Y103843D01*
X3647368Y111381D01*
X3663746Y122325D01*
X3677675Y136253D01*
X3688619Y152632D01*
X3696157Y170831D01*
X3700000Y190150D01*
Y209849D01*
X3696157Y229169D01*
X3688619Y247368D01*
X3677675Y263746D01*
X3663746Y277675D01*
X3647368Y288619D01*
X3629169Y296157D01*
X3609849Y300000D01*
D02*
G37*
%LPD*%
G36*
X3628322Y242388D02*
X3642388Y228322D01*
X3650000Y209945D01*
Y200000D01*
Y190054D01*
X3642388Y171677D01*
X3628322Y157612D01*
X3609945Y150000D01*
X3590054D01*
X3571677Y157612D01*
X3557612Y171677D01*
X3550000Y190054D01*
Y200000D01*
Y209945D01*
X3557612Y228322D01*
X3571677Y242388D01*
X3590054Y250000D01*
X3609945D01*
X3628322Y242388D01*
D02*
G37*
%LPC*%
G36*
X2283185Y2937606D02*
X2263676Y2933725D01*
X2247137Y2922674D01*
X2236086Y2906135D01*
X2232206Y2886626D01*
X2236086Y2867117D01*
X2247137Y2850578D01*
X2263676Y2839527D01*
X2283185Y2835647D01*
X2302694Y2839527D01*
X2319233Y2850578D01*
X2330284Y2867117D01*
X2334165Y2886626D01*
X2330284Y2906135D01*
X2319233Y2922674D01*
X2302694Y2933725D01*
X2283185Y2937606D01*
D02*
G37*
G36*
X2255000Y2633122D02*
Y2600126D01*
X2287996D01*
X2287099Y2604635D01*
X2276048Y2621174D01*
X2259509Y2632225D01*
X2255000Y2633122D01*
D02*
G37*
G36*
X2225000D02*
X2220491Y2632225D01*
X2203952Y2621174D01*
X2192901Y2604635D01*
X2192004Y2600126D01*
X2225000D01*
Y2633122D01*
D02*
G37*
G36*
X2287996Y2570126D02*
X2255000D01*
Y2537131D01*
X2259509Y2538027D01*
X2276048Y2549078D01*
X2287099Y2565617D01*
X2287996Y2570126D01*
D02*
G37*
G36*
X2225000D02*
X2192004D01*
X2192901Y2565617D01*
X2203952Y2549078D01*
X2220491Y2538027D01*
X2225000Y2537131D01*
Y2570126D01*
D02*
G37*
G36*
X2252251Y2333106D02*
X2232742Y2329225D01*
X2216203Y2318174D01*
X2205152Y2301635D01*
X2201271Y2282127D01*
X2205152Y2262618D01*
X2216203Y2246079D01*
X2232742Y2235028D01*
X2252251Y2231147D01*
X2271760Y2235028D01*
X2288299Y2246079D01*
X2299350Y2262618D01*
X2303230Y2282127D01*
X2299350Y2301635D01*
X2288299Y2318174D01*
X2271760Y2329225D01*
X2252251Y2333106D01*
D02*
G37*
G36*
X1974300Y991275D02*
X1919300D01*
Y796275D01*
Y601275D01*
X1974300D01*
Y771012D01*
X1985000Y779218D01*
Y836197D01*
Y893175D01*
X1974300Y901382D01*
Y991275D01*
D02*
G37*
%LPD*%
D10*
X2200000Y387500D02*
X2277500Y465000D01*
X2200000Y180000D02*
Y387500D01*
X2277500Y465000D02*
Y832500D01*
X1658727Y421275D02*
X1808725D01*
X1841951Y388049D02*
X1841951D01*
X1808725Y421275D02*
X1841951Y388049D01*
X1900000Y180000D02*
Y330000D01*
X1841951Y388049D02*
X1900000Y330000D01*
X1628201Y451801D02*
Y1290127D01*
Y451801D02*
X1658727Y421275D01*
X2275032Y1692398D02*
X2277138Y1694504D01*
X2275032Y1667885D02*
Y1692398D01*
X2195000Y516972D02*
Y1551422D01*
X2232456Y1625309D02*
X2275032Y1667885D01*
X2195000Y1551422D02*
X2232456Y1588878D01*
Y1625309D01*
X2682654Y854369D02*
X2705222Y876937D01*
X2650000Y1939176D02*
X2705222Y1883954D01*
Y876937D02*
Y1883954D01*
X2750000Y725000D02*
Y1925825D01*
X3256275Y2083800D02*
X3698588Y2526113D01*
Y2638588D01*
X2597500Y2083800D02*
X3256275D01*
X3698588Y2638588D02*
X3700000Y2640000D01*
X2606391Y2268609D02*
X2650000Y2225000D01*
X2606391Y2525000D02*
X2650000Y2568609D01*
X2606391Y2268609D02*
Y2525000D01*
X2726391Y2223609D02*
Y2973609D01*
X2725000Y2975000D02*
X2726391Y2973609D01*
X2650000Y2568609D02*
Y2825000D01*
X2555790Y2668199D02*
Y3075907D01*
X2547592Y2660000D02*
X2555790Y2668199D01*
X1922894Y2675166D02*
X2323635Y3075907D01*
X1922894Y1867747D02*
Y2675166D01*
X2000000Y1850000D02*
Y2270148D01*
X1975000Y1825000D02*
X2000000Y1850000D01*
X1740000Y2096835D02*
Y2160000D01*
X1794162Y1824222D02*
Y2042673D01*
X1740000Y2096835D02*
X1794162Y2042673D01*
X1881618Y1821618D02*
Y1826471D01*
X1922894Y1867747D01*
X1754162Y1807653D02*
Y1881274D01*
X1754752Y1805248D02*
Y1807063D01*
X1694752Y1799258D02*
X1700000Y1794011D01*
X1754752Y1805248D02*
X1880000Y1680000D01*
X1700000Y1660000D02*
Y1794011D01*
X1754162Y1807653D02*
X1754752Y1807063D01*
X1794162Y1824222D02*
X1890019Y1728365D01*
X1957406D01*
X1592764Y2042673D02*
X1754162Y1881274D01*
X1773407Y662423D02*
Y1586593D01*
X1705783Y594800D02*
X1773407Y662423D01*
X1700000Y1660000D02*
X1773407Y1586593D01*
X1814926Y555095D02*
Y1654802D01*
X1815000Y1654876D01*
X1812447Y552616D02*
X1814926Y555095D01*
X1804794Y523379D02*
X1812447Y531032D01*
Y552616D01*
X1628201Y1290127D02*
X1695114Y1357040D01*
Y1360607D01*
X1705783Y483915D02*
Y594800D01*
X2191248Y1760000D02*
X2487144D01*
X2175624Y1775625D02*
X2191248Y1760000D01*
X2429995Y1889996D02*
Y2720005D01*
X2425000Y2725000D02*
X2429995Y2720005D01*
X2250000Y1820000D02*
X2490245D01*
X2520000Y1849754D01*
Y2066300D01*
X2682654Y832653D02*
Y854369D01*
X2675000Y825000D02*
X2682654Y832653D01*
X2650000Y1939176D02*
Y1950000D01*
X2240000Y1107781D02*
X2319995Y1187777D01*
X2240000Y870000D02*
Y1107781D01*
Y870000D02*
X2277500Y832500D01*
X2319995Y1187777D02*
Y1299997D01*
X2195000Y516972D02*
X2200000Y511972D01*
X2077653Y1247654D02*
Y1267654D01*
X2070000Y1240000D02*
X2077653Y1247654D01*
X1880000Y1240000D02*
Y1680000D01*
X1380000Y1650000D02*
Y1860000D01*
X2446056Y552348D02*
Y1353944D01*
X2300000Y1500000D02*
X2446056Y1353944D01*
X412608Y2730701D02*
X1300000Y1843309D01*
Y1750000D02*
Y1843309D01*
X150000Y2730701D02*
X412608D01*
X382299Y2857701D02*
X1380000Y1860000D01*
X150000Y2857701D02*
X382299D01*
X1592764Y2042673D02*
Y2046274D01*
X1340000Y2299038D02*
Y2910000D01*
Y2299038D02*
X1592764Y2046274D01*
X2077653Y1267654D02*
X2080000Y1270000D01*
X2000000Y2665333D02*
X2080000Y2585333D01*
Y1270000D02*
Y2585333D01*
X2560000Y2046300D02*
X2597500Y2083800D01*
X2560000Y1832856D02*
Y2046300D01*
X2487144Y1760000D02*
X2560000Y1832856D01*
X2583700Y2130000D02*
X2888417D01*
X3193871Y2435454D01*
X2520000Y2066300D02*
X2583700Y2130000D01*
X2555790Y3075907D02*
X3584093D01*
X2323635D02*
X2555790D01*
X3584093D02*
X3690000Y2970000D01*
D40*
X2438726Y221275D02*
X2480000Y180000D01*
X2342500Y221275D02*
X2438726D01*
X1904300Y796275D02*
Y801197D01*
X1939300Y836197D01*
X2000000D01*
X1672500Y220000D02*
Y221275D01*
Y220000D02*
X1732500Y160000D01*
X1820000D01*
X950000Y875000D02*
X1300000D01*
X875000Y950000D02*
X950000Y875000D01*
X800000D02*
X875000Y950000D01*
X650000Y875000D02*
X800000D01*
D41*
X592500Y2155476D02*
Y2157500D01*
X3463871Y1700000D02*
X3553871Y1610000D01*
X533871Y2096846D02*
X592500Y2155476D01*
X533871Y1700000D02*
Y2096846D01*
X3553871Y1610000D02*
X3690000D01*
D43*
X1851391Y2129562D02*
Y2273609D01*
Y2129562D02*
X1853444Y2127509D01*
X1475000Y2650000D02*
Y2955126D01*
Y2650000D02*
X1851391Y2273609D01*
X2100000Y210000D02*
Y788775D01*
X2107500Y796275D01*
D45*
X3750000Y2200000D02*
D03*
X250000Y700000D02*
D03*
D46*
X150000Y2476701D02*
D03*
X3850000Y1447825D02*
D03*
Y396000D02*
D03*
D47*
X150000Y2603701D02*
D03*
Y2730701D02*
D03*
Y2857701D02*
D03*
Y2984701D02*
D03*
Y3111701D02*
D03*
X3850000Y1574825D02*
D03*
Y1701825D02*
D03*
Y1828825D02*
D03*
Y523000D02*
D03*
Y650000D02*
D03*
Y777000D02*
D03*
Y904000D02*
D03*
Y1031000D02*
D03*
X1327000Y1526274D02*
D03*
X1200000D02*
D03*
D48*
X3312371Y3239427D02*
D03*
X3058371D02*
D03*
X2804371D02*
D03*
D49*
X3566371D02*
D03*
D50*
X1073000Y1526274D02*
D03*
D51*
X3193871Y2153065D02*
D03*
X2829994Y1809996D02*
D03*
X2480000Y180000D02*
D03*
X3690000Y1610000D02*
D03*
X592500Y2157500D02*
D03*
X2145000Y1586274D02*
D03*
X2277138Y1694504D02*
D03*
X3711912Y2454585D02*
D03*
X2666391Y2364177D02*
D03*
X2547592Y2660000D02*
D03*
X2836721Y2364177D02*
D03*
X2000000Y2270148D02*
D03*
X1693784Y2058572D02*
D03*
X1853444Y2127509D02*
D03*
X1694752Y1799258D02*
D03*
X1881618Y1821618D02*
D03*
X1695114Y1360607D02*
D03*
X1700000Y1270000D02*
D03*
X1705783Y483915D02*
D03*
X1620000Y2130865D02*
D03*
X1740000Y2160000D02*
D03*
X1380000Y2113799D02*
D03*
X884216Y2905001D02*
D03*
X1161895Y3025000D02*
D03*
X2639273Y2223700D02*
D03*
X2756474Y1926334D02*
D03*
X2429995Y1889996D02*
D03*
X2175624Y1775625D02*
D03*
X2250000Y1820000D02*
D03*
X2607591Y1645500D02*
D03*
X2292456Y1600456D02*
D03*
X2980000Y1482000D02*
D03*
X2319995Y1299997D02*
D03*
X2379995Y1149998D02*
D03*
X2675000Y825000D02*
D03*
X1975000Y1825000D02*
D03*
X2750000Y725000D02*
D03*
X1300000Y1750000D02*
D03*
X1815000Y1654876D02*
D03*
X1968229Y1586274D02*
D03*
X2300000Y1500000D02*
D03*
X1880000Y1240000D02*
D03*
X1957406Y1728365D02*
D03*
X2255000Y1240000D02*
D03*
X1380000Y1650000D02*
D03*
X2070000Y1240000D02*
D03*
X1804794Y523379D02*
D03*
X319999Y1609997D02*
D03*
X2823370Y2825000D02*
D03*
X3596173Y2660827D02*
D03*
X1161895Y3225000D02*
D03*
X2283185Y2886626D02*
D03*
X2252251Y2282127D02*
D03*
X3570000Y520000D02*
D03*
X2607500Y1100000D02*
D03*
X2561771Y700000D02*
D03*
X2300000Y910000D02*
D03*
X2200000Y511972D02*
D03*
X1438500Y700000D02*
D03*
X1567500Y1050000D02*
D03*
X1039641Y1700000D02*
D03*
X775000Y3299216D02*
D03*
X640000Y3006552D02*
D03*
X570000Y3065000D02*
D03*
X907500Y3225000D02*
D03*
X1432500Y1050000D02*
D03*
X2203185Y3072627D02*
D03*
X2088185D02*
D03*
X2240000Y2585126D02*
D03*
X2972370Y2743326D02*
D03*
X3423871Y2475126D02*
D03*
X2930000Y1830000D02*
D03*
X3240000Y1800000D02*
D03*
X2000000Y836197D02*
D03*
X1820000Y160000D02*
D03*
X2630000Y910000D02*
D03*
X3080000Y1100000D02*
D03*
X3380000Y190000D02*
D03*
X340000Y440000D02*
D03*
X1000000Y566200D02*
D03*
X1340000Y2910000D02*
D03*
X1730000Y2810000D02*
D03*
X2000000Y2665333D02*
D03*
X1475000Y2955126D02*
D03*
X1650000Y2725000D02*
D03*
X1480000Y1890000D02*
D03*
X790000Y1570000D02*
D03*
X670000Y1010000D02*
D03*
X340000Y2350000D02*
D03*
X3700000Y2640000D02*
D03*
X3193871Y2435454D02*
D03*
X3690000Y2970000D02*
D03*
X2200000Y180000D02*
D03*
X2100000Y210000D02*
D03*
X1900000Y180000D02*
D03*
X2446056Y552348D02*
D03*
X2732864Y2224118D02*
D03*
X2650000Y2825000D02*
D03*
X2725000Y2975000D02*
D03*
X2639273Y1948700D02*
D03*
X2425000Y2725000D02*
D03*
X1725000Y2655000D02*
D03*
X240000Y2150000D02*
D03*
X440000D02*
D03*
X1425000Y150000D02*
D03*
X2750000Y200000D02*
D03*
X1300000Y875000D02*
D03*
X875000Y775000D02*
D03*
X1100000Y950000D02*
D03*
X650000Y875000D02*
D03*
X875000Y950000D02*
D03*
D57*
X533871Y1700000D02*
D03*
X3463871D02*
D03*
D58*
X2342500Y221275D02*
D03*
X1672500D02*
D03*
D59*
X1904300Y796275D02*
D03*
X2107500D02*
D03*
%TF.MD5,c71ae31d57bf6ab5fb755aa80dfbe2ae*%
M02*
