%TF.GenerationSoftware,Altium Limited,Altium Designer,20.2.6 (244)*%
G04 Layer_Physical_Order=1*
G04 Layer_Color=255*
%FSLAX26Y26*%
%MOIN*%
%TF.SameCoordinates,F510FE91-707F-497D-95C4-29CC72B958AA*%
%TF.FilePolarity,Positive*%
%TF.FileFunction,Copper,L1,Top,Signal*%
%TF.Part,Single*%
G01*
G75*
%TA.AperFunction,SMDPad,CuDef*%
G04:AMPARAMS|DCode=10|XSize=78.74mil|YSize=39.37mil|CornerRadius=15.748mil|HoleSize=0mil|Usage=FLASHONLY|Rotation=0.000|XOffset=0mil|YOffset=0mil|HoleType=Round|Shape=RoundedRectangle|*
%AMROUNDEDRECTD10*
21,1,0.078740,0.007874,0,0,0.0*
21,1,0.047244,0.039370,0,0,0.0*
1,1,0.031496,0.023622,-0.003937*
1,1,0.031496,-0.023622,-0.003937*
1,1,0.031496,-0.023622,0.003937*
1,1,0.031496,0.023622,0.003937*
%
%ADD10ROUNDEDRECTD10*%
G04:AMPARAMS|DCode=11|XSize=118.11mil|YSize=39.37mil|CornerRadius=15.748mil|HoleSize=0mil|Usage=FLASHONLY|Rotation=270.000|XOffset=0mil|YOffset=0mil|HoleType=Round|Shape=RoundedRectangle|*
%AMROUNDEDRECTD11*
21,1,0.118110,0.007874,0,0,270.0*
21,1,0.086614,0.039370,0,0,270.0*
1,1,0.031496,-0.003937,-0.043307*
1,1,0.031496,-0.003937,0.043307*
1,1,0.031496,0.003937,0.043307*
1,1,0.031496,0.003937,-0.043307*
%
%ADD11ROUNDEDRECTD11*%
%TA.AperFunction,ComponentPad*%
%ADD12C,0.059055*%
%ADD13R,0.059055X0.059055*%
G36*
X533287Y17894D02*
X195059D01*
Y187008D01*
X533287D01*
Y17894D01*
D02*
G37*
G36*
Y206693D02*
X195059D01*
Y375807D01*
X533287D01*
Y206693D01*
D02*
G37*
%LPC*%
G36*
X442913Y86852D02*
X435719Y85905D01*
X429015Y83128D01*
X423258Y78710D01*
X418841Y72954D01*
X416064Y66249D01*
X415117Y59055D01*
X416064Y51861D01*
X418841Y45157D01*
X423258Y39400D01*
X429015Y34982D01*
X435719Y32206D01*
X442913Y31258D01*
X450108Y32206D01*
X456812Y34982D01*
X462569Y39400D01*
X466986Y45157D01*
X469763Y51861D01*
X470710Y59055D01*
X469763Y66249D01*
X466986Y72954D01*
X462569Y78710D01*
X456812Y83128D01*
X450108Y85905D01*
X442913Y86852D01*
D02*
G37*
G36*
X285433D02*
X278239Y85905D01*
X271535Y83128D01*
X265778Y78710D01*
X261360Y72954D01*
X258584Y66249D01*
X257636Y59055D01*
X258584Y51861D01*
X261360Y45157D01*
X265778Y39400D01*
X271535Y34982D01*
X278239Y32206D01*
X285433Y31258D01*
X292627Y32206D01*
X299332Y34982D01*
X305088Y39400D01*
X309506Y45157D01*
X312283Y51861D01*
X313230Y59055D01*
X312283Y66249D01*
X309506Y72954D01*
X305088Y78710D01*
X299332Y83128D01*
X292627Y85905D01*
X285433Y86852D01*
D02*
G37*
G36*
X442913Y362442D02*
X435719Y361495D01*
X429015Y358718D01*
X423258Y354301D01*
X418841Y348544D01*
X416064Y341840D01*
X415117Y334646D01*
X416064Y327451D01*
X418841Y320747D01*
X423258Y314990D01*
X429015Y310573D01*
X435719Y307796D01*
X442913Y306849D01*
X450108Y307796D01*
X456812Y310573D01*
X462569Y314990D01*
X466986Y320747D01*
X469763Y327451D01*
X470710Y334646D01*
X469763Y341840D01*
X466986Y348544D01*
X462569Y354301D01*
X456812Y358718D01*
X450108Y361495D01*
X442913Y362442D01*
D02*
G37*
G36*
X285433D02*
X278239Y361495D01*
X271535Y358718D01*
X265778Y354301D01*
X261360Y348544D01*
X258584Y341840D01*
X257636Y334646D01*
X258584Y327451D01*
X261360Y320747D01*
X265778Y314990D01*
X271535Y310573D01*
X278239Y307796D01*
X285433Y306849D01*
X292627Y307796D01*
X299332Y310573D01*
X305088Y314990D01*
X309506Y320747D01*
X312283Y327451D01*
X313230Y334646D01*
X312283Y341840D01*
X309506Y348544D01*
X305088Y354301D01*
X299332Y358718D01*
X292627Y361495D01*
X285433Y362442D01*
D02*
G37*
%LPD*%
D10*
X364173Y59055D02*
D03*
Y334646D02*
D03*
D11*
X226378Y285433D02*
D03*
X501969D02*
D03*
Y108268D02*
D03*
X226378D02*
D03*
D12*
X314961Y246063D02*
D03*
X414961D02*
D03*
X314961Y146063D02*
D03*
D13*
X414961D02*
D03*
%TF.MD5,daa6aa61729444ffb361bc21dc960c16*%
M02*
