%TF.GenerationSoftware,Altium Limited,Altium Designer,21.2.2 (38)*%
G04 Layer_Color=65535*
%FSLAX45Y45*%
%MOMM*%
%TF.SameCoordinates,07D9DE08-B04B-4C31-AE65-01C2B5DB1128*%
%TF.FilePolarity,Positive*%
%TF.FileFunction,Legend,Top*%
%TF.Part,Single*%
G01*
G75*
%TA.AperFunction,NonConductor*%
%ADD14C,0.20000*%
G36*
X231533Y171106D02*
X232365Y171014D01*
X233382Y170921D01*
X234399Y170829D01*
X235601Y170551D01*
X238097Y169997D01*
X240871Y169165D01*
X242258Y168610D01*
X243552Y167963D01*
X244846Y167130D01*
X246141Y166298D01*
X246233Y166206D01*
X246418Y166113D01*
X246788Y165836D01*
X247250Y165374D01*
X247712Y164912D01*
X248360Y164264D01*
X249007Y163525D01*
X249747Y162785D01*
X250486Y161860D01*
X251226Y160751D01*
X252058Y159642D01*
X252798Y158440D01*
X253445Y157053D01*
X254184Y155666D01*
X254739Y154187D01*
X255294Y152522D01*
X246973Y150581D01*
Y150673D01*
X246880Y150858D01*
X246695Y151228D01*
X246511Y151690D01*
X246326Y152245D01*
X246048Y152985D01*
X245309Y154464D01*
X244384Y156128D01*
X243275Y157792D01*
X241888Y159364D01*
X240408Y160751D01*
X240224Y160936D01*
X239669Y161306D01*
X238744Y161768D01*
X237542Y162415D01*
X235971Y162970D01*
X234214Y163525D01*
X232087Y163895D01*
X229776Y163987D01*
X229036D01*
X228574Y163895D01*
X227927D01*
X227187Y163802D01*
X225431Y163525D01*
X223489Y163155D01*
X221455Y162508D01*
X219328Y161583D01*
X217387Y160381D01*
X217294D01*
X217202Y160196D01*
X216555Y159734D01*
X215723Y158994D01*
X214706Y157885D01*
X213504Y156498D01*
X212394Y154926D01*
X211377Y152985D01*
X210453Y150858D01*
Y150766D01*
X210360Y150581D01*
X210268Y150303D01*
X210175Y149841D01*
X209990Y149286D01*
X209806Y148639D01*
X209528Y147068D01*
X209158Y145218D01*
X208789Y143184D01*
X208604Y140965D01*
X208511Y138562D01*
Y138469D01*
Y138192D01*
Y137729D01*
Y137175D01*
X208604Y136528D01*
Y135695D01*
X208696Y134771D01*
X208789Y133754D01*
X209066Y131535D01*
X209528Y129131D01*
X210083Y126727D01*
X210823Y124323D01*
Y124231D01*
X210915Y124046D01*
X211100Y123769D01*
X211285Y123306D01*
X211840Y122197D01*
X212672Y120902D01*
X213689Y119423D01*
X214983Y117851D01*
X216462Y116465D01*
X218219Y115170D01*
X218311D01*
X218496Y115078D01*
X218774Y114893D01*
X219144Y114708D01*
X219606Y114523D01*
X220161Y114246D01*
X221455Y113691D01*
X223119Y113136D01*
X224968Y112674D01*
X227002Y112304D01*
X229129Y112212D01*
X229776D01*
X230331Y112304D01*
X230978D01*
X231625Y112397D01*
X233289Y112766D01*
X235231Y113229D01*
X237173Y113968D01*
X239207Y114985D01*
X240224Y115540D01*
X241148Y116280D01*
X241241Y116372D01*
X241333Y116465D01*
X241610Y116742D01*
X241980Y117019D01*
X242350Y117482D01*
X242812Y118036D01*
X243367Y118591D01*
X243829Y119331D01*
X244384Y120163D01*
X245031Y121087D01*
X245586Y122012D01*
X246141Y123121D01*
X246603Y124323D01*
X247065Y125618D01*
X247528Y127005D01*
X247897Y128484D01*
X256403Y126357D01*
Y126265D01*
X256311Y125895D01*
X256126Y125340D01*
X255849Y124601D01*
X255571Y123769D01*
X255201Y122752D01*
X254739Y121642D01*
X254184Y120440D01*
X252890Y117851D01*
X251226Y115263D01*
X250209Y113968D01*
X249192Y112674D01*
X248082Y111564D01*
X246788Y110455D01*
X246695Y110362D01*
X246511Y110178D01*
X246048Y109993D01*
X245586Y109623D01*
X244846Y109161D01*
X244107Y108698D01*
X243090Y108236D01*
X242073Y107774D01*
X240871Y107219D01*
X239576Y106757D01*
X238190Y106294D01*
X236710Y105832D01*
X235138Y105462D01*
X233474Y105277D01*
X231718Y105093D01*
X229868Y105000D01*
X228851D01*
X228112Y105093D01*
X227280D01*
X226263Y105185D01*
X225153Y105370D01*
X223859Y105555D01*
X221178Y106017D01*
X218404Y106757D01*
X215630Y107774D01*
X214336Y108421D01*
X213041Y109161D01*
X212949Y109253D01*
X212764Y109345D01*
X212394Y109623D01*
X212024Y109993D01*
X211470Y110362D01*
X210823Y110917D01*
X210083Y111564D01*
X209343Y112304D01*
X208604Y113136D01*
X207771Y113968D01*
X206107Y116095D01*
X204536Y118591D01*
X203149Y121365D01*
Y121457D01*
X202964Y121735D01*
X202871Y122197D01*
X202594Y122752D01*
X202409Y123491D01*
X202132Y124416D01*
X201762Y125433D01*
X201484Y126542D01*
X201207Y127744D01*
X200837Y129131D01*
X200375Y131997D01*
X200005Y135233D01*
X199820Y138562D01*
Y138654D01*
Y139024D01*
Y139579D01*
X199913Y140226D01*
Y141150D01*
X200005Y142075D01*
X200098Y143277D01*
X200283Y144479D01*
X200745Y147160D01*
X201392Y150119D01*
X202317Y153077D01*
X203611Y155943D01*
X203703Y156036D01*
X203796Y156313D01*
X203981Y156683D01*
X204351Y157145D01*
X204720Y157792D01*
X205183Y158532D01*
X206385Y160196D01*
X207956Y162045D01*
X209806Y163895D01*
X211932Y165744D01*
X214428Y167315D01*
X214521Y167408D01*
X214798Y167500D01*
X215168Y167685D01*
X215630Y167963D01*
X216370Y168240D01*
X217110Y168517D01*
X218034Y168887D01*
X219051Y169257D01*
X220161Y169627D01*
X221363Y169997D01*
X223951Y170551D01*
X226910Y171014D01*
X229961Y171199D01*
X230885D01*
X231533Y171106D01*
D02*
G37*
G36*
X452318Y106110D02*
X444459D01*
Y156128D01*
X444366Y156036D01*
X443904Y155666D01*
X443349Y155111D01*
X442425Y154464D01*
X441408Y153632D01*
X440113Y152707D01*
X438634Y151690D01*
X436970Y150673D01*
X436877D01*
X436785Y150581D01*
X436230Y150211D01*
X435306Y149749D01*
X434196Y149194D01*
X432902Y148547D01*
X431515Y147900D01*
X430128Y147252D01*
X428741Y146698D01*
Y154279D01*
X428834D01*
X429019Y154464D01*
X429389Y154556D01*
X429851Y154834D01*
X430406Y155111D01*
X431053Y155481D01*
X432624Y156406D01*
X434474Y157423D01*
X436323Y158717D01*
X438264Y160196D01*
X440206Y161768D01*
X440298Y161860D01*
X440391Y161953D01*
X440668Y162230D01*
X441038Y162508D01*
X441870Y163432D01*
X442980Y164542D01*
X444089Y165836D01*
X445291Y167315D01*
X446308Y168795D01*
X447233Y170366D01*
X452318D01*
Y106110D01*
D02*
G37*
G36*
X292276Y169997D02*
X293016D01*
X294680Y169812D01*
X296529Y169627D01*
X298471Y169257D01*
X300412Y168795D01*
X302169Y168147D01*
X302262D01*
X302354Y168055D01*
X302909Y167778D01*
X303741Y167315D01*
X304665Y166668D01*
X305775Y165836D01*
X306977Y164819D01*
X308086Y163525D01*
X309103Y162138D01*
X309196Y161953D01*
X309473Y161398D01*
X309935Y160659D01*
X310398Y159549D01*
X310860Y158255D01*
X311322Y156868D01*
X311600Y155296D01*
X311692Y153724D01*
Y153539D01*
Y153077D01*
X311600Y152245D01*
X311415Y151228D01*
X311137Y150026D01*
X310675Y148732D01*
X310120Y147437D01*
X309381Y146051D01*
X309288Y145866D01*
X309011Y145496D01*
X308456Y144756D01*
X307716Y144016D01*
X306792Y143092D01*
X305682Y142075D01*
X304296Y141150D01*
X302724Y140226D01*
X302816D01*
X303001Y140133D01*
X303279Y140041D01*
X303648Y139856D01*
X304758Y139486D01*
X306052Y138839D01*
X307439Y138007D01*
X309011Y136990D01*
X310398Y135788D01*
X311692Y134309D01*
X311784Y134124D01*
X312154Y133569D01*
X312709Y132737D01*
X313264Y131627D01*
X313819Y130148D01*
X314373Y128576D01*
X314743Y126727D01*
X314836Y124693D01*
Y124601D01*
Y124508D01*
Y123954D01*
X314743Y123029D01*
X314558Y121919D01*
X314373Y120625D01*
X314003Y119238D01*
X313541Y117759D01*
X312894Y116280D01*
X312802Y116095D01*
X312524Y115632D01*
X312154Y114985D01*
X311600Y114061D01*
X310860Y113136D01*
X310120Y112119D01*
X309196Y111102D01*
X308179Y110270D01*
X308086Y110178D01*
X307716Y109900D01*
X307069Y109530D01*
X306237Y109161D01*
X305220Y108606D01*
X304018Y108051D01*
X302724Y107589D01*
X301152Y107127D01*
X300967D01*
X300412Y106942D01*
X299488Y106849D01*
X298286Y106664D01*
X296807Y106479D01*
X295050Y106294D01*
X293108Y106202D01*
X290889Y106110D01*
X266481D01*
Y170089D01*
X291629D01*
X292276Y169997D01*
D02*
G37*
G36*
X170327D02*
X171899Y169904D01*
X173563Y169812D01*
X175135Y169627D01*
X176521Y169442D01*
X176706D01*
X177353Y169257D01*
X178186Y169072D01*
X179295Y168795D01*
X180497Y168332D01*
X181791Y167778D01*
X183178Y167130D01*
X184380Y166391D01*
X184565Y166298D01*
X184935Y166021D01*
X185490Y165466D01*
X186229Y164819D01*
X187061Y163987D01*
X187893Y162878D01*
X188818Y161676D01*
X189558Y160289D01*
X189650Y160104D01*
X189835Y159642D01*
X190205Y158809D01*
X190575Y157700D01*
X190852Y156406D01*
X191222Y154926D01*
X191407Y153262D01*
X191499Y151505D01*
Y151413D01*
Y151136D01*
Y150766D01*
X191407Y150119D01*
X191314Y149471D01*
X191222Y148639D01*
X191037Y147715D01*
X190852Y146698D01*
X190205Y144571D01*
X189835Y143462D01*
X189280Y142260D01*
X188633Y141058D01*
X187986Y139948D01*
X187154Y138839D01*
X186229Y137729D01*
X186137Y137637D01*
X185952Y137452D01*
X185675Y137175D01*
X185212Y136897D01*
X184657Y136435D01*
X183918Y135973D01*
X182993Y135418D01*
X181976Y134956D01*
X180774Y134401D01*
X179388Y133846D01*
X177908Y133384D01*
X176152Y133014D01*
X174302Y132644D01*
X172268Y132367D01*
X169957Y132182D01*
X167553Y132090D01*
X151188D01*
Y106110D01*
X142682D01*
Y170089D01*
X168940D01*
X170327Y169997D01*
D02*
G37*
G36*
X395735Y170274D02*
X396936Y170089D01*
X398323Y169812D01*
X399803Y169442D01*
X401374Y168980D01*
X402854Y168240D01*
X402946D01*
X403039Y168147D01*
X403501Y167870D01*
X404240Y167408D01*
X405165Y166761D01*
X406182Y165836D01*
X407292Y164819D01*
X408309Y163617D01*
X409326Y162230D01*
X409418Y162045D01*
X409788Y161583D01*
X410158Y160751D01*
X410805Y159549D01*
X411360Y158162D01*
X412099Y156590D01*
X412746Y154741D01*
X413301Y152707D01*
Y152615D01*
X413394Y152430D01*
X413486Y152153D01*
X413579Y151690D01*
X413671Y151136D01*
X413763Y150488D01*
X413948Y149656D01*
X414041Y148732D01*
X414226Y147715D01*
X414318Y146605D01*
X414411Y145311D01*
X414596Y144016D01*
X414688Y142537D01*
Y141058D01*
X414780Y139394D01*
Y137637D01*
Y137545D01*
Y137175D01*
Y136528D01*
Y135788D01*
X414688Y134771D01*
Y133661D01*
X414596Y132459D01*
X414503Y131165D01*
X414226Y128206D01*
X413763Y125155D01*
X413209Y122197D01*
X412839Y120810D01*
X412377Y119423D01*
Y119331D01*
X412284Y119146D01*
X412099Y118776D01*
X411914Y118314D01*
X411729Y117667D01*
X411360Y117019D01*
X410620Y115448D01*
X409695Y113783D01*
X408493Y111934D01*
X407107Y110270D01*
X405442Y108698D01*
X405350D01*
X405258Y108513D01*
X404980Y108328D01*
X404610Y108144D01*
X404148Y107866D01*
X403686Y107496D01*
X402299Y106849D01*
X400635Y106202D01*
X398693Y105555D01*
X396382Y105185D01*
X393885Y105000D01*
X392961D01*
X392314Y105093D01*
X391574Y105185D01*
X390649Y105370D01*
X389632Y105555D01*
X388523Y105832D01*
X387413Y106202D01*
X386212Y106572D01*
X385010Y107127D01*
X383808Y107774D01*
X382606Y108513D01*
X381404Y109438D01*
X380294Y110455D01*
X379277Y111564D01*
X379185Y111657D01*
X379000Y111934D01*
X378723Y112397D01*
X378260Y113136D01*
X377798Y113968D01*
X377336Y115078D01*
X376689Y116372D01*
X376134Y117851D01*
X375579Y119516D01*
X375024Y121457D01*
X374470Y123584D01*
X374007Y125988D01*
X373545Y128576D01*
X373268Y131350D01*
X373083Y134401D01*
X372990Y137637D01*
Y137729D01*
Y138099D01*
Y138746D01*
Y139486D01*
X373083Y140503D01*
Y141613D01*
X373175Y142815D01*
X373268Y144201D01*
X373545Y147068D01*
X374007Y150119D01*
X374562Y153170D01*
X374932Y154556D01*
X375302Y155943D01*
Y156036D01*
X375394Y156221D01*
X375579Y156590D01*
X375764Y157053D01*
X375949Y157700D01*
X376319Y158347D01*
X377058Y159919D01*
X377983Y161583D01*
X379185Y163340D01*
X380572Y165096D01*
X382236Y166576D01*
X382328D01*
X382421Y166761D01*
X382698Y166946D01*
X383068Y167130D01*
X383530Y167500D01*
X384085Y167778D01*
X385472Y168517D01*
X387136Y169165D01*
X389078Y169812D01*
X391389Y170182D01*
X393885Y170366D01*
X394718D01*
X395735Y170274D01*
D02*
G37*
G36*
X345993D02*
X347195Y170089D01*
X348582Y169812D01*
X350061Y169442D01*
X351633Y168980D01*
X353112Y168240D01*
X353205D01*
X353297Y168147D01*
X353760Y167870D01*
X354499Y167408D01*
X355424Y166761D01*
X356441Y165836D01*
X357550Y164819D01*
X358567Y163617D01*
X359584Y162230D01*
X359677Y162045D01*
X360047Y161583D01*
X360416Y160751D01*
X361064Y159549D01*
X361618Y158162D01*
X362358Y156590D01*
X363005Y154741D01*
X363560Y152707D01*
Y152615D01*
X363652Y152430D01*
X363745Y152153D01*
X363837Y151690D01*
X363930Y151136D01*
X364022Y150488D01*
X364207Y149656D01*
X364299Y148732D01*
X364484Y147715D01*
X364577Y146605D01*
X364669Y145311D01*
X364854Y144016D01*
X364947Y142537D01*
Y141058D01*
X365039Y139394D01*
Y137637D01*
Y137545D01*
Y137175D01*
Y136528D01*
Y135788D01*
X364947Y134771D01*
Y133661D01*
X364854Y132459D01*
X364762Y131165D01*
X364484Y128206D01*
X364022Y125155D01*
X363467Y122197D01*
X363098Y120810D01*
X362635Y119423D01*
Y119331D01*
X362543Y119146D01*
X362358Y118776D01*
X362173Y118314D01*
X361988Y117667D01*
X361618Y117019D01*
X360879Y115448D01*
X359954Y113783D01*
X358752Y111934D01*
X357365Y110270D01*
X355701Y108698D01*
X355609D01*
X355516Y108513D01*
X355239Y108328D01*
X354869Y108144D01*
X354407Y107866D01*
X353944Y107496D01*
X352558Y106849D01*
X350893Y106202D01*
X348952Y105555D01*
X346640Y105185D01*
X344144Y105000D01*
X343220D01*
X342572Y105093D01*
X341833Y105185D01*
X340908Y105370D01*
X339891Y105555D01*
X338782Y105832D01*
X337672Y106202D01*
X336470Y106572D01*
X335268Y107127D01*
X334066Y107774D01*
X332864Y108513D01*
X331663Y109438D01*
X330553Y110455D01*
X329536Y111564D01*
X329444Y111657D01*
X329259Y111934D01*
X328981Y112397D01*
X328519Y113136D01*
X328057Y113968D01*
X327594Y115078D01*
X326947Y116372D01*
X326393Y117851D01*
X325838Y119516D01*
X325283Y121457D01*
X324728Y123584D01*
X324266Y125988D01*
X323804Y128576D01*
X323526Y131350D01*
X323341Y134401D01*
X323249Y137637D01*
Y137729D01*
Y138099D01*
Y138746D01*
Y139486D01*
X323341Y140503D01*
Y141613D01*
X323434Y142815D01*
X323526Y144201D01*
X323804Y147068D01*
X324266Y150119D01*
X324821Y153170D01*
X325191Y154556D01*
X325560Y155943D01*
Y156036D01*
X325653Y156221D01*
X325838Y156590D01*
X326023Y157053D01*
X326208Y157700D01*
X326577Y158347D01*
X327317Y159919D01*
X328242Y161583D01*
X329444Y163340D01*
X330830Y165096D01*
X332495Y166576D01*
X332587D01*
X332680Y166761D01*
X332957Y166946D01*
X333327Y167130D01*
X333789Y167500D01*
X334344Y167778D01*
X335731Y168517D01*
X337395Y169165D01*
X339336Y169812D01*
X341648Y170182D01*
X344144Y170366D01*
X344976D01*
X345993Y170274D01*
D02*
G37*
G36*
X2450065Y929159D02*
X2451036D01*
X2453671Y928882D01*
X2456583Y928466D01*
X2459634Y927772D01*
X2462963Y926940D01*
X2466014Y925831D01*
X2466152D01*
X2466430Y925692D01*
X2466846Y925415D01*
X2467400Y925137D01*
X2468787Y924444D01*
X2470590Y923196D01*
X2472670Y921809D01*
X2474751Y920006D01*
X2476692Y917926D01*
X2478495Y915568D01*
Y915429D01*
X2478634Y915291D01*
X2478911Y914875D01*
X2479189Y914459D01*
X2479882Y913072D01*
X2480714Y911269D01*
X2481685Y909050D01*
X2482378Y906415D01*
X2483072Y903641D01*
X2483349Y900590D01*
X2471145Y899619D01*
Y899758D01*
Y900036D01*
X2471006Y900452D01*
X2470868Y901145D01*
X2470451Y902671D01*
X2469897Y904751D01*
X2469065Y906970D01*
X2467817Y909189D01*
X2466291Y911269D01*
X2464349Y913211D01*
X2464072Y913349D01*
X2463379Y913904D01*
X2461992Y914736D01*
X2460189Y915568D01*
X2457831Y916400D01*
X2455058Y917232D01*
X2451590Y917787D01*
X2447707Y917926D01*
X2445766D01*
X2444934Y917787D01*
X2443824Y917648D01*
X2441328Y917371D01*
X2438554Y916816D01*
X2435780Y916123D01*
X2433146Y915013D01*
X2432036Y914320D01*
X2430927Y913627D01*
X2430649Y913488D01*
X2430094Y912933D01*
X2429262Y911962D01*
X2428430Y910853D01*
X2427459Y909327D01*
X2426627Y907663D01*
X2426073Y905722D01*
X2425795Y903503D01*
Y903225D01*
Y902671D01*
X2425934Y901700D01*
X2426211Y900590D01*
X2426627Y899203D01*
X2427321Y897817D01*
X2428153Y896430D01*
X2429401Y895043D01*
X2429540Y894904D01*
X2430233Y894488D01*
X2430788Y894072D01*
X2431343Y893795D01*
X2432175Y893379D01*
X2433146Y892824D01*
X2434394Y892408D01*
X2435780Y891853D01*
X2437306Y891298D01*
X2439109Y890605D01*
X2441050Y890050D01*
X2443269Y889357D01*
X2445766Y888802D01*
X2448539Y888109D01*
X2448678D01*
X2449233Y887970D01*
X2450065Y887831D01*
X2451036Y887554D01*
X2452284Y887277D01*
X2453809Y886861D01*
X2455335Y886445D01*
X2456999Y886028D01*
X2460605Y885058D01*
X2464072Y884087D01*
X2465736Y883532D01*
X2467262Y882977D01*
X2468649Y882561D01*
X2469758Y882007D01*
X2469897D01*
X2470174Y881868D01*
X2470590Y881591D01*
X2471145Y881313D01*
X2472670Y880481D01*
X2474473Y879372D01*
X2476554Y877846D01*
X2478634Y876182D01*
X2480575Y874240D01*
X2482240Y872160D01*
X2482378Y871883D01*
X2482933Y871189D01*
X2483488Y869941D01*
X2484320Y868277D01*
X2485013Y866335D01*
X2485707Y863978D01*
X2486123Y861343D01*
X2486261Y858569D01*
Y858430D01*
Y858292D01*
Y857876D01*
Y857321D01*
X2485984Y855795D01*
X2485707Y853854D01*
X2485152Y851635D01*
X2484459Y849277D01*
X2483349Y846781D01*
X2481824Y844146D01*
Y844007D01*
X2481685Y843869D01*
X2480991Y843036D01*
X2480021Y841788D01*
X2478634Y840401D01*
X2476831Y838737D01*
X2474612Y836934D01*
X2472116Y835270D01*
X2469203Y833745D01*
X2469065D01*
X2468787Y833606D01*
X2468371Y833467D01*
X2467817Y833190D01*
X2466984Y832912D01*
X2466014Y832496D01*
X2463795Y831942D01*
X2461160Y831248D01*
X2457970Y830555D01*
X2454503Y830139D01*
X2450758Y830000D01*
X2448539D01*
X2447430Y830139D01*
X2446182D01*
X2444795Y830277D01*
X2443131Y830416D01*
X2439664Y830971D01*
X2436058Y831526D01*
X2432452Y832496D01*
X2428985Y833745D01*
X2428846D01*
X2428569Y833883D01*
X2428153Y834161D01*
X2427598Y834438D01*
X2425934Y835270D01*
X2423992Y836518D01*
X2421773Y838182D01*
X2419416Y840124D01*
X2417197Y842482D01*
X2415117Y845117D01*
Y845255D01*
X2414839Y845533D01*
X2414701Y845949D01*
X2414284Y846504D01*
X2414007Y847197D01*
X2413591Y848029D01*
X2412620Y850109D01*
X2411649Y852744D01*
X2410817Y855657D01*
X2410263Y858985D01*
X2409985Y862452D01*
X2421912Y863562D01*
Y863423D01*
Y863284D01*
X2422051Y862868D01*
Y862313D01*
X2422328Y861065D01*
X2422744Y859262D01*
X2423299Y857460D01*
X2423854Y855379D01*
X2424824Y853438D01*
X2425795Y851635D01*
X2425934Y851496D01*
X2426350Y850941D01*
X2427043Y849971D01*
X2428153Y849000D01*
X2429540Y847752D01*
X2431065Y846504D01*
X2433146Y845255D01*
X2435364Y844146D01*
X2435503D01*
X2435642Y844007D01*
X2436058Y843869D01*
X2436474Y843730D01*
X2437861Y843314D01*
X2439664Y842759D01*
X2441883Y842204D01*
X2444379Y841788D01*
X2447153Y841511D01*
X2450204Y841372D01*
X2451452D01*
X2452839Y841511D01*
X2454503Y841650D01*
X2456444Y841927D01*
X2458663Y842204D01*
X2460882Y842759D01*
X2462963Y843452D01*
X2463240Y843591D01*
X2463933Y843869D01*
X2464904Y844423D01*
X2466152Y844978D01*
X2467400Y845949D01*
X2468787Y846920D01*
X2470174Y848029D01*
X2471284Y849416D01*
X2471422Y849555D01*
X2471700Y850109D01*
X2472116Y850803D01*
X2472670Y851912D01*
X2473225Y853022D01*
X2473641Y854409D01*
X2473919Y855934D01*
X2474057Y857598D01*
Y857737D01*
Y858430D01*
X2473919Y859262D01*
X2473780Y860372D01*
X2473364Y861481D01*
X2472948Y862868D01*
X2472254Y864255D01*
X2471284Y865503D01*
X2471145Y865642D01*
X2470729Y866058D01*
X2470174Y866613D01*
X2469203Y867445D01*
X2468094Y868277D01*
X2466568Y869248D01*
X2464765Y870218D01*
X2462685Y871051D01*
X2462547Y871189D01*
X2461853Y871328D01*
X2460744Y871744D01*
X2460050Y871883D01*
X2459079Y872160D01*
X2458109Y872576D01*
X2456860Y872853D01*
X2455474Y873270D01*
X2453809Y873686D01*
X2452145Y874102D01*
X2450204Y874656D01*
X2447985Y875211D01*
X2445627Y875766D01*
X2445488D01*
X2445072Y875905D01*
X2444379Y876043D01*
X2443547Y876321D01*
X2442437Y876598D01*
X2441189Y876875D01*
X2438415Y877707D01*
X2435364Y878678D01*
X2432175Y879649D01*
X2429401Y880620D01*
X2428153Y881175D01*
X2427043Y881729D01*
X2426905D01*
X2426766Y881868D01*
X2425934Y882423D01*
X2424686Y883116D01*
X2423299Y884226D01*
X2421635Y885474D01*
X2419971Y886999D01*
X2418306Y888802D01*
X2416919Y890744D01*
X2416781Y891021D01*
X2416365Y891714D01*
X2415810Y892824D01*
X2415255Y894211D01*
X2414701Y896014D01*
X2414146Y898094D01*
X2413730Y900313D01*
X2413591Y902671D01*
Y902809D01*
Y902948D01*
Y903364D01*
Y903919D01*
X2413868Y905306D01*
X2414146Y907108D01*
X2414562Y909189D01*
X2415255Y911546D01*
X2416226Y913904D01*
X2417613Y916262D01*
Y916400D01*
X2417752Y916539D01*
X2418445Y917371D01*
X2419416Y918481D01*
X2420664Y919867D01*
X2422328Y921393D01*
X2424408Y923057D01*
X2426905Y924583D01*
X2429678Y925969D01*
X2429817D01*
X2430094Y926108D01*
X2430511Y926247D01*
X2431065Y926524D01*
X2431759Y926802D01*
X2432729Y927079D01*
X2434810Y927634D01*
X2437445Y928188D01*
X2440496Y928743D01*
X2443685Y929159D01*
X2447291Y929298D01*
X2449094D01*
X2450065Y929159D01*
D02*
G37*
G36*
X2361307D02*
X2362555Y929020D01*
X2364081Y928882D01*
X2365606Y928743D01*
X2367409Y928327D01*
X2371154Y927495D01*
X2375314Y926247D01*
X2377395Y925415D01*
X2379336Y924444D01*
X2381278Y923196D01*
X2383219Y921948D01*
X2383358Y921809D01*
X2383635Y921670D01*
X2384190Y921254D01*
X2384883Y920561D01*
X2385577Y919867D01*
X2386548Y918897D01*
X2387518Y917787D01*
X2388628Y916678D01*
X2389737Y915291D01*
X2390847Y913627D01*
X2392095Y911962D01*
X2393205Y910159D01*
X2394175Y908079D01*
X2395285Y905999D01*
X2396117Y903780D01*
X2396949Y901284D01*
X2384467Y898371D01*
Y898510D01*
X2384329Y898787D01*
X2384051Y899342D01*
X2383774Y900036D01*
X2383497Y900868D01*
X2383081Y901977D01*
X2381971Y904196D01*
X2380584Y906692D01*
X2378920Y909189D01*
X2376840Y911546D01*
X2374621Y913627D01*
X2374343Y913904D01*
X2373511Y914459D01*
X2372125Y915152D01*
X2370322Y916123D01*
X2367964Y916955D01*
X2365329Y917787D01*
X2362139Y918342D01*
X2358672Y918481D01*
X2357563D01*
X2356869Y918342D01*
X2355899D01*
X2354789Y918203D01*
X2352154Y917787D01*
X2349242Y917232D01*
X2346191Y916262D01*
X2343001Y914875D01*
X2340089Y913072D01*
X2339950D01*
X2339811Y912794D01*
X2338840Y912101D01*
X2337592Y910992D01*
X2336067Y909327D01*
X2334264Y907247D01*
X2332600Y904889D01*
X2331074Y901977D01*
X2329687Y898787D01*
Y898649D01*
X2329549Y898371D01*
X2329410Y897955D01*
X2329271Y897262D01*
X2328994Y896430D01*
X2328716Y895459D01*
X2328300Y893101D01*
X2327746Y890328D01*
X2327191Y887277D01*
X2326914Y883948D01*
X2326775Y880342D01*
Y880204D01*
Y879788D01*
Y879094D01*
Y878262D01*
X2326914Y877291D01*
Y876043D01*
X2327052Y874656D01*
X2327191Y873131D01*
X2327607Y869802D01*
X2328300Y866197D01*
X2329133Y862591D01*
X2330242Y858985D01*
Y858846D01*
X2330381Y858569D01*
X2330658Y858153D01*
X2330935Y857460D01*
X2331767Y855795D01*
X2333016Y853854D01*
X2334541Y851635D01*
X2336483Y849277D01*
X2338702Y847197D01*
X2341337Y845255D01*
X2341475D01*
X2341753Y845117D01*
X2342169Y844839D01*
X2342724Y844562D01*
X2343417Y844285D01*
X2344249Y843869D01*
X2346191Y843036D01*
X2348687Y842204D01*
X2351461Y841511D01*
X2354512Y840956D01*
X2357701Y840817D01*
X2358672D01*
X2359504Y840956D01*
X2360475D01*
X2361446Y841095D01*
X2363942Y841650D01*
X2366855Y842343D01*
X2369767Y843452D01*
X2372818Y844978D01*
X2374343Y845810D01*
X2375730Y846920D01*
X2375869Y847058D01*
X2376008Y847197D01*
X2376424Y847613D01*
X2376978Y848029D01*
X2377533Y848722D01*
X2378227Y849555D01*
X2379059Y850387D01*
X2379752Y851496D01*
X2380584Y852744D01*
X2381555Y854131D01*
X2382387Y855518D01*
X2383219Y857182D01*
X2383913Y858985D01*
X2384606Y860927D01*
X2385300Y863007D01*
X2385854Y865226D01*
X2398613Y862036D01*
Y861897D01*
X2398475Y861343D01*
X2398197Y860511D01*
X2397781Y859401D01*
X2397365Y858153D01*
X2396810Y856627D01*
X2396117Y854963D01*
X2395285Y853160D01*
X2393343Y849277D01*
X2390847Y845394D01*
X2389321Y843452D01*
X2387796Y841511D01*
X2386132Y839847D01*
X2384190Y838182D01*
X2384051Y838044D01*
X2383774Y837766D01*
X2383081Y837489D01*
X2382387Y836934D01*
X2381278Y836241D01*
X2380168Y835547D01*
X2378643Y834854D01*
X2377117Y834161D01*
X2375314Y833329D01*
X2373373Y832635D01*
X2371292Y831942D01*
X2369073Y831248D01*
X2366716Y830694D01*
X2364220Y830416D01*
X2361585Y830139D01*
X2358811Y830000D01*
X2357285D01*
X2356176Y830139D01*
X2354928D01*
X2353402Y830277D01*
X2351738Y830555D01*
X2349796Y830832D01*
X2345775Y831526D01*
X2341614Y832635D01*
X2337454Y834161D01*
X2335512Y835131D01*
X2333570Y836241D01*
X2333432Y836380D01*
X2333154Y836518D01*
X2332600Y836934D01*
X2332045Y837489D01*
X2331213Y838044D01*
X2330242Y838876D01*
X2329133Y839847D01*
X2328023Y840956D01*
X2326914Y842204D01*
X2325665Y843452D01*
X2323169Y846642D01*
X2320811Y850387D01*
X2318731Y854547D01*
Y854686D01*
X2318454Y855102D01*
X2318315Y855795D01*
X2317899Y856627D01*
X2317622Y857737D01*
X2317206Y859124D01*
X2316651Y860649D01*
X2316235Y862313D01*
X2315819Y864116D01*
X2315264Y866197D01*
X2314571Y870496D01*
X2314016Y875350D01*
X2313739Y880342D01*
Y880481D01*
Y881036D01*
Y881868D01*
X2313877Y882839D01*
Y884226D01*
X2314016Y885612D01*
X2314155Y887415D01*
X2314432Y889218D01*
X2315125Y893240D01*
X2316096Y897678D01*
X2317483Y902116D01*
X2319425Y906415D01*
X2319563Y906554D01*
X2319702Y906970D01*
X2319979Y907524D01*
X2320534Y908218D01*
X2321089Y909189D01*
X2321782Y910298D01*
X2323585Y912794D01*
X2325943Y915568D01*
X2328716Y918342D01*
X2331906Y921116D01*
X2335651Y923473D01*
X2335789Y923612D01*
X2336205Y923751D01*
X2336760Y924028D01*
X2337454Y924444D01*
X2338563Y924860D01*
X2339672Y925276D01*
X2341059Y925831D01*
X2342585Y926385D01*
X2344249Y926940D01*
X2346052Y927495D01*
X2349935Y928327D01*
X2354373Y929020D01*
X2358950Y929298D01*
X2360336D01*
X2361307Y929159D01*
D02*
G37*
G36*
X2364566Y1179159D02*
X2365814Y1179021D01*
X2367340Y1178882D01*
X2368865Y1178743D01*
X2370668Y1178327D01*
X2374413Y1177495D01*
X2378573Y1176247D01*
X2380654Y1175415D01*
X2382595Y1174444D01*
X2384537Y1173196D01*
X2386478Y1171948D01*
X2386617Y1171809D01*
X2386894Y1171670D01*
X2387449Y1171254D01*
X2388143Y1170561D01*
X2388836Y1169867D01*
X2389807Y1168897D01*
X2390778Y1167787D01*
X2391887Y1166678D01*
X2392996Y1165291D01*
X2394106Y1163627D01*
X2395354Y1161962D01*
X2396464Y1160159D01*
X2397434Y1158079D01*
X2398544Y1155999D01*
X2399376Y1153780D01*
X2400208Y1151284D01*
X2387726Y1148371D01*
Y1148510D01*
X2387588Y1148787D01*
X2387310Y1149342D01*
X2387033Y1150036D01*
X2386756Y1150868D01*
X2386340Y1151977D01*
X2385230Y1154196D01*
X2383843Y1156692D01*
X2382179Y1159189D01*
X2380099Y1161546D01*
X2377880Y1163627D01*
X2377603Y1163904D01*
X2376770Y1164459D01*
X2375384Y1165152D01*
X2373581Y1166123D01*
X2371223Y1166955D01*
X2368588Y1167787D01*
X2365398Y1168342D01*
X2361931Y1168481D01*
X2360822D01*
X2360128Y1168342D01*
X2359158D01*
X2358048Y1168203D01*
X2355413Y1167787D01*
X2352501Y1167232D01*
X2349450Y1166262D01*
X2346260Y1164875D01*
X2343348Y1163072D01*
X2343209D01*
X2343070Y1162794D01*
X2342099Y1162101D01*
X2340851Y1160992D01*
X2339326Y1159327D01*
X2337523Y1157247D01*
X2335859Y1154889D01*
X2334333Y1151977D01*
X2332946Y1148787D01*
Y1148649D01*
X2332808Y1148371D01*
X2332669Y1147955D01*
X2332530Y1147262D01*
X2332253Y1146430D01*
X2331976Y1145459D01*
X2331559Y1143101D01*
X2331005Y1140328D01*
X2330450Y1137277D01*
X2330173Y1133948D01*
X2330034Y1130342D01*
Y1130204D01*
Y1129788D01*
Y1129094D01*
Y1128262D01*
X2330173Y1127291D01*
Y1126043D01*
X2330311Y1124656D01*
X2330450Y1123131D01*
X2330866Y1119802D01*
X2331559Y1116197D01*
X2332392Y1112591D01*
X2333501Y1108985D01*
Y1108846D01*
X2333640Y1108569D01*
X2333917Y1108153D01*
X2334194Y1107460D01*
X2335027Y1105795D01*
X2336275Y1103854D01*
X2337800Y1101635D01*
X2339742Y1099277D01*
X2341961Y1097197D01*
X2344596Y1095255D01*
X2344734D01*
X2345012Y1095117D01*
X2345428Y1094839D01*
X2345983Y1094562D01*
X2346676Y1094285D01*
X2347508Y1093869D01*
X2349450Y1093036D01*
X2351946Y1092204D01*
X2354720Y1091511D01*
X2357771Y1090956D01*
X2360960Y1090817D01*
X2361931D01*
X2362763Y1090956D01*
X2363734D01*
X2364705Y1091095D01*
X2367201Y1091650D01*
X2370114Y1092343D01*
X2373026Y1093452D01*
X2376077Y1094978D01*
X2377603Y1095810D01*
X2378989Y1096920D01*
X2379128Y1097058D01*
X2379267Y1097197D01*
X2379683Y1097613D01*
X2380238Y1098029D01*
X2380792Y1098722D01*
X2381486Y1099555D01*
X2382318Y1100387D01*
X2383011Y1101496D01*
X2383843Y1102744D01*
X2384814Y1104131D01*
X2385646Y1105518D01*
X2386478Y1107182D01*
X2387172Y1108985D01*
X2387865Y1110927D01*
X2388559Y1113007D01*
X2389113Y1115226D01*
X2401872Y1112036D01*
Y1111897D01*
X2401734Y1111343D01*
X2401456Y1110511D01*
X2401040Y1109401D01*
X2400624Y1108153D01*
X2400069Y1106627D01*
X2399376Y1104963D01*
X2398544Y1103160D01*
X2396602Y1099277D01*
X2394106Y1095394D01*
X2392580Y1093452D01*
X2391055Y1091511D01*
X2389391Y1089847D01*
X2387449Y1088182D01*
X2387310Y1088044D01*
X2387033Y1087766D01*
X2386340Y1087489D01*
X2385646Y1086934D01*
X2384537Y1086241D01*
X2383427Y1085547D01*
X2381902Y1084854D01*
X2380376Y1084161D01*
X2378573Y1083329D01*
X2376632Y1082635D01*
X2374552Y1081942D01*
X2372333Y1081248D01*
X2369975Y1080694D01*
X2367479Y1080416D01*
X2364844Y1080139D01*
X2362070Y1080000D01*
X2360544D01*
X2359435Y1080139D01*
X2358187D01*
X2356661Y1080277D01*
X2354997Y1080555D01*
X2353055Y1080832D01*
X2349034Y1081526D01*
X2344873Y1082635D01*
X2340713Y1084161D01*
X2338771Y1085131D01*
X2336829Y1086241D01*
X2336691Y1086380D01*
X2336413Y1086518D01*
X2335859Y1086934D01*
X2335304Y1087489D01*
X2334472Y1088044D01*
X2333501Y1088876D01*
X2332392Y1089847D01*
X2331282Y1090956D01*
X2330173Y1092204D01*
X2328924Y1093452D01*
X2326428Y1096642D01*
X2324071Y1100387D01*
X2321990Y1104547D01*
Y1104686D01*
X2321713Y1105102D01*
X2321574Y1105795D01*
X2321158Y1106627D01*
X2320881Y1107737D01*
X2320465Y1109124D01*
X2319910Y1110649D01*
X2319494Y1112313D01*
X2319078Y1114116D01*
X2318523Y1116197D01*
X2317830Y1120496D01*
X2317275Y1125350D01*
X2316998Y1130342D01*
Y1130481D01*
Y1131036D01*
Y1131868D01*
X2317136Y1132839D01*
Y1134226D01*
X2317275Y1135612D01*
X2317414Y1137415D01*
X2317691Y1139218D01*
X2318384Y1143240D01*
X2319355Y1147678D01*
X2320742Y1152116D01*
X2322684Y1156415D01*
X2322822Y1156554D01*
X2322961Y1156970D01*
X2323238Y1157524D01*
X2323793Y1158218D01*
X2324348Y1159189D01*
X2325041Y1160298D01*
X2326844Y1162794D01*
X2329202Y1165568D01*
X2331976Y1168342D01*
X2335165Y1171116D01*
X2338910Y1173473D01*
X2339048Y1173612D01*
X2339464Y1173751D01*
X2340019Y1174028D01*
X2340713Y1174444D01*
X2341822Y1174860D01*
X2342932Y1175276D01*
X2344318Y1175831D01*
X2345844Y1176386D01*
X2347508Y1176940D01*
X2349311Y1177495D01*
X2353194Y1178327D01*
X2357632Y1179021D01*
X2362209Y1179298D01*
X2363595D01*
X2364566Y1179159D01*
D02*
G37*
G36*
X2483002Y1166262D02*
X2430857D01*
Y1136583D01*
X2475930D01*
Y1125211D01*
X2430857D01*
Y1081664D01*
X2418098D01*
Y1177634D01*
X2483002D01*
Y1166262D01*
D02*
G37*
G36*
X2457539Y419159D02*
X2458510D01*
X2461145Y418882D01*
X2464057Y418466D01*
X2467108Y417772D01*
X2470437Y416940D01*
X2473488Y415831D01*
X2473626D01*
X2473904Y415692D01*
X2474320Y415415D01*
X2474875Y415137D01*
X2476261Y414444D01*
X2478064Y413196D01*
X2480145Y411809D01*
X2482225Y410006D01*
X2484166Y407926D01*
X2485969Y405568D01*
Y405429D01*
X2486108Y405291D01*
X2486385Y404875D01*
X2486663Y404459D01*
X2487356Y403072D01*
X2488188Y401269D01*
X2489159Y399050D01*
X2489853Y396415D01*
X2490546Y393641D01*
X2490823Y390590D01*
X2478619Y389619D01*
Y389758D01*
Y390036D01*
X2478480Y390452D01*
X2478342Y391145D01*
X2477926Y392671D01*
X2477371Y394751D01*
X2476539Y396970D01*
X2475291Y399189D01*
X2473765Y401269D01*
X2471824Y403211D01*
X2471546Y403349D01*
X2470853Y403904D01*
X2469466Y404736D01*
X2467663Y405568D01*
X2465305Y406400D01*
X2462532Y407232D01*
X2459065Y407787D01*
X2455182Y407926D01*
X2453240D01*
X2452408Y407787D01*
X2451298Y407648D01*
X2448802Y407371D01*
X2446028Y406816D01*
X2443255Y406123D01*
X2440620Y405013D01*
X2439510Y404320D01*
X2438401Y403627D01*
X2438123Y403488D01*
X2437569Y402933D01*
X2436737Y401962D01*
X2435904Y400853D01*
X2434934Y399327D01*
X2434102Y397663D01*
X2433547Y395722D01*
X2433269Y393503D01*
Y393225D01*
Y392671D01*
X2433408Y391700D01*
X2433686Y390590D01*
X2434102Y389203D01*
X2434795Y387817D01*
X2435627Y386430D01*
X2436875Y385043D01*
X2437014Y384904D01*
X2437707Y384488D01*
X2438262Y384072D01*
X2438817Y383795D01*
X2439649Y383379D01*
X2440620Y382824D01*
X2441868Y382408D01*
X2443255Y381853D01*
X2444780Y381298D01*
X2446583Y380605D01*
X2448525Y380050D01*
X2450744Y379357D01*
X2453240Y378802D01*
X2456014Y378109D01*
X2456152D01*
X2456707Y377970D01*
X2457539Y377831D01*
X2458510Y377554D01*
X2459758Y377277D01*
X2461284Y376861D01*
X2462809Y376445D01*
X2464473Y376028D01*
X2468079Y375058D01*
X2471546Y374087D01*
X2473210Y373532D01*
X2474736Y372977D01*
X2476123Y372561D01*
X2477232Y372007D01*
X2477371D01*
X2477648Y371868D01*
X2478064Y371591D01*
X2478619Y371313D01*
X2480145Y370481D01*
X2481948Y369372D01*
X2484028Y367846D01*
X2486108Y366182D01*
X2488050Y364240D01*
X2489714Y362160D01*
X2489853Y361883D01*
X2490407Y361189D01*
X2490962Y359941D01*
X2491794Y358277D01*
X2492488Y356335D01*
X2493181Y353978D01*
X2493597Y351343D01*
X2493736Y348569D01*
Y348430D01*
Y348292D01*
Y347876D01*
Y347321D01*
X2493458Y345795D01*
X2493181Y343854D01*
X2492626Y341635D01*
X2491933Y339277D01*
X2490823Y336781D01*
X2489298Y334146D01*
Y334007D01*
X2489159Y333869D01*
X2488466Y333036D01*
X2487495Y331788D01*
X2486108Y330401D01*
X2484305Y328737D01*
X2482086Y326934D01*
X2479590Y325270D01*
X2476678Y323745D01*
X2476539D01*
X2476261Y323606D01*
X2475845Y323467D01*
X2475291Y323190D01*
X2474459Y322912D01*
X2473488Y322496D01*
X2471269Y321942D01*
X2468634Y321248D01*
X2465444Y320555D01*
X2461977Y320139D01*
X2458233Y320000D01*
X2456014D01*
X2454904Y320139D01*
X2453656D01*
X2452269Y320277D01*
X2450605Y320416D01*
X2447138Y320971D01*
X2443532Y321526D01*
X2439926Y322496D01*
X2436459Y323745D01*
X2436321D01*
X2436043Y323883D01*
X2435627Y324161D01*
X2435072Y324438D01*
X2433408Y325270D01*
X2431467Y326518D01*
X2429248Y328182D01*
X2426890Y330124D01*
X2424671Y332482D01*
X2422591Y335117D01*
Y335255D01*
X2422313Y335533D01*
X2422175Y335949D01*
X2421759Y336504D01*
X2421481Y337197D01*
X2421065Y338029D01*
X2420094Y340109D01*
X2419124Y342744D01*
X2418292Y345657D01*
X2417737Y348985D01*
X2417459Y352452D01*
X2429386Y353562D01*
Y353423D01*
Y353284D01*
X2429525Y352868D01*
Y352313D01*
X2429802Y351065D01*
X2430218Y349262D01*
X2430773Y347460D01*
X2431328Y345379D01*
X2432299Y343438D01*
X2433269Y341635D01*
X2433408Y341496D01*
X2433824Y340941D01*
X2434518Y339971D01*
X2435627Y339000D01*
X2437014Y337752D01*
X2438539Y336504D01*
X2440620Y335255D01*
X2442839Y334146D01*
X2442977D01*
X2443116Y334007D01*
X2443532Y333869D01*
X2443948Y333730D01*
X2445335Y333314D01*
X2447138Y332759D01*
X2449357Y332204D01*
X2451853Y331788D01*
X2454627Y331511D01*
X2457678Y331372D01*
X2458926D01*
X2460313Y331511D01*
X2461977Y331650D01*
X2463919Y331927D01*
X2466138Y332204D01*
X2468357Y332759D01*
X2470437Y333452D01*
X2470714Y333591D01*
X2471408Y333869D01*
X2472378Y334423D01*
X2473626Y334978D01*
X2474875Y335949D01*
X2476261Y336920D01*
X2477648Y338029D01*
X2478758Y339416D01*
X2478896Y339555D01*
X2479174Y340109D01*
X2479590Y340803D01*
X2480145Y341912D01*
X2480699Y343022D01*
X2481115Y344409D01*
X2481393Y345934D01*
X2481531Y347598D01*
Y347737D01*
Y348430D01*
X2481393Y349262D01*
X2481254Y350372D01*
X2480838Y351481D01*
X2480422Y352868D01*
X2479729Y354255D01*
X2478758Y355503D01*
X2478619Y355642D01*
X2478203Y356058D01*
X2477648Y356613D01*
X2476678Y357445D01*
X2475568Y358277D01*
X2474043Y359248D01*
X2472240Y360218D01*
X2470159Y361051D01*
X2470021Y361189D01*
X2469327Y361328D01*
X2468218Y361744D01*
X2467524Y361883D01*
X2466554Y362160D01*
X2465583Y362576D01*
X2464335Y362853D01*
X2462948Y363270D01*
X2461284Y363686D01*
X2459619Y364102D01*
X2457678Y364656D01*
X2455459Y365211D01*
X2453101Y365766D01*
X2452963D01*
X2452547Y365905D01*
X2451853Y366043D01*
X2451021Y366321D01*
X2449912Y366598D01*
X2448663Y366875D01*
X2445890Y367707D01*
X2442839Y368678D01*
X2439649Y369649D01*
X2436875Y370620D01*
X2435627Y371175D01*
X2434518Y371729D01*
X2434379D01*
X2434240Y371868D01*
X2433408Y372423D01*
X2432160Y373116D01*
X2430773Y374226D01*
X2429109Y375474D01*
X2427445Y376999D01*
X2425781Y378802D01*
X2424394Y380744D01*
X2424255Y381021D01*
X2423839Y381715D01*
X2423284Y382824D01*
X2422729Y384211D01*
X2422175Y386014D01*
X2421620Y388094D01*
X2421204Y390313D01*
X2421065Y392671D01*
Y392809D01*
Y392948D01*
Y393364D01*
Y393919D01*
X2421343Y395306D01*
X2421620Y397108D01*
X2422036Y399189D01*
X2422729Y401546D01*
X2423700Y403904D01*
X2425087Y406262D01*
Y406400D01*
X2425226Y406539D01*
X2425919Y407371D01*
X2426890Y408481D01*
X2428138Y409867D01*
X2429802Y411393D01*
X2431883Y413057D01*
X2434379Y414583D01*
X2437153Y415969D01*
X2437291D01*
X2437569Y416108D01*
X2437985Y416247D01*
X2438539Y416524D01*
X2439233Y416802D01*
X2440204Y417079D01*
X2442284Y417634D01*
X2444919Y418188D01*
X2447970Y418743D01*
X2451160Y419159D01*
X2454765Y419298D01*
X2456568D01*
X2457539Y419159D01*
D02*
G37*
G36*
X2383482Y321664D02*
X2371000D01*
X2350891Y394751D01*
Y394889D01*
X2350752Y395167D01*
X2350614Y395583D01*
X2350475Y396276D01*
X2350059Y397802D01*
X2349643Y399605D01*
X2349088Y401546D01*
X2348534Y403349D01*
X2348117Y404875D01*
X2347979Y405568D01*
X2347840Y405984D01*
Y405846D01*
X2347701Y405707D01*
X2347563Y404875D01*
X2347285Y403627D01*
X2346869Y402101D01*
X2346453Y400437D01*
X2345899Y398495D01*
X2345482Y396554D01*
X2344928Y394751D01*
X2324680Y321664D01*
X2311366D01*
X2286264Y417634D01*
X2299439D01*
X2313724Y354671D01*
Y354532D01*
X2313863Y354255D01*
X2314001Y353700D01*
X2314140Y353007D01*
X2314279Y352036D01*
X2314556Y351065D01*
X2314833Y349817D01*
X2315111Y348430D01*
X2315804Y345518D01*
X2316498Y342190D01*
X2317191Y338584D01*
X2317884Y334978D01*
Y335117D01*
X2318023Y335671D01*
X2318300Y336365D01*
X2318439Y337474D01*
X2318716Y338584D01*
X2319133Y339971D01*
X2319826Y343022D01*
X2320658Y346073D01*
X2320935Y347598D01*
X2321351Y348985D01*
X2321629Y350233D01*
X2321906Y351343D01*
X2322184Y352175D01*
X2322322Y352730D01*
X2340490Y417634D01*
X2355884D01*
X2369475Y368956D01*
Y368817D01*
X2369752Y368123D01*
X2370030Y367153D01*
X2370307Y365905D01*
X2370723Y364240D01*
X2371278Y362437D01*
X2371832Y360357D01*
X2372387Y358000D01*
X2373081Y355365D01*
X2373635Y352730D01*
X2374883Y347044D01*
X2376132Y341080D01*
X2377102Y334978D01*
Y335117D01*
X2377241Y335394D01*
Y335949D01*
X2377518Y336642D01*
X2377657Y337474D01*
X2377935Y338445D01*
X2378073Y339693D01*
X2378489Y341080D01*
X2379183Y344131D01*
X2380015Y347737D01*
X2380847Y351620D01*
X2381956Y355919D01*
X2396934Y417634D01*
X2409832D01*
X2383482Y321664D01*
D02*
G37*
G36*
X2396741Y580000D02*
X2384259D01*
X2364150Y653087D01*
Y653225D01*
X2364012Y653503D01*
X2363873Y653919D01*
X2363734Y654612D01*
X2363318Y656138D01*
X2362902Y657941D01*
X2362347Y659882D01*
X2361793Y661685D01*
X2361377Y663211D01*
X2361238Y663904D01*
X2361099Y664320D01*
Y664181D01*
X2360960Y664043D01*
X2360822Y663211D01*
X2360544Y661962D01*
X2360128Y660437D01*
X2359712Y658773D01*
X2359158Y656831D01*
X2358742Y654889D01*
X2358187Y653087D01*
X2337939Y580000D01*
X2324625D01*
X2299523Y675969D01*
X2312698D01*
X2326983Y613007D01*
Y612868D01*
X2327122Y612591D01*
X2327260Y612036D01*
X2327399Y611343D01*
X2327538Y610372D01*
X2327815Y609401D01*
X2328092Y608153D01*
X2328370Y606766D01*
X2329063Y603854D01*
X2329757Y600525D01*
X2330450Y596920D01*
X2331143Y593314D01*
Y593452D01*
X2331282Y594007D01*
X2331559Y594701D01*
X2331698Y595810D01*
X2331976Y596920D01*
X2332392Y598306D01*
X2333085Y601357D01*
X2333917Y604408D01*
X2334194Y605934D01*
X2334611Y607321D01*
X2334888Y608569D01*
X2335165Y609678D01*
X2335443Y610511D01*
X2335581Y611065D01*
X2353749Y675969D01*
X2369143D01*
X2382734Y627291D01*
Y627153D01*
X2383011Y626459D01*
X2383289Y625488D01*
X2383566Y624240D01*
X2383982Y622576D01*
X2384537Y620773D01*
X2385091Y618693D01*
X2385646Y616335D01*
X2386340Y613700D01*
X2386894Y611065D01*
X2388143Y605379D01*
X2389391Y599416D01*
X2390361Y593314D01*
Y593452D01*
X2390500Y593730D01*
Y594285D01*
X2390778Y594978D01*
X2390916Y595810D01*
X2391194Y596781D01*
X2391332Y598029D01*
X2391748Y599416D01*
X2392442Y602467D01*
X2393274Y606073D01*
X2394106Y609956D01*
X2395215Y614255D01*
X2410193Y675969D01*
X2423091D01*
X2396741Y580000D01*
D02*
G37*
G36*
X2500477Y664597D02*
X2448331D01*
Y634919D01*
X2493404D01*
Y623547D01*
X2448331D01*
Y580000D01*
X2435572D01*
Y675969D01*
X2500477D01*
Y664597D01*
D02*
G37*
G36*
X1915557Y1255447D02*
X1917640Y1255215D01*
X1920185Y1254984D01*
X1922730Y1254753D01*
X1925738Y1254058D01*
X1931986Y1252670D01*
X1938928Y1250588D01*
X1942399Y1249199D01*
X1945638Y1247579D01*
X1948878Y1245497D01*
X1952117Y1243414D01*
X1952349Y1243183D01*
X1952811Y1242952D01*
X1953737Y1242257D01*
X1954894Y1241100D01*
X1956051Y1239943D01*
X1957671Y1238324D01*
X1959290Y1236473D01*
X1961142Y1234621D01*
X1962993Y1232307D01*
X1964844Y1229531D01*
X1966926Y1226754D01*
X1968778Y1223746D01*
X1970397Y1220275D01*
X1972249Y1216804D01*
X1973637Y1213102D01*
X1975025Y1208937D01*
X1954200Y1204077D01*
Y1204309D01*
X1953968Y1204772D01*
X1953506Y1205697D01*
X1953043Y1206854D01*
X1952580Y1208242D01*
X1951886Y1210094D01*
X1950035Y1213796D01*
X1947721Y1217961D01*
X1944944Y1222126D01*
X1941473Y1226060D01*
X1937771Y1229531D01*
X1937308Y1229993D01*
X1935920Y1230919D01*
X1933606Y1232076D01*
X1930598Y1233696D01*
X1926664Y1235084D01*
X1922267Y1236473D01*
X1916945Y1237398D01*
X1911161Y1237629D01*
X1909309D01*
X1908152Y1237398D01*
X1906533D01*
X1904681Y1237167D01*
X1900285Y1236473D01*
X1895426Y1235547D01*
X1890335Y1233927D01*
X1885013Y1231613D01*
X1880154Y1228605D01*
X1879922D01*
X1879691Y1228142D01*
X1878071Y1226985D01*
X1875989Y1225134D01*
X1873443Y1222357D01*
X1870435Y1218887D01*
X1867658Y1214953D01*
X1865113Y1210094D01*
X1862799Y1204772D01*
Y1204540D01*
X1862568Y1204077D01*
X1862336Y1203383D01*
X1862105Y1202226D01*
X1861642Y1200838D01*
X1861179Y1199218D01*
X1860485Y1195284D01*
X1859560Y1190656D01*
X1858634Y1185566D01*
X1858171Y1180012D01*
X1857940Y1173996D01*
Y1173765D01*
Y1173071D01*
Y1171914D01*
Y1170525D01*
X1858171Y1168905D01*
Y1166823D01*
X1858403Y1164509D01*
X1858634Y1161964D01*
X1859328Y1156410D01*
X1860485Y1150394D01*
X1861874Y1144378D01*
X1863725Y1138361D01*
Y1138130D01*
X1863956Y1137667D01*
X1864419Y1136973D01*
X1864882Y1135816D01*
X1866270Y1133039D01*
X1868353Y1129800D01*
X1870898Y1126098D01*
X1874137Y1122164D01*
X1877840Y1118693D01*
X1882236Y1115453D01*
X1882468D01*
X1882930Y1115222D01*
X1883625Y1114759D01*
X1884550Y1114296D01*
X1885707Y1113834D01*
X1887096Y1113140D01*
X1890335Y1111751D01*
X1894500Y1110363D01*
X1899128Y1109206D01*
X1904219Y1108280D01*
X1909541Y1108049D01*
X1911161D01*
X1912549Y1108280D01*
X1914169D01*
X1915788Y1108512D01*
X1919953Y1109437D01*
X1924813Y1110594D01*
X1929672Y1112445D01*
X1934763Y1114991D01*
X1937308Y1116379D01*
X1939622Y1118230D01*
X1939853Y1118462D01*
X1940085Y1118693D01*
X1940779Y1119387D01*
X1941705Y1120081D01*
X1942630Y1121238D01*
X1943787Y1122627D01*
X1945175Y1124015D01*
X1946332Y1125866D01*
X1947721Y1127949D01*
X1949341Y1130263D01*
X1950729Y1132577D01*
X1952117Y1135353D01*
X1953274Y1138361D01*
X1954431Y1141601D01*
X1955588Y1145072D01*
X1956514Y1148774D01*
X1977802Y1143452D01*
Y1143221D01*
X1977571Y1142295D01*
X1977108Y1140907D01*
X1976414Y1139056D01*
X1975719Y1136973D01*
X1974794Y1134428D01*
X1973637Y1131651D01*
X1972249Y1128643D01*
X1969009Y1122164D01*
X1964844Y1115685D01*
X1962299Y1112445D01*
X1959753Y1109206D01*
X1956977Y1106429D01*
X1953737Y1103652D01*
X1953506Y1103421D01*
X1953043Y1102958D01*
X1951886Y1102495D01*
X1950729Y1101570D01*
X1948878Y1100413D01*
X1947027Y1099256D01*
X1944481Y1098099D01*
X1941936Y1096942D01*
X1938928Y1095554D01*
X1935688Y1094397D01*
X1932217Y1093240D01*
X1928515Y1092083D01*
X1924581Y1091157D01*
X1920416Y1090694D01*
X1916020Y1090231D01*
X1911392Y1090000D01*
X1908847D01*
X1906995Y1090231D01*
X1904913D01*
X1902368Y1090463D01*
X1899591Y1090926D01*
X1896351Y1091388D01*
X1889641Y1092545D01*
X1882699Y1094397D01*
X1875757Y1096942D01*
X1872518Y1098562D01*
X1869278Y1100413D01*
X1869047Y1100644D01*
X1868584Y1100876D01*
X1867658Y1101570D01*
X1866733Y1102495D01*
X1865345Y1103421D01*
X1863725Y1104809D01*
X1861874Y1106429D01*
X1860022Y1108280D01*
X1858171Y1110363D01*
X1856089Y1112445D01*
X1851924Y1117767D01*
X1847990Y1124015D01*
X1844519Y1130957D01*
Y1131188D01*
X1844056Y1131882D01*
X1843825Y1133039D01*
X1843131Y1134428D01*
X1842668Y1136279D01*
X1841974Y1138593D01*
X1841048Y1141138D01*
X1840354Y1143915D01*
X1839660Y1146923D01*
X1838734Y1150394D01*
X1837577Y1157567D01*
X1836652Y1165666D01*
X1836189Y1173996D01*
Y1174228D01*
Y1175153D01*
Y1176541D01*
X1836420Y1178161D01*
Y1180475D01*
X1836652Y1182789D01*
X1836883Y1185797D01*
X1837346Y1188805D01*
X1838503Y1195516D01*
X1840123Y1202920D01*
X1842436Y1210325D01*
X1845676Y1217498D01*
X1845907Y1217730D01*
X1846139Y1218424D01*
X1846602Y1219349D01*
X1847527Y1220506D01*
X1848453Y1222126D01*
X1849610Y1223977D01*
X1852618Y1228142D01*
X1856552Y1232770D01*
X1861179Y1237398D01*
X1866501Y1242026D01*
X1872749Y1245960D01*
X1872981Y1246191D01*
X1873675Y1246422D01*
X1874600Y1246885D01*
X1875757Y1247579D01*
X1877608Y1248274D01*
X1879460Y1248968D01*
X1881773Y1249893D01*
X1884319Y1250819D01*
X1887096Y1251745D01*
X1890104Y1252670D01*
X1896583Y1254058D01*
X1903987Y1255215D01*
X1911623Y1255678D01*
X1913937D01*
X1915557Y1255447D01*
D02*
G37*
G36*
X2120109Y1233927D02*
X2025469D01*
Y1185103D01*
X2114093D01*
Y1166129D01*
X2025469D01*
Y1111751D01*
X2123812D01*
Y1092777D01*
X2004181D01*
Y1252901D01*
X2120109D01*
Y1233927D01*
D02*
G37*
G36*
X359240Y1100000D02*
X338415D01*
X304863Y1221945D01*
Y1222176D01*
X304631Y1222639D01*
X304400Y1223333D01*
X304169Y1224490D01*
X303474Y1227035D01*
X302780Y1230044D01*
X301855Y1233283D01*
X300929Y1236291D01*
X300235Y1238836D01*
X300003Y1239993D01*
X299772Y1240688D01*
Y1240456D01*
X299541Y1240225D01*
X299309Y1238836D01*
X298846Y1236754D01*
X298152Y1234209D01*
X297458Y1231432D01*
X296533Y1228192D01*
X295838Y1224953D01*
X294913Y1221945D01*
X261129Y1100000D01*
X238915D01*
X197033Y1260125D01*
X219016D01*
X242849Y1155072D01*
Y1154840D01*
X243081Y1154378D01*
X243312Y1153452D01*
X243543Y1152295D01*
X243775Y1150675D01*
X244238Y1149056D01*
X244700Y1146973D01*
X245163Y1144659D01*
X246320Y1139800D01*
X247477Y1134246D01*
X248634Y1128230D01*
X249791Y1122214D01*
Y1122445D01*
X250022Y1123371D01*
X250485Y1124528D01*
X250717Y1126379D01*
X251179Y1128230D01*
X251874Y1130544D01*
X253030Y1135635D01*
X254419Y1140725D01*
X254882Y1143271D01*
X255576Y1145585D01*
X256039Y1147667D01*
X256501Y1149518D01*
X256964Y1150907D01*
X257196Y1151832D01*
X287508Y1260125D01*
X313193D01*
X335870Y1178905D01*
Y1178674D01*
X336332Y1177517D01*
X336795Y1175897D01*
X337258Y1173815D01*
X337952Y1171038D01*
X338878Y1168030D01*
X339803Y1164559D01*
X340729Y1160625D01*
X341886Y1156229D01*
X342811Y1151832D01*
X344894Y1142345D01*
X346976Y1132395D01*
X348596Y1122214D01*
Y1122445D01*
X348828Y1122908D01*
Y1123834D01*
X349290Y1124991D01*
X349522Y1126379D01*
X349985Y1127999D01*
X350216Y1130081D01*
X350910Y1132395D01*
X352067Y1137486D01*
X353455Y1143502D01*
X354844Y1149981D01*
X356695Y1157154D01*
X381686Y1260125D01*
X403205D01*
X359240Y1100000D01*
D02*
G37*
G36*
X539265Y1241150D02*
X444625D01*
Y1192326D01*
X533249D01*
Y1173352D01*
X444625D01*
Y1118974D01*
X542967D01*
Y1100000D01*
X423336D01*
Y1260125D01*
X539265D01*
Y1241150D01*
D02*
G37*
%LPC*%
G36*
X290150Y162508D02*
X274987D01*
Y143277D01*
X290705D01*
X291906Y143369D01*
X293201Y143462D01*
X294495Y143554D01*
X295790Y143739D01*
X296807Y143924D01*
X296992Y144016D01*
X297361Y144109D01*
X297916Y144386D01*
X298656Y144756D01*
X299395Y145126D01*
X300227Y145681D01*
X301060Y146420D01*
X301707Y147160D01*
X301799Y147252D01*
X301984Y147530D01*
X302262Y148085D01*
X302539Y148732D01*
X302816Y149471D01*
X303094Y150396D01*
X303279Y151505D01*
X303371Y152707D01*
Y152892D01*
Y153262D01*
X303279Y153817D01*
X303186Y154556D01*
X303001Y155481D01*
X302724Y156406D01*
X302354Y157330D01*
X301799Y158255D01*
X301707Y158347D01*
X301522Y158625D01*
X301152Y159087D01*
X300690Y159549D01*
X300043Y160104D01*
X299303Y160659D01*
X298378Y161213D01*
X297361Y161583D01*
X297269D01*
X296807Y161768D01*
X296159Y161860D01*
X295142Y162045D01*
X293756Y162230D01*
X292184Y162323D01*
X290150Y162508D01*
D02*
G37*
G36*
X291814Y135695D02*
X274987D01*
Y113691D01*
X293201D01*
X295142Y113783D01*
X295975Y113876D01*
X296714Y113968D01*
X296807D01*
X297176Y114061D01*
X297731Y114153D01*
X298378Y114338D01*
X299950Y114893D01*
X301522Y115632D01*
X301614Y115725D01*
X301892Y115910D01*
X302262Y116187D01*
X302724Y116557D01*
X303186Y117112D01*
X303833Y117667D01*
X304296Y118406D01*
X304850Y119238D01*
X304943Y119331D01*
X305035Y119608D01*
X305220Y120163D01*
X305497Y120810D01*
X305775Y121550D01*
X305960Y122474D01*
X306052Y123584D01*
X306145Y124693D01*
Y124878D01*
Y125248D01*
X306052Y125988D01*
X305867Y126820D01*
X305682Y127744D01*
X305313Y128761D01*
X304850Y129778D01*
X304203Y130795D01*
X304111Y130888D01*
X303833Y131258D01*
X303463Y131720D01*
X302909Y132275D01*
X302169Y132922D01*
X301245Y133569D01*
X300227Y134124D01*
X299026Y134586D01*
X298841Y134678D01*
X298471Y134771D01*
X297639Y134956D01*
X296622Y135141D01*
X295327Y135326D01*
X293756Y135511D01*
X291814Y135695D01*
D02*
G37*
G36*
X169495Y162508D02*
X151188D01*
Y139671D01*
X168385D01*
X169032Y139763D01*
X169680D01*
X170419Y139856D01*
X172176Y140041D01*
X174118Y140411D01*
X176059Y140965D01*
X177816Y141705D01*
X178648Y142167D01*
X179295Y142722D01*
X179480Y142907D01*
X179850Y143277D01*
X180405Y144016D01*
X181052Y144941D01*
X181699Y146143D01*
X182254Y147622D01*
X182623Y149286D01*
X182808Y151228D01*
Y151320D01*
Y151413D01*
Y151875D01*
X182716Y152707D01*
X182531Y153632D01*
X182346Y154649D01*
X181976Y155851D01*
X181422Y156960D01*
X180774Y158070D01*
X180682Y158162D01*
X180405Y158532D01*
X179942Y158994D01*
X179388Y159642D01*
X178555Y160289D01*
X177631Y160843D01*
X176614Y161398D01*
X175412Y161860D01*
X175319D01*
X174950Y161953D01*
X174395Y162045D01*
X173655Y162230D01*
X172546Y162323D01*
X171159Y162415D01*
X169495Y162508D01*
D02*
G37*
G36*
X393793Y163895D02*
X393238D01*
X392868Y163802D01*
X391851Y163617D01*
X390649Y163340D01*
X389263Y162785D01*
X387783Y161953D01*
X387044Y161398D01*
X386304Y160843D01*
X385657Y160104D01*
X385010Y159272D01*
Y159179D01*
X384825Y158994D01*
X384640Y158625D01*
X384362Y158162D01*
X384085Y157423D01*
X383715Y156590D01*
X383438Y155573D01*
X383068Y154372D01*
X382698Y152985D01*
X382328Y151413D01*
X381959Y149656D01*
X381681Y147715D01*
X381404Y145496D01*
X381219Y143092D01*
X381126Y140503D01*
X381034Y137637D01*
Y137452D01*
Y136990D01*
Y136158D01*
X381126Y135048D01*
Y133846D01*
X381219Y132367D01*
X381311Y130795D01*
X381496Y129131D01*
X381959Y125525D01*
X382236Y123769D01*
X382606Y122104D01*
X382976Y120533D01*
X383530Y119053D01*
X384085Y117759D01*
X384732Y116649D01*
Y116557D01*
X384917Y116465D01*
X385379Y115817D01*
X386212Y114985D01*
X387229Y114061D01*
X388615Y113136D01*
X390187Y112304D01*
X391944Y111657D01*
X392868Y111564D01*
X393885Y111472D01*
X394440D01*
X394810Y111564D01*
X395735Y111749D01*
X397029Y112119D01*
X398416Y112766D01*
X399988Y113691D01*
X400727Y114246D01*
X401467Y114985D01*
X402206Y115725D01*
X402946Y116649D01*
Y116742D01*
X403131Y116927D01*
X403316Y117204D01*
X403501Y117667D01*
X403871Y118314D01*
X404148Y119146D01*
X404518Y120070D01*
X404888Y121180D01*
X405165Y122567D01*
X405535Y124046D01*
X405905Y125803D01*
X406182Y127652D01*
X406367Y129871D01*
X406552Y132182D01*
X406737Y134771D01*
Y137637D01*
Y137729D01*
Y137822D01*
Y138284D01*
Y139116D01*
X406644Y140226D01*
Y141428D01*
X406552Y142907D01*
X406459Y144479D01*
X406275Y146235D01*
X405812Y149749D01*
X405535Y151505D01*
X405165Y153170D01*
X404795Y154741D01*
X404240Y156221D01*
X403686Y157515D01*
X403039Y158625D01*
Y158717D01*
X402854Y158809D01*
X402669Y159087D01*
X402391Y159457D01*
X401559Y160289D01*
X400542Y161306D01*
X399155Y162230D01*
X397584Y163062D01*
X396752Y163432D01*
X395827Y163710D01*
X394810Y163802D01*
X393793Y163895D01*
D02*
G37*
G36*
X344052D02*
X343497D01*
X343127Y163802D01*
X342110Y163617D01*
X340908Y163340D01*
X339521Y162785D01*
X338042Y161953D01*
X337302Y161398D01*
X336563Y160843D01*
X335916Y160104D01*
X335268Y159272D01*
Y159179D01*
X335083Y158994D01*
X334898Y158625D01*
X334621Y158162D01*
X334344Y157423D01*
X333974Y156590D01*
X333697Y155573D01*
X333327Y154372D01*
X332957Y152985D01*
X332587Y151413D01*
X332217Y149656D01*
X331940Y147715D01*
X331663Y145496D01*
X331478Y143092D01*
X331385Y140503D01*
X331293Y137637D01*
Y137452D01*
Y136990D01*
Y136158D01*
X331385Y135048D01*
Y133846D01*
X331478Y132367D01*
X331570Y130795D01*
X331755Y129131D01*
X332217Y125525D01*
X332495Y123769D01*
X332864Y122104D01*
X333234Y120533D01*
X333789Y119053D01*
X334344Y117759D01*
X334991Y116649D01*
Y116557D01*
X335176Y116465D01*
X335638Y115817D01*
X336470Y114985D01*
X337487Y114061D01*
X338874Y113136D01*
X340446Y112304D01*
X342203Y111657D01*
X343127Y111564D01*
X344144Y111472D01*
X344699D01*
X345069Y111564D01*
X345993Y111749D01*
X347288Y112119D01*
X348674Y112766D01*
X350246Y113691D01*
X350986Y114246D01*
X351725Y114985D01*
X352465Y115725D01*
X353205Y116649D01*
Y116742D01*
X353390Y116927D01*
X353575Y117204D01*
X353760Y117667D01*
X354129Y118314D01*
X354407Y119146D01*
X354777Y120070D01*
X355146Y121180D01*
X355424Y122567D01*
X355794Y124046D01*
X356163Y125803D01*
X356441Y127652D01*
X356626Y129871D01*
X356811Y132182D01*
X356995Y134771D01*
Y137637D01*
Y137729D01*
Y137822D01*
Y138284D01*
Y139116D01*
X356903Y140226D01*
Y141428D01*
X356811Y142907D01*
X356718Y144479D01*
X356533Y146235D01*
X356071Y149749D01*
X355794Y151505D01*
X355424Y153170D01*
X355054Y154741D01*
X354499Y156221D01*
X353944Y157515D01*
X353297Y158625D01*
Y158717D01*
X353112Y158809D01*
X352927Y159087D01*
X352650Y159457D01*
X351818Y160289D01*
X350801Y161306D01*
X349414Y162230D01*
X347842Y163062D01*
X347010Y163432D01*
X346086Y163710D01*
X345069Y163802D01*
X344052Y163895D01*
D02*
G37*
%LPD*%
D14*
X119000Y496000D02*
X627000D01*
Y1004000D01*
X119000Y496000D02*
Y1004000D01*
X627000D01*
X1719000D02*
X2227000D01*
X1719000Y496000D02*
Y1004000D01*
X2227000Y496000D02*
Y1004000D01*
X1719000Y496000D02*
X2227000D01*
X165000Y745000D02*
X575000D01*
X1775000Y745000D02*
X2175000D01*
X2783000Y1261000D02*
X3037000D01*
Y245000D02*
Y1261000D01*
X2783000Y245000D02*
Y1261000D01*
Y245000D02*
X3037000D01*
%TF.MD5,5cb0b3cbf2882b95b2898cc946cde869*%
M02*
