%TF.GenerationSoftware,Altium Limited,Altium Designer,21.2.2 (38)*%
G04 Layer_Color=128*
%FSLAX45Y45*%
%MOMM*%
%TF.SameCoordinates,07D9DE08-B04B-4C31-AE65-01C2B5DB1128*%
%TF.FilePolarity,Positive*%
%TF.FileFunction,Drillmap*%
%TF.Part,Single*%
G01*
G75*
%TA.AperFunction,NonConductor*%
%ADD19C,0.12700*%
D19*
X201000Y623000D02*
X291000D01*
X246000Y578000D02*
Y668000D01*
X201000Y877000D02*
X291000D01*
X246000Y832000D02*
Y922000D01*
X455000Y623000D02*
X545000D01*
X500000Y578000D02*
Y668000D01*
X455000Y877000D02*
X545000D01*
X500000Y832000D02*
Y922000D01*
X2055000Y877000D02*
X2145000D01*
X2100000Y832000D02*
Y922000D01*
X2055000Y623000D02*
X2145000D01*
X2100000Y578000D02*
Y668000D01*
X1801000Y877000D02*
X1891000D01*
X1846000Y832000D02*
Y922000D01*
X1801000Y623000D02*
X1891000D01*
X1846000Y578000D02*
Y668000D01*
X2850000Y372000D02*
X2970000D01*
X2910000Y312000D02*
Y432000D01*
X2850000Y626000D02*
X2970000D01*
X2910000Y566000D02*
Y686000D01*
X2850000Y880000D02*
X2970000D01*
X2910000Y820000D02*
Y940000D01*
X2850000Y1134000D02*
X2970000D01*
X2910000Y1074000D02*
Y1194000D01*
%TF.MD5,15079447b5c19ea23508d49c13cf3416*%
M02*
