%TF.GenerationSoftware,Altium Limited,Altium Designer,21.2.2 (38)*%
G04 Layer_Color=65535*
%FSLAX45Y45*%
%MOMM*%
%TF.SameCoordinates,2B2ADE3A-D6C2-4D68-935B-3E8D4F3A6811*%
%TF.FilePolarity,Positive*%
%TF.FileFunction,Legend,Top*%
%TF.Part,Single*%
G01*
G75*
%TA.AperFunction,NonConductor*%
%ADD14C,0.20000*%
G36*
X254013Y182748D02*
X254845Y182656D01*
X255862Y182563D01*
X256879Y182471D01*
X258081Y182193D01*
X260577Y181639D01*
X263351Y180807D01*
X264738Y180252D01*
X266032Y179605D01*
X267327Y178773D01*
X268621Y177940D01*
X268713Y177848D01*
X268898Y177756D01*
X269268Y177478D01*
X269730Y177016D01*
X270193Y176554D01*
X270840Y175906D01*
X271487Y175167D01*
X272227Y174427D01*
X272966Y173503D01*
X273706Y172393D01*
X274538Y171284D01*
X275278Y170082D01*
X275925Y168695D01*
X276665Y167308D01*
X277219Y165829D01*
X277774Y164165D01*
X269453Y162223D01*
Y162315D01*
X269361Y162500D01*
X269176Y162870D01*
X268991Y163332D01*
X268806Y163887D01*
X268529Y164627D01*
X267789Y166106D01*
X266864Y167770D01*
X265755Y169435D01*
X264368Y171006D01*
X262889Y172393D01*
X262704Y172578D01*
X262149Y172948D01*
X261225Y173410D01*
X260023Y174057D01*
X258451Y174612D01*
X256694Y175167D01*
X254568Y175537D01*
X252256Y175629D01*
X251517D01*
X251054Y175537D01*
X250407D01*
X249668Y175444D01*
X247911Y175167D01*
X245969Y174797D01*
X243935Y174150D01*
X241809Y173225D01*
X239867Y172023D01*
X239775D01*
X239682Y171838D01*
X239035Y171376D01*
X238203Y170636D01*
X237186Y169527D01*
X235984Y168140D01*
X234875Y166568D01*
X233858Y164627D01*
X232933Y162500D01*
Y162408D01*
X232841Y162223D01*
X232748Y161946D01*
X232656Y161483D01*
X232471Y160929D01*
X232286Y160281D01*
X232008Y158710D01*
X231639Y156860D01*
X231269Y154826D01*
X231084Y152608D01*
X230991Y150204D01*
Y150111D01*
Y149834D01*
Y149372D01*
Y148817D01*
X231084Y148170D01*
Y147338D01*
X231176Y146413D01*
X231269Y145396D01*
X231546Y143177D01*
X232008Y140773D01*
X232563Y138369D01*
X233303Y135965D01*
Y135873D01*
X233395Y135688D01*
X233580Y135411D01*
X233765Y134948D01*
X234320Y133839D01*
X235152Y132545D01*
X236169Y131065D01*
X237463Y129494D01*
X238943Y128107D01*
X240699Y126812D01*
X240792D01*
X240977Y126720D01*
X241254Y126535D01*
X241624Y126350D01*
X242086Y126165D01*
X242641Y125888D01*
X243935Y125333D01*
X245599Y124778D01*
X247449Y124316D01*
X249483Y123946D01*
X251609Y123854D01*
X252256D01*
X252811Y123946D01*
X253458D01*
X254105Y124039D01*
X255770Y124408D01*
X257711Y124871D01*
X259653Y125610D01*
X261687Y126627D01*
X262704Y127182D01*
X263628Y127922D01*
X263721Y128014D01*
X263813Y128107D01*
X264091Y128384D01*
X264460Y128661D01*
X264830Y129124D01*
X265293Y129678D01*
X265847Y130233D01*
X266310Y130973D01*
X266864Y131805D01*
X267512Y132729D01*
X268066Y133654D01*
X268621Y134764D01*
X269083Y135965D01*
X269546Y137260D01*
X270008Y138647D01*
X270378Y140126D01*
X278884Y137999D01*
Y137907D01*
X278791Y137537D01*
X278606Y136982D01*
X278329Y136243D01*
X278052Y135411D01*
X277682Y134394D01*
X277219Y133284D01*
X276665Y132082D01*
X275370Y129494D01*
X273706Y126905D01*
X272689Y125610D01*
X271672Y124316D01*
X270563Y123207D01*
X269268Y122097D01*
X269176Y122005D01*
X268991Y121820D01*
X268529Y121635D01*
X268066Y121265D01*
X267327Y120803D01*
X266587Y120340D01*
X265570Y119878D01*
X264553Y119416D01*
X263351Y118861D01*
X262057Y118399D01*
X260670Y117937D01*
X259190Y117474D01*
X257619Y117104D01*
X255955Y116920D01*
X254198Y116735D01*
X252349Y116642D01*
X251332D01*
X250592Y116735D01*
X249760D01*
X248743Y116827D01*
X247633Y117012D01*
X246339Y117197D01*
X243658Y117659D01*
X240884Y118399D01*
X238111Y119416D01*
X236816Y120063D01*
X235522Y120803D01*
X235429Y120895D01*
X235244Y120988D01*
X234875Y121265D01*
X234505Y121635D01*
X233950Y122005D01*
X233303Y122559D01*
X232563Y123207D01*
X231824Y123946D01*
X231084Y124778D01*
X230252Y125610D01*
X228588Y127737D01*
X227016Y130233D01*
X225629Y133007D01*
Y133099D01*
X225444Y133377D01*
X225352Y133839D01*
X225074Y134394D01*
X224889Y135133D01*
X224612Y136058D01*
X224242Y137075D01*
X223965Y138184D01*
X223687Y139386D01*
X223318Y140773D01*
X222855Y143639D01*
X222485Y146875D01*
X222301Y150204D01*
Y150296D01*
Y150666D01*
Y151221D01*
X222393Y151868D01*
Y152792D01*
X222485Y153717D01*
X222578Y154919D01*
X222763Y156121D01*
X223225Y158802D01*
X223872Y161761D01*
X224797Y164719D01*
X226091Y167585D01*
X226184Y167678D01*
X226276Y167955D01*
X226461Y168325D01*
X226831Y168787D01*
X227201Y169435D01*
X227663Y170174D01*
X228865Y171838D01*
X230437Y173687D01*
X232286Y175537D01*
X234412Y177386D01*
X236909Y178957D01*
X237001Y179050D01*
X237278Y179142D01*
X237648Y179327D01*
X238111Y179605D01*
X238850Y179882D01*
X239590Y180159D01*
X240514Y180529D01*
X241531Y180899D01*
X242641Y181269D01*
X243843Y181639D01*
X246432Y182193D01*
X249390Y182656D01*
X252441Y182841D01*
X253366D01*
X254013Y182748D01*
D02*
G37*
G36*
X411003Y165089D02*
X412020Y164997D01*
X413222Y164812D01*
X414517Y164534D01*
X415903Y164165D01*
X417198Y163610D01*
X417383Y163517D01*
X417753Y163332D01*
X418400Y163055D01*
X419139Y162593D01*
X420064Y162038D01*
X420896Y161298D01*
X421728Y160559D01*
X422468Y159634D01*
X422560Y159542D01*
X422745Y159172D01*
X423023Y158710D01*
X423485Y158062D01*
X423855Y157138D01*
X424224Y156213D01*
X424687Y155104D01*
X424964Y153902D01*
Y153809D01*
X425057Y153440D01*
X425149Y152885D01*
X425241Y152145D01*
Y151036D01*
X425334Y149741D01*
X425426Y148170D01*
Y146228D01*
Y117752D01*
X417568D01*
Y145858D01*
Y145951D01*
Y146043D01*
Y146690D01*
Y147522D01*
X417475Y148539D01*
X417383Y149741D01*
X417198Y150943D01*
X416920Y152053D01*
X416643Y153070D01*
Y153162D01*
X416458Y153440D01*
X416181Y153902D01*
X415903Y154457D01*
X415441Y155011D01*
X414886Y155659D01*
X414147Y156306D01*
X413315Y156860D01*
X413222Y156953D01*
X412945Y157138D01*
X412390Y157323D01*
X411743Y157600D01*
X411003Y157878D01*
X410079Y158155D01*
X408969Y158247D01*
X407860Y158340D01*
X407397D01*
X407028Y158247D01*
X406103Y158155D01*
X404901Y157970D01*
X403607Y157508D01*
X402127Y156953D01*
X400648Y156213D01*
X399261Y155104D01*
X399076Y154919D01*
X398707Y154457D01*
X398429Y154087D01*
X398152Y153625D01*
X397782Y153070D01*
X397505Y152423D01*
X397135Y151683D01*
X396765Y150758D01*
X396488Y149741D01*
X396210Y148632D01*
X396025Y147430D01*
X395840Y146136D01*
X395656Y144564D01*
Y142992D01*
Y117752D01*
X387797D01*
Y164165D01*
X394823D01*
Y157508D01*
X394916Y157600D01*
X395101Y157878D01*
X395378Y158247D01*
X395748Y158710D01*
X396303Y159264D01*
X396950Y159912D01*
X397690Y160651D01*
X398614Y161391D01*
X399539Y162038D01*
X400648Y162778D01*
X401850Y163425D01*
X403144Y163980D01*
X404624Y164442D01*
X406103Y164812D01*
X407767Y165089D01*
X409524Y165182D01*
X410264D01*
X411003Y165089D01*
D02*
G37*
G36*
X361262D02*
X362279Y164997D01*
X363481Y164812D01*
X364775Y164534D01*
X366162Y164165D01*
X367456Y163610D01*
X367641Y163517D01*
X368011Y163332D01*
X368658Y163055D01*
X369398Y162593D01*
X370323Y162038D01*
X371155Y161298D01*
X371987Y160559D01*
X372726Y159634D01*
X372819Y159542D01*
X373004Y159172D01*
X373281Y158710D01*
X373743Y158062D01*
X374113Y157138D01*
X374483Y156213D01*
X374945Y155104D01*
X375223Y153902D01*
Y153809D01*
X375315Y153440D01*
X375408Y152885D01*
X375500Y152145D01*
Y151036D01*
X375593Y149741D01*
X375685Y148170D01*
Y146228D01*
Y117752D01*
X367826D01*
Y145858D01*
Y145951D01*
Y146043D01*
Y146690D01*
Y147522D01*
X367734Y148539D01*
X367641Y149741D01*
X367456Y150943D01*
X367179Y152053D01*
X366902Y153070D01*
Y153162D01*
X366717Y153440D01*
X366439Y153902D01*
X366162Y154457D01*
X365700Y155011D01*
X365145Y155659D01*
X364405Y156306D01*
X363573Y156860D01*
X363481Y156953D01*
X363203Y157138D01*
X362649Y157323D01*
X362002Y157600D01*
X361262Y157878D01*
X360337Y158155D01*
X359228Y158247D01*
X358118Y158340D01*
X357656D01*
X357286Y158247D01*
X356362Y158155D01*
X355160Y157970D01*
X353865Y157508D01*
X352386Y156953D01*
X350907Y156213D01*
X349520Y155104D01*
X349335Y154919D01*
X348965Y154457D01*
X348688Y154087D01*
X348411Y153625D01*
X348041Y153070D01*
X347763Y152423D01*
X347394Y151683D01*
X347024Y150758D01*
X346746Y149741D01*
X346469Y148632D01*
X346284Y147430D01*
X346099Y146136D01*
X345914Y144564D01*
Y142992D01*
Y117752D01*
X338055D01*
Y164165D01*
X345082D01*
Y157508D01*
X345175Y157600D01*
X345359Y157878D01*
X345637Y158247D01*
X346007Y158710D01*
X346561Y159264D01*
X347209Y159912D01*
X347948Y160651D01*
X348873Y161391D01*
X349797Y162038D01*
X350907Y162778D01*
X352109Y163425D01*
X353403Y163980D01*
X354882Y164442D01*
X356362Y164812D01*
X358026Y165089D01*
X359783Y165182D01*
X360522D01*
X361262Y165089D01*
D02*
G37*
G36*
X625131D02*
X626148Y164904D01*
X627350Y164534D01*
X628645Y164072D01*
X630124Y163425D01*
X631696Y162593D01*
X628830Y155381D01*
X628737Y155474D01*
X628367Y155659D01*
X627813Y155936D01*
X627073Y156213D01*
X626241Y156491D01*
X625224Y156768D01*
X624207Y156953D01*
X623190Y157045D01*
X622727D01*
X622265Y156953D01*
X621618Y156860D01*
X620971Y156676D01*
X620139Y156398D01*
X619307Y156028D01*
X618567Y155474D01*
X618475Y155381D01*
X618197Y155196D01*
X617920Y154826D01*
X617457Y154364D01*
X616995Y153717D01*
X616533Y152977D01*
X616071Y152145D01*
X615701Y151128D01*
X615608Y150943D01*
X615516Y150389D01*
X615331Y149556D01*
X615054Y148447D01*
X614776Y147060D01*
X614591Y145488D01*
X614499Y143824D01*
X614406Y141975D01*
Y117752D01*
X606548D01*
Y164165D01*
X613667D01*
Y157138D01*
X613759Y157230D01*
X614129Y157878D01*
X614591Y158710D01*
X615331Y159727D01*
X616071Y160744D01*
X616903Y161853D01*
X617735Y162778D01*
X618567Y163517D01*
X618659Y163610D01*
X618937Y163795D01*
X619492Y164072D01*
X620046Y164349D01*
X620786Y164627D01*
X621710Y164904D01*
X622635Y165089D01*
X623652Y165182D01*
X624299D01*
X625131Y165089D01*
D02*
G37*
G36*
X507342D02*
X507897D01*
X508637Y164997D01*
X510393Y164719D01*
X512335Y164257D01*
X514369Y163517D01*
X516403Y162593D01*
X518345Y161298D01*
X518437D01*
X518530Y161113D01*
X519084Y160559D01*
X519916Y159727D01*
X520933Y158525D01*
X521950Y157045D01*
X522967Y155196D01*
X523892Y153070D01*
X524539Y150573D01*
X516865Y149372D01*
Y149464D01*
X516773Y149556D01*
X516680Y150111D01*
X516403Y150943D01*
X515941Y151960D01*
X515479Y153070D01*
X514739Y154272D01*
X513907Y155381D01*
X512982Y156306D01*
X512890Y156398D01*
X512520Y156676D01*
X511873Y157045D01*
X511133Y157508D01*
X510116Y157970D01*
X509007Y158340D01*
X507712Y158617D01*
X506325Y158710D01*
X505771D01*
X505308Y158617D01*
X504291Y158525D01*
X502905Y158155D01*
X501425Y157693D01*
X499761Y156953D01*
X498189Y155843D01*
X497450Y155196D01*
X496710Y154457D01*
Y154364D01*
X496525Y154272D01*
X496340Y153994D01*
X496155Y153625D01*
X495878Y153162D01*
X495508Y152608D01*
X495231Y151960D01*
X494861Y151221D01*
X494491Y150296D01*
X494214Y149279D01*
X493844Y148170D01*
X493566Y146968D01*
X493382Y145673D01*
X493197Y144194D01*
X493012Y142622D01*
Y140958D01*
Y140866D01*
Y140588D01*
Y140034D01*
X493104Y139479D01*
Y138647D01*
X493197Y137815D01*
X493474Y135781D01*
X493844Y133562D01*
X494491Y131250D01*
X495323Y129216D01*
X495878Y128199D01*
X496525Y127367D01*
X496710Y127182D01*
X497172Y126720D01*
X498004Y126073D01*
X499021Y125333D01*
X500408Y124501D01*
X501980Y123854D01*
X503829Y123391D01*
X504846Y123299D01*
X505863Y123207D01*
X506048D01*
X506603Y123299D01*
X507527Y123391D01*
X508544Y123576D01*
X509746Y123854D01*
X511041Y124408D01*
X512335Y125056D01*
X513537Y125980D01*
X513722Y126073D01*
X513999Y126535D01*
X514554Y127182D01*
X515201Y128199D01*
X515848Y129401D01*
X516588Y130880D01*
X517143Y132729D01*
X517513Y134764D01*
X525279Y133746D01*
Y133654D01*
X525186Y133377D01*
X525094Y133007D01*
X525001Y132452D01*
X524817Y131712D01*
X524632Y130973D01*
X523984Y129124D01*
X523152Y127182D01*
X521950Y125056D01*
X520471Y123022D01*
X519639Y122097D01*
X518714Y121172D01*
X518622Y121080D01*
X518437Y120988D01*
X518160Y120803D01*
X517790Y120525D01*
X517328Y120155D01*
X516680Y119786D01*
X515941Y119416D01*
X515201Y118954D01*
X513352Y118121D01*
X511133Y117474D01*
X508729Y116920D01*
X507342Y116827D01*
X505956Y116735D01*
X505031D01*
X504384Y116827D01*
X503552Y116920D01*
X502627Y117104D01*
X501610Y117289D01*
X500501Y117474D01*
X498004Y118214D01*
X496802Y118769D01*
X495508Y119323D01*
X494214Y120063D01*
X493012Y120895D01*
X491810Y121820D01*
X490700Y122929D01*
X490608Y123022D01*
X490423Y123207D01*
X490146Y123576D01*
X489776Y124039D01*
X489406Y124686D01*
X488851Y125518D01*
X488389Y126442D01*
X487834Y127459D01*
X487279Y128661D01*
X486817Y130048D01*
X486262Y131435D01*
X485893Y133099D01*
X485523Y134764D01*
X485245Y136705D01*
X485060Y138647D01*
X484968Y140773D01*
Y140866D01*
Y141143D01*
Y141513D01*
Y142068D01*
X485060Y142715D01*
Y143454D01*
X485153Y144286D01*
X485245Y145211D01*
X485523Y147245D01*
X485985Y149464D01*
X486540Y151683D01*
X487372Y153902D01*
Y153994D01*
X487464Y154179D01*
X487649Y154457D01*
X487834Y154826D01*
X488389Y155843D01*
X489221Y157045D01*
X490330Y158432D01*
X491625Y159819D01*
X493197Y161206D01*
X494953Y162315D01*
X495046D01*
X495231Y162408D01*
X495508Y162593D01*
X495878Y162778D01*
X496340Y162963D01*
X496895Y163240D01*
X498282Y163795D01*
X499853Y164257D01*
X501795Y164719D01*
X503829Y165089D01*
X506048Y165182D01*
X506788D01*
X507342Y165089D01*
D02*
G37*
G36*
X167289Y117752D02*
X158413D01*
X133635Y181731D01*
X142881D01*
X159523Y135226D01*
Y135133D01*
X159615Y134948D01*
X159708Y134671D01*
X159893Y134301D01*
X159985Y133746D01*
X160170Y133192D01*
X160632Y131805D01*
X161187Y130233D01*
X161742Y128477D01*
X162851Y124778D01*
Y124871D01*
X162944Y125056D01*
X163036Y125333D01*
X163129Y125703D01*
X163406Y126720D01*
X163868Y128107D01*
X164331Y129678D01*
X164885Y131435D01*
X165533Y133284D01*
X166272Y135226D01*
X183654Y181731D01*
X192252D01*
X167289Y117752D01*
D02*
G37*
G36*
X1104608Y181916D02*
X1105348Y181824D01*
X1106272Y181731D01*
X1107289Y181546D01*
X1108306Y181362D01*
X1110710Y180714D01*
X1113114Y179790D01*
X1114316Y179235D01*
X1115518Y178588D01*
X1116627Y177756D01*
X1117644Y176831D01*
X1117737Y176739D01*
X1117922Y176646D01*
X1118107Y176277D01*
X1118477Y175907D01*
X1118939Y175444D01*
X1119401Y174797D01*
X1119863Y174150D01*
X1120418Y173318D01*
X1121343Y171561D01*
X1122267Y169342D01*
X1122637Y168233D01*
X1122822Y166938D01*
X1123007Y165644D01*
X1123099Y164257D01*
Y164072D01*
Y163610D01*
X1123007Y162870D01*
X1122914Y161853D01*
X1122730Y160744D01*
X1122360Y159450D01*
X1121990Y158063D01*
X1121435Y156676D01*
X1121343Y156491D01*
X1121158Y156029D01*
X1120788Y155289D01*
X1120233Y154272D01*
X1119494Y153163D01*
X1118569Y151776D01*
X1117460Y150389D01*
X1116165Y148817D01*
X1115980Y148632D01*
X1115518Y148077D01*
X1115056Y147615D01*
X1114593Y147153D01*
X1114039Y146598D01*
X1113299Y145858D01*
X1112559Y145119D01*
X1111635Y144287D01*
X1110710Y143362D01*
X1109601Y142345D01*
X1108399Y141328D01*
X1107104Y140126D01*
X1105625Y138924D01*
X1104146Y137630D01*
X1104053Y137537D01*
X1103869Y137353D01*
X1103499Y137075D01*
X1103036Y136705D01*
X1102482Y136151D01*
X1101834Y135596D01*
X1100355Y134394D01*
X1098783Y133007D01*
X1097304Y131620D01*
X1096010Y130418D01*
X1095455Y129956D01*
X1094993Y129494D01*
X1094900Y129401D01*
X1094623Y129124D01*
X1094253Y128754D01*
X1093791Y128199D01*
X1093329Y127552D01*
X1092774Y126905D01*
X1091664Y125333D01*
X1123192D01*
Y117752D01*
X1080755D01*
Y117844D01*
Y118214D01*
Y118769D01*
X1080847Y119509D01*
X1080939Y120341D01*
X1081124Y121265D01*
X1081309Y122190D01*
X1081679Y123207D01*
Y123299D01*
X1081772Y123392D01*
X1081956Y123946D01*
X1082326Y124779D01*
X1082881Y125888D01*
X1083621Y127182D01*
X1084545Y128662D01*
X1085562Y130141D01*
X1086857Y131713D01*
Y131805D01*
X1087042Y131898D01*
X1087504Y132452D01*
X1088336Y133284D01*
X1089538Y134486D01*
X1090925Y135873D01*
X1092681Y137537D01*
X1094808Y139387D01*
X1097119Y141328D01*
X1097212Y141421D01*
X1097581Y141698D01*
X1098136Y142160D01*
X1098783Y142715D01*
X1099616Y143455D01*
X1100633Y144287D01*
X1101650Y145211D01*
X1102851Y146228D01*
X1105163Y148447D01*
X1107474Y150666D01*
X1108584Y151776D01*
X1109601Y152885D01*
X1110525Y153902D01*
X1111265Y154919D01*
Y155012D01*
X1111450Y155104D01*
X1111635Y155381D01*
X1111820Y155751D01*
X1112467Y156768D01*
X1113207Y157970D01*
X1113854Y159450D01*
X1114501Y161021D01*
X1114871Y162778D01*
X1115056Y164442D01*
Y164535D01*
Y164627D01*
X1114963Y165182D01*
X1114871Y166106D01*
X1114593Y167123D01*
X1114224Y168418D01*
X1113576Y169712D01*
X1112744Y171007D01*
X1111635Y172301D01*
X1111450Y172486D01*
X1110988Y172856D01*
X1110340Y173318D01*
X1109323Y173965D01*
X1108029Y174520D01*
X1106550Y175075D01*
X1104793Y175444D01*
X1102851Y175537D01*
X1102297D01*
X1101927Y175444D01*
X1100817Y175352D01*
X1099523Y175075D01*
X1098136Y174705D01*
X1096564Y174058D01*
X1095085Y173225D01*
X1093698Y172116D01*
X1093513Y171931D01*
X1093144Y171469D01*
X1092589Y170729D01*
X1092034Y169620D01*
X1091387Y168325D01*
X1090832Y166661D01*
X1090462Y164812D01*
X1090277Y162685D01*
X1082234Y163518D01*
Y163610D01*
X1082326Y163887D01*
Y164350D01*
X1082419Y164997D01*
X1082604Y165737D01*
X1082789Y166569D01*
X1083066Y167586D01*
X1083343Y168603D01*
X1084083Y170822D01*
X1085192Y173041D01*
X1085840Y174150D01*
X1086672Y175259D01*
X1087504Y176277D01*
X1088428Y177201D01*
X1088521Y177294D01*
X1088706Y177386D01*
X1088983Y177663D01*
X1089445Y177941D01*
X1090000Y178311D01*
X1090647Y178680D01*
X1091387Y179143D01*
X1092312Y179605D01*
X1093329Y180067D01*
X1094438Y180529D01*
X1095640Y180899D01*
X1096934Y181269D01*
X1098321Y181546D01*
X1099800Y181824D01*
X1101372Y181916D01*
X1103036Y182009D01*
X1103961D01*
X1104608Y181916D01*
D02*
G37*
G36*
X1061709Y117752D02*
X1053850D01*
Y167771D01*
X1053757Y167678D01*
X1053295Y167308D01*
X1052740Y166754D01*
X1051816Y166106D01*
X1050799Y165274D01*
X1049504Y164350D01*
X1048025Y163333D01*
X1046361Y162316D01*
X1046268D01*
X1046176Y162223D01*
X1045621Y161853D01*
X1044697Y161391D01*
X1043587Y160836D01*
X1042293Y160189D01*
X1040906Y159542D01*
X1039519Y158895D01*
X1038132Y158340D01*
Y165921D01*
X1038225D01*
X1038410Y166106D01*
X1038779Y166199D01*
X1039242Y166476D01*
X1039796Y166754D01*
X1040444Y167123D01*
X1042015Y168048D01*
X1043865Y169065D01*
X1045714Y170359D01*
X1047655Y171839D01*
X1049597Y173410D01*
X1049689Y173503D01*
X1049782Y173595D01*
X1050059Y173873D01*
X1050429Y174150D01*
X1051261Y175075D01*
X1052371Y176184D01*
X1053480Y177478D01*
X1054682Y178958D01*
X1055699Y180437D01*
X1056623Y182009D01*
X1061709D01*
Y117752D01*
D02*
G37*
G36*
X990517Y140311D02*
X999208D01*
Y133100D01*
X990517D01*
Y117752D01*
X982659D01*
Y133100D01*
X954829D01*
Y140311D01*
X984138Y181731D01*
X990517D01*
Y140311D01*
D02*
G37*
G36*
X862743Y117752D02*
X854884D01*
Y167771D01*
X854792Y167678D01*
X854330Y167308D01*
X853775Y166754D01*
X852850Y166106D01*
X851833Y165274D01*
X850539Y164350D01*
X849060Y163333D01*
X847396Y162316D01*
X847303D01*
X847211Y162223D01*
X846656Y161853D01*
X845731Y161391D01*
X844622Y160836D01*
X843327Y160189D01*
X841941Y159542D01*
X840554Y158895D01*
X839167Y158340D01*
Y165921D01*
X839259D01*
X839444Y166106D01*
X839814Y166199D01*
X840276Y166476D01*
X840831Y166753D01*
X841478Y167123D01*
X843050Y168048D01*
X844899Y169065D01*
X846748Y170359D01*
X848690Y171839D01*
X850632Y173410D01*
X850724Y173503D01*
X850816Y173595D01*
X851094Y173873D01*
X851464Y174150D01*
X852296Y175075D01*
X853405Y176184D01*
X854515Y177478D01*
X855717Y178958D01*
X856734Y180437D01*
X857658Y182009D01*
X862743D01*
Y117752D01*
D02*
G37*
G36*
X806160Y181916D02*
X806900Y181824D01*
X807824Y181731D01*
X808841Y181546D01*
X809858Y181361D01*
X812262Y180714D01*
X814666Y179790D01*
X815868Y179235D01*
X817070Y178588D01*
X818179Y177756D01*
X819196Y176831D01*
X819289Y176739D01*
X819474Y176646D01*
X819659Y176276D01*
X820029Y175906D01*
X820491Y175444D01*
X820953Y174797D01*
X821415Y174150D01*
X821970Y173318D01*
X822895Y171561D01*
X823819Y169342D01*
X824189Y168233D01*
X824374Y166938D01*
X824559Y165644D01*
X824651Y164257D01*
Y164072D01*
Y163610D01*
X824559Y162870D01*
X824466Y161853D01*
X824282Y160744D01*
X823912Y159449D01*
X823542Y158062D01*
X822987Y156676D01*
X822895Y156491D01*
X822710Y156028D01*
X822340Y155289D01*
X821785Y154272D01*
X821046Y153162D01*
X820121Y151775D01*
X819012Y150389D01*
X817717Y148817D01*
X817532Y148632D01*
X817070Y148077D01*
X816608Y147615D01*
X816145Y147153D01*
X815591Y146598D01*
X814851Y145858D01*
X814111Y145119D01*
X813187Y144286D01*
X812262Y143362D01*
X811153Y142345D01*
X809951Y141328D01*
X808656Y140126D01*
X807177Y138924D01*
X805698Y137630D01*
X805605Y137537D01*
X805421Y137352D01*
X805051Y137075D01*
X804588Y136705D01*
X804034Y136150D01*
X803387Y135596D01*
X801907Y134394D01*
X800335Y133007D01*
X798856Y131620D01*
X797562Y130418D01*
X797007Y129956D01*
X796545Y129494D01*
X796452Y129401D01*
X796175Y129124D01*
X795805Y128754D01*
X795343Y128199D01*
X794881Y127552D01*
X794326Y126905D01*
X793216Y125333D01*
X824744D01*
Y117752D01*
X782307D01*
Y117844D01*
Y118214D01*
Y118769D01*
X782399Y119508D01*
X782491Y120340D01*
X782676Y121265D01*
X782861Y122189D01*
X783231Y123207D01*
Y123299D01*
X783324Y123391D01*
X783508Y123946D01*
X783878Y124778D01*
X784433Y125888D01*
X785173Y127182D01*
X786097Y128661D01*
X787114Y130141D01*
X788409Y131712D01*
Y131805D01*
X788594Y131897D01*
X789056Y132452D01*
X789888Y133284D01*
X791090Y134486D01*
X792477Y135873D01*
X794233Y137537D01*
X796360Y139386D01*
X798671Y141328D01*
X798764Y141420D01*
X799134Y141698D01*
X799688Y142160D01*
X800335Y142715D01*
X801168Y143454D01*
X802185Y144286D01*
X803202Y145211D01*
X804404Y146228D01*
X806715Y148447D01*
X809026Y150666D01*
X810136Y151775D01*
X811153Y152885D01*
X812077Y153902D01*
X812817Y154919D01*
Y155011D01*
X813002Y155104D01*
X813187Y155381D01*
X813372Y155751D01*
X814019Y156768D01*
X814759Y157970D01*
X815406Y159449D01*
X816053Y161021D01*
X816423Y162778D01*
X816608Y164442D01*
Y164534D01*
Y164627D01*
X816515Y165182D01*
X816423Y166106D01*
X816145Y167123D01*
X815776Y168417D01*
X815128Y169712D01*
X814296Y171006D01*
X813187Y172301D01*
X813002Y172486D01*
X812540Y172855D01*
X811892Y173318D01*
X810875Y173965D01*
X809581Y174520D01*
X808102Y175074D01*
X806345Y175444D01*
X804404Y175537D01*
X803849D01*
X803479Y175444D01*
X802369Y175352D01*
X801075Y175074D01*
X799688Y174705D01*
X798117Y174057D01*
X796637Y173225D01*
X795250Y172116D01*
X795065Y171931D01*
X794696Y171469D01*
X794141Y170729D01*
X793586Y169619D01*
X792939Y168325D01*
X792384Y166661D01*
X792014Y164812D01*
X791830Y162685D01*
X783786Y163517D01*
Y163610D01*
X783878Y163887D01*
Y164349D01*
X783971Y164997D01*
X784156Y165736D01*
X784341Y166568D01*
X784618Y167585D01*
X784895Y168602D01*
X785635Y170821D01*
X786744Y173040D01*
X787392Y174150D01*
X788224Y175259D01*
X789056Y176276D01*
X789980Y177201D01*
X790073Y177293D01*
X790258Y177386D01*
X790535Y177663D01*
X790997Y177940D01*
X791552Y178310D01*
X792199Y178680D01*
X792939Y179142D01*
X793864Y179605D01*
X794881Y180067D01*
X795990Y180529D01*
X797192Y180899D01*
X798486Y181269D01*
X799873Y181546D01*
X801352Y181824D01*
X802924Y181916D01*
X804588Y182009D01*
X805513D01*
X806160Y181916D01*
D02*
G37*
G36*
X706678D02*
X707417Y181824D01*
X708342Y181731D01*
X709359Y181546D01*
X710376Y181361D01*
X712780Y180714D01*
X715183Y179790D01*
X716385Y179235D01*
X717587Y178588D01*
X718697Y177756D01*
X719714Y176831D01*
X719806Y176739D01*
X719991Y176646D01*
X720176Y176276D01*
X720546Y175906D01*
X721008Y175444D01*
X721470Y174797D01*
X721933Y174150D01*
X722488Y173318D01*
X723412Y171561D01*
X724337Y169342D01*
X724706Y168233D01*
X724891Y166938D01*
X725076Y165644D01*
X725169Y164257D01*
Y164072D01*
Y163610D01*
X725076Y162870D01*
X724984Y161853D01*
X724799Y160744D01*
X724429Y159449D01*
X724059Y158062D01*
X723505Y156676D01*
X723412Y156491D01*
X723227Y156028D01*
X722857Y155289D01*
X722303Y154272D01*
X721563Y153162D01*
X720638Y151775D01*
X719529Y150389D01*
X718235Y148817D01*
X718050Y148632D01*
X717587Y148077D01*
X717125Y147615D01*
X716663Y147153D01*
X716108Y146598D01*
X715368Y145858D01*
X714629Y145119D01*
X713704Y144286D01*
X712780Y143362D01*
X711670Y142345D01*
X710468Y141328D01*
X709174Y140126D01*
X707695Y138924D01*
X706215Y137630D01*
X706123Y137537D01*
X705938Y137352D01*
X705568Y137075D01*
X705106Y136705D01*
X704551Y136150D01*
X703904Y135596D01*
X702425Y134394D01*
X700853Y133007D01*
X699374Y131620D01*
X698079Y130418D01*
X697524Y129956D01*
X697062Y129494D01*
X696970Y129401D01*
X696692Y129124D01*
X696322Y128754D01*
X695860Y128199D01*
X695398Y127552D01*
X694843Y126905D01*
X693734Y125333D01*
X725261D01*
Y117752D01*
X682824D01*
Y117844D01*
Y118214D01*
Y118769D01*
X682916Y119508D01*
X683009Y120340D01*
X683194Y121265D01*
X683379Y122189D01*
X683748Y123207D01*
Y123299D01*
X683841Y123391D01*
X684026Y123946D01*
X684396Y124778D01*
X684950Y125888D01*
X685690Y127182D01*
X686615Y128661D01*
X687632Y130141D01*
X688926Y131712D01*
Y131805D01*
X689111Y131897D01*
X689573Y132452D01*
X690405Y133284D01*
X691607Y134486D01*
X692994Y135873D01*
X694751Y137537D01*
X696877Y139386D01*
X699189Y141328D01*
X699281Y141420D01*
X699651Y141698D01*
X700206Y142160D01*
X700853Y142715D01*
X701685Y143454D01*
X702702Y144286D01*
X703719Y145211D01*
X704921Y146228D01*
X707232Y148447D01*
X709544Y150666D01*
X710653Y151775D01*
X711670Y152885D01*
X712595Y153902D01*
X713334Y154919D01*
Y155011D01*
X713519Y155104D01*
X713704Y155381D01*
X713889Y155751D01*
X714536Y156768D01*
X715276Y157970D01*
X715923Y159449D01*
X716570Y161021D01*
X716940Y162778D01*
X717125Y164442D01*
Y164534D01*
Y164627D01*
X717033Y165182D01*
X716940Y166106D01*
X716663Y167123D01*
X716293Y168417D01*
X715646Y169712D01*
X714814Y171006D01*
X713704Y172301D01*
X713519Y172486D01*
X713057Y172855D01*
X712410Y173318D01*
X711393Y173965D01*
X710098Y174520D01*
X708619Y175074D01*
X706862Y175444D01*
X704921Y175537D01*
X704366D01*
X703996Y175444D01*
X702887Y175352D01*
X701592Y175074D01*
X700206Y174705D01*
X698634Y174057D01*
X697155Y173225D01*
X695768Y172116D01*
X695583Y171931D01*
X695213Y171469D01*
X694658Y170729D01*
X694104Y169619D01*
X693456Y168325D01*
X692902Y166661D01*
X692532Y164812D01*
X692347Y162685D01*
X684303Y163517D01*
Y163610D01*
X684396Y163887D01*
Y164349D01*
X684488Y164997D01*
X684673Y165736D01*
X684858Y166568D01*
X685135Y167585D01*
X685413Y168602D01*
X686152Y170821D01*
X687262Y173040D01*
X687909Y174150D01*
X688741Y175259D01*
X689573Y176276D01*
X690498Y177201D01*
X690590Y177293D01*
X690775Y177386D01*
X691052Y177663D01*
X691515Y177940D01*
X692069Y178310D01*
X692717Y178680D01*
X693456Y179142D01*
X694381Y179605D01*
X695398Y180067D01*
X696507Y180529D01*
X697709Y180899D01*
X699004Y181269D01*
X700391Y181546D01*
X701870Y181824D01*
X703442Y181916D01*
X705106Y182009D01*
X706030D01*
X706678Y181916D01*
D02*
G37*
G36*
X125314Y117752D02*
X116808D01*
Y181731D01*
X125314D01*
Y117752D01*
D02*
G37*
G36*
X541181Y164165D02*
X549133D01*
Y158062D01*
X541181D01*
Y130788D01*
Y130603D01*
Y130233D01*
Y129678D01*
X541274Y129031D01*
X541366Y127552D01*
X541459Y126905D01*
X541551Y126442D01*
X541644Y126258D01*
X541921Y125888D01*
X542291Y125425D01*
X542938Y124963D01*
X543123Y124871D01*
X543585Y124686D01*
X544417Y124501D01*
X545619Y124408D01*
X546544D01*
X547006Y124501D01*
X547653D01*
X548393Y124593D01*
X549133Y124686D01*
X550150Y117752D01*
X549965D01*
X549595Y117659D01*
X548948Y117567D01*
X548115Y117474D01*
X547191Y117289D01*
X546174Y117197D01*
X544140Y117104D01*
X543400D01*
X542661Y117197D01*
X541736Y117289D01*
X540627Y117382D01*
X539517Y117659D01*
X538500Y117937D01*
X537483Y118399D01*
X537391Y118491D01*
X537113Y118676D01*
X536743Y118954D01*
X536189Y119416D01*
X535726Y119878D01*
X535172Y120525D01*
X534617Y121172D01*
X534247Y122005D01*
Y122097D01*
X534062Y122467D01*
X533970Y123114D01*
X533785Y124039D01*
X533600Y125241D01*
X533507Y125980D01*
Y126812D01*
X533415Y127829D01*
X533323Y128846D01*
Y129956D01*
Y131250D01*
Y158062D01*
X527498D01*
Y164165D01*
X533323D01*
Y175629D01*
X541181Y180344D01*
Y164165D01*
D02*
G37*
G36*
X577239Y165089D02*
X578071Y164997D01*
X578996Y164812D01*
X580013Y164627D01*
X581215Y164442D01*
X583711Y163610D01*
X585005Y163148D01*
X586300Y162500D01*
X587594Y161853D01*
X588889Y160929D01*
X590091Y160004D01*
X591292Y158895D01*
X591385Y158802D01*
X591570Y158617D01*
X591847Y158247D01*
X592217Y157785D01*
X592679Y157138D01*
X593234Y156306D01*
X593789Y155381D01*
X594343Y154364D01*
X594898Y153255D01*
X595453Y151868D01*
X596008Y150481D01*
X596470Y148909D01*
X596840Y147245D01*
X597117Y145488D01*
X597302Y143639D01*
X597395Y141605D01*
Y141513D01*
Y141235D01*
Y140773D01*
Y140126D01*
X597302Y139386D01*
X597210Y138462D01*
Y137537D01*
X597025Y136520D01*
X596747Y134209D01*
X596193Y131897D01*
X595545Y129586D01*
X594621Y127459D01*
Y127367D01*
X594528Y127275D01*
X594343Y126997D01*
X594159Y126627D01*
X593511Y125703D01*
X592679Y124593D01*
X591570Y123299D01*
X590183Y122005D01*
X588611Y120710D01*
X586762Y119508D01*
X586670D01*
X586577Y119416D01*
X586300Y119231D01*
X585838Y119046D01*
X585375Y118861D01*
X584821Y118676D01*
X583434Y118121D01*
X581862Y117659D01*
X579920Y117197D01*
X577886Y116827D01*
X575667Y116735D01*
X574743D01*
X574003Y116827D01*
X573171Y116920D01*
X572247Y117104D01*
X571137Y117289D01*
X570028Y117474D01*
X567531Y118214D01*
X566144Y118769D01*
X564850Y119323D01*
X563556Y120063D01*
X562261Y120895D01*
X561059Y121820D01*
X559857Y122929D01*
X559765Y123022D01*
X559580Y123207D01*
X559303Y123576D01*
X558933Y124131D01*
X558471Y124778D01*
X558008Y125518D01*
X557454Y126442D01*
X556899Y127552D01*
X556344Y128754D01*
X555789Y130141D01*
X555327Y131620D01*
X554865Y133192D01*
X554495Y134948D01*
X554218Y136798D01*
X554033Y138832D01*
X553940Y140958D01*
Y141143D01*
Y141513D01*
X554033Y142160D01*
Y143085D01*
X554125Y144102D01*
X554310Y145396D01*
X554495Y146690D01*
X554865Y148170D01*
X555235Y149649D01*
X555697Y151221D01*
X556252Y152885D01*
X556991Y154457D01*
X557731Y155936D01*
X558748Y157415D01*
X559765Y158802D01*
X561059Y160004D01*
X561152Y160096D01*
X561337Y160189D01*
X561707Y160466D01*
X562169Y160836D01*
X562724Y161206D01*
X563463Y161668D01*
X564203Y162130D01*
X565127Y162593D01*
X566144Y163055D01*
X567254Y163517D01*
X569750Y164349D01*
X572616Y164997D01*
X574096Y165089D01*
X575667Y165182D01*
X576592D01*
X577239Y165089D01*
D02*
G37*
G36*
X458063D02*
X458803Y164997D01*
X459728Y164812D01*
X460745Y164627D01*
X461946Y164349D01*
X463056Y164072D01*
X464350Y163610D01*
X465552Y163148D01*
X466847Y162500D01*
X468141Y161761D01*
X469435Y160929D01*
X470637Y159912D01*
X471747Y158802D01*
X471839Y158710D01*
X472024Y158525D01*
X472302Y158155D01*
X472671Y157600D01*
X473134Y156953D01*
X473596Y156213D01*
X474151Y155289D01*
X474705Y154179D01*
X475260Y152977D01*
X475815Y151683D01*
X476277Y150204D01*
X476739Y148632D01*
X477109Y146875D01*
X477387Y145026D01*
X477572Y143085D01*
X477664Y140958D01*
Y140866D01*
Y140496D01*
Y139849D01*
X477572Y138924D01*
X442901D01*
Y138832D01*
Y138554D01*
X442993Y138184D01*
Y137630D01*
X443085Y136982D01*
X443270Y136243D01*
X443548Y134579D01*
X444102Y132729D01*
X444842Y130695D01*
X445859Y128846D01*
X447154Y127182D01*
X447246D01*
X447338Y126997D01*
X447893Y126535D01*
X448725Y125888D01*
X449835Y125241D01*
X451314Y124501D01*
X452978Y123854D01*
X454827Y123391D01*
X455844Y123299D01*
X456954Y123207D01*
X457694D01*
X458526Y123299D01*
X459543Y123484D01*
X460652Y123761D01*
X461946Y124131D01*
X463148Y124686D01*
X464350Y125425D01*
X464443Y125518D01*
X464905Y125888D01*
X465460Y126442D01*
X466107Y127182D01*
X466847Y128199D01*
X467679Y129494D01*
X468511Y130973D01*
X469251Y132729D01*
X477387Y131712D01*
Y131620D01*
X477294Y131435D01*
X477202Y131065D01*
X477017Y130511D01*
X476739Y129956D01*
X476462Y129216D01*
X475722Y127644D01*
X474798Y125888D01*
X473503Y124039D01*
X472024Y122282D01*
X470175Y120618D01*
X470083D01*
X469898Y120433D01*
X469620Y120248D01*
X469251Y119971D01*
X468696Y119693D01*
X468141Y119416D01*
X467401Y119046D01*
X466569Y118676D01*
X465645Y118306D01*
X464720Y117937D01*
X462409Y117382D01*
X459820Y116920D01*
X456954Y116735D01*
X455937D01*
X455290Y116827D01*
X454458Y116920D01*
X453441Y117104D01*
X452331Y117289D01*
X451129Y117474D01*
X448540Y118214D01*
X447154Y118769D01*
X445859Y119323D01*
X444472Y120063D01*
X443178Y120895D01*
X441976Y121820D01*
X440774Y122929D01*
X440682Y123022D01*
X440497Y123207D01*
X440219Y123576D01*
X439850Y124131D01*
X439387Y124778D01*
X438925Y125518D01*
X438370Y126442D01*
X437815Y127459D01*
X437261Y128661D01*
X436706Y129956D01*
X436244Y131435D01*
X435781Y133007D01*
X435412Y134671D01*
X435134Y136520D01*
X434949Y138462D01*
X434857Y140496D01*
Y140588D01*
Y141051D01*
Y141605D01*
X434949Y142437D01*
X435042Y143454D01*
X435134Y144564D01*
X435319Y145858D01*
X435597Y147153D01*
X436336Y150111D01*
X436798Y151591D01*
X437353Y153162D01*
X438093Y154642D01*
X438925Y156028D01*
X439850Y157415D01*
X440867Y158710D01*
X440959Y158802D01*
X441144Y158987D01*
X441514Y159264D01*
X441976Y159727D01*
X442531Y160189D01*
X443270Y160744D01*
X444102Y161391D01*
X445120Y161946D01*
X446137Y162593D01*
X447338Y163148D01*
X448633Y163702D01*
X450020Y164165D01*
X451499Y164627D01*
X453071Y164904D01*
X454735Y165089D01*
X456492Y165182D01*
X457416D01*
X458063Y165089D01*
D02*
G37*
G36*
X308654D02*
X309487Y164997D01*
X310411Y164812D01*
X311428Y164627D01*
X312630Y164442D01*
X315126Y163610D01*
X316421Y163148D01*
X317715Y162500D01*
X319010Y161853D01*
X320304Y160929D01*
X321506Y160004D01*
X322708Y158895D01*
X322800Y158802D01*
X322985Y158617D01*
X323262Y158247D01*
X323632Y157785D01*
X324095Y157138D01*
X324649Y156306D01*
X325204Y155381D01*
X325759Y154364D01*
X326314Y153255D01*
X326868Y151868D01*
X327423Y150481D01*
X327885Y148909D01*
X328255Y147245D01*
X328532Y145488D01*
X328717Y143639D01*
X328810Y141605D01*
Y141513D01*
Y141235D01*
Y140773D01*
Y140126D01*
X328717Y139386D01*
X328625Y138462D01*
Y137537D01*
X328440Y136520D01*
X328163Y134209D01*
X327608Y131897D01*
X326961Y129586D01*
X326036Y127459D01*
Y127367D01*
X325944Y127275D01*
X325759Y126997D01*
X325574Y126627D01*
X324927Y125703D01*
X324095Y124593D01*
X322985Y123299D01*
X321598Y122005D01*
X320027Y120710D01*
X318177Y119508D01*
X318085D01*
X317993Y119416D01*
X317715Y119231D01*
X317253Y119046D01*
X316791Y118861D01*
X316236Y118676D01*
X314849Y118121D01*
X313277Y117659D01*
X311336Y117197D01*
X309302Y116827D01*
X307083Y116735D01*
X306158D01*
X305418Y116827D01*
X304586Y116920D01*
X303662Y117104D01*
X302552Y117289D01*
X301443Y117474D01*
X298947Y118214D01*
X297560Y118769D01*
X296265Y119323D01*
X294971Y120063D01*
X293677Y120895D01*
X292475Y121820D01*
X291273Y122929D01*
X291180Y123022D01*
X290995Y123207D01*
X290718Y123576D01*
X290348Y124131D01*
X289886Y124778D01*
X289424Y125518D01*
X288869Y126442D01*
X288314Y127552D01*
X287759Y128754D01*
X287205Y130141D01*
X286742Y131620D01*
X286280Y133192D01*
X285910Y134948D01*
X285633Y136798D01*
X285448Y138832D01*
X285356Y140958D01*
Y141143D01*
Y141513D01*
X285448Y142160D01*
Y143085D01*
X285540Y144102D01*
X285725Y145396D01*
X285910Y146690D01*
X286280Y148170D01*
X286650Y149649D01*
X287112Y151221D01*
X287667Y152885D01*
X288407Y154457D01*
X289146Y155936D01*
X290163Y157415D01*
X291180Y158802D01*
X292475Y160004D01*
X292567Y160096D01*
X292752Y160189D01*
X293122Y160466D01*
X293584Y160836D01*
X294139Y161206D01*
X294879Y161668D01*
X295618Y162130D01*
X296543Y162593D01*
X297560Y163055D01*
X298669Y163517D01*
X301166Y164349D01*
X304032Y164997D01*
X305511Y165089D01*
X307083Y165182D01*
X308007D01*
X308654Y165089D01*
D02*
G37*
G36*
X1009841Y116642D02*
X1003554D01*
X1022137Y182841D01*
X1028424D01*
X1009841Y116642D01*
D02*
G37*
G36*
X930514Y181916D02*
X931715Y181731D01*
X933102Y181454D01*
X934582Y181084D01*
X936153Y180622D01*
X937633Y179882D01*
X937725D01*
X937818Y179790D01*
X938280Y179512D01*
X939019Y179050D01*
X939944Y178403D01*
X940961Y177478D01*
X942071Y176461D01*
X943088Y175259D01*
X944105Y173873D01*
X944197Y173688D01*
X944567Y173225D01*
X944937Y172393D01*
X945584Y171191D01*
X946139Y169805D01*
X946878Y168233D01*
X947525Y166384D01*
X948080Y164350D01*
Y164257D01*
X948173Y164072D01*
X948265Y163795D01*
X948358Y163333D01*
X948450Y162778D01*
X948542Y162131D01*
X948727Y161299D01*
X948820Y160374D01*
X949005Y159357D01*
X949097Y158248D01*
X949190Y156953D01*
X949375Y155659D01*
X949467Y154180D01*
Y152700D01*
X949559Y151036D01*
Y149279D01*
Y149187D01*
Y148817D01*
Y148170D01*
Y147430D01*
X949467Y146413D01*
Y145304D01*
X949375Y144102D01*
X949282Y142807D01*
X949005Y139849D01*
X948542Y136798D01*
X947988Y133839D01*
X947618Y132452D01*
X947156Y131066D01*
Y130973D01*
X947063Y130788D01*
X946878Y130418D01*
X946693Y129956D01*
X946508Y129309D01*
X946139Y128662D01*
X945399Y127090D01*
X944474Y125426D01*
X943272Y123577D01*
X941886Y121912D01*
X940221Y120341D01*
X940129D01*
X940036Y120156D01*
X939759Y119971D01*
X939389Y119786D01*
X938927Y119509D01*
X938465Y119139D01*
X937078Y118492D01*
X935414Y117844D01*
X933472Y117197D01*
X931161Y116827D01*
X928664Y116642D01*
X927740D01*
X927093Y116735D01*
X926353Y116827D01*
X925428Y117012D01*
X924411Y117197D01*
X923302Y117474D01*
X922192Y117844D01*
X920991Y118214D01*
X919789Y118769D01*
X918587Y119416D01*
X917385Y120156D01*
X916183Y121080D01*
X915073Y122097D01*
X914056Y123207D01*
X913964Y123299D01*
X913779Y123577D01*
X913502Y124039D01*
X913039Y124779D01*
X912577Y125611D01*
X912115Y126720D01*
X911468Y128014D01*
X910913Y129494D01*
X910358Y131158D01*
X909803Y133100D01*
X909249Y135226D01*
X908786Y137630D01*
X908324Y140219D01*
X908047Y142992D01*
X907862Y146043D01*
X907769Y149279D01*
Y149372D01*
Y149742D01*
Y150389D01*
Y151128D01*
X907862Y152145D01*
Y153255D01*
X907954Y154457D01*
X908047Y155844D01*
X908324Y158710D01*
X908786Y161761D01*
X909341Y164812D01*
X909711Y166199D01*
X910081Y167586D01*
Y167678D01*
X910173Y167863D01*
X910358Y168233D01*
X910543Y168695D01*
X910728Y169342D01*
X911098Y169990D01*
X911837Y171561D01*
X912762Y173225D01*
X913964Y174982D01*
X915351Y176739D01*
X917015Y178218D01*
X917107D01*
X917200Y178403D01*
X917477Y178588D01*
X917847Y178773D01*
X918309Y179143D01*
X918864Y179420D01*
X920251Y180160D01*
X921915Y180807D01*
X923857Y181454D01*
X926168Y181824D01*
X928664Y182009D01*
X929496D01*
X930514Y181916D01*
D02*
G37*
G36*
X885487Y116642D02*
X879200D01*
X897784Y182841D01*
X904071D01*
X885487Y116642D01*
D02*
G37*
G36*
X756419Y181916D02*
X757621Y181731D01*
X759008Y181454D01*
X760487Y181084D01*
X762059Y180622D01*
X763538Y179882D01*
X763630D01*
X763723Y179790D01*
X764185Y179512D01*
X764925Y179050D01*
X765849Y178403D01*
X766866Y177478D01*
X767976Y176461D01*
X768993Y175259D01*
X770010Y173872D01*
X770102Y173687D01*
X770472Y173225D01*
X770842Y172393D01*
X771489Y171191D01*
X772044Y169804D01*
X772784Y168233D01*
X773431Y166383D01*
X773985Y164349D01*
Y164257D01*
X774078Y164072D01*
X774170Y163795D01*
X774263Y163332D01*
X774355Y162778D01*
X774448Y162130D01*
X774633Y161298D01*
X774725Y160374D01*
X774910Y159357D01*
X775003Y158247D01*
X775095Y156953D01*
X775280Y155659D01*
X775372Y154179D01*
Y152700D01*
X775465Y151036D01*
Y149279D01*
Y149187D01*
Y148817D01*
Y148170D01*
Y147430D01*
X775372Y146413D01*
Y145303D01*
X775280Y144102D01*
X775187Y142807D01*
X774910Y139849D01*
X774448Y136798D01*
X773893Y133839D01*
X773523Y132452D01*
X773061Y131065D01*
Y130973D01*
X772968Y130788D01*
X772784Y130418D01*
X772599Y129956D01*
X772414Y129309D01*
X772044Y128661D01*
X771304Y127090D01*
X770380Y125425D01*
X769178Y123576D01*
X767791Y121912D01*
X766127Y120340D01*
X766034D01*
X765942Y120155D01*
X765664Y119971D01*
X765295Y119786D01*
X764832Y119508D01*
X764370Y119138D01*
X762983Y118491D01*
X761319Y117844D01*
X759377Y117197D01*
X757066Y116827D01*
X754570Y116642D01*
X753645D01*
X752998Y116735D01*
X752258Y116827D01*
X751334Y117012D01*
X750317Y117197D01*
X749207Y117474D01*
X748098Y117844D01*
X746896Y118214D01*
X745694Y118769D01*
X744492Y119416D01*
X743290Y120155D01*
X742088Y121080D01*
X740979Y122097D01*
X739962Y123207D01*
X739869Y123299D01*
X739684Y123576D01*
X739407Y124039D01*
X738945Y124778D01*
X738482Y125610D01*
X738020Y126720D01*
X737373Y128014D01*
X736818Y129494D01*
X736263Y131158D01*
X735709Y133099D01*
X735154Y135226D01*
X734692Y137630D01*
X734229Y140218D01*
X733952Y142992D01*
X733767Y146043D01*
X733675Y149279D01*
Y149372D01*
Y149741D01*
Y150389D01*
Y151128D01*
X733767Y152145D01*
Y153255D01*
X733860Y154457D01*
X733952Y155843D01*
X734229Y158710D01*
X734692Y161761D01*
X735246Y164812D01*
X735616Y166199D01*
X735986Y167585D01*
Y167678D01*
X736079Y167863D01*
X736263Y168233D01*
X736448Y168695D01*
X736633Y169342D01*
X737003Y169989D01*
X737743Y171561D01*
X738667Y173225D01*
X739869Y174982D01*
X741256Y176739D01*
X742920Y178218D01*
X743013D01*
X743105Y178403D01*
X743383Y178588D01*
X743752Y178773D01*
X744215Y179142D01*
X744769Y179420D01*
X746156Y180159D01*
X747820Y180807D01*
X749762Y181454D01*
X752073Y181824D01*
X754570Y182009D01*
X755402D01*
X756419Y181916D01*
D02*
G37*
G36*
X681160Y100000D02*
X629107D01*
Y105640D01*
X681160D01*
Y100000D01*
D02*
G37*
G36*
X2450065Y929159D02*
X2451036D01*
X2453671Y928882D01*
X2456583Y928466D01*
X2459634Y927772D01*
X2462963Y926940D01*
X2466014Y925831D01*
X2466152D01*
X2466430Y925692D01*
X2466846Y925415D01*
X2467400Y925137D01*
X2468787Y924444D01*
X2470590Y923196D01*
X2472670Y921809D01*
X2474751Y920006D01*
X2476692Y917926D01*
X2478495Y915568D01*
Y915429D01*
X2478634Y915291D01*
X2478911Y914875D01*
X2479189Y914459D01*
X2479882Y913072D01*
X2480714Y911269D01*
X2481685Y909050D01*
X2482378Y906415D01*
X2483072Y903641D01*
X2483349Y900590D01*
X2471145Y899619D01*
Y899758D01*
Y900036D01*
X2471006Y900452D01*
X2470868Y901145D01*
X2470451Y902671D01*
X2469897Y904751D01*
X2469065Y906970D01*
X2467817Y909189D01*
X2466291Y911269D01*
X2464349Y913211D01*
X2464072Y913349D01*
X2463379Y913904D01*
X2461992Y914736D01*
X2460189Y915568D01*
X2457831Y916400D01*
X2455058Y917232D01*
X2451590Y917787D01*
X2447707Y917926D01*
X2445766D01*
X2444934Y917787D01*
X2443824Y917648D01*
X2441328Y917371D01*
X2438554Y916816D01*
X2435780Y916123D01*
X2433146Y915013D01*
X2432036Y914320D01*
X2430927Y913627D01*
X2430649Y913488D01*
X2430094Y912933D01*
X2429262Y911962D01*
X2428430Y910853D01*
X2427459Y909327D01*
X2426627Y907663D01*
X2426073Y905722D01*
X2425795Y903503D01*
Y903225D01*
Y902671D01*
X2425934Y901700D01*
X2426211Y900590D01*
X2426627Y899203D01*
X2427321Y897817D01*
X2428153Y896430D01*
X2429401Y895043D01*
X2429540Y894904D01*
X2430233Y894488D01*
X2430788Y894072D01*
X2431343Y893795D01*
X2432175Y893379D01*
X2433146Y892824D01*
X2434394Y892408D01*
X2435780Y891853D01*
X2437306Y891298D01*
X2439109Y890605D01*
X2441050Y890050D01*
X2443269Y889357D01*
X2445766Y888802D01*
X2448539Y888109D01*
X2448678D01*
X2449233Y887970D01*
X2450065Y887831D01*
X2451036Y887554D01*
X2452284Y887277D01*
X2453809Y886861D01*
X2455335Y886445D01*
X2456999Y886028D01*
X2460605Y885058D01*
X2464072Y884087D01*
X2465736Y883532D01*
X2467262Y882977D01*
X2468649Y882561D01*
X2469758Y882007D01*
X2469897D01*
X2470174Y881868D01*
X2470590Y881591D01*
X2471145Y881313D01*
X2472670Y880481D01*
X2474473Y879372D01*
X2476554Y877846D01*
X2478634Y876182D01*
X2480575Y874240D01*
X2482240Y872160D01*
X2482378Y871883D01*
X2482933Y871189D01*
X2483488Y869941D01*
X2484320Y868277D01*
X2485013Y866335D01*
X2485707Y863978D01*
X2486123Y861343D01*
X2486261Y858569D01*
Y858430D01*
Y858292D01*
Y857876D01*
Y857321D01*
X2485984Y855795D01*
X2485707Y853854D01*
X2485152Y851635D01*
X2484459Y849277D01*
X2483349Y846781D01*
X2481824Y844146D01*
Y844007D01*
X2481685Y843869D01*
X2480991Y843036D01*
X2480021Y841788D01*
X2478634Y840401D01*
X2476831Y838737D01*
X2474612Y836934D01*
X2472116Y835270D01*
X2469203Y833745D01*
X2469065D01*
X2468787Y833606D01*
X2468371Y833467D01*
X2467817Y833190D01*
X2466984Y832912D01*
X2466014Y832496D01*
X2463795Y831942D01*
X2461160Y831248D01*
X2457970Y830555D01*
X2454503Y830139D01*
X2450758Y830000D01*
X2448539D01*
X2447430Y830139D01*
X2446182D01*
X2444795Y830277D01*
X2443131Y830416D01*
X2439664Y830971D01*
X2436058Y831526D01*
X2432452Y832496D01*
X2428985Y833745D01*
X2428846D01*
X2428569Y833883D01*
X2428153Y834161D01*
X2427598Y834438D01*
X2425934Y835270D01*
X2423992Y836518D01*
X2421773Y838182D01*
X2419416Y840124D01*
X2417197Y842482D01*
X2415117Y845117D01*
Y845255D01*
X2414839Y845533D01*
X2414701Y845949D01*
X2414284Y846504D01*
X2414007Y847197D01*
X2413591Y848029D01*
X2412620Y850109D01*
X2411649Y852744D01*
X2410817Y855657D01*
X2410263Y858985D01*
X2409985Y862452D01*
X2421912Y863562D01*
Y863423D01*
Y863284D01*
X2422051Y862868D01*
Y862313D01*
X2422328Y861065D01*
X2422744Y859262D01*
X2423299Y857460D01*
X2423854Y855379D01*
X2424824Y853438D01*
X2425795Y851635D01*
X2425934Y851496D01*
X2426350Y850941D01*
X2427043Y849971D01*
X2428153Y849000D01*
X2429540Y847752D01*
X2431065Y846504D01*
X2433146Y845255D01*
X2435364Y844146D01*
X2435503D01*
X2435642Y844007D01*
X2436058Y843869D01*
X2436474Y843730D01*
X2437861Y843314D01*
X2439664Y842759D01*
X2441883Y842204D01*
X2444379Y841788D01*
X2447153Y841511D01*
X2450204Y841372D01*
X2451452D01*
X2452839Y841511D01*
X2454503Y841650D01*
X2456444Y841927D01*
X2458663Y842204D01*
X2460882Y842759D01*
X2462963Y843452D01*
X2463240Y843591D01*
X2463933Y843869D01*
X2464904Y844423D01*
X2466152Y844978D01*
X2467400Y845949D01*
X2468787Y846920D01*
X2470174Y848029D01*
X2471284Y849416D01*
X2471422Y849555D01*
X2471700Y850109D01*
X2472116Y850803D01*
X2472670Y851912D01*
X2473225Y853022D01*
X2473641Y854409D01*
X2473919Y855934D01*
X2474057Y857598D01*
Y857737D01*
Y858430D01*
X2473919Y859262D01*
X2473780Y860372D01*
X2473364Y861481D01*
X2472948Y862868D01*
X2472254Y864255D01*
X2471284Y865503D01*
X2471145Y865642D01*
X2470729Y866058D01*
X2470174Y866613D01*
X2469203Y867445D01*
X2468094Y868277D01*
X2466568Y869248D01*
X2464765Y870218D01*
X2462685Y871051D01*
X2462547Y871189D01*
X2461853Y871328D01*
X2460744Y871744D01*
X2460050Y871883D01*
X2459079Y872160D01*
X2458109Y872576D01*
X2456860Y872853D01*
X2455474Y873270D01*
X2453809Y873686D01*
X2452145Y874102D01*
X2450204Y874656D01*
X2447985Y875211D01*
X2445627Y875766D01*
X2445488D01*
X2445072Y875905D01*
X2444379Y876043D01*
X2443547Y876321D01*
X2442437Y876598D01*
X2441189Y876875D01*
X2438415Y877707D01*
X2435364Y878678D01*
X2432175Y879649D01*
X2429401Y880620D01*
X2428153Y881175D01*
X2427043Y881729D01*
X2426905D01*
X2426766Y881868D01*
X2425934Y882423D01*
X2424686Y883116D01*
X2423299Y884226D01*
X2421635Y885474D01*
X2419971Y886999D01*
X2418306Y888802D01*
X2416919Y890744D01*
X2416781Y891021D01*
X2416365Y891714D01*
X2415810Y892824D01*
X2415255Y894211D01*
X2414701Y896014D01*
X2414146Y898094D01*
X2413730Y900313D01*
X2413591Y902671D01*
Y902809D01*
Y902948D01*
Y903364D01*
Y903919D01*
X2413868Y905306D01*
X2414146Y907108D01*
X2414562Y909189D01*
X2415255Y911546D01*
X2416226Y913904D01*
X2417613Y916262D01*
Y916400D01*
X2417752Y916539D01*
X2418445Y917371D01*
X2419416Y918481D01*
X2420664Y919867D01*
X2422328Y921393D01*
X2424408Y923057D01*
X2426905Y924583D01*
X2429678Y925969D01*
X2429817D01*
X2430094Y926108D01*
X2430511Y926247D01*
X2431065Y926524D01*
X2431759Y926802D01*
X2432729Y927079D01*
X2434810Y927634D01*
X2437445Y928188D01*
X2440496Y928743D01*
X2443685Y929159D01*
X2447291Y929298D01*
X2449094D01*
X2450065Y929159D01*
D02*
G37*
G36*
X2361307D02*
X2362555Y929020D01*
X2364081Y928882D01*
X2365606Y928743D01*
X2367409Y928327D01*
X2371154Y927495D01*
X2375314Y926247D01*
X2377395Y925415D01*
X2379336Y924444D01*
X2381278Y923196D01*
X2383219Y921948D01*
X2383358Y921809D01*
X2383635Y921670D01*
X2384190Y921254D01*
X2384883Y920561D01*
X2385577Y919867D01*
X2386548Y918897D01*
X2387518Y917787D01*
X2388628Y916678D01*
X2389737Y915291D01*
X2390847Y913627D01*
X2392095Y911962D01*
X2393205Y910159D01*
X2394175Y908079D01*
X2395285Y905999D01*
X2396117Y903780D01*
X2396949Y901284D01*
X2384467Y898371D01*
Y898510D01*
X2384329Y898787D01*
X2384051Y899342D01*
X2383774Y900036D01*
X2383497Y900868D01*
X2383081Y901977D01*
X2381971Y904196D01*
X2380584Y906692D01*
X2378920Y909189D01*
X2376840Y911546D01*
X2374621Y913627D01*
X2374343Y913904D01*
X2373511Y914459D01*
X2372125Y915152D01*
X2370322Y916123D01*
X2367964Y916955D01*
X2365329Y917787D01*
X2362139Y918342D01*
X2358672Y918481D01*
X2357563D01*
X2356869Y918342D01*
X2355899D01*
X2354789Y918203D01*
X2352154Y917787D01*
X2349242Y917232D01*
X2346191Y916262D01*
X2343001Y914875D01*
X2340089Y913072D01*
X2339950D01*
X2339811Y912794D01*
X2338840Y912101D01*
X2337592Y910992D01*
X2336067Y909327D01*
X2334264Y907247D01*
X2332600Y904889D01*
X2331074Y901977D01*
X2329687Y898787D01*
Y898649D01*
X2329549Y898371D01*
X2329410Y897955D01*
X2329271Y897262D01*
X2328994Y896430D01*
X2328716Y895459D01*
X2328300Y893101D01*
X2327746Y890328D01*
X2327191Y887277D01*
X2326914Y883948D01*
X2326775Y880342D01*
Y880204D01*
Y879788D01*
Y879094D01*
Y878262D01*
X2326914Y877291D01*
Y876043D01*
X2327052Y874656D01*
X2327191Y873131D01*
X2327607Y869802D01*
X2328300Y866197D01*
X2329133Y862591D01*
X2330242Y858985D01*
Y858846D01*
X2330381Y858569D01*
X2330658Y858153D01*
X2330935Y857460D01*
X2331767Y855795D01*
X2333016Y853854D01*
X2334541Y851635D01*
X2336483Y849277D01*
X2338702Y847197D01*
X2341337Y845255D01*
X2341475D01*
X2341753Y845117D01*
X2342169Y844839D01*
X2342724Y844562D01*
X2343417Y844285D01*
X2344249Y843869D01*
X2346191Y843036D01*
X2348687Y842204D01*
X2351461Y841511D01*
X2354512Y840956D01*
X2357701Y840817D01*
X2358672D01*
X2359504Y840956D01*
X2360475D01*
X2361446Y841095D01*
X2363942Y841650D01*
X2366855Y842343D01*
X2369767Y843452D01*
X2372818Y844978D01*
X2374343Y845810D01*
X2375730Y846920D01*
X2375869Y847058D01*
X2376008Y847197D01*
X2376424Y847613D01*
X2376978Y848029D01*
X2377533Y848722D01*
X2378227Y849555D01*
X2379059Y850387D01*
X2379752Y851496D01*
X2380584Y852744D01*
X2381555Y854131D01*
X2382387Y855518D01*
X2383219Y857182D01*
X2383913Y858985D01*
X2384606Y860927D01*
X2385300Y863007D01*
X2385854Y865226D01*
X2398613Y862036D01*
Y861897D01*
X2398475Y861343D01*
X2398197Y860511D01*
X2397781Y859401D01*
X2397365Y858153D01*
X2396810Y856627D01*
X2396117Y854963D01*
X2395285Y853160D01*
X2393343Y849277D01*
X2390847Y845394D01*
X2389321Y843452D01*
X2387796Y841511D01*
X2386132Y839847D01*
X2384190Y838182D01*
X2384051Y838044D01*
X2383774Y837766D01*
X2383081Y837489D01*
X2382387Y836934D01*
X2381278Y836241D01*
X2380168Y835547D01*
X2378643Y834854D01*
X2377117Y834161D01*
X2375314Y833329D01*
X2373373Y832635D01*
X2371292Y831942D01*
X2369073Y831248D01*
X2366716Y830694D01*
X2364220Y830416D01*
X2361585Y830139D01*
X2358811Y830000D01*
X2357285D01*
X2356176Y830139D01*
X2354928D01*
X2353402Y830277D01*
X2351738Y830555D01*
X2349796Y830832D01*
X2345775Y831526D01*
X2341614Y832635D01*
X2337454Y834161D01*
X2335512Y835131D01*
X2333570Y836241D01*
X2333432Y836380D01*
X2333154Y836518D01*
X2332600Y836934D01*
X2332045Y837489D01*
X2331213Y838044D01*
X2330242Y838876D01*
X2329133Y839847D01*
X2328023Y840956D01*
X2326914Y842204D01*
X2325665Y843452D01*
X2323169Y846642D01*
X2320811Y850387D01*
X2318731Y854547D01*
Y854686D01*
X2318454Y855102D01*
X2318315Y855795D01*
X2317899Y856627D01*
X2317622Y857737D01*
X2317206Y859124D01*
X2316651Y860649D01*
X2316235Y862313D01*
X2315819Y864116D01*
X2315264Y866197D01*
X2314571Y870496D01*
X2314016Y875350D01*
X2313739Y880342D01*
Y880481D01*
Y881036D01*
Y881868D01*
X2313877Y882839D01*
Y884226D01*
X2314016Y885612D01*
X2314155Y887415D01*
X2314432Y889218D01*
X2315125Y893240D01*
X2316096Y897678D01*
X2317483Y902116D01*
X2319425Y906415D01*
X2319563Y906554D01*
X2319702Y906970D01*
X2319979Y907524D01*
X2320534Y908218D01*
X2321089Y909189D01*
X2321782Y910298D01*
X2323585Y912794D01*
X2325943Y915568D01*
X2328716Y918342D01*
X2331906Y921116D01*
X2335651Y923473D01*
X2335789Y923612D01*
X2336205Y923751D01*
X2336760Y924028D01*
X2337454Y924444D01*
X2338563Y924860D01*
X2339672Y925276D01*
X2341059Y925831D01*
X2342585Y926385D01*
X2344249Y926940D01*
X2346052Y927495D01*
X2349935Y928327D01*
X2354373Y929020D01*
X2358950Y929298D01*
X2360336D01*
X2361307Y929159D01*
D02*
G37*
G36*
X2364566Y1179159D02*
X2365814Y1179021D01*
X2367340Y1178882D01*
X2368865Y1178743D01*
X2370668Y1178327D01*
X2374413Y1177495D01*
X2378573Y1176247D01*
X2380654Y1175415D01*
X2382595Y1174444D01*
X2384537Y1173196D01*
X2386478Y1171948D01*
X2386617Y1171809D01*
X2386894Y1171670D01*
X2387449Y1171254D01*
X2388143Y1170561D01*
X2388836Y1169867D01*
X2389807Y1168897D01*
X2390778Y1167787D01*
X2391887Y1166678D01*
X2392996Y1165291D01*
X2394106Y1163627D01*
X2395354Y1161962D01*
X2396464Y1160159D01*
X2397434Y1158079D01*
X2398544Y1155999D01*
X2399376Y1153780D01*
X2400208Y1151284D01*
X2387726Y1148371D01*
Y1148510D01*
X2387588Y1148787D01*
X2387310Y1149342D01*
X2387033Y1150036D01*
X2386756Y1150868D01*
X2386340Y1151977D01*
X2385230Y1154196D01*
X2383843Y1156692D01*
X2382179Y1159189D01*
X2380099Y1161546D01*
X2377880Y1163627D01*
X2377603Y1163904D01*
X2376770Y1164459D01*
X2375384Y1165152D01*
X2373581Y1166123D01*
X2371223Y1166955D01*
X2368588Y1167787D01*
X2365398Y1168342D01*
X2361931Y1168481D01*
X2360822D01*
X2360128Y1168342D01*
X2359158D01*
X2358048Y1168203D01*
X2355413Y1167787D01*
X2352501Y1167232D01*
X2349450Y1166262D01*
X2346260Y1164875D01*
X2343348Y1163072D01*
X2343209D01*
X2343070Y1162794D01*
X2342099Y1162101D01*
X2340851Y1160992D01*
X2339326Y1159327D01*
X2337523Y1157247D01*
X2335859Y1154889D01*
X2334333Y1151977D01*
X2332946Y1148787D01*
Y1148649D01*
X2332808Y1148371D01*
X2332669Y1147955D01*
X2332530Y1147262D01*
X2332253Y1146430D01*
X2331976Y1145459D01*
X2331559Y1143101D01*
X2331005Y1140328D01*
X2330450Y1137277D01*
X2330173Y1133948D01*
X2330034Y1130342D01*
Y1130204D01*
Y1129788D01*
Y1129094D01*
Y1128262D01*
X2330173Y1127291D01*
Y1126043D01*
X2330311Y1124656D01*
X2330450Y1123131D01*
X2330866Y1119802D01*
X2331559Y1116197D01*
X2332392Y1112591D01*
X2333501Y1108985D01*
Y1108846D01*
X2333640Y1108569D01*
X2333917Y1108153D01*
X2334194Y1107460D01*
X2335027Y1105795D01*
X2336275Y1103854D01*
X2337800Y1101635D01*
X2339742Y1099277D01*
X2341961Y1097197D01*
X2344596Y1095255D01*
X2344734D01*
X2345012Y1095117D01*
X2345428Y1094839D01*
X2345983Y1094562D01*
X2346676Y1094285D01*
X2347508Y1093869D01*
X2349450Y1093036D01*
X2351946Y1092204D01*
X2354720Y1091511D01*
X2357771Y1090956D01*
X2360960Y1090817D01*
X2361931D01*
X2362763Y1090956D01*
X2363734D01*
X2364705Y1091095D01*
X2367201Y1091650D01*
X2370114Y1092343D01*
X2373026Y1093452D01*
X2376077Y1094978D01*
X2377603Y1095810D01*
X2378989Y1096920D01*
X2379128Y1097058D01*
X2379267Y1097197D01*
X2379683Y1097613D01*
X2380238Y1098029D01*
X2380792Y1098722D01*
X2381486Y1099555D01*
X2382318Y1100387D01*
X2383011Y1101496D01*
X2383843Y1102744D01*
X2384814Y1104131D01*
X2385646Y1105518D01*
X2386478Y1107182D01*
X2387172Y1108985D01*
X2387865Y1110927D01*
X2388559Y1113007D01*
X2389113Y1115226D01*
X2401872Y1112036D01*
Y1111897D01*
X2401734Y1111343D01*
X2401456Y1110511D01*
X2401040Y1109401D01*
X2400624Y1108153D01*
X2400069Y1106627D01*
X2399376Y1104963D01*
X2398544Y1103160D01*
X2396602Y1099277D01*
X2394106Y1095394D01*
X2392580Y1093452D01*
X2391055Y1091511D01*
X2389391Y1089847D01*
X2387449Y1088182D01*
X2387310Y1088044D01*
X2387033Y1087766D01*
X2386340Y1087489D01*
X2385646Y1086934D01*
X2384537Y1086241D01*
X2383427Y1085547D01*
X2381902Y1084854D01*
X2380376Y1084161D01*
X2378573Y1083329D01*
X2376632Y1082635D01*
X2374552Y1081942D01*
X2372333Y1081248D01*
X2369975Y1080694D01*
X2367479Y1080416D01*
X2364844Y1080139D01*
X2362070Y1080000D01*
X2360544D01*
X2359435Y1080139D01*
X2358187D01*
X2356661Y1080277D01*
X2354997Y1080555D01*
X2353055Y1080832D01*
X2349034Y1081526D01*
X2344873Y1082635D01*
X2340713Y1084161D01*
X2338771Y1085131D01*
X2336829Y1086241D01*
X2336691Y1086380D01*
X2336413Y1086518D01*
X2335859Y1086934D01*
X2335304Y1087489D01*
X2334472Y1088044D01*
X2333501Y1088876D01*
X2332392Y1089847D01*
X2331282Y1090956D01*
X2330173Y1092204D01*
X2328924Y1093452D01*
X2326428Y1096642D01*
X2324071Y1100387D01*
X2321990Y1104547D01*
Y1104686D01*
X2321713Y1105102D01*
X2321574Y1105795D01*
X2321158Y1106627D01*
X2320881Y1107737D01*
X2320465Y1109124D01*
X2319910Y1110649D01*
X2319494Y1112313D01*
X2319078Y1114116D01*
X2318523Y1116197D01*
X2317830Y1120496D01*
X2317275Y1125350D01*
X2316998Y1130342D01*
Y1130481D01*
Y1131036D01*
Y1131868D01*
X2317136Y1132839D01*
Y1134226D01*
X2317275Y1135612D01*
X2317414Y1137415D01*
X2317691Y1139218D01*
X2318384Y1143240D01*
X2319355Y1147678D01*
X2320742Y1152116D01*
X2322684Y1156415D01*
X2322822Y1156554D01*
X2322961Y1156970D01*
X2323238Y1157524D01*
X2323793Y1158218D01*
X2324348Y1159189D01*
X2325041Y1160298D01*
X2326844Y1162794D01*
X2329202Y1165568D01*
X2331976Y1168342D01*
X2335165Y1171116D01*
X2338910Y1173473D01*
X2339048Y1173612D01*
X2339464Y1173751D01*
X2340019Y1174028D01*
X2340713Y1174444D01*
X2341822Y1174860D01*
X2342932Y1175276D01*
X2344318Y1175831D01*
X2345844Y1176386D01*
X2347508Y1176940D01*
X2349311Y1177495D01*
X2353194Y1178327D01*
X2357632Y1179021D01*
X2362209Y1179298D01*
X2363595D01*
X2364566Y1179159D01*
D02*
G37*
G36*
X2483002Y1166262D02*
X2430857D01*
Y1136583D01*
X2475930D01*
Y1125211D01*
X2430857D01*
Y1081664D01*
X2418098D01*
Y1177634D01*
X2483002D01*
Y1166262D01*
D02*
G37*
G36*
X2457539Y419159D02*
X2458510D01*
X2461145Y418882D01*
X2464057Y418466D01*
X2467108Y417772D01*
X2470437Y416940D01*
X2473488Y415831D01*
X2473626D01*
X2473904Y415692D01*
X2474320Y415415D01*
X2474875Y415137D01*
X2476261Y414444D01*
X2478064Y413196D01*
X2480145Y411809D01*
X2482225Y410006D01*
X2484166Y407926D01*
X2485969Y405568D01*
Y405429D01*
X2486108Y405291D01*
X2486385Y404875D01*
X2486663Y404459D01*
X2487356Y403072D01*
X2488188Y401269D01*
X2489159Y399050D01*
X2489853Y396415D01*
X2490546Y393641D01*
X2490823Y390590D01*
X2478619Y389619D01*
Y389758D01*
Y390036D01*
X2478480Y390452D01*
X2478342Y391145D01*
X2477926Y392671D01*
X2477371Y394751D01*
X2476539Y396970D01*
X2475291Y399189D01*
X2473765Y401269D01*
X2471824Y403211D01*
X2471546Y403349D01*
X2470853Y403904D01*
X2469466Y404736D01*
X2467663Y405568D01*
X2465305Y406400D01*
X2462532Y407232D01*
X2459065Y407787D01*
X2455182Y407926D01*
X2453240D01*
X2452408Y407787D01*
X2451298Y407648D01*
X2448802Y407371D01*
X2446028Y406816D01*
X2443255Y406123D01*
X2440620Y405013D01*
X2439510Y404320D01*
X2438401Y403627D01*
X2438123Y403488D01*
X2437569Y402933D01*
X2436737Y401962D01*
X2435904Y400853D01*
X2434934Y399327D01*
X2434102Y397663D01*
X2433547Y395722D01*
X2433269Y393503D01*
Y393225D01*
Y392671D01*
X2433408Y391700D01*
X2433686Y390590D01*
X2434102Y389203D01*
X2434795Y387817D01*
X2435627Y386430D01*
X2436875Y385043D01*
X2437014Y384904D01*
X2437707Y384488D01*
X2438262Y384072D01*
X2438817Y383795D01*
X2439649Y383379D01*
X2440620Y382824D01*
X2441868Y382408D01*
X2443255Y381853D01*
X2444780Y381298D01*
X2446583Y380605D01*
X2448525Y380050D01*
X2450744Y379357D01*
X2453240Y378802D01*
X2456014Y378109D01*
X2456152D01*
X2456707Y377970D01*
X2457539Y377831D01*
X2458510Y377554D01*
X2459758Y377277D01*
X2461284Y376861D01*
X2462809Y376445D01*
X2464473Y376028D01*
X2468079Y375058D01*
X2471546Y374087D01*
X2473210Y373532D01*
X2474736Y372977D01*
X2476123Y372561D01*
X2477232Y372007D01*
X2477371D01*
X2477648Y371868D01*
X2478064Y371591D01*
X2478619Y371313D01*
X2480145Y370481D01*
X2481948Y369372D01*
X2484028Y367846D01*
X2486108Y366182D01*
X2488050Y364240D01*
X2489714Y362160D01*
X2489853Y361883D01*
X2490407Y361189D01*
X2490962Y359941D01*
X2491794Y358277D01*
X2492488Y356335D01*
X2493181Y353978D01*
X2493597Y351343D01*
X2493736Y348569D01*
Y348430D01*
Y348292D01*
Y347876D01*
Y347321D01*
X2493458Y345795D01*
X2493181Y343854D01*
X2492626Y341635D01*
X2491933Y339277D01*
X2490823Y336781D01*
X2489298Y334146D01*
Y334007D01*
X2489159Y333869D01*
X2488466Y333036D01*
X2487495Y331788D01*
X2486108Y330401D01*
X2484305Y328737D01*
X2482086Y326934D01*
X2479590Y325270D01*
X2476678Y323745D01*
X2476539D01*
X2476261Y323606D01*
X2475845Y323467D01*
X2475291Y323190D01*
X2474459Y322912D01*
X2473488Y322496D01*
X2471269Y321942D01*
X2468634Y321248D01*
X2465444Y320555D01*
X2461977Y320139D01*
X2458233Y320000D01*
X2456014D01*
X2454904Y320139D01*
X2453656D01*
X2452269Y320277D01*
X2450605Y320416D01*
X2447138Y320971D01*
X2443532Y321526D01*
X2439926Y322496D01*
X2436459Y323745D01*
X2436321D01*
X2436043Y323883D01*
X2435627Y324161D01*
X2435072Y324438D01*
X2433408Y325270D01*
X2431467Y326518D01*
X2429248Y328182D01*
X2426890Y330124D01*
X2424671Y332482D01*
X2422591Y335117D01*
Y335255D01*
X2422313Y335533D01*
X2422175Y335949D01*
X2421759Y336504D01*
X2421481Y337197D01*
X2421065Y338029D01*
X2420094Y340109D01*
X2419124Y342744D01*
X2418292Y345657D01*
X2417737Y348985D01*
X2417459Y352452D01*
X2429386Y353562D01*
Y353423D01*
Y353284D01*
X2429525Y352868D01*
Y352313D01*
X2429802Y351065D01*
X2430218Y349262D01*
X2430773Y347460D01*
X2431328Y345379D01*
X2432299Y343438D01*
X2433269Y341635D01*
X2433408Y341496D01*
X2433824Y340941D01*
X2434518Y339971D01*
X2435627Y339000D01*
X2437014Y337752D01*
X2438539Y336504D01*
X2440620Y335255D01*
X2442839Y334146D01*
X2442977D01*
X2443116Y334007D01*
X2443532Y333869D01*
X2443948Y333730D01*
X2445335Y333314D01*
X2447138Y332759D01*
X2449357Y332204D01*
X2451853Y331788D01*
X2454627Y331511D01*
X2457678Y331372D01*
X2458926D01*
X2460313Y331511D01*
X2461977Y331650D01*
X2463919Y331927D01*
X2466138Y332204D01*
X2468357Y332759D01*
X2470437Y333452D01*
X2470714Y333591D01*
X2471408Y333869D01*
X2472378Y334423D01*
X2473626Y334978D01*
X2474875Y335949D01*
X2476261Y336920D01*
X2477648Y338029D01*
X2478758Y339416D01*
X2478896Y339555D01*
X2479174Y340109D01*
X2479590Y340803D01*
X2480145Y341912D01*
X2480699Y343022D01*
X2481115Y344409D01*
X2481393Y345934D01*
X2481531Y347598D01*
Y347737D01*
Y348430D01*
X2481393Y349262D01*
X2481254Y350372D01*
X2480838Y351481D01*
X2480422Y352868D01*
X2479729Y354255D01*
X2478758Y355503D01*
X2478619Y355642D01*
X2478203Y356058D01*
X2477648Y356613D01*
X2476678Y357445D01*
X2475568Y358277D01*
X2474043Y359248D01*
X2472240Y360218D01*
X2470159Y361051D01*
X2470021Y361189D01*
X2469327Y361328D01*
X2468218Y361744D01*
X2467524Y361883D01*
X2466554Y362160D01*
X2465583Y362576D01*
X2464335Y362853D01*
X2462948Y363270D01*
X2461284Y363686D01*
X2459619Y364102D01*
X2457678Y364656D01*
X2455459Y365211D01*
X2453101Y365766D01*
X2452963D01*
X2452547Y365905D01*
X2451853Y366043D01*
X2451021Y366321D01*
X2449912Y366598D01*
X2448663Y366875D01*
X2445890Y367707D01*
X2442839Y368678D01*
X2439649Y369649D01*
X2436875Y370620D01*
X2435627Y371175D01*
X2434518Y371729D01*
X2434379D01*
X2434240Y371868D01*
X2433408Y372423D01*
X2432160Y373116D01*
X2430773Y374226D01*
X2429109Y375474D01*
X2427445Y376999D01*
X2425781Y378802D01*
X2424394Y380744D01*
X2424255Y381021D01*
X2423839Y381715D01*
X2423284Y382824D01*
X2422729Y384211D01*
X2422175Y386014D01*
X2421620Y388094D01*
X2421204Y390313D01*
X2421065Y392671D01*
Y392809D01*
Y392948D01*
Y393364D01*
Y393919D01*
X2421343Y395306D01*
X2421620Y397108D01*
X2422036Y399189D01*
X2422729Y401546D01*
X2423700Y403904D01*
X2425087Y406262D01*
Y406400D01*
X2425226Y406539D01*
X2425919Y407371D01*
X2426890Y408481D01*
X2428138Y409867D01*
X2429802Y411393D01*
X2431883Y413057D01*
X2434379Y414583D01*
X2437153Y415969D01*
X2437291D01*
X2437569Y416108D01*
X2437985Y416247D01*
X2438539Y416524D01*
X2439233Y416802D01*
X2440204Y417079D01*
X2442284Y417634D01*
X2444919Y418188D01*
X2447970Y418743D01*
X2451160Y419159D01*
X2454765Y419298D01*
X2456568D01*
X2457539Y419159D01*
D02*
G37*
G36*
X2383482Y321664D02*
X2371000D01*
X2350891Y394751D01*
Y394889D01*
X2350752Y395167D01*
X2350614Y395583D01*
X2350475Y396276D01*
X2350059Y397802D01*
X2349643Y399605D01*
X2349088Y401546D01*
X2348534Y403349D01*
X2348117Y404875D01*
X2347979Y405568D01*
X2347840Y405984D01*
Y405846D01*
X2347701Y405707D01*
X2347563Y404875D01*
X2347285Y403627D01*
X2346869Y402101D01*
X2346453Y400437D01*
X2345899Y398495D01*
X2345482Y396554D01*
X2344928Y394751D01*
X2324680Y321664D01*
X2311366D01*
X2286264Y417634D01*
X2299439D01*
X2313724Y354671D01*
Y354532D01*
X2313863Y354255D01*
X2314001Y353700D01*
X2314140Y353007D01*
X2314279Y352036D01*
X2314556Y351065D01*
X2314833Y349817D01*
X2315111Y348430D01*
X2315804Y345518D01*
X2316498Y342190D01*
X2317191Y338584D01*
X2317884Y334978D01*
Y335117D01*
X2318023Y335671D01*
X2318300Y336365D01*
X2318439Y337474D01*
X2318716Y338584D01*
X2319133Y339971D01*
X2319826Y343022D01*
X2320658Y346073D01*
X2320935Y347598D01*
X2321351Y348985D01*
X2321629Y350233D01*
X2321906Y351343D01*
X2322184Y352175D01*
X2322322Y352730D01*
X2340490Y417634D01*
X2355884D01*
X2369475Y368956D01*
Y368817D01*
X2369752Y368123D01*
X2370030Y367153D01*
X2370307Y365905D01*
X2370723Y364240D01*
X2371278Y362437D01*
X2371832Y360357D01*
X2372387Y358000D01*
X2373081Y355365D01*
X2373635Y352730D01*
X2374883Y347044D01*
X2376132Y341080D01*
X2377102Y334978D01*
Y335117D01*
X2377241Y335394D01*
Y335949D01*
X2377518Y336642D01*
X2377657Y337474D01*
X2377935Y338445D01*
X2378073Y339693D01*
X2378489Y341080D01*
X2379183Y344131D01*
X2380015Y347737D01*
X2380847Y351620D01*
X2381956Y355919D01*
X2396934Y417634D01*
X2409832D01*
X2383482Y321664D01*
D02*
G37*
G36*
X2396741Y580000D02*
X2384259D01*
X2364150Y653087D01*
Y653225D01*
X2364012Y653503D01*
X2363873Y653919D01*
X2363734Y654612D01*
X2363318Y656138D01*
X2362902Y657941D01*
X2362347Y659882D01*
X2361793Y661685D01*
X2361377Y663211D01*
X2361238Y663904D01*
X2361099Y664320D01*
Y664181D01*
X2360960Y664043D01*
X2360822Y663211D01*
X2360544Y661962D01*
X2360128Y660437D01*
X2359712Y658773D01*
X2359158Y656831D01*
X2358742Y654889D01*
X2358187Y653087D01*
X2337939Y580000D01*
X2324625D01*
X2299523Y675969D01*
X2312698D01*
X2326983Y613007D01*
Y612868D01*
X2327122Y612591D01*
X2327260Y612036D01*
X2327399Y611343D01*
X2327538Y610372D01*
X2327815Y609401D01*
X2328092Y608153D01*
X2328370Y606766D01*
X2329063Y603854D01*
X2329757Y600525D01*
X2330450Y596920D01*
X2331143Y593314D01*
Y593452D01*
X2331282Y594007D01*
X2331559Y594701D01*
X2331698Y595810D01*
X2331976Y596920D01*
X2332392Y598306D01*
X2333085Y601357D01*
X2333917Y604408D01*
X2334194Y605934D01*
X2334611Y607321D01*
X2334888Y608569D01*
X2335165Y609678D01*
X2335443Y610511D01*
X2335581Y611065D01*
X2353749Y675969D01*
X2369143D01*
X2382734Y627291D01*
Y627153D01*
X2383011Y626459D01*
X2383289Y625488D01*
X2383566Y624240D01*
X2383982Y622576D01*
X2384537Y620773D01*
X2385091Y618693D01*
X2385646Y616335D01*
X2386340Y613700D01*
X2386894Y611065D01*
X2388143Y605379D01*
X2389391Y599416D01*
X2390361Y593314D01*
Y593452D01*
X2390500Y593730D01*
Y594285D01*
X2390778Y594978D01*
X2390916Y595810D01*
X2391194Y596781D01*
X2391332Y598029D01*
X2391748Y599416D01*
X2392442Y602467D01*
X2393274Y606073D01*
X2394106Y609956D01*
X2395215Y614255D01*
X2410193Y675969D01*
X2423091D01*
X2396741Y580000D01*
D02*
G37*
G36*
X2500477Y664597D02*
X2448331D01*
Y634919D01*
X2493404D01*
Y623547D01*
X2448331D01*
Y580000D01*
X2435572D01*
Y675969D01*
X2500477D01*
Y664597D01*
D02*
G37*
G36*
X1915557Y1255447D02*
X1917640Y1255215D01*
X1920185Y1254984D01*
X1922730Y1254753D01*
X1925738Y1254058D01*
X1931986Y1252670D01*
X1938928Y1250588D01*
X1942399Y1249199D01*
X1945638Y1247579D01*
X1948878Y1245497D01*
X1952117Y1243414D01*
X1952349Y1243183D01*
X1952811Y1242952D01*
X1953737Y1242257D01*
X1954894Y1241100D01*
X1956051Y1239943D01*
X1957671Y1238324D01*
X1959290Y1236473D01*
X1961142Y1234621D01*
X1962993Y1232307D01*
X1964844Y1229531D01*
X1966926Y1226754D01*
X1968778Y1223746D01*
X1970397Y1220275D01*
X1972249Y1216804D01*
X1973637Y1213102D01*
X1975025Y1208937D01*
X1954200Y1204077D01*
Y1204309D01*
X1953968Y1204772D01*
X1953506Y1205697D01*
X1953043Y1206854D01*
X1952580Y1208242D01*
X1951886Y1210094D01*
X1950035Y1213796D01*
X1947721Y1217961D01*
X1944944Y1222126D01*
X1941473Y1226060D01*
X1937771Y1229531D01*
X1937308Y1229993D01*
X1935920Y1230919D01*
X1933606Y1232076D01*
X1930598Y1233696D01*
X1926664Y1235084D01*
X1922267Y1236473D01*
X1916945Y1237398D01*
X1911161Y1237629D01*
X1909309D01*
X1908152Y1237398D01*
X1906533D01*
X1904681Y1237167D01*
X1900285Y1236473D01*
X1895426Y1235547D01*
X1890335Y1233927D01*
X1885013Y1231613D01*
X1880154Y1228605D01*
X1879922D01*
X1879691Y1228142D01*
X1878071Y1226985D01*
X1875989Y1225134D01*
X1873443Y1222357D01*
X1870435Y1218887D01*
X1867658Y1214953D01*
X1865113Y1210094D01*
X1862799Y1204772D01*
Y1204540D01*
X1862568Y1204077D01*
X1862336Y1203383D01*
X1862105Y1202226D01*
X1861642Y1200838D01*
X1861179Y1199218D01*
X1860485Y1195284D01*
X1859560Y1190656D01*
X1858634Y1185566D01*
X1858171Y1180012D01*
X1857940Y1173996D01*
Y1173765D01*
Y1173071D01*
Y1171914D01*
Y1170525D01*
X1858171Y1168905D01*
Y1166823D01*
X1858403Y1164509D01*
X1858634Y1161964D01*
X1859328Y1156410D01*
X1860485Y1150394D01*
X1861874Y1144378D01*
X1863725Y1138361D01*
Y1138130D01*
X1863956Y1137667D01*
X1864419Y1136973D01*
X1864882Y1135816D01*
X1866270Y1133039D01*
X1868353Y1129800D01*
X1870898Y1126098D01*
X1874137Y1122164D01*
X1877840Y1118693D01*
X1882236Y1115453D01*
X1882468D01*
X1882930Y1115222D01*
X1883625Y1114759D01*
X1884550Y1114296D01*
X1885707Y1113834D01*
X1887096Y1113140D01*
X1890335Y1111751D01*
X1894500Y1110363D01*
X1899128Y1109206D01*
X1904219Y1108280D01*
X1909541Y1108049D01*
X1911161D01*
X1912549Y1108280D01*
X1914169D01*
X1915788Y1108512D01*
X1919953Y1109437D01*
X1924813Y1110594D01*
X1929672Y1112445D01*
X1934763Y1114991D01*
X1937308Y1116379D01*
X1939622Y1118230D01*
X1939853Y1118462D01*
X1940085Y1118693D01*
X1940779Y1119387D01*
X1941705Y1120081D01*
X1942630Y1121238D01*
X1943787Y1122627D01*
X1945175Y1124015D01*
X1946332Y1125866D01*
X1947721Y1127949D01*
X1949341Y1130263D01*
X1950729Y1132577D01*
X1952117Y1135353D01*
X1953274Y1138361D01*
X1954431Y1141601D01*
X1955588Y1145072D01*
X1956514Y1148774D01*
X1977802Y1143452D01*
Y1143221D01*
X1977571Y1142295D01*
X1977108Y1140907D01*
X1976414Y1139056D01*
X1975719Y1136973D01*
X1974794Y1134428D01*
X1973637Y1131651D01*
X1972249Y1128643D01*
X1969009Y1122164D01*
X1964844Y1115685D01*
X1962299Y1112445D01*
X1959753Y1109206D01*
X1956977Y1106429D01*
X1953737Y1103652D01*
X1953506Y1103421D01*
X1953043Y1102958D01*
X1951886Y1102495D01*
X1950729Y1101570D01*
X1948878Y1100413D01*
X1947027Y1099256D01*
X1944481Y1098099D01*
X1941936Y1096942D01*
X1938928Y1095554D01*
X1935688Y1094397D01*
X1932217Y1093240D01*
X1928515Y1092083D01*
X1924581Y1091157D01*
X1920416Y1090694D01*
X1916020Y1090231D01*
X1911392Y1090000D01*
X1908847D01*
X1906995Y1090231D01*
X1904913D01*
X1902368Y1090463D01*
X1899591Y1090926D01*
X1896351Y1091388D01*
X1889641Y1092545D01*
X1882699Y1094397D01*
X1875757Y1096942D01*
X1872518Y1098562D01*
X1869278Y1100413D01*
X1869047Y1100644D01*
X1868584Y1100876D01*
X1867658Y1101570D01*
X1866733Y1102495D01*
X1865345Y1103421D01*
X1863725Y1104809D01*
X1861874Y1106429D01*
X1860022Y1108280D01*
X1858171Y1110363D01*
X1856089Y1112445D01*
X1851924Y1117767D01*
X1847990Y1124015D01*
X1844519Y1130957D01*
Y1131188D01*
X1844056Y1131882D01*
X1843825Y1133039D01*
X1843131Y1134428D01*
X1842668Y1136279D01*
X1841974Y1138593D01*
X1841048Y1141138D01*
X1840354Y1143915D01*
X1839660Y1146923D01*
X1838734Y1150394D01*
X1837577Y1157567D01*
X1836652Y1165666D01*
X1836189Y1173996D01*
Y1174228D01*
Y1175153D01*
Y1176541D01*
X1836420Y1178161D01*
Y1180475D01*
X1836652Y1182789D01*
X1836883Y1185797D01*
X1837346Y1188805D01*
X1838503Y1195516D01*
X1840123Y1202920D01*
X1842436Y1210325D01*
X1845676Y1217498D01*
X1845907Y1217730D01*
X1846139Y1218424D01*
X1846602Y1219349D01*
X1847527Y1220506D01*
X1848453Y1222126D01*
X1849610Y1223977D01*
X1852618Y1228142D01*
X1856552Y1232770D01*
X1861179Y1237398D01*
X1866501Y1242026D01*
X1872749Y1245960D01*
X1872981Y1246191D01*
X1873675Y1246422D01*
X1874600Y1246885D01*
X1875757Y1247579D01*
X1877608Y1248274D01*
X1879460Y1248968D01*
X1881773Y1249893D01*
X1884319Y1250819D01*
X1887096Y1251745D01*
X1890104Y1252670D01*
X1896583Y1254058D01*
X1903987Y1255215D01*
X1911623Y1255678D01*
X1913937D01*
X1915557Y1255447D01*
D02*
G37*
G36*
X2120109Y1233927D02*
X2025469D01*
Y1185103D01*
X2114093D01*
Y1166129D01*
X2025469D01*
Y1111751D01*
X2123812D01*
Y1092777D01*
X2004181D01*
Y1252901D01*
X2120109D01*
Y1233927D01*
D02*
G37*
G36*
X359240Y1100000D02*
X338415D01*
X304863Y1221945D01*
Y1222176D01*
X304631Y1222639D01*
X304400Y1223333D01*
X304169Y1224490D01*
X303474Y1227035D01*
X302780Y1230044D01*
X301855Y1233283D01*
X300929Y1236291D01*
X300235Y1238836D01*
X300003Y1239993D01*
X299772Y1240688D01*
Y1240456D01*
X299541Y1240225D01*
X299309Y1238836D01*
X298846Y1236754D01*
X298152Y1234209D01*
X297458Y1231432D01*
X296533Y1228192D01*
X295838Y1224953D01*
X294913Y1221945D01*
X261129Y1100000D01*
X238915D01*
X197033Y1260125D01*
X219016D01*
X242849Y1155072D01*
Y1154840D01*
X243081Y1154378D01*
X243312Y1153452D01*
X243543Y1152295D01*
X243775Y1150675D01*
X244238Y1149056D01*
X244700Y1146973D01*
X245163Y1144659D01*
X246320Y1139800D01*
X247477Y1134246D01*
X248634Y1128230D01*
X249791Y1122214D01*
Y1122445D01*
X250022Y1123371D01*
X250485Y1124528D01*
X250717Y1126379D01*
X251179Y1128230D01*
X251874Y1130544D01*
X253030Y1135635D01*
X254419Y1140725D01*
X254882Y1143271D01*
X255576Y1145585D01*
X256039Y1147667D01*
X256501Y1149518D01*
X256964Y1150907D01*
X257196Y1151832D01*
X287508Y1260125D01*
X313193D01*
X335870Y1178905D01*
Y1178674D01*
X336332Y1177517D01*
X336795Y1175897D01*
X337258Y1173815D01*
X337952Y1171038D01*
X338878Y1168030D01*
X339803Y1164559D01*
X340729Y1160625D01*
X341886Y1156229D01*
X342811Y1151832D01*
X344894Y1142345D01*
X346976Y1132395D01*
X348596Y1122214D01*
Y1122445D01*
X348828Y1122908D01*
Y1123834D01*
X349290Y1124991D01*
X349522Y1126379D01*
X349985Y1127999D01*
X350216Y1130081D01*
X350910Y1132395D01*
X352067Y1137486D01*
X353455Y1143502D01*
X354844Y1149981D01*
X356695Y1157154D01*
X381686Y1260125D01*
X403205D01*
X359240Y1100000D01*
D02*
G37*
G36*
X539265Y1241150D02*
X444625D01*
Y1192326D01*
X533249D01*
Y1173352D01*
X444625D01*
Y1118974D01*
X542967D01*
Y1100000D01*
X423336D01*
Y1260125D01*
X539265D01*
Y1241150D01*
D02*
G37*
%LPC*%
G36*
X982659Y168972D02*
X962503Y140311D01*
X982659D01*
Y168972D01*
D02*
G37*
G36*
X575667Y158710D02*
X575113D01*
X574650Y158617D01*
X573633Y158525D01*
X572247Y158155D01*
X570675Y157600D01*
X569011Y156860D01*
X567439Y155751D01*
X566607Y155011D01*
X565867Y154272D01*
Y154179D01*
X565682Y154087D01*
X565497Y153809D01*
X565220Y153440D01*
X564942Y152977D01*
X564665Y152423D01*
X564295Y151683D01*
X563925Y150943D01*
X563556Y150019D01*
X563186Y149094D01*
X562908Y147985D01*
X562631Y146783D01*
X562354Y145488D01*
X562169Y144102D01*
X562076Y142530D01*
X561984Y140958D01*
Y140866D01*
Y140588D01*
Y140126D01*
X562076Y139479D01*
Y138739D01*
X562169Y137907D01*
X562446Y135965D01*
X562908Y133746D01*
X563648Y131528D01*
X564573Y129401D01*
X565220Y128477D01*
X565867Y127552D01*
X565959D01*
X566052Y127367D01*
X566607Y126905D01*
X567439Y126165D01*
X568548Y125425D01*
X569935Y124593D01*
X571599Y123854D01*
X573541Y123391D01*
X574558Y123299D01*
X575667Y123207D01*
X576222D01*
X576684Y123299D01*
X577701Y123484D01*
X579088Y123761D01*
X580568Y124316D01*
X582232Y125056D01*
X583804Y126165D01*
X584636Y126905D01*
X585375Y127644D01*
X585468Y127737D01*
X585560Y127829D01*
X585745Y128107D01*
X586022Y128477D01*
X586300Y128939D01*
X586670Y129494D01*
X587039Y130233D01*
X587409Y130973D01*
X587779Y131897D01*
X588056Y132914D01*
X588426Y134024D01*
X588704Y135226D01*
X588981Y136613D01*
X589166Y137999D01*
X589351Y139571D01*
Y141235D01*
Y141328D01*
Y141605D01*
Y142068D01*
X589258Y142622D01*
Y143362D01*
X589166Y144194D01*
X588889Y146136D01*
X588426Y148170D01*
X587687Y150389D01*
X586670Y152423D01*
X586115Y153440D01*
X585375Y154272D01*
Y154364D01*
X585190Y154457D01*
X584636Y155011D01*
X583804Y155659D01*
X582694Y156491D01*
X581307Y157323D01*
X579643Y158062D01*
X577794Y158525D01*
X576777Y158617D01*
X575667Y158710D01*
D02*
G37*
G36*
X456584D02*
X456029D01*
X455659Y158617D01*
X454642Y158525D01*
X453441Y158247D01*
X451961Y157785D01*
X450389Y157138D01*
X448910Y156213D01*
X447431Y155011D01*
X447246Y154826D01*
X446876Y154364D01*
X446229Y153532D01*
X445582Y152423D01*
X444842Y151128D01*
X444195Y149464D01*
X443640Y147522D01*
X443363Y145396D01*
X469343D01*
Y145488D01*
Y145673D01*
X469251Y145951D01*
Y146321D01*
X469066Y147430D01*
X468788Y148632D01*
X468326Y150111D01*
X467864Y151498D01*
X467124Y152885D01*
X466292Y154087D01*
Y154179D01*
X466107Y154272D01*
X465645Y154826D01*
X464813Y155566D01*
X463703Y156398D01*
X462316Y157230D01*
X460652Y157970D01*
X458711Y158525D01*
X457694Y158617D01*
X456584Y158710D01*
D02*
G37*
G36*
X307083D02*
X306528D01*
X306066Y158617D01*
X305049Y158525D01*
X303662Y158155D01*
X302090Y157600D01*
X300426Y156860D01*
X298854Y155751D01*
X298022Y155011D01*
X297282Y154272D01*
Y154179D01*
X297097Y154087D01*
X296913Y153809D01*
X296635Y153440D01*
X296358Y152977D01*
X296080Y152423D01*
X295711Y151683D01*
X295341Y150943D01*
X294971Y150019D01*
X294601Y149094D01*
X294324Y147985D01*
X294046Y146783D01*
X293769Y145488D01*
X293584Y144102D01*
X293492Y142530D01*
X293399Y140958D01*
Y140866D01*
Y140588D01*
Y140126D01*
X293492Y139479D01*
Y138739D01*
X293584Y137907D01*
X293861Y135965D01*
X294324Y133746D01*
X295063Y131528D01*
X295988Y129401D01*
X296635Y128477D01*
X297282Y127552D01*
X297375D01*
X297467Y127367D01*
X298022Y126905D01*
X298854Y126165D01*
X299964Y125425D01*
X301350Y124593D01*
X303015Y123854D01*
X304956Y123391D01*
X305973Y123299D01*
X307083Y123207D01*
X307637D01*
X308100Y123299D01*
X309117Y123484D01*
X310504Y123761D01*
X311983Y124316D01*
X313647Y125056D01*
X315219Y126165D01*
X316051Y126905D01*
X316791Y127644D01*
X316883Y127737D01*
X316975Y127829D01*
X317160Y128107D01*
X317438Y128477D01*
X317715Y128939D01*
X318085Y129494D01*
X318455Y130233D01*
X318825Y130973D01*
X319194Y131897D01*
X319472Y132914D01*
X319842Y134024D01*
X320119Y135226D01*
X320396Y136613D01*
X320581Y137999D01*
X320766Y139571D01*
Y141235D01*
Y141328D01*
Y141605D01*
Y142068D01*
X320674Y142622D01*
Y143362D01*
X320581Y144194D01*
X320304Y146136D01*
X319842Y148170D01*
X319102Y150389D01*
X318085Y152423D01*
X317530Y153440D01*
X316791Y154272D01*
Y154364D01*
X316606Y154457D01*
X316051Y155011D01*
X315219Y155659D01*
X314109Y156491D01*
X312723Y157323D01*
X311058Y158062D01*
X309209Y158525D01*
X308192Y158617D01*
X307083Y158710D01*
D02*
G37*
G36*
X928572Y175537D02*
X928017D01*
X927647Y175444D01*
X926630Y175259D01*
X925428Y174982D01*
X924042Y174427D01*
X922562Y173595D01*
X921823Y173041D01*
X921083Y172486D01*
X920436Y171746D01*
X919789Y170914D01*
Y170822D01*
X919604Y170637D01*
X919419Y170267D01*
X919141Y169805D01*
X918864Y169065D01*
X918494Y168233D01*
X918217Y167216D01*
X917847Y166014D01*
X917477Y164627D01*
X917107Y163055D01*
X916738Y161299D01*
X916460Y159357D01*
X916183Y157138D01*
X915998Y154734D01*
X915905Y152145D01*
X915813Y149279D01*
Y149094D01*
Y148632D01*
Y147800D01*
X915905Y146691D01*
Y145489D01*
X915998Y144009D01*
X916090Y142438D01*
X916275Y140773D01*
X916738Y137168D01*
X917015Y135411D01*
X917385Y133747D01*
X917755Y132175D01*
X918309Y130696D01*
X918864Y129401D01*
X919511Y128292D01*
Y128199D01*
X919696Y128107D01*
X920158Y127460D01*
X920991Y126628D01*
X922008Y125703D01*
X923394Y124779D01*
X924966Y123946D01*
X926723Y123299D01*
X927647Y123207D01*
X928664Y123114D01*
X929219D01*
X929589Y123207D01*
X930514Y123392D01*
X931808Y123761D01*
X933195Y124409D01*
X934766Y125333D01*
X935506Y125888D01*
X936246Y126628D01*
X936985Y127367D01*
X937725Y128292D01*
Y128384D01*
X937910Y128569D01*
X938095Y128847D01*
X938280Y129309D01*
X938650Y129956D01*
X938927Y130788D01*
X939297Y131713D01*
X939667Y132822D01*
X939944Y134209D01*
X940314Y135688D01*
X940684Y137445D01*
X940961Y139294D01*
X941146Y141513D01*
X941331Y143824D01*
X941516Y146413D01*
Y149279D01*
Y149372D01*
Y149464D01*
Y149927D01*
Y150759D01*
X941423Y151868D01*
Y153070D01*
X941331Y154549D01*
X941238Y156121D01*
X941053Y157878D01*
X940591Y161391D01*
X940314Y163148D01*
X939944Y164812D01*
X939574Y166384D01*
X939019Y167863D01*
X938465Y169157D01*
X937818Y170267D01*
Y170359D01*
X937633Y170452D01*
X937448Y170729D01*
X937170Y171099D01*
X936338Y171931D01*
X935321Y172948D01*
X933934Y173873D01*
X932363Y174705D01*
X931531Y175075D01*
X930606Y175352D01*
X929589Y175444D01*
X928572Y175537D01*
D02*
G37*
G36*
X754477Y175537D02*
X753923D01*
X753553Y175444D01*
X752536Y175259D01*
X751334Y174982D01*
X749947Y174427D01*
X748468Y173595D01*
X747728Y173040D01*
X746988Y172486D01*
X746341Y171746D01*
X745694Y170914D01*
Y170821D01*
X745509Y170636D01*
X745324Y170267D01*
X745047Y169804D01*
X744769Y169065D01*
X744400Y168233D01*
X744122Y167216D01*
X743752Y166014D01*
X743383Y164627D01*
X743013Y163055D01*
X742643Y161298D01*
X742366Y159357D01*
X742088Y157138D01*
X741903Y154734D01*
X741811Y152145D01*
X741718Y149279D01*
Y149094D01*
Y148632D01*
Y147800D01*
X741811Y146690D01*
Y145488D01*
X741903Y144009D01*
X741996Y142437D01*
X742181Y140773D01*
X742643Y137167D01*
X742920Y135411D01*
X743290Y133746D01*
X743660Y132175D01*
X744215Y130695D01*
X744769Y129401D01*
X745417Y128292D01*
Y128199D01*
X745602Y128107D01*
X746064Y127459D01*
X746896Y126627D01*
X747913Y125703D01*
X749300Y124778D01*
X750871Y123946D01*
X752628Y123299D01*
X753553Y123207D01*
X754570Y123114D01*
X755124D01*
X755494Y123207D01*
X756419Y123391D01*
X757713Y123761D01*
X759100Y124408D01*
X760672Y125333D01*
X761411Y125888D01*
X762151Y126627D01*
X762891Y127367D01*
X763630Y128292D01*
Y128384D01*
X763815Y128569D01*
X764000Y128846D01*
X764185Y129309D01*
X764555Y129956D01*
X764832Y130788D01*
X765202Y131712D01*
X765572Y132822D01*
X765849Y134209D01*
X766219Y135688D01*
X766589Y137445D01*
X766866Y139294D01*
X767051Y141513D01*
X767236Y143824D01*
X767421Y146413D01*
Y149279D01*
Y149372D01*
Y149464D01*
Y149926D01*
Y150758D01*
X767329Y151868D01*
Y153070D01*
X767236Y154549D01*
X767144Y156121D01*
X766959Y157878D01*
X766497Y161391D01*
X766219Y163148D01*
X765849Y164812D01*
X765480Y166383D01*
X764925Y167863D01*
X764370Y169157D01*
X763723Y170267D01*
Y170359D01*
X763538Y170452D01*
X763353Y170729D01*
X763076Y171099D01*
X762244Y171931D01*
X761227Y172948D01*
X759840Y173872D01*
X758268Y174705D01*
X757436Y175074D01*
X756511Y175352D01*
X755494Y175444D01*
X754477Y175537D01*
D02*
G37*
%LPD*%
D14*
X1719000Y1027000D02*
X2227000D01*
X1719000Y519000D02*
Y1027000D01*
X2227000Y519000D02*
Y1027000D01*
X1719000Y519000D02*
X2227000D01*
X119000Y1027000D02*
X627000D01*
X119000Y519000D02*
Y1027000D01*
X627000Y519000D02*
Y1027000D01*
X119000Y519000D02*
X627000D01*
X160000Y770000D02*
X570000D01*
X1780000D02*
X2180000D01*
X2783000Y1261000D02*
X3037000D01*
Y245000D02*
Y1261000D01*
X2783000Y245000D02*
Y1261000D01*
Y245000D02*
X3037000D01*
%TF.MD5,10d9f29e4e2f9a1e923f7835529b7e93*%
M02*
