%TF.GenerationSoftware,Altium Limited,Altium Designer,21.2.2 (38)*%
G04 Layer_Color=2752767*
%FSLAX45Y45*%
%MOMM*%
%TF.SameCoordinates,2B2ADE3A-D6C2-4D68-935B-3E8D4F3A6811*%
%TF.FilePolarity,Positive*%
%TF.FileFunction,Drawing*%
%TF.Part,Single*%
G01*
G75*
%TA.AperFunction,NonConductor*%
%ADD19C,0.12700*%
%ADD20C,0.16933*%
D19*
X2049200Y849200D02*
Y950800D01*
X2150800D01*
Y849200D01*
X2049200D01*
Y595200D02*
Y696800D01*
X2150800D01*
Y595200D01*
X2049200D01*
X1795200Y849200D02*
Y950800D01*
X1896800D01*
Y849200D01*
X1795200D01*
Y595200D02*
Y696800D01*
X1896800D01*
Y595200D01*
X1795200D01*
X449200Y849200D02*
Y950800D01*
X550800D01*
Y849200D01*
X449200D01*
Y595200D02*
Y696800D01*
X550800D01*
Y595200D01*
X449200D01*
X195200Y849200D02*
Y950800D01*
X296800D01*
Y849200D01*
X195200D01*
Y595200D02*
Y696800D01*
X296800D01*
Y595200D01*
X195200D01*
D20*
X2960800Y372000D02*
G03*
X2960800Y372000I-50800J0D01*
G01*
Y626000D02*
G03*
X2960800Y626000I-50800J0D01*
G01*
Y880000D02*
G03*
X2960800Y880000I-50800J0D01*
G01*
Y1134000D02*
G03*
X2960800Y1134000I-50800J0D01*
G01*
%TF.MD5,7f7ba0ca654af0d4931a30a8fc23b60c*%
M02*
