%TF.GenerationSoftware,Altium Limited,Altium Designer,21.2.2 (38)*%
G04 Layer_Color=16711935*
%FSLAX45Y45*%
%MOMM*%
%TF.SameCoordinates,DC8D9031-FEEE-4EB9-A140-7D2FD38E5C7C*%
%TF.FilePolarity,Negative*%
%TF.FileFunction,Soldermask,Bot*%
%TF.Part,Single*%
G01*
G75*
%TA.AperFunction,ComponentPad*%
%ADD20R,1.50000X1.50000*%
%ADD21C,1.50000*%
D20*
X230000Y1554000D02*
D03*
Y1900000D02*
D03*
X3031000Y3247000D02*
D03*
D21*
X230000Y1300000D02*
D03*
Y2154000D02*
D03*
X3285000Y3247000D02*
D03*
X3031000Y2993000D02*
D03*
X3285000D02*
D03*
X3031000Y2739000D02*
D03*
X3285000D02*
D03*
X3031000Y2485000D02*
D03*
X3285000D02*
D03*
X3031000Y2231000D02*
D03*
X3285000D02*
D03*
X3031000Y1977000D02*
D03*
X3285000D02*
D03*
X3031000Y1723000D02*
D03*
X3285000D02*
D03*
X3031000Y1469000D02*
D03*
X3285000D02*
D03*
X3031000Y1215000D02*
D03*
X3285000D02*
D03*
X3031000Y961000D02*
D03*
X3285000D02*
D03*
X3031000Y707000D02*
D03*
X3285000D02*
D03*
X3031000Y453000D02*
D03*
X3285000D02*
D03*
X3031000Y199000D02*
D03*
X3285000D02*
D03*
%TF.MD5,7e035ae9c68f2b939d89b695a33ef12f*%
M02*
