%TF.GenerationSoftware,Altium Limited,Altium Designer,21.2.2 (38)*%
G04 Layer_Color=32768*
%FSLAX45Y45*%
%MOMM*%
%TF.SameCoordinates,DC8D9031-FEEE-4EB9-A140-7D2FD38E5C7C*%
%TF.FilePolarity,Positive*%
%TF.FileFunction,Other,Mechanical_15*%
%TF.Part,Single*%
G01*
G75*
%TA.AperFunction,NonConductor*%
%ADD25C,0.20000*%
%ADD30C,0.10000*%
%ADD31C,0.05000*%
D25*
X2720000Y1850000D02*
Y2030000D01*
X2800000D01*
Y1850000D02*
Y2030000D01*
X2720000Y1850000D02*
X2800000D01*
X2620000Y1900000D02*
Y2080000D01*
X2700000D01*
Y1900000D02*
Y2080000D01*
X2620000Y1900000D02*
X2700000D01*
X1470000Y1750000D02*
X1650000D01*
X1470000D02*
Y1830000D01*
X1650000D01*
Y1750000D02*
Y1830000D01*
X1470000Y1650000D02*
X1650000D01*
X1470000D02*
Y1730000D01*
X1650000D01*
Y1650000D02*
Y1730000D01*
X1820000Y1650000D02*
Y1830000D01*
X1740000Y1650000D02*
X1820000D01*
X1740000D02*
Y1830000D01*
X1820000D01*
X1740000Y1850000D02*
Y2030000D01*
X1820000D01*
Y1850000D02*
Y2030000D01*
X1740000Y1850000D02*
X1820000D01*
X2440000Y1680000D02*
Y1980000D01*
X1950000D02*
X2440000D01*
X1950000Y1680000D02*
Y1980000D01*
Y1680000D02*
X2440000D01*
X1950000Y2020000D02*
X2130000D01*
X1950000D02*
Y2100000D01*
X2130000D01*
Y2020000D02*
Y2100000D01*
X2590000Y3145000D02*
X2770000D01*
Y3065000D02*
Y3145000D01*
X2590000Y3065000D02*
X2770000D01*
X2590000D02*
Y3145000D01*
D30*
X800000Y2050000D02*
X960000D01*
X800000Y1770000D02*
X960000D01*
Y2050000D01*
X800000Y1770000D02*
Y2050000D01*
X880000Y1860000D02*
Y1960000D01*
X830000Y1910000D02*
X930000D01*
X800000Y1490000D02*
X960000D01*
X800000Y1770000D02*
X960000D01*
X800000Y1490000D02*
Y1770000D01*
X960000Y1490000D02*
Y1770000D01*
X880000Y1580000D02*
Y1680000D01*
X830000Y1630000D02*
X930000D01*
X2455000Y3057500D02*
Y3152500D01*
X2407500Y3105000D02*
X2502500D01*
X2335000Y3050000D02*
X2575000D01*
X2335000Y3160000D02*
X2575000D01*
Y3050000D02*
Y3160000D01*
X2335000Y3050000D02*
Y3160000D01*
D31*
X1029500Y1645000D02*
X1390500D01*
Y1895000D01*
X1029500D02*
X1390500D01*
X1029500Y1645000D02*
Y1895000D01*
%TF.MD5,700d2303b6b34e6f980d2a115ea596f4*%
M02*
