%TF.GenerationSoftware,Altium Limited,Altium Designer,21.2.2 (38)*%
G04 Layer_Color=0*
%FSLAX45Y45*%
%MOMM*%
%TF.SameCoordinates,DC8D9031-FEEE-4EB9-A140-7D2FD38E5C7C*%
%TF.FilePolarity,Positive*%
%TF.FileFunction,Plated,1,2,PTH,Drill*%
%TF.Part,Single*%
G01*
G75*
%TA.AperFunction,ComponentDrill*%
%ADD33C,0.90000*%
%TA.AperFunction,ViaDrill,NotFilled*%
%ADD34C,0.50000*%
%ADD35C,0.30000*%
D33*
X230000Y1554000D02*
D03*
Y1300000D02*
D03*
Y1900000D02*
D03*
Y2154000D02*
D03*
X3031000Y3247000D02*
D03*
X3285000D02*
D03*
X3031000Y2993000D02*
D03*
X3285000D02*
D03*
X3031000Y2739000D02*
D03*
X3285000D02*
D03*
X3031000Y2485000D02*
D03*
X3285000D02*
D03*
X3031000Y2231000D02*
D03*
X3285000D02*
D03*
X3031000Y1977000D02*
D03*
X3285000D02*
D03*
X3031000Y1723000D02*
D03*
X3285000D02*
D03*
X3031000Y1469000D02*
D03*
X3285000D02*
D03*
X3031000Y1215000D02*
D03*
X3285000D02*
D03*
X3031000Y961000D02*
D03*
X3285000D02*
D03*
X3031000Y707000D02*
D03*
X3285000D02*
D03*
X3031000Y453000D02*
D03*
X3285000D02*
D03*
X3031000Y199000D02*
D03*
X3285000D02*
D03*
D34*
X2230000Y3110000D02*
D03*
X1310000Y2120000D02*
D03*
Y1920000D02*
D03*
X2560000Y1730000D02*
D03*
X2230000Y2060000D02*
D03*
X1210000Y1560000D02*
D03*
D35*
X880000Y2190000D02*
D03*
Y2280000D02*
D03*
Y2370000D02*
D03*
Y2460000D02*
D03*
Y2550000D02*
D03*
X675000Y1400000D02*
D03*
X775000D02*
D03*
X875000D02*
D03*
X975000D02*
D03*
X1075000D02*
D03*
%TF.MD5,fd84b4859aaa1b7cfd856e6006d1f6c8*%
M02*
