%TF.GenerationSoftware,Altium Limited,Altium Designer,21.2.2 (38)*%
G04 Layer_Physical_Order=2*
G04 Layer_Color=16711680*
%FSLAX45Y45*%
%MOMM*%
%TF.SameCoordinates,DC8D9031-FEEE-4EB9-A140-7D2FD38E5C7C*%
%TF.FilePolarity,Positive*%
%TF.FileFunction,Copper,L2,Bot,Signal*%
%TF.Part,Single*%
G01*
G75*
%TA.AperFunction,Conductor*%
%ADD18C,0.20000*%
%TA.AperFunction,ComponentPad*%
%ADD20R,1.50000X1.50000*%
%ADD21C,1.50000*%
%TA.AperFunction,ViaPad*%
%ADD22C,0.85000*%
%ADD23C,0.65000*%
G36*
X3474512Y25488D02*
X25488D01*
Y3474512D01*
X3474512D01*
Y25488D01*
D02*
G37*
%LPC*%
G36*
X3296849Y3337000D02*
X3273151D01*
X3250261Y3330867D01*
X3229739Y3319018D01*
X3212982Y3302261D01*
X3201134Y3281739D01*
X3195000Y3258849D01*
Y3235152D01*
X3201134Y3212262D01*
X3212982Y3191739D01*
X3229739Y3174982D01*
X3250261Y3163134D01*
X3273151Y3157000D01*
X3296849D01*
X3319739Y3163134D01*
X3340261Y3174982D01*
X3357018Y3191739D01*
X3368867Y3212262D01*
X3375000Y3235152D01*
Y3258849D01*
X3368867Y3281739D01*
X3357018Y3302261D01*
X3340261Y3319018D01*
X3319739Y3330867D01*
X3296849Y3337000D01*
D02*
G37*
G36*
Y3083000D02*
X3273151D01*
X3250261Y3076867D01*
X3229739Y3065018D01*
X3212982Y3048261D01*
X3201134Y3027739D01*
X3195000Y3004849D01*
Y2981152D01*
X3201134Y2958262D01*
X3212982Y2937739D01*
X3229739Y2920982D01*
X3250261Y2909134D01*
X3273151Y2903000D01*
X3296849D01*
X3319739Y2909134D01*
X3340261Y2920982D01*
X3357018Y2937739D01*
X3368867Y2958262D01*
X3375000Y2981152D01*
Y3004849D01*
X3368867Y3027739D01*
X3357018Y3048261D01*
X3340261Y3065018D01*
X3319739Y3076867D01*
X3296849Y3083000D01*
D02*
G37*
G36*
Y2829000D02*
X3273151D01*
X3250261Y2822867D01*
X3229739Y2811018D01*
X3212982Y2794261D01*
X3201134Y2773739D01*
X3195000Y2750849D01*
Y2727152D01*
X3201134Y2704262D01*
X3212982Y2683739D01*
X3229739Y2666982D01*
X3250261Y2655134D01*
X3273151Y2649000D01*
X3296849D01*
X3319739Y2655134D01*
X3340261Y2666982D01*
X3357018Y2683739D01*
X3368867Y2704262D01*
X3375000Y2727152D01*
Y2750849D01*
X3368867Y2773739D01*
X3357018Y2794261D01*
X3340261Y2811018D01*
X3319739Y2822867D01*
X3296849Y2829000D01*
D02*
G37*
G36*
X3042849D02*
X3019151D01*
X2996261Y2822867D01*
X2975739Y2811018D01*
X2958982Y2794261D01*
X2947134Y2773739D01*
X2941000Y2750849D01*
Y2727152D01*
X2947134Y2704262D01*
X2958982Y2683739D01*
X2975739Y2666982D01*
X2996261Y2655134D01*
X3019151Y2649000D01*
X3042849D01*
X3065739Y2655134D01*
X3086261Y2666982D01*
X3103018Y2683739D01*
X3114867Y2704262D01*
X3121000Y2727152D01*
Y2750849D01*
X3114867Y2773739D01*
X3103018Y2794261D01*
X3086261Y2811018D01*
X3065739Y2822867D01*
X3042849Y2829000D01*
D02*
G37*
G36*
X3296849Y2575000D02*
X3273151D01*
X3250261Y2568867D01*
X3229739Y2557018D01*
X3212982Y2540261D01*
X3201134Y2519739D01*
X3195000Y2496849D01*
Y2473152D01*
X3201134Y2450262D01*
X3212982Y2429739D01*
X3229739Y2412982D01*
X3250261Y2401134D01*
X3273151Y2395000D01*
X3296849D01*
X3319739Y2401134D01*
X3340261Y2412982D01*
X3357018Y2429739D01*
X3368867Y2450262D01*
X3375000Y2473152D01*
Y2496849D01*
X3368867Y2519739D01*
X3357018Y2540261D01*
X3340261Y2557018D01*
X3319739Y2568867D01*
X3296849Y2575000D01*
D02*
G37*
G36*
X3042849D02*
X3019151D01*
X2996261Y2568867D01*
X2975739Y2557018D01*
X2958982Y2540261D01*
X2947134Y2519739D01*
X2941000Y2496849D01*
Y2473152D01*
X2947134Y2450262D01*
X2958982Y2429739D01*
X2975739Y2412982D01*
X2996261Y2401134D01*
X3019151Y2395000D01*
X3042849D01*
X3065739Y2401134D01*
X3086261Y2412982D01*
X3103018Y2429739D01*
X3114867Y2450262D01*
X3121000Y2473152D01*
Y2496849D01*
X3114867Y2519739D01*
X3103018Y2540261D01*
X3086261Y2557018D01*
X3065739Y2568867D01*
X3042849Y2575000D01*
D02*
G37*
G36*
X3296849Y2321000D02*
X3273151D01*
X3250261Y2314867D01*
X3229739Y2303018D01*
X3212982Y2286261D01*
X3201134Y2265739D01*
X3195000Y2242849D01*
Y2219152D01*
X3201134Y2196262D01*
X3212982Y2175739D01*
X3229739Y2158982D01*
X3250261Y2147134D01*
X3273151Y2141000D01*
X3296849D01*
X3319739Y2147134D01*
X3340261Y2158982D01*
X3357018Y2175739D01*
X3368867Y2196262D01*
X3375000Y2219152D01*
Y2242849D01*
X3368867Y2265739D01*
X3357018Y2286261D01*
X3340261Y2303018D01*
X3319739Y2314867D01*
X3296849Y2321000D01*
D02*
G37*
G36*
X3042849D02*
X3019151D01*
X2996261Y2314867D01*
X2975739Y2303018D01*
X2958982Y2286261D01*
X2947134Y2265739D01*
X2941000Y2242849D01*
Y2219152D01*
X2947134Y2196262D01*
X2958982Y2175739D01*
X2975739Y2158982D01*
X2996261Y2147134D01*
X3019151Y2141000D01*
X3042849D01*
X3065739Y2147134D01*
X3086261Y2158982D01*
X3103018Y2175739D01*
X3114867Y2196262D01*
X3121000Y2219152D01*
Y2242849D01*
X3114867Y2265739D01*
X3103018Y2286261D01*
X3086261Y2303018D01*
X3065739Y2314867D01*
X3042849Y2321000D01*
D02*
G37*
G36*
X241849Y2244000D02*
X218151D01*
X195261Y2237867D01*
X174739Y2226018D01*
X157982Y2209261D01*
X146134Y2188739D01*
X140000Y2165849D01*
Y2142152D01*
X146134Y2119262D01*
X157982Y2098739D01*
X174739Y2081983D01*
X195261Y2070134D01*
X218151Y2064000D01*
X241849D01*
X264739Y2070134D01*
X285261Y2081983D01*
X302018Y2098739D01*
X313867Y2119262D01*
X320000Y2142152D01*
Y2165849D01*
X313867Y2188739D01*
X302018Y2209261D01*
X285261Y2226018D01*
X264739Y2237867D01*
X241849Y2244000D01*
D02*
G37*
G36*
X3296849Y2067000D02*
X3273151D01*
X3250261Y2060867D01*
X3229739Y2049018D01*
X3212982Y2032261D01*
X3201134Y2011739D01*
X3195000Y1988849D01*
Y1965152D01*
X3201134Y1942262D01*
X3212982Y1921739D01*
X3229739Y1904982D01*
X3250261Y1893134D01*
X3273151Y1887000D01*
X3296849D01*
X3319739Y1893134D01*
X3340261Y1904982D01*
X3357018Y1921739D01*
X3368867Y1942262D01*
X3375000Y1965152D01*
Y1988849D01*
X3368867Y2011739D01*
X3357018Y2032261D01*
X3340261Y2049018D01*
X3319739Y2060867D01*
X3296849Y2067000D01*
D02*
G37*
G36*
X3042849D02*
X3019151D01*
X2996261Y2060867D01*
X2975739Y2049018D01*
X2958982Y2032261D01*
X2947134Y2011739D01*
X2941000Y1988849D01*
Y1965152D01*
X2947134Y1942262D01*
X2958982Y1921739D01*
X2975739Y1904982D01*
X2996261Y1893134D01*
X3019151Y1887000D01*
X3042849D01*
X3065739Y1893134D01*
X3086261Y1904982D01*
X3103018Y1921739D01*
X3114867Y1942262D01*
X3121000Y1965152D01*
Y1988849D01*
X3114867Y2011739D01*
X3103018Y2032261D01*
X3086261Y2049018D01*
X3065739Y2060867D01*
X3042849Y2067000D01*
D02*
G37*
G36*
X1321437Y2177500D02*
X1298563D01*
X1277429Y2168746D01*
X1261254Y2152571D01*
X1252500Y2131437D01*
Y2108563D01*
X1261254Y2087429D01*
X1277429Y2071254D01*
X1284510Y2068321D01*
Y1971679D01*
X1277429Y1968746D01*
X1261254Y1952571D01*
X1252500Y1931437D01*
Y1908563D01*
X1261254Y1887429D01*
X1277429Y1871254D01*
X1298563Y1862500D01*
X1321437D01*
X1342571Y1871254D01*
X1358746Y1887429D01*
X1367500Y1908563D01*
Y1931437D01*
X1358746Y1952571D01*
X1342571Y1968746D01*
X1335490Y1971679D01*
Y2068321D01*
X1342571Y2071254D01*
X1358746Y2087429D01*
X1367500Y2108563D01*
Y2131437D01*
X1358746Y2152571D01*
X1342571Y2168746D01*
X1321437Y2177500D01*
D02*
G37*
G36*
X3296849Y1813000D02*
X3273151D01*
X3250261Y1806867D01*
X3229739Y1795018D01*
X3212982Y1778261D01*
X3201134Y1757739D01*
X3195000Y1734849D01*
Y1711152D01*
X3201134Y1688262D01*
X3212982Y1667739D01*
X3229739Y1650982D01*
X3250261Y1639134D01*
X3273151Y1633000D01*
X3296849D01*
X3319739Y1639134D01*
X3340261Y1650982D01*
X3357018Y1667739D01*
X3368867Y1688262D01*
X3375000Y1711152D01*
Y1734849D01*
X3368867Y1757739D01*
X3357018Y1778261D01*
X3340261Y1795018D01*
X3319739Y1806867D01*
X3296849Y1813000D01*
D02*
G37*
G36*
X3042849D02*
X3019151D01*
X2996261Y1806867D01*
X2975739Y1795018D01*
X2958982Y1778261D01*
X2947134Y1757739D01*
X2941000Y1734849D01*
Y1711152D01*
X2947134Y1688262D01*
X2958982Y1667739D01*
X2975739Y1650982D01*
X2996261Y1639134D01*
X3019151Y1633000D01*
X3042849D01*
X3065739Y1639134D01*
X3086261Y1650982D01*
X3103018Y1667739D01*
X3114867Y1688262D01*
X3121000Y1711152D01*
Y1734849D01*
X3114867Y1757739D01*
X3103018Y1778261D01*
X3086261Y1795018D01*
X3065739Y1806867D01*
X3042849Y1813000D01*
D02*
G37*
G36*
X950000Y2641236D02*
X800000D01*
X788519Y2636481D01*
X783764Y2625000D01*
Y1516236D01*
X625000D01*
X613519Y1511481D01*
X608764Y1500000D01*
Y1300000D01*
X613519Y1288519D01*
X625000Y1283764D01*
X1150000D01*
X1161481Y1288519D01*
X1166236Y1300000D01*
Y1500000D01*
X1161481Y1511481D01*
X1150000Y1516236D01*
X966236D01*
Y2625000D01*
X961480Y2636481D01*
X950000Y2641236D01*
D02*
G37*
G36*
X241849Y1390000D02*
X218151D01*
X195261Y1383867D01*
X174739Y1372018D01*
X157982Y1355261D01*
X146134Y1334739D01*
X140000Y1311849D01*
Y1288152D01*
X146134Y1265262D01*
X157982Y1244739D01*
X174739Y1227983D01*
X195261Y1216134D01*
X218151Y1210000D01*
X241849D01*
X264739Y1216134D01*
X285261Y1227983D01*
X302018Y1244739D01*
X313867Y1265262D01*
X320000Y1288152D01*
Y1311849D01*
X313867Y1334739D01*
X302018Y1355261D01*
X285261Y1372018D01*
X264739Y1383867D01*
X241849Y1390000D01*
D02*
G37*
G36*
X3042849Y1305000D02*
X3019151D01*
X2996261Y1298867D01*
X2975739Y1287018D01*
X2958982Y1270261D01*
X2947134Y1249739D01*
X2941000Y1226849D01*
Y1203152D01*
X2947134Y1180262D01*
X2958982Y1159739D01*
X2975739Y1142982D01*
X2996261Y1131134D01*
X3019151Y1125000D01*
X3042849D01*
X3065739Y1131134D01*
X3086261Y1142982D01*
X3103018Y1159739D01*
X3114867Y1180262D01*
X3121000Y1203152D01*
Y1226849D01*
X3114867Y1249739D01*
X3103018Y1270261D01*
X3086261Y1287018D01*
X3065739Y1298867D01*
X3042849Y1305000D01*
D02*
G37*
G36*
X3296849Y1051000D02*
X3273151D01*
X3250261Y1044867D01*
X3229739Y1033018D01*
X3212982Y1016261D01*
X3201134Y995739D01*
X3195000Y972849D01*
Y949152D01*
X3201134Y926262D01*
X3212982Y905739D01*
X3229739Y888982D01*
X3250261Y877134D01*
X3273151Y871000D01*
X3296849D01*
X3319739Y877134D01*
X3340261Y888982D01*
X3357018Y905739D01*
X3368867Y926262D01*
X3375000Y949152D01*
Y972849D01*
X3368867Y995739D01*
X3357018Y1016261D01*
X3340261Y1033018D01*
X3319739Y1044867D01*
X3296849Y1051000D01*
D02*
G37*
G36*
X3042849D02*
X3019151D01*
X2996261Y1044867D01*
X2975739Y1033018D01*
X2958982Y1016261D01*
X2947134Y995739D01*
X2941000Y972849D01*
Y949152D01*
X2947134Y926262D01*
X2958982Y905739D01*
X2975739Y888982D01*
X2996261Y877134D01*
X3019151Y871000D01*
X3042849D01*
X3065739Y877134D01*
X3086261Y888982D01*
X3103018Y905739D01*
X3114867Y926262D01*
X3121000Y949152D01*
Y972849D01*
X3114867Y995739D01*
X3103018Y1016261D01*
X3086261Y1033018D01*
X3065739Y1044867D01*
X3042849Y1051000D01*
D02*
G37*
G36*
X3296849Y797000D02*
X3273151D01*
X3250261Y790867D01*
X3229739Y779018D01*
X3212982Y762261D01*
X3201134Y741739D01*
X3195000Y718849D01*
Y695152D01*
X3201134Y672262D01*
X3212982Y651739D01*
X3229739Y634982D01*
X3250261Y623134D01*
X3273151Y617000D01*
X3296849D01*
X3319739Y623134D01*
X3340261Y634982D01*
X3357018Y651739D01*
X3368867Y672262D01*
X3375000Y695152D01*
Y718849D01*
X3368867Y741739D01*
X3357018Y762261D01*
X3340261Y779018D01*
X3319739Y790867D01*
X3296849Y797000D01*
D02*
G37*
G36*
X3042849D02*
X3019151D01*
X2996261Y790867D01*
X2975739Y779018D01*
X2958982Y762261D01*
X2947134Y741739D01*
X2941000Y718849D01*
Y695152D01*
X2947134Y672262D01*
X2958982Y651739D01*
X2975739Y634982D01*
X2996261Y623134D01*
X3019151Y617000D01*
X3042849D01*
X3065739Y623134D01*
X3086261Y634982D01*
X3103018Y651739D01*
X3114867Y672262D01*
X3121000Y695152D01*
Y718849D01*
X3114867Y741739D01*
X3103018Y762261D01*
X3086261Y779018D01*
X3065739Y790867D01*
X3042849Y797000D01*
D02*
G37*
G36*
X3296849Y543000D02*
X3273151D01*
X3250261Y536867D01*
X3229739Y525018D01*
X3212982Y508261D01*
X3201134Y487739D01*
X3195000Y464849D01*
Y441152D01*
X3201134Y418262D01*
X3212982Y397739D01*
X3229739Y380982D01*
X3250261Y369134D01*
X3273151Y363000D01*
X3296849D01*
X3319739Y369134D01*
X3340261Y380982D01*
X3357018Y397739D01*
X3368867Y418262D01*
X3375000Y441152D01*
Y464849D01*
X3368867Y487739D01*
X3357018Y508261D01*
X3340261Y525018D01*
X3319739Y536867D01*
X3296849Y543000D01*
D02*
G37*
G36*
X3042849D02*
X3019151D01*
X2996261Y536867D01*
X2975739Y525018D01*
X2958982Y508261D01*
X2947134Y487739D01*
X2941000Y464849D01*
Y441152D01*
X2947134Y418262D01*
X2958982Y397739D01*
X2975739Y380982D01*
X2996261Y369134D01*
X3019151Y363000D01*
X3042849D01*
X3065739Y369134D01*
X3086261Y380982D01*
X3103018Y397739D01*
X3114867Y418262D01*
X3121000Y441152D01*
Y464849D01*
X3114867Y487739D01*
X3103018Y508261D01*
X3086261Y525018D01*
X3065739Y536867D01*
X3042849Y543000D01*
D02*
G37*
%LPD*%
G36*
X950000Y1500000D02*
X1150000D01*
Y1300000D01*
X625000D01*
Y1500000D01*
X800000D01*
Y2625000D01*
X950000D01*
Y1500000D01*
D02*
G37*
D18*
X1310000Y1920000D02*
Y2120000D01*
D20*
X230000Y1554000D02*
D03*
Y1900000D02*
D03*
X3031000Y3247000D02*
D03*
D21*
X230000Y1300000D02*
D03*
Y2154000D02*
D03*
X3285000Y3247000D02*
D03*
X3031000Y2993000D02*
D03*
X3285000D02*
D03*
X3031000Y2739000D02*
D03*
X3285000D02*
D03*
X3031000Y2485000D02*
D03*
X3285000D02*
D03*
X3031000Y2231000D02*
D03*
X3285000D02*
D03*
X3031000Y1977000D02*
D03*
X3285000D02*
D03*
X3031000Y1723000D02*
D03*
X3285000D02*
D03*
X3031000Y1469000D02*
D03*
X3285000D02*
D03*
X3031000Y1215000D02*
D03*
X3285000D02*
D03*
X3031000Y961000D02*
D03*
X3285000D02*
D03*
X3031000Y707000D02*
D03*
X3285000D02*
D03*
X3031000Y453000D02*
D03*
X3285000D02*
D03*
X3031000Y199000D02*
D03*
X3285000D02*
D03*
D22*
X2230000Y3110000D02*
D03*
X1310000Y2120000D02*
D03*
Y1920000D02*
D03*
X2560000Y1730000D02*
D03*
X2230000Y2060000D02*
D03*
X1210000Y1560000D02*
D03*
D23*
X880000Y2190000D02*
D03*
Y2280000D02*
D03*
Y2370000D02*
D03*
Y2460000D02*
D03*
Y2550000D02*
D03*
X675000Y1400000D02*
D03*
X775000D02*
D03*
X875000D02*
D03*
X975000D02*
D03*
X1075000D02*
D03*
%TF.MD5,6abccdeb5d97bd039327249048d3c3b3*%
M02*
