G04*
G04 #@! TF.GenerationSoftware,Altium Limited,Altium Designer,20.2.6 (244)*
G04*
G04 Layer_Color=32896*
%FSLAX44Y44*%
%MOMM*%
G71*
G04*
G04 #@! TF.SameCoordinates,16E07C71-212E-40B3-9EE3-4B1C9690829F*
G04*
G04*
G04 #@! TF.FilePolarity,Positive*
G04*
G01*
G75*
%ADD18C,0.2000*%
%ADD19C,0.1000*%
G36*
X1091394Y1028524D02*
X1096016Y1026609D01*
X1100176Y1023829D01*
X1101945Y1022060D01*
X1101945Y1022060D01*
X1129586Y994420D01*
X1131355Y992651D01*
X1134135Y988491D01*
X1136049Y983868D01*
X1137026Y978961D01*
Y976459D01*
Y88541D01*
Y86039D01*
X1136049Y81132D01*
X1134135Y76509D01*
X1131355Y72349D01*
X1129586Y70580D01*
X1129586D01*
X1129586Y70580D01*
X1101945Y42940D01*
X1100176Y41171D01*
X1096016Y38391D01*
X1091394Y36476D01*
X1086486Y35500D01*
X989545D01*
X984638Y36476D01*
X980015Y38391D01*
X975855Y41171D01*
X974086Y42940D01*
X950215Y66811D01*
X948446Y68580D01*
X945666Y72740D01*
X943752Y77362D01*
X942776Y82269D01*
Y84771D01*
Y236229D01*
X942653Y238719D01*
X941682Y243602D01*
X939776Y248202D01*
X937010Y252343D01*
X935336Y254189D01*
X935336Y254189D01*
X911965Y277561D01*
X910118Y279234D01*
X905978Y282001D01*
X901378Y283906D01*
X896494Y284878D01*
X894005Y285000D01*
X614271D01*
X611781Y284878D01*
X606898Y283906D01*
X602298Y282001D01*
X598157Y279234D01*
X596311Y277561D01*
X596311Y277561D01*
Y277561D01*
X572939Y254189D01*
X571265Y252342D01*
X568499Y248202D01*
X566594Y243602D01*
X565622Y238719D01*
X565500Y236229D01*
Y84771D01*
Y82269D01*
X564524Y77362D01*
X562609Y72740D01*
X559829Y68580D01*
X558060Y66810D01*
X558060D01*
X558060Y66810D01*
X534189Y42940D01*
X532421Y41171D01*
X528260Y38391D01*
X523638Y36476D01*
X518731Y35500D01*
X421789D01*
X416882Y36476D01*
X412259Y38391D01*
X408099Y41171D01*
X406330Y42940D01*
X378689Y70580D01*
X376921Y72349D01*
X374141Y76509D01*
X372226Y81132D01*
X371250Y86039D01*
Y88541D01*
Y976459D01*
Y978961D01*
X372226Y983868D01*
X374141Y988491D01*
X376921Y992651D01*
X378689Y994420D01*
Y994420D01*
X406330Y1022060D01*
X408099Y1023829D01*
X412259Y1026609D01*
X416882Y1028524D01*
X421789Y1029500D01*
X518731D01*
X523638Y1028524D01*
X528260Y1026609D01*
X532421Y1023829D01*
X534189Y1022060D01*
X534189Y1022060D01*
X558060Y998189D01*
X559829Y996421D01*
X562609Y992260D01*
X564524Y987638D01*
X565500Y982731D01*
Y980229D01*
Y828771D01*
X565622Y826281D01*
X566594Y821398D01*
X568499Y816798D01*
X571265Y812657D01*
X572939Y810810D01*
X596311Y787439D01*
X598158Y785766D01*
X602298Y782999D01*
X606898Y781094D01*
X611781Y780122D01*
X614271Y780000D01*
X894005D01*
X896494Y780122D01*
X901378Y781094D01*
X905978Y782999D01*
X910118Y785766D01*
X911965Y787439D01*
X911965D01*
X935336Y810810D01*
X937010Y812657D01*
X939776Y816798D01*
X941682Y821398D01*
X942653Y826281D01*
X942776Y828771D01*
Y980229D01*
Y982731D01*
X943752Y987638D01*
X945666Y992260D01*
X948446Y996421D01*
X950215Y998189D01*
Y998189D01*
X974086Y1022060D01*
X975855Y1023829D01*
X980015Y1026609D01*
X984638Y1028524D01*
X989545Y1029500D01*
X1086486D01*
X1091394Y1028524D01*
D02*
G37*
%LPC*%
G36*
X1057352Y988650D02*
X1015598D01*
X1010691Y987674D01*
X1006069Y985759D01*
X1001908Y982979D01*
X998371Y979442D01*
X995591Y975281D01*
X993676Y970659D01*
X992700Y965752D01*
Y963250D01*
Y942501D01*
X992670Y942471D01*
X992670D01*
Y916258D01*
Y913756D01*
X993646Y908849D01*
X995561Y904227D01*
X998340Y900066D01*
X1001878Y896528D01*
X1006038Y893749D01*
X1010661Y891834D01*
X1015568Y890858D01*
X1057352D01*
X1062259Y891834D01*
X1066881Y893749D01*
X1071041Y896528D01*
X1074579Y900066D01*
X1077359Y904227D01*
X1079274Y908849D01*
X1080250Y913756D01*
Y916258D01*
Y963250D01*
Y965752D01*
X1079274Y970659D01*
X1077359Y975281D01*
X1074579Y979442D01*
X1071041Y982979D01*
X1066881Y985759D01*
X1062259Y987674D01*
X1057352Y988650D01*
D02*
G37*
G36*
X492352D02*
X450598D01*
X445691Y987674D01*
X441069Y985759D01*
X436908Y982979D01*
X433371Y979442D01*
X430591Y975281D01*
X428676Y970659D01*
X427700Y965752D01*
Y963250D01*
Y942501D01*
X427670Y942471D01*
X427670D01*
Y916258D01*
Y913756D01*
X428646Y908849D01*
X430561Y904227D01*
X433340Y900066D01*
X436878Y896528D01*
X441038Y893749D01*
X445661Y891834D01*
X450568Y890858D01*
X492352D01*
X497259Y891834D01*
X501881Y893749D01*
X506041Y896528D01*
X509579Y900066D01*
X512359Y904227D01*
X514274Y908849D01*
X515250Y913756D01*
Y916258D01*
Y963250D01*
Y965752D01*
X514274Y970659D01*
X512359Y975281D01*
X509579Y979442D01*
X506041Y982979D01*
X501881Y985759D01*
X497259Y987674D01*
X492352Y988650D01*
D02*
G37*
G36*
X1057352Y828650D02*
X1015598D01*
X1010691Y827674D01*
X1006069Y825759D01*
X1001908Y822979D01*
X998371Y819442D01*
X995591Y815281D01*
X993676Y810659D01*
X992700Y805752D01*
Y803250D01*
Y782501D01*
X992670Y782471D01*
X992670D01*
Y756258D01*
Y753756D01*
X993646Y748849D01*
X995561Y744227D01*
X998340Y740066D01*
X1001878Y736528D01*
X1006038Y733749D01*
X1010661Y731834D01*
X1015568Y730858D01*
X1057352D01*
X1062259Y731834D01*
X1066881Y733749D01*
X1071041Y736528D01*
X1074579Y740066D01*
X1077359Y744227D01*
X1079274Y748849D01*
X1080250Y753756D01*
Y756258D01*
Y803250D01*
Y805752D01*
X1079274Y810659D01*
X1077359Y815281D01*
X1074579Y819442D01*
X1071041Y822979D01*
X1066881Y825759D01*
X1062259Y827674D01*
X1057352Y828650D01*
D02*
G37*
G36*
X492352D02*
X450598D01*
X445691Y827674D01*
X441069Y825759D01*
X436908Y822979D01*
X433371Y819442D01*
X430591Y815281D01*
X428676Y810659D01*
X427700Y805752D01*
Y803250D01*
Y782501D01*
X427670Y782471D01*
X427670D01*
Y756258D01*
Y753756D01*
X428646Y748849D01*
X430561Y744227D01*
X433340Y740066D01*
X436878Y736528D01*
X441038Y733749D01*
X445661Y731834D01*
X450568Y730858D01*
X492352D01*
X497259Y731834D01*
X501881Y733749D01*
X506041Y736528D01*
X509579Y740066D01*
X512359Y744227D01*
X514274Y748849D01*
X515250Y753756D01*
Y756258D01*
Y803250D01*
Y805752D01*
X514274Y810659D01*
X512359Y815281D01*
X509579Y819442D01*
X506041Y822979D01*
X501881Y825759D01*
X497259Y827674D01*
X492352Y828650D01*
D02*
G37*
G36*
X538752Y636094D02*
X538751Y636094D01*
X538750Y636094D01*
X536800D01*
X536209Y635977D01*
X535606D01*
X531782Y635216D01*
X531225Y634985D01*
X530634Y634868D01*
X527031Y633375D01*
X526530Y633041D01*
X525973Y632810D01*
X522730Y630643D01*
X522304Y630217D01*
X521803Y629882D01*
X520425Y628503D01*
X520424Y628503D01*
X519685Y627764D01*
X519685Y627764D01*
X518434Y626513D01*
X518099Y626012D01*
X517673Y625586D01*
X515708Y622644D01*
X515477Y622088D01*
X515142Y621586D01*
X513788Y618318D01*
X513671Y617727D01*
X513440Y617170D01*
X512750Y613700D01*
Y613098D01*
X512632Y612507D01*
Y607159D01*
X512750Y606568D01*
Y605966D01*
X513439Y602503D01*
X513669Y601946D01*
X513787Y601355D01*
X515138Y598093D01*
X515473Y597592D01*
X515703Y597035D01*
X517665Y594100D01*
X518091Y593674D01*
X518426Y593173D01*
X518750Y592849D01*
Y469913D01*
X518465Y469628D01*
X518130Y469127D01*
X517704Y468701D01*
X515723Y465736D01*
X515493Y465180D01*
X515158Y464679D01*
X513794Y461385D01*
X513676Y460794D01*
X513446Y460237D01*
X512750Y456741D01*
Y456138D01*
X512632Y455547D01*
Y450142D01*
X512750Y449551D01*
Y448948D01*
X513401Y445677D01*
X513631Y445120D01*
X513749Y444529D01*
X515025Y441447D01*
X515360Y440946D01*
X515591Y440389D01*
X517444Y437616D01*
X517870Y437190D01*
X518205Y436689D01*
X521009Y433884D01*
X521511Y433549D01*
X521936Y433123D01*
X525759Y430569D01*
X526315Y430339D01*
X526816Y430004D01*
X531063Y428245D01*
X531654Y428127D01*
X532211Y427897D01*
X536720Y427000D01*
X537322D01*
X537913Y426883D01*
X971568D01*
X972159Y427000D01*
X972762D01*
X976581Y427760D01*
X977138Y427990D01*
X977729Y428108D01*
X981326Y429598D01*
X981827Y429933D01*
X982384Y430163D01*
X985621Y432327D01*
X986048Y432753D01*
X986548Y433087D01*
X987925Y434464D01*
X987925Y434465D01*
X987926Y434465D01*
X987994Y434533D01*
X987994Y434533D01*
X989387Y435925D01*
X989721Y436427D01*
X990147Y436852D01*
X992336Y440128D01*
X992567Y440685D01*
X992901Y441186D01*
X994409Y444825D01*
X994526Y445416D01*
X994757Y445973D01*
X995526Y449837D01*
Y450439D01*
X995643Y451030D01*
Y454932D01*
X995526Y455523D01*
Y456125D01*
X994772Y459914D01*
X994541Y460471D01*
X994424Y461062D01*
X992945Y464631D01*
X992610Y465132D01*
X992380Y465689D01*
X990234Y468901D01*
X989808Y469327D01*
X989526Y469749D01*
Y593171D01*
X989766Y593531D01*
X990192Y593957D01*
X992359Y597200D01*
X992589Y597756D01*
X992924Y598257D01*
X994417Y601860D01*
X994534Y602451D01*
X994765Y603008D01*
X995526Y606833D01*
Y607436D01*
X995643Y608027D01*
Y613344D01*
X995526Y613935D01*
Y614538D01*
X994948Y617444D01*
X994717Y618001D01*
X994599Y618592D01*
X993465Y621329D01*
X993131Y621830D01*
X992900Y622387D01*
X991254Y624851D01*
X990828Y625277D01*
X990493Y625778D01*
X989445Y626826D01*
X989445Y626826D01*
X987688Y628583D01*
X987187Y628918D01*
X986761Y629344D01*
X982628Y632105D01*
X982072Y632336D01*
X981571Y632670D01*
X976979Y634572D01*
X976388Y634690D01*
X975831Y634921D01*
X970956Y635890D01*
X970354D01*
X969763Y636008D01*
X754140D01*
X538752Y636094D01*
D02*
G37*
G36*
X1057352Y333650D02*
X1015598D01*
X1010691Y332674D01*
X1006069Y330759D01*
X1001908Y327979D01*
X998371Y324441D01*
X995591Y320281D01*
X993676Y315659D01*
X992700Y310752D01*
Y308250D01*
Y287501D01*
X992670Y287471D01*
X992670D01*
Y261258D01*
Y258756D01*
X993646Y253849D01*
X995561Y249226D01*
X998340Y245066D01*
X1001878Y241528D01*
X1006038Y238749D01*
X1010661Y236834D01*
X1015568Y235858D01*
X1057352D01*
X1062259Y236834D01*
X1066881Y238749D01*
X1071041Y241528D01*
X1074579Y245066D01*
X1077359Y249226D01*
X1079274Y253849D01*
X1080250Y258756D01*
Y261258D01*
Y308250D01*
Y310752D01*
X1079274Y315659D01*
X1077359Y320281D01*
X1074579Y324441D01*
X1071041Y327979D01*
X1066881Y330759D01*
X1062259Y332674D01*
X1057352Y333650D01*
D02*
G37*
G36*
X492352D02*
X450598D01*
X445691Y332674D01*
X441069Y330759D01*
X436908Y327979D01*
X433371Y324441D01*
X430591Y320281D01*
X428676Y315659D01*
X427700Y310752D01*
Y308250D01*
Y287501D01*
X427670Y287471D01*
X427670D01*
Y261258D01*
Y258756D01*
X428646Y253849D01*
X430561Y249226D01*
X433340Y245066D01*
X436878Y241528D01*
X441038Y238749D01*
X445661Y236834D01*
X450568Y235858D01*
X492352D01*
X497259Y236834D01*
X501881Y238749D01*
X506041Y241528D01*
X509579Y245066D01*
X512359Y249226D01*
X514274Y253849D01*
X515250Y258756D01*
Y261258D01*
Y308250D01*
Y310752D01*
X514274Y315659D01*
X512359Y320281D01*
X509579Y324441D01*
X506041Y327979D01*
X501881Y330759D01*
X497259Y332674D01*
X492352Y333650D01*
D02*
G37*
G36*
X1057352Y173650D02*
X1015598D01*
X1010691Y172674D01*
X1006069Y170759D01*
X1001908Y167979D01*
X998371Y164442D01*
X995591Y160281D01*
X993676Y155659D01*
X992700Y150752D01*
Y148250D01*
Y127501D01*
X992670Y127471D01*
X992670D01*
Y101258D01*
Y98756D01*
X993646Y93849D01*
X995561Y89227D01*
X998340Y85066D01*
X1001878Y81529D01*
X1006038Y78749D01*
X1010661Y76834D01*
X1015568Y75858D01*
X1057352D01*
X1062259Y76834D01*
X1066881Y78749D01*
X1071041Y81529D01*
X1074579Y85066D01*
X1077359Y89227D01*
X1079274Y93849D01*
X1080250Y98756D01*
Y101258D01*
Y148250D01*
Y150752D01*
X1079274Y155659D01*
X1077359Y160281D01*
X1074579Y164442D01*
X1071041Y167979D01*
X1066881Y170759D01*
X1062259Y172674D01*
X1057352Y173650D01*
D02*
G37*
G36*
X492352D02*
X450598D01*
X445691Y172674D01*
X441069Y170759D01*
X436908Y167979D01*
X433371Y164442D01*
X430591Y160281D01*
X428676Y155659D01*
X427700Y150752D01*
Y148250D01*
Y127501D01*
X427670Y127471D01*
X427670D01*
Y101258D01*
Y98756D01*
X428646Y93849D01*
X430561Y89227D01*
X433340Y85066D01*
X436878Y81529D01*
X441038Y78749D01*
X445661Y76834D01*
X450568Y75858D01*
X492352D01*
X497259Y76834D01*
X501881Y78749D01*
X506041Y81529D01*
X509579Y85066D01*
X512359Y89227D01*
X514274Y93849D01*
X515250Y98756D01*
Y101258D01*
Y148250D01*
Y150752D01*
X514274Y155659D01*
X512359Y160281D01*
X509579Y164442D01*
X506041Y167979D01*
X501881Y170759D01*
X497259Y172674D01*
X492352Y173650D01*
D02*
G37*
%LPD*%
D18*
X913506Y276020D02*
G03*
X891826Y285000I-21680J-21680D01*
G01*
X942776Y234050D02*
G03*
X933795Y255730I-30661J0D01*
G01*
X942776Y86950D02*
G03*
X951756Y65270I30661J0D01*
G01*
X972545Y44480D02*
G03*
X994226Y35500I21680J21680D01*
G01*
X1081806D02*
G03*
X1103486Y44480I0J30661D01*
G01*
X1128045Y69040D02*
G03*
X1137026Y90720I-21680J21680D01*
G01*
X891826Y780000D02*
G03*
X913506Y788980I0J30661D01*
G01*
X933795Y809270D02*
G03*
X942776Y830950I-21680J21680D01*
G01*
X951756Y999730D02*
G03*
X942776Y978050I21680J-21680D01*
G01*
X994226Y1029500D02*
G03*
X972545Y1020520I0J-30661D01*
G01*
X1103486D02*
G03*
X1081806Y1029500I-21680J-21680D01*
G01*
X1137026Y974280D02*
G03*
X1128045Y995960I-30661J0D01*
G01*
X616450Y285000D02*
G03*
X594770Y276020I0J-30661D01*
G01*
X574480Y255730D02*
G03*
X565500Y234050I21680J-21680D01*
G01*
X556520Y65270D02*
G03*
X565500Y86950I-21680J21680D01*
G01*
X514050Y35500D02*
G03*
X535730Y44480I0J30661D01*
G01*
X404790D02*
G03*
X426470Y35500I21680J21680D01*
G01*
X371250Y90720D02*
G03*
X380230Y69040I30661J0D01*
G01*
Y995960D02*
G03*
X371250Y974280I21680J-21680D01*
G01*
X426470Y1029500D02*
G03*
X404790Y1020520I0J-30661D01*
G01*
X535730D02*
G03*
X514050Y1029500I-21680J-21680D01*
G01*
X565500Y978050D02*
G03*
X556520Y999730I-30661J0D01*
G01*
X565500Y830950D02*
G03*
X574480Y809270I30661J0D01*
G01*
X594770Y788980D02*
G03*
X616450Y780000I21680J21680D01*
G01*
X518750Y609977D02*
G03*
X538750Y589977I20000J0D01*
G01*
Y629977D02*
G03*
X518750Y609977I0J-20000D01*
G01*
X538750Y473000D02*
G03*
X518750Y453000I0J-20000D01*
G01*
D02*
G03*
X538750Y433000I20000J0D01*
G01*
X969526Y589977D02*
G03*
X989526Y609977I0J20000D01*
G01*
D02*
G03*
X969526Y629977I-20000J0D01*
G01*
X788276Y589977D02*
G03*
X768276Y569977I0J-20000D01*
G01*
Y493000D02*
G03*
X788276Y473000I20000J0D01*
G01*
X989526Y453000D02*
G03*
X969526Y473000I-20000J0D01*
G01*
Y433000D02*
G03*
X989526Y453000I0J20000D01*
G01*
X720000Y473000D02*
G03*
X740000Y493000I0J20000D01*
G01*
Y569977D02*
G03*
X720000Y589977I-20000J0D01*
G01*
X754138Y285000D02*
X891826D01*
X913506Y276020D02*
X933795Y255730D01*
X942776Y86950D02*
Y234050D01*
X951756Y65270D02*
X972545Y44480D01*
X994226Y35500D02*
X1076276D01*
X1081806D01*
X1103486Y44480D02*
X1128045Y69040D01*
X1137026Y90720D02*
Y532500D01*
X754138Y780000D02*
X891826D01*
X913506Y788980D02*
X933795Y809270D01*
X942776Y830950D02*
Y978050D01*
X951756Y999730D02*
X972545Y1020520D01*
X994226Y1029500D02*
X1076276D01*
X1081806D01*
X1103486Y1020520D02*
X1128045Y995960D01*
X1137026Y532500D02*
Y974280D01*
X616450Y285000D02*
X754138D01*
X574480Y255730D02*
X594770Y276020D01*
X565500Y86950D02*
Y234050D01*
X535730Y44480D02*
X556520Y65270D01*
X432000Y35500D02*
X514050D01*
X426470D02*
X432000D01*
X380230Y69040D02*
X404790Y44480D01*
X371250Y90720D02*
Y532500D01*
Y974280D01*
X380230Y995960D02*
X404790Y1020520D01*
X426470Y1029500D02*
X432000D01*
X514050D01*
X535730Y1020520D02*
X556520Y999730D01*
X565500Y830950D02*
Y978050D01*
X574480Y809270D02*
X594770Y788980D01*
X616450Y780000D02*
X754138D01*
X720000Y629890D02*
X788276D01*
X538750Y589977D02*
X670000D01*
X538750Y629890D02*
X670000D01*
X720000D01*
X670000Y589977D02*
X720000D01*
X538750Y473000D02*
X670000D01*
X538750Y433087D02*
X670000D01*
X720000D01*
X670000Y473000D02*
X720000D01*
X838276Y589977D02*
X969526D01*
X838276Y629890D02*
X969526D01*
X788276D02*
X838276D01*
X788276Y589977D02*
X838276D01*
X788276Y433000D02*
X838276D01*
X788276Y472914D02*
X838276D01*
X768276Y501250D02*
Y563750D01*
X768276Y569977D02*
X768276Y563750D01*
X768276Y493000D02*
X768276Y501250D01*
X838276Y472914D02*
X969526D01*
X838276Y433000D02*
X969526D01*
X720000D02*
X788276D01*
X740000Y501250D02*
Y563750D01*
Y501250D02*
X740000Y493000D01*
X740000Y563750D02*
X740000Y569977D01*
D19*
X768276Y501250D02*
Y563750D01*
X740000Y501250D02*
Y563750D01*
M02*
