%TF.GenerationSoftware,Altium Limited,Altium Designer,21.2.2 (38)*%
G04 Layer_Color=2752767*
%FSLAX45Y45*%
%MOMM*%
%TF.SameCoordinates,908A5498-0BB4-4271-8F68-DE63ACD0DB91*%
%TF.FilePolarity,Positive*%
%TF.FileFunction,Drawing*%
%TF.Part,Single*%
G01*
G75*
%TA.AperFunction,NonConductor*%
%ADD18C,0.12700*%
%ADD19C,0.16933*%
D18*
X8806960Y2497840D02*
Y2599440D01*
X8908560D01*
Y2497840D01*
X8806960D01*
Y2223520D02*
Y2325120D01*
X8908560D01*
Y2223520D01*
X8806960D01*
Y1949200D02*
Y2050800D01*
X8908560D01*
Y1949200D01*
X8806960D01*
Y1674880D02*
Y1776480D01*
X8908560D01*
Y1674880D01*
X8806960D01*
Y1400560D02*
Y1502160D01*
X8908560D01*
Y1400560D01*
X8806960D01*
X9091440Y2360680D02*
Y2462280D01*
X9193040D01*
Y2360680D01*
X9091440D01*
Y2086360D02*
Y2187960D01*
X9193040D01*
Y2086360D01*
X9091440D01*
Y1812040D02*
Y1913640D01*
X9193040D01*
Y1812040D01*
X9091440D01*
Y1537720D02*
Y1639320D01*
X9193040D01*
Y1537720D01*
X9091440D01*
X6806960Y2497840D02*
Y2599440D01*
X6908560D01*
Y2497840D01*
X6806960D01*
Y2223520D02*
Y2325120D01*
X6908560D01*
Y2223520D01*
X6806960D01*
Y1949200D02*
Y2050800D01*
X6908560D01*
Y1949200D01*
X6806960D01*
Y1674880D02*
Y1776480D01*
X6908560D01*
Y1674880D01*
X6806960D01*
Y1400560D02*
Y1502160D01*
X6908560D01*
Y1400560D01*
X6806960D01*
X7091440Y2360680D02*
Y2462280D01*
X7193040D01*
Y2360680D01*
X7091440D01*
Y2086360D02*
Y2187960D01*
X7193040D01*
Y2086360D01*
X7091440D01*
Y1812040D02*
Y1913640D01*
X7193040D01*
Y1812040D01*
X7091440D01*
Y1537720D02*
Y1639320D01*
X7193040D01*
Y1537720D01*
X7091440D01*
X4806960Y2497840D02*
Y2599440D01*
X4908560D01*
Y2497840D01*
X4806960D01*
Y2223520D02*
Y2325120D01*
X4908560D01*
Y2223520D01*
X4806960D01*
Y1949200D02*
Y2050800D01*
X4908560D01*
Y1949200D01*
X4806960D01*
Y1674880D02*
Y1776480D01*
X4908560D01*
Y1674880D01*
X4806960D01*
Y1400560D02*
Y1502160D01*
X4908560D01*
Y1400560D01*
X4806960D01*
X5091440Y2360680D02*
Y2462280D01*
X5193040D01*
Y2360680D01*
X5091440D01*
Y2086360D02*
Y2187960D01*
X5193040D01*
Y2086360D01*
X5091440D01*
Y1812040D02*
Y1913640D01*
X5193040D01*
Y1812040D01*
X5091440D01*
Y1537720D02*
Y1639320D01*
X5193040D01*
Y1537720D01*
X5091440D01*
X2806960Y2497840D02*
Y2599440D01*
X2908560D01*
Y2497840D01*
X2806960D01*
Y2223520D02*
Y2325120D01*
X2908560D01*
Y2223520D01*
X2806960D01*
Y1949200D02*
Y2050800D01*
X2908560D01*
Y1949200D01*
X2806960D01*
Y1674880D02*
Y1776480D01*
X2908560D01*
Y1674880D01*
X2806960D01*
Y1400560D02*
Y1502160D01*
X2908560D01*
Y1400560D01*
X2806960D01*
X3091440Y2360680D02*
Y2462280D01*
X3193040D01*
Y2360680D01*
X3091440D01*
Y2086360D02*
Y2187960D01*
X3193040D01*
Y2086360D01*
X3091440D01*
Y1812040D02*
Y1913640D01*
X3193040D01*
Y1812040D01*
X3091440D01*
Y1537720D02*
Y1639320D01*
X3193040D01*
Y1537720D01*
X3091440D01*
X806960Y2497840D02*
Y2599440D01*
X908560D01*
Y2497840D01*
X806960D01*
Y2223520D02*
Y2325120D01*
X908560D01*
Y2223520D01*
X806960D01*
Y1949200D02*
Y2050800D01*
X908560D01*
Y1949200D01*
X806960D01*
Y1674880D02*
Y1776480D01*
X908560D01*
Y1674880D01*
X806960D01*
Y1400560D02*
Y1502160D01*
X908560D01*
Y1400560D01*
X806960D01*
X1091440Y2360680D02*
Y2462280D01*
X1193040D01*
Y2360680D01*
X1091440D01*
Y2086360D02*
Y2187960D01*
X1193040D01*
Y2086360D01*
X1091440D01*
Y1812040D02*
Y1913640D01*
X1193040D01*
Y1812040D01*
X1091440D01*
Y1537720D02*
Y1639320D01*
X1193040D01*
Y1537720D01*
X1091440D01*
D19*
X9050800Y3249680D02*
G03*
X9050800Y3249680I-50800J0D01*
G01*
Y749680D02*
G03*
X9050800Y749680I-50800J0D01*
G01*
X7050800Y3249680D02*
G03*
X7050800Y3249680I-50800J0D01*
G01*
Y749680D02*
G03*
X7050800Y749680I-50800J0D01*
G01*
X5050800Y3249680D02*
G03*
X5050800Y3249680I-50800J0D01*
G01*
Y749680D02*
G03*
X5050800Y749680I-50800J0D01*
G01*
X3050800Y3249680D02*
G03*
X3050800Y3249680I-50800J0D01*
G01*
Y749680D02*
G03*
X3050800Y749680I-50800J0D01*
G01*
X1050800Y3249680D02*
G03*
X1050800Y3249680I-50800J0D01*
G01*
Y749680D02*
G03*
X1050800Y749680I-50800J0D01*
G01*
%TF.MD5,a1b7130e15dd51af749bc6fc162ac92b*%
M02*
