%TF.GenerationSoftware,Altium Limited,Altium Designer,21.2.2 (38)*%
G04 Layer_Physical_Order=2*
G04 Layer_Color=16711680*
%FSLAX45Y45*%
%MOMM*%
%TF.SameCoordinates,908A5498-0BB4-4271-8F68-DE63ACD0DB91*%
%TF.FilePolarity,Positive*%
%TF.FileFunction,Copper,L2,Bot,Signal*%
%TF.Part,Single*%
G01*
G75*
%TA.AperFunction,ComponentPad*%
%ADD10C,1.50000*%
%TA.AperFunction,ViaPad*%
%ADD11C,3.70000*%
G36*
X9275000Y1325000D02*
X1000000D01*
Y2700000D01*
X9275000D01*
Y1325000D01*
D02*
G37*
%LPC*%
G36*
X8869609Y2638640D02*
X8845911D01*
X8823021Y2632507D01*
X8802499Y2620658D01*
X8785742Y2603901D01*
X8773894Y2583379D01*
X8767760Y2560489D01*
Y2536791D01*
X8773894Y2513902D01*
X8785742Y2493379D01*
X8802499Y2476622D01*
X8823021Y2464774D01*
X8845911Y2458640D01*
X8869609D01*
X8892499Y2464774D01*
X8913021Y2476622D01*
X8929778Y2493379D01*
X8941627Y2513902D01*
X8947760Y2536791D01*
Y2560489D01*
X8941627Y2583379D01*
X8929778Y2603901D01*
X8913021Y2620658D01*
X8892499Y2632507D01*
X8869609Y2638640D01*
D02*
G37*
G36*
X6869609D02*
X6845911D01*
X6823021Y2632507D01*
X6802499Y2620658D01*
X6785742Y2603901D01*
X6773893Y2583379D01*
X6767760Y2560489D01*
Y2536791D01*
X6773893Y2513902D01*
X6785742Y2493379D01*
X6802499Y2476622D01*
X6823021Y2464774D01*
X6845911Y2458640D01*
X6869609D01*
X6892499Y2464774D01*
X6913021Y2476622D01*
X6929778Y2493379D01*
X6941626Y2513902D01*
X6947760Y2536791D01*
Y2560489D01*
X6941626Y2583379D01*
X6929778Y2603901D01*
X6913021Y2620658D01*
X6892499Y2632507D01*
X6869609Y2638640D01*
D02*
G37*
G36*
X4869608D02*
X4845911D01*
X4823021Y2632507D01*
X4802499Y2620658D01*
X4785742Y2603901D01*
X4773893Y2583379D01*
X4767760Y2560489D01*
Y2536791D01*
X4773893Y2513902D01*
X4785742Y2493379D01*
X4802499Y2476622D01*
X4823021Y2464774D01*
X4845911Y2458640D01*
X4869608D01*
X4892498Y2464774D01*
X4913021Y2476622D01*
X4929778Y2493379D01*
X4941626Y2513902D01*
X4947760Y2536791D01*
Y2560489D01*
X4941626Y2583379D01*
X4929778Y2603901D01*
X4913021Y2620658D01*
X4892498Y2632507D01*
X4869608Y2638640D01*
D02*
G37*
G36*
X2869609D02*
X2845912D01*
X2823022Y2632507D01*
X2802499Y2620658D01*
X2785742Y2603901D01*
X2773894Y2583379D01*
X2767760Y2560489D01*
Y2536791D01*
X2773894Y2513902D01*
X2785742Y2493379D01*
X2802499Y2476622D01*
X2823022Y2464774D01*
X2845912Y2458640D01*
X2869609D01*
X2892499Y2464774D01*
X2913021Y2476622D01*
X2929778Y2493379D01*
X2941627Y2513902D01*
X2947760Y2536791D01*
Y2560489D01*
X2941627Y2583379D01*
X2929778Y2603901D01*
X2913021Y2620658D01*
X2892499Y2632507D01*
X2869609Y2638640D01*
D02*
G37*
G36*
X8869609Y2364320D02*
X8845911D01*
X8823021Y2358187D01*
X8802499Y2346338D01*
X8785742Y2329581D01*
X8773894Y2309059D01*
X8767760Y2286169D01*
Y2262471D01*
X8773894Y2239581D01*
X8785742Y2219059D01*
X8802499Y2202302D01*
X8823021Y2190454D01*
X8845911Y2184320D01*
X8869609D01*
X8892499Y2190454D01*
X8913021Y2202302D01*
X8929778Y2219059D01*
X8941627Y2239581D01*
X8947760Y2262471D01*
Y2286169D01*
X8941627Y2309059D01*
X8929778Y2329581D01*
X8913021Y2346338D01*
X8892499Y2358187D01*
X8869609Y2364320D01*
D02*
G37*
G36*
X6869609D02*
X6845911D01*
X6823021Y2358187D01*
X6802499Y2346338D01*
X6785742Y2329581D01*
X6773893Y2309059D01*
X6767760Y2286169D01*
Y2262471D01*
X6773893Y2239581D01*
X6785742Y2219059D01*
X6802499Y2202302D01*
X6823021Y2190454D01*
X6845911Y2184320D01*
X6869609D01*
X6892499Y2190454D01*
X6913021Y2202302D01*
X6929778Y2219059D01*
X6941626Y2239581D01*
X6947760Y2262471D01*
Y2286169D01*
X6941626Y2309059D01*
X6929778Y2329581D01*
X6913021Y2346338D01*
X6892499Y2358187D01*
X6869609Y2364320D01*
D02*
G37*
G36*
X4869608D02*
X4845911D01*
X4823021Y2358187D01*
X4802499Y2346338D01*
X4785742Y2329581D01*
X4773893Y2309059D01*
X4767760Y2286169D01*
Y2262471D01*
X4773893Y2239581D01*
X4785742Y2219059D01*
X4802499Y2202302D01*
X4823021Y2190454D01*
X4845911Y2184320D01*
X4869608D01*
X4892498Y2190454D01*
X4913021Y2202302D01*
X4929778Y2219059D01*
X4941626Y2239581D01*
X4947760Y2262471D01*
Y2286169D01*
X4941626Y2309059D01*
X4929778Y2329581D01*
X4913021Y2346338D01*
X4892498Y2358187D01*
X4869608Y2364320D01*
D02*
G37*
G36*
X2869609D02*
X2845912D01*
X2823022Y2358187D01*
X2802499Y2346338D01*
X2785742Y2329581D01*
X2773894Y2309059D01*
X2767760Y2286169D01*
Y2262471D01*
X2773894Y2239581D01*
X2785742Y2219059D01*
X2802499Y2202302D01*
X2823022Y2190454D01*
X2845912Y2184320D01*
X2869609D01*
X2892499Y2190454D01*
X2913021Y2202302D01*
X2929778Y2219059D01*
X2941627Y2239581D01*
X2947760Y2262471D01*
Y2286169D01*
X2941627Y2309059D01*
X2929778Y2329581D01*
X2913021Y2346338D01*
X2892499Y2358187D01*
X2869609Y2364320D01*
D02*
G37*
G36*
X8869609Y2090000D02*
X8845911D01*
X8823021Y2083867D01*
X8802499Y2072018D01*
X8785742Y2055261D01*
X8773894Y2034739D01*
X8767760Y2011849D01*
Y1988151D01*
X8773894Y1965262D01*
X8785742Y1944739D01*
X8802499Y1927982D01*
X8823021Y1916134D01*
X8845911Y1910000D01*
X8869609D01*
X8892499Y1916134D01*
X8913021Y1927982D01*
X8929778Y1944739D01*
X8941627Y1965262D01*
X8947760Y1988151D01*
Y2011849D01*
X8941627Y2034739D01*
X8929778Y2055261D01*
X8913021Y2072018D01*
X8892499Y2083867D01*
X8869609Y2090000D01*
D02*
G37*
G36*
X6869609D02*
X6845911D01*
X6823021Y2083867D01*
X6802499Y2072018D01*
X6785742Y2055261D01*
X6773893Y2034739D01*
X6767760Y2011849D01*
Y1988151D01*
X6773893Y1965262D01*
X6785742Y1944739D01*
X6802499Y1927982D01*
X6823021Y1916134D01*
X6845911Y1910000D01*
X6869609D01*
X6892499Y1916134D01*
X6913021Y1927982D01*
X6929778Y1944739D01*
X6941626Y1965262D01*
X6947760Y1988151D01*
Y2011849D01*
X6941626Y2034739D01*
X6929778Y2055261D01*
X6913021Y2072018D01*
X6892499Y2083867D01*
X6869609Y2090000D01*
D02*
G37*
G36*
X4869608D02*
X4845911D01*
X4823021Y2083867D01*
X4802499Y2072018D01*
X4785742Y2055261D01*
X4773893Y2034739D01*
X4767760Y2011849D01*
Y1988151D01*
X4773893Y1965262D01*
X4785742Y1944739D01*
X4802499Y1927982D01*
X4823021Y1916134D01*
X4845911Y1910000D01*
X4869608D01*
X4892498Y1916134D01*
X4913021Y1927982D01*
X4929778Y1944739D01*
X4941626Y1965262D01*
X4947760Y1988151D01*
Y2011849D01*
X4941626Y2034739D01*
X4929778Y2055261D01*
X4913021Y2072018D01*
X4892498Y2083867D01*
X4869608Y2090000D01*
D02*
G37*
G36*
X2869609D02*
X2845912D01*
X2823022Y2083867D01*
X2802499Y2072018D01*
X2785742Y2055261D01*
X2773894Y2034739D01*
X2767760Y2011849D01*
Y1988151D01*
X2773894Y1965262D01*
X2785742Y1944739D01*
X2802499Y1927982D01*
X2823022Y1916134D01*
X2845912Y1910000D01*
X2869609D01*
X2892499Y1916134D01*
X2913021Y1927982D01*
X2929778Y1944739D01*
X2941627Y1965262D01*
X2947760Y1988151D01*
Y2011849D01*
X2941627Y2034739D01*
X2929778Y2055261D01*
X2913021Y2072018D01*
X2892499Y2083867D01*
X2869609Y2090000D01*
D02*
G37*
G36*
X8869609Y1815680D02*
X8845911D01*
X8823021Y1809547D01*
X8802499Y1797698D01*
X8785742Y1780941D01*
X8773894Y1760419D01*
X8767760Y1737529D01*
Y1713831D01*
X8773894Y1690941D01*
X8785742Y1670419D01*
X8802499Y1653662D01*
X8823021Y1641814D01*
X8845911Y1635680D01*
X8869609D01*
X8892499Y1641814D01*
X8913021Y1653662D01*
X8929778Y1670419D01*
X8941627Y1690941D01*
X8947760Y1713831D01*
Y1737529D01*
X8941627Y1760419D01*
X8929778Y1780941D01*
X8913021Y1797698D01*
X8892499Y1809547D01*
X8869609Y1815680D01*
D02*
G37*
G36*
X6869609D02*
X6845911D01*
X6823021Y1809547D01*
X6802499Y1797698D01*
X6785742Y1780941D01*
X6773893Y1760419D01*
X6767760Y1737529D01*
Y1713831D01*
X6773893Y1690941D01*
X6785742Y1670419D01*
X6802499Y1653662D01*
X6823021Y1641814D01*
X6845911Y1635680D01*
X6869609D01*
X6892499Y1641814D01*
X6913021Y1653662D01*
X6929778Y1670419D01*
X6941626Y1690941D01*
X6947760Y1713831D01*
Y1737529D01*
X6941626Y1760419D01*
X6929778Y1780941D01*
X6913021Y1797698D01*
X6892499Y1809547D01*
X6869609Y1815680D01*
D02*
G37*
G36*
X4869608D02*
X4845911D01*
X4823021Y1809547D01*
X4802499Y1797698D01*
X4785742Y1780941D01*
X4773893Y1760419D01*
X4767760Y1737529D01*
Y1713831D01*
X4773893Y1690941D01*
X4785742Y1670419D01*
X4802499Y1653662D01*
X4823021Y1641814D01*
X4845911Y1635680D01*
X4869608D01*
X4892498Y1641814D01*
X4913021Y1653662D01*
X4929778Y1670419D01*
X4941626Y1690941D01*
X4947760Y1713831D01*
Y1737529D01*
X4941626Y1760419D01*
X4929778Y1780941D01*
X4913021Y1797698D01*
X4892498Y1809547D01*
X4869608Y1815680D01*
D02*
G37*
G36*
X2869609D02*
X2845912D01*
X2823022Y1809547D01*
X2802499Y1797698D01*
X2785742Y1780941D01*
X2773894Y1760419D01*
X2767760Y1737529D01*
Y1713831D01*
X2773894Y1690941D01*
X2785742Y1670419D01*
X2802499Y1653662D01*
X2823022Y1641814D01*
X2845912Y1635680D01*
X2869609D01*
X2892499Y1641814D01*
X2913021Y1653662D01*
X2929778Y1670419D01*
X2941627Y1690941D01*
X2947760Y1713831D01*
Y1737529D01*
X2941627Y1760419D01*
X2929778Y1780941D01*
X2913021Y1797698D01*
X2892499Y1809547D01*
X2869609Y1815680D01*
D02*
G37*
%LPD*%
D10*
X8857760Y2548640D02*
D03*
Y2274320D02*
D03*
Y2000000D02*
D03*
Y1725680D02*
D03*
Y1451360D02*
D03*
X9142240Y2411480D02*
D03*
Y2137160D02*
D03*
Y1862840D02*
D03*
Y1588520D02*
D03*
X6857760Y2548640D02*
D03*
Y2274320D02*
D03*
Y2000000D02*
D03*
Y1725680D02*
D03*
Y1451360D02*
D03*
X7142240Y2411480D02*
D03*
Y2137160D02*
D03*
Y1862840D02*
D03*
Y1588520D02*
D03*
X4857760Y2548640D02*
D03*
Y2274320D02*
D03*
Y2000000D02*
D03*
Y1725680D02*
D03*
Y1451360D02*
D03*
X5142240Y2411480D02*
D03*
Y2137160D02*
D03*
Y1862840D02*
D03*
Y1588520D02*
D03*
X2857760Y2548640D02*
D03*
Y2274320D02*
D03*
Y2000000D02*
D03*
Y1725680D02*
D03*
Y1451360D02*
D03*
X3142240Y2411480D02*
D03*
Y2137160D02*
D03*
Y1862840D02*
D03*
Y1588520D02*
D03*
X857760Y2548640D02*
D03*
Y2274320D02*
D03*
Y2000000D02*
D03*
Y1725680D02*
D03*
Y1451360D02*
D03*
X1142240Y2411480D02*
D03*
Y2137160D02*
D03*
Y1862840D02*
D03*
Y1588520D02*
D03*
D11*
X9000000Y3249680D02*
D03*
Y749680D02*
D03*
X7000000Y3249680D02*
D03*
Y749680D02*
D03*
X5000000Y3249680D02*
D03*
Y749680D02*
D03*
X3000000Y3249680D02*
D03*
Y749680D02*
D03*
X1000000Y3249680D02*
D03*
Y749680D02*
D03*
%TF.MD5,365bcaee9c6232f3dc085a771b577115*%
M02*
