%TF.GenerationSoftware,Altium Limited,Altium Designer,21.2.2 (38)*%
G04 Layer_Physical_Order=1*
G04 Layer_Color=255*
%FSLAX45Y45*%
%MOMM*%
%TF.SameCoordinates,908A5498-0BB4-4271-8F68-DE63ACD0DB91*%
%TF.FilePolarity,Positive*%
%TF.FileFunction,Copper,L1,Top,Signal*%
%TF.Part,Single*%
G01*
G75*
%TA.AperFunction,ComponentPad*%
%ADD10C,1.50000*%
%TA.AperFunction,ViaPad*%
%ADD11C,3.70000*%
G36*
X8975000Y2425000D02*
X7231792D01*
X7226106Y2446219D01*
X7214258Y2466741D01*
X7197501Y2483498D01*
X7176979Y2495347D01*
X7154089Y2501480D01*
X7130391D01*
X7107501Y2495347D01*
X7086979Y2483498D01*
X7070222Y2466741D01*
X7058373Y2446219D01*
X7052688Y2425000D01*
X5231792D01*
X5226106Y2446219D01*
X5214258Y2466741D01*
X5197501Y2483498D01*
X5176978Y2495347D01*
X5154088Y2501480D01*
X5130391D01*
X5107501Y2495347D01*
X5086979Y2483498D01*
X5070222Y2466741D01*
X5058373Y2446219D01*
X5052688Y2425000D01*
X3231792D01*
X3226107Y2446219D01*
X3214258Y2466741D01*
X3197501Y2483498D01*
X3176979Y2495347D01*
X3154089Y2501480D01*
X3130392D01*
X3107502Y2495347D01*
X3086979Y2483498D01*
X3070222Y2466741D01*
X3058374Y2446219D01*
X3052688Y2425000D01*
X1231792D01*
X1226107Y2446219D01*
X1214258Y2466741D01*
X1197501Y2483498D01*
X1176979Y2495347D01*
X1154089Y2501480D01*
X1130391D01*
X1107501Y2495347D01*
X1086979Y2483498D01*
X1070222Y2466741D01*
X1058374Y2446219D01*
X1052688Y2425000D01*
X750000D01*
Y2700000D01*
X8975000D01*
Y2425000D01*
D02*
G37*
G36*
Y2150000D02*
X7231974D01*
X7226106Y2171899D01*
X7214258Y2192421D01*
X7197501Y2209178D01*
X7176979Y2221027D01*
X7154089Y2227160D01*
X7130391D01*
X7107501Y2221027D01*
X7086979Y2209178D01*
X7070222Y2192421D01*
X7058373Y2171899D01*
X7052506Y2150000D01*
X5231974D01*
X5226106Y2171899D01*
X5214258Y2192421D01*
X5197501Y2209178D01*
X5176978Y2221027D01*
X5154088Y2227160D01*
X5130391D01*
X5107501Y2221027D01*
X5086979Y2209178D01*
X5070222Y2192421D01*
X5058373Y2171899D01*
X5052506Y2150000D01*
X3231974D01*
X3226107Y2171899D01*
X3214258Y2192421D01*
X3197501Y2209178D01*
X3176979Y2221027D01*
X3154089Y2227160D01*
X3130392D01*
X3107502Y2221027D01*
X3086979Y2209178D01*
X3070222Y2192421D01*
X3058374Y2171899D01*
X3052506Y2150000D01*
X1231974D01*
X1226107Y2171899D01*
X1214258Y2192421D01*
X1197501Y2209178D01*
X1176979Y2221027D01*
X1154089Y2227160D01*
X1130391D01*
X1107501Y2221027D01*
X1086979Y2209178D01*
X1070222Y2192421D01*
X1058374Y2171899D01*
X1052506Y2150000D01*
X750000D01*
Y2400000D01*
X1052240D01*
Y2399631D01*
X1058374Y2376741D01*
X1070222Y2356219D01*
X1086979Y2339462D01*
X1107501Y2327614D01*
X1130391Y2321480D01*
X1154089D01*
X1176979Y2327614D01*
X1197501Y2339462D01*
X1214258Y2356219D01*
X1226107Y2376741D01*
X1232240Y2399631D01*
Y2400000D01*
X3052240D01*
Y2399631D01*
X3058374Y2376741D01*
X3070222Y2356219D01*
X3086979Y2339462D01*
X3107502Y2327614D01*
X3130392Y2321480D01*
X3154089D01*
X3176979Y2327614D01*
X3197501Y2339462D01*
X3214258Y2356219D01*
X3226107Y2376741D01*
X3232240Y2399631D01*
Y2400000D01*
X5052240D01*
Y2399631D01*
X5058373Y2376741D01*
X5070222Y2356219D01*
X5086979Y2339462D01*
X5107501Y2327614D01*
X5130391Y2321480D01*
X5154088D01*
X5176978Y2327614D01*
X5197501Y2339462D01*
X5214258Y2356219D01*
X5226106Y2376741D01*
X5232240Y2399631D01*
Y2400000D01*
X7052240D01*
Y2399631D01*
X7058373Y2376741D01*
X7070222Y2356219D01*
X7086979Y2339462D01*
X7107501Y2327614D01*
X7130391Y2321480D01*
X7154089D01*
X7176979Y2327614D01*
X7197501Y2339462D01*
X7214258Y2356219D01*
X7226106Y2376741D01*
X7232240Y2399631D01*
Y2400000D01*
X8975000D01*
Y2150000D01*
D02*
G37*
G36*
Y1875000D02*
X7232156D01*
X7226106Y1897579D01*
X7214258Y1918101D01*
X7197501Y1934858D01*
X7176979Y1946707D01*
X7154089Y1952840D01*
X7130391D01*
X7107501Y1946707D01*
X7086979Y1934858D01*
X7070222Y1918101D01*
X7058373Y1897579D01*
X7052324Y1875000D01*
X5232156D01*
X5226106Y1897579D01*
X5214258Y1918101D01*
X5197501Y1934858D01*
X5176978Y1946707D01*
X5154088Y1952840D01*
X5130391D01*
X5107501Y1946707D01*
X5086979Y1934858D01*
X5070222Y1918101D01*
X5058373Y1897579D01*
X5052324Y1875000D01*
X3232156D01*
X3226107Y1897579D01*
X3214258Y1918101D01*
X3197501Y1934858D01*
X3176979Y1946707D01*
X3154089Y1952840D01*
X3130392D01*
X3107502Y1946707D01*
X3086979Y1934858D01*
X3070222Y1918101D01*
X3058374Y1897579D01*
X3052324Y1875000D01*
X1232156D01*
X1226107Y1897579D01*
X1214258Y1918101D01*
X1197501Y1934858D01*
X1176979Y1946707D01*
X1154089Y1952840D01*
X1130391D01*
X1107501Y1946707D01*
X1086979Y1934858D01*
X1070222Y1918101D01*
X1058374Y1897579D01*
X1052324Y1875000D01*
X750000D01*
Y2125000D01*
X1052324D01*
X1058374Y2102421D01*
X1070222Y2081899D01*
X1086979Y2065142D01*
X1107501Y2053294D01*
X1130391Y2047160D01*
X1154089D01*
X1176979Y2053294D01*
X1197501Y2065142D01*
X1214258Y2081899D01*
X1226107Y2102421D01*
X1232156Y2125000D01*
X3052324D01*
X3058374Y2102421D01*
X3070222Y2081899D01*
X3086979Y2065142D01*
X3107502Y2053294D01*
X3130392Y2047160D01*
X3154089D01*
X3176979Y2053294D01*
X3197501Y2065142D01*
X3214258Y2081899D01*
X3226107Y2102421D01*
X3232156Y2125000D01*
X5052324D01*
X5058373Y2102421D01*
X5070222Y2081899D01*
X5086979Y2065142D01*
X5107501Y2053294D01*
X5130391Y2047160D01*
X5154088D01*
X5176978Y2053294D01*
X5197501Y2065142D01*
X5214258Y2081899D01*
X5226106Y2102421D01*
X5232156Y2125000D01*
X7052324D01*
X7058373Y2102421D01*
X7070222Y2081899D01*
X7086979Y2065142D01*
X7107501Y2053294D01*
X7130391Y2047160D01*
X7154089D01*
X7176979Y2053294D01*
X7197501Y2065142D01*
X7214258Y2081899D01*
X7226106Y2102421D01*
X7232156Y2125000D01*
X8975000D01*
Y1875000D01*
D02*
G37*
G36*
Y1600000D02*
X7232240D01*
Y1600369D01*
X7226106Y1623259D01*
X7214258Y1643781D01*
X7197501Y1660538D01*
X7176979Y1672387D01*
X7154089Y1678520D01*
X7130391D01*
X7107501Y1672387D01*
X7086979Y1660538D01*
X7070222Y1643781D01*
X7058373Y1623259D01*
X7052240Y1600369D01*
Y1600000D01*
X5232240D01*
Y1600369D01*
X5226106Y1623259D01*
X5214258Y1643781D01*
X5197501Y1660538D01*
X5176978Y1672387D01*
X5154088Y1678520D01*
X5130391D01*
X5107501Y1672387D01*
X5086979Y1660538D01*
X5070222Y1643781D01*
X5058373Y1623259D01*
X5052240Y1600369D01*
Y1600000D01*
X3232240D01*
Y1600369D01*
X3226107Y1623259D01*
X3214258Y1643781D01*
X3197501Y1660538D01*
X3176979Y1672387D01*
X3154089Y1678520D01*
X3130392D01*
X3107502Y1672387D01*
X3086979Y1660538D01*
X3070222Y1643781D01*
X3058374Y1623259D01*
X3052240Y1600369D01*
Y1600000D01*
X1232240D01*
Y1600369D01*
X1226107Y1623259D01*
X1214258Y1643781D01*
X1197501Y1660538D01*
X1176979Y1672387D01*
X1154089Y1678520D01*
X1130391D01*
X1107501Y1672387D01*
X1086979Y1660538D01*
X1070222Y1643781D01*
X1058374Y1623259D01*
X1052240Y1600369D01*
Y1600000D01*
X750000D01*
Y1850000D01*
X1052506D01*
X1058374Y1828102D01*
X1070222Y1807579D01*
X1086979Y1790822D01*
X1107501Y1778974D01*
X1130391Y1772840D01*
X1154089D01*
X1176979Y1778974D01*
X1197501Y1790822D01*
X1214258Y1807579D01*
X1226107Y1828102D01*
X1231974Y1850000D01*
X3052506D01*
X3058374Y1828102D01*
X3070222Y1807579D01*
X3086979Y1790822D01*
X3107502Y1778974D01*
X3130392Y1772840D01*
X3154089D01*
X3176979Y1778974D01*
X3197501Y1790822D01*
X3214258Y1807579D01*
X3226107Y1828102D01*
X3231974Y1850000D01*
X5052506D01*
X5058373Y1828102D01*
X5070222Y1807579D01*
X5086979Y1790822D01*
X5107501Y1778974D01*
X5130391Y1772840D01*
X5154088D01*
X5176978Y1778974D01*
X5197501Y1790822D01*
X5214258Y1807579D01*
X5226106Y1828102D01*
X5231974Y1850000D01*
X7052506D01*
X7058373Y1828102D01*
X7070222Y1807579D01*
X7086979Y1790822D01*
X7107501Y1778974D01*
X7130391Y1772840D01*
X7154089D01*
X7176979Y1778974D01*
X7197501Y1790822D01*
X7214258Y1807579D01*
X7226106Y1828102D01*
X7231974Y1850000D01*
X8975000D01*
Y1600000D01*
D02*
G37*
G36*
Y1325000D02*
X750000D01*
Y1575000D01*
X8975000D01*
Y1325000D01*
D02*
G37*
D10*
X8857760Y2548640D02*
D03*
Y2274320D02*
D03*
Y2000000D02*
D03*
Y1725680D02*
D03*
Y1451360D02*
D03*
X9142240Y2411480D02*
D03*
Y2137160D02*
D03*
Y1862840D02*
D03*
Y1588520D02*
D03*
X6857760Y2548640D02*
D03*
Y2274320D02*
D03*
Y2000000D02*
D03*
Y1725680D02*
D03*
Y1451360D02*
D03*
X7142240Y2411480D02*
D03*
Y2137160D02*
D03*
Y1862840D02*
D03*
Y1588520D02*
D03*
X4857760Y2548640D02*
D03*
Y2274320D02*
D03*
Y2000000D02*
D03*
Y1725680D02*
D03*
Y1451360D02*
D03*
X5142240Y2411480D02*
D03*
Y2137160D02*
D03*
Y1862840D02*
D03*
Y1588520D02*
D03*
X2857760Y2548640D02*
D03*
Y2274320D02*
D03*
Y2000000D02*
D03*
Y1725680D02*
D03*
Y1451360D02*
D03*
X3142240Y2411480D02*
D03*
Y2137160D02*
D03*
Y1862840D02*
D03*
Y1588520D02*
D03*
X857760Y2548640D02*
D03*
Y2274320D02*
D03*
Y2000000D02*
D03*
Y1725680D02*
D03*
Y1451360D02*
D03*
X1142240Y2411480D02*
D03*
Y2137160D02*
D03*
Y1862840D02*
D03*
Y1588520D02*
D03*
D11*
X9000000Y3249680D02*
D03*
Y749680D02*
D03*
X7000000Y3249680D02*
D03*
Y749680D02*
D03*
X5000000Y3249680D02*
D03*
Y749680D02*
D03*
X3000000Y3249680D02*
D03*
Y749680D02*
D03*
X1000000Y3249680D02*
D03*
Y749680D02*
D03*
%TF.MD5,77f0dbacac113bceb4dc546f94c57403*%
M02*
