%TF.GenerationSoftware,Altium Limited,Altium Designer,21.2.2 (38)*%
G04 Layer_Color=255*
%FSLAX45Y45*%
%MOMM*%
%TF.SameCoordinates,908A5498-0BB4-4271-8F68-DE63ACD0DB91*%
%TF.FilePolarity,Positive*%
%TF.FileFunction,Pads,Top*%
%TF.Part,Single*%
G01*
G75*
%TA.AperFunction,ComponentPad*%
%ADD10C,1.50000*%
D10*
X8857760Y2548640D02*
D03*
Y2274320D02*
D03*
Y2000000D02*
D03*
Y1725680D02*
D03*
Y1451360D02*
D03*
X9142240Y2411480D02*
D03*
Y2137160D02*
D03*
Y1862840D02*
D03*
Y1588520D02*
D03*
X6857760Y2548640D02*
D03*
Y2274320D02*
D03*
Y2000000D02*
D03*
Y1725680D02*
D03*
Y1451360D02*
D03*
X7142240Y2411480D02*
D03*
Y2137160D02*
D03*
Y1862840D02*
D03*
Y1588520D02*
D03*
X4857760Y2548640D02*
D03*
Y2274320D02*
D03*
Y2000000D02*
D03*
Y1725680D02*
D03*
Y1451360D02*
D03*
X5142240Y2411480D02*
D03*
Y2137160D02*
D03*
Y1862840D02*
D03*
Y1588520D02*
D03*
X2857760Y2548640D02*
D03*
Y2274320D02*
D03*
Y2000000D02*
D03*
Y1725680D02*
D03*
Y1451360D02*
D03*
X3142240Y2411480D02*
D03*
Y2137160D02*
D03*
Y1862840D02*
D03*
Y1588520D02*
D03*
X857760Y2548640D02*
D03*
Y2274320D02*
D03*
Y2000000D02*
D03*
Y1725680D02*
D03*
Y1451360D02*
D03*
X1142240Y2411480D02*
D03*
Y2137160D02*
D03*
Y1862840D02*
D03*
Y1588520D02*
D03*
%TF.MD5,26775ba48d198bbae498209030a45c8a*%
M02*
