%TF.GenerationSoftware,Altium Limited,Altium Designer,21.2.2 (38)*%
G04 Layer_Color=128*
%FSLAX45Y45*%
%MOMM*%
%TF.SameCoordinates,57803E14-CA50-49E2-8720-A713D117BFB4*%
%TF.FilePolarity,Positive*%
%TF.FileFunction,Drillmap*%
%TF.Part,Single*%
G01*
G75*
%TA.AperFunction,NonConductor*%
%ADD21C,0.12700*%
D21*
X2865000Y372000D02*
X2955000D01*
X2910000Y327000D02*
Y417000D01*
X2865000Y626000D02*
X2955000D01*
X2910000Y581000D02*
Y671000D01*
X2865000Y880000D02*
X2955000D01*
X2910000Y835000D02*
Y925000D01*
X2865000Y1134000D02*
X2955000D01*
X2910000Y1089000D02*
Y1179000D01*
X201000Y646000D02*
X291000D01*
X246000Y601000D02*
Y691000D01*
X201000Y900000D02*
X291000D01*
X246000Y855000D02*
Y945000D01*
X455000Y646000D02*
X545000D01*
X500000Y601000D02*
Y691000D01*
X455000Y900000D02*
X545000D01*
X500000Y855000D02*
Y945000D01*
X1801000Y646000D02*
X1891000D01*
X1846000Y601000D02*
Y691000D01*
X1801000Y900000D02*
X1891000D01*
X1846000Y855000D02*
Y945000D01*
X2055000Y646000D02*
X2145000D01*
X2100000Y601000D02*
Y691000D01*
X2055000Y900000D02*
X2145000D01*
X2100000Y855000D02*
Y945000D01*
%TF.MD5,160dc515742ba42ca81bea625d2d5fbf*%
M02*
