%TF.GenerationSoftware,Altium Limited,Altium Designer,21.2.2 (38)*%
G04 Layer_Physical_Order=2*
G04 Layer_Color=16711680*
%FSLAX45Y45*%
%MOMM*%
%TF.SameCoordinates,57803E14-CA50-49E2-8720-A713D117BFB4*%
%TF.FilePolarity,Positive*%
%TF.FileFunction,Copper,L2,Bot,Signal*%
%TF.Part,Single*%
G01*
G75*
%TA.AperFunction,ComponentPad*%
G04:AMPARAMS|DCode=10|XSize=1.5mm|YSize=5mm|CornerRadius=0.375mm|HoleSize=0mm|Usage=FLASHONLY|Rotation=270.000|XOffset=0mm|YOffset=0mm|HoleType=Round|Shape=RoundedRectangle|*
%AMROUNDEDRECTD10*
21,1,1.50000,4.25000,0,0,270.0*
21,1,0.75000,5.00000,0,0,270.0*
1,1,0.75000,-2.12500,-0.37500*
1,1,0.75000,-2.12500,0.37500*
1,1,0.75000,2.12500,0.37500*
1,1,0.75000,2.12500,-0.37500*
%
%ADD10ROUNDEDRECTD10*%
%ADD11R,5.00000X1.50000*%
%ADD12C,1.50000*%
%ADD13R,1.50000X1.50000*%
G36*
X2974512Y1050000D02*
X2550000D01*
X2350000Y1250000D01*
X1376464D01*
X1376392Y1250071D01*
X1374305Y1251466D01*
X1372530Y1253242D01*
X1344686Y1271846D01*
X1342367Y1272807D01*
X1340280Y1274201D01*
X1309342Y1287016D01*
X1306879Y1287506D01*
X1304560Y1288467D01*
X1271716Y1295000D01*
X1269205D01*
X1266743Y1295490D01*
X1233256D01*
X1230795Y1295000D01*
X1228283D01*
X1195440Y1288467D01*
X1193121Y1287506D01*
X1190659Y1287016D01*
X1159720Y1274201D01*
X1157632Y1272806D01*
X1155313Y1271846D01*
X1127470Y1253242D01*
X1125695Y1251466D01*
X1123607Y1250072D01*
X1099928Y1226393D01*
X1098533Y1224305D01*
X1096758Y1222530D01*
X1078154Y1194686D01*
X1077193Y1192367D01*
X1075799Y1190280D01*
X1065559Y1165559D01*
X680000Y780000D01*
X25488D01*
Y1474512D01*
X2974512D01*
Y1050000D01*
D02*
G37*
G36*
X2538519Y1038519D02*
X2550000Y1033764D01*
X2974512D01*
Y767898D01*
X2452485D01*
X2207240Y1013143D01*
X2195760Y1017898D01*
X1695760D01*
X1684279Y1013143D01*
X1679524Y1001662D01*
Y751662D01*
X1680000Y750512D01*
Y650000D01*
X1530000Y500000D01*
X1418295D01*
X1403242Y522530D01*
X1401466Y524305D01*
X1400072Y526392D01*
X1376392Y550071D01*
X1374305Y551466D01*
X1372530Y553241D01*
X1344686Y571846D01*
X1342367Y572807D01*
X1340280Y574201D01*
X1309342Y587016D01*
X1306879Y587506D01*
X1304560Y588467D01*
X1271716Y595000D01*
X1269205D01*
X1266743Y595490D01*
X1233256D01*
X1230795Y595000D01*
X1228283D01*
X1195440Y588467D01*
X1193121Y587506D01*
X1190659Y587016D01*
X1159720Y574201D01*
X1157632Y572806D01*
X1155313Y571845D01*
X1127470Y553241D01*
X1125695Y551466D01*
X1123607Y550072D01*
X1099928Y526392D01*
X1098533Y524305D01*
X1096758Y522530D01*
X1081704Y500000D01*
X25488D01*
Y763764D01*
X680000D01*
X691480Y768519D01*
X902961Y980000D01*
X1095068D01*
X1096758Y977470D01*
X1098533Y975695D01*
X1099928Y973607D01*
X1123607Y949929D01*
X1125695Y948534D01*
X1127470Y946758D01*
X1155313Y928154D01*
X1157633Y927193D01*
X1159720Y925799D01*
X1190658Y912984D01*
X1193121Y912494D01*
X1195440Y911533D01*
X1228284Y905000D01*
X1230795D01*
X1233256Y904511D01*
X1266743D01*
X1269206Y905000D01*
X1271716D01*
X1304560Y911533D01*
X1306880Y912494D01*
X1309341Y912984D01*
X1340280Y925799D01*
X1342368Y927194D01*
X1344686Y928154D01*
X1372530Y946758D01*
X1374305Y948534D01*
X1376392Y949928D01*
X1400071Y973607D01*
X1401466Y975695D01*
X1403242Y977470D01*
X1421846Y1005313D01*
X1422807Y1007633D01*
X1424201Y1009720D01*
X1437016Y1040658D01*
X1437506Y1043121D01*
X1438467Y1045440D01*
X1445000Y1078284D01*
Y1080795D01*
X1445490Y1083256D01*
Y1100000D01*
Y1116744D01*
X1445000Y1119205D01*
Y1121717D01*
X1441137Y1141137D01*
X1533764Y1233764D01*
X2343275D01*
X2538519Y1038519D01*
D02*
G37*
G36*
X2445760Y751662D02*
X2974512D01*
Y501662D01*
X2445760D01*
X2195760Y751662D01*
X1695760D01*
Y1001662D01*
X2195760D01*
X2445760Y751662D01*
D02*
G37*
G36*
X2434279Y490181D02*
X2445760Y485426D01*
X2974512D01*
Y242024D01*
X1699110D01*
Y735426D01*
X2189034D01*
X2434279Y490181D01*
D02*
G37*
D10*
X2810000Y372000D02*
D03*
Y626000D02*
D03*
Y880000D02*
D03*
D11*
Y1134000D02*
D03*
D12*
X246000Y646000D02*
D03*
Y900000D02*
D03*
X500000Y646000D02*
D03*
X1846000D02*
D03*
Y900000D02*
D03*
X2100000Y646000D02*
D03*
D13*
X500000Y900000D02*
D03*
X2100000D02*
D03*
%TF.MD5,0df384dcdd41cac6a35a9ec98bf04353*%
M02*
