%TF.GenerationSoftware,Altium Limited,Altium Designer,21.2.2 (38)*%
G04 Layer_Color=65535*
%FSLAX45Y45*%
%MOMM*%
%TF.SameCoordinates,57803E14-CA50-49E2-8720-A713D117BFB4*%
%TF.FilePolarity,Positive*%
%TF.FileFunction,Legend,Top*%
%TF.Part,Single*%
G01*
G75*
%TA.AperFunction,NonConductor*%
%ADD14C,0.20000*%
%ADD15C,0.25400*%
G36*
X2463883Y442394D02*
X2465179D01*
X2468698Y442023D01*
X2472586Y441468D01*
X2476660Y440542D01*
X2481104Y439431D01*
X2485177Y437950D01*
X2485363D01*
X2485733Y437764D01*
X2486288Y437394D01*
X2487029Y437024D01*
X2488881Y436098D01*
X2491288Y434431D01*
X2494065Y432580D01*
X2496843Y430173D01*
X2499435Y427395D01*
X2501842Y424247D01*
Y424062D01*
X2502028Y423877D01*
X2502398Y423321D01*
X2502768Y422766D01*
X2503694Y420914D01*
X2504805Y418507D01*
X2506101Y415545D01*
X2507027Y412026D01*
X2507953Y408323D01*
X2508323Y404249D01*
X2492029Y402953D01*
Y403138D01*
Y403509D01*
X2491843Y404064D01*
X2491658Y404990D01*
X2491103Y407027D01*
X2490362Y409804D01*
X2489251Y412767D01*
X2487585Y415730D01*
X2485548Y418507D01*
X2482955Y421099D01*
X2482585Y421285D01*
X2481659Y422025D01*
X2479808Y423136D01*
X2477400Y424247D01*
X2474253Y425358D01*
X2470549Y426469D01*
X2465920Y427210D01*
X2460735Y427395D01*
X2458143D01*
X2457032Y427210D01*
X2455551Y427025D01*
X2452218Y426654D01*
X2448515Y425914D01*
X2444811Y424988D01*
X2441293Y423507D01*
X2439812Y422581D01*
X2438330Y421655D01*
X2437960Y421470D01*
X2437219Y420729D01*
X2436108Y419433D01*
X2434997Y417952D01*
X2433701Y415915D01*
X2432590Y413693D01*
X2431850Y411101D01*
X2431479Y408138D01*
Y407768D01*
Y407027D01*
X2431664Y405731D01*
X2432035Y404249D01*
X2432590Y402398D01*
X2433516Y400546D01*
X2434627Y398694D01*
X2436294Y396843D01*
X2436479Y396658D01*
X2437405Y396102D01*
X2438145Y395547D01*
X2438886Y395176D01*
X2439997Y394621D01*
X2441293Y393880D01*
X2442960Y393325D01*
X2444811Y392584D01*
X2446848Y391843D01*
X2449255Y390917D01*
X2451848Y390177D01*
X2454810Y389251D01*
X2458143Y388510D01*
X2461846Y387584D01*
X2462032D01*
X2462772Y387399D01*
X2463883Y387214D01*
X2465179Y386844D01*
X2466846Y386473D01*
X2468883Y385918D01*
X2470920Y385362D01*
X2473142Y384807D01*
X2477956Y383511D01*
X2482585Y382215D01*
X2484807Y381474D01*
X2486844Y380733D01*
X2488696Y380178D01*
X2490177Y379437D01*
X2490362D01*
X2490732Y379252D01*
X2491288Y378882D01*
X2492029Y378511D01*
X2494065Y377400D01*
X2496473Y375919D01*
X2499250Y373882D01*
X2502028Y371660D01*
X2504620Y369068D01*
X2506842Y366290D01*
X2507027Y365920D01*
X2507768Y364994D01*
X2508508Y363328D01*
X2509619Y361106D01*
X2510545Y358513D01*
X2511471Y355366D01*
X2512026Y351847D01*
X2512212Y348144D01*
Y347959D01*
Y347774D01*
Y347218D01*
Y346478D01*
X2511841Y344441D01*
X2511471Y341848D01*
X2510730Y338886D01*
X2509804Y335738D01*
X2508323Y332405D01*
X2506286Y328887D01*
Y328702D01*
X2506101Y328516D01*
X2505175Y327405D01*
X2503879Y325739D01*
X2502028Y323887D01*
X2499620Y321665D01*
X2496658Y319258D01*
X2493325Y317036D01*
X2489436Y314999D01*
X2489251D01*
X2488881Y314814D01*
X2488325Y314629D01*
X2487585Y314259D01*
X2486474Y313888D01*
X2485177Y313333D01*
X2482215Y312592D01*
X2478697Y311666D01*
X2474438Y310741D01*
X2469809Y310185D01*
X2464809Y310000D01*
X2461846D01*
X2460365Y310185D01*
X2458699D01*
X2456847Y310370D01*
X2454625Y310555D01*
X2449996Y311296D01*
X2445182Y312037D01*
X2440367Y313333D01*
X2435738Y314999D01*
X2435553D01*
X2435183Y315185D01*
X2434627Y315555D01*
X2433886Y315925D01*
X2431664Y317036D01*
X2429072Y318703D01*
X2426109Y320925D01*
X2422962Y323517D01*
X2419999Y326665D01*
X2417221Y330183D01*
Y330368D01*
X2416851Y330738D01*
X2416666Y331294D01*
X2416110Y332035D01*
X2415740Y332960D01*
X2415185Y334071D01*
X2413888Y336849D01*
X2412592Y340367D01*
X2411481Y344256D01*
X2410741Y348700D01*
X2410370Y353329D01*
X2426295Y354810D01*
Y354625D01*
Y354440D01*
X2426480Y353884D01*
Y353144D01*
X2426850Y351477D01*
X2427406Y349070D01*
X2428146Y346663D01*
X2428887Y343885D01*
X2430183Y341293D01*
X2431479Y338886D01*
X2431664Y338701D01*
X2432220Y337960D01*
X2433146Y336664D01*
X2434627Y335368D01*
X2436479Y333701D01*
X2438516Y332035D01*
X2441293Y330368D01*
X2444256Y328887D01*
X2444441D01*
X2444626Y328702D01*
X2445182Y328516D01*
X2445737Y328331D01*
X2447589Y327776D01*
X2449996Y327035D01*
X2452959Y326294D01*
X2456292Y325739D01*
X2459995Y325369D01*
X2464068Y325183D01*
X2465735D01*
X2467587Y325369D01*
X2469809Y325554D01*
X2472401Y325924D01*
X2475364Y326294D01*
X2478326Y327035D01*
X2481104Y327961D01*
X2481474Y328146D01*
X2482400Y328516D01*
X2483696Y329257D01*
X2485363Y329998D01*
X2487029Y331294D01*
X2488881Y332590D01*
X2490732Y334071D01*
X2492214Y335923D01*
X2492399Y336108D01*
X2492769Y336849D01*
X2493325Y337775D01*
X2494065Y339256D01*
X2494806Y340737D01*
X2495362Y342589D01*
X2495732Y344626D01*
X2495917Y346848D01*
Y347033D01*
Y347959D01*
X2495732Y349070D01*
X2495547Y350551D01*
X2494991Y352033D01*
X2494436Y353884D01*
X2493510Y355736D01*
X2492214Y357402D01*
X2492029Y357588D01*
X2491473Y358143D01*
X2490732Y358884D01*
X2489436Y359995D01*
X2487955Y361106D01*
X2485918Y362402D01*
X2483511Y363698D01*
X2480733Y364809D01*
X2480548Y364994D01*
X2479622Y365179D01*
X2478141Y365735D01*
X2477215Y365920D01*
X2475919Y366290D01*
X2474623Y366846D01*
X2472956Y367216D01*
X2471105Y367772D01*
X2468883Y368327D01*
X2466661Y368883D01*
X2464068Y369623D01*
X2461106Y370364D01*
X2457958Y371105D01*
X2457773D01*
X2457217Y371290D01*
X2456292Y371475D01*
X2455181Y371845D01*
X2453699Y372216D01*
X2452033Y372586D01*
X2448329Y373697D01*
X2444256Y374993D01*
X2439997Y376289D01*
X2436294Y377585D01*
X2434627Y378326D01*
X2433146Y379067D01*
X2432961D01*
X2432775Y379252D01*
X2431664Y379993D01*
X2429998Y380918D01*
X2428146Y382400D01*
X2425924Y384066D01*
X2423702Y386103D01*
X2421480Y388510D01*
X2419629Y391103D01*
X2419443Y391473D01*
X2418888Y392399D01*
X2418147Y393880D01*
X2417407Y395732D01*
X2416666Y398139D01*
X2415925Y400916D01*
X2415370Y403879D01*
X2415185Y407027D01*
Y407212D01*
Y407397D01*
Y407953D01*
Y408693D01*
X2415555Y410545D01*
X2415925Y412952D01*
X2416481Y415730D01*
X2417407Y418877D01*
X2418703Y422025D01*
X2420554Y425173D01*
Y425358D01*
X2420740Y425543D01*
X2421665Y426654D01*
X2422962Y428136D01*
X2424628Y429987D01*
X2426850Y432024D01*
X2429628Y434246D01*
X2432961Y436283D01*
X2436664Y438135D01*
X2436849D01*
X2437219Y438320D01*
X2437775Y438505D01*
X2438516Y438875D01*
X2439441Y439246D01*
X2440738Y439616D01*
X2443515Y440357D01*
X2447033Y441097D01*
X2451107Y441838D01*
X2455366Y442394D01*
X2460180Y442579D01*
X2462587D01*
X2463883Y442394D01*
D02*
G37*
G36*
X2355561Y440727D02*
X2357043Y440542D01*
X2358894Y440357D01*
X2360931Y439986D01*
X2362968Y439616D01*
X2367782Y438320D01*
X2372596Y436468D01*
X2375004Y435357D01*
X2377411Y434061D01*
X2379633Y432395D01*
X2381670Y430543D01*
X2381855Y430358D01*
X2382225Y430173D01*
X2382595Y429432D01*
X2383336Y428691D01*
X2384262Y427765D01*
X2385188Y426469D01*
X2386114Y425173D01*
X2387225Y423507D01*
X2389076Y419988D01*
X2390928Y415545D01*
X2391669Y413323D01*
X2392039Y410730D01*
X2392409Y408138D01*
X2392594Y405360D01*
Y404990D01*
Y404064D01*
X2392409Y402583D01*
X2392224Y400546D01*
X2391854Y398324D01*
X2391113Y395732D01*
X2390372Y392954D01*
X2389261Y390177D01*
X2389076Y389806D01*
X2388706Y388881D01*
X2387965Y387399D01*
X2386854Y385362D01*
X2385373Y383140D01*
X2383521Y380363D01*
X2381299Y377585D01*
X2378707Y374438D01*
X2378337Y374067D01*
X2377411Y372956D01*
X2376485Y372030D01*
X2375559Y371105D01*
X2374448Y369994D01*
X2372967Y368512D01*
X2371485Y367031D01*
X2369634Y365365D01*
X2367782Y363513D01*
X2365560Y361476D01*
X2363153Y359439D01*
X2360561Y357032D01*
X2357598Y354625D01*
X2354635Y352033D01*
X2354450Y351847D01*
X2354080Y351477D01*
X2353339Y350922D01*
X2352413Y350181D01*
X2351302Y349070D01*
X2350006Y347959D01*
X2347044Y345552D01*
X2343896Y342774D01*
X2340933Y339997D01*
X2338341Y337590D01*
X2337230Y336664D01*
X2336304Y335738D01*
X2336119Y335553D01*
X2335563Y334997D01*
X2334823Y334257D01*
X2333897Y333146D01*
X2332971Y331849D01*
X2331860Y330553D01*
X2329638Y327405D01*
X2392780D01*
Y312222D01*
X2307788D01*
Y312407D01*
Y313148D01*
Y314259D01*
X2307974Y315740D01*
X2308159Y317407D01*
X2308529Y319258D01*
X2308899Y321110D01*
X2309640Y323147D01*
Y323332D01*
X2309825Y323517D01*
X2310196Y324628D01*
X2310936Y326294D01*
X2312047Y328516D01*
X2313529Y331109D01*
X2315380Y334071D01*
X2317417Y337034D01*
X2320009Y340182D01*
Y340367D01*
X2320380Y340552D01*
X2321305Y341663D01*
X2322972Y343330D01*
X2325379Y345737D01*
X2328157Y348514D01*
X2331675Y351847D01*
X2335934Y355551D01*
X2340563Y359439D01*
X2340748Y359624D01*
X2341489Y360180D01*
X2342600Y361106D01*
X2343896Y362217D01*
X2345562Y363698D01*
X2347599Y365365D01*
X2349636Y367216D01*
X2352043Y369253D01*
X2356672Y373697D01*
X2361301Y378141D01*
X2363523Y380363D01*
X2365560Y382585D01*
X2367412Y384622D01*
X2368893Y386659D01*
Y386844D01*
X2369263Y387029D01*
X2369634Y387584D01*
X2370004Y388325D01*
X2371300Y390362D01*
X2372782Y392769D01*
X2374078Y395732D01*
X2375374Y398880D01*
X2376115Y402398D01*
X2376485Y405731D01*
Y405916D01*
Y406101D01*
X2376300Y407212D01*
X2376115Y409064D01*
X2375559Y411101D01*
X2374818Y413693D01*
X2373522Y416285D01*
X2371856Y418877D01*
X2369634Y421470D01*
X2369263Y421840D01*
X2368338Y422581D01*
X2367041Y423507D01*
X2365005Y424803D01*
X2362412Y425914D01*
X2359450Y427025D01*
X2355932Y427765D01*
X2352043Y427951D01*
X2350932D01*
X2350191Y427765D01*
X2347969Y427580D01*
X2345377Y427025D01*
X2342600Y426284D01*
X2339452Y424988D01*
X2336489Y423321D01*
X2333712Y421099D01*
X2333341Y420729D01*
X2332601Y419803D01*
X2331490Y418322D01*
X2330379Y416100D01*
X2329082Y413508D01*
X2327971Y410175D01*
X2327231Y406471D01*
X2326860Y402213D01*
X2310751Y403879D01*
Y404064D01*
X2310936Y404620D01*
Y405546D01*
X2311121Y406842D01*
X2311492Y408323D01*
X2311862Y409990D01*
X2312418Y412026D01*
X2312973Y414063D01*
X2314454Y418507D01*
X2316676Y422951D01*
X2317973Y425173D01*
X2319639Y427395D01*
X2321305Y429432D01*
X2323157Y431284D01*
X2323342Y431469D01*
X2323713Y431654D01*
X2324268Y432209D01*
X2325194Y432765D01*
X2326305Y433506D01*
X2327601Y434246D01*
X2329082Y435172D01*
X2330934Y436098D01*
X2332971Y437024D01*
X2335193Y437950D01*
X2337600Y438690D01*
X2340192Y439431D01*
X2342970Y439986D01*
X2345933Y440542D01*
X2349080Y440727D01*
X2352413Y440912D01*
X2354265D01*
X2355561Y440727D01*
D02*
G37*
G36*
X2507860Y672951D02*
X2438238D01*
Y633326D01*
X2498417D01*
Y618142D01*
X2438238D01*
Y560000D01*
X2421203D01*
Y688135D01*
X2507860D01*
Y672951D01*
D02*
G37*
G36*
X2359913Y688505D02*
X2361394Y688320D01*
X2363246Y688135D01*
X2365283Y687764D01*
X2367319Y687394D01*
X2372134Y686098D01*
X2376948Y684246D01*
X2379355Y683135D01*
X2381762Y681839D01*
X2383984Y680173D01*
X2386021Y678321D01*
X2386206Y678136D01*
X2386577Y677951D01*
X2386947Y677210D01*
X2387688Y676469D01*
X2388613Y675543D01*
X2389539Y674247D01*
X2390465Y672951D01*
X2391576Y671285D01*
X2393428Y667767D01*
X2395279Y663323D01*
X2396020Y661101D01*
X2396390Y658508D01*
X2396761Y655916D01*
X2396946Y653138D01*
Y652768D01*
Y651842D01*
X2396761Y650361D01*
X2396576Y648324D01*
X2396205Y646102D01*
X2395465Y643510D01*
X2394724Y640732D01*
X2393613Y637955D01*
X2393428Y637584D01*
X2393057Y636659D01*
X2392317Y635177D01*
X2391206Y633140D01*
X2389724Y630918D01*
X2387873Y628141D01*
X2385651Y625363D01*
X2383058Y622216D01*
X2382688Y621845D01*
X2381762Y620734D01*
X2380836Y619809D01*
X2379911Y618883D01*
X2378800Y617772D01*
X2377318Y616290D01*
X2375837Y614809D01*
X2373985Y613143D01*
X2372134Y611291D01*
X2369912Y609254D01*
X2367505Y607217D01*
X2364912Y604810D01*
X2361950Y602403D01*
X2358987Y599811D01*
X2358802Y599625D01*
X2358431Y599255D01*
X2357691Y598700D01*
X2356765Y597959D01*
X2355654Y596848D01*
X2354358Y595737D01*
X2351395Y593330D01*
X2348247Y590552D01*
X2345285Y587775D01*
X2342692Y585368D01*
X2341581Y584442D01*
X2340655Y583516D01*
X2340470Y583331D01*
X2339915Y582775D01*
X2339174Y582035D01*
X2338248Y580924D01*
X2337322Y579627D01*
X2336211Y578331D01*
X2333989Y575184D01*
X2397131D01*
Y560000D01*
X2312140D01*
Y560185D01*
Y560926D01*
Y562037D01*
X2312325Y563518D01*
X2312510Y565185D01*
X2312881Y567036D01*
X2313251Y568888D01*
X2313992Y570925D01*
Y571110D01*
X2314177Y571295D01*
X2314547Y572406D01*
X2315288Y574073D01*
X2316399Y576295D01*
X2317880Y578887D01*
X2319732Y581849D01*
X2321769Y584812D01*
X2324361Y587960D01*
Y588145D01*
X2324731Y588330D01*
X2325657Y589441D01*
X2327324Y591108D01*
X2329731Y593515D01*
X2332508Y596292D01*
X2336026Y599625D01*
X2340285Y603329D01*
X2344914Y607217D01*
X2345099Y607402D01*
X2345840Y607958D01*
X2346951Y608884D01*
X2348247Y609995D01*
X2349914Y611476D01*
X2351951Y613143D01*
X2353987Y614994D01*
X2356395Y617031D01*
X2361024Y621475D01*
X2365653Y625919D01*
X2367875Y628141D01*
X2369912Y630363D01*
X2371763Y632400D01*
X2373245Y634437D01*
Y634622D01*
X2373615Y634807D01*
X2373985Y635362D01*
X2374356Y636103D01*
X2375652Y638140D01*
X2377133Y640547D01*
X2378429Y643510D01*
X2379725Y646658D01*
X2380466Y650176D01*
X2380836Y653509D01*
Y653694D01*
Y653879D01*
X2380651Y654990D01*
X2380466Y656842D01*
X2379911Y658879D01*
X2379170Y661471D01*
X2377874Y664063D01*
X2376207Y666656D01*
X2373985Y669248D01*
X2373615Y669618D01*
X2372689Y670359D01*
X2371393Y671285D01*
X2369356Y672581D01*
X2366764Y673692D01*
X2363801Y674803D01*
X2360283Y675543D01*
X2356395Y675729D01*
X2355284D01*
X2354543Y675543D01*
X2352321Y675358D01*
X2349729Y674803D01*
X2346951Y674062D01*
X2343803Y672766D01*
X2340841Y671099D01*
X2338063Y668878D01*
X2337693Y668507D01*
X2336952Y667581D01*
X2335841Y666100D01*
X2334730Y663878D01*
X2333434Y661286D01*
X2332323Y657953D01*
X2331582Y654249D01*
X2331212Y649991D01*
X2315103Y651657D01*
Y651842D01*
X2315288Y652398D01*
Y653324D01*
X2315473Y654620D01*
X2315843Y656101D01*
X2316214Y657768D01*
X2316769Y659804D01*
X2317325Y661841D01*
X2318806Y666285D01*
X2321028Y670729D01*
X2322324Y672951D01*
X2323991Y675173D01*
X2325657Y677210D01*
X2327509Y679062D01*
X2327694Y679247D01*
X2328064Y679432D01*
X2328620Y679987D01*
X2329546Y680543D01*
X2330657Y681284D01*
X2331953Y682024D01*
X2333434Y682950D01*
X2335286Y683876D01*
X2337322Y684802D01*
X2339544Y685728D01*
X2341952Y686468D01*
X2344544Y687209D01*
X2347321Y687764D01*
X2350284Y688320D01*
X2353432Y688505D01*
X2356765Y688690D01*
X2358617D01*
X2359913Y688505D01*
D02*
G37*
G36*
X2456755Y952394D02*
X2458051D01*
X2461569Y952023D01*
X2465457Y951468D01*
X2469531Y950542D01*
X2473975Y949431D01*
X2478049Y947950D01*
X2478234D01*
X2478604Y947764D01*
X2479160Y947394D01*
X2479900Y947024D01*
X2481752Y946098D01*
X2484159Y944431D01*
X2486937Y942580D01*
X2489714Y940173D01*
X2492306Y937395D01*
X2494714Y934247D01*
Y934062D01*
X2494899Y933877D01*
X2495269Y933321D01*
X2495639Y932766D01*
X2496565Y930914D01*
X2497676Y928507D01*
X2498972Y925545D01*
X2499898Y922026D01*
X2500824Y918323D01*
X2501194Y914249D01*
X2484900Y912953D01*
Y913138D01*
Y913509D01*
X2484715Y914064D01*
X2484529Y914990D01*
X2483974Y917027D01*
X2483233Y919804D01*
X2482122Y922767D01*
X2480456Y925730D01*
X2478419Y928507D01*
X2475827Y931099D01*
X2475456Y931285D01*
X2474530Y932025D01*
X2472679Y933136D01*
X2470272Y934247D01*
X2467124Y935358D01*
X2463421Y936469D01*
X2458791Y937210D01*
X2453607Y937395D01*
X2451014D01*
X2449903Y937210D01*
X2448422Y937025D01*
X2445089Y936654D01*
X2441386Y935914D01*
X2437682Y934988D01*
X2434164Y933507D01*
X2432683Y932581D01*
X2431202Y931655D01*
X2430831Y931470D01*
X2430091Y930729D01*
X2428980Y929433D01*
X2427869Y927952D01*
X2426572Y925915D01*
X2425461Y923693D01*
X2424721Y921101D01*
X2424350Y918138D01*
Y917768D01*
Y917027D01*
X2424536Y915731D01*
X2424906Y914249D01*
X2425461Y912398D01*
X2426387Y910546D01*
X2427498Y908694D01*
X2429165Y906843D01*
X2429350Y906658D01*
X2430276Y906102D01*
X2431016Y905547D01*
X2431757Y905176D01*
X2432868Y904621D01*
X2434164Y903880D01*
X2435831Y903325D01*
X2437682Y902584D01*
X2439719Y901843D01*
X2442126Y900917D01*
X2444719Y900177D01*
X2447681Y899251D01*
X2451014Y898510D01*
X2454718Y897584D01*
X2454903D01*
X2455644Y897399D01*
X2456755Y897214D01*
X2458051Y896844D01*
X2459717Y896473D01*
X2461754Y895918D01*
X2463791Y895362D01*
X2466013Y894807D01*
X2470827Y893511D01*
X2475456Y892215D01*
X2477678Y891474D01*
X2479715Y890733D01*
X2481567Y890178D01*
X2483048Y889437D01*
X2483233D01*
X2483604Y889252D01*
X2484159Y888882D01*
X2484900Y888511D01*
X2486937Y887400D01*
X2489344Y885919D01*
X2492121Y883882D01*
X2494899Y881660D01*
X2497491Y879068D01*
X2499713Y876290D01*
X2499898Y875920D01*
X2500639Y874994D01*
X2501380Y873328D01*
X2502491Y871106D01*
X2503416Y868513D01*
X2504342Y865366D01*
X2504898Y861847D01*
X2505083Y858144D01*
Y857959D01*
Y857774D01*
Y857218D01*
Y856478D01*
X2504713Y854441D01*
X2504342Y851848D01*
X2503602Y848886D01*
X2502676Y845738D01*
X2501194Y842405D01*
X2499158Y838887D01*
Y838702D01*
X2498972Y838516D01*
X2498047Y837405D01*
X2496750Y835739D01*
X2494899Y833887D01*
X2492492Y831665D01*
X2489529Y829258D01*
X2486196Y827036D01*
X2482307Y824999D01*
X2482122D01*
X2481752Y824814D01*
X2481196Y824629D01*
X2480456Y824259D01*
X2479345Y823888D01*
X2478049Y823333D01*
X2475086Y822592D01*
X2471568Y821666D01*
X2467309Y820741D01*
X2462680Y820185D01*
X2457680Y820000D01*
X2454718D01*
X2453236Y820185D01*
X2451570D01*
X2449718Y820370D01*
X2447496Y820555D01*
X2442867Y821296D01*
X2438053Y822037D01*
X2433238Y823333D01*
X2428609Y824999D01*
X2428424D01*
X2428054Y825185D01*
X2427498Y825555D01*
X2426758Y825925D01*
X2424536Y827036D01*
X2421943Y828703D01*
X2418981Y830925D01*
X2415833Y833517D01*
X2412870Y836665D01*
X2410093Y840183D01*
Y840368D01*
X2409722Y840738D01*
X2409537Y841294D01*
X2408982Y842035D01*
X2408611Y842960D01*
X2408056Y844071D01*
X2406760Y846849D01*
X2405464Y850367D01*
X2404353Y854256D01*
X2403612Y858700D01*
X2403242Y863329D01*
X2419166Y864810D01*
Y864625D01*
Y864440D01*
X2419351Y863884D01*
Y863144D01*
X2419721Y861477D01*
X2420277Y859070D01*
X2421018Y856663D01*
X2421758Y853885D01*
X2423054Y851293D01*
X2424350Y848886D01*
X2424536Y848701D01*
X2425091Y847960D01*
X2426017Y846664D01*
X2427498Y845368D01*
X2429350Y843701D01*
X2431387Y842035D01*
X2434164Y840368D01*
X2437127Y838887D01*
X2437312D01*
X2437497Y838702D01*
X2438053Y838516D01*
X2438608Y838331D01*
X2440460Y837776D01*
X2442867Y837035D01*
X2445830Y836294D01*
X2449163Y835739D01*
X2452866Y835369D01*
X2456940Y835183D01*
X2458606D01*
X2460458Y835369D01*
X2462680Y835554D01*
X2465272Y835924D01*
X2468235Y836294D01*
X2471197Y837035D01*
X2473975Y837961D01*
X2474345Y838146D01*
X2475271Y838516D01*
X2476567Y839257D01*
X2478234Y839998D01*
X2479900Y841294D01*
X2481752Y842590D01*
X2483604Y844071D01*
X2485085Y845923D01*
X2485270Y846108D01*
X2485640Y846849D01*
X2486196Y847775D01*
X2486937Y849256D01*
X2487677Y850737D01*
X2488233Y852589D01*
X2488603Y854626D01*
X2488788Y856848D01*
Y857033D01*
Y857959D01*
X2488603Y859070D01*
X2488418Y860551D01*
X2487862Y862033D01*
X2487307Y863884D01*
X2486381Y865736D01*
X2485085Y867402D01*
X2484900Y867588D01*
X2484344Y868143D01*
X2483604Y868884D01*
X2482307Y869995D01*
X2480826Y871106D01*
X2478789Y872402D01*
X2476382Y873698D01*
X2473605Y874809D01*
X2473419Y874994D01*
X2472494Y875179D01*
X2471012Y875735D01*
X2470087Y875920D01*
X2468790Y876290D01*
X2467494Y876846D01*
X2465828Y877216D01*
X2463976Y877772D01*
X2461754Y878327D01*
X2459532Y878883D01*
X2456940Y879623D01*
X2453977Y880364D01*
X2450829Y881105D01*
X2450644D01*
X2450089Y881290D01*
X2449163Y881475D01*
X2448052Y881845D01*
X2446570Y882216D01*
X2444904Y882586D01*
X2441201Y883697D01*
X2437127Y884993D01*
X2432868Y886289D01*
X2429165Y887585D01*
X2427498Y888326D01*
X2426017Y889067D01*
X2425832D01*
X2425647Y889252D01*
X2424536Y889993D01*
X2422869Y890918D01*
X2421018Y892400D01*
X2418796Y894066D01*
X2416574Y896103D01*
X2414352Y898510D01*
X2412500Y901103D01*
X2412315Y901473D01*
X2411759Y902399D01*
X2411019Y903880D01*
X2410278Y905732D01*
X2409537Y908139D01*
X2408797Y910916D01*
X2408241Y913879D01*
X2408056Y917027D01*
Y917212D01*
Y917397D01*
Y917953D01*
Y918693D01*
X2408426Y920545D01*
X2408797Y922952D01*
X2409352Y925730D01*
X2410278Y928877D01*
X2411574Y932025D01*
X2413426Y935173D01*
Y935358D01*
X2413611Y935543D01*
X2414537Y936654D01*
X2415833Y938136D01*
X2417499Y939987D01*
X2419721Y942024D01*
X2422499Y944246D01*
X2425832Y946283D01*
X2429535Y948135D01*
X2429720D01*
X2430091Y948320D01*
X2430646Y948505D01*
X2431387Y948875D01*
X2432313Y949246D01*
X2433609Y949616D01*
X2436386Y950357D01*
X2439904Y951097D01*
X2443978Y951838D01*
X2448237Y952394D01*
X2453051Y952579D01*
X2455458D01*
X2456755Y952394D01*
D02*
G37*
G36*
X2362135Y822222D02*
X2346396D01*
Y922397D01*
X2346210Y922212D01*
X2345285Y921471D01*
X2344174Y920360D01*
X2342322Y919064D01*
X2340285Y917397D01*
X2337693Y915546D01*
X2334730Y913509D01*
X2331397Y911472D01*
X2331212D01*
X2331027Y911287D01*
X2329916Y910546D01*
X2328064Y909620D01*
X2325842Y908509D01*
X2323250Y907213D01*
X2320472Y905917D01*
X2317695Y904621D01*
X2314917Y903510D01*
Y918693D01*
X2315103D01*
X2315473Y919064D01*
X2316214Y919249D01*
X2317139Y919804D01*
X2318250Y920360D01*
X2319547Y921101D01*
X2322694Y922952D01*
X2326398Y924989D01*
X2330101Y927581D01*
X2333989Y930544D01*
X2337878Y933692D01*
X2338063Y933877D01*
X2338248Y934062D01*
X2338804Y934618D01*
X2339544Y935173D01*
X2341211Y937025D01*
X2343433Y939247D01*
X2345655Y941839D01*
X2348062Y944802D01*
X2350099Y947764D01*
X2351951Y950912D01*
X2362135D01*
Y822222D01*
D02*
G37*
G36*
X2500731Y1182951D02*
X2431109D01*
Y1143326D01*
X2491288D01*
Y1128142D01*
X2431109D01*
Y1070000D01*
X2414074D01*
Y1198135D01*
X2500731D01*
Y1182951D01*
D02*
G37*
G36*
X2366486Y1070000D02*
X2350747D01*
Y1170175D01*
X2350562Y1169990D01*
X2349636Y1169249D01*
X2348525Y1168138D01*
X2346673Y1166842D01*
X2344636Y1165175D01*
X2342044Y1163324D01*
X2339081Y1161287D01*
X2335748Y1159250D01*
X2335563D01*
X2335378Y1159065D01*
X2334267Y1158324D01*
X2332415Y1157398D01*
X2330193Y1156287D01*
X2327601Y1154991D01*
X2324824Y1153695D01*
X2322046Y1152399D01*
X2319269Y1151288D01*
Y1166471D01*
X2319454D01*
X2319824Y1166842D01*
X2320565Y1167027D01*
X2321491Y1167582D01*
X2322602Y1168138D01*
X2323898Y1168879D01*
X2327046Y1170730D01*
X2330749Y1172767D01*
X2334452Y1175359D01*
X2338341Y1178322D01*
X2342229Y1181470D01*
X2342414Y1181655D01*
X2342600Y1181840D01*
X2343155Y1182396D01*
X2343896Y1182951D01*
X2345562Y1184803D01*
X2347784Y1187025D01*
X2350006Y1189617D01*
X2352413Y1192580D01*
X2354450Y1195542D01*
X2356302Y1198690D01*
X2366486D01*
Y1070000D01*
D02*
G37*
G36*
X239884Y182748D02*
X240716Y182656D01*
X241733Y182563D01*
X242750Y182471D01*
X243952Y182193D01*
X246448Y181639D01*
X249222Y180807D01*
X250609Y180252D01*
X251903Y179605D01*
X253198Y178773D01*
X254492Y177940D01*
X254584Y177848D01*
X254769Y177756D01*
X255139Y177478D01*
X255601Y177016D01*
X256064Y176554D01*
X256711Y175906D01*
X257358Y175167D01*
X258098Y174427D01*
X258837Y173503D01*
X259577Y172393D01*
X260409Y171284D01*
X261149Y170082D01*
X261796Y168695D01*
X262536Y167308D01*
X263090Y165829D01*
X263645Y164165D01*
X255324Y162223D01*
Y162315D01*
X255232Y162500D01*
X255047Y162870D01*
X254862Y163332D01*
X254677Y163887D01*
X254400Y164627D01*
X253660Y166106D01*
X252735Y167770D01*
X251626Y169435D01*
X250239Y171006D01*
X248760Y172393D01*
X248575Y172578D01*
X248020Y172948D01*
X247096Y173410D01*
X245894Y174057D01*
X244322Y174612D01*
X242565Y175167D01*
X240439Y175537D01*
X238127Y175629D01*
X237388D01*
X236925Y175537D01*
X236278D01*
X235539Y175444D01*
X233782Y175167D01*
X231840Y174797D01*
X229806Y174150D01*
X227680Y173225D01*
X225738Y172023D01*
X225646D01*
X225553Y171838D01*
X224906Y171376D01*
X224074Y170636D01*
X223057Y169527D01*
X221855Y168140D01*
X220746Y166568D01*
X219729Y164627D01*
X218804Y162500D01*
Y162408D01*
X218712Y162223D01*
X218619Y161946D01*
X218527Y161483D01*
X218342Y160929D01*
X218157Y160281D01*
X217879Y158710D01*
X217510Y156860D01*
X217140Y154826D01*
X216955Y152608D01*
X216862Y150204D01*
Y150111D01*
Y149834D01*
Y149372D01*
Y148817D01*
X216955Y148170D01*
Y147338D01*
X217047Y146413D01*
X217140Y145396D01*
X217417Y143177D01*
X217879Y140773D01*
X218434Y138369D01*
X219174Y135965D01*
Y135873D01*
X219266Y135688D01*
X219451Y135411D01*
X219636Y134948D01*
X220191Y133839D01*
X221023Y132545D01*
X222040Y131065D01*
X223334Y129494D01*
X224814Y128107D01*
X226570Y126812D01*
X226663D01*
X226848Y126720D01*
X227125Y126535D01*
X227495Y126350D01*
X227957Y126165D01*
X228512Y125888D01*
X229806Y125333D01*
X231470Y124778D01*
X233320Y124316D01*
X235354Y123946D01*
X237480Y123854D01*
X238127D01*
X238682Y123946D01*
X239329D01*
X239976Y124039D01*
X241641Y124408D01*
X243582Y124871D01*
X245524Y125610D01*
X247558Y126627D01*
X248575Y127182D01*
X249499Y127922D01*
X249592Y128014D01*
X249684Y128107D01*
X249962Y128384D01*
X250331Y128661D01*
X250701Y129124D01*
X251164Y129678D01*
X251718Y130233D01*
X252181Y130973D01*
X252735Y131805D01*
X253383Y132729D01*
X253937Y133654D01*
X254492Y134764D01*
X254954Y135965D01*
X255417Y137260D01*
X255879Y138647D01*
X256249Y140126D01*
X264755Y137999D01*
Y137907D01*
X264662Y137537D01*
X264477Y136982D01*
X264200Y136243D01*
X263923Y135411D01*
X263553Y134394D01*
X263090Y133284D01*
X262536Y132082D01*
X261241Y129494D01*
X259577Y126905D01*
X258560Y125610D01*
X257543Y124316D01*
X256434Y123207D01*
X255139Y122097D01*
X255047Y122005D01*
X254862Y121820D01*
X254400Y121635D01*
X253937Y121265D01*
X253198Y120803D01*
X252458Y120340D01*
X251441Y119878D01*
X250424Y119416D01*
X249222Y118861D01*
X247928Y118399D01*
X246541Y117937D01*
X245061Y117474D01*
X243490Y117104D01*
X241826Y116920D01*
X240069Y116735D01*
X238220Y116642D01*
X237203D01*
X236463Y116735D01*
X235631D01*
X234614Y116827D01*
X233504Y117012D01*
X232210Y117197D01*
X229529Y117659D01*
X226755Y118399D01*
X223982Y119416D01*
X222687Y120063D01*
X221393Y120803D01*
X221300Y120895D01*
X221115Y120988D01*
X220746Y121265D01*
X220376Y121635D01*
X219821Y122005D01*
X219174Y122559D01*
X218434Y123207D01*
X217695Y123946D01*
X216955Y124778D01*
X216123Y125610D01*
X214459Y127737D01*
X212887Y130233D01*
X211500Y133007D01*
Y133099D01*
X211315Y133377D01*
X211223Y133839D01*
X210945Y134394D01*
X210760Y135133D01*
X210483Y136058D01*
X210113Y137075D01*
X209836Y138184D01*
X209558Y139386D01*
X209189Y140773D01*
X208726Y143639D01*
X208356Y146875D01*
X208172Y150204D01*
Y150296D01*
Y150666D01*
Y151221D01*
X208264Y151868D01*
Y152792D01*
X208356Y153717D01*
X208449Y154919D01*
X208634Y156121D01*
X209096Y158802D01*
X209743Y161761D01*
X210668Y164719D01*
X211962Y167585D01*
X212055Y167678D01*
X212147Y167955D01*
X212332Y168325D01*
X212702Y168787D01*
X213072Y169435D01*
X213534Y170174D01*
X214736Y171838D01*
X216308Y173687D01*
X218157Y175537D01*
X220283Y177386D01*
X222780Y178957D01*
X222872Y179050D01*
X223149Y179142D01*
X223519Y179327D01*
X223982Y179605D01*
X224721Y179882D01*
X225461Y180159D01*
X226385Y180529D01*
X227402Y180899D01*
X228512Y181269D01*
X229714Y181639D01*
X232303Y182193D01*
X235261Y182656D01*
X238312Y182841D01*
X239237D01*
X239884Y182748D01*
D02*
G37*
G36*
X396874Y165089D02*
X397891Y164997D01*
X399093Y164812D01*
X400388Y164534D01*
X401774Y164165D01*
X403069Y163610D01*
X403254Y163517D01*
X403624Y163332D01*
X404271Y163055D01*
X405010Y162593D01*
X405935Y162038D01*
X406767Y161298D01*
X407599Y160559D01*
X408339Y159634D01*
X408431Y159542D01*
X408616Y159172D01*
X408894Y158710D01*
X409356Y158062D01*
X409726Y157138D01*
X410095Y156213D01*
X410558Y155104D01*
X410835Y153902D01*
Y153809D01*
X410928Y153440D01*
X411020Y152885D01*
X411112Y152145D01*
Y151036D01*
X411205Y149741D01*
X411297Y148170D01*
Y146228D01*
Y117752D01*
X403439D01*
Y145858D01*
Y145951D01*
Y146043D01*
Y146690D01*
Y147522D01*
X403346Y148539D01*
X403254Y149741D01*
X403069Y150943D01*
X402791Y152053D01*
X402514Y153070D01*
Y153162D01*
X402329Y153440D01*
X402052Y153902D01*
X401774Y154457D01*
X401312Y155011D01*
X400757Y155659D01*
X400018Y156306D01*
X399186Y156860D01*
X399093Y156953D01*
X398816Y157138D01*
X398261Y157323D01*
X397614Y157600D01*
X396874Y157878D01*
X395950Y158155D01*
X394840Y158247D01*
X393731Y158340D01*
X393268D01*
X392899Y158247D01*
X391974Y158155D01*
X390772Y157970D01*
X389478Y157508D01*
X387998Y156953D01*
X386519Y156213D01*
X385132Y155104D01*
X384947Y154919D01*
X384578Y154457D01*
X384300Y154087D01*
X384023Y153625D01*
X383653Y153070D01*
X383376Y152423D01*
X383006Y151683D01*
X382636Y150758D01*
X382359Y149741D01*
X382081Y148632D01*
X381896Y147430D01*
X381711Y146136D01*
X381527Y144564D01*
Y142992D01*
Y117752D01*
X373668D01*
Y164165D01*
X380694D01*
Y157508D01*
X380787Y157600D01*
X380972Y157878D01*
X381249Y158247D01*
X381619Y158710D01*
X382174Y159264D01*
X382821Y159912D01*
X383561Y160651D01*
X384485Y161391D01*
X385410Y162038D01*
X386519Y162778D01*
X387721Y163425D01*
X389015Y163980D01*
X390495Y164442D01*
X391974Y164812D01*
X393638Y165089D01*
X395395Y165182D01*
X396135D01*
X396874Y165089D01*
D02*
G37*
G36*
X347133D02*
X348150Y164997D01*
X349352Y164812D01*
X350646Y164534D01*
X352033Y164165D01*
X353327Y163610D01*
X353512Y163517D01*
X353882Y163332D01*
X354529Y163055D01*
X355269Y162593D01*
X356194Y162038D01*
X357026Y161298D01*
X357858Y160559D01*
X358597Y159634D01*
X358690Y159542D01*
X358875Y159172D01*
X359152Y158710D01*
X359614Y158062D01*
X359984Y157138D01*
X360354Y156213D01*
X360816Y155104D01*
X361094Y153902D01*
Y153809D01*
X361186Y153440D01*
X361279Y152885D01*
X361371Y152145D01*
Y151036D01*
X361464Y149741D01*
X361556Y148170D01*
Y146228D01*
Y117752D01*
X353697D01*
Y145858D01*
Y145951D01*
Y146043D01*
Y146690D01*
Y147522D01*
X353605Y148539D01*
X353512Y149741D01*
X353327Y150943D01*
X353050Y152053D01*
X352773Y153070D01*
Y153162D01*
X352588Y153440D01*
X352310Y153902D01*
X352033Y154457D01*
X351571Y155011D01*
X351016Y155659D01*
X350276Y156306D01*
X349444Y156860D01*
X349352Y156953D01*
X349074Y157138D01*
X348520Y157323D01*
X347873Y157600D01*
X347133Y157878D01*
X346208Y158155D01*
X345099Y158247D01*
X343989Y158340D01*
X343527D01*
X343157Y158247D01*
X342233Y158155D01*
X341031Y157970D01*
X339736Y157508D01*
X338257Y156953D01*
X336778Y156213D01*
X335391Y155104D01*
X335206Y154919D01*
X334836Y154457D01*
X334559Y154087D01*
X334282Y153625D01*
X333912Y153070D01*
X333634Y152423D01*
X333265Y151683D01*
X332895Y150758D01*
X332617Y149741D01*
X332340Y148632D01*
X332155Y147430D01*
X331970Y146136D01*
X331785Y144564D01*
Y142992D01*
Y117752D01*
X323926D01*
Y164165D01*
X330953D01*
Y157508D01*
X331046Y157600D01*
X331230Y157878D01*
X331508Y158247D01*
X331878Y158710D01*
X332432Y159264D01*
X333080Y159912D01*
X333819Y160651D01*
X334744Y161391D01*
X335668Y162038D01*
X336778Y162778D01*
X337980Y163425D01*
X339274Y163980D01*
X340753Y164442D01*
X342233Y164812D01*
X343897Y165089D01*
X345654Y165182D01*
X346393D01*
X347133Y165089D01*
D02*
G37*
G36*
X611002D02*
X612019Y164904D01*
X613221Y164534D01*
X614516Y164072D01*
X615995Y163425D01*
X617567Y162593D01*
X614701Y155381D01*
X614608Y155474D01*
X614238Y155659D01*
X613684Y155936D01*
X612944Y156213D01*
X612112Y156491D01*
X611095Y156768D01*
X610078Y156953D01*
X609061Y157045D01*
X608598D01*
X608136Y156953D01*
X607489Y156860D01*
X606842Y156676D01*
X606010Y156398D01*
X605178Y156028D01*
X604438Y155474D01*
X604346Y155381D01*
X604068Y155196D01*
X603791Y154826D01*
X603328Y154364D01*
X602866Y153717D01*
X602404Y152977D01*
X601942Y152145D01*
X601572Y151128D01*
X601479Y150943D01*
X601387Y150389D01*
X601202Y149556D01*
X600925Y148447D01*
X600647Y147060D01*
X600462Y145488D01*
X600370Y143824D01*
X600277Y141975D01*
Y117752D01*
X592419D01*
Y164165D01*
X599538D01*
Y157138D01*
X599630Y157230D01*
X600000Y157878D01*
X600462Y158710D01*
X601202Y159727D01*
X601942Y160744D01*
X602774Y161853D01*
X603606Y162778D01*
X604438Y163517D01*
X604530Y163610D01*
X604808Y163795D01*
X605363Y164072D01*
X605917Y164349D01*
X606657Y164627D01*
X607581Y164904D01*
X608506Y165089D01*
X609523Y165182D01*
X610170D01*
X611002Y165089D01*
D02*
G37*
G36*
X1039998Y181916D02*
X1041200Y181731D01*
X1042679Y181454D01*
X1044344Y180992D01*
X1046008Y180437D01*
X1047672Y179697D01*
X1047764D01*
X1047857Y179605D01*
X1048412Y179328D01*
X1049244Y178773D01*
X1050168Y178126D01*
X1051278Y177201D01*
X1052387Y176184D01*
X1053497Y174982D01*
X1054421Y173595D01*
X1054514Y173410D01*
X1054791Y172948D01*
X1055161Y172116D01*
X1055623Y171099D01*
X1056086Y169897D01*
X1056455Y168510D01*
X1056733Y166938D01*
X1056825Y165367D01*
Y165182D01*
Y164627D01*
X1056733Y163887D01*
X1056548Y162870D01*
X1056270Y161668D01*
X1055808Y160374D01*
X1055253Y159080D01*
X1054514Y157785D01*
X1054421Y157600D01*
X1054144Y157231D01*
X1053589Y156583D01*
X1052850Y155844D01*
X1051925Y155012D01*
X1050816Y154087D01*
X1049521Y153255D01*
X1047949Y152423D01*
X1048042D01*
X1048227Y152330D01*
X1048504Y152238D01*
X1048874Y152145D01*
X1049891Y151776D01*
X1051185Y151221D01*
X1052665Y150481D01*
X1054144Y149557D01*
X1055531Y148355D01*
X1056825Y146968D01*
X1056918Y146783D01*
X1057287Y146228D01*
X1057842Y145304D01*
X1058397Y144102D01*
X1058952Y142623D01*
X1059506Y140866D01*
X1059876Y138832D01*
X1059969Y136613D01*
Y136520D01*
Y136243D01*
Y135781D01*
X1059876Y135226D01*
X1059784Y134486D01*
X1059599Y133654D01*
X1059414Y132730D01*
X1059229Y131713D01*
X1058489Y129494D01*
X1057935Y128292D01*
X1057380Y127182D01*
X1056640Y125980D01*
X1055808Y124779D01*
X1054884Y123577D01*
X1053774Y122467D01*
X1053682Y122375D01*
X1053497Y122190D01*
X1053127Y121912D01*
X1052665Y121543D01*
X1052110Y121080D01*
X1051370Y120618D01*
X1050538Y120063D01*
X1049521Y119601D01*
X1048504Y119046D01*
X1047302Y118492D01*
X1046100Y118029D01*
X1044713Y117567D01*
X1043234Y117197D01*
X1041662Y116920D01*
X1040091Y116735D01*
X1038334Y116642D01*
X1037502D01*
X1036947Y116735D01*
X1036207Y116827D01*
X1035375Y116920D01*
X1034451Y117105D01*
X1033434Y117290D01*
X1031215Y117844D01*
X1028903Y118769D01*
X1027702Y119324D01*
X1026592Y119971D01*
X1025483Y120803D01*
X1024373Y121635D01*
X1024281Y121727D01*
X1024096Y121912D01*
X1023818Y122190D01*
X1023541Y122560D01*
X1023079Y123022D01*
X1022616Y123669D01*
X1022062Y124316D01*
X1021507Y125148D01*
X1020952Y126073D01*
X1020398Y126997D01*
X1019380Y129216D01*
X1018548Y131805D01*
X1018271Y133192D01*
X1018086Y134671D01*
X1025945Y135688D01*
Y135596D01*
X1026037Y135411D01*
X1026130Y135041D01*
X1026222Y134579D01*
X1026315Y134024D01*
X1026500Y133377D01*
X1026962Y131990D01*
X1027609Y130326D01*
X1028441Y128754D01*
X1029366Y127275D01*
X1030475Y125980D01*
X1030660Y125888D01*
X1031030Y125518D01*
X1031770Y125056D01*
X1032694Y124594D01*
X1033804Y124039D01*
X1035190Y123577D01*
X1036762Y123207D01*
X1038426Y123114D01*
X1038981D01*
X1039351Y123207D01*
X1040368Y123299D01*
X1041662Y123577D01*
X1043142Y124039D01*
X1044713Y124686D01*
X1046285Y125611D01*
X1047764Y126905D01*
X1047949Y127090D01*
X1048412Y127645D01*
X1048966Y128477D01*
X1049706Y129586D01*
X1050446Y130973D01*
X1051000Y132545D01*
X1051463Y134394D01*
X1051648Y136428D01*
Y136520D01*
Y136705D01*
Y136983D01*
X1051555Y137353D01*
X1051463Y138370D01*
X1051185Y139571D01*
X1050816Y141051D01*
X1050168Y142530D01*
X1049244Y144009D01*
X1048042Y145396D01*
X1047857Y145581D01*
X1047395Y145951D01*
X1046655Y146506D01*
X1045638Y147153D01*
X1044344Y147800D01*
X1042772Y148355D01*
X1041015Y148725D01*
X1039074Y148910D01*
X1038242D01*
X1037594Y148817D01*
X1036762Y148725D01*
X1035838Y148540D01*
X1034728Y148355D01*
X1033526Y148077D01*
X1034451Y155012D01*
X1034913D01*
X1035283Y154919D01*
X1036485D01*
X1037502Y155104D01*
X1038704Y155289D01*
X1040091Y155566D01*
X1041662Y156029D01*
X1043142Y156676D01*
X1044713Y157508D01*
X1044806D01*
X1044898Y157600D01*
X1045361Y157970D01*
X1046008Y158617D01*
X1046747Y159450D01*
X1047487Y160651D01*
X1048134Y162038D01*
X1048597Y163610D01*
X1048781Y164535D01*
Y165552D01*
Y165644D01*
Y165737D01*
Y166291D01*
X1048597Y167031D01*
X1048412Y168048D01*
X1048042Y169157D01*
X1047580Y170359D01*
X1046840Y171561D01*
X1045823Y172671D01*
X1045730Y172763D01*
X1045268Y173133D01*
X1044621Y173595D01*
X1043789Y174150D01*
X1042679Y174612D01*
X1041385Y175075D01*
X1039906Y175444D01*
X1038242Y175537D01*
X1037502D01*
X1036670Y175352D01*
X1035560Y175167D01*
X1034358Y174797D01*
X1033156Y174335D01*
X1031862Y173595D01*
X1030660Y172671D01*
X1030568Y172578D01*
X1030198Y172116D01*
X1029643Y171469D01*
X1028996Y170544D01*
X1028349Y169342D01*
X1027702Y167863D01*
X1027147Y166106D01*
X1026777Y164072D01*
X1018918Y165459D01*
Y165552D01*
X1019011Y165829D01*
X1019103Y166199D01*
X1019196Y166754D01*
X1019380Y167401D01*
X1019658Y168140D01*
X1020213Y169897D01*
X1021137Y171931D01*
X1022247Y173965D01*
X1023633Y175907D01*
X1025390Y177663D01*
X1025483Y177756D01*
X1025667Y177848D01*
X1025945Y178033D01*
X1026315Y178311D01*
X1026777Y178680D01*
X1027424Y179050D01*
X1028071Y179420D01*
X1028903Y179882D01*
X1030753Y180622D01*
X1032879Y181362D01*
X1035375Y181824D01*
X1036670Y182009D01*
X1038981D01*
X1039998Y181916D01*
D02*
G37*
G36*
X965386D02*
X966588Y181731D01*
X968067Y181454D01*
X969732Y180992D01*
X971396Y180437D01*
X973060Y179697D01*
X973152D01*
X973245Y179605D01*
X973800Y179328D01*
X974632Y178773D01*
X975556Y178126D01*
X976666Y177201D01*
X977775Y176184D01*
X978885Y174982D01*
X979809Y173595D01*
X979902Y173410D01*
X980179Y172948D01*
X980549Y172116D01*
X981011Y171099D01*
X981474Y169897D01*
X981843Y168510D01*
X982121Y166938D01*
X982213Y165367D01*
Y165182D01*
Y164627D01*
X982121Y163887D01*
X981936Y162870D01*
X981658Y161668D01*
X981196Y160374D01*
X980641Y159080D01*
X979902Y157785D01*
X979809Y157600D01*
X979532Y157231D01*
X978977Y156583D01*
X978238Y155844D01*
X977313Y155012D01*
X976204Y154087D01*
X974909Y153255D01*
X973337Y152423D01*
X973430D01*
X973615Y152330D01*
X973892Y152238D01*
X974262Y152145D01*
X975279Y151776D01*
X976573Y151221D01*
X978053Y150481D01*
X979532Y149557D01*
X980919Y148355D01*
X982213Y146968D01*
X982306Y146783D01*
X982675Y146228D01*
X983230Y145304D01*
X983785Y144102D01*
X984340Y142623D01*
X984894Y140866D01*
X985264Y138832D01*
X985357Y136613D01*
Y136520D01*
Y136243D01*
Y135781D01*
X985264Y135226D01*
X985172Y134486D01*
X984987Y133654D01*
X984802Y132730D01*
X984617Y131713D01*
X983877Y129494D01*
X983323Y128292D01*
X982768Y127182D01*
X982028Y125980D01*
X981196Y124779D01*
X980272Y123577D01*
X979162Y122467D01*
X979070Y122375D01*
X978885Y122190D01*
X978515Y121912D01*
X978053Y121543D01*
X977498Y121080D01*
X976758Y120618D01*
X975926Y120063D01*
X974909Y119601D01*
X973892Y119046D01*
X972690Y118492D01*
X971488Y118029D01*
X970101Y117567D01*
X968622Y117197D01*
X967050Y116920D01*
X965479Y116735D01*
X963722Y116642D01*
X962890D01*
X962335Y116735D01*
X961595Y116827D01*
X960763Y116920D01*
X959839Y117105D01*
X958822Y117290D01*
X956603Y117844D01*
X954291Y118769D01*
X953090Y119324D01*
X951980Y119971D01*
X950871Y120803D01*
X949761Y121635D01*
X949669Y121727D01*
X949484Y121912D01*
X949206Y122190D01*
X948929Y122560D01*
X948467Y123022D01*
X948004Y123669D01*
X947450Y124316D01*
X946895Y125148D01*
X946340Y126073D01*
X945786Y126997D01*
X944768Y129216D01*
X943936Y131805D01*
X943659Y133192D01*
X943474Y134671D01*
X951333Y135688D01*
Y135596D01*
X951425Y135411D01*
X951518Y135041D01*
X951610Y134579D01*
X951703Y134024D01*
X951888Y133377D01*
X952350Y131990D01*
X952997Y130326D01*
X953829Y128754D01*
X954754Y127275D01*
X955863Y125980D01*
X956048Y125888D01*
X956418Y125518D01*
X957158Y125056D01*
X958082Y124594D01*
X959192Y124039D01*
X960578Y123577D01*
X962150Y123207D01*
X963814Y123114D01*
X964369D01*
X964739Y123207D01*
X965756Y123299D01*
X967050Y123577D01*
X968530Y124039D01*
X970101Y124686D01*
X971673Y125611D01*
X973152Y126905D01*
X973337Y127090D01*
X973800Y127645D01*
X974354Y128477D01*
X975094Y129586D01*
X975834Y130973D01*
X976388Y132545D01*
X976851Y134394D01*
X977036Y136428D01*
Y136520D01*
Y136705D01*
Y136983D01*
X976943Y137353D01*
X976851Y138370D01*
X976573Y139571D01*
X976204Y141051D01*
X975556Y142530D01*
X974632Y144009D01*
X973430Y145396D01*
X973245Y145581D01*
X972783Y145951D01*
X972043Y146506D01*
X971026Y147153D01*
X969732Y147800D01*
X968160Y148355D01*
X966403Y148725D01*
X964462Y148910D01*
X963630D01*
X962982Y148817D01*
X962150Y148725D01*
X961226Y148540D01*
X960116Y148355D01*
X958914Y148077D01*
X959839Y155012D01*
X960301D01*
X960671Y154919D01*
X961873D01*
X962890Y155104D01*
X964092Y155289D01*
X965479Y155566D01*
X967050Y156029D01*
X968530Y156676D01*
X970101Y157508D01*
X970194D01*
X970286Y157600D01*
X970749Y157970D01*
X971396Y158617D01*
X972135Y159450D01*
X972875Y160651D01*
X973522Y162038D01*
X973985Y163610D01*
X974170Y164535D01*
Y165552D01*
Y165644D01*
Y165737D01*
Y166291D01*
X973985Y167031D01*
X973800Y168048D01*
X973430Y169157D01*
X972968Y170359D01*
X972228Y171561D01*
X971211Y172671D01*
X971118Y172763D01*
X970656Y173133D01*
X970009Y173595D01*
X969177Y174150D01*
X968067Y174612D01*
X966773Y175075D01*
X965294Y175444D01*
X963630Y175537D01*
X962890D01*
X962058Y175352D01*
X960948Y175167D01*
X959746Y174797D01*
X958544Y174335D01*
X957250Y173595D01*
X956048Y172671D01*
X955956Y172578D01*
X955586Y172116D01*
X955031Y171469D01*
X954384Y170544D01*
X953737Y169342D01*
X953090Y167863D01*
X952535Y166106D01*
X952165Y164072D01*
X944306Y165459D01*
Y165552D01*
X944399Y165829D01*
X944491Y166199D01*
X944584Y166754D01*
X944768Y167401D01*
X945046Y168140D01*
X945601Y169897D01*
X946525Y171931D01*
X947635Y173965D01*
X949021Y175907D01*
X950778Y177663D01*
X950871Y177756D01*
X951056Y177848D01*
X951333Y178033D01*
X951703Y178311D01*
X952165Y178680D01*
X952812Y179050D01*
X953459Y179420D01*
X954291Y179882D01*
X956141Y180622D01*
X958267Y181362D01*
X960763Y181824D01*
X962058Y182009D01*
X964369D01*
X965386Y181916D01*
D02*
G37*
G36*
X493213Y165089D02*
X493768D01*
X494508Y164997D01*
X496264Y164719D01*
X498206Y164257D01*
X500240Y163517D01*
X502274Y162593D01*
X504216Y161298D01*
X504308D01*
X504401Y161113D01*
X504955Y160559D01*
X505787Y159727D01*
X506804Y158525D01*
X507821Y157045D01*
X508838Y155196D01*
X509763Y153070D01*
X510410Y150573D01*
X502736Y149372D01*
Y149464D01*
X502644Y149556D01*
X502551Y150111D01*
X502274Y150943D01*
X501812Y151960D01*
X501350Y153070D01*
X500610Y154272D01*
X499778Y155381D01*
X498853Y156306D01*
X498761Y156398D01*
X498391Y156676D01*
X497744Y157045D01*
X497004Y157508D01*
X495987Y157970D01*
X494878Y158340D01*
X493583Y158617D01*
X492196Y158710D01*
X491642D01*
X491179Y158617D01*
X490162Y158525D01*
X488776Y158155D01*
X487296Y157693D01*
X485632Y156953D01*
X484060Y155843D01*
X483321Y155196D01*
X482581Y154457D01*
Y154364D01*
X482396Y154272D01*
X482211Y153994D01*
X482026Y153625D01*
X481749Y153162D01*
X481379Y152608D01*
X481102Y151960D01*
X480732Y151221D01*
X480362Y150296D01*
X480085Y149279D01*
X479715Y148170D01*
X479437Y146968D01*
X479253Y145673D01*
X479068Y144194D01*
X478883Y142622D01*
Y140958D01*
Y140866D01*
Y140588D01*
Y140034D01*
X478975Y139479D01*
Y138647D01*
X479068Y137815D01*
X479345Y135781D01*
X479715Y133562D01*
X480362Y131250D01*
X481194Y129216D01*
X481749Y128199D01*
X482396Y127367D01*
X482581Y127182D01*
X483043Y126720D01*
X483875Y126073D01*
X484892Y125333D01*
X486279Y124501D01*
X487851Y123854D01*
X489700Y123391D01*
X490717Y123299D01*
X491734Y123207D01*
X491919D01*
X492474Y123299D01*
X493398Y123391D01*
X494415Y123576D01*
X495617Y123854D01*
X496912Y124408D01*
X498206Y125056D01*
X499408Y125980D01*
X499593Y126073D01*
X499870Y126535D01*
X500425Y127182D01*
X501072Y128199D01*
X501719Y129401D01*
X502459Y130880D01*
X503014Y132729D01*
X503384Y134764D01*
X511150Y133746D01*
Y133654D01*
X511057Y133377D01*
X510965Y133007D01*
X510872Y132452D01*
X510688Y131712D01*
X510503Y130973D01*
X509855Y129124D01*
X509023Y127182D01*
X507821Y125056D01*
X506342Y123022D01*
X505510Y122097D01*
X504585Y121172D01*
X504493Y121080D01*
X504308Y120988D01*
X504031Y120803D01*
X503661Y120525D01*
X503199Y120155D01*
X502551Y119786D01*
X501812Y119416D01*
X501072Y118954D01*
X499223Y118121D01*
X497004Y117474D01*
X494600Y116920D01*
X493213Y116827D01*
X491827Y116735D01*
X490902D01*
X490255Y116827D01*
X489423Y116920D01*
X488498Y117104D01*
X487481Y117289D01*
X486372Y117474D01*
X483875Y118214D01*
X482673Y118769D01*
X481379Y119323D01*
X480085Y120063D01*
X478883Y120895D01*
X477681Y121820D01*
X476571Y122929D01*
X476479Y123022D01*
X476294Y123207D01*
X476017Y123576D01*
X475647Y124039D01*
X475277Y124686D01*
X474722Y125518D01*
X474260Y126442D01*
X473705Y127459D01*
X473150Y128661D01*
X472688Y130048D01*
X472133Y131435D01*
X471764Y133099D01*
X471394Y134764D01*
X471116Y136705D01*
X470931Y138647D01*
X470839Y140773D01*
Y140866D01*
Y141143D01*
Y141513D01*
Y142068D01*
X470931Y142715D01*
Y143454D01*
X471024Y144286D01*
X471116Y145211D01*
X471394Y147245D01*
X471856Y149464D01*
X472411Y151683D01*
X473243Y153902D01*
Y153994D01*
X473335Y154179D01*
X473520Y154457D01*
X473705Y154826D01*
X474260Y155843D01*
X475092Y157045D01*
X476201Y158432D01*
X477496Y159819D01*
X479068Y161206D01*
X480824Y162315D01*
X480917D01*
X481102Y162408D01*
X481379Y162593D01*
X481749Y162778D01*
X482211Y162963D01*
X482766Y163240D01*
X484153Y163795D01*
X485724Y164257D01*
X487666Y164719D01*
X489700Y165089D01*
X491919Y165182D01*
X492659D01*
X493213Y165089D01*
D02*
G37*
G36*
X153160Y117752D02*
X144284D01*
X119506Y181731D01*
X128752D01*
X145394Y135226D01*
Y135133D01*
X145486Y134948D01*
X145579Y134671D01*
X145764Y134301D01*
X145856Y133746D01*
X146041Y133192D01*
X146503Y131805D01*
X147058Y130233D01*
X147613Y128477D01*
X148722Y124778D01*
Y124871D01*
X148815Y125056D01*
X148907Y125333D01*
X149000Y125703D01*
X149277Y126720D01*
X149739Y128107D01*
X150202Y129678D01*
X150756Y131435D01*
X151404Y133284D01*
X152143Y135226D01*
X169525Y181731D01*
X178123D01*
X153160Y117752D01*
D02*
G37*
G36*
X1097321Y117752D02*
X1089462D01*
Y167771D01*
X1089370Y167678D01*
X1088907Y167308D01*
X1088353Y166754D01*
X1087428Y166106D01*
X1086411Y165274D01*
X1085117Y164350D01*
X1083637Y163333D01*
X1081973Y162316D01*
X1081881D01*
X1081788Y162223D01*
X1081234Y161853D01*
X1080309Y161391D01*
X1079200Y160836D01*
X1077905Y160189D01*
X1076518Y159542D01*
X1075131Y158895D01*
X1073745Y158340D01*
Y165921D01*
X1073837D01*
X1074022Y166106D01*
X1074392Y166199D01*
X1074854Y166476D01*
X1075409Y166754D01*
X1076056Y167123D01*
X1077628Y168048D01*
X1079477Y169065D01*
X1081326Y170359D01*
X1083268Y171839D01*
X1085209Y173410D01*
X1085302Y173503D01*
X1085394Y173595D01*
X1085671Y173873D01*
X1086041Y174150D01*
X1086873Y175075D01*
X1087983Y176184D01*
X1089092Y177478D01*
X1090294Y178958D01*
X1091311Y180437D01*
X1092236Y182009D01*
X1097321D01*
Y117752D01*
D02*
G37*
G36*
X848614D02*
X840755D01*
Y167771D01*
X840663Y167678D01*
X840201Y167308D01*
X839646Y166754D01*
X838721Y166106D01*
X837704Y165274D01*
X836410Y164350D01*
X834931Y163333D01*
X833267Y162316D01*
X833174D01*
X833082Y162223D01*
X832527Y161853D01*
X831602Y161391D01*
X830493Y160836D01*
X829198Y160189D01*
X827812Y159542D01*
X826425Y158895D01*
X825038Y158340D01*
Y165921D01*
X825130D01*
X825315Y166106D01*
X825685Y166199D01*
X826147Y166476D01*
X826702Y166753D01*
X827349Y167123D01*
X828921Y168048D01*
X830770Y169065D01*
X832619Y170359D01*
X834561Y171839D01*
X836503Y173410D01*
X836595Y173503D01*
X836687Y173595D01*
X836965Y173873D01*
X837335Y174150D01*
X838167Y175075D01*
X839276Y176184D01*
X840386Y177478D01*
X841588Y178958D01*
X842605Y180437D01*
X843529Y182009D01*
X848614D01*
Y117752D01*
D02*
G37*
G36*
X792031Y181916D02*
X792771Y181824D01*
X793695Y181731D01*
X794712Y181546D01*
X795729Y181361D01*
X798133Y180714D01*
X800537Y179790D01*
X801739Y179235D01*
X802941Y178588D01*
X804050Y177756D01*
X805067Y176831D01*
X805160Y176739D01*
X805345Y176646D01*
X805530Y176276D01*
X805900Y175906D01*
X806362Y175444D01*
X806824Y174797D01*
X807286Y174150D01*
X807841Y173318D01*
X808766Y171561D01*
X809690Y169342D01*
X810060Y168233D01*
X810245Y166938D01*
X810430Y165644D01*
X810522Y164257D01*
Y164072D01*
Y163610D01*
X810430Y162870D01*
X810337Y161853D01*
X810153Y160744D01*
X809783Y159449D01*
X809413Y158062D01*
X808858Y156676D01*
X808766Y156491D01*
X808581Y156028D01*
X808211Y155289D01*
X807656Y154272D01*
X806917Y153162D01*
X805992Y151775D01*
X804883Y150389D01*
X803588Y148817D01*
X803403Y148632D01*
X802941Y148077D01*
X802479Y147615D01*
X802016Y147153D01*
X801462Y146598D01*
X800722Y145858D01*
X799982Y145119D01*
X799058Y144286D01*
X798133Y143362D01*
X797024Y142345D01*
X795822Y141328D01*
X794527Y140126D01*
X793048Y138924D01*
X791569Y137630D01*
X791476Y137537D01*
X791292Y137352D01*
X790922Y137075D01*
X790459Y136705D01*
X789905Y136150D01*
X789258Y135596D01*
X787778Y134394D01*
X786206Y133007D01*
X784727Y131620D01*
X783433Y130418D01*
X782878Y129956D01*
X782416Y129494D01*
X782323Y129401D01*
X782046Y129124D01*
X781676Y128754D01*
X781214Y128199D01*
X780752Y127552D01*
X780197Y126905D01*
X779087Y125333D01*
X810615D01*
Y117752D01*
X768178D01*
Y117844D01*
Y118214D01*
Y118769D01*
X768270Y119508D01*
X768362Y120340D01*
X768547Y121265D01*
X768732Y122189D01*
X769102Y123207D01*
Y123299D01*
X769195Y123391D01*
X769379Y123946D01*
X769749Y124778D01*
X770304Y125888D01*
X771044Y127182D01*
X771968Y128661D01*
X772985Y130141D01*
X774280Y131712D01*
Y131805D01*
X774465Y131897D01*
X774927Y132452D01*
X775759Y133284D01*
X776961Y134486D01*
X778348Y135873D01*
X780104Y137537D01*
X782231Y139386D01*
X784542Y141328D01*
X784635Y141420D01*
X785005Y141698D01*
X785559Y142160D01*
X786206Y142715D01*
X787039Y143454D01*
X788056Y144286D01*
X789073Y145211D01*
X790275Y146228D01*
X792586Y148447D01*
X794897Y150666D01*
X796007Y151775D01*
X797024Y152885D01*
X797948Y153902D01*
X798688Y154919D01*
Y155011D01*
X798873Y155104D01*
X799058Y155381D01*
X799243Y155751D01*
X799890Y156768D01*
X800630Y157970D01*
X801277Y159449D01*
X801924Y161021D01*
X802294Y162778D01*
X802479Y164442D01*
Y164534D01*
Y164627D01*
X802386Y165182D01*
X802294Y166106D01*
X802016Y167123D01*
X801647Y168417D01*
X800999Y169712D01*
X800167Y171006D01*
X799058Y172301D01*
X798873Y172486D01*
X798411Y172855D01*
X797763Y173318D01*
X796746Y173965D01*
X795452Y174520D01*
X793973Y175074D01*
X792216Y175444D01*
X790275Y175537D01*
X789720D01*
X789350Y175444D01*
X788240Y175352D01*
X786946Y175074D01*
X785559Y174705D01*
X783988Y174057D01*
X782508Y173225D01*
X781121Y172116D01*
X780936Y171931D01*
X780567Y171469D01*
X780012Y170729D01*
X779457Y169619D01*
X778810Y168325D01*
X778255Y166661D01*
X777885Y164812D01*
X777701Y162685D01*
X769657Y163517D01*
Y163610D01*
X769749Y163887D01*
Y164349D01*
X769842Y164997D01*
X770027Y165736D01*
X770212Y166568D01*
X770489Y167585D01*
X770766Y168602D01*
X771506Y170821D01*
X772615Y173040D01*
X773263Y174150D01*
X774095Y175259D01*
X774927Y176276D01*
X775851Y177201D01*
X775944Y177293D01*
X776129Y177386D01*
X776406Y177663D01*
X776868Y177940D01*
X777423Y178310D01*
X778070Y178680D01*
X778810Y179142D01*
X779735Y179605D01*
X780752Y180067D01*
X781861Y180529D01*
X783063Y180899D01*
X784357Y181269D01*
X785744Y181546D01*
X787223Y181824D01*
X788795Y181916D01*
X790459Y182009D01*
X791384D01*
X792031Y181916D01*
D02*
G37*
G36*
X692549D02*
X693288Y181824D01*
X694213Y181731D01*
X695230Y181546D01*
X696247Y181361D01*
X698651Y180714D01*
X701054Y179790D01*
X702256Y179235D01*
X703458Y178588D01*
X704568Y177756D01*
X705585Y176831D01*
X705677Y176739D01*
X705862Y176646D01*
X706047Y176276D01*
X706417Y175906D01*
X706879Y175444D01*
X707341Y174797D01*
X707804Y174150D01*
X708359Y173318D01*
X709283Y171561D01*
X710208Y169342D01*
X710577Y168233D01*
X710762Y166938D01*
X710947Y165644D01*
X711040Y164257D01*
Y164072D01*
Y163610D01*
X710947Y162870D01*
X710855Y161853D01*
X710670Y160744D01*
X710300Y159449D01*
X709930Y158062D01*
X709376Y156676D01*
X709283Y156491D01*
X709098Y156028D01*
X708728Y155289D01*
X708174Y154272D01*
X707434Y153162D01*
X706509Y151775D01*
X705400Y150389D01*
X704106Y148817D01*
X703921Y148632D01*
X703458Y148077D01*
X702996Y147615D01*
X702534Y147153D01*
X701979Y146598D01*
X701239Y145858D01*
X700500Y145119D01*
X699575Y144286D01*
X698651Y143362D01*
X697541Y142345D01*
X696339Y141328D01*
X695045Y140126D01*
X693566Y138924D01*
X692086Y137630D01*
X691994Y137537D01*
X691809Y137352D01*
X691439Y137075D01*
X690977Y136705D01*
X690422Y136150D01*
X689775Y135596D01*
X688296Y134394D01*
X686724Y133007D01*
X685245Y131620D01*
X683950Y130418D01*
X683395Y129956D01*
X682933Y129494D01*
X682841Y129401D01*
X682563Y129124D01*
X682193Y128754D01*
X681731Y128199D01*
X681269Y127552D01*
X680714Y126905D01*
X679605Y125333D01*
X711132D01*
Y117752D01*
X668695D01*
Y117844D01*
Y118214D01*
Y118769D01*
X668787Y119508D01*
X668880Y120340D01*
X669065Y121265D01*
X669250Y122189D01*
X669619Y123207D01*
Y123299D01*
X669712Y123391D01*
X669897Y123946D01*
X670267Y124778D01*
X670821Y125888D01*
X671561Y127182D01*
X672486Y128661D01*
X673503Y130141D01*
X674797Y131712D01*
Y131805D01*
X674982Y131897D01*
X675444Y132452D01*
X676276Y133284D01*
X677478Y134486D01*
X678865Y135873D01*
X680622Y137537D01*
X682748Y139386D01*
X685060Y141328D01*
X685152Y141420D01*
X685522Y141698D01*
X686077Y142160D01*
X686724Y142715D01*
X687556Y143454D01*
X688573Y144286D01*
X689590Y145211D01*
X690792Y146228D01*
X693103Y148447D01*
X695415Y150666D01*
X696524Y151775D01*
X697541Y152885D01*
X698466Y153902D01*
X699205Y154919D01*
Y155011D01*
X699390Y155104D01*
X699575Y155381D01*
X699760Y155751D01*
X700407Y156768D01*
X701147Y157970D01*
X701794Y159449D01*
X702441Y161021D01*
X702811Y162778D01*
X702996Y164442D01*
Y164534D01*
Y164627D01*
X702904Y165182D01*
X702811Y166106D01*
X702534Y167123D01*
X702164Y168417D01*
X701517Y169712D01*
X700685Y171006D01*
X699575Y172301D01*
X699390Y172486D01*
X698928Y172855D01*
X698281Y173318D01*
X697264Y173965D01*
X695969Y174520D01*
X694490Y175074D01*
X692733Y175444D01*
X690792Y175537D01*
X690237D01*
X689867Y175444D01*
X688758Y175352D01*
X687463Y175074D01*
X686077Y174705D01*
X684505Y174057D01*
X683026Y173225D01*
X681639Y172116D01*
X681454Y171931D01*
X681084Y171469D01*
X680529Y170729D01*
X679975Y169619D01*
X679327Y168325D01*
X678773Y166661D01*
X678403Y164812D01*
X678218Y162685D01*
X670174Y163517D01*
Y163610D01*
X670267Y163887D01*
Y164349D01*
X670359Y164997D01*
X670544Y165736D01*
X670729Y166568D01*
X671006Y167585D01*
X671284Y168602D01*
X672023Y170821D01*
X673133Y173040D01*
X673780Y174150D01*
X674612Y175259D01*
X675444Y176276D01*
X676369Y177201D01*
X676461Y177293D01*
X676646Y177386D01*
X676923Y177663D01*
X677386Y177940D01*
X677940Y178310D01*
X678588Y178680D01*
X679327Y179142D01*
X680252Y179605D01*
X681269Y180067D01*
X682378Y180529D01*
X683580Y180899D01*
X684875Y181269D01*
X686262Y181546D01*
X687741Y181824D01*
X689313Y181916D01*
X690977Y182009D01*
X691901D01*
X692549Y181916D01*
D02*
G37*
G36*
X111185Y117752D02*
X102679D01*
Y181731D01*
X111185D01*
Y117752D01*
D02*
G37*
G36*
X527052Y164165D02*
X535004D01*
Y158062D01*
X527052D01*
Y130788D01*
Y130603D01*
Y130233D01*
Y129678D01*
X527145Y129031D01*
X527237Y127552D01*
X527330Y126905D01*
X527422Y126442D01*
X527515Y126258D01*
X527792Y125888D01*
X528162Y125425D01*
X528809Y124963D01*
X528994Y124871D01*
X529456Y124686D01*
X530288Y124501D01*
X531490Y124408D01*
X532415D01*
X532877Y124501D01*
X533524D01*
X534264Y124593D01*
X535004Y124686D01*
X536021Y117752D01*
X535836D01*
X535466Y117659D01*
X534819Y117567D01*
X533986Y117474D01*
X533062Y117289D01*
X532045Y117197D01*
X530011Y117104D01*
X529271D01*
X528532Y117197D01*
X527607Y117289D01*
X526498Y117382D01*
X525388Y117659D01*
X524371Y117937D01*
X523354Y118399D01*
X523262Y118491D01*
X522984Y118676D01*
X522614Y118954D01*
X522060Y119416D01*
X521597Y119878D01*
X521043Y120525D01*
X520488Y121172D01*
X520118Y122005D01*
Y122097D01*
X519933Y122467D01*
X519841Y123114D01*
X519656Y124039D01*
X519471Y125241D01*
X519378Y125980D01*
Y126812D01*
X519286Y127829D01*
X519194Y128846D01*
Y129956D01*
Y131250D01*
Y158062D01*
X513369D01*
Y164165D01*
X519194D01*
Y175629D01*
X527052Y180344D01*
Y164165D01*
D02*
G37*
G36*
X563110Y165089D02*
X563942Y164997D01*
X564867Y164812D01*
X565884Y164627D01*
X567086Y164442D01*
X569582Y163610D01*
X570876Y163148D01*
X572171Y162500D01*
X573465Y161853D01*
X574760Y160929D01*
X575962Y160004D01*
X577163Y158895D01*
X577256Y158802D01*
X577441Y158617D01*
X577718Y158247D01*
X578088Y157785D01*
X578550Y157138D01*
X579105Y156306D01*
X579660Y155381D01*
X580214Y154364D01*
X580769Y153255D01*
X581324Y151868D01*
X581879Y150481D01*
X582341Y148909D01*
X582711Y147245D01*
X582988Y145488D01*
X583173Y143639D01*
X583266Y141605D01*
Y141513D01*
Y141235D01*
Y140773D01*
Y140126D01*
X583173Y139386D01*
X583081Y138462D01*
Y137537D01*
X582896Y136520D01*
X582618Y134209D01*
X582064Y131897D01*
X581416Y129586D01*
X580492Y127459D01*
Y127367D01*
X580399Y127275D01*
X580214Y126997D01*
X580030Y126627D01*
X579382Y125703D01*
X578550Y124593D01*
X577441Y123299D01*
X576054Y122005D01*
X574482Y120710D01*
X572633Y119508D01*
X572541D01*
X572448Y119416D01*
X572171Y119231D01*
X571709Y119046D01*
X571246Y118861D01*
X570692Y118676D01*
X569305Y118121D01*
X567733Y117659D01*
X565791Y117197D01*
X563757Y116827D01*
X561538Y116735D01*
X560614D01*
X559874Y116827D01*
X559042Y116920D01*
X558118Y117104D01*
X557008Y117289D01*
X555899Y117474D01*
X553402Y118214D01*
X552015Y118769D01*
X550721Y119323D01*
X549427Y120063D01*
X548132Y120895D01*
X546930Y121820D01*
X545728Y122929D01*
X545636Y123022D01*
X545451Y123207D01*
X545174Y123576D01*
X544804Y124131D01*
X544342Y124778D01*
X543879Y125518D01*
X543325Y126442D01*
X542770Y127552D01*
X542215Y128754D01*
X541660Y130141D01*
X541198Y131620D01*
X540736Y133192D01*
X540366Y134948D01*
X540089Y136798D01*
X539904Y138832D01*
X539811Y140958D01*
Y141143D01*
Y141513D01*
X539904Y142160D01*
Y143085D01*
X539996Y144102D01*
X540181Y145396D01*
X540366Y146690D01*
X540736Y148170D01*
X541106Y149649D01*
X541568Y151221D01*
X542123Y152885D01*
X542862Y154457D01*
X543602Y155936D01*
X544619Y157415D01*
X545636Y158802D01*
X546930Y160004D01*
X547023Y160096D01*
X547208Y160189D01*
X547578Y160466D01*
X548040Y160836D01*
X548595Y161206D01*
X549334Y161668D01*
X550074Y162130D01*
X550998Y162593D01*
X552015Y163055D01*
X553125Y163517D01*
X555621Y164349D01*
X558487Y164997D01*
X559967Y165089D01*
X561538Y165182D01*
X562463D01*
X563110Y165089D01*
D02*
G37*
G36*
X443934D02*
X444674Y164997D01*
X445599Y164812D01*
X446616Y164627D01*
X447817Y164349D01*
X448927Y164072D01*
X450221Y163610D01*
X451423Y163148D01*
X452718Y162500D01*
X454012Y161761D01*
X455306Y160929D01*
X456508Y159912D01*
X457618Y158802D01*
X457710Y158710D01*
X457895Y158525D01*
X458173Y158155D01*
X458542Y157600D01*
X459005Y156953D01*
X459467Y156213D01*
X460022Y155289D01*
X460576Y154179D01*
X461131Y152977D01*
X461686Y151683D01*
X462148Y150204D01*
X462610Y148632D01*
X462980Y146875D01*
X463258Y145026D01*
X463443Y143085D01*
X463535Y140958D01*
Y140866D01*
Y140496D01*
Y139849D01*
X463443Y138924D01*
X428772D01*
Y138832D01*
Y138554D01*
X428864Y138184D01*
Y137630D01*
X428956Y136982D01*
X429141Y136243D01*
X429419Y134579D01*
X429973Y132729D01*
X430713Y130695D01*
X431730Y128846D01*
X433025Y127182D01*
X433117D01*
X433209Y126997D01*
X433764Y126535D01*
X434596Y125888D01*
X435706Y125241D01*
X437185Y124501D01*
X438849Y123854D01*
X440698Y123391D01*
X441715Y123299D01*
X442825Y123207D01*
X443565D01*
X444397Y123299D01*
X445414Y123484D01*
X446523Y123761D01*
X447817Y124131D01*
X449019Y124686D01*
X450221Y125425D01*
X450314Y125518D01*
X450776Y125888D01*
X451331Y126442D01*
X451978Y127182D01*
X452718Y128199D01*
X453550Y129494D01*
X454382Y130973D01*
X455122Y132729D01*
X463258Y131712D01*
Y131620D01*
X463165Y131435D01*
X463073Y131065D01*
X462888Y130511D01*
X462610Y129956D01*
X462333Y129216D01*
X461593Y127644D01*
X460669Y125888D01*
X459374Y124039D01*
X457895Y122282D01*
X456046Y120618D01*
X455954D01*
X455769Y120433D01*
X455491Y120248D01*
X455122Y119971D01*
X454567Y119693D01*
X454012Y119416D01*
X453272Y119046D01*
X452440Y118676D01*
X451516Y118306D01*
X450591Y117937D01*
X448280Y117382D01*
X445691Y116920D01*
X442825Y116735D01*
X441808D01*
X441161Y116827D01*
X440329Y116920D01*
X439312Y117104D01*
X438202Y117289D01*
X437000Y117474D01*
X434411Y118214D01*
X433025Y118769D01*
X431730Y119323D01*
X430343Y120063D01*
X429049Y120895D01*
X427847Y121820D01*
X426645Y122929D01*
X426553Y123022D01*
X426368Y123207D01*
X426090Y123576D01*
X425721Y124131D01*
X425258Y124778D01*
X424796Y125518D01*
X424241Y126442D01*
X423686Y127459D01*
X423132Y128661D01*
X422577Y129956D01*
X422115Y131435D01*
X421652Y133007D01*
X421283Y134671D01*
X421005Y136520D01*
X420820Y138462D01*
X420728Y140496D01*
Y140588D01*
Y141051D01*
Y141605D01*
X420820Y142437D01*
X420913Y143454D01*
X421005Y144564D01*
X421190Y145858D01*
X421468Y147153D01*
X422207Y150111D01*
X422669Y151591D01*
X423224Y153162D01*
X423964Y154642D01*
X424796Y156028D01*
X425721Y157415D01*
X426738Y158710D01*
X426830Y158802D01*
X427015Y158987D01*
X427385Y159264D01*
X427847Y159727D01*
X428402Y160189D01*
X429141Y160744D01*
X429973Y161391D01*
X430991Y161946D01*
X432008Y162593D01*
X433209Y163148D01*
X434504Y163702D01*
X435891Y164165D01*
X437370Y164627D01*
X438942Y164904D01*
X440606Y165089D01*
X442363Y165182D01*
X443287D01*
X443934Y165089D01*
D02*
G37*
G36*
X294525D02*
X295358Y164997D01*
X296282Y164812D01*
X297299Y164627D01*
X298501Y164442D01*
X300997Y163610D01*
X302292Y163148D01*
X303586Y162500D01*
X304881Y161853D01*
X306175Y160929D01*
X307377Y160004D01*
X308579Y158895D01*
X308671Y158802D01*
X308856Y158617D01*
X309133Y158247D01*
X309503Y157785D01*
X309966Y157138D01*
X310520Y156306D01*
X311075Y155381D01*
X311630Y154364D01*
X312185Y153255D01*
X312739Y151868D01*
X313294Y150481D01*
X313756Y148909D01*
X314126Y147245D01*
X314403Y145488D01*
X314588Y143639D01*
X314681Y141605D01*
Y141513D01*
Y141235D01*
Y140773D01*
Y140126D01*
X314588Y139386D01*
X314496Y138462D01*
Y137537D01*
X314311Y136520D01*
X314034Y134209D01*
X313479Y131897D01*
X312832Y129586D01*
X311907Y127459D01*
Y127367D01*
X311815Y127275D01*
X311630Y126997D01*
X311445Y126627D01*
X310798Y125703D01*
X309966Y124593D01*
X308856Y123299D01*
X307469Y122005D01*
X305898Y120710D01*
X304048Y119508D01*
X303956D01*
X303864Y119416D01*
X303586Y119231D01*
X303124Y119046D01*
X302662Y118861D01*
X302107Y118676D01*
X300720Y118121D01*
X299148Y117659D01*
X297207Y117197D01*
X295173Y116827D01*
X292954Y116735D01*
X292029D01*
X291289Y116827D01*
X290457Y116920D01*
X289533Y117104D01*
X288423Y117289D01*
X287314Y117474D01*
X284818Y118214D01*
X283431Y118769D01*
X282136Y119323D01*
X280842Y120063D01*
X279548Y120895D01*
X278346Y121820D01*
X277144Y122929D01*
X277051Y123022D01*
X276866Y123207D01*
X276589Y123576D01*
X276219Y124131D01*
X275757Y124778D01*
X275295Y125518D01*
X274740Y126442D01*
X274185Y127552D01*
X273630Y128754D01*
X273076Y130141D01*
X272613Y131620D01*
X272151Y133192D01*
X271781Y134948D01*
X271504Y136798D01*
X271319Y138832D01*
X271227Y140958D01*
Y141143D01*
Y141513D01*
X271319Y142160D01*
Y143085D01*
X271411Y144102D01*
X271596Y145396D01*
X271781Y146690D01*
X272151Y148170D01*
X272521Y149649D01*
X272983Y151221D01*
X273538Y152885D01*
X274278Y154457D01*
X275017Y155936D01*
X276034Y157415D01*
X277051Y158802D01*
X278346Y160004D01*
X278438Y160096D01*
X278623Y160189D01*
X278993Y160466D01*
X279455Y160836D01*
X280010Y161206D01*
X280750Y161668D01*
X281489Y162130D01*
X282414Y162593D01*
X283431Y163055D01*
X284540Y163517D01*
X287037Y164349D01*
X289903Y164997D01*
X291382Y165089D01*
X292954Y165182D01*
X293878D01*
X294525Y165089D01*
D02*
G37*
G36*
X995712Y116642D02*
X989425D01*
X1008008Y182841D01*
X1014295D01*
X995712Y116642D01*
D02*
G37*
G36*
X916385Y181916D02*
X917586Y181731D01*
X918973Y181454D01*
X920453Y181084D01*
X922024Y180622D01*
X923504Y179882D01*
X923596D01*
X923689Y179790D01*
X924151Y179512D01*
X924890Y179050D01*
X925815Y178403D01*
X926832Y177478D01*
X927942Y176461D01*
X928959Y175259D01*
X929976Y173873D01*
X930068Y173688D01*
X930438Y173225D01*
X930808Y172393D01*
X931455Y171191D01*
X932010Y169805D01*
X932749Y168233D01*
X933396Y166384D01*
X933951Y164350D01*
Y164257D01*
X934044Y164072D01*
X934136Y163795D01*
X934229Y163333D01*
X934321Y162778D01*
X934413Y162131D01*
X934598Y161299D01*
X934691Y160374D01*
X934876Y159357D01*
X934968Y158248D01*
X935061Y156953D01*
X935246Y155659D01*
X935338Y154180D01*
Y152700D01*
X935430Y151036D01*
Y149279D01*
Y149187D01*
Y148817D01*
Y148170D01*
Y147430D01*
X935338Y146413D01*
Y145304D01*
X935246Y144102D01*
X935153Y142807D01*
X934876Y139849D01*
X934413Y136798D01*
X933859Y133839D01*
X933489Y132452D01*
X933027Y131066D01*
Y130973D01*
X932934Y130788D01*
X932749Y130418D01*
X932564Y129956D01*
X932379Y129309D01*
X932010Y128662D01*
X931270Y127090D01*
X930345Y125426D01*
X929143Y123577D01*
X927757Y121912D01*
X926092Y120341D01*
X926000D01*
X925907Y120156D01*
X925630Y119971D01*
X925260Y119786D01*
X924798Y119509D01*
X924336Y119139D01*
X922949Y118492D01*
X921285Y117844D01*
X919343Y117197D01*
X917032Y116827D01*
X914535Y116642D01*
X913611D01*
X912964Y116735D01*
X912224Y116827D01*
X911299Y117012D01*
X910282Y117197D01*
X909173Y117474D01*
X908063Y117844D01*
X906862Y118214D01*
X905660Y118769D01*
X904458Y119416D01*
X903256Y120156D01*
X902054Y121080D01*
X900944Y122097D01*
X899927Y123207D01*
X899835Y123299D01*
X899650Y123577D01*
X899373Y124039D01*
X898910Y124779D01*
X898448Y125611D01*
X897986Y126720D01*
X897339Y128014D01*
X896784Y129494D01*
X896229Y131158D01*
X895674Y133100D01*
X895120Y135226D01*
X894657Y137630D01*
X894195Y140219D01*
X893918Y142992D01*
X893733Y146043D01*
X893640Y149279D01*
Y149372D01*
Y149742D01*
Y150389D01*
Y151128D01*
X893733Y152145D01*
Y153255D01*
X893825Y154457D01*
X893918Y155844D01*
X894195Y158710D01*
X894657Y161761D01*
X895212Y164812D01*
X895582Y166199D01*
X895952Y167586D01*
Y167678D01*
X896044Y167863D01*
X896229Y168233D01*
X896414Y168695D01*
X896599Y169342D01*
X896969Y169990D01*
X897708Y171561D01*
X898633Y173225D01*
X899835Y174982D01*
X901222Y176739D01*
X902886Y178218D01*
X902978D01*
X903071Y178403D01*
X903348Y178588D01*
X903718Y178773D01*
X904180Y179143D01*
X904735Y179420D01*
X906122Y180160D01*
X907786Y180807D01*
X909728Y181454D01*
X912039Y181824D01*
X914535Y182009D01*
X915367D01*
X916385Y181916D01*
D02*
G37*
G36*
X871358Y116642D02*
X865071D01*
X883655Y182841D01*
X889942D01*
X871358Y116642D01*
D02*
G37*
G36*
X742290Y181916D02*
X743492Y181731D01*
X744879Y181454D01*
X746358Y181084D01*
X747930Y180622D01*
X749409Y179882D01*
X749501D01*
X749594Y179790D01*
X750056Y179512D01*
X750796Y179050D01*
X751720Y178403D01*
X752737Y177478D01*
X753847Y176461D01*
X754864Y175259D01*
X755881Y173872D01*
X755973Y173687D01*
X756343Y173225D01*
X756713Y172393D01*
X757360Y171191D01*
X757915Y169804D01*
X758655Y168233D01*
X759302Y166383D01*
X759856Y164349D01*
Y164257D01*
X759949Y164072D01*
X760041Y163795D01*
X760134Y163332D01*
X760226Y162778D01*
X760319Y162130D01*
X760504Y161298D01*
X760596Y160374D01*
X760781Y159357D01*
X760874Y158247D01*
X760966Y156953D01*
X761151Y155659D01*
X761243Y154179D01*
Y152700D01*
X761336Y151036D01*
Y149279D01*
Y149187D01*
Y148817D01*
Y148170D01*
Y147430D01*
X761243Y146413D01*
Y145303D01*
X761151Y144102D01*
X761058Y142807D01*
X760781Y139849D01*
X760319Y136798D01*
X759764Y133839D01*
X759394Y132452D01*
X758932Y131065D01*
Y130973D01*
X758839Y130788D01*
X758655Y130418D01*
X758470Y129956D01*
X758285Y129309D01*
X757915Y128661D01*
X757175Y127090D01*
X756251Y125425D01*
X755049Y123576D01*
X753662Y121912D01*
X751998Y120340D01*
X751905D01*
X751813Y120155D01*
X751535Y119971D01*
X751166Y119786D01*
X750703Y119508D01*
X750241Y119138D01*
X748854Y118491D01*
X747190Y117844D01*
X745248Y117197D01*
X742937Y116827D01*
X740441Y116642D01*
X739516D01*
X738869Y116735D01*
X738129Y116827D01*
X737205Y117012D01*
X736188Y117197D01*
X735078Y117474D01*
X733969Y117844D01*
X732767Y118214D01*
X731565Y118769D01*
X730363Y119416D01*
X729161Y120155D01*
X727959Y121080D01*
X726850Y122097D01*
X725833Y123207D01*
X725740Y123299D01*
X725555Y123576D01*
X725278Y124039D01*
X724816Y124778D01*
X724353Y125610D01*
X723891Y126720D01*
X723244Y128014D01*
X722689Y129494D01*
X722134Y131158D01*
X721580Y133099D01*
X721025Y135226D01*
X720563Y137630D01*
X720100Y140218D01*
X719823Y142992D01*
X719638Y146043D01*
X719546Y149279D01*
Y149372D01*
Y149741D01*
Y150389D01*
Y151128D01*
X719638Y152145D01*
Y153255D01*
X719731Y154457D01*
X719823Y155843D01*
X720100Y158710D01*
X720563Y161761D01*
X721117Y164812D01*
X721487Y166199D01*
X721857Y167585D01*
Y167678D01*
X721950Y167863D01*
X722134Y168233D01*
X722319Y168695D01*
X722504Y169342D01*
X722874Y169989D01*
X723614Y171561D01*
X724538Y173225D01*
X725740Y174982D01*
X727127Y176739D01*
X728791Y178218D01*
X728884D01*
X728976Y178403D01*
X729254Y178588D01*
X729623Y178773D01*
X730086Y179142D01*
X730640Y179420D01*
X732027Y180159D01*
X733691Y180807D01*
X735633Y181454D01*
X737944Y181824D01*
X740441Y182009D01*
X741273D01*
X742290Y181916D01*
D02*
G37*
G36*
X667031Y100000D02*
X614978D01*
Y105640D01*
X667031D01*
Y100000D01*
D02*
G37*
%LPC*%
G36*
X561538Y158710D02*
X560984D01*
X560521Y158617D01*
X559504Y158525D01*
X558118Y158155D01*
X556546Y157600D01*
X554882Y156860D01*
X553310Y155751D01*
X552478Y155011D01*
X551738Y154272D01*
Y154179D01*
X551553Y154087D01*
X551368Y153809D01*
X551091Y153440D01*
X550813Y152977D01*
X550536Y152423D01*
X550166Y151683D01*
X549796Y150943D01*
X549427Y150019D01*
X549057Y149094D01*
X548779Y147985D01*
X548502Y146783D01*
X548225Y145488D01*
X548040Y144102D01*
X547947Y142530D01*
X547855Y140958D01*
Y140866D01*
Y140588D01*
Y140126D01*
X547947Y139479D01*
Y138739D01*
X548040Y137907D01*
X548317Y135965D01*
X548779Y133746D01*
X549519Y131528D01*
X550444Y129401D01*
X551091Y128477D01*
X551738Y127552D01*
X551830D01*
X551923Y127367D01*
X552478Y126905D01*
X553310Y126165D01*
X554419Y125425D01*
X555806Y124593D01*
X557470Y123854D01*
X559412Y123391D01*
X560429Y123299D01*
X561538Y123207D01*
X562093D01*
X562555Y123299D01*
X563572Y123484D01*
X564959Y123761D01*
X566439Y124316D01*
X568103Y125056D01*
X569675Y126165D01*
X570507Y126905D01*
X571246Y127644D01*
X571339Y127737D01*
X571431Y127829D01*
X571616Y128107D01*
X571893Y128477D01*
X572171Y128939D01*
X572541Y129494D01*
X572910Y130233D01*
X573280Y130973D01*
X573650Y131897D01*
X573927Y132914D01*
X574297Y134024D01*
X574575Y135226D01*
X574852Y136613D01*
X575037Y137999D01*
X575222Y139571D01*
Y141235D01*
Y141328D01*
Y141605D01*
Y142068D01*
X575129Y142622D01*
Y143362D01*
X575037Y144194D01*
X574760Y146136D01*
X574297Y148170D01*
X573558Y150389D01*
X572541Y152423D01*
X571986Y153440D01*
X571246Y154272D01*
Y154364D01*
X571061Y154457D01*
X570507Y155011D01*
X569675Y155659D01*
X568565Y156491D01*
X567178Y157323D01*
X565514Y158062D01*
X563665Y158525D01*
X562648Y158617D01*
X561538Y158710D01*
D02*
G37*
G36*
X442455D02*
X441900D01*
X441530Y158617D01*
X440513Y158525D01*
X439312Y158247D01*
X437832Y157785D01*
X436260Y157138D01*
X434781Y156213D01*
X433302Y155011D01*
X433117Y154826D01*
X432747Y154364D01*
X432100Y153532D01*
X431453Y152423D01*
X430713Y151128D01*
X430066Y149464D01*
X429511Y147522D01*
X429234Y145396D01*
X455214D01*
Y145488D01*
Y145673D01*
X455122Y145951D01*
Y146321D01*
X454937Y147430D01*
X454659Y148632D01*
X454197Y150111D01*
X453735Y151498D01*
X452995Y152885D01*
X452163Y154087D01*
Y154179D01*
X451978Y154272D01*
X451516Y154826D01*
X450684Y155566D01*
X449574Y156398D01*
X448187Y157230D01*
X446523Y157970D01*
X444582Y158525D01*
X443565Y158617D01*
X442455Y158710D01*
D02*
G37*
G36*
X292954D02*
X292399D01*
X291937Y158617D01*
X290920Y158525D01*
X289533Y158155D01*
X287961Y157600D01*
X286297Y156860D01*
X284725Y155751D01*
X283893Y155011D01*
X283153Y154272D01*
Y154179D01*
X282968Y154087D01*
X282784Y153809D01*
X282506Y153440D01*
X282229Y152977D01*
X281951Y152423D01*
X281582Y151683D01*
X281212Y150943D01*
X280842Y150019D01*
X280472Y149094D01*
X280195Y147985D01*
X279917Y146783D01*
X279640Y145488D01*
X279455Y144102D01*
X279363Y142530D01*
X279270Y140958D01*
Y140866D01*
Y140588D01*
Y140126D01*
X279363Y139479D01*
Y138739D01*
X279455Y137907D01*
X279732Y135965D01*
X280195Y133746D01*
X280934Y131528D01*
X281859Y129401D01*
X282506Y128477D01*
X283153Y127552D01*
X283246D01*
X283338Y127367D01*
X283893Y126905D01*
X284725Y126165D01*
X285835Y125425D01*
X287221Y124593D01*
X288886Y123854D01*
X290827Y123391D01*
X291844Y123299D01*
X292954Y123207D01*
X293508D01*
X293971Y123299D01*
X294988Y123484D01*
X296375Y123761D01*
X297854Y124316D01*
X299518Y125056D01*
X301090Y126165D01*
X301922Y126905D01*
X302662Y127644D01*
X302754Y127737D01*
X302846Y127829D01*
X303031Y128107D01*
X303309Y128477D01*
X303586Y128939D01*
X303956Y129494D01*
X304326Y130233D01*
X304696Y130973D01*
X305065Y131897D01*
X305343Y132914D01*
X305713Y134024D01*
X305990Y135226D01*
X306267Y136613D01*
X306452Y137999D01*
X306637Y139571D01*
Y141235D01*
Y141328D01*
Y141605D01*
Y142068D01*
X306545Y142622D01*
Y143362D01*
X306452Y144194D01*
X306175Y146136D01*
X305713Y148170D01*
X304973Y150389D01*
X303956Y152423D01*
X303401Y153440D01*
X302662Y154272D01*
Y154364D01*
X302477Y154457D01*
X301922Y155011D01*
X301090Y155659D01*
X299980Y156491D01*
X298594Y157323D01*
X296929Y158062D01*
X295080Y158525D01*
X294063Y158617D01*
X292954Y158710D01*
D02*
G37*
G36*
X914443Y175537D02*
X913888D01*
X913518Y175444D01*
X912501Y175259D01*
X911299Y174982D01*
X909913Y174427D01*
X908433Y173595D01*
X907694Y173041D01*
X906954Y172486D01*
X906307Y171746D01*
X905660Y170914D01*
Y170822D01*
X905475Y170637D01*
X905290Y170267D01*
X905012Y169805D01*
X904735Y169065D01*
X904365Y168233D01*
X904088Y167216D01*
X903718Y166014D01*
X903348Y164627D01*
X902978Y163055D01*
X902609Y161299D01*
X902331Y159357D01*
X902054Y157138D01*
X901869Y154734D01*
X901776Y152145D01*
X901684Y149279D01*
Y149094D01*
Y148632D01*
Y147800D01*
X901776Y146691D01*
Y145489D01*
X901869Y144009D01*
X901961Y142438D01*
X902146Y140773D01*
X902609Y137168D01*
X902886Y135411D01*
X903256Y133747D01*
X903626Y132175D01*
X904180Y130696D01*
X904735Y129401D01*
X905382Y128292D01*
Y128199D01*
X905567Y128107D01*
X906029Y127460D01*
X906862Y126628D01*
X907879Y125703D01*
X909265Y124779D01*
X910837Y123946D01*
X912594Y123299D01*
X913518Y123207D01*
X914535Y123114D01*
X915090D01*
X915460Y123207D01*
X916385Y123392D01*
X917679Y123761D01*
X919066Y124409D01*
X920637Y125333D01*
X921377Y125888D01*
X922117Y126628D01*
X922856Y127367D01*
X923596Y128292D01*
Y128384D01*
X923781Y128569D01*
X923966Y128847D01*
X924151Y129309D01*
X924521Y129956D01*
X924798Y130788D01*
X925168Y131713D01*
X925538Y132822D01*
X925815Y134209D01*
X926185Y135688D01*
X926555Y137445D01*
X926832Y139294D01*
X927017Y141513D01*
X927202Y143824D01*
X927387Y146413D01*
Y149279D01*
Y149372D01*
Y149464D01*
Y149927D01*
Y150759D01*
X927294Y151868D01*
Y153070D01*
X927202Y154549D01*
X927109Y156121D01*
X926924Y157878D01*
X926462Y161391D01*
X926185Y163148D01*
X925815Y164812D01*
X925445Y166384D01*
X924890Y167863D01*
X924336Y169157D01*
X923689Y170267D01*
Y170359D01*
X923504Y170452D01*
X923319Y170729D01*
X923041Y171099D01*
X922209Y171931D01*
X921192Y172948D01*
X919805Y173873D01*
X918234Y174705D01*
X917402Y175075D01*
X916477Y175352D01*
X915460Y175444D01*
X914443Y175537D01*
D02*
G37*
G36*
X740348Y175537D02*
X739794D01*
X739424Y175444D01*
X738407Y175259D01*
X737205Y174982D01*
X735818Y174427D01*
X734339Y173595D01*
X733599Y173040D01*
X732859Y172486D01*
X732212Y171746D01*
X731565Y170914D01*
Y170821D01*
X731380Y170636D01*
X731195Y170267D01*
X730918Y169804D01*
X730640Y169065D01*
X730271Y168233D01*
X729993Y167216D01*
X729623Y166014D01*
X729254Y164627D01*
X728884Y163055D01*
X728514Y161298D01*
X728237Y159357D01*
X727959Y157138D01*
X727774Y154734D01*
X727682Y152145D01*
X727589Y149279D01*
Y149094D01*
Y148632D01*
Y147800D01*
X727682Y146690D01*
Y145488D01*
X727774Y144009D01*
X727867Y142437D01*
X728052Y140773D01*
X728514Y137167D01*
X728791Y135411D01*
X729161Y133746D01*
X729531Y132175D01*
X730086Y130695D01*
X730640Y129401D01*
X731288Y128292D01*
Y128199D01*
X731473Y128107D01*
X731935Y127459D01*
X732767Y126627D01*
X733784Y125703D01*
X735171Y124778D01*
X736742Y123946D01*
X738499Y123299D01*
X739424Y123207D01*
X740441Y123114D01*
X740995D01*
X741365Y123207D01*
X742290Y123391D01*
X743584Y123761D01*
X744971Y124408D01*
X746543Y125333D01*
X747282Y125888D01*
X748022Y126627D01*
X748762Y127367D01*
X749501Y128292D01*
Y128384D01*
X749686Y128569D01*
X749871Y128846D01*
X750056Y129309D01*
X750426Y129956D01*
X750703Y130788D01*
X751073Y131712D01*
X751443Y132822D01*
X751720Y134209D01*
X752090Y135688D01*
X752460Y137445D01*
X752737Y139294D01*
X752922Y141513D01*
X753107Y143824D01*
X753292Y146413D01*
Y149279D01*
Y149372D01*
Y149464D01*
Y149926D01*
Y150758D01*
X753200Y151868D01*
Y153070D01*
X753107Y154549D01*
X753015Y156121D01*
X752830Y157878D01*
X752368Y161391D01*
X752090Y163148D01*
X751720Y164812D01*
X751351Y166383D01*
X750796Y167863D01*
X750241Y169157D01*
X749594Y170267D01*
Y170359D01*
X749409Y170452D01*
X749224Y170729D01*
X748947Y171099D01*
X748115Y171931D01*
X747098Y172948D01*
X745711Y173872D01*
X744139Y174705D01*
X743307Y175074D01*
X742382Y175352D01*
X741365Y175444D01*
X740348Y175537D01*
D02*
G37*
%LPD*%
D14*
X1770000Y770000D02*
X2170000D01*
X160000Y760000D02*
X570000D01*
X2783000Y1261000D02*
X3037000D01*
Y245000D02*
Y1261000D01*
X2783000Y245000D02*
Y1261000D01*
Y245000D02*
X3037000D01*
X119000Y519000D02*
X627000D01*
Y1027000D01*
X119000Y519000D02*
Y1027000D01*
X627000D01*
X1719000Y519000D02*
X2227000D01*
Y1027000D01*
X1719000Y519000D02*
Y1027000D01*
X2227000D01*
D15*
X334608Y273825D02*
X385392D01*
X360000D01*
Y426175D01*
X334608Y400784D01*
X2050784Y1123825D02*
X1949217D01*
X2050784Y1225392D01*
Y1250783D01*
X2025392Y1276175D01*
X1974608D01*
X1949217Y1250783D01*
%TF.MD5,86656e434ffe01ded64d2cef8574c1e7*%
M02*
