%TF.GenerationSoftware,Altium Limited,Altium Designer,21.2.2 (38)*%
G04 Layer_Color=0*
%FSLAX45Y45*%
%MOMM*%
%TF.SameCoordinates,B99934B0-A272-4072-8E61-E06CCB3B2E9A*%
%TF.FilePolarity,Positive*%
%TF.FileFunction,Profile,NP*%
%TF.Part,Single*%
G01*
G75*
%TA.AperFunction,Profile*%
%ADD15C,0.02540*%
G36*
X1080000Y1100000D02*
Y1083256D01*
X1086533Y1050413D01*
X1099348Y1019475D01*
X1117952Y991631D01*
X1141631Y967952D01*
X1169475Y949348D01*
X1200413Y936533D01*
X1233256Y930000D01*
X1250000D01*
X1266743D01*
X1299587Y936533D01*
X1330525Y949348D01*
X1358369Y967952D01*
X1382048Y991631D01*
X1400652Y1019475D01*
X1413467Y1050413D01*
X1420000Y1083256D01*
Y1100000D01*
Y1116744D01*
X1413467Y1149587D01*
X1400652Y1180525D01*
X1382048Y1208369D01*
X1358369Y1232048D01*
X1330525Y1250652D01*
X1299587Y1263467D01*
X1266743Y1270000D01*
X1250000D01*
X1233256D01*
X1200413Y1263467D01*
X1169475Y1250652D01*
X1141631Y1232048D01*
X1117952Y1208369D01*
X1099348Y1180525D01*
X1086533Y1149587D01*
X1080000Y1116744D01*
Y1100000D01*
D01*
D02*
G37*
G36*
Y400000D02*
Y383256D01*
X1086533Y350413D01*
X1099348Y319475D01*
X1117952Y291631D01*
X1141631Y267952D01*
X1169475Y249348D01*
X1200413Y236533D01*
X1233256Y230000D01*
X1250000D01*
X1266743D01*
X1299587Y236533D01*
X1330525Y249348D01*
X1358369Y267952D01*
X1382048Y291631D01*
X1400652Y319475D01*
X1413467Y350413D01*
X1420000Y383256D01*
Y400000D01*
Y416743D01*
X1413467Y449587D01*
X1400652Y480525D01*
X1382048Y508369D01*
X1358369Y532047D01*
X1330525Y550652D01*
X1299587Y563467D01*
X1266743Y570000D01*
X1250000D01*
X1233256D01*
X1200413Y563467D01*
X1169475Y550652D01*
X1141631Y532047D01*
X1117952Y508369D01*
X1099348Y480525D01*
X1086533Y449587D01*
X1080000Y416743D01*
Y400000D01*
D01*
D02*
G37*
D15*
X0Y0D02*
X3000000D01*
Y1500000D01*
X0D01*
Y0D01*
%TF.MD5,aed9cb1b5bb315caed6635fe95a2e6fb*%
M02*
