%TF.GenerationSoftware,Altium Limited,Altium Designer,21.2.2 (38)*%
G04 Layer_Physical_Order=2*
G04 Layer_Color=36540*
%FSLAX45Y45*%
%MOMM*%
%TF.SameCoordinates,215B76EA-4B9E-490E-954B-DD862D4548B8*%
%TF.FilePolarity,Positive*%
%TF.FileFunction,Copper,L2,Inr,Signal*%
%TF.Part,Single*%
G01*
G75*
%TA.AperFunction,ComponentPad*%
%ADD70C,0.70000*%
G04:AMPARAMS|DCode=71|XSize=1.2mm|YSize=1.1mm|CornerRadius=0.275mm|HoleSize=0mm|Usage=FLASHONLY|Rotation=0.000|XOffset=0mm|YOffset=0mm|HoleType=Round|Shape=RoundedRectangle|*
%AMROUNDEDRECTD71*
21,1,1.20000,0.55000,0,0,0.0*
21,1,0.65000,1.10000,0,0,0.0*
1,1,0.55000,0.32500,-0.27500*
1,1,0.55000,-0.32500,-0.27500*
1,1,0.55000,-0.32500,0.27500*
1,1,0.55000,0.32500,0.27500*
%
%ADD71ROUNDEDRECTD71*%
%ADD72R,1.20000X1.10000*%
G04:AMPARAMS|DCode=73|XSize=1.2mm|YSize=1.1mm|CornerRadius=0.275mm|HoleSize=0mm|Usage=FLASHONLY|Rotation=270.000|XOffset=0mm|YOffset=0mm|HoleType=Round|Shape=RoundedRectangle|*
%AMROUNDEDRECTD73*
21,1,1.20000,0.55000,0,0,270.0*
21,1,0.65000,1.10000,0,0,270.0*
1,1,0.55000,-0.27500,-0.32500*
1,1,0.55000,-0.27500,0.32500*
1,1,0.55000,0.27500,0.32500*
1,1,0.55000,0.27500,-0.32500*
%
%ADD73ROUNDEDRECTD73*%
%ADD74R,1.10000X1.20000*%
%ADD75C,1.50000*%
%ADD76R,1.50000X1.50000*%
G04:AMPARAMS|DCode=77|XSize=1.1mm|YSize=1.1mm|CornerRadius=0.275mm|HoleSize=0mm|Usage=FLASHONLY|Rotation=90.000|XOffset=0mm|YOffset=0mm|HoleType=Round|Shape=RoundedRectangle|*
%AMROUNDEDRECTD77*
21,1,1.10000,0.55000,0,0,90.0*
21,1,0.55000,1.10000,0,0,90.0*
1,1,0.55000,0.27500,0.27500*
1,1,0.55000,0.27500,-0.27500*
1,1,0.55000,-0.27500,-0.27500*
1,1,0.55000,-0.27500,0.27500*
%
%ADD77ROUNDEDRECTD77*%
%ADD78R,1.10000X1.10000*%
%ADD79R,1.50000X1.50000*%
%TA.AperFunction,ViaPad*%
%ADD80C,0.65000*%
G36*
X3900000Y5084551D02*
X3889448Y5077500D01*
X3870552D01*
X3853093Y5070269D01*
X3839731Y5056907D01*
X3832500Y5039448D01*
Y5020552D01*
X3839731Y5003093D01*
X3853093Y4989731D01*
X3870552Y4982500D01*
X3889448D01*
X3900000Y4975449D01*
Y4800000D01*
X4076776Y4623224D01*
X4074298Y4610768D01*
X4073093Y4610269D01*
X4059731Y4596907D01*
X4052500Y4579448D01*
Y4560552D01*
X4059731Y4543093D01*
X4064663Y4538161D01*
X4063093Y4530268D01*
X4049731Y4516907D01*
X4042500Y4499448D01*
Y4480552D01*
X4049731Y4463093D01*
X4063093Y4449731D01*
X4080552Y4442500D01*
X4099448D01*
X4100000Y4442131D01*
Y3964551D01*
X4089448Y3957500D01*
X4070552D01*
X4053093Y3950269D01*
X4039731Y3936907D01*
X4032500Y3919448D01*
Y3900552D01*
X4039731Y3883093D01*
X4053093Y3869731D01*
X4070552Y3862500D01*
X4089448D01*
X4100000Y3855449D01*
Y3550000D01*
X2875000D01*
Y2460000D01*
X1507176D01*
X1496907Y2470269D01*
X1479448Y2477500D01*
X1460552D01*
X1443093Y2470269D01*
X1432825Y2460000D01*
X1377176D01*
X1366907Y2470269D01*
X1349448Y2477500D01*
X1330552D01*
X1313093Y2470269D01*
X1302825Y2460000D01*
X1247176D01*
X1236907Y2470269D01*
X1219448Y2477500D01*
X1200552D01*
X1183093Y2470269D01*
X1172825Y2460000D01*
X625000D01*
Y2900000D01*
X1412728D01*
X1419731Y2883093D01*
X1430064Y2872760D01*
X1431946Y2865000D01*
X1430064Y2857240D01*
X1419731Y2846907D01*
X1412500Y2829448D01*
Y2810552D01*
X1419731Y2793093D01*
X1433093Y2779731D01*
X1450552Y2772500D01*
X1469448D01*
X1486907Y2779731D01*
X1500269Y2793093D01*
X1507500Y2810552D01*
Y2829448D01*
X1500269Y2846907D01*
X1489936Y2857240D01*
X1488054Y2865000D01*
X1489936Y2872760D01*
X1500269Y2883093D01*
X1507271Y2900000D01*
X2325000D01*
Y2938942D01*
X2326907Y2939731D01*
X2340269Y2953093D01*
X2347500Y2970552D01*
Y2989448D01*
X2340269Y3006907D01*
X2326907Y3020269D01*
X2325000Y3021058D01*
Y3992500D01*
X2339448D01*
X2356907Y3999731D01*
X2370269Y4013093D01*
X2377500Y4030552D01*
Y4049448D01*
X2370269Y4066907D01*
X2356907Y4080269D01*
X2339448Y4087500D01*
X2339932Y4100000D01*
X3500428D01*
X3505689Y4087300D01*
X3496533Y4078144D01*
X3495138Y4076057D01*
X3493363Y4074282D01*
X3481325Y4056266D01*
X3480365Y4053947D01*
X3478970Y4051859D01*
X3470678Y4031840D01*
X3470188Y4029378D01*
X3469227Y4027058D01*
X3465000Y4005806D01*
Y4003296D01*
X3464510Y4000834D01*
Y3979166D01*
X3465000Y3976704D01*
Y3974193D01*
X3469227Y3952941D01*
X3470188Y3950622D01*
X3470678Y3948159D01*
X3478970Y3928140D01*
X3480364Y3926054D01*
X3481325Y3923734D01*
X3493363Y3905718D01*
X3495138Y3903943D01*
X3496533Y3901855D01*
X3511855Y3886533D01*
X3513943Y3885138D01*
X3515718Y3883363D01*
X3533734Y3871325D01*
X3536053Y3870365D01*
X3538140Y3868970D01*
X3558159Y3860678D01*
X3560622Y3860188D01*
X3562941Y3859227D01*
X3584193Y3855000D01*
X3586704D01*
X3589166Y3854510D01*
X3610834D01*
X3613296Y3855000D01*
X3615806D01*
X3637058Y3859227D01*
X3639378Y3860188D01*
X3641840Y3860678D01*
X3661859Y3868970D01*
X3663946Y3870364D01*
X3666266Y3871325D01*
X3684282Y3883363D01*
X3686057Y3885138D01*
X3688145Y3886533D01*
X3703466Y3901855D01*
X3704861Y3903943D01*
X3706636Y3905718D01*
X3718674Y3923734D01*
X3719635Y3926053D01*
X3721030Y3928140D01*
X3729322Y3948159D01*
X3729812Y3950622D01*
X3730773Y3952941D01*
X3735000Y3974193D01*
Y3976704D01*
X3735490Y3979166D01*
Y4000834D01*
X3735000Y4003296D01*
Y4005807D01*
X3730773Y4027058D01*
X3729812Y4029378D01*
X3729322Y4031840D01*
X3721030Y4051859D01*
X3719635Y4053946D01*
X3718675Y4056266D01*
X3706636Y4074282D01*
X3704861Y4076057D01*
X3703466Y4078144D01*
X3694311Y4087300D01*
X3699571Y4100000D01*
X3700000D01*
Y4475000D01*
X3507500D01*
Y4479448D01*
X3500269Y4496907D01*
X3486907Y4510269D01*
X3469448Y4517500D01*
X3450552D01*
X3433093Y4510269D01*
X3419731Y4496907D01*
X3412500Y4479448D01*
Y4475000D01*
X1975000D01*
X1500000Y4950000D01*
Y5150000D01*
X1550000D01*
X2001413Y4698589D01*
X1999731Y4696907D01*
X1992500Y4679448D01*
Y4660552D01*
X1999731Y4643093D01*
X2013093Y4629731D01*
X2030552Y4622500D01*
X2049448D01*
X2066907Y4629731D01*
X2080269Y4643093D01*
X2087500Y4660552D01*
Y4667301D01*
X2099971Y4680002D01*
X2905000Y4680000D01*
X3150000Y4925000D01*
X3470000D01*
Y5326870D01*
X3476907Y5329731D01*
X3490269Y5343093D01*
X3497500Y5360552D01*
Y5379448D01*
X3490269Y5396907D01*
X3479936Y5407240D01*
X3478054Y5415000D01*
X3479936Y5422760D01*
X3490269Y5433093D01*
X3497500Y5450552D01*
Y5469448D01*
X3490269Y5486907D01*
X3479936Y5497240D01*
X3478054Y5505000D01*
X3479936Y5512760D01*
X3490269Y5523093D01*
X3497500Y5540552D01*
Y5559448D01*
X3490269Y5576907D01*
X3476907Y5590269D01*
X3470000Y5593130D01*
Y5606870D01*
X3476907Y5609731D01*
X3490269Y5623093D01*
X3497500Y5640552D01*
Y5659448D01*
X3490269Y5676907D01*
X3479936Y5687240D01*
X3478054Y5695000D01*
X3479936Y5702760D01*
X3490269Y5713093D01*
X3497500Y5730552D01*
Y5749448D01*
X3490269Y5766907D01*
X3485794Y5771382D01*
X3488773Y5786363D01*
X3496907Y5789731D01*
X3510269Y5803093D01*
X3517500Y5820552D01*
Y5839448D01*
X3513212Y5849800D01*
X3521269Y5862500D01*
X3529448D01*
X3546907Y5869731D01*
X3560269Y5883093D01*
X3567500Y5900552D01*
Y5919448D01*
X3560269Y5936907D01*
X3546907Y5950269D01*
X3529448Y5957500D01*
X3510552D01*
X3493093Y5950269D01*
X3482700Y5939875D01*
X3470000Y5944074D01*
Y6200000D01*
X3728335D01*
X3732231Y6190593D01*
X3745593Y6177231D01*
X3763052Y6170000D01*
X3781948D01*
X3799407Y6177231D01*
X3812769Y6190593D01*
X3816665Y6200000D01*
X3900000D01*
Y5084551D01*
D02*
G37*
G36*
X2760000Y5987271D02*
X2743093Y5980269D01*
X2729731Y5966907D01*
X2722500Y5949448D01*
Y5930552D01*
X2729731Y5913093D01*
X2743093Y5899731D01*
X2760000Y5892729D01*
Y5710000D01*
X2280000Y5230000D01*
X1780000D01*
Y5350000D01*
X2190000D01*
X2550000Y5710000D01*
Y6430000D01*
X2760000D01*
Y5987271D01*
D02*
G37*
G36*
X1725000Y5350000D02*
Y5225000D01*
X1912500Y5037500D01*
Y5020552D01*
X1919731Y5003093D01*
X1933093Y4989731D01*
X1950552Y4982500D01*
X1967500D01*
X2025000Y4925000D01*
X2544516D01*
X2550552Y4922500D01*
X2569448D01*
X2575484Y4925000D01*
X2675000D01*
X2875000Y5125000D01*
X3025000D01*
X3075000Y5075000D01*
Y4975000D01*
X2825000Y4725000D01*
X2025000D01*
X1550000Y5200000D01*
X1400000D01*
X1300000Y5300000D01*
Y5475000D01*
X1350000Y5525000D01*
X1550000D01*
X1725000Y5350000D01*
D02*
G37*
G36*
X1950000Y4400000D02*
X2192729D01*
X2199731Y4383093D01*
X2213093Y4369731D01*
X2230552Y4362500D01*
X2249448D01*
X2266907Y4369731D01*
X2280269Y4383093D01*
X2287272Y4400000D01*
X2405449D01*
X2412500Y4389448D01*
Y4370552D01*
X2419731Y4353093D01*
X2433093Y4339731D01*
X2450552Y4332500D01*
X2469448D01*
X2486907Y4339731D01*
X2500269Y4353093D01*
X2507500Y4370552D01*
Y4389448D01*
X2514551Y4400000D01*
X3042728D01*
X3049731Y4383093D01*
X3063093Y4369731D01*
X3080552Y4362500D01*
X3099448D01*
X3116907Y4369731D01*
X3130269Y4383093D01*
X3137271Y4400000D01*
X3625000D01*
Y4175000D01*
X2250000D01*
X2249999Y2949998D01*
X1487176Y2949999D01*
X1486907Y2950269D01*
X1469448Y2957500D01*
X1450552D01*
X1433093Y2950269D01*
X1432824Y2949999D01*
X534073Y2950000D01*
X529875Y2962700D01*
X540269Y2973093D01*
X547500Y2990552D01*
Y3009448D01*
X540269Y3026907D01*
X526907Y3040269D01*
X509448Y3047500D01*
X490552D01*
X473093Y3040269D01*
X459731Y3026907D01*
X452500Y3009448D01*
Y2990552D01*
X459731Y2973093D01*
X470125Y2962700D01*
X465927Y2950000D01*
X300000Y2950000D01*
X200000Y3050000D01*
Y3595926D01*
X212700Y3600125D01*
X223093Y3589731D01*
X240552Y3582500D01*
X259448D01*
X276907Y3589731D01*
X290269Y3603093D01*
X297500Y3620552D01*
Y3639448D01*
X290269Y3656907D01*
X276907Y3670269D01*
X259448Y3677500D01*
X240552D01*
X223093Y3670269D01*
X212700Y3659876D01*
X200000Y3664074D01*
Y4312816D01*
X212700Y4317675D01*
X223611Y4306764D01*
X242356Y4299000D01*
X262645D01*
X281389Y4306764D01*
X295736Y4321111D01*
X303500Y4339855D01*
Y4360144D01*
X295736Y4378889D01*
X281389Y4393236D01*
X262645Y4401000D01*
X242356D01*
X223611Y4393236D01*
X212700Y4382325D01*
X200000Y4387184D01*
Y4425000D01*
X325000Y4550000D01*
X887016D01*
X893052Y4547500D01*
X911948D01*
X917984Y4550000D01*
X1115324D01*
X1115593Y4549731D01*
X1133052Y4542500D01*
X1151948D01*
X1169407Y4549731D01*
X1169675Y4550000D01*
X1226485D01*
X1229073Y4543752D01*
X1242435Y4530390D01*
X1247162Y4528431D01*
X1250703Y4513218D01*
X1245000Y4499448D01*
Y4480552D01*
X1252231Y4463093D01*
X1265593Y4449731D01*
X1283052Y4442500D01*
X1301948D01*
X1319407Y4449731D01*
X1332768Y4463093D01*
X1340000Y4480552D01*
Y4499448D01*
X1332768Y4516907D01*
X1319407Y4530268D01*
X1316080Y4545213D01*
X1319547Y4550000D01*
X1361090D01*
Y4533052D01*
X1368322Y4515593D01*
X1381684Y4502231D01*
X1399142Y4495000D01*
X1408571D01*
X1411841Y4490106D01*
Y4471210D01*
X1419073Y4453752D01*
X1432435Y4440390D01*
X1449893Y4433158D01*
X1468790D01*
X1486248Y4440390D01*
X1499610Y4453752D01*
X1506841Y4471210D01*
Y4490107D01*
X1499610Y4507565D01*
X1486248Y4520927D01*
X1468790Y4528158D01*
X1459360D01*
X1456091Y4533052D01*
Y4550000D01*
X1718427D01*
X1722625Y4537300D01*
X1712232Y4526907D01*
X1705000Y4509448D01*
Y4490552D01*
X1712232Y4473093D01*
X1725593Y4459731D01*
X1743052Y4452500D01*
X1761948D01*
X1779407Y4459731D01*
X1792769Y4473093D01*
X1800000Y4490552D01*
Y4509448D01*
X1792769Y4526907D01*
X1782375Y4537300D01*
X1786574Y4550000D01*
X1800000D01*
X1950000Y4400000D01*
D02*
G37*
%LPC*%
G36*
X3739448Y5787500D02*
X3720552D01*
X3703093Y5780269D01*
X3689731Y5766907D01*
X3682500Y5749448D01*
Y5730552D01*
X3687784Y5717794D01*
X3681766Y5710362D01*
X3678731Y5707500D01*
X3660552D01*
X3643093Y5700269D01*
X3629731Y5686907D01*
X3622500Y5669448D01*
Y5650552D01*
X3629731Y5633093D01*
X3643093Y5619731D01*
X3660552Y5612500D01*
X3679448D01*
X3696907Y5619731D01*
X3710269Y5633093D01*
X3717500Y5650552D01*
Y5669448D01*
X3712216Y5682206D01*
X3718234Y5689638D01*
X3721269Y5692500D01*
X3739448D01*
X3756907Y5699731D01*
X3770269Y5713093D01*
X3777500Y5730552D01*
Y5749448D01*
X3770269Y5766907D01*
X3756907Y5780269D01*
X3739448Y5787500D01*
D02*
G37*
G36*
X3599448Y5627500D02*
X3580552D01*
X3563093Y5620269D01*
X3549731Y5606907D01*
X3542500Y5589448D01*
Y5570552D01*
X3549731Y5553093D01*
X3563093Y5539731D01*
X3580552Y5532500D01*
X3599448D01*
X3616907Y5539731D01*
X3630269Y5553093D01*
X3637500Y5570552D01*
Y5589448D01*
X3630269Y5606907D01*
X3616907Y5620269D01*
X3599448Y5627500D01*
D02*
G37*
G36*
X3684448Y5422500D02*
X3665552D01*
X3648093Y5415269D01*
X3634731Y5401907D01*
X3627500Y5384448D01*
Y5365552D01*
X3634731Y5348093D01*
X3648093Y5334731D01*
X3665552Y5327500D01*
X3684448D01*
X3701907Y5334731D01*
X3715269Y5348093D01*
X3722500Y5365552D01*
Y5384448D01*
X3715269Y5401907D01*
X3701907Y5415269D01*
X3684448Y5422500D01*
D02*
G37*
G36*
X3929448Y4737500D02*
X3910552D01*
X3893093Y4730269D01*
X3879731Y4716907D01*
X3872500Y4699448D01*
Y4680552D01*
X3879731Y4663093D01*
X3893093Y4649731D01*
X3910552Y4642500D01*
X3929448D01*
X3946907Y4649731D01*
X3960269Y4663093D01*
X3967500Y4680552D01*
Y4699448D01*
X3960269Y4716907D01*
X3946907Y4730269D01*
X3929448Y4737500D01*
D02*
G37*
G36*
X3359448Y4697500D02*
X3340552D01*
X3323093Y4690269D01*
X3309731Y4676907D01*
X3302500Y4659448D01*
Y4641269D01*
X3299639Y4638235D01*
X3292206Y4632216D01*
X3279448Y4637500D01*
X3260552D01*
X3243093Y4630269D01*
X3229731Y4616907D01*
X3222500Y4599448D01*
Y4580552D01*
X3229731Y4563093D01*
X3243093Y4549731D01*
X3260552Y4542500D01*
X3279448D01*
X3296907Y4549731D01*
X3310269Y4563093D01*
X3317500Y4580552D01*
Y4598731D01*
X3320361Y4601765D01*
X3327794Y4607785D01*
X3340552Y4602500D01*
X3359448D01*
X3376907Y4609731D01*
X3390269Y4623093D01*
X3397500Y4640552D01*
Y4659448D01*
X3390269Y4676907D01*
X3376907Y4690269D01*
X3359448Y4697500D01*
D02*
G37*
G36*
X2479448Y4045000D02*
X2460552D01*
X2443093Y4037769D01*
X2429731Y4024407D01*
X2422500Y4006948D01*
Y3988052D01*
X2429731Y3970593D01*
X2443093Y3957231D01*
X2460552Y3950000D01*
X2479448D01*
X2496907Y3957231D01*
X2510269Y3970593D01*
X2517500Y3988052D01*
Y4006948D01*
X2510269Y4024407D01*
X2496907Y4037769D01*
X2479448Y4045000D01*
D02*
G37*
G36*
X3239448Y4027500D02*
X3220552D01*
X3203093Y4020269D01*
X3189731Y4006907D01*
X3182500Y3989448D01*
Y3970552D01*
X3189731Y3953093D01*
X3203093Y3939731D01*
X3209993Y3936873D01*
Y3923127D01*
X3203093Y3920269D01*
X3189731Y3906907D01*
X3182500Y3889448D01*
Y3870552D01*
X3189731Y3853093D01*
X3203093Y3839731D01*
X3220552Y3832500D01*
X3239448D01*
X3256907Y3839731D01*
X3270269Y3853093D01*
X3277500Y3870552D01*
Y3889448D01*
X3270269Y3906907D01*
X3256907Y3920269D01*
X3250007Y3923127D01*
Y3936873D01*
X3256907Y3939731D01*
X3270269Y3953093D01*
X3277500Y3970552D01*
Y3989448D01*
X3270269Y4006907D01*
X3256907Y4020269D01*
X3239448Y4027500D01*
D02*
G37*
G36*
X3979448Y3857500D02*
X3960552D01*
X3943093Y3850269D01*
X3929731Y3836907D01*
X3922500Y3819448D01*
Y3800552D01*
X3923308Y3798601D01*
X3914160Y3787500D01*
X3900552D01*
X3883093Y3780269D01*
X3869731Y3766907D01*
X3862500Y3749448D01*
Y3730552D01*
X3869731Y3713093D01*
X3883093Y3699731D01*
X3900552Y3692500D01*
X3919448D01*
X3936907Y3699731D01*
X3950269Y3713093D01*
X3957500Y3730552D01*
Y3749448D01*
X3956692Y3751398D01*
X3965840Y3762500D01*
X3979448D01*
X3996907Y3769731D01*
X4010269Y3783093D01*
X4017500Y3800552D01*
Y3819448D01*
X4010269Y3836907D01*
X3996907Y3850269D01*
X3979448Y3857500D01*
D02*
G37*
G36*
X2959448Y3687500D02*
X2940552D01*
X2923093Y3680269D01*
X2909731Y3666907D01*
X2902500Y3649448D01*
Y3630552D01*
X2909731Y3613093D01*
X2923093Y3599731D01*
X2940552Y3592500D01*
X2959448D01*
X2976907Y3599731D01*
X2990269Y3613093D01*
X2997500Y3630552D01*
Y3649448D01*
X2990269Y3666907D01*
X2976907Y3680269D01*
X2959448Y3687500D01*
D02*
G37*
G36*
X2679448Y3497500D02*
X2660552D01*
X2643093Y3490269D01*
X2629731Y3476907D01*
X2622500Y3459448D01*
Y3440552D01*
X2629731Y3423093D01*
X2643093Y3409731D01*
X2660552Y3402500D01*
X2679448D01*
X2696907Y3409731D01*
X2710269Y3423093D01*
X2717500Y3440552D01*
Y3459448D01*
X2710269Y3476907D01*
X2696907Y3490269D01*
X2679448Y3497500D01*
D02*
G37*
G36*
X2769448Y3427500D02*
X2750552D01*
X2733093Y3420269D01*
X2719731Y3406907D01*
X2712500Y3389448D01*
Y3370552D01*
X2719731Y3353093D01*
X2733093Y3339731D01*
X2750552Y3332500D01*
X2769448D01*
X2786907Y3339731D01*
X2800269Y3353093D01*
X2807500Y3370552D01*
Y3389448D01*
X2800269Y3406907D01*
X2786907Y3420269D01*
X2769448Y3427500D01*
D02*
G37*
G36*
X2749448Y3307500D02*
X2730552D01*
X2713093Y3300269D01*
X2699731Y3286907D01*
X2692500Y3269448D01*
Y3250552D01*
X2699731Y3233093D01*
X2713093Y3219731D01*
X2730552Y3212500D01*
X2749448D01*
X2766907Y3219731D01*
X2780269Y3233093D01*
X2787500Y3250552D01*
Y3269448D01*
X2780269Y3286907D01*
X2766907Y3300269D01*
X2749448Y3307500D01*
D02*
G37*
G36*
X2699448Y2887500D02*
X2680552D01*
X2663093Y2880269D01*
X2649731Y2866907D01*
X2642500Y2849448D01*
Y2830552D01*
X2649731Y2813093D01*
X2663093Y2799731D01*
X2680552Y2792500D01*
X2699448D01*
X2716907Y2799731D01*
X2730269Y2813093D01*
X2737500Y2830552D01*
Y2849448D01*
X2730269Y2866907D01*
X2716907Y2880269D01*
X2699448Y2887500D01*
D02*
G37*
G36*
X1889448Y2877500D02*
X1870552D01*
X1853093Y2870269D01*
X1839731Y2856907D01*
X1832500Y2839448D01*
Y2820552D01*
X1839731Y2803093D01*
X1853093Y2789731D01*
X1870552Y2782500D01*
X1889448D01*
X1906907Y2789731D01*
X1920269Y2803093D01*
X1927500Y2820552D01*
Y2839448D01*
X1920269Y2856907D01*
X1906907Y2870269D01*
X1889448Y2877500D01*
D02*
G37*
G36*
X2059448Y2817500D02*
X2040552D01*
X2023093Y2810269D01*
X2009731Y2796907D01*
X2002500Y2779448D01*
Y2760552D01*
X2009731Y2743093D01*
X2023093Y2729731D01*
X2040552Y2722500D01*
X2059448D01*
X2076907Y2729731D01*
X2090269Y2743093D01*
X2097500Y2760552D01*
Y2779448D01*
X2090269Y2796907D01*
X2076907Y2810269D01*
X2059448Y2817500D01*
D02*
G37*
G36*
X1929448Y2757500D02*
X1910552D01*
X1893093Y2750269D01*
X1879731Y2736907D01*
X1872500Y2719448D01*
Y2700552D01*
X1879731Y2683093D01*
X1893093Y2669731D01*
X1910552Y2662500D01*
X1929448D01*
X1946907Y2669731D01*
X1960269Y2683093D01*
X1967500Y2700552D01*
Y2719448D01*
X1960269Y2736907D01*
X1946907Y2750269D01*
X1929448Y2757500D01*
D02*
G37*
G36*
X2509448Y2697500D02*
X2490552D01*
X2473093Y2690269D01*
X2459731Y2676907D01*
X2452500Y2659448D01*
Y2640552D01*
X2459731Y2623093D01*
X2473093Y2609731D01*
X2490552Y2602500D01*
X2509448D01*
X2526907Y2609731D01*
X2540269Y2623093D01*
X2547500Y2640552D01*
Y2659448D01*
X2540269Y2676907D01*
X2526907Y2690269D01*
X2509448Y2697500D01*
D02*
G37*
G36*
X2395699Y2681250D02*
X2376802D01*
X2359344Y2674019D01*
X2345982Y2660657D01*
X2338750Y2643198D01*
Y2624302D01*
X2345982Y2606843D01*
X2359344Y2593481D01*
X2376802Y2586250D01*
X2395699D01*
X2413157Y2593481D01*
X2426519Y2606843D01*
X2433750Y2624302D01*
Y2643198D01*
X2426519Y2660657D01*
X2413157Y2674019D01*
X2395699Y2681250D01*
D02*
G37*
G36*
X1939448Y2627500D02*
X1920552D01*
X1903093Y2620269D01*
X1889731Y2606907D01*
X1882500Y2589448D01*
Y2570552D01*
X1889731Y2553093D01*
X1903093Y2539731D01*
X1920552Y2532500D01*
X1939448D01*
X1956907Y2539731D01*
X1970269Y2553093D01*
X1977500Y2570552D01*
Y2589448D01*
X1970269Y2606907D01*
X1956907Y2620269D01*
X1939448Y2627500D01*
D02*
G37*
G36*
X2659448Y2587500D02*
X2640552D01*
X2623093Y2580269D01*
X2609731Y2566907D01*
X2602500Y2549448D01*
Y2530552D01*
X2609731Y2513093D01*
X2623093Y2499731D01*
X2640552Y2492500D01*
X2659448D01*
X2676907Y2499731D01*
X2690269Y2513093D01*
X2697500Y2530552D01*
Y2549448D01*
X2690269Y2566907D01*
X2676907Y2580269D01*
X2659448Y2587500D01*
D02*
G37*
G36*
X699448Y4335000D02*
X680552D01*
X663093Y4327769D01*
X649731Y4314407D01*
X642500Y4296948D01*
Y4278052D01*
X649731Y4260593D01*
X663093Y4247231D01*
X680552Y4240000D01*
X699448D01*
X716907Y4247231D01*
X730269Y4260593D01*
X737500Y4278052D01*
Y4296948D01*
X730269Y4314407D01*
X716907Y4327769D01*
X699448Y4335000D01*
D02*
G37*
G36*
X1619448Y4247500D02*
X1600552D01*
X1583093Y4240269D01*
X1569731Y4226907D01*
X1562500Y4209448D01*
Y4197078D01*
X1561637Y4190133D01*
X1551053Y4185000D01*
X1421000D01*
Y4185000D01*
X1411773Y4180068D01*
X1408083Y4182534D01*
X1391500Y4185832D01*
X1336500D01*
X1319918Y4182534D01*
X1305859Y4173140D01*
X1296466Y4159082D01*
X1293168Y4142500D01*
Y4077500D01*
X1296466Y4060917D01*
X1305859Y4046859D01*
X1319918Y4037466D01*
X1336500Y4034167D01*
X1391500D01*
X1408083Y4037466D01*
X1411773Y4039932D01*
X1421000Y4035000D01*
Y4035000D01*
X1515471D01*
X1517998Y4022300D01*
X1513093Y4020269D01*
X1499731Y4006907D01*
X1492500Y3989448D01*
Y3970552D01*
X1499731Y3953093D01*
X1513093Y3939731D01*
X1530552Y3932500D01*
X1549448D01*
X1566907Y3939731D01*
X1580269Y3953093D01*
X1587500Y3970552D01*
Y3989448D01*
X1580269Y4006907D01*
X1566907Y4020269D01*
X1561501Y4022508D01*
X1561000Y4035000D01*
X1561000Y4036462D01*
Y4163864D01*
X1573700Y4169125D01*
X1583093Y4159731D01*
X1600552Y4152500D01*
X1619448D01*
X1636907Y4159731D01*
X1650269Y4173093D01*
X1657500Y4190552D01*
Y4209448D01*
X1650269Y4226907D01*
X1636907Y4240269D01*
X1619448Y4247500D01*
D02*
G37*
G36*
X1137500Y4185832D02*
X1082500D01*
X1065918Y4182534D01*
X1055009Y4175245D01*
X1046500Y4173954D01*
X1037991Y4175245D01*
X1027083Y4182534D01*
X1010500Y4185832D01*
X955500D01*
X938918Y4182534D01*
X928009Y4175245D01*
X919500Y4173954D01*
X910991Y4175245D01*
X900083Y4182534D01*
X883500Y4185832D01*
X828500D01*
X811918Y4182534D01*
X797859Y4173140D01*
X788466Y4159082D01*
X785168Y4142500D01*
Y4077500D01*
X788466Y4060917D01*
X797859Y4046859D01*
X811918Y4037466D01*
X828500Y4034167D01*
X883500D01*
X900083Y4037466D01*
X910991Y4044755D01*
X919500Y4046046D01*
X928009Y4044755D01*
X938918Y4037466D01*
X955500Y4034167D01*
X1010500D01*
X1027083Y4037466D01*
X1037991Y4044755D01*
X1046500Y4046046D01*
X1055009Y4044755D01*
X1065918Y4037466D01*
X1082500Y4034167D01*
X1137500D01*
X1154083Y4037466D01*
X1168141Y4046859D01*
X1177534Y4060917D01*
X1180833Y4077500D01*
Y4142500D01*
X1177534Y4159082D01*
X1168141Y4173140D01*
X1154083Y4182534D01*
X1137500Y4185832D01*
D02*
G37*
G36*
X419448Y4157500D02*
X400552D01*
X383093Y4150269D01*
X369731Y4136907D01*
X362500Y4119448D01*
Y4100552D01*
X369731Y4083093D01*
X383093Y4069731D01*
X400552Y4062500D01*
X419448D01*
X436907Y4069731D01*
X450269Y4083093D01*
X457500Y4100552D01*
Y4119448D01*
X450269Y4136907D01*
X436907Y4150269D01*
X419448Y4157500D01*
D02*
G37*
G36*
X469448Y4037500D02*
X450552D01*
X433093Y4030269D01*
X419731Y4016907D01*
X412500Y3999448D01*
Y3980552D01*
X419731Y3963093D01*
X433093Y3949731D01*
X450552Y3942500D01*
X469448D01*
X486907Y3949731D01*
X500269Y3963093D01*
X507500Y3980552D01*
Y3999448D01*
X500269Y4016907D01*
X486907Y4030269D01*
X469448Y4037500D01*
D02*
G37*
G36*
X1989448Y4187500D02*
X1970552D01*
X1953093Y4180269D01*
X1939731Y4166907D01*
X1932500Y4149448D01*
Y4130552D01*
X1939731Y4113093D01*
X1953093Y4099731D01*
X1970234Y4092632D01*
X1970722Y4091359D01*
X1972443Y4079800D01*
X1963093Y4075927D01*
X1949731Y4062565D01*
X1942500Y4045107D01*
Y4026210D01*
X1949731Y4008752D01*
X1958289Y4000194D01*
X1958416Y3999239D01*
X1954892Y3986087D01*
X1942435Y3980927D01*
X1929073Y3967565D01*
X1921841Y3950107D01*
Y3931210D01*
X1929073Y3913752D01*
X1942435Y3900390D01*
X1959893Y3893159D01*
X1978790D01*
X1996248Y3900390D01*
X2009610Y3913752D01*
X2016842Y3931210D01*
Y3950107D01*
X2009610Y3967565D01*
X2001053Y3976123D01*
X2000925Y3977078D01*
X2004450Y3990230D01*
X2016907Y3995390D01*
X2030269Y4008752D01*
X2037500Y4026210D01*
Y4045107D01*
X2030269Y4062565D01*
X2016907Y4075927D01*
X1999766Y4083027D01*
X1999278Y4084300D01*
X1997557Y4095859D01*
X2006907Y4099731D01*
X2020269Y4113093D01*
X2027500Y4130552D01*
Y4149448D01*
X2020269Y4166907D01*
X2006907Y4180269D01*
X1989448Y4187500D01*
D02*
G37*
G36*
X1119448Y3977500D02*
X1100552D01*
X1083093Y3970269D01*
X1069731Y3956907D01*
X1062500Y3939448D01*
Y3920552D01*
X1069731Y3903093D01*
X1083093Y3889731D01*
X1100552Y3882500D01*
X1119448D01*
X1136907Y3889731D01*
X1150269Y3903093D01*
X1157500Y3920552D01*
Y3939448D01*
X1150269Y3956907D01*
X1136907Y3970269D01*
X1119448Y3977500D01*
D02*
G37*
G36*
X739448Y4057500D02*
X720552D01*
X703093Y4050269D01*
X689731Y4036907D01*
X682500Y4019448D01*
Y4000552D01*
X689731Y3983093D01*
X703093Y3969731D01*
X718298Y3963434D01*
X721746Y3955182D01*
X722625Y3949800D01*
X719731Y3946907D01*
X712500Y3929448D01*
Y3910552D01*
X719731Y3893093D01*
X733093Y3879731D01*
X750552Y3872500D01*
X769448D01*
X786907Y3879731D01*
X800269Y3893093D01*
X807500Y3910552D01*
Y3929448D01*
X800269Y3946907D01*
X786907Y3960269D01*
X771703Y3966566D01*
X768254Y3974818D01*
X767375Y3980200D01*
X770269Y3983093D01*
X777500Y4000552D01*
Y4019448D01*
X770269Y4036907D01*
X756907Y4050269D01*
X739448Y4057500D01*
D02*
G37*
G36*
X1465000Y3977000D02*
X1315000D01*
Y3837000D01*
X1315000D01*
X1319932Y3827773D01*
X1317466Y3824083D01*
X1314168Y3807500D01*
Y3752500D01*
X1317466Y3735918D01*
X1324755Y3725009D01*
X1326046Y3716500D01*
X1324755Y3707991D01*
X1317466Y3697083D01*
X1314168Y3680500D01*
Y3625500D01*
X1317466Y3608918D01*
X1326859Y3594859D01*
X1340918Y3585466D01*
X1357500Y3582168D01*
X1422500D01*
X1439082Y3585466D01*
X1453141Y3594859D01*
X1462534Y3608918D01*
X1465832Y3625500D01*
Y3680500D01*
X1462534Y3697083D01*
X1455245Y3707991D01*
X1453954Y3716500D01*
X1455245Y3725009D01*
X1462534Y3735918D01*
X1465832Y3752500D01*
Y3807500D01*
X1462534Y3824083D01*
X1460068Y3827773D01*
X1465000Y3837000D01*
X1465000D01*
Y3977000D01*
D02*
G37*
G36*
X2009448Y3847500D02*
X1990552D01*
X1973093Y3840269D01*
X1959731Y3826907D01*
X1952500Y3809448D01*
Y3790552D01*
X1959731Y3773093D01*
X1973093Y3759731D01*
X1980295Y3756748D01*
X1988846Y3747802D01*
X1986544Y3741460D01*
X1981841Y3730107D01*
Y3711210D01*
X1989073Y3693752D01*
X2002435Y3680390D01*
X2019893Y3673159D01*
X2038790D01*
X2056248Y3680390D01*
X2069610Y3693752D01*
X2076841Y3711210D01*
Y3730107D01*
X2069610Y3747565D01*
X2056248Y3760927D01*
X2049046Y3763910D01*
X2040495Y3772857D01*
X2042798Y3779199D01*
X2047500Y3790552D01*
Y3809448D01*
X2040269Y3826907D01*
X2026907Y3840269D01*
X2009448Y3847500D01*
D02*
G37*
G36*
X1169448Y3617500D02*
X1150552D01*
X1133093Y3610269D01*
X1119731Y3596907D01*
X1112500Y3579448D01*
Y3560552D01*
X1119731Y3543093D01*
X1133093Y3529731D01*
X1150552Y3522500D01*
X1169448D01*
X1186907Y3529731D01*
X1200269Y3543093D01*
X1207500Y3560552D01*
Y3579448D01*
X1200269Y3596907D01*
X1186907Y3610269D01*
X1169448Y3617500D01*
D02*
G37*
G36*
X1019448Y3407500D02*
X1000552D01*
X983093Y3400269D01*
X969731Y3386907D01*
X962500Y3369448D01*
Y3350552D01*
X969731Y3333093D01*
X983093Y3319731D01*
X1000552Y3312500D01*
X1019448D01*
X1036907Y3319731D01*
X1050269Y3333093D01*
X1057500Y3350552D01*
Y3369448D01*
X1050269Y3386907D01*
X1036907Y3400269D01*
X1019448Y3407500D01*
D02*
G37*
G36*
X859448D02*
X840552D01*
X823093Y3400269D01*
X809731Y3386907D01*
X802500Y3369448D01*
Y3350552D01*
X809731Y3333093D01*
X823093Y3319731D01*
X840552Y3312500D01*
X859448D01*
X876907Y3319731D01*
X890269Y3333093D01*
X897500Y3350552D01*
Y3369448D01*
X890269Y3386907D01*
X876907Y3400269D01*
X859448Y3407500D01*
D02*
G37*
G36*
X369448Y3287500D02*
X350552D01*
X333093Y3280269D01*
X319731Y3266907D01*
X312500Y3249448D01*
Y3230552D01*
X319731Y3213093D01*
X333093Y3199731D01*
X350552Y3192500D01*
X369448D01*
X386907Y3199731D01*
X400269Y3213093D01*
X407500Y3230552D01*
Y3249448D01*
X400269Y3266907D01*
X386907Y3280269D01*
X369448Y3287500D01*
D02*
G37*
G36*
X1849448Y3217500D02*
X1830552D01*
X1813093Y3210269D01*
X1799731Y3196907D01*
X1792500Y3179448D01*
Y3160552D01*
X1799731Y3143093D01*
X1813093Y3129731D01*
X1830552Y3122500D01*
X1849448D01*
X1866907Y3129731D01*
X1880269Y3143093D01*
X1887500Y3160552D01*
Y3179448D01*
X1880269Y3196907D01*
X1866907Y3210269D01*
X1849448Y3217500D01*
D02*
G37*
G36*
X1379448Y3117500D02*
X1360552D01*
X1343093Y3110269D01*
X1329731Y3096907D01*
X1322500Y3079448D01*
Y3060552D01*
X1329731Y3043093D01*
X1343093Y3029731D01*
X1360552Y3022500D01*
X1379448D01*
X1396907Y3029731D01*
X1410269Y3043093D01*
X1417500Y3060552D01*
Y3079448D01*
X1410269Y3096907D01*
X1396907Y3110269D01*
X1379448Y3117500D01*
D02*
G37*
G36*
X1879448Y3077500D02*
X1860552D01*
X1843093Y3070269D01*
X1829731Y3056907D01*
X1822500Y3039448D01*
Y3020552D01*
X1829731Y3003093D01*
X1843093Y2989731D01*
X1860552Y2982500D01*
X1879448D01*
X1896907Y2989731D01*
X1910269Y3003093D01*
X1917500Y3020552D01*
Y3039448D01*
X1910269Y3056907D01*
X1896907Y3070269D01*
X1879448Y3077500D01*
D02*
G37*
%LPD*%
D70*
X252500Y4350000D02*
D03*
X72500D02*
D03*
D71*
X1390000Y3780000D02*
D03*
Y3653000D02*
D03*
D72*
Y3907000D02*
D03*
D73*
X1364000Y4110000D02*
D03*
X1110000D02*
D03*
X1237000D02*
D03*
X856000D02*
D03*
X983000D02*
D03*
D74*
X1491000D02*
D03*
D75*
X4360000Y4410000D02*
D03*
X236000Y6740000D02*
D03*
D76*
X4360000Y4156000D02*
D03*
D77*
X931000Y4865000D02*
D03*
X804000D02*
D03*
X677000D02*
D03*
X550000D02*
D03*
D78*
X423000D02*
D03*
D79*
X490000Y6740000D02*
D03*
D80*
X360000Y5170000D02*
D03*
X250000Y3630000D02*
D03*
X2810000Y260000D02*
D03*
X2300000D02*
D03*
X2160000D02*
D03*
X330000Y4760000D02*
D03*
X4180304Y5351369D02*
D03*
X3160000Y3312500D02*
D03*
X2950000Y3640000D02*
D03*
X3230000Y3980000D02*
D03*
Y3880000D02*
D03*
X2300000Y2980000D02*
D03*
X1460000Y2820000D02*
D03*
X1370000Y3070000D02*
D03*
X2050000Y5870000D02*
D03*
X930000Y5320001D02*
D03*
X3010000Y2490000D02*
D03*
X3090000Y4410000D02*
D03*
X3920000Y4690000D02*
D03*
X4450000Y5540000D02*
D03*
Y5430000D02*
D03*
X4150000Y5900000D02*
D03*
X4040000Y6070000D02*
D03*
X4630000Y6210000D02*
D03*
X2630000Y3790000D02*
D03*
X2470000Y3997500D02*
D03*
X850000Y3360000D02*
D03*
X1160000Y3570000D02*
D03*
X1110000Y3930000D02*
D03*
X1550000Y5070000D02*
D03*
X450000Y5250000D02*
D03*
X700000Y5100000D02*
D03*
X600000Y5250000D02*
D03*
Y5400000D02*
D03*
X700000Y5500000D02*
D03*
X150000Y6500000D02*
D03*
Y6400000D02*
D03*
Y6300000D02*
D03*
Y6200000D02*
D03*
Y6100000D02*
D03*
Y6000000D02*
D03*
Y5900000D02*
D03*
Y5800000D02*
D03*
Y5700000D02*
D03*
Y5600000D02*
D03*
Y5500000D02*
D03*
Y5400000D02*
D03*
Y5300000D02*
D03*
X90000Y4170000D02*
D03*
Y4530000D02*
D03*
X4640000Y1100000D02*
D03*
X4780000D02*
D03*
X4770000Y750000D02*
D03*
X4630000D02*
D03*
X2790000Y1750000D02*
D03*
X2590000D02*
D03*
X2240000Y1760000D02*
D03*
X2040000Y1130000D02*
D03*
X2240000Y750000D02*
D03*
X2590000D02*
D03*
X2880000D02*
D03*
X3440000Y990000D02*
D03*
Y1230000D02*
D03*
Y1450000D02*
D03*
X2380000Y5170000D02*
D03*
X2560000Y4970000D02*
D03*
X1960000Y5030000D02*
D03*
X2040000Y4670000D02*
D03*
X1390000Y4860000D02*
D03*
X1370000Y5750000D02*
D03*
X1630000Y5770000D02*
D03*
Y5870000D02*
D03*
X1600000Y5960000D02*
D03*
X1490000D02*
D03*
X3450000Y5370000D02*
D03*
Y5460000D02*
D03*
Y5550000D02*
D03*
Y5650000D02*
D03*
Y5740000D02*
D03*
X3470000Y5830000D02*
D03*
X3520000Y5910000D02*
D03*
X1800000Y6350000D02*
D03*
X3330000D02*
D03*
X3820000Y6440000D02*
D03*
X3560000Y6460000D02*
D03*
X3700000Y6680000D02*
D03*
X4130000Y6580000D02*
D03*
X4250000D02*
D03*
X4280000Y6220000D02*
D03*
X4310000Y6400000D02*
D03*
X4130000Y6480000D02*
D03*
X4550000Y6460000D02*
D03*
X4760000Y6730000D02*
D03*
X4770000Y6020000D02*
D03*
X4860000Y5690000D02*
D03*
Y4880000D02*
D03*
X4800000Y3940000D02*
D03*
X4810000Y4620000D02*
D03*
X4620000Y4760000D02*
D03*
X4710000D02*
D03*
X4380000Y4550000D02*
D03*
X4090000Y4490000D02*
D03*
X4100000Y4570000D02*
D03*
X3460000Y4470000D02*
D03*
X3270000Y4590000D02*
D03*
X3350000Y4650000D02*
D03*
X4610000Y3260000D02*
D03*
X3480000Y3110000D02*
D03*
X3350000D02*
D03*
X3200000Y2590000D02*
D03*
X2690000Y2840000D02*
D03*
X2740000Y3260000D02*
D03*
X2760000Y3380000D02*
D03*
X2670000Y3450000D02*
D03*
X2330000Y4040000D02*
D03*
X2240000Y4410000D02*
D03*
X2460000Y4380000D02*
D03*
X1980000Y4140000D02*
D03*
X660000Y4700000D02*
D03*
X540000Y4730000D02*
D03*
X430000D02*
D03*
X520000Y4290000D02*
D03*
Y4400000D02*
D03*
X640000D02*
D03*
X80000Y3540000D02*
D03*
Y3430000D02*
D03*
Y3310000D02*
D03*
X100000Y2710000D02*
D03*
X180000Y2410000D02*
D03*
X270000Y2320000D02*
D03*
X2950000Y2240000D02*
D03*
X3270000Y380000D02*
D03*
X2940000Y390000D02*
D03*
X2830000D02*
D03*
X2775659Y2255659D02*
D03*
X4380000Y2060000D02*
D03*
X4360000Y1980000D02*
D03*
X4210000Y1840000D02*
D03*
X4130000D02*
D03*
X4050000D02*
D03*
X4860000Y2060000D02*
D03*
X4780000D02*
D03*
X4700000D02*
D03*
X4620000D02*
D03*
X4540000D02*
D03*
X4460000D02*
D03*
X4940000Y1820000D02*
D03*
Y1900000D02*
D03*
Y1980000D02*
D03*
Y2060000D02*
D03*
Y1340000D02*
D03*
Y1420000D02*
D03*
Y1500000D02*
D03*
Y1580000D02*
D03*
Y1660000D02*
D03*
Y1740000D02*
D03*
X4620000Y1260000D02*
D03*
X4700000D02*
D03*
X4780000D02*
D03*
X4860000D02*
D03*
X4940000D02*
D03*
X4140000D02*
D03*
X4220000D02*
D03*
X4300000D02*
D03*
X4380000D02*
D03*
X4460000D02*
D03*
X4540000D02*
D03*
X4060000Y1500000D02*
D03*
Y1420000D02*
D03*
Y1340000D02*
D03*
Y1260000D02*
D03*
Y1580000D02*
D03*
X4140000D02*
D03*
X4220000D02*
D03*
X4300000D02*
D03*
X4310000Y1500000D02*
D03*
X4320000Y1420000D02*
D03*
X4400000Y1400000D02*
D03*
X4480000D02*
D03*
X4560000D02*
D03*
X4640000D02*
D03*
X4720000D02*
D03*
X4790000Y1450000D02*
D03*
Y1530000D02*
D03*
Y1610000D02*
D03*
Y1690000D02*
D03*
Y1770000D02*
D03*
Y1850000D02*
D03*
X4770000Y1930000D02*
D03*
X4690000D02*
D03*
X4610000D02*
D03*
X4530000D02*
D03*
X4450000D02*
D03*
X4370000Y1900000D02*
D03*
X4330000Y1830000D02*
D03*
X4290000Y1760000D02*
D03*
X4210000D02*
D03*
X4130000D02*
D03*
X4050000D02*
D03*
X1370000D02*
D03*
X1310000Y1820000D02*
D03*
X1370000Y1890000D02*
D03*
X1340000Y1970000D02*
D03*
X1260000D02*
D03*
X1180000D02*
D03*
X1100000D02*
D03*
X1020000D02*
D03*
X940000D02*
D03*
X860000D02*
D03*
X780000D02*
D03*
X700000D02*
D03*
X620000D02*
D03*
X540000D02*
D03*
X460000D02*
D03*
X380000D02*
D03*
X300000D02*
D03*
X220000D02*
D03*
X140000D02*
D03*
X60000Y1970000D02*
D03*
Y1890000D02*
D03*
Y1810000D02*
D03*
Y1730000D02*
D03*
Y1650000D02*
D03*
Y1570000D02*
D03*
Y1490000D02*
D03*
Y1410000D02*
D03*
Y1330000D02*
D03*
Y1250000D02*
D03*
Y1170000D02*
D03*
Y1090000D02*
D03*
Y1010000D02*
D03*
Y930000D02*
D03*
Y850000D02*
D03*
Y770000D02*
D03*
Y690000D02*
D03*
Y610000D02*
D03*
Y530000D02*
D03*
Y450000D02*
D03*
Y370000D02*
D03*
Y290000D02*
D03*
Y210000D02*
D03*
Y130000D02*
D03*
X110000Y60000D02*
D03*
X190000D02*
D03*
X270000D02*
D03*
X350000D02*
D03*
X430000D02*
D03*
X510000D02*
D03*
X590000D02*
D03*
X670000D02*
D03*
X750000D02*
D03*
X830000D02*
D03*
X910000D02*
D03*
X990000D02*
D03*
X1070000D02*
D03*
X1150000D02*
D03*
X1230000D02*
D03*
X1310000D02*
D03*
X1390000Y90000D02*
D03*
Y170000D02*
D03*
Y250000D02*
D03*
Y330000D02*
D03*
Y410000D02*
D03*
Y490000D02*
D03*
Y570000D02*
D03*
Y650000D02*
D03*
Y730000D02*
D03*
X1340000Y1490000D02*
D03*
X1260000D02*
D03*
X1180000Y1460000D02*
D03*
X1150000Y1390000D02*
D03*
X1070000D02*
D03*
X990000Y1400000D02*
D03*
Y1480000D02*
D03*
X920000Y1450000D02*
D03*
X910000Y1370000D02*
D03*
X960000Y1320000D02*
D03*
X1040000Y1310000D02*
D03*
X1120000D02*
D03*
X1200000D02*
D03*
X1260000Y1250000D02*
D03*
Y1170000D02*
D03*
Y1090000D02*
D03*
X1160000Y1010000D02*
D03*
X1240000D02*
D03*
X1320000D02*
D03*
X1400000D02*
D03*
X1390000Y810000D02*
D03*
X1310000D02*
D03*
X1230000D02*
D03*
X1150000D02*
D03*
X1070000D02*
D03*
X990000D02*
D03*
Y890000D02*
D03*
Y970000D02*
D03*
Y1050000D02*
D03*
Y1120000D02*
D03*
X910000Y1130000D02*
D03*
Y1050000D02*
D03*
X840000Y1010000D02*
D03*
X760000D02*
D03*
X680000D02*
D03*
Y930000D02*
D03*
X650000Y850000D02*
D03*
X570000D02*
D03*
X490000D02*
D03*
X410000D02*
D03*
X330000D02*
D03*
X250000D02*
D03*
X190000Y910000D02*
D03*
Y990000D02*
D03*
Y1070000D02*
D03*
Y1150000D02*
D03*
Y1230000D02*
D03*
Y1310000D02*
D03*
X240000Y1380000D02*
D03*
X320000D02*
D03*
X400000D02*
D03*
X480000D02*
D03*
X560000D02*
D03*
X640000D02*
D03*
Y1300000D02*
D03*
Y1220000D02*
D03*
X720000D02*
D03*
Y1300000D02*
D03*
Y1380000D02*
D03*
Y1460000D02*
D03*
X750000Y1540000D02*
D03*
X810000Y1600000D02*
D03*
X880000Y1650000D02*
D03*
X960000Y1680000D02*
D03*
X1040000D02*
D03*
X1120000D02*
D03*
X1200000D02*
D03*
X1280000D02*
D03*
X1360000D02*
D03*
X1860000Y2410000D02*
D03*
X1750000D02*
D03*
X1470000Y2430000D02*
D03*
X1340000D02*
D03*
X1210000D02*
D03*
X3880000Y5030000D02*
D03*
X2860000Y5570000D02*
D03*
Y5420000D02*
D03*
X4882500Y6310000D02*
D03*
X4540000Y6360000D02*
D03*
X2210000Y3010000D02*
D03*
X1670000Y3060000D02*
D03*
X1000000Y3037500D02*
D03*
X1980000Y4250000D02*
D03*
X360000Y3240000D02*
D03*
X500000Y3000000D02*
D03*
X1930000Y2580000D02*
D03*
X1920000Y2710000D02*
D03*
X290000Y3410000D02*
D03*
X1090000Y2790000D02*
D03*
X860000Y2852500D02*
D03*
X730000D02*
D03*
X1000000D02*
D03*
X1090000Y2690000D02*
D03*
X1010000Y2500000D02*
D03*
X910000D02*
D03*
X810000D02*
D03*
X700000D02*
D03*
X4250000Y5910000D02*
D03*
X4440000Y5860000D02*
D03*
X4080000Y3910000D02*
D03*
X3700000Y6010000D02*
D03*
Y6130000D02*
D03*
X2770000Y5940000D02*
D03*
X2830000Y6310000D02*
D03*
X2710000Y6290000D02*
D03*
Y6380000D02*
D03*
X2610000D02*
D03*
Y6290000D02*
D03*
X2070000Y5300000D02*
D03*
X1950000D02*
D03*
X1840000D02*
D03*
X3675000Y5375000D02*
D03*
X3550000Y4275000D02*
D03*
X3425000D02*
D03*
X3525000Y4825000D02*
D03*
X3425000D02*
D03*
X3325000D02*
D03*
X3225000D02*
D03*
X2950000Y4950000D02*
D03*
X3000000Y5050000D02*
D03*
X2900000D02*
D03*
X1510000Y4854216D02*
D03*
X1520000Y5395000D02*
D03*
X1375000Y5430000D02*
D03*
X1370000Y5317500D02*
D03*
X902500Y4595000D02*
D03*
X887500Y4687500D02*
D03*
X3772500Y6217500D02*
D03*
X1142500Y4590000D02*
D03*
X690000Y4287500D02*
D03*
X410000Y4110000D02*
D03*
X4557500Y6932500D02*
D03*
X1408591Y4542500D02*
D03*
X1350000Y4655000D02*
D03*
X1459341Y4480658D02*
D03*
X1152500Y4687500D02*
D03*
X1269341Y4570658D02*
D03*
X1292500Y4490000D02*
D03*
X3940000Y6660000D02*
D03*
X3970000Y3810000D02*
D03*
X4560000Y5860000D02*
D03*
X3910000Y3740000D02*
D03*
X3730000Y5740000D02*
D03*
X4210000Y4680000D02*
D03*
X1990000Y4035659D02*
D03*
X1969342Y3940659D02*
D03*
X1752500Y4500000D02*
D03*
X730000Y4010000D02*
D03*
X460000Y3990000D02*
D03*
X1540000Y3980000D02*
D03*
X760000Y3920000D02*
D03*
X1010000Y3360000D02*
D03*
X1880000Y2830000D02*
D03*
X1460000Y2910000D02*
D03*
X2029341Y3720659D02*
D03*
X2000000Y3800000D02*
D03*
X1460000Y5290000D02*
D03*
X3590000Y5580000D02*
D03*
X3670000Y5660000D02*
D03*
X1870000Y3030000D02*
D03*
X1840000Y3170000D02*
D03*
X1300000Y5970000D02*
D03*
X1220000Y5370000D02*
D03*
Y5290000D02*
D03*
X983817Y5017500D02*
D03*
X600000Y5550000D02*
D03*
X1830000Y260000D02*
D03*
X2050000Y2770000D02*
D03*
X4350000Y750000D02*
D03*
X2500000Y2650000D02*
D03*
X2386250Y2633750D02*
D03*
X4350000Y1110000D02*
D03*
X2650000Y2540000D02*
D03*
X470000Y2080000D02*
D03*
X1610000Y4200000D02*
D03*
X2856020Y5698520D02*
D03*
X3120000Y5910000D02*
D03*
X2850000Y5280000D02*
D03*
X3100000Y5680000D02*
D03*
%TF.MD5,cbe401a77433bd76d8be9bfeac762e58*%
M02*
