%TF.GenerationSoftware,Altium Limited,Altium Designer,21.2.2 (38)*%
G04 Layer_Color=8421504*
%FSLAX45Y45*%
%MOMM*%
%TF.SameCoordinates,215B76EA-4B9E-490E-954B-DD862D4548B8*%
%TF.FilePolarity,Positive*%
%TF.FileFunction,Paste,Top*%
%TF.Part,Single*%
G01*
G75*
%TA.AperFunction,SMDPad,CuDef*%
%ADD11O,0.50000X1.00000*%
%ADD12R,0.30000X1.45000*%
%ADD13R,0.60000X0.50000*%
%ADD14R,0.80000X0.90000*%
%ADD15R,1.10000X1.40000*%
%ADD16R,0.37500X0.35000*%
%ADD17R,0.35000X0.37500*%
%ADD18R,0.90000X0.80000*%
%ADD19R,0.50000X0.60000*%
%ADD20O,0.60000X1.45000*%
%ADD21R,0.50000X0.30000*%
%ADD22R,0.70000X0.30000*%
%ADD23R,0.95000X1.95000*%
%ADD24R,3.50000X1.00000*%
%ADD25R,3.40000X1.50000*%
%TA.AperFunction,ConnectorPad*%
%ADD26R,1.35000X0.40000*%
%ADD27R,1.90000X1.80000*%
%TA.AperFunction,SMDPad,CuDef*%
G04:AMPARAMS|DCode=28|XSize=0.5mm|YSize=0.25mm|CornerRadius=0.0625mm|HoleSize=0mm|Usage=FLASHONLY|Rotation=90.000|XOffset=0mm|YOffset=0mm|HoleType=Round|Shape=RoundedRectangle|*
%AMROUNDEDRECTD28*
21,1,0.50000,0.12500,0,0,90.0*
21,1,0.37500,0.25000,0,0,90.0*
1,1,0.12500,0.06250,0.18750*
1,1,0.12500,0.06250,-0.18750*
1,1,0.12500,-0.06250,-0.18750*
1,1,0.12500,-0.06250,0.18750*
%
%ADD28ROUNDEDRECTD28*%
%ADD29R,0.25000X0.50000*%
%ADD30R,1.35000X0.65000*%
%ADD31R,0.67000X0.30000*%
%ADD32R,0.40000X0.80000*%
%ADD33R,2.40000X1.50000*%
G04:AMPARAMS|DCode=34|XSize=0.5mm|YSize=0.6mm|CornerRadius=0mm|HoleSize=0mm|Usage=FLASHONLY|Rotation=270.000|XOffset=0mm|YOffset=0mm|HoleType=Round|Shape=Octagon|*
%AMOCTAGOND34*
4,1,8,0.30000,0.12500,0.30000,-0.12500,0.17500,-0.25000,-0.17500,-0.25000,-0.30000,-0.12500,-0.30000,0.12500,-0.17500,0.25000,0.17500,0.25000,0.30000,0.12500,0.0*
%
%ADD34OCTAGOND34*%

%ADD35R,0.60000X1.10000*%
%ADD36R,2.70000X3.00000*%
%ADD37R,0.30000X1.20000*%
%ADD38R,1.40000X1.10000*%
%ADD39R,4.00000X2.00000*%
%ADD40R,1.10000X0.60000*%
%ADD41R,0.55000X2.00000*%
%ADD42R,1.00000X2.00000*%
%ADD43R,1.80000X2.40000*%
%ADD47R,0.30000X1.20000*%
%ADD48R,1.20000X0.30000*%
%ADD49R,0.30000X0.50000*%
%ADD50R,0.90000X1.20000*%
%ADD51R,0.50000X0.20000*%
%ADD52R,0.65000X0.20000*%
%ADD53R,0.20000X0.50000*%
%ADD54R,0.20000X0.65000*%
%ADD55R,2.00000X1.50000*%
%ADD56R,0.25000X0.36000*%
%ADD57R,1.60000X0.30000*%
%ADD58R,1.60000X1.60000*%
%ADD59R,0.80000X0.90000*%
%ADD60R,2.20000X1.05000*%
%ADD61R,1.05000X1.00000*%
%ADD62O,1.40000X0.45000*%
G04:AMPARAMS|DCode=63|XSize=0.96mm|YSize=0.5mm|CornerRadius=0.125mm|HoleSize=0mm|Usage=FLASHONLY|Rotation=0.000|XOffset=0mm|YOffset=0mm|HoleType=Round|Shape=RoundedRectangle|*
%AMROUNDEDRECTD63*
21,1,0.96000,0.25000,0,0,0.0*
21,1,0.71000,0.50000,0,0,0.0*
1,1,0.25000,0.35500,-0.12500*
1,1,0.25000,-0.35500,-0.12500*
1,1,0.25000,-0.35500,0.12500*
1,1,0.25000,0.35500,0.12500*
%
%ADD63ROUNDEDRECTD63*%
%ADD64R,0.96000X0.50000*%
%ADD65R,3.40000X3.80000*%
%TA.AperFunction,NonConductor*%
%ADD104R,1.55000X0.75000*%
%ADD105R,0.75000X1.55000*%
%TA.AperFunction,BGAPad,CuDef*%
%ADD106R,1.05000X1.05000*%
G36*
X3489000Y2331500D02*
X3349000D01*
Y2236500D01*
X3489000D01*
Y2331500D01*
D02*
G37*
G36*
Y3488500D02*
X3349000D01*
Y3583500D01*
X3489000D01*
Y3488500D01*
D02*
G37*
G36*
X4786000Y2307500D02*
X4691000D01*
Y2427500D01*
X4786000D01*
Y2307500D01*
D02*
G37*
G36*
Y3392500D02*
X4691000D01*
Y3512500D01*
X4786000D01*
Y3392500D01*
D02*
G37*
G36*
X4525000Y4870000D02*
Y5080000D01*
X4685000D01*
Y4870000D01*
X4525000D01*
D02*
G37*
G36*
X4765000Y5070000D02*
Y5260000D01*
X4955000D01*
Y5070000D01*
X4765000D01*
D02*
G37*
G36*
X4525000Y5490000D02*
Y5700000D01*
X4685000D01*
Y5490000D01*
X4525000D01*
D02*
G37*
G36*
X4765000Y5310000D02*
Y5500000D01*
X4955000D01*
Y5310000D01*
X4765000D01*
D02*
G37*
D11*
X4115000Y5505000D02*
D03*
X4210000D02*
D03*
X4305000D02*
D03*
X4115000Y5775000D02*
D03*
X4210000D02*
D03*
X4305000D02*
D03*
D12*
X2790000Y4250000D02*
D03*
X2840000D02*
D03*
X2890000D02*
D03*
X2940000D02*
D03*
X2990000D02*
D03*
Y3810000D02*
D03*
X2940000D02*
D03*
X2890000D02*
D03*
X2840000D02*
D03*
X2790000D02*
D03*
D13*
X330000Y4030000D02*
D03*
Y3930000D02*
D03*
X4310000Y5130000D02*
D03*
Y5230000D02*
D03*
X4230000Y5130000D02*
D03*
Y5230000D02*
D03*
X3170000Y4680000D02*
D03*
Y4580000D02*
D03*
X2940000Y4680000D02*
D03*
Y4580000D02*
D03*
X3070000Y4680000D02*
D03*
Y4580000D02*
D03*
X2340000Y3240000D02*
D03*
Y3140000D02*
D03*
X2420000Y3240000D02*
D03*
Y3140000D02*
D03*
X210000Y4030000D02*
D03*
Y3930000D02*
D03*
X380000Y3810000D02*
D03*
Y3710000D02*
D03*
X190000Y2900000D02*
D03*
Y2710000D02*
D03*
X390000Y2805000D02*
D03*
X380000Y2560000D02*
D03*
Y2460000D02*
D03*
X280000Y2215000D02*
D03*
Y2405000D02*
D03*
X80000Y2310000D02*
D03*
X380000Y2330000D02*
D03*
Y2230000D02*
D03*
X4630000Y540000D02*
D03*
Y640000D02*
D03*
X4710000Y540000D02*
D03*
Y640000D02*
D03*
X4320000Y625000D02*
D03*
X4520000Y720000D02*
D03*
Y530000D02*
D03*
Y880000D02*
D03*
Y1070000D02*
D03*
X4320000Y975000D02*
D03*
X4620000Y980000D02*
D03*
Y880000D02*
D03*
X4700001Y980000D02*
D03*
Y880000D02*
D03*
X4790000Y540000D02*
D03*
Y640000D02*
D03*
X4780000Y980000D02*
D03*
Y880000D02*
D03*
X4160000Y2020000D02*
D03*
Y1920000D02*
D03*
X3070000Y2920000D02*
D03*
Y2820000D02*
D03*
X3110000Y4190000D02*
D03*
Y4090000D02*
D03*
X3970000Y4230000D02*
D03*
Y4330000D02*
D03*
X3520000Y4980000D02*
D03*
Y5080000D02*
D03*
X3430000D02*
D03*
Y4980000D02*
D03*
X4340000Y6040000D02*
D03*
Y6140000D02*
D03*
X4210000Y6300000D02*
D03*
Y6400000D02*
D03*
X3900000Y6440000D02*
D03*
Y6340000D02*
D03*
X4350000Y6740000D02*
D03*
Y6660000D02*
D03*
Y6580000D02*
D03*
X4477600D02*
D03*
Y6660000D02*
D03*
Y6740000D02*
D03*
Y6820000D02*
D03*
X4240000Y6690000D02*
D03*
Y6790000D02*
D03*
X4140000Y6690000D02*
D03*
Y6790000D02*
D03*
X3940000Y6750000D02*
D03*
Y6850000D02*
D03*
X1380000Y5640000D02*
D03*
Y5540000D02*
D03*
X1000000Y4610000D02*
D03*
Y4510000D02*
D03*
X685000D02*
D03*
Y4610000D02*
D03*
X605000Y4510000D02*
D03*
Y4610000D02*
D03*
X560000Y5120000D02*
D03*
Y5020001D02*
D03*
X460000Y5120000D02*
D03*
Y5020001D02*
D03*
X4130000Y6300000D02*
D03*
Y6400000D02*
D03*
X1440000Y4960001D02*
D03*
Y5060001D02*
D03*
X1250000Y5160001D02*
D03*
Y5060001D02*
D03*
X1340000Y5160001D02*
D03*
Y5060001D02*
D03*
X2340000Y4800000D02*
D03*
Y4700000D02*
D03*
X2480000Y3760000D02*
D03*
Y3660000D02*
D03*
X2300000Y3860000D02*
D03*
Y3960000D02*
D03*
X2390000Y3760000D02*
D03*
Y3660000D02*
D03*
X1740000Y5770002D02*
D03*
Y5870002D02*
D03*
X830000Y1430000D02*
D03*
Y1330000D02*
D03*
X1590000Y2290000D02*
D03*
Y2190000D02*
D03*
X1830000Y2290000D02*
D03*
Y2190000D02*
D03*
X1080000Y1470000D02*
D03*
Y1570000D02*
D03*
X1670000Y2190000D02*
D03*
Y2290000D02*
D03*
X1750000D02*
D03*
Y2190000D02*
D03*
X380000Y3520000D02*
D03*
Y3620000D02*
D03*
X190000Y3410000D02*
D03*
Y3310000D02*
D03*
X1880000Y4100000D02*
D03*
Y4200000D02*
D03*
D14*
X4130000Y5260000D02*
D03*
X3990000D02*
D03*
X3860000Y4800000D02*
D03*
X4000000D02*
D03*
X3450000Y4650000D02*
D03*
X3590000D02*
D03*
X260000Y2550000D02*
D03*
X120000D02*
D03*
X3970000Y4450000D02*
D03*
X3830000D02*
D03*
X3970000Y4570000D02*
D03*
X3830000D02*
D03*
X4410000Y4900000D02*
D03*
X4270000D02*
D03*
X3760000Y4800000D02*
D03*
X3620000D02*
D03*
X3530000Y5260000D02*
D03*
X3670000D02*
D03*
X3400000Y6030000D02*
D03*
X3260000D02*
D03*
X3360000Y5910000D02*
D03*
X3220000D02*
D03*
X3340000Y5790000D02*
D03*
X3200000D02*
D03*
X3340000Y5670000D02*
D03*
X3200000D02*
D03*
X3340000Y5550000D02*
D03*
X3200000D02*
D03*
X3340000Y5430000D02*
D03*
X3200000D02*
D03*
X3300000Y5320000D02*
D03*
X3160000D02*
D03*
X970000Y1220000D02*
D03*
X830000D02*
D03*
X1220000Y910000D02*
D03*
X1080000D02*
D03*
D15*
X2945000Y4830000D02*
D03*
X3095000D02*
D03*
X345000Y5380000D02*
D03*
X495000D02*
D03*
X385000Y6470000D02*
D03*
X535000D02*
D03*
D16*
X2100000Y3260000D02*
D03*
Y3110000D02*
D03*
X2252500D02*
D03*
Y3260000D02*
D03*
X2100000Y3160000D02*
D03*
Y3210000D02*
D03*
X2252500Y3160000D02*
D03*
Y3210000D02*
D03*
D17*
X2151250Y3261250D02*
D03*
X2201250D02*
D03*
X2151250Y3108750D02*
D03*
X2201250D02*
D03*
D18*
X2520000Y3130000D02*
D03*
Y3270000D02*
D03*
X3230000Y4260000D02*
D03*
Y4400000D02*
D03*
X3710000Y4650000D02*
D03*
Y4510000D02*
D03*
X3820000Y5880000D02*
D03*
Y6020000D02*
D03*
X4040000Y6810000D02*
D03*
Y6670000D02*
D03*
X3810000Y6720000D02*
D03*
Y6860000D02*
D03*
X3580000Y6020000D02*
D03*
Y6160000D02*
D03*
X2209999Y4970001D02*
D03*
Y4830001D02*
D03*
X1659999Y5000001D02*
D03*
Y4860001D02*
D03*
X500000Y4630000D02*
D03*
Y4490000D02*
D03*
X2190000Y5830002D02*
D03*
Y5970002D02*
D03*
X2310000Y5830002D02*
D03*
Y5970002D02*
D03*
X2280000Y5600000D02*
D03*
Y5460000D02*
D03*
Y5230000D02*
D03*
Y5090000D02*
D03*
X1490000Y2180000D02*
D03*
Y2320000D02*
D03*
X1370000Y2180000D02*
D03*
Y2320000D02*
D03*
X4020000Y6440000D02*
D03*
Y6300000D02*
D03*
D19*
X300000Y3710000D02*
D03*
X200000D02*
D03*
X1570000Y3070000D02*
D03*
X1470000D02*
D03*
X890000Y3060000D02*
D03*
X790000D02*
D03*
X640000Y2870000D02*
D03*
X540000D02*
D03*
X190000Y3120000D02*
D03*
X290000D02*
D03*
Y3030000D02*
D03*
X190000D02*
D03*
X380000Y2080000D02*
D03*
X280000D02*
D03*
X2940000Y3019999D02*
D03*
X2840000D02*
D03*
X2840000Y3439999D02*
D03*
X2940000D02*
D03*
X4210000Y4780000D02*
D03*
X4110000D02*
D03*
X4320000D02*
D03*
X4420000D02*
D03*
X3800000Y5260000D02*
D03*
X3900000D02*
D03*
X3870000Y5580000D02*
D03*
X3970000D02*
D03*
X3870000Y5660000D02*
D03*
X3970000D02*
D03*
X4040000Y5900000D02*
D03*
X3940000D02*
D03*
X4660000Y6450000D02*
D03*
X4760000D02*
D03*
X4830000Y6210000D02*
D03*
X4730000D02*
D03*
X3900000Y6550000D02*
D03*
X4000000D02*
D03*
X4460000Y6930000D02*
D03*
X4360000D02*
D03*
X2690000Y6040000D02*
D03*
X2790000D02*
D03*
X1810000Y4660000D02*
D03*
X1910000D02*
D03*
X350000Y5520000D02*
D03*
X450000D02*
D03*
X1770000Y6040000D02*
D03*
X1870000D02*
D03*
X1955000Y5970002D02*
D03*
X2050000Y5770002D02*
D03*
X1860000D02*
D03*
X1400000Y6050000D02*
D03*
X1495000Y5850000D02*
D03*
X1305000D02*
D03*
X2450000Y4870000D02*
D03*
X2550000D02*
D03*
X2340000Y4980000D02*
D03*
X2440000D02*
D03*
X2390000Y3860000D02*
D03*
X2490000D02*
D03*
X2000000Y3030000D02*
D03*
X2100000D02*
D03*
X730000Y1110000D02*
D03*
X830000D02*
D03*
X2060000Y260000D02*
D03*
X1960000D02*
D03*
X2400000D02*
D03*
X2500000D02*
D03*
X2710000D02*
D03*
X2610000D02*
D03*
X1160000Y1570000D02*
D03*
X1260000D02*
D03*
X1180000Y1220000D02*
D03*
X1080000D02*
D03*
X2940000Y3129999D02*
D03*
X2840000D02*
D03*
X3080000Y2700000D02*
D03*
X2980000D02*
D03*
X289999Y3520000D02*
D03*
X190000D02*
D03*
X2860000Y4420000D02*
D03*
X2760000D02*
D03*
X2100000Y3340000D02*
D03*
X2000000D02*
D03*
D20*
X539500Y2187500D02*
D03*
X666500D02*
D03*
X793500D02*
D03*
X920500D02*
D03*
X539500Y2732500D02*
D03*
X666500D02*
D03*
X793500D02*
D03*
X920500D02*
D03*
D21*
X3080000Y2590000D02*
D03*
X2980000D02*
D03*
X2940000Y3239999D02*
D03*
X2840000D02*
D03*
X2840000Y3550000D02*
D03*
X2940000D02*
D03*
X1180000Y1110000D02*
D03*
X1080000D02*
D03*
D22*
X3564999Y4395000D02*
D03*
X3354999D02*
D03*
X3564999Y4545000D02*
D03*
Y4495000D02*
D03*
Y4445000D02*
D03*
X3354999Y4545000D02*
D03*
Y4445000D02*
D03*
Y4495000D02*
D03*
X3935000Y6145000D02*
D03*
X4145000D02*
D03*
X3935000Y5995000D02*
D03*
Y6045000D02*
D03*
Y6095000D02*
D03*
X4145000Y5995000D02*
D03*
Y6095000D02*
D03*
Y6045000D02*
D03*
D23*
X3459999Y4470000D02*
D03*
X4040000Y6070000D02*
D03*
D24*
X4230000Y4380000D02*
D03*
Y4180000D02*
D03*
D25*
X4805000Y4615000D02*
D03*
Y3945000D02*
D03*
D26*
X4592500Y5285000D02*
D03*
Y5350000D02*
D03*
Y5415000D02*
D03*
Y5220000D02*
D03*
Y5155000D02*
D03*
D27*
X4860000Y4885000D02*
D03*
Y5685000D02*
D03*
D28*
X4835000Y6115000D02*
D03*
D29*
X4770000D02*
D03*
X4705000D02*
D03*
Y5925000D02*
D03*
X4770000D02*
D03*
X4835000D02*
D03*
D30*
X4770000Y6020000D02*
D03*
D31*
X4590000Y5980000D02*
D03*
Y6030000D02*
D03*
Y6080000D02*
D03*
X4440000D02*
D03*
Y6030000D02*
D03*
Y5980000D02*
D03*
D32*
X4860000Y6880000D02*
D03*
X4760000D02*
D03*
X4660000D02*
D03*
X4860000Y6580000D02*
D03*
X4760000D02*
D03*
X4660000D02*
D03*
D33*
X4760000Y6730000D02*
D03*
D34*
X4350000Y6820000D02*
D03*
D35*
X3580000Y6330000D02*
D03*
X3675000D02*
D03*
X3770000D02*
D03*
Y6590000D02*
D03*
X3580000D02*
D03*
D36*
X1800000Y6350000D02*
D03*
X3330000D02*
D03*
D37*
X1990000Y6160000D02*
D03*
X2040000D02*
D03*
X2090000D02*
D03*
X2140000D02*
D03*
X2190000D02*
D03*
X2240000D02*
D03*
X2290000D02*
D03*
X2340000D02*
D03*
X2390000D02*
D03*
X2440000D02*
D03*
X2490000D02*
D03*
X2540000D02*
D03*
X2590000D02*
D03*
X2640000D02*
D03*
X2690000D02*
D03*
X2740000D02*
D03*
X2790000D02*
D03*
X2840000D02*
D03*
X2890000D02*
D03*
X2940000D02*
D03*
X2990000D02*
D03*
X3040000D02*
D03*
X3090000D02*
D03*
X3140000D02*
D03*
D38*
X1520000Y5685000D02*
D03*
Y5535000D02*
D03*
X1220000Y2315000D02*
D03*
Y2165000D02*
D03*
D39*
X1940000Y5180002D02*
D03*
Y5590002D02*
D03*
D40*
X2069999Y4970001D02*
D03*
Y4780001D02*
D03*
X1809999D02*
D03*
Y4875001D02*
D03*
Y4970001D02*
D03*
D41*
X330000Y4190000D02*
D03*
Y4510000D02*
D03*
X220000Y4190000D02*
D03*
Y4510000D02*
D03*
D42*
X460000Y5850000D02*
D03*
X960000D02*
D03*
D43*
X740000Y6490000D02*
D03*
X1340000D02*
D03*
D47*
X850000Y4360000D02*
D03*
X900000D02*
D03*
X950000D02*
D03*
X1000000D02*
D03*
X1050000D02*
D03*
X1100000D02*
D03*
X1150000D02*
D03*
X1200000D02*
D03*
X1250000D02*
D03*
X1300000D02*
D03*
X1350000D02*
D03*
X1400000D02*
D03*
X1450000D02*
D03*
X1500000D02*
D03*
X1550000D02*
D03*
Y3210000D02*
D03*
X1500000D02*
D03*
X1450000D02*
D03*
X1400000D02*
D03*
X1350000D02*
D03*
X1300000D02*
D03*
X1250000D02*
D03*
X1200000D02*
D03*
X1150000D02*
D03*
X1100000D02*
D03*
X1050000D02*
D03*
X1000000D02*
D03*
X950000D02*
D03*
X900000D02*
D03*
X850000D02*
D03*
X800000Y3209999D02*
D03*
Y4360000D02*
D03*
D48*
X1750000Y4160000D02*
D03*
Y4110000D02*
D03*
Y4060000D02*
D03*
Y4010000D02*
D03*
Y3960000D02*
D03*
Y3910000D02*
D03*
Y3860000D02*
D03*
Y3810000D02*
D03*
Y3760000D02*
D03*
Y3710000D02*
D03*
Y3660000D02*
D03*
Y3610000D02*
D03*
Y3560000D02*
D03*
Y3510000D02*
D03*
Y3460000D02*
D03*
Y3410000D02*
D03*
X600000Y3410000D02*
D03*
Y3510000D02*
D03*
Y3459999D02*
D03*
Y3709999D02*
D03*
Y3660000D02*
D03*
Y3610000D02*
D03*
Y3910000D02*
D03*
Y3860000D02*
D03*
Y3809999D02*
D03*
Y4110000D02*
D03*
Y4059999D02*
D03*
Y4010000D02*
D03*
Y3959999D02*
D03*
Y3760000D02*
D03*
Y3559999D02*
D03*
Y4160000D02*
D03*
D49*
X4270000Y1920000D02*
D03*
Y2020000D02*
D03*
D50*
X2410000Y5490002D02*
D03*
X2740000D02*
D03*
Y5700002D02*
D03*
X2410000D02*
D03*
Y5280002D02*
D03*
X2740000D02*
D03*
D51*
X1127500Y5190001D02*
D03*
D52*
X1120000Y5430001D02*
D03*
Y5390001D02*
D03*
Y5350000D02*
D03*
Y5310001D02*
D03*
Y5270001D02*
D03*
Y5230000D02*
D03*
X700000Y5190001D02*
D03*
Y5230000D02*
D03*
Y5270001D02*
D03*
Y5310001D02*
D03*
Y5350000D02*
D03*
Y5390001D02*
D03*
Y5430001D02*
D03*
D53*
X1030000Y5092501D02*
D03*
D54*
X990000Y5100000D02*
D03*
X950000D02*
D03*
X910000D02*
D03*
X870000D02*
D03*
X830000D02*
D03*
X790000D02*
D03*
Y5520001D02*
D03*
X830000D02*
D03*
X870000D02*
D03*
X1030000D02*
D03*
X990000D02*
D03*
X950000D02*
D03*
X910000D02*
D03*
D55*
X930000Y5320001D02*
D03*
D56*
X1140000Y6050000D02*
D03*
Y5970000D02*
D03*
D57*
X4090000Y4930000D02*
D03*
Y4980000D02*
D03*
Y5030000D02*
D03*
Y5080000D02*
D03*
Y5130000D02*
D03*
X3670000D02*
D03*
Y5080000D02*
D03*
Y5030000D02*
D03*
Y4980000D02*
D03*
Y4930000D02*
D03*
D58*
X3880000Y5030000D02*
D03*
D59*
X3233000Y2789000D02*
D03*
Y3043000D02*
D03*
Y3167000D02*
D03*
X4727000Y2789000D02*
D03*
Y3043000D02*
D03*
Y3167000D02*
D03*
D60*
X4570000Y1817500D02*
D03*
Y1522500D02*
D03*
X410000Y962500D02*
D03*
Y1257500D02*
D03*
D61*
X4417500Y1670000D02*
D03*
X562500Y1110000D02*
D03*
D62*
X1615000Y2897500D02*
D03*
Y2832500D02*
D03*
Y2767500D02*
D03*
Y2702500D02*
D03*
Y2637500D02*
D03*
Y2572500D02*
D03*
Y2507500D02*
D03*
Y2442500D02*
D03*
X2205000Y2897500D02*
D03*
Y2832500D02*
D03*
Y2767500D02*
D03*
Y2702500D02*
D03*
Y2637500D02*
D03*
Y2572500D02*
D03*
Y2507500D02*
D03*
Y2442500D02*
D03*
D63*
X3850000Y3120000D02*
D03*
D64*
Y2739000D02*
D03*
Y2993000D02*
D03*
Y2866000D02*
D03*
X4385000Y2739000D02*
D03*
Y2866000D02*
D03*
Y2993000D02*
D03*
Y3120000D02*
D03*
D65*
X4120000Y2930000D02*
D03*
D104*
X1520000Y679980D02*
D03*
X1519975Y790000D02*
D03*
Y900000D02*
D03*
Y1010000D02*
D03*
Y1120000D02*
D03*
X1520000Y1229980D02*
D03*
X1519975Y1340000D02*
D03*
Y1780000D02*
D03*
X1520000Y1449980D02*
D03*
X1519975Y1560000D02*
D03*
X1520000Y1669980D02*
D03*
X3920000Y1779980D02*
D03*
X3919975Y1670000D02*
D03*
X3920000Y1559980D02*
D03*
X3919975Y1450000D02*
D03*
X3920000Y1339980D02*
D03*
X3919975Y1230000D02*
D03*
Y1120000D02*
D03*
X3920000Y1009980D02*
D03*
X3919975Y900000D02*
D03*
X3920000Y789980D02*
D03*
X3919975Y680000D02*
D03*
D105*
X1620001Y1930020D02*
D03*
X1730000D02*
D03*
X1839975Y1930000D02*
D03*
X1950000Y1930020D02*
D03*
X2059975Y1930000D02*
D03*
X2170000Y1930020D02*
D03*
X2279975Y1930000D02*
D03*
X2390001Y1930020D02*
D03*
X2499975Y1930000D02*
D03*
X2609975D02*
D03*
X2720000Y1930020D02*
D03*
X2829975Y1930000D02*
D03*
X2940000Y1930020D02*
D03*
X3049975Y1930000D02*
D03*
X3160001Y1930020D02*
D03*
X3269975Y1930000D02*
D03*
X3379975D02*
D03*
X3490000Y1930020D02*
D03*
X3599975Y1930000D02*
D03*
X3710000Y1930020D02*
D03*
X3819975Y1930000D02*
D03*
Y530000D02*
D03*
X3710000Y530020D02*
D03*
X3599975Y530000D02*
D03*
X3490000Y530020D02*
D03*
X3379975Y530000D02*
D03*
X3269975D02*
D03*
X3160001Y530020D02*
D03*
X3049975Y530000D02*
D03*
X2940000Y530020D02*
D03*
X2829975Y530000D02*
D03*
X2720000Y530020D02*
D03*
X2609975Y530000D02*
D03*
X2499975D02*
D03*
X2390001Y530020D02*
D03*
X2279975Y530000D02*
D03*
X2170000Y530020D02*
D03*
X2059975Y530000D02*
D03*
X1950000Y530020D02*
D03*
X1839975Y530000D02*
D03*
X1730000Y530020D02*
D03*
X1620001D02*
D03*
D106*
X1695000Y705000D02*
D03*
Y915000D02*
D03*
Y1125000D02*
D03*
Y1335000D02*
D03*
Y1545000D02*
D03*
Y1755000D02*
D03*
X1875000Y705000D02*
D03*
Y915000D02*
D03*
Y1125000D02*
D03*
Y1335000D02*
D03*
Y1545000D02*
D03*
Y1755000D02*
D03*
X2055000Y705000D02*
D03*
Y1755000D02*
D03*
X2415000Y705000D02*
D03*
Y1755000D02*
D03*
X3025000Y705000D02*
D03*
Y1755000D02*
D03*
X3385000Y705000D02*
D03*
Y1755000D02*
D03*
X3565000Y705000D02*
D03*
Y915000D02*
D03*
Y1125000D02*
D03*
Y1335000D02*
D03*
Y1545000D02*
D03*
Y1755000D02*
D03*
X3745000Y705000D02*
D03*
Y915000D02*
D03*
Y1125000D02*
D03*
Y1335000D02*
D03*
Y1545000D02*
D03*
Y1755000D02*
D03*
%TF.MD5,c2ededc5bebdb3cd6f144f4fb58eaf14*%
M02*
