%TF.GenerationSoftware,Altium Limited,Altium Designer,21.2.2 (38)*%
G04 Layer_Color=8388736*
%FSLAX45Y45*%
%MOMM*%
%TF.SameCoordinates,215B76EA-4B9E-490E-954B-DD862D4548B8*%
%TF.FilePolarity,Positive*%
%TF.FileFunction,Other,Mechanical_2*%
%TF.Part,Single*%
G01*
G75*
%TA.AperFunction,NonConductor*%
%ADD88C,0.10000*%
%ADD89C,0.25400*%
%ADD90C,0.20000*%
%ADD139C,0.05000*%
G36*
X2980000Y3500000D02*
X2940000D01*
Y3599999D01*
X2980000D01*
Y3500000D01*
D02*
G37*
G36*
X3090001Y3460000D02*
X3050001D01*
Y3560000D01*
X3090001D01*
Y3460000D01*
D02*
G37*
G36*
Y3320000D02*
X3050001D01*
Y3420000D01*
X3090001D01*
Y3320000D01*
D02*
G37*
G36*
Y3190000D02*
X3050001D01*
Y3290000D01*
X3090001D01*
Y3190000D01*
D02*
G37*
G36*
X2980000Y3189999D02*
X2940000D01*
Y3289999D01*
X2980000D01*
Y3189999D01*
D02*
G37*
G36*
X2770001Y2950000D02*
X2670001D01*
Y2990000D01*
X2770001D01*
Y2950000D01*
D02*
G37*
G36*
X3080001Y2790000D02*
X3040001D01*
Y2890000D01*
X3080001D01*
Y2790000D01*
D02*
G37*
G36*
Y2670000D02*
X3040001D01*
Y2770000D01*
X3080001D01*
Y2670000D01*
D02*
G37*
G36*
X3120000Y2540000D02*
X3080001D01*
Y2540000D01*
X3040001D01*
Y2640000D01*
X3080000D01*
Y2640000D01*
X3120000D01*
Y2540000D01*
D02*
G37*
G36*
X4320000Y2020000D02*
X4220000D01*
Y2060000D01*
X4320000D01*
Y2020000D01*
D02*
G37*
G36*
X1080000Y1060000D02*
X1040000D01*
Y1160000D01*
X1080000D01*
Y1060000D01*
D02*
G37*
D88*
X415000Y2655000D02*
Y2955000D01*
X165000Y2655000D02*
X415000D01*
X165000D02*
Y2955000D01*
X415000D01*
X55000Y2160000D02*
Y2460000D01*
X305000D01*
Y2160000D02*
Y2460000D01*
X55000Y2160000D02*
X305000D01*
X4295000Y475000D02*
X4545000D01*
Y775000D01*
X4295000D02*
X4545000D01*
X4295000Y475000D02*
Y775000D01*
Y825000D02*
Y1125000D01*
X4545000D01*
Y825000D02*
Y1125000D01*
X4295000Y825000D02*
X4545000D01*
X4870000Y5920000D02*
Y6120000D01*
X4670000Y5920000D02*
X4870000D01*
X4670000D02*
Y6120000D01*
X4870000D01*
X3525000Y6332500D02*
Y6582500D01*
X3825000D01*
Y6332500D02*
Y6582500D01*
X3525000Y6332500D02*
X3825000D01*
X3490000Y6100000D02*
Y6570000D01*
X1640000D02*
X3490000D01*
X1640000Y6100000D02*
Y6570000D01*
Y6100000D02*
X3490000D01*
X1690000Y5070002D02*
Y5700002D01*
X2190000D01*
Y5070002D02*
Y5700002D01*
X1690000Y5070002D02*
X2190000D01*
X1812499Y4725001D02*
Y5025001D01*
Y4725001D02*
X2062499D01*
Y5025001D01*
X1812499D02*
X2062499D01*
X1805000Y5745002D02*
Y5995002D01*
Y5745002D02*
X2105000D01*
Y5995002D01*
X1805000D02*
X2105000D01*
X1250000Y5825000D02*
Y6075000D01*
Y5825000D02*
X1550000D01*
Y6075000D01*
X1250000D02*
X1550000D01*
X4740000Y1450000D02*
Y1890000D01*
X4340000Y1450000D02*
X4740000D01*
X4340000D02*
Y1890000D01*
X4740000D01*
X3820000Y3180000D02*
X4420000D01*
Y2680000D02*
Y3180000D01*
X3820000Y2680000D02*
X4420000D01*
X3820000D02*
Y3180000D01*
X240000Y890000D02*
Y1330000D01*
X640000D01*
Y890000D02*
Y1330000D01*
X240000Y890000D02*
X640000D01*
D89*
X690000Y6140000D02*
Y6840000D01*
Y6140000D02*
X1390000D01*
Y6840000D01*
X690000D02*
X1390000D01*
X3680000Y4880000D02*
X4080000D01*
X3680000D02*
Y5180000D01*
X4080000D01*
Y4880000D02*
Y5180000D01*
D90*
X2810000Y3490000D02*
Y3670000D01*
X2730000D02*
X2810000D01*
X2730000Y3490000D02*
Y3670000D01*
Y3490000D02*
X2810000D01*
X2740000Y3780000D02*
Y4270000D01*
X3040000D01*
Y3780000D02*
Y4270000D01*
X2740000Y3780000D02*
X3040000D01*
X2390000Y3420000D02*
X2600000D01*
X2390000D02*
Y3630000D01*
X2600000D01*
Y3420000D02*
Y3630000D01*
X2790001Y3130000D02*
X2870001D01*
Y2950000D02*
Y3130000D01*
X2790001Y2950000D02*
X2870001D01*
X2790001D02*
Y3130000D01*
X2870001Y3130000D02*
X2950001D01*
Y2949999D02*
Y3130000D01*
X2870001Y2949999D02*
X2950001D01*
X2870001D02*
Y3130000D01*
X2950001D02*
X3030001D01*
Y2949999D02*
Y3130000D01*
X2950001Y2949999D02*
X3030001D01*
X2950001D02*
Y3130000D01*
X440000Y3390000D02*
X620000D01*
Y3470000D01*
X440000D02*
X620000D01*
X440000Y3390000D02*
Y3470000D01*
X840000Y3970000D02*
X1020000D01*
X840000Y3890000D02*
Y3970000D01*
Y3890000D02*
X1020000D01*
Y3970000D01*
X480000Y3510000D02*
Y3850000D01*
X1050000D01*
Y3510000D02*
Y3850000D01*
X480000Y3510000D02*
X1050000D01*
X230000Y3880000D02*
X410000D01*
Y3960000D01*
X230000D02*
X410000D01*
X230000Y3880000D02*
Y3960000D01*
X290000Y3890000D02*
X370000D01*
Y4070000D01*
X290000D02*
X370000D01*
X290000Y3890000D02*
Y4070000D01*
X60000Y3960000D02*
X240000D01*
X60000Y3880000D02*
Y3960000D01*
Y3880000D02*
X240000D01*
Y3960000D01*
X4270000Y5270000D02*
X4350000D01*
X4270000Y5090000D02*
Y5270000D01*
Y5090000D02*
X4350000D01*
Y5270000D01*
X4190000D02*
X4270000D01*
X4190000Y5090000D02*
Y5270000D01*
Y5090000D02*
X4270000D01*
Y5270000D01*
X3130000Y4540000D02*
X3210000D01*
Y4720000D01*
X3130000D02*
X3210000D01*
X3130000Y4540000D02*
Y4720000D01*
X2900000Y4540000D02*
X2980000D01*
Y4720000D01*
X2900000D02*
X2980000D01*
X2900000Y4540000D02*
Y4720000D01*
X3030000Y4540000D02*
X3110000D01*
Y4720000D01*
X3030000D02*
X3110000D01*
X3030000Y4540000D02*
Y4720000D01*
X2300000Y3100000D02*
X2380000D01*
Y3280000D01*
X2300000D02*
X2380000D01*
X2300000Y3100000D02*
Y3280000D01*
X2380000Y3100000D02*
X2460000D01*
Y3280000D01*
X2380000D02*
X2460000D01*
X2380000Y3100000D02*
Y3280000D01*
X170000Y3890000D02*
X250000D01*
Y4070000D01*
X170000D02*
X250000D01*
X170000Y3890000D02*
Y4070000D01*
X340000Y3670000D02*
X420000D01*
Y3850000D01*
X340000D02*
X420000D01*
X340000Y3670000D02*
Y3850000D01*
X160000Y3670000D02*
Y3750000D01*
Y3670000D02*
X340000D01*
Y3750000D01*
X160000D02*
X340000D01*
X1430000Y3030000D02*
Y3110000D01*
Y3030000D02*
X1610000D01*
Y3110000D01*
X1430000D02*
X1610000D01*
X750000Y3020000D02*
Y3100000D01*
Y3020000D02*
X930000D01*
Y3100000D01*
X750000D02*
X930000D01*
X500000Y2830000D02*
X680000D01*
X500000D02*
Y2910000D01*
X680000D01*
Y2830000D02*
Y2910000D01*
X150000Y3160000D02*
X330000D01*
Y3080000D02*
Y3160000D01*
X150000Y3080000D02*
X330000D01*
X150000D02*
Y3160000D01*
Y2990000D02*
X330000D01*
X150000D02*
Y3070000D01*
X330000D01*
Y2990000D02*
Y3070000D01*
X420000Y2420000D02*
Y2600000D01*
X340000Y2420000D02*
X420000D01*
X340000D02*
Y2600000D01*
X420000D01*
Y2190000D02*
Y2370000D01*
X340000Y2190000D02*
X420000D01*
X340000D02*
Y2370000D01*
X420000D01*
X240000Y2040000D02*
X420000D01*
X240000D02*
Y2120000D01*
X420000D01*
Y2040000D02*
Y2120000D01*
X4590000Y680000D02*
X4670000D01*
X4590000Y500000D02*
Y680000D01*
Y500000D02*
X4670000D01*
Y680000D01*
X4670000Y680000D02*
X4750000D01*
X4670000Y500000D02*
Y680000D01*
Y500000D02*
X4750000D01*
Y680000D01*
X4660000Y840000D02*
Y1020000D01*
X4580000Y840000D02*
X4660000D01*
X4580000D02*
Y1020000D01*
X4660000D01*
X4740000Y840000D02*
Y1020000D01*
X4660001Y840000D02*
X4740000D01*
X4660001D02*
Y1020000D01*
X4740000D01*
X4750000Y680000D02*
X4830000D01*
X4750000Y500000D02*
Y680000D01*
Y500000D02*
X4830000D01*
Y680000D01*
X4820000Y840000D02*
Y1020000D01*
X4740000Y840000D02*
X4820000D01*
X4740000D02*
Y1020000D01*
X4820000D01*
X4120000Y1880000D02*
X4200000D01*
Y2060000D01*
X4120000D02*
X4200000D01*
X4120000Y1880000D02*
Y2060000D01*
X3030000Y2780000D02*
X3110000D01*
Y2960000D01*
X3030000D02*
X3110000D01*
X3030000Y2780000D02*
Y2960000D01*
X2800000Y2979999D02*
Y3059999D01*
Y2979999D02*
X2980000D01*
Y3059999D01*
X2800000D02*
X2980000D01*
X2800000Y3479999D02*
X2980000D01*
Y3400000D02*
Y3479999D01*
X2800000Y3400000D02*
X2980000D01*
X2800000D02*
Y3479999D01*
X3070000Y4050000D02*
X3150000D01*
Y4230000D01*
X3070000D02*
X3150000D01*
X3070000Y4050000D02*
Y4230000D01*
X3354999Y4575000D02*
X3564999D01*
Y4365000D02*
Y4575000D01*
X3354999Y4365000D02*
X3564999D01*
X3354999D02*
Y4575000D01*
X3930000Y4370000D02*
X4010000D01*
X3930000Y4190000D02*
Y4370000D01*
Y4190000D02*
X4010000D01*
Y4370000D01*
X4070000Y4740000D02*
Y4820000D01*
Y4740000D02*
X4250000D01*
Y4820000D01*
X4070000D02*
X4250000D01*
X4460000Y4740000D02*
Y4820000D01*
X4280000D02*
X4460000D01*
X4280000Y4740000D02*
Y4820000D01*
Y4740000D02*
X4460000D01*
X3480000Y5120000D02*
X3560000D01*
X3480000Y4940000D02*
Y5120000D01*
Y4940000D02*
X3560000D01*
Y5120000D01*
X3390000Y4940000D02*
X3470000D01*
Y5120000D01*
X3390000D02*
X3470000D01*
X3390000Y4940000D02*
Y5120000D01*
X3940000Y5220000D02*
Y5300000D01*
X3760000D02*
X3940000D01*
X3760000Y5220000D02*
Y5300000D01*
Y5220000D02*
X3940000D01*
X3830000Y5620000D02*
X4010000D01*
Y5540000D02*
Y5620000D01*
X3830000Y5540000D02*
X4010000D01*
X3830000D02*
Y5620000D01*
Y5700000D02*
X4010000D01*
Y5620000D02*
Y5700000D01*
X3830000Y5620000D02*
X4010000D01*
X3830000D02*
Y5700000D01*
X3900000Y5860000D02*
Y5940000D01*
Y5860000D02*
X4080000D01*
Y5940000D01*
X3900000D02*
X4080000D01*
X3935000Y5965000D02*
X4145000D01*
X3935000D02*
Y6175000D01*
X4145000D01*
Y5965000D02*
Y6175000D01*
X4620000Y6490000D02*
X4800000D01*
Y6410000D02*
Y6490000D01*
X4620000Y6410000D02*
X4800000D01*
X4620000D02*
Y6490000D01*
X4690000Y6170000D02*
Y6250000D01*
Y6170000D02*
X4870000D01*
Y6250000D01*
X4690000D02*
X4870000D01*
X4590000Y5950000D02*
Y6110000D01*
X4440000D02*
X4590000D01*
X4440000Y5950000D02*
Y6110000D01*
Y5950000D02*
X4590000D01*
X4300001Y6180000D02*
X4380000D01*
X4300001Y6000000D02*
Y6180000D01*
Y6000000D02*
X4380000D01*
Y6180000D01*
X4170000Y6440000D02*
X4250000D01*
X4170000Y6260000D02*
Y6440000D01*
Y6260000D02*
X4250000D01*
Y6440000D01*
X3860000Y6300000D02*
X3940000D01*
Y6480000D01*
X3860000D02*
X3940000D01*
X3860000Y6300000D02*
Y6480000D01*
X4040000Y6510000D02*
Y6590000D01*
X3860000D02*
X4040000D01*
X3860000Y6510000D02*
Y6590000D01*
Y6510000D02*
X4040000D01*
X4312500Y6850000D02*
X4512500D01*
Y6550000D02*
Y6850000D01*
X4312500Y6550000D02*
X4512500D01*
X4312500D02*
Y6850000D01*
X4200000Y6650000D02*
Y6830000D01*
X4280000D01*
Y6650000D02*
Y6830000D01*
X4200000Y6650000D02*
X4280000D01*
X4100000D02*
Y6830000D01*
X4180000D01*
Y6650000D02*
Y6830000D01*
X4100000Y6650000D02*
X4180000D01*
X4320000Y6890000D02*
X4500000D01*
X4320000D02*
Y6970000D01*
X4500000D01*
Y6890000D02*
Y6970000D01*
X3900000Y6710000D02*
Y6890000D01*
X3980000D01*
Y6710000D02*
Y6890000D01*
X3900000Y6710000D02*
X3980000D01*
X2830000Y6000000D02*
Y6080000D01*
X2650000D02*
X2830000D01*
X2650000Y6000000D02*
Y6080000D01*
Y6000000D02*
X2830000D01*
X1420000Y5500000D02*
Y5680000D01*
X1340000Y5500000D02*
X1420000D01*
X1340000D02*
Y5680000D01*
X1420000D01*
X1770000Y4700000D02*
X1950000D01*
Y4620000D02*
Y4700000D01*
X1770000Y4620000D02*
X1950000D01*
X1770000D02*
Y4700000D01*
X960000Y4470000D02*
X1040000D01*
Y4650000D01*
X960000D02*
X1040000D01*
X960000Y4470000D02*
Y4650000D01*
X645000D02*
X725000D01*
X645000Y4470000D02*
Y4650000D01*
Y4470000D02*
X725000D01*
Y4650000D01*
X565000D02*
X645000D01*
X565000Y4470000D02*
Y4650000D01*
Y4470000D02*
X645000D01*
Y4650000D01*
X195000Y4192500D02*
X352500D01*
Y4510000D01*
X195000D02*
X352500D01*
X195000Y4192500D02*
Y4510000D01*
X70000Y4770000D02*
X250000D01*
X70000Y4690000D02*
Y4770000D01*
Y4690000D02*
X250000D01*
Y4770000D01*
X600000Y4980000D02*
Y5160001D01*
X520000Y4980000D02*
X600000D01*
X520000D02*
Y5160001D01*
X600000D01*
X500000Y4980000D02*
Y5160001D01*
X420000Y4980000D02*
X500000D01*
X420000D02*
Y5160001D01*
X500000D01*
X310000Y5560000D02*
X490000D01*
Y5480000D02*
Y5560000D01*
X310000Y5480000D02*
X490000D01*
X310000D02*
Y5560000D01*
X2090000Y1560000D02*
Y1740000D01*
X2010000D02*
X2090000D01*
X2010000Y1560000D02*
Y1740000D01*
Y1560000D02*
X2090000D01*
X575000Y4385000D02*
X1775000D01*
Y3184999D02*
Y4385000D01*
X575000Y3184999D02*
X1775000D01*
X575000D02*
Y4385000D01*
X1910000Y6000000D02*
Y6080000D01*
X1730000D02*
X1910000D01*
X1730000Y6000000D02*
Y6080000D01*
Y6000000D02*
X1910000D01*
X4090000Y6440000D02*
X4170000D01*
X4090000Y6260000D02*
Y6440000D01*
Y6260000D02*
X4170000D01*
Y6440000D01*
X1400000Y5100001D02*
X1480000D01*
X1400000Y4920001D02*
Y5100001D01*
Y4920001D02*
X1480000D01*
Y5100001D01*
X1210000Y5020001D02*
X1289999D01*
Y5200001D01*
X1210000D02*
X1289999D01*
X1210000Y5020001D02*
Y5200001D01*
X1300000Y5020001D02*
X1380000D01*
Y5200001D01*
X1300000D02*
X1380000D01*
X1300000Y5020001D02*
Y5200001D01*
X2590000Y4830000D02*
Y4910000D01*
X2410000D02*
X2590000D01*
X2410000Y4830000D02*
Y4910000D01*
Y4830000D02*
X2590000D01*
X2300000Y4660000D02*
X2380000D01*
Y4840000D01*
X2300000D02*
X2380000D01*
X2300000Y4660000D02*
Y4840000D01*
X2480000Y4940000D02*
Y5020000D01*
X2300000D02*
X2480000D01*
X2300000Y4940000D02*
Y5020000D01*
Y4940000D02*
X2480000D01*
X2440000Y3620000D02*
X2520000D01*
Y3800000D01*
X2440000D02*
X2520000D01*
X2440000Y3620000D02*
Y3800000D01*
X2260000Y4000000D02*
X2340000D01*
X2260000Y3820000D02*
Y4000000D01*
Y3820000D02*
X2340000D01*
Y4000000D01*
X2530000Y3820000D02*
Y3900000D01*
X2350000D02*
X2530000D01*
X2350000Y3820000D02*
Y3900000D01*
Y3820000D02*
X2530000D01*
X2350000Y3620000D02*
X2430000D01*
Y3800000D01*
X2350000D02*
X2430000D01*
X2350000Y3620000D02*
Y3800000D01*
X1700000Y5910002D02*
X1780000D01*
X1700000Y5730002D02*
Y5910002D01*
Y5730002D02*
X1780000D01*
Y5910002D01*
X2140000Y2990000D02*
Y3070000D01*
X1960000D02*
X2140000D01*
X1960000Y2990000D02*
Y3070000D01*
Y2990000D02*
X2140000D01*
X870000Y1290000D02*
Y1470000D01*
X790000Y1290000D02*
X870000D01*
X790000D02*
Y1470000D01*
X870000D01*
X1630000Y2150000D02*
Y2330000D01*
X1550000Y2150000D02*
X1630000D01*
X1550000D02*
Y2330000D01*
X1630000D01*
X1870000Y2150000D02*
Y2330000D01*
X1790000Y2150000D02*
X1870000D01*
X1790000D02*
Y2330000D01*
X1870000D01*
X690000Y1150000D02*
X870000D01*
Y1070000D02*
Y1150000D01*
X690000Y1070000D02*
X870000D01*
X690000D02*
Y1150000D01*
X1920000Y220000D02*
X2100000D01*
X1920000D02*
Y300000D01*
X2100000D01*
Y220000D02*
Y300000D01*
X2360000D02*
X2540000D01*
Y220000D02*
Y300000D01*
X2360000Y220000D02*
X2540000D01*
X2360000D02*
Y300000D01*
X2570000Y220000D02*
X2750000D01*
X2570000D02*
Y300000D01*
X2750000D01*
Y220000D02*
Y300000D01*
X1040000Y1430000D02*
Y1610000D01*
X1120000D01*
Y1430000D02*
Y1610000D01*
X1040000Y1430000D02*
X1120000D01*
Y1610000D02*
X1300000D01*
Y1530000D02*
Y1610000D01*
X1120000Y1530000D02*
X1300000D01*
X1120000D02*
Y1610000D01*
X1630000Y2330000D02*
X1710000D01*
X1630000Y2150000D02*
Y2330000D01*
Y2150000D02*
X1710000D01*
Y2330000D01*
X1790000Y2150000D02*
Y2330000D01*
X1710000Y2150000D02*
X1790000D01*
X1710000D02*
Y2330000D01*
X1790000D01*
X1040000Y1180000D02*
X1220000D01*
X1040000D02*
Y1260000D01*
X1220000D01*
Y1180000D02*
Y1260000D01*
X2800000Y3089999D02*
Y3169999D01*
Y3089999D02*
X2980000D01*
Y3169999D01*
X2800000D02*
X2980000D01*
X2940000Y2660000D02*
Y2740000D01*
Y2660000D02*
X3120000D01*
Y2740000D01*
X2940000D02*
X3120000D01*
X340000Y3660000D02*
X420000D01*
X340000Y3480000D02*
Y3660000D01*
Y3480000D02*
X420000D01*
Y3660000D01*
X149999Y3480000D02*
Y3560000D01*
Y3480000D02*
X330000D01*
Y3560000D01*
X149999D02*
X330000D01*
X150000Y3270000D02*
X230000D01*
Y3450000D01*
X150000D02*
X230000D01*
X150000Y3270000D02*
Y3450000D01*
X70000Y3670000D02*
X420000D01*
Y3850000D01*
X70000D02*
X420000D01*
X70000Y3670000D02*
Y3850000D01*
X2720000Y4380000D02*
X2900000D01*
X2720000D02*
Y4460000D01*
X2900000D01*
Y4380000D02*
Y4460000D01*
X1960000Y3300000D02*
X2140000D01*
X1960000D02*
Y3380000D01*
X2140000D01*
Y3300000D02*
Y3380000D01*
X1840000Y4060000D02*
Y4240000D01*
X1920000D01*
Y4060000D02*
Y4240000D01*
X1840000Y4060000D02*
X1920000D01*
D139*
X3080001Y2540000D02*
Y2640000D01*
X2900001D02*
X3080001D01*
X2900001Y2540000D02*
Y2640000D01*
Y2540000D02*
X3080001D01*
Y2670000D02*
Y2770000D01*
X2900001D02*
X3080001D01*
X2900001Y2670000D02*
Y2770000D01*
Y2670000D02*
X3080001D01*
Y2790000D02*
Y2890000D01*
X2900001D02*
X3080001D01*
X2900001Y2790000D02*
Y2890000D01*
Y2790000D02*
X3080001D01*
X2670001Y2950000D02*
X2770001D01*
Y3130000D01*
X2670001D02*
X2770001D01*
X2670001Y2950000D02*
Y3130000D01*
X3090001Y3190000D02*
Y3290000D01*
X2910001D02*
X3090001D01*
X2910001Y3190000D02*
Y3290000D01*
Y3190000D02*
X3090001D01*
Y3320000D02*
Y3420000D01*
X2910001D02*
X3090001D01*
X2910001Y3320000D02*
Y3420000D01*
Y3320000D02*
X3090001D01*
Y3460000D02*
Y3560000D01*
X2910001D02*
X3090001D01*
X2910001Y3460000D02*
Y3560000D01*
Y3460000D02*
X3090001D01*
X3120000Y2540000D02*
Y2640000D01*
X2940000Y2540000D02*
X3120000D01*
X2940000D02*
Y2640000D01*
X3120000D01*
X2980000Y3189999D02*
Y3289999D01*
X2800000Y3189999D02*
X2980000D01*
X2800000D02*
Y3289999D01*
X2980000D01*
X2800000Y3599999D02*
X2980000D01*
X2800000Y3500000D02*
Y3599999D01*
Y3500000D02*
X2980000D01*
Y3599999D01*
X4220000Y1880000D02*
Y2060000D01*
Y1880000D02*
X4320000D01*
Y2060000D01*
X4220000D02*
X4320000D01*
X1040000Y1060000D02*
X1220000D01*
Y1160000D01*
X1040000D02*
X1220000D01*
X1040000Y1060000D02*
Y1160000D01*
%TF.MD5,04cd962b95038bae93db496767c34eea*%
M02*
