%TF.GenerationSoftware,Altium Limited,Altium Designer,21.2.2 (38)*%
G04 Layer_Color=128*
%FSLAX45Y45*%
%MOMM*%
%TF.SameCoordinates,215B76EA-4B9E-490E-954B-DD862D4548B8*%
%TF.FilePolarity,Positive*%
%TF.FileFunction,Drillmap*%
%TF.Part,Single*%
G01*
G75*
%TA.AperFunction,NonConductor*%
%ADD102C,0.12700*%
D102*
X216500Y4350000D02*
X288500D01*
X252500Y4314000D02*
Y4386000D01*
X36500Y4350000D02*
X108500D01*
X72500Y4314000D02*
Y4386000D01*
X1355000Y3780000D02*
X1425000D01*
X1390000Y3745000D02*
Y3815000D01*
X1355000Y3907000D02*
X1425000D01*
X1390000Y3872000D02*
Y3942000D01*
X1355000Y3653000D02*
X1425000D01*
X1390000Y3618000D02*
Y3688000D01*
X1329000Y4110000D02*
X1399000D01*
X1364000Y4075000D02*
Y4145000D01*
X1456000Y4110000D02*
X1526000D01*
X1491000Y4075000D02*
Y4145000D01*
X1075000Y4110000D02*
X1145000D01*
X1110000Y4075000D02*
Y4145000D01*
X1202000Y4110000D02*
X1272000D01*
X1237000Y4075000D02*
Y4145000D01*
X821000Y4110000D02*
X891000D01*
X856000Y4075000D02*
Y4145000D01*
X948000Y4110000D02*
X1018000D01*
X983000Y4075000D02*
Y4145000D01*
X4315000Y4410000D02*
X4405000D01*
X4360000Y4365000D02*
Y4455000D01*
X4315000Y4156000D02*
X4405000D01*
X4360000Y4111000D02*
Y4201000D01*
X896000Y4865000D02*
X966000D01*
X931000Y4830000D02*
Y4900000D01*
X769000Y4865000D02*
X839000D01*
X804000Y4830000D02*
Y4900000D01*
X642000Y4865000D02*
X712000D01*
X677000Y4830000D02*
Y4900000D01*
X515000Y4865000D02*
X585000D01*
X550000Y4830000D02*
Y4900000D01*
X388000Y4865000D02*
X458000D01*
X423000Y4830000D02*
Y4900000D01*
X445000Y6740000D02*
X535000D01*
X490000Y6695000D02*
Y6785000D01*
X191000Y6740000D02*
X281000D01*
X236000Y6695000D02*
Y6785000D01*
X345000Y5170000D02*
X375000D01*
X360000Y5155000D02*
Y5185000D01*
X235000Y3630000D02*
X265000D01*
X250000Y3615000D02*
Y3645000D01*
X2795000Y260000D02*
X2825000D01*
X2810000Y245000D02*
Y275000D01*
X2285000Y260000D02*
X2315000D01*
X2300000Y245000D02*
Y275000D01*
X2145000Y260000D02*
X2175000D01*
X2160000Y245000D02*
Y275000D01*
X315000Y4760000D02*
X345000D01*
X330000Y4745000D02*
Y4775000D01*
X4165304Y5351369D02*
X4195304D01*
X4180304Y5336369D02*
Y5366369D01*
X3145000Y3312500D02*
X3175000D01*
X3160000Y3297500D02*
Y3327500D01*
X2935000Y3640000D02*
X2965000D01*
X2950000Y3625000D02*
Y3655000D01*
X3215000Y3980000D02*
X3245000D01*
X3230000Y3965000D02*
Y3995000D01*
X3215000Y3880000D02*
X3245000D01*
X3230000Y3865000D02*
Y3895000D01*
X2285000Y2980000D02*
X2315000D01*
X2300000Y2965000D02*
Y2995000D01*
X1445000Y2820000D02*
X1475000D01*
X1460000Y2805000D02*
Y2835000D01*
X1355000Y3070000D02*
X1385000D01*
X1370000Y3055000D02*
Y3085000D01*
X2035000Y5870000D02*
X2065000D01*
X2050000Y5855000D02*
Y5885000D01*
X915000Y5320001D02*
X945000D01*
X930000Y5305001D02*
Y5335001D01*
X2995000Y2490000D02*
X3025000D01*
X3010000Y2475000D02*
Y2505000D01*
X3075000Y4410000D02*
X3105000D01*
X3090000Y4395000D02*
Y4425000D01*
X3905000Y4690000D02*
X3935000D01*
X3920000Y4675000D02*
Y4705000D01*
X4435000Y5540000D02*
X4465000D01*
X4450000Y5525000D02*
Y5555000D01*
X4435000Y5430000D02*
X4465000D01*
X4450000Y5415000D02*
Y5445000D01*
X4135000Y5900000D02*
X4165000D01*
X4150000Y5885000D02*
Y5915000D01*
X4025000Y6070000D02*
X4055000D01*
X4040000Y6055000D02*
Y6085000D01*
X4615000Y6210000D02*
X4645000D01*
X4630000Y6195000D02*
Y6225000D01*
X2615000Y3790000D02*
X2645000D01*
X2630000Y3775000D02*
Y3805000D01*
X2455000Y3997500D02*
X2485000D01*
X2470000Y3982500D02*
Y4012500D01*
X835000Y3360000D02*
X865000D01*
X850000Y3345000D02*
Y3375000D01*
X1145000Y3570000D02*
X1175000D01*
X1160000Y3555000D02*
Y3585000D01*
X1095000Y3930000D02*
X1125000D01*
X1110000Y3915000D02*
Y3945000D01*
X1535000Y5070000D02*
X1565000D01*
X1550000Y5055000D02*
Y5085000D01*
X435000Y5250000D02*
X465000D01*
X450000Y5235000D02*
Y5265000D01*
X685000Y5100000D02*
X715000D01*
X700000Y5085000D02*
Y5115000D01*
X585000Y5250000D02*
X615000D01*
X600000Y5235000D02*
Y5265000D01*
X585000Y5400000D02*
X615000D01*
X600000Y5385000D02*
Y5415000D01*
X685000Y5500000D02*
X715000D01*
X700000Y5485000D02*
Y5515000D01*
X135000Y6500000D02*
X165000D01*
X150000Y6485000D02*
Y6515000D01*
X135000Y6400000D02*
X165000D01*
X150000Y6385000D02*
Y6415000D01*
X135000Y6300000D02*
X165000D01*
X150000Y6285000D02*
Y6315000D01*
X135000Y6200000D02*
X165000D01*
X150000Y6185000D02*
Y6215000D01*
X135000Y6100000D02*
X165000D01*
X150000Y6085000D02*
Y6115000D01*
X135000Y6000000D02*
X165000D01*
X150000Y5985000D02*
Y6015000D01*
X135000Y5900000D02*
X165000D01*
X150000Y5885000D02*
Y5915000D01*
X135000Y5800000D02*
X165000D01*
X150000Y5785000D02*
Y5815000D01*
X135000Y5700000D02*
X165000D01*
X150000Y5685000D02*
Y5715000D01*
X135000Y5600000D02*
X165000D01*
X150000Y5585000D02*
Y5615000D01*
X135000Y5500000D02*
X165000D01*
X150000Y5485000D02*
Y5515000D01*
X135000Y5400000D02*
X165000D01*
X150000Y5385000D02*
Y5415000D01*
X135000Y5300000D02*
X165000D01*
X150000Y5285000D02*
Y5315000D01*
X75000Y4170000D02*
X105000D01*
X90000Y4155000D02*
Y4185000D01*
X75000Y4530000D02*
X105000D01*
X90000Y4515000D02*
Y4545000D01*
X4625000Y1100000D02*
X4655000D01*
X4640000Y1085000D02*
Y1115000D01*
X4765000Y1100000D02*
X4795000D01*
X4780000Y1085000D02*
Y1115000D01*
X4755000Y750000D02*
X4785000D01*
X4770000Y735000D02*
Y765000D01*
X4615000Y750000D02*
X4645000D01*
X4630000Y735000D02*
Y765000D01*
X2775000Y1750000D02*
X2805000D01*
X2790000Y1735000D02*
Y1765000D01*
X2575000Y1750000D02*
X2605000D01*
X2590000Y1735000D02*
Y1765000D01*
X2225000Y1760000D02*
X2255000D01*
X2240000Y1745000D02*
Y1775000D01*
X2025000Y1130000D02*
X2055000D01*
X2040000Y1115000D02*
Y1145000D01*
X2225000Y750000D02*
X2255000D01*
X2240000Y735000D02*
Y765000D01*
X2575000Y750000D02*
X2605000D01*
X2590000Y735000D02*
Y765000D01*
X2865000Y750000D02*
X2895000D01*
X2880000Y735000D02*
Y765000D01*
X3425000Y990000D02*
X3455000D01*
X3440000Y975000D02*
Y1005000D01*
X3425000Y1230000D02*
X3455000D01*
X3440000Y1215000D02*
Y1245000D01*
X3425000Y1450000D02*
X3455000D01*
X3440000Y1435000D02*
Y1465000D01*
X2365000Y5170000D02*
X2395000D01*
X2380000Y5155000D02*
Y5185000D01*
X2545000Y4970000D02*
X2575000D01*
X2560000Y4955000D02*
Y4985000D01*
X1945000Y5030000D02*
X1975000D01*
X1960000Y5015000D02*
Y5045000D01*
X2025000Y4670000D02*
X2055000D01*
X2040000Y4655000D02*
Y4685000D01*
X1375000Y4860000D02*
X1405000D01*
X1390000Y4845000D02*
Y4875000D01*
X1355000Y5750000D02*
X1385000D01*
X1370000Y5735000D02*
Y5765000D01*
X1615000Y5770000D02*
X1645000D01*
X1630000Y5755000D02*
Y5785000D01*
X1615000Y5870000D02*
X1645000D01*
X1630000Y5855000D02*
Y5885000D01*
X1585000Y5960000D02*
X1615000D01*
X1600000Y5945000D02*
Y5975000D01*
X1475000Y5960000D02*
X1505000D01*
X1490000Y5945000D02*
Y5975000D01*
X3435000Y5370000D02*
X3465000D01*
X3450000Y5355000D02*
Y5385000D01*
X3435000Y5460000D02*
X3465000D01*
X3450000Y5445000D02*
Y5475000D01*
X3435000Y5550000D02*
X3465000D01*
X3450000Y5535000D02*
Y5565000D01*
X3435000Y5650000D02*
X3465000D01*
X3450000Y5635000D02*
Y5665000D01*
X3435000Y5740000D02*
X3465000D01*
X3450000Y5725000D02*
Y5755000D01*
X3455000Y5830000D02*
X3485000D01*
X3470000Y5815000D02*
Y5845000D01*
X3505000Y5910000D02*
X3535000D01*
X3520000Y5895000D02*
Y5925000D01*
X1785000Y6350000D02*
X1815000D01*
X1800000Y6335000D02*
Y6365000D01*
X3315000Y6350000D02*
X3345000D01*
X3330000Y6335000D02*
Y6365000D01*
X3805000Y6440000D02*
X3835000D01*
X3820000Y6425000D02*
Y6455000D01*
X3545000Y6460000D02*
X3575000D01*
X3560000Y6445000D02*
Y6475000D01*
X3685000Y6680000D02*
X3715000D01*
X3700000Y6665000D02*
Y6695000D01*
X4115000Y6580000D02*
X4145000D01*
X4130000Y6565000D02*
Y6595000D01*
X4235000Y6580000D02*
X4265000D01*
X4250000Y6565000D02*
Y6595000D01*
X4265000Y6220000D02*
X4295000D01*
X4280000Y6205000D02*
Y6235000D01*
X4295000Y6400000D02*
X4325000D01*
X4310000Y6385000D02*
Y6415000D01*
X4115000Y6480000D02*
X4145000D01*
X4130000Y6465000D02*
Y6495000D01*
X4535000Y6460000D02*
X4565000D01*
X4550000Y6445000D02*
Y6475000D01*
X4745000Y6730000D02*
X4775000D01*
X4760000Y6715000D02*
Y6745000D01*
X4755000Y6020000D02*
X4785000D01*
X4770000Y6005000D02*
Y6035000D01*
X4845000Y5690000D02*
X4875000D01*
X4860000Y5675000D02*
Y5705000D01*
X4845000Y4880000D02*
X4875000D01*
X4860000Y4865000D02*
Y4895000D01*
X4785000Y3940000D02*
X4815000D01*
X4800000Y3925000D02*
Y3955000D01*
X4795000Y4620000D02*
X4825000D01*
X4810000Y4605000D02*
Y4635000D01*
X4605000Y4760000D02*
X4635000D01*
X4620000Y4745000D02*
Y4775000D01*
X4695000Y4760000D02*
X4725000D01*
X4710000Y4745000D02*
Y4775000D01*
X4365000Y4550000D02*
X4395000D01*
X4380000Y4535000D02*
Y4565000D01*
X4075000Y4490000D02*
X4105000D01*
X4090000Y4475000D02*
Y4505000D01*
X4085000Y4570000D02*
X4115000D01*
X4100000Y4555000D02*
Y4585000D01*
X3445000Y4470000D02*
X3475000D01*
X3460000Y4455000D02*
Y4485000D01*
X3255000Y4590000D02*
X3285000D01*
X3270000Y4575000D02*
Y4605000D01*
X3335000Y4650000D02*
X3365000D01*
X3350000Y4635000D02*
Y4665000D01*
X4595000Y3260000D02*
X4625000D01*
X4610000Y3245000D02*
Y3275000D01*
X3465000Y3110000D02*
X3495000D01*
X3480000Y3095000D02*
Y3125000D01*
X3335000Y3110000D02*
X3365000D01*
X3350000Y3095000D02*
Y3125000D01*
X3185000Y2590000D02*
X3215000D01*
X3200000Y2575000D02*
Y2605000D01*
X2675000Y2840000D02*
X2705000D01*
X2690000Y2825000D02*
Y2855000D01*
X2725000Y3260000D02*
X2755000D01*
X2740000Y3245000D02*
Y3275000D01*
X2745000Y3380000D02*
X2775000D01*
X2760000Y3365000D02*
Y3395000D01*
X2655000Y3450000D02*
X2685000D01*
X2670000Y3435000D02*
Y3465000D01*
X2315000Y4040000D02*
X2345000D01*
X2330000Y4025000D02*
Y4055000D01*
X2225000Y4410000D02*
X2255000D01*
X2240000Y4395000D02*
Y4425000D01*
X2445000Y4380000D02*
X2475000D01*
X2460000Y4365000D02*
Y4395000D01*
X1965000Y4140000D02*
X1995000D01*
X1980000Y4125000D02*
Y4155000D01*
X645000Y4700000D02*
X675000D01*
X660000Y4685000D02*
Y4715000D01*
X525000Y4730000D02*
X555000D01*
X540000Y4715000D02*
Y4745000D01*
X415000Y4730000D02*
X445000D01*
X430000Y4715000D02*
Y4745000D01*
X505000Y4290000D02*
X535000D01*
X520000Y4275000D02*
Y4305000D01*
X505000Y4400000D02*
X535000D01*
X520000Y4385000D02*
Y4415000D01*
X625000Y4400000D02*
X655000D01*
X640000Y4385000D02*
Y4415000D01*
X65000Y3540000D02*
X95000D01*
X80000Y3525000D02*
Y3555000D01*
X65000Y3430000D02*
X95000D01*
X80000Y3415000D02*
Y3445000D01*
X65000Y3310000D02*
X95000D01*
X80000Y3295000D02*
Y3325000D01*
X85000Y2710000D02*
X115000D01*
X100000Y2695000D02*
Y2725000D01*
X165000Y2410000D02*
X195000D01*
X180000Y2395000D02*
Y2425000D01*
X255000Y2320000D02*
X285000D01*
X270000Y2305000D02*
Y2335000D01*
X2935000Y2240000D02*
X2965000D01*
X2950000Y2225000D02*
Y2255000D01*
X3255000Y380000D02*
X3285000D01*
X3270000Y365000D02*
Y395000D01*
X2925000Y390000D02*
X2955000D01*
X2940000Y375000D02*
Y405000D01*
X2815000Y390000D02*
X2845000D01*
X2830000Y375000D02*
Y405000D01*
X2760659Y2255659D02*
X2790659D01*
X2775659Y2240659D02*
Y2270659D01*
X4365000Y2060000D02*
X4395000D01*
X4380000Y2045000D02*
Y2075000D01*
X4345000Y1980000D02*
X4375000D01*
X4360000Y1965000D02*
Y1995000D01*
X4195000Y1840000D02*
X4225000D01*
X4210000Y1825000D02*
Y1855000D01*
X4115000Y1840000D02*
X4145000D01*
X4130000Y1825000D02*
Y1855000D01*
X4035000Y1840000D02*
X4065000D01*
X4050000Y1825000D02*
Y1855000D01*
X4845000Y2060000D02*
X4875000D01*
X4860000Y2045000D02*
Y2075000D01*
X4765000Y2060000D02*
X4795000D01*
X4780000Y2045000D02*
Y2075000D01*
X4685000Y2060000D02*
X4715000D01*
X4700000Y2045000D02*
Y2075000D01*
X4605000Y2060000D02*
X4635000D01*
X4620000Y2045000D02*
Y2075000D01*
X4525000Y2060000D02*
X4555000D01*
X4540000Y2045000D02*
Y2075000D01*
X4445000Y2060000D02*
X4475000D01*
X4460000Y2045000D02*
Y2075000D01*
X4925000Y1820000D02*
X4955000D01*
X4940000Y1805000D02*
Y1835000D01*
X4925000Y1900000D02*
X4955000D01*
X4940000Y1885000D02*
Y1915000D01*
X4925000Y1980000D02*
X4955000D01*
X4940000Y1965000D02*
Y1995000D01*
X4925000Y2060000D02*
X4955000D01*
X4940000Y2045000D02*
Y2075000D01*
X4925000Y1340000D02*
X4955000D01*
X4940000Y1325000D02*
Y1355000D01*
X4925000Y1420000D02*
X4955000D01*
X4940000Y1405000D02*
Y1435000D01*
X4925000Y1500000D02*
X4955000D01*
X4940000Y1485000D02*
Y1515000D01*
X4925000Y1580000D02*
X4955000D01*
X4940000Y1565000D02*
Y1595000D01*
X4925000Y1660000D02*
X4955000D01*
X4940000Y1645000D02*
Y1675000D01*
X4925000Y1740000D02*
X4955000D01*
X4940000Y1725000D02*
Y1755000D01*
X4605000Y1260000D02*
X4635000D01*
X4620000Y1245000D02*
Y1275000D01*
X4685000Y1260000D02*
X4715000D01*
X4700000Y1245000D02*
Y1275000D01*
X4765000Y1260000D02*
X4795000D01*
X4780000Y1245000D02*
Y1275000D01*
X4845000Y1260000D02*
X4875000D01*
X4860000Y1245000D02*
Y1275000D01*
X4925000Y1260000D02*
X4955000D01*
X4940000Y1245000D02*
Y1275000D01*
X4125000Y1260000D02*
X4155000D01*
X4140000Y1245000D02*
Y1275000D01*
X4205000Y1260000D02*
X4235000D01*
X4220000Y1245000D02*
Y1275000D01*
X4285000Y1260000D02*
X4315000D01*
X4300000Y1245000D02*
Y1275000D01*
X4365000Y1260000D02*
X4395000D01*
X4380000Y1245000D02*
Y1275000D01*
X4445000Y1260000D02*
X4475000D01*
X4460000Y1245000D02*
Y1275000D01*
X4525000Y1260000D02*
X4555000D01*
X4540000Y1245000D02*
Y1275000D01*
X4045000Y1500000D02*
X4075000D01*
X4060000Y1485000D02*
Y1515000D01*
X4045000Y1420000D02*
X4075000D01*
X4060000Y1405000D02*
Y1435000D01*
X4045000Y1340000D02*
X4075000D01*
X4060000Y1325000D02*
Y1355000D01*
X4045000Y1260000D02*
X4075000D01*
X4060000Y1245000D02*
Y1275000D01*
X4045000Y1580000D02*
X4075000D01*
X4060000Y1565000D02*
Y1595000D01*
X4125000Y1580000D02*
X4155000D01*
X4140000Y1565000D02*
Y1595000D01*
X4205000Y1580000D02*
X4235000D01*
X4220000Y1565000D02*
Y1595000D01*
X4285000Y1580000D02*
X4315000D01*
X4300000Y1565000D02*
Y1595000D01*
X4295000Y1500000D02*
X4325000D01*
X4310000Y1485000D02*
Y1515000D01*
X4305000Y1420000D02*
X4335000D01*
X4320000Y1405000D02*
Y1435000D01*
X4385000Y1400000D02*
X4415000D01*
X4400000Y1385000D02*
Y1415000D01*
X4465000Y1400000D02*
X4495000D01*
X4480000Y1385000D02*
Y1415000D01*
X4545000Y1400000D02*
X4575000D01*
X4560000Y1385000D02*
Y1415000D01*
X4625000Y1400000D02*
X4655000D01*
X4640000Y1385000D02*
Y1415000D01*
X4705000Y1400000D02*
X4735000D01*
X4720000Y1385000D02*
Y1415000D01*
X4775000Y1450000D02*
X4805000D01*
X4790000Y1435000D02*
Y1465000D01*
X4775000Y1530000D02*
X4805000D01*
X4790000Y1515000D02*
Y1545000D01*
X4775000Y1610000D02*
X4805000D01*
X4790000Y1595000D02*
Y1625000D01*
X4775000Y1690000D02*
X4805000D01*
X4790000Y1675000D02*
Y1705000D01*
X4775000Y1770000D02*
X4805000D01*
X4790000Y1755000D02*
Y1785000D01*
X4775000Y1850000D02*
X4805000D01*
X4790000Y1835000D02*
Y1865000D01*
X4755000Y1930000D02*
X4785000D01*
X4770000Y1915000D02*
Y1945000D01*
X4675000Y1930000D02*
X4705000D01*
X4690000Y1915000D02*
Y1945000D01*
X4595000Y1930000D02*
X4625000D01*
X4610000Y1915000D02*
Y1945000D01*
X4515000Y1930000D02*
X4545000D01*
X4530000Y1915000D02*
Y1945000D01*
X4435000Y1930000D02*
X4465000D01*
X4450000Y1915000D02*
Y1945000D01*
X4355000Y1900000D02*
X4385000D01*
X4370000Y1885000D02*
Y1915000D01*
X4315000Y1830000D02*
X4345000D01*
X4330000Y1815000D02*
Y1845000D01*
X4275000Y1760000D02*
X4305000D01*
X4290000Y1745000D02*
Y1775000D01*
X4195000Y1760000D02*
X4225000D01*
X4210000Y1745000D02*
Y1775000D01*
X4115000Y1760000D02*
X4145000D01*
X4130000Y1745000D02*
Y1775000D01*
X4035000Y1760000D02*
X4065000D01*
X4050000Y1745000D02*
Y1775000D01*
X1355000Y1760000D02*
X1385000D01*
X1370000Y1745000D02*
Y1775000D01*
X1295000Y1820000D02*
X1325000D01*
X1310000Y1805000D02*
Y1835000D01*
X1355000Y1890000D02*
X1385000D01*
X1370000Y1875000D02*
Y1905000D01*
X1325000Y1970000D02*
X1355000D01*
X1340000Y1955000D02*
Y1985000D01*
X1245000Y1970000D02*
X1275000D01*
X1260000Y1955000D02*
Y1985000D01*
X1165000Y1970000D02*
X1195000D01*
X1180000Y1955000D02*
Y1985000D01*
X1085000Y1970000D02*
X1115000D01*
X1100000Y1955000D02*
Y1985000D01*
X1005000Y1970000D02*
X1035000D01*
X1020000Y1955000D02*
Y1985000D01*
X925000Y1970000D02*
X955000D01*
X940000Y1955000D02*
Y1985000D01*
X845000Y1970000D02*
X875000D01*
X860000Y1955000D02*
Y1985000D01*
X765000Y1970000D02*
X795000D01*
X780000Y1955000D02*
Y1985000D01*
X685000Y1970000D02*
X715000D01*
X700000Y1955000D02*
Y1985000D01*
X605000Y1970000D02*
X635000D01*
X620000Y1955000D02*
Y1985000D01*
X525000Y1970000D02*
X555000D01*
X540000Y1955000D02*
Y1985000D01*
X445000Y1970000D02*
X475000D01*
X460000Y1955000D02*
Y1985000D01*
X365000Y1970000D02*
X395000D01*
X380000Y1955000D02*
Y1985000D01*
X285000Y1970000D02*
X315000D01*
X300000Y1955000D02*
Y1985000D01*
X205000Y1970000D02*
X235000D01*
X220000Y1955000D02*
Y1985000D01*
X125000Y1970000D02*
X155000D01*
X140000Y1955000D02*
Y1985000D01*
X45000Y1970000D02*
X75000D01*
X60000Y1955000D02*
Y1985000D01*
X45000Y1890000D02*
X75000D01*
X60000Y1875000D02*
Y1905000D01*
X45000Y1810000D02*
X75000D01*
X60000Y1795000D02*
Y1825000D01*
X45000Y1730000D02*
X75000D01*
X60000Y1715000D02*
Y1745000D01*
X45000Y1650000D02*
X75000D01*
X60000Y1635000D02*
Y1665000D01*
X45000Y1570000D02*
X75000D01*
X60000Y1555000D02*
Y1585000D01*
X45000Y1490000D02*
X75000D01*
X60000Y1475000D02*
Y1505000D01*
X45000Y1410000D02*
X75000D01*
X60000Y1395000D02*
Y1425000D01*
X45000Y1330000D02*
X75000D01*
X60000Y1315000D02*
Y1345000D01*
X45000Y1250000D02*
X75000D01*
X60000Y1235000D02*
Y1265000D01*
X45000Y1170000D02*
X75000D01*
X60000Y1155000D02*
Y1185000D01*
X45000Y1090000D02*
X75000D01*
X60000Y1075000D02*
Y1105000D01*
X45000Y1010000D02*
X75000D01*
X60000Y995000D02*
Y1025000D01*
X45000Y930000D02*
X75000D01*
X60000Y915000D02*
Y945000D01*
X45000Y850000D02*
X75000D01*
X60000Y835000D02*
Y865000D01*
X45000Y770000D02*
X75000D01*
X60000Y755000D02*
Y785000D01*
X45000Y690000D02*
X75000D01*
X60000Y675000D02*
Y705000D01*
X45000Y610000D02*
X75000D01*
X60000Y595000D02*
Y625000D01*
X45000Y530000D02*
X75000D01*
X60000Y515000D02*
Y545000D01*
X45000Y450000D02*
X75000D01*
X60000Y435000D02*
Y465000D01*
X45000Y370000D02*
X75000D01*
X60000Y355000D02*
Y385000D01*
X45000Y290000D02*
X75000D01*
X60000Y275000D02*
Y305000D01*
X45000Y210000D02*
X75000D01*
X60000Y195000D02*
Y225000D01*
X45000Y130000D02*
X75000D01*
X60000Y115000D02*
Y145000D01*
X95000Y60000D02*
X125000D01*
X110000Y45000D02*
Y75000D01*
X175000Y60000D02*
X205000D01*
X190000Y45000D02*
Y75000D01*
X255000Y60000D02*
X285000D01*
X270000Y45000D02*
Y75000D01*
X335000Y60000D02*
X365000D01*
X350000Y45000D02*
Y75000D01*
X415000Y60000D02*
X445000D01*
X430000Y45000D02*
Y75000D01*
X495000Y60000D02*
X525000D01*
X510000Y45000D02*
Y75000D01*
X575000Y60000D02*
X605000D01*
X590000Y45000D02*
Y75000D01*
X655000Y60000D02*
X685000D01*
X670000Y45000D02*
Y75000D01*
X735000Y60000D02*
X765000D01*
X750000Y45000D02*
Y75000D01*
X815000Y60000D02*
X845000D01*
X830000Y45000D02*
Y75000D01*
X895000Y60000D02*
X925000D01*
X910000Y45000D02*
Y75000D01*
X975000Y60000D02*
X1005000D01*
X990000Y45000D02*
Y75000D01*
X1055000Y60000D02*
X1085000D01*
X1070000Y45000D02*
Y75000D01*
X1135000Y60000D02*
X1165000D01*
X1150000Y45000D02*
Y75000D01*
X1215000Y60000D02*
X1245000D01*
X1230000Y45000D02*
Y75000D01*
X1295000Y60000D02*
X1325000D01*
X1310000Y45000D02*
Y75000D01*
X1375000Y90000D02*
X1405000D01*
X1390000Y75000D02*
Y105000D01*
X1375000Y170000D02*
X1405000D01*
X1390000Y155000D02*
Y185000D01*
X1375000Y250000D02*
X1405000D01*
X1390000Y235000D02*
Y265000D01*
X1375000Y330000D02*
X1405000D01*
X1390000Y315000D02*
Y345000D01*
X1375000Y410000D02*
X1405000D01*
X1390000Y395000D02*
Y425000D01*
X1375000Y490000D02*
X1405000D01*
X1390000Y475000D02*
Y505000D01*
X1375000Y570000D02*
X1405000D01*
X1390000Y555000D02*
Y585000D01*
X1375000Y650000D02*
X1405000D01*
X1390000Y635000D02*
Y665000D01*
X1375000Y730000D02*
X1405000D01*
X1390000Y715000D02*
Y745000D01*
X1325000Y1490000D02*
X1355000D01*
X1340000Y1475000D02*
Y1505000D01*
X1245000Y1490000D02*
X1275000D01*
X1260000Y1475000D02*
Y1505000D01*
X1165000Y1460000D02*
X1195000D01*
X1180000Y1445000D02*
Y1475000D01*
X1135000Y1390000D02*
X1165000D01*
X1150000Y1375000D02*
Y1405000D01*
X1055000Y1390000D02*
X1085000D01*
X1070000Y1375000D02*
Y1405000D01*
X975000Y1400000D02*
X1005000D01*
X990000Y1385000D02*
Y1415000D01*
X975000Y1480000D02*
X1005000D01*
X990000Y1465000D02*
Y1495000D01*
X905000Y1450000D02*
X935000D01*
X920000Y1435000D02*
Y1465000D01*
X895000Y1370000D02*
X925000D01*
X910000Y1355000D02*
Y1385000D01*
X945000Y1320000D02*
X975000D01*
X960000Y1305000D02*
Y1335000D01*
X1025000Y1310000D02*
X1055000D01*
X1040000Y1295000D02*
Y1325000D01*
X1105000Y1310000D02*
X1135000D01*
X1120000Y1295000D02*
Y1325000D01*
X1185000Y1310000D02*
X1215000D01*
X1200000Y1295000D02*
Y1325000D01*
X1245000Y1250000D02*
X1275000D01*
X1260000Y1235000D02*
Y1265000D01*
X1245000Y1170000D02*
X1275000D01*
X1260000Y1155000D02*
Y1185000D01*
X1245000Y1090000D02*
X1275000D01*
X1260000Y1075000D02*
Y1105000D01*
X1145000Y1010000D02*
X1175000D01*
X1160000Y995000D02*
Y1025000D01*
X1225000Y1010000D02*
X1255000D01*
X1240000Y995000D02*
Y1025000D01*
X1305000Y1010000D02*
X1335000D01*
X1320000Y995000D02*
Y1025000D01*
X1385000Y1010000D02*
X1415000D01*
X1400000Y995000D02*
Y1025000D01*
X1375000Y810000D02*
X1405000D01*
X1390000Y795000D02*
Y825000D01*
X1295000Y810000D02*
X1325000D01*
X1310000Y795000D02*
Y825000D01*
X1215000Y810000D02*
X1245000D01*
X1230000Y795000D02*
Y825000D01*
X1135000Y810000D02*
X1165000D01*
X1150000Y795000D02*
Y825000D01*
X1055000Y810000D02*
X1085000D01*
X1070000Y795000D02*
Y825000D01*
X975000Y810000D02*
X1005000D01*
X990000Y795000D02*
Y825000D01*
X975000Y890000D02*
X1005000D01*
X990000Y875000D02*
Y905000D01*
X975000Y970000D02*
X1005000D01*
X990000Y955000D02*
Y985000D01*
X975000Y1050000D02*
X1005000D01*
X990000Y1035000D02*
Y1065000D01*
X975000Y1120000D02*
X1005000D01*
X990000Y1105000D02*
Y1135000D01*
X895000Y1130000D02*
X925000D01*
X910000Y1115000D02*
Y1145000D01*
X895000Y1050000D02*
X925000D01*
X910000Y1035000D02*
Y1065000D01*
X825000Y1010000D02*
X855000D01*
X840000Y995000D02*
Y1025000D01*
X745000Y1010000D02*
X775000D01*
X760000Y995000D02*
Y1025000D01*
X665000Y1010000D02*
X695000D01*
X680000Y995000D02*
Y1025000D01*
X665000Y930000D02*
X695000D01*
X680000Y915000D02*
Y945000D01*
X635000Y850000D02*
X665000D01*
X650000Y835000D02*
Y865000D01*
X555000Y850000D02*
X585000D01*
X570000Y835000D02*
Y865000D01*
X475000Y850000D02*
X505000D01*
X490000Y835000D02*
Y865000D01*
X395000Y850000D02*
X425000D01*
X410000Y835000D02*
Y865000D01*
X315000Y850000D02*
X345000D01*
X330000Y835000D02*
Y865000D01*
X235000Y850000D02*
X265000D01*
X250000Y835000D02*
Y865000D01*
X175000Y910000D02*
X205000D01*
X190000Y895000D02*
Y925000D01*
X175000Y990000D02*
X205000D01*
X190000Y975000D02*
Y1005000D01*
X175000Y1070000D02*
X205000D01*
X190000Y1055000D02*
Y1085000D01*
X175000Y1150000D02*
X205000D01*
X190000Y1135000D02*
Y1165000D01*
X175000Y1230000D02*
X205000D01*
X190000Y1215000D02*
Y1245000D01*
X175000Y1310000D02*
X205000D01*
X190000Y1295000D02*
Y1325000D01*
X225000Y1380000D02*
X255000D01*
X240000Y1365000D02*
Y1395000D01*
X305000Y1380000D02*
X335000D01*
X320000Y1365000D02*
Y1395000D01*
X385000Y1380000D02*
X415000D01*
X400000Y1365000D02*
Y1395000D01*
X465000Y1380000D02*
X495000D01*
X480000Y1365000D02*
Y1395000D01*
X545000Y1380000D02*
X575000D01*
X560000Y1365000D02*
Y1395000D01*
X625000Y1380000D02*
X655000D01*
X640000Y1365000D02*
Y1395000D01*
X625000Y1300000D02*
X655000D01*
X640000Y1285000D02*
Y1315000D01*
X625000Y1220000D02*
X655000D01*
X640000Y1205000D02*
Y1235000D01*
X705000Y1220000D02*
X735000D01*
X720000Y1205000D02*
Y1235000D01*
X705000Y1300000D02*
X735000D01*
X720000Y1285000D02*
Y1315000D01*
X705000Y1380000D02*
X735000D01*
X720000Y1365000D02*
Y1395000D01*
X705000Y1460000D02*
X735000D01*
X720000Y1445000D02*
Y1475000D01*
X735000Y1540000D02*
X765000D01*
X750000Y1525000D02*
Y1555000D01*
X795000Y1600000D02*
X825000D01*
X810000Y1585000D02*
Y1615000D01*
X865000Y1650000D02*
X895000D01*
X880000Y1635000D02*
Y1665000D01*
X945000Y1680000D02*
X975000D01*
X960000Y1665000D02*
Y1695000D01*
X1025000Y1680000D02*
X1055000D01*
X1040000Y1665000D02*
Y1695000D01*
X1105000Y1680000D02*
X1135000D01*
X1120000Y1665000D02*
Y1695000D01*
X1185000Y1680000D02*
X1215000D01*
X1200000Y1665000D02*
Y1695000D01*
X1265000Y1680000D02*
X1295000D01*
X1280000Y1665000D02*
Y1695000D01*
X1345000Y1680000D02*
X1375000D01*
X1360000Y1665000D02*
Y1695000D01*
X1845000Y2410000D02*
X1875000D01*
X1860000Y2395000D02*
Y2425000D01*
X1735000Y2410000D02*
X1765000D01*
X1750000Y2395000D02*
Y2425000D01*
X1455000Y2430000D02*
X1485000D01*
X1470000Y2415000D02*
Y2445000D01*
X1325000Y2430000D02*
X1355000D01*
X1340000Y2415000D02*
Y2445000D01*
X1195000Y2430000D02*
X1225000D01*
X1210000Y2415000D02*
Y2445000D01*
X3865000Y5030000D02*
X3895000D01*
X3880000Y5015000D02*
Y5045000D01*
X2845000Y5570000D02*
X2875000D01*
X2860000Y5555000D02*
Y5585000D01*
X2845000Y5420000D02*
X2875000D01*
X2860000Y5405000D02*
Y5435000D01*
X4867500Y6310000D02*
X4897500D01*
X4882500Y6295000D02*
Y6325000D01*
X4525000Y6360000D02*
X4555000D01*
X4540000Y6345000D02*
Y6375000D01*
X2195000Y3010000D02*
X2225000D01*
X2210000Y2995000D02*
Y3025000D01*
X1655000Y3060000D02*
X1685000D01*
X1670000Y3045000D02*
Y3075000D01*
X985000Y3037500D02*
X1015000D01*
X1000000Y3022500D02*
Y3052500D01*
X1965000Y4250000D02*
X1995000D01*
X1980000Y4235000D02*
Y4265000D01*
X345000Y3240000D02*
X375000D01*
X360000Y3225000D02*
Y3255000D01*
X485000Y3000000D02*
X515000D01*
X500000Y2985000D02*
Y3015000D01*
X1915000Y2580000D02*
X1945000D01*
X1930000Y2565000D02*
Y2595000D01*
X1905000Y2710000D02*
X1935000D01*
X1920000Y2695000D02*
Y2725000D01*
X275000Y3410000D02*
X305000D01*
X290000Y3395000D02*
Y3425000D01*
X1075000Y2790000D02*
X1105000D01*
X1090000Y2775000D02*
Y2805000D01*
X845000Y2852500D02*
X875000D01*
X860000Y2837500D02*
Y2867500D01*
X715000Y2852500D02*
X745000D01*
X730000Y2837500D02*
Y2867500D01*
X985000Y2852500D02*
X1015000D01*
X1000000Y2837500D02*
Y2867500D01*
X1075000Y2690000D02*
X1105000D01*
X1090000Y2675000D02*
Y2705000D01*
X995000Y2500000D02*
X1025000D01*
X1010000Y2485000D02*
Y2515000D01*
X895000Y2500000D02*
X925000D01*
X910000Y2485000D02*
Y2515000D01*
X795000Y2500000D02*
X825000D01*
X810000Y2485000D02*
Y2515000D01*
X685000Y2500000D02*
X715000D01*
X700000Y2485000D02*
Y2515000D01*
X4235000Y5910000D02*
X4265000D01*
X4250000Y5895000D02*
Y5925000D01*
X4425000Y5860000D02*
X4455000D01*
X4440000Y5845000D02*
Y5875000D01*
X4065000Y3910000D02*
X4095000D01*
X4080000Y3895000D02*
Y3925000D01*
X3685000Y6010000D02*
X3715000D01*
X3700000Y5995000D02*
Y6025000D01*
X3685000Y6130000D02*
X3715000D01*
X3700000Y6115000D02*
Y6145000D01*
X2755000Y5940000D02*
X2785000D01*
X2770000Y5925000D02*
Y5955000D01*
X2815000Y6310000D02*
X2845000D01*
X2830000Y6295000D02*
Y6325000D01*
X2695000Y6290000D02*
X2725000D01*
X2710000Y6275000D02*
Y6305000D01*
X2695000Y6380000D02*
X2725000D01*
X2710000Y6365000D02*
Y6395000D01*
X2595000Y6380000D02*
X2625000D01*
X2610000Y6365000D02*
Y6395000D01*
X2595000Y6290000D02*
X2625000D01*
X2610000Y6275000D02*
Y6305000D01*
X2055000Y5300000D02*
X2085000D01*
X2070000Y5285000D02*
Y5315000D01*
X1935000Y5300000D02*
X1965000D01*
X1950000Y5285000D02*
Y5315000D01*
X1825000Y5300000D02*
X1855000D01*
X1840000Y5285000D02*
Y5315000D01*
X3660000Y5375000D02*
X3690000D01*
X3675000Y5360000D02*
Y5390000D01*
X3535000Y4275000D02*
X3565000D01*
X3550000Y4260000D02*
Y4290000D01*
X3410000Y4275000D02*
X3440000D01*
X3425000Y4260000D02*
Y4290000D01*
X3510000Y4825000D02*
X3540000D01*
X3525000Y4810000D02*
Y4840000D01*
X3410000Y4825000D02*
X3440000D01*
X3425000Y4810000D02*
Y4840000D01*
X3310000Y4825000D02*
X3340000D01*
X3325000Y4810000D02*
Y4840000D01*
X3210000Y4825000D02*
X3240000D01*
X3225000Y4810000D02*
Y4840000D01*
X2935000Y4950000D02*
X2965000D01*
X2950000Y4935000D02*
Y4965000D01*
X2985000Y5050000D02*
X3015000D01*
X3000000Y5035000D02*
Y5065000D01*
X2885000Y5050000D02*
X2915000D01*
X2900000Y5035000D02*
Y5065000D01*
X1495000Y4854216D02*
X1525000D01*
X1510000Y4839216D02*
Y4869216D01*
X1505000Y5395000D02*
X1535000D01*
X1520000Y5380000D02*
Y5410000D01*
X1360000Y5430000D02*
X1390000D01*
X1375000Y5415000D02*
Y5445000D01*
X1355000Y5317500D02*
X1385000D01*
X1370000Y5302500D02*
Y5332500D01*
X887500Y4595000D02*
X917500D01*
X902500Y4580000D02*
Y4610000D01*
X872500Y4687500D02*
X902500D01*
X887500Y4672500D02*
Y4702500D01*
X3757500Y6217500D02*
X3787500D01*
X3772500Y6202500D02*
Y6232500D01*
X1127500Y4590000D02*
X1157500D01*
X1142500Y4575000D02*
Y4605000D01*
X675000Y4287500D02*
X705000D01*
X690000Y4272500D02*
Y4302500D01*
X395000Y4110000D02*
X425000D01*
X410000Y4095000D02*
Y4125000D01*
X4542500Y6932500D02*
X4572500D01*
X4557500Y6917500D02*
Y6947500D01*
X1393591Y4542500D02*
X1423590D01*
X1408591Y4527500D02*
Y4557500D01*
X1335000Y4655000D02*
X1365000D01*
X1350000Y4640000D02*
Y4670000D01*
X1444341Y4480658D02*
X1474341D01*
X1459341Y4465658D02*
Y4495658D01*
X1137500Y4687500D02*
X1167500D01*
X1152500Y4672500D02*
Y4702500D01*
X1254341Y4570658D02*
X1284341D01*
X1269341Y4555658D02*
Y4585658D01*
X1277500Y4490000D02*
X1307500D01*
X1292500Y4475000D02*
Y4505000D01*
X3925000Y6660000D02*
X3955000D01*
X3940000Y6645000D02*
Y6675000D01*
X3955000Y3810000D02*
X3985000D01*
X3970000Y3795000D02*
Y3825000D01*
X4545000Y5860000D02*
X4575000D01*
X4560000Y5845000D02*
Y5875000D01*
X3895000Y3740000D02*
X3925000D01*
X3910000Y3725000D02*
Y3755000D01*
X3715000Y5740000D02*
X3745000D01*
X3730000Y5725000D02*
Y5755000D01*
X4195000Y4680000D02*
X4225000D01*
X4210000Y4665000D02*
Y4695000D01*
X1975000Y4035659D02*
X2005000D01*
X1990000Y4020659D02*
Y4050659D01*
X1954342Y3940659D02*
X1984341D01*
X1969342Y3925659D02*
Y3955659D01*
X1737500Y4500000D02*
X1767500D01*
X1752500Y4485000D02*
Y4515000D01*
X715000Y4010000D02*
X745000D01*
X730000Y3995000D02*
Y4025000D01*
X445000Y3990000D02*
X475000D01*
X460000Y3975000D02*
Y4005000D01*
X1525000Y3980000D02*
X1555000D01*
X1540000Y3965000D02*
Y3995000D01*
X745000Y3920000D02*
X775000D01*
X760000Y3905000D02*
Y3935000D01*
X995000Y3360000D02*
X1025000D01*
X1010000Y3345000D02*
Y3375000D01*
X1865000Y2830000D02*
X1895000D01*
X1880000Y2815000D02*
Y2845000D01*
X1445000Y2910000D02*
X1475000D01*
X1460000Y2895000D02*
Y2925000D01*
X2014341Y3720659D02*
X2044341D01*
X2029341Y3705659D02*
Y3735659D01*
X1985000Y3800000D02*
X2015000D01*
X2000000Y3785000D02*
Y3815000D01*
X1445000Y5290000D02*
X1475000D01*
X1460000Y5275000D02*
Y5305000D01*
X3575000Y5580000D02*
X3605000D01*
X3590000Y5565000D02*
Y5595000D01*
X3655000Y5660000D02*
X3685000D01*
X3670000Y5645000D02*
Y5675000D01*
X1855000Y3030000D02*
X1885000D01*
X1870000Y3015000D02*
Y3045000D01*
X1825000Y3170000D02*
X1855000D01*
X1840000Y3155000D02*
Y3185000D01*
X1285000Y5970000D02*
X1315000D01*
X1300000Y5955000D02*
Y5985000D01*
X1205000Y5370000D02*
X1235000D01*
X1220000Y5355000D02*
Y5385000D01*
X1205000Y5290000D02*
X1235000D01*
X1220000Y5275000D02*
Y5305000D01*
X968817Y5017500D02*
X998817D01*
X983817Y5002500D02*
Y5032500D01*
X585000Y5550000D02*
X615000D01*
X600000Y5535000D02*
Y5565000D01*
X1815000Y260000D02*
X1845000D01*
X1830000Y245000D02*
Y275000D01*
X2035000Y2770000D02*
X2065000D01*
X2050000Y2755000D02*
Y2785000D01*
X4335000Y750000D02*
X4365000D01*
X4350000Y735000D02*
Y765000D01*
X2485000Y2650000D02*
X2515000D01*
X2500000Y2635000D02*
Y2665000D01*
X2371250Y2633750D02*
X2401250D01*
X2386250Y2618750D02*
Y2648750D01*
X4335000Y1110000D02*
X4365000D01*
X4350000Y1095000D02*
Y1125000D01*
X2635000Y2540000D02*
X2665000D01*
X2650000Y2525000D02*
Y2555000D01*
X455000Y2080000D02*
X485000D01*
X470000Y2065000D02*
Y2095000D01*
X1595000Y4200000D02*
X1625000D01*
X1610000Y4185000D02*
Y4215000D01*
X2841020Y5698520D02*
X2871020D01*
X2856020Y5683520D02*
Y5713520D01*
X3105000Y5910000D02*
X3135000D01*
X3120000Y5895000D02*
Y5925000D01*
X2835000Y5280000D02*
X2865000D01*
X2850000Y5265000D02*
Y5295000D01*
X3085000Y5680000D02*
X3115000D01*
X3100000Y5665000D02*
Y5695000D01*
%TF.MD5,7cbe9157c674b87fe9dc030e34972447*%
M02*
