%TF.GenerationSoftware,Altium Limited,Altium Designer,21.2.2 (38)*%
G04 Layer_Color=32768*
%FSLAX45Y45*%
%MOMM*%
%TF.SameCoordinates,215B76EA-4B9E-490E-954B-DD862D4548B8*%
%TF.FilePolarity,Positive*%
%TF.FileFunction,Other,Mechanical_15*%
%TF.Part,Single*%
G01*
G75*
%TA.AperFunction,NonConductor*%
%ADD88C,0.10000*%
%ADD89C,0.25400*%
%ADD90C,0.20000*%
%ADD91C,0.15000*%
%ADD139C,0.05000*%
D88*
X4160000Y5640000D02*
X4260000D01*
X4210000Y5590000D02*
Y5690000D01*
X2940000Y2590000D02*
X3040001D01*
X2990001Y2540000D02*
Y2640000D01*
X2940000Y2720000D02*
X3040001D01*
X2990001Y2670000D02*
Y2770000D01*
X2622500Y3630000D02*
X2717500D01*
X2670000Y3582500D02*
Y3677500D01*
X2615000Y3510000D02*
Y3750000D01*
X2725000Y3510000D02*
Y3750000D01*
X2615000D02*
X2725000D01*
X2615000Y3510000D02*
X2725000D01*
X2540000Y3182500D02*
Y3277500D01*
X2492500Y3230000D02*
X2587500D01*
X2420000Y3175000D02*
X2660000D01*
X2420000Y3285000D02*
X2660000D01*
X2420000Y3175000D02*
Y3285000D01*
X2660000Y3175000D02*
Y3285000D01*
X2940000Y2840000D02*
X3040001D01*
X2990001Y2790000D02*
Y2890000D01*
X2720001Y2990000D02*
Y3090000D01*
X2670001Y3040000D02*
X2770001D01*
X3035001Y3160000D02*
X3145001D01*
X3035001Y2920000D02*
X3145001D01*
X3035001D02*
Y3160000D01*
X3145001Y2920000D02*
Y3160000D01*
X3090000Y2992500D02*
Y3087500D01*
X3042500Y3040000D02*
X3137500D01*
X3155001Y3160000D02*
X3265001D01*
X3155001Y2920000D02*
X3265001D01*
X3155001D02*
Y3160000D01*
X3265001Y2920000D02*
Y3160000D01*
X3210000Y2992500D02*
Y3087500D01*
X3162500Y3040000D02*
X3257500D01*
X2950000Y3240000D02*
X3050001D01*
X3000001Y3190000D02*
Y3290000D01*
X2950000Y3370000D02*
X3050001D01*
X3000001Y3320000D02*
Y3420000D01*
X2950000Y3510000D02*
X3050001D01*
X3000001Y3460000D02*
Y3560000D01*
X4180000Y5205000D02*
Y5315000D01*
X3940000Y5205000D02*
Y5315000D01*
Y5205000D02*
X4180000D01*
X3940000Y5315000D02*
X4180000D01*
X4012500Y5260000D02*
X4107500D01*
X4060000Y5212500D02*
Y5307500D01*
X3810000Y4745000D02*
Y4855000D01*
X4050000Y4745000D02*
Y4855000D01*
X3810000D02*
X4050000D01*
X3810000Y4745000D02*
X4050000D01*
X3882500Y4800000D02*
X3977500D01*
X3930000Y4752500D02*
Y4847500D01*
X3020000Y4780000D02*
Y4880000D01*
X2970000Y4830000D02*
X3070000D01*
X2880000Y4910000D02*
X3160000D01*
X2880000Y4750000D02*
X3160000D01*
X2880000D02*
Y4910000D01*
X3160000Y4750000D02*
Y4910000D01*
X3400000Y4595000D02*
Y4705000D01*
X3640000Y4595000D02*
Y4705000D01*
X3400000D02*
X3640000D01*
X3400000Y4595000D02*
X3640000D01*
X3472500Y4650000D02*
X3567500D01*
X3520000Y4602500D02*
Y4697500D01*
X2465000Y3080000D02*
X2575000D01*
X2465000Y3320000D02*
X2575000D01*
X2465000Y3080000D02*
Y3320000D01*
X2575000Y3080000D02*
Y3320000D01*
X2520000Y3152500D02*
Y3247500D01*
X2472500Y3200000D02*
X2567500D01*
X415000Y2655000D02*
Y2955000D01*
X165000Y2655000D02*
X415000D01*
X165000D02*
Y2955000D01*
X415000D01*
X680000Y2460000D02*
X780000D01*
X730000Y2410000D02*
Y2510000D01*
X190000Y2502500D02*
Y2597500D01*
X142500Y2550000D02*
X237500D01*
X70000Y2495000D02*
X310000D01*
X70000Y2605000D02*
X310000D01*
Y2495000D02*
Y2605000D01*
X70000Y2495000D02*
Y2605000D01*
X55000Y2160000D02*
Y2460000D01*
X305000D01*
Y2160000D02*
Y2460000D01*
X55000Y2160000D02*
X305000D01*
X4295000Y475000D02*
X4545000D01*
Y775000D01*
X4295000D02*
X4545000D01*
X4295000Y475000D02*
Y775000D01*
Y825000D02*
Y1125000D01*
X4545000D01*
Y825000D02*
Y1125000D01*
X4295000Y825000D02*
X4545000D01*
X2980000Y2590000D02*
X3080000D01*
X3030000Y2540000D02*
Y2640000D01*
X2840000Y3239999D02*
X2940000D01*
X2890000Y3189999D02*
Y3289999D01*
X2890000Y3500000D02*
Y3599999D01*
X2840000Y3550000D02*
X2940000D01*
X3175000Y4210000D02*
X3285000D01*
X3175000Y4450000D02*
X3285000D01*
X3175000Y4210000D02*
Y4450000D01*
X3285000Y4210000D02*
Y4450000D01*
X3230000Y4282500D02*
Y4377500D01*
X3182500Y4330000D02*
X3277500D01*
X3655000Y4700000D02*
X3765000D01*
X3655000Y4460000D02*
X3765000D01*
Y4700000D01*
X3655000Y4460000D02*
Y4700000D01*
X3710000Y4532500D02*
Y4627500D01*
X3662500Y4580000D02*
X3757500D01*
X4020000Y4395000D02*
Y4505000D01*
X3780000Y4395000D02*
Y4505000D01*
Y4395000D02*
X4020000D01*
X3780000Y4505000D02*
X4020000D01*
X3852500Y4450000D02*
X3947500D01*
X3900000Y4402500D02*
Y4497500D01*
X4020000Y4515000D02*
Y4625000D01*
X3780000Y4515000D02*
Y4625000D01*
Y4515000D02*
X4020000D01*
X3780000Y4625000D02*
X4020000D01*
X3852500Y4570000D02*
X3947500D01*
X3900000Y4522500D02*
Y4617500D01*
X4460000Y4845000D02*
Y4955000D01*
X4220000Y4845000D02*
Y4955000D01*
Y4845000D02*
X4460000D01*
X4220000Y4955000D02*
X4460000D01*
X4292500Y4900000D02*
X4387500D01*
X4340000Y4852500D02*
Y4947500D01*
X3810000Y4745000D02*
Y4855000D01*
X3570000Y4745000D02*
Y4855000D01*
Y4745000D02*
X3810000D01*
X3570000Y4855000D02*
X3810000D01*
X3642500Y4800000D02*
X3737500D01*
X3690000Y4752500D02*
Y4847500D01*
X3480000Y5205000D02*
Y5315000D01*
X3720000Y5205000D02*
Y5315000D01*
X3480000D02*
X3720000D01*
X3480000Y5205000D02*
X3720000D01*
X3552500Y5260000D02*
X3647500D01*
X3600000Y5212500D02*
Y5307500D01*
X3765000Y5830000D02*
X3875000D01*
X3765000Y6070000D02*
X3875000D01*
X3765000Y5830000D02*
Y6070000D01*
X3875000Y5830000D02*
Y6070000D01*
X3820000Y5902500D02*
Y5997500D01*
X3772500Y5950000D02*
X3867500D01*
X4479000Y4777000D02*
X5005000D01*
X4479000D02*
Y5793000D01*
X5005000D01*
Y4777000D02*
Y5793000D01*
X4870000Y5920000D02*
Y6120000D01*
X4670000Y5920000D02*
X4870000D01*
X4670000D02*
Y6120000D01*
X4870000D01*
X4760000Y6680000D02*
Y6780000D01*
X4710000Y6730000D02*
X4810000D01*
X3992500Y6740000D02*
X4087500D01*
X4040000Y6692500D02*
Y6787500D01*
X4095000Y6620000D02*
Y6860000D01*
X3985000Y6620000D02*
Y6860000D01*
X4095000D01*
X3985000Y6620000D02*
X4095000D01*
X3755000Y6670000D02*
X3865000D01*
X3755000Y6910000D02*
X3865000D01*
X3755000Y6670000D02*
Y6910000D01*
X3865000Y6670000D02*
Y6910000D01*
X3810000Y6742500D02*
Y6837500D01*
X3762500Y6790000D02*
X3857500D01*
X3525000Y6332500D02*
Y6582500D01*
X3825000D01*
Y6332500D02*
Y6582500D01*
X3525000Y6332500D02*
X3825000D01*
X3490000Y6100000D02*
Y6510000D01*
X1640000Y6100000D02*
X3490000D01*
X1640000D02*
Y6570000D01*
X3490000D01*
Y6510000D02*
Y6570000D01*
X3525000Y5970000D02*
X3635000D01*
X3525000Y6210000D02*
X3635000D01*
X3525000Y5970000D02*
Y6210000D01*
X3635000Y5970000D02*
Y6210000D01*
X3580000Y6042500D02*
Y6137500D01*
X3532500Y6090000D02*
X3627500D01*
X3449999Y5975000D02*
Y6085001D01*
X3210000Y5975000D02*
Y6085001D01*
Y5975000D02*
X3449999D01*
X3210000Y6085001D02*
X3449999D01*
X3282500Y6030000D02*
X3377499D01*
X3329999Y5982500D02*
Y6077500D01*
X3410000Y5855000D02*
Y5965000D01*
X3170000Y5855000D02*
Y5965000D01*
Y5855000D02*
X3410000D01*
X3170000Y5965000D02*
X3410000D01*
X3242500Y5910000D02*
X3337500D01*
X3290000Y5862500D02*
Y5957500D01*
X3390000Y5735000D02*
Y5845000D01*
X3150000Y5735000D02*
Y5845000D01*
Y5735000D02*
X3390000D01*
X3150000Y5845000D02*
X3390000D01*
X3222500Y5790000D02*
X3317500D01*
X3270000Y5742500D02*
Y5837500D01*
X3390000Y5615000D02*
Y5725000D01*
X3150000Y5615000D02*
Y5725000D01*
Y5615000D02*
X3390000D01*
X3150000Y5725000D02*
X3390000D01*
X3222500Y5670000D02*
X3317500D01*
X3270000Y5622500D02*
Y5717500D01*
X3390000Y5495000D02*
Y5605000D01*
X3150000Y5495000D02*
Y5605000D01*
Y5495000D02*
X3390000D01*
X3150000Y5605000D02*
X3390000D01*
X3222500Y5550000D02*
X3317500D01*
X3270000Y5502500D02*
Y5597500D01*
X3390000Y5375000D02*
Y5485000D01*
X3150000Y5375000D02*
Y5485000D01*
Y5375000D02*
X3390000D01*
X3150000Y5485000D02*
X3390000D01*
X3222500Y5430000D02*
X3317500D01*
X3270000Y5382500D02*
Y5477500D01*
X3350000Y5265000D02*
Y5375000D01*
X3110000Y5265000D02*
Y5375000D01*
Y5265000D02*
X3350000D01*
X3110000Y5375000D02*
X3350000D01*
X3182500Y5320000D02*
X3277500D01*
X3230000Y5272500D02*
Y5367500D01*
X1440000Y5750000D02*
X1600000D01*
X1440000Y5470000D02*
X1600000D01*
Y5750000D01*
X1440000Y5470000D02*
Y5750000D01*
X1520000Y5560000D02*
Y5660000D01*
X1470000Y5610000D02*
X1570000D01*
X1690000Y5070002D02*
Y5700002D01*
X2190000D01*
Y5070002D02*
Y5700002D01*
X1690000Y5070002D02*
X2190000D01*
X2162499Y4900001D02*
X2257499D01*
X2209999Y4852501D02*
Y4947501D01*
X2264999Y4780001D02*
Y5020001D01*
X2154999Y4780001D02*
Y5020001D01*
X2264999D01*
X2154999Y4780001D02*
X2264999D01*
X1812499Y4725001D02*
Y5025001D01*
Y4725001D02*
X2062499D01*
Y5025001D01*
X1812499D02*
X2062499D01*
X1612499Y4930002D02*
X1707499D01*
X1659999Y4882502D02*
Y4977501D01*
X1714999Y4810002D02*
Y5050001D01*
X1604999Y4810002D02*
Y5050001D01*
X1714999D01*
X1604999Y4810002D02*
X1714999D01*
X445000Y4680000D02*
X555000D01*
X445000Y4440000D02*
X555000D01*
Y4680000D01*
X445000Y4440000D02*
Y4680000D01*
X500000Y4512500D02*
Y4607500D01*
X452500Y4560000D02*
X547500D01*
X280000Y5300000D02*
Y5460000D01*
X560000Y5300000D02*
Y5460000D01*
X280000D02*
X560000D01*
X280000Y5300000D02*
X560000D01*
X370000Y5380000D02*
X470000D01*
X420000Y5330000D02*
Y5430000D01*
X320000Y6390000D02*
Y6550000D01*
X600000Y6390000D02*
Y6550000D01*
X320000D02*
X600000D01*
X320000Y6390000D02*
X600000D01*
X410000Y6470000D02*
X510000D01*
X460000Y6420000D02*
Y6520000D01*
X2670000Y1230000D02*
X2770000D01*
X2720000D02*
Y1280000D01*
Y1180000D02*
Y1230000D01*
X4220000Y1970000D02*
X4320000D01*
X4270000Y1920000D02*
Y2020000D01*
X2135000Y5780002D02*
X2245000D01*
X2135000Y6020002D02*
X2245000D01*
X2135000Y5780002D02*
Y6020002D01*
X2245000Y5780002D02*
Y6020002D01*
X2190000Y5852502D02*
Y5947502D01*
X2142500Y5900002D02*
X2237500D01*
X1805000Y5745002D02*
Y5995002D01*
Y5745002D02*
X2105000D01*
Y5995002D01*
X1805000D02*
X2105000D01*
X2255000Y5780002D02*
X2365000D01*
X2255000Y6020002D02*
X2365000D01*
X2255000Y5780002D02*
Y6020002D01*
X2365000Y5780002D02*
Y6020002D01*
X2310000Y5852502D02*
Y5947502D01*
X2262500Y5900002D02*
X2357500D01*
X2225000Y5650000D02*
X2335000D01*
X2225000Y5410000D02*
X2335000D01*
Y5650000D01*
X2225000Y5410000D02*
Y5650000D01*
X2280000Y5482500D02*
Y5577500D01*
X2232500Y5530000D02*
X2327500D01*
X1250000Y5825000D02*
Y6075000D01*
Y5825000D02*
X1550000D01*
Y6075000D01*
X1250000D02*
X1550000D01*
X2225000Y5280000D02*
X2335000D01*
X2225000Y5040000D02*
X2335000D01*
Y5280000D01*
X2225000Y5040000D02*
Y5280000D01*
X2280000Y5112500D02*
Y5207500D01*
X2232500Y5160000D02*
X2327500D01*
X4740000Y1450000D02*
Y1890000D01*
X4340000Y1450000D02*
X4740000D01*
X4340000D02*
Y1890000D01*
X4740000D01*
X1130000Y1060000D02*
Y1160000D01*
X1080000Y1110000D02*
X1180000D01*
X1860000Y2670000D02*
X1960000D01*
X1910000Y2620000D02*
Y2720000D01*
X3820000Y3180000D02*
X4420000D01*
Y2680000D02*
Y3180000D01*
X3820000Y2680000D02*
X4420000D01*
X3820000D02*
Y3180000D01*
X240000Y890000D02*
Y1330000D01*
X640000D01*
Y890000D02*
Y1330000D01*
X240000Y890000D02*
X640000D01*
X1442500Y2250000D02*
X1537500D01*
X1490000Y2202500D02*
Y2297500D01*
X1435000Y2130000D02*
Y2370000D01*
X1545000Y2130000D02*
Y2370000D01*
X1435000Y2130000D02*
X1545000D01*
X1435000Y2370000D02*
X1545000D01*
X900000Y1172500D02*
Y1267500D01*
X852500Y1220000D02*
X947500D01*
X780000Y1165000D02*
X1020000D01*
X780000Y1275000D02*
X1020000D01*
Y1165000D02*
Y1275000D01*
X780000Y1165000D02*
Y1275000D01*
X1140001Y2380000D02*
X1300000D01*
X1140001Y2100000D02*
X1300000D01*
Y2380000D01*
X1140001Y2100000D02*
Y2380000D01*
X1220000Y2190000D02*
Y2290000D01*
X1170000Y2240000D02*
X1270001D01*
X1322500Y2250000D02*
X1417500D01*
X1370000Y2202500D02*
Y2297500D01*
X1315000Y2130000D02*
Y2370000D01*
X1425000Y2130000D02*
Y2370000D01*
X1315000Y2130000D02*
X1425000D01*
X1315000Y2370000D02*
X1425000D01*
X1150000Y862500D02*
Y957500D01*
X1102500Y910000D02*
X1197500D01*
X1030000Y855000D02*
X1270000D01*
X1030000Y965000D02*
X1270000D01*
Y855000D02*
Y965000D01*
X1030000Y855000D02*
Y965000D01*
X3965000Y6490000D02*
X4075000D01*
X3965000Y6250000D02*
X4075000D01*
Y6490000D01*
X3965000Y6250000D02*
Y6490000D01*
X4020000Y6322500D02*
Y6417500D01*
X3972500Y6370000D02*
X4067500D01*
D89*
X690000Y6140000D02*
Y6840000D01*
Y6140000D02*
X1390000D01*
Y6840000D01*
X690000D02*
X1390000D01*
X3680000Y4880000D02*
X4080000D01*
X3680000D02*
Y5180000D01*
X4080000D01*
Y4880000D02*
Y5180000D01*
X4100001Y2815000D02*
Y3015000D01*
X4000001Y2915000D02*
X4200001D01*
X3091000Y2148000D02*
X4996000D01*
X3091000D02*
Y3672000D01*
X4996000D01*
Y2148000D02*
Y3672000D01*
D90*
X2730000Y3490000D02*
X2810000D01*
X2730000D02*
Y3670000D01*
X2810000D01*
Y3490000D02*
Y3670000D01*
X2740000Y3780000D02*
Y4270000D01*
X3040000D01*
Y3780000D02*
Y4270000D01*
X2740000Y3780000D02*
X3040000D01*
X2390000Y3420000D02*
X2600000D01*
X2390000D02*
Y3630000D01*
X2600000D01*
Y3420000D02*
Y3630000D01*
X2790001Y2950000D02*
Y3130000D01*
Y2950000D02*
X2870001D01*
Y3130000D01*
X2790001D02*
X2870001D01*
X2870001Y2949999D02*
Y3130000D01*
Y2949999D02*
X2950001D01*
Y3130000D01*
X2870001D02*
X2950001D01*
Y2949999D02*
Y3130000D01*
Y2949999D02*
X3030001D01*
Y3130000D01*
X2950001D02*
X3030001D01*
X440000Y3390000D02*
Y3470000D01*
X620000D01*
Y3390000D02*
Y3470000D01*
X440000Y3390000D02*
X620000D01*
X1020000Y3890000D02*
Y3970000D01*
X840000Y3890000D02*
X1020000D01*
X840000D02*
Y3970000D01*
X1020000D01*
X480000Y3510000D02*
Y3850000D01*
X1050000D01*
Y3510000D02*
Y3850000D01*
X480000Y3510000D02*
X1050000D01*
X230000Y3880000D02*
Y3960000D01*
X410000D01*
Y3880000D02*
Y3960000D01*
X230000Y3880000D02*
X410000D01*
X290000Y3890000D02*
Y4070000D01*
X370000D01*
Y3890000D02*
Y4070000D01*
X290000Y3890000D02*
X370000D01*
X240000Y3880000D02*
Y3960000D01*
X60000Y3880000D02*
X240000D01*
X60000D02*
Y3960000D01*
X240000D01*
X4350000Y5090000D02*
Y5270000D01*
X4270000Y5090000D02*
X4350000D01*
X4270000D02*
Y5270000D01*
X4350000D01*
X4270000Y5090000D02*
Y5270000D01*
X4190000Y5090000D02*
X4270000D01*
X4190000D02*
Y5270000D01*
X4270000D01*
X3130000Y4540000D02*
Y4720000D01*
X3210000D01*
Y4540000D02*
Y4720000D01*
X3130000Y4540000D02*
X3210000D01*
X2900000D02*
Y4720000D01*
X2980000D01*
Y4540000D02*
Y4720000D01*
X2900000Y4540000D02*
X2980000D01*
X3030000D02*
Y4720000D01*
X3110000D01*
Y4540000D02*
Y4720000D01*
X3030000Y4540000D02*
X3110000D01*
X2300000Y3100000D02*
Y3280000D01*
X2380000D01*
Y3100000D02*
Y3280000D01*
X2300000Y3100000D02*
X2380000D01*
Y3280000D01*
X2460000D01*
Y3100000D02*
Y3280000D01*
X2380000Y3100000D02*
X2460000D01*
X170000Y3890000D02*
Y4070000D01*
X250000D01*
Y3890000D02*
Y4070000D01*
X170000Y3890000D02*
X250000D01*
X340000Y3670000D02*
Y3850000D01*
X420000D01*
Y3670000D02*
Y3850000D01*
X340000Y3670000D02*
X420000D01*
X160000Y3750000D02*
X340000D01*
Y3670000D02*
Y3750000D01*
X160000Y3670000D02*
X340000D01*
X160000D02*
Y3750000D01*
X1430000Y3110000D02*
X1610000D01*
Y3030000D02*
Y3110000D01*
X1430000Y3030000D02*
X1610000D01*
X1430000D02*
Y3110000D01*
X750000Y3100000D02*
X930000D01*
Y3020000D02*
Y3100000D01*
X750000Y3020000D02*
X930000D01*
X750000D02*
Y3100000D01*
X680000Y2830000D02*
Y2910000D01*
X500000D02*
X680000D01*
X500000Y2830000D02*
Y2910000D01*
Y2830000D02*
X680000D01*
X150000Y3080000D02*
Y3160000D01*
Y3080000D02*
X330000D01*
Y3160000D01*
X150000D02*
X330000D01*
Y2990000D02*
Y3070000D01*
X150000D02*
X330000D01*
X150000Y2990000D02*
Y3070000D01*
Y2990000D02*
X330000D01*
X340000Y2600000D02*
X420000D01*
X340000Y2420000D02*
Y2600000D01*
Y2420000D02*
X420000D01*
Y2600000D01*
X340000Y2370000D02*
X420000D01*
X340000Y2190000D02*
Y2370000D01*
Y2190000D02*
X420000D01*
Y2370000D01*
X420000Y2040000D02*
Y2120000D01*
X240000D02*
X420000D01*
X240000Y2040000D02*
Y2120000D01*
Y2040000D02*
X420000D01*
X4670000Y500000D02*
Y680000D01*
X4590000Y500000D02*
X4670000D01*
X4590000D02*
Y680000D01*
X4670000D01*
X4750000Y500000D02*
Y680000D01*
X4670000Y500000D02*
X4750000D01*
X4670000D02*
Y680000D01*
X4750000D01*
X4580000Y1020000D02*
X4660000D01*
X4580000Y840000D02*
Y1020000D01*
Y840000D02*
X4660000D01*
Y1020000D01*
X4660001D02*
X4740000D01*
X4660001Y840000D02*
Y1020000D01*
Y840000D02*
X4740000D01*
Y1020000D01*
X4830000Y500000D02*
Y680000D01*
X4750000Y500000D02*
X4830000D01*
X4750000D02*
Y680000D01*
X4830000D01*
X4740000Y1020000D02*
X4820000D01*
X4740000Y840000D02*
Y1020000D01*
Y840000D02*
X4820000D01*
Y1020000D01*
X4120000Y1880000D02*
Y2060000D01*
X4200000D01*
Y1880000D02*
Y2060000D01*
X4120000Y1880000D02*
X4200000D01*
X3030000Y2780000D02*
Y2960000D01*
X3110000D01*
Y2780000D02*
Y2960000D01*
X3030000Y2780000D02*
X3110000D01*
X2800000Y3059999D02*
X2980000D01*
Y2979999D02*
Y3059999D01*
X2800000Y2979999D02*
X2980000D01*
X2800000D02*
Y3059999D01*
X2800000Y3400000D02*
Y3479999D01*
Y3400000D02*
X2980000D01*
Y3479999D01*
X2800000D02*
X2980000D01*
X3070000Y4050000D02*
Y4230000D01*
X3150000D01*
Y4050000D02*
Y4230000D01*
X3070000Y4050000D02*
X3150000D01*
X3354999Y4575000D02*
X3564999D01*
Y4365000D02*
Y4575000D01*
X3354999Y4365000D02*
X3564999D01*
X3354999D02*
Y4575000D01*
X4010000Y4190000D02*
Y4370000D01*
X3930000Y4190000D02*
X4010000D01*
X3930000D02*
Y4370000D01*
X4010000D01*
X4070000Y4820000D02*
X4250000D01*
Y4740000D02*
Y4820000D01*
X4070000Y4740000D02*
X4250000D01*
X4070000D02*
Y4820000D01*
X4280000Y4740000D02*
X4460000D01*
X4280000D02*
Y4820000D01*
X4460000D01*
Y4740000D02*
Y4820000D01*
X3560000Y4940000D02*
Y5120000D01*
X3480000Y4940000D02*
X3560000D01*
X3480000D02*
Y5120000D01*
X3560000D01*
X3390000Y4940000D02*
Y5120000D01*
X3470000D01*
Y4940000D02*
Y5120000D01*
X3390000Y4940000D02*
X3470000D01*
X3760000Y5220000D02*
X3940000D01*
X3760000D02*
Y5300000D01*
X3940000D01*
Y5220000D02*
Y5300000D01*
X3830000Y5540000D02*
Y5620000D01*
Y5540000D02*
X4010000D01*
Y5620000D01*
X3830000D02*
X4010000D01*
X3830000Y5620000D02*
Y5700000D01*
Y5620000D02*
X4010000D01*
Y5700000D01*
X3830000D02*
X4010000D01*
X3900000Y5940000D02*
X4080000D01*
Y5860000D02*
Y5940000D01*
X3900000Y5860000D02*
X4080000D01*
X3900000D02*
Y5940000D01*
X3935000Y5965000D02*
X4145000D01*
X3935000D02*
Y6175000D01*
X4145000D01*
Y5965000D02*
Y6175000D01*
X4620000Y6410000D02*
Y6490000D01*
Y6410000D02*
X4800000D01*
Y6490000D01*
X4620000D02*
X4800000D01*
X4690000Y6250000D02*
X4870000D01*
Y6170000D02*
Y6250000D01*
X4690000Y6170000D02*
X4870000D01*
X4690000D02*
Y6250000D01*
X4590000Y5950000D02*
Y6110000D01*
X4440000D02*
X4590000D01*
X4440000Y5950000D02*
Y6110000D01*
Y5950000D02*
X4590000D01*
X4380000Y6000000D02*
Y6180000D01*
X4300001Y6000000D02*
X4380000D01*
X4300001D02*
Y6180000D01*
X4380000D01*
X4250000Y6260000D02*
Y6440000D01*
X4170000Y6260000D02*
X4250000D01*
X4170000D02*
Y6440000D01*
X4250000D01*
X3860000Y6300000D02*
Y6480000D01*
X3940000D01*
Y6300000D02*
Y6480000D01*
X3860000Y6300000D02*
X3940000D01*
X3860000Y6510000D02*
X4040000D01*
X3860000D02*
Y6590000D01*
X4040000D01*
Y6510000D02*
Y6590000D01*
X4312500Y6850000D02*
X4512500D01*
Y6550000D02*
Y6850000D01*
X4312500Y6550000D02*
X4512500D01*
X4312500D02*
Y6850000D01*
X4200000Y6650000D02*
X4280000D01*
Y6830000D01*
X4200000D02*
X4280000D01*
X4200000Y6650000D02*
Y6830000D01*
X4100000Y6650000D02*
X4180000D01*
Y6830000D01*
X4100000D02*
X4180000D01*
X4100000Y6650000D02*
Y6830000D01*
X4500000Y6890000D02*
Y6970000D01*
X4320000D02*
X4500000D01*
X4320000Y6890000D02*
Y6970000D01*
Y6890000D02*
X4500000D01*
X3900000Y6710000D02*
X3980000D01*
Y6890000D01*
X3900000D02*
X3980000D01*
X3900000Y6710000D02*
Y6890000D01*
X2650000Y6000000D02*
X2830000D01*
X2650000D02*
Y6080000D01*
X2830000D01*
Y6000000D02*
Y6080000D01*
X1340000Y5680000D02*
X1420000D01*
X1340000Y5500000D02*
Y5680000D01*
Y5500000D02*
X1420000D01*
Y5680000D01*
X1770000Y4620000D02*
Y4700000D01*
Y4620000D02*
X1950000D01*
Y4700000D01*
X1770000D02*
X1950000D01*
X960000Y4470000D02*
Y4650000D01*
X1040000D01*
Y4470000D02*
Y4650000D01*
X960000Y4470000D02*
X1040000D01*
X725000D02*
Y4650000D01*
X645000Y4470000D02*
X725000D01*
X645000D02*
Y4650000D01*
X725000D01*
X645000Y4470000D02*
Y4650000D01*
X565000Y4470000D02*
X645000D01*
X565000D02*
Y4650000D01*
X645000D01*
X195000Y4192500D02*
X352500D01*
Y4510000D01*
X195000D02*
X352500D01*
X195000Y4192500D02*
Y4510000D01*
X250000Y4690000D02*
Y4770000D01*
X70000Y4690000D02*
X250000D01*
X70000D02*
Y4770000D01*
X250000D01*
X520000Y5160001D02*
X600000D01*
X520000Y4980000D02*
Y5160001D01*
Y4980000D02*
X600000D01*
Y5160001D01*
X420000D02*
X500000D01*
X420000Y4980000D02*
Y5160001D01*
Y4980000D02*
X500000D01*
Y5160001D01*
X310000Y5480000D02*
Y5560000D01*
Y5480000D02*
X490000D01*
Y5560000D01*
X310000D02*
X490000D01*
X2010000Y1560000D02*
X2090000D01*
X2010000D02*
Y1740000D01*
X2090000D01*
Y1560000D02*
Y1740000D01*
X575000Y4385000D02*
X1775000D01*
X575000Y3184999D02*
Y4385000D01*
Y3184999D02*
X1775000D01*
Y4385000D01*
X1730000Y6000000D02*
X1910000D01*
X1730000D02*
Y6080000D01*
X1910000D01*
Y6000000D02*
Y6080000D01*
X4170000Y6260000D02*
Y6440000D01*
X4090000Y6260000D02*
X4170000D01*
X4090000D02*
Y6440000D01*
X4170000D01*
X1480000Y4920001D02*
Y5100001D01*
X1400000Y4920001D02*
X1480000D01*
X1400000D02*
Y5100001D01*
X1480000D01*
X1210000Y5020001D02*
Y5200001D01*
X1289999D01*
Y5020001D02*
Y5200001D01*
X1210000Y5020001D02*
X1289999D01*
X1300000D02*
Y5200001D01*
X1380000D01*
Y5020001D02*
Y5200001D01*
X1300000Y5020001D02*
X1380000D01*
X2410000Y4830000D02*
X2590000D01*
X2410000D02*
Y4910000D01*
X2590000D01*
Y4830000D02*
Y4910000D01*
X2300000Y4660000D02*
Y4840000D01*
X2380000D01*
Y4660000D02*
Y4840000D01*
X2300000Y4660000D02*
X2380000D01*
X2300000Y4940000D02*
X2480000D01*
X2300000D02*
Y5020000D01*
X2480000D01*
Y4940000D02*
Y5020000D01*
X2440000Y3620000D02*
Y3800000D01*
X2520000D01*
Y3620000D02*
Y3800000D01*
X2440000Y3620000D02*
X2520000D01*
X2340000Y3820000D02*
Y4000000D01*
X2260000Y3820000D02*
X2340000D01*
X2260000D02*
Y4000000D01*
X2340000D01*
X2350000Y3820000D02*
X2530000D01*
X2350000D02*
Y3900000D01*
X2530000D01*
Y3820000D02*
Y3900000D01*
X2350000Y3620000D02*
Y3800000D01*
X2430000D01*
Y3620000D02*
Y3800000D01*
X2350000Y3620000D02*
X2430000D01*
X1780000Y5730002D02*
Y5910002D01*
X1700000Y5730002D02*
X1780000D01*
X1700000D02*
Y5910002D01*
X1780000D01*
X1960000Y2990000D02*
X2140000D01*
X1960000D02*
Y3070000D01*
X2140000D01*
Y2990000D02*
Y3070000D01*
X790000Y1470000D02*
X870000D01*
X790000Y1290000D02*
Y1470000D01*
Y1290000D02*
X870000D01*
Y1470000D01*
X1550000Y2330000D02*
X1630000D01*
X1550000Y2150000D02*
Y2330000D01*
Y2150000D02*
X1630000D01*
Y2330000D01*
X1790000D02*
X1870000D01*
X1790000Y2150000D02*
Y2330000D01*
Y2150000D02*
X1870000D01*
Y2330000D01*
X690000Y1070000D02*
Y1150000D01*
Y1070000D02*
X870000D01*
Y1150000D01*
X690000D02*
X870000D01*
X2100000Y220000D02*
Y300000D01*
X1920000D02*
X2100000D01*
X1920000Y220000D02*
Y300000D01*
Y220000D02*
X2100000D01*
X2360000D02*
Y300000D01*
Y220000D02*
X2540000D01*
Y300000D01*
X2360000D02*
X2540000D01*
X2750000Y220000D02*
Y300000D01*
X2570000D02*
X2750000D01*
X2570000Y220000D02*
Y300000D01*
Y220000D02*
X2750000D01*
X1040000Y1430000D02*
X1120000D01*
Y1610000D01*
X1040000D02*
X1120000D01*
X1040000Y1430000D02*
Y1610000D01*
X1120000Y1530000D02*
Y1610000D01*
Y1530000D02*
X1300000D01*
Y1610000D01*
X1120000D02*
X1300000D01*
X1710000Y2150000D02*
Y2330000D01*
X1630000Y2150000D02*
X1710000D01*
X1630000D02*
Y2330000D01*
X1710000D01*
X1710000D02*
X1790000D01*
X1710000Y2150000D02*
Y2330000D01*
Y2150000D02*
X1790000D01*
Y2330000D01*
X1220000Y1180000D02*
Y1260000D01*
X1040000D02*
X1220000D01*
X1040000Y1180000D02*
Y1260000D01*
Y1180000D02*
X1220000D01*
X2800000Y3169999D02*
X2980000D01*
Y3089999D02*
Y3169999D01*
X2800000Y3089999D02*
X2980000D01*
X2800000D02*
Y3169999D01*
X2940000Y2740000D02*
X3120000D01*
Y2660000D02*
Y2740000D01*
X2940000Y2660000D02*
X3120000D01*
X2940000D02*
Y2740000D01*
X420000Y3480000D02*
Y3660000D01*
X340000Y3480000D02*
X420000D01*
X340000D02*
Y3660000D01*
X420000D01*
X149999Y3560000D02*
X330000D01*
Y3480000D02*
Y3560000D01*
X149999Y3480000D02*
X330000D01*
X149999D02*
Y3560000D01*
X150000Y3270000D02*
Y3450000D01*
X230000D01*
Y3270000D02*
Y3450000D01*
X150000Y3270000D02*
X230000D01*
X70000Y3850000D02*
X420000D01*
Y3670000D02*
Y3850000D01*
X70000Y3670000D02*
X420000D01*
X70000D02*
Y3850000D01*
X2900000Y4380000D02*
Y4460000D01*
X2720000D02*
X2900000D01*
X2720000Y4380000D02*
Y4460000D01*
Y4380000D02*
X2900000D01*
X2140000Y3300000D02*
Y3380000D01*
X1960000D02*
X2140000D01*
X1960000Y3300000D02*
Y3380000D01*
Y3300000D02*
X2140000D01*
X1840000Y4060000D02*
X1920000D01*
Y4240000D01*
X1840000D02*
X1920000D01*
X1840000Y4060000D02*
Y4240000D01*
D91*
X2645020Y1245000D02*
X2695003D01*
X2705000Y1254996D01*
Y1274990D01*
X2695003Y1284987D01*
X2645020D01*
X2655017Y1304980D02*
X2645020Y1314977D01*
Y1334971D01*
X2655017Y1344967D01*
X2665013D01*
X2675010Y1334971D01*
X2685007Y1344967D01*
X2695003D01*
X2705000Y1334971D01*
Y1314977D01*
X2695003Y1304980D01*
X2685007D01*
X2675010Y1314977D01*
X2665013Y1304980D01*
X2655017D01*
X2675010Y1314977D02*
Y1334971D01*
D139*
X4030000Y5430000D02*
Y5850000D01*
X4390000Y5430000D02*
Y5850000D01*
X4030000Y5430000D02*
X4390000D01*
X4030000Y5850000D02*
X4390000D01*
X3080000Y2540000D02*
Y2640000D01*
X2900001Y2540000D02*
Y2640000D01*
X3080000D01*
X2900001Y2540000D02*
X3080000D01*
Y2670000D02*
Y2770000D01*
X2900001Y2670000D02*
Y2770000D01*
X3080000D01*
X2900001Y2670000D02*
X3080000D01*
Y2790000D02*
Y2890000D01*
X2900001Y2790000D02*
Y2890000D01*
X3080000D01*
X2900001Y2790000D02*
X3080000D01*
X2670001Y2950000D02*
X2770001D01*
X2670001Y3130000D02*
X2770001D01*
Y2950000D02*
Y3130000D01*
X2670001Y2950000D02*
Y3130000D01*
X3090000Y3190000D02*
Y3290000D01*
X2910001Y3190000D02*
Y3290000D01*
X3090000D01*
X2910001Y3190000D02*
X3090000D01*
Y3320000D02*
Y3420000D01*
X2910001Y3320000D02*
Y3420000D01*
X3090000D01*
X2910001Y3320000D02*
X3090000D01*
Y3460000D02*
Y3560000D01*
X2910001Y3460000D02*
Y3560000D01*
X3090000D01*
X2910001Y3460000D02*
X3090000D01*
X322500Y4080000D02*
Y4620000D01*
X2500D02*
X322500D01*
X2500Y4080000D02*
Y4620000D01*
Y4080000D02*
X322500D01*
X2051250Y3310000D02*
X2301250D01*
Y3060000D02*
Y3310000D01*
X2051250Y3060000D02*
X2301250D01*
X2051250D02*
Y3310000D01*
X450000Y2090000D02*
Y2830000D01*
X1010000Y2090000D02*
Y2830000D01*
X450000Y2090000D02*
X1010000D01*
X450000Y2830000D02*
X1010000D01*
X3120000Y2540000D02*
Y2640000D01*
X2940000Y2540000D02*
Y2640000D01*
Y2540000D02*
X3120000D01*
X2940000Y2640000D02*
X3120000D01*
X2980000Y3189999D02*
Y3289999D01*
X2800000Y3189999D02*
Y3289999D01*
Y3189999D02*
X2980000D01*
X2800000Y3289999D02*
X2980000D01*
X2800000Y3599999D02*
X2980000D01*
X2800000Y3500000D02*
X2980000D01*
X2800000D02*
Y3599999D01*
X2980000Y3500000D02*
Y3599999D01*
X5000000Y3845000D02*
Y4715000D01*
X4170000Y3845000D02*
X5000000D01*
X4170000D02*
Y4105000D01*
X4030000D02*
X4170000D01*
X4030000D02*
Y4455000D01*
X4170000D01*
Y4715000D01*
X5000000D01*
X4580000Y6910500D02*
X4940000D01*
X4580000Y6549500D02*
X4940000D01*
Y6910500D01*
X4580000Y6549500D02*
Y6910500D01*
X1320000Y330000D02*
X4120000D01*
Y2130000D01*
X1320000D02*
X4120000D01*
X1320000Y330000D02*
Y2130000D01*
X4220000Y1880000D02*
Y2060000D01*
X4320000Y1880000D02*
Y2060000D01*
X4220000Y1880000D02*
X4320000D01*
X4220000Y2060000D02*
X4320000D01*
X3300001Y2165000D02*
Y3665000D01*
X4900001D01*
Y2165000D02*
Y3665000D01*
X3300001Y2165000D02*
X4900001D01*
X1040000Y1060000D02*
X1220000D01*
X1040000Y1160000D02*
X1220000D01*
Y1060000D02*
Y1160000D01*
X1040000Y1060000D02*
Y1160000D01*
X1520000Y2390000D02*
Y2950000D01*
X2300000Y2390000D02*
Y2950000D01*
X1520000D02*
X2300000D01*
X1520000Y2390000D02*
X2300000D01*
%TF.MD5,1bacb21ab972281baf8022f63736794a*%
M02*
