%TF.GenerationSoftware,Altium Limited,Altium Designer,20.2.6 (244)*%
G04 Layer_Physical_Order=4*
G04 Layer_Color=16711680*
%FSLAX45Y45*%
%MOMM*%
%TF.SameCoordinates,65E78103-6D03-462D-AAE3-041F84C347C7*%
%TF.FilePolarity,Positive*%
%TF.FileFunction,Copper,L4,Bot,Signal*%
%TF.Part,Single*%
G01*
G75*
%TA.AperFunction,Conductor*%
%ADD76C,0.30000*%
%ADD77C,0.20000*%
%TA.AperFunction,ComponentPad*%
%ADD80R,1.50000X1.50000*%
%ADD81C,1.50000*%
%ADD82C,0.70000*%
%ADD83R,1.50000X1.50000*%
%TA.AperFunction,ViaPad*%
%ADD84C,0.65000*%
%TA.AperFunction,NonConductor*%
%ADD85C,0.50000*%
%ADD86C,1.00000*%
G36*
X6860008Y5714992D02*
X6822003Y5676996D01*
X6786994Y5712006D01*
X6824998Y5750001D01*
X6860008Y5714992D01*
D02*
G37*
G36*
X6696998Y5701002D02*
X6662001Y5665999D01*
X6644000Y5684000D01*
X6678000Y5720000D01*
X6696998Y5701002D01*
D02*
G37*
G36*
X6460000Y5575000D02*
X6425000D01*
Y5600000D01*
X6460000D01*
Y5575000D01*
D02*
G37*
G36*
X6515142Y5516857D02*
X6480152Y5481848D01*
X6462503Y5499496D01*
X6497494Y5534506D01*
X6515142Y5516857D01*
D02*
G37*
G36*
X6696026Y5498974D02*
X6677999Y5480001D01*
X6647000Y5519000D01*
X6661493Y5533507D01*
X6696026Y5498974D01*
D02*
G37*
G36*
X6860004Y5484996D02*
X6824999Y5450001D01*
X6807500Y5467500D01*
X6842505Y5502495D01*
X6860004Y5484996D01*
D02*
G37*
D76*
X4540000Y4670000D02*
X4700000Y4510000D01*
X4540000Y4670000D02*
Y5110000D01*
X4420000Y5230000D02*
X4540000Y5110000D01*
X2600000Y5040000D02*
X2790000Y5230000D01*
X4420000D01*
X2600000Y3400000D02*
Y5040000D01*
X2050000Y3290000D02*
X2490000D01*
X2600000Y3400000D01*
D77*
X1342500Y7857500D02*
X1590000Y7610000D01*
X500000Y7880000D02*
X522500Y7857500D01*
X1342500D01*
X1710000Y4970000D02*
X2160000Y5420000D01*
X1710000Y2020000D02*
Y4970000D01*
X9680000Y6148000D02*
X9880000Y6348000D01*
Y7120000D01*
X9610000Y7390000D02*
X9880000Y7120000D01*
X4930000Y6840000D02*
X6872500D01*
X6880000Y6832500D01*
X4690000Y4920000D02*
Y5190000D01*
Y4920000D02*
X4850000Y4760000D01*
X4460000Y5420000D02*
X4690000Y5190000D01*
X4850000Y4760000D02*
X6350000D01*
X9400000Y6210500D02*
Y6376000D01*
X2970000Y6140000D02*
Y6150000D01*
Y6140000D02*
X3090000Y6020000D01*
X1990000Y3430000D02*
Y3532530D01*
X1970000Y3552530D02*
X1990000Y3532530D01*
X1970000Y3552530D02*
Y3920000D01*
X8280000Y5660000D02*
X8870000Y6250000D01*
X8780000Y6870000D02*
X8870000Y6780000D01*
Y6250000D02*
Y6780000D01*
X6270000Y3700000D02*
Y3860000D01*
X6050000Y3480000D02*
X6270000Y3700000D01*
X4490000Y6850000D02*
Y7490000D01*
Y6850000D02*
X4500000Y6840000D01*
X3110000Y7120000D02*
Y7490000D01*
X4034000Y6370000D02*
Y6934000D01*
X4180000Y7080000D01*
X3850000Y6870000D02*
X4160000Y7180000D01*
Y7557470D01*
X4210000Y7607470D01*
Y7610000D01*
X3850000Y6650000D02*
Y6870000D01*
X2160000Y5420000D02*
X4460000D01*
X5970000Y3170000D02*
X6420000D01*
X5860000Y4960000D02*
X6270000D01*
X500000Y8510000D02*
Y8890000D01*
Y7980000D02*
Y8510000D01*
Y7880000D02*
Y7980000D01*
X1547589Y7460000D02*
X1780000D01*
X1507589Y7420000D02*
X1547589Y7460000D01*
X1490000Y7420000D02*
X1507589D01*
X3090000Y6020000D02*
X4480000D01*
X4650000Y6190000D02*
Y6560000D01*
X4480000Y6020000D02*
X4650000Y6190000D01*
Y6560000D02*
X4930000Y6840000D01*
X7540000Y3920000D02*
Y4290000D01*
X8060000Y4810000D01*
X9100000Y3600000D02*
X9170000Y3670000D01*
Y4590000D01*
X9060000Y4700000D02*
X9170000Y4590000D01*
X9060000Y4700000D02*
Y4860000D01*
X8910000Y5010000D02*
X9060000Y4860000D01*
X9110000Y4720000D02*
Y5030000D01*
X8980000Y5320000D02*
X9150000Y5150000D01*
X8940000Y5200000D02*
X9110000Y5030000D01*
X9150000Y4775459D02*
Y5150000D01*
X9200000Y4780000D02*
Y5250000D01*
X9000000Y5450000D02*
X9200000Y5250000D01*
X9220000Y3520000D02*
Y4610000D01*
X9110000Y4720000D02*
X9220000Y4610000D01*
X9150000Y4775459D02*
X9490000Y4435459D01*
Y3630000D02*
Y4435459D01*
Y3630000D02*
X9630000Y3490000D01*
X9200000Y4780000D02*
X9550000Y4430000D01*
Y3710000D02*
Y4430000D01*
X8060000Y4810000D02*
Y5570000D01*
X9550000Y3710000D02*
X9630000Y3630000D01*
X8990000Y3190000D02*
Y3530000D01*
Y3190000D02*
X9090000Y3090000D01*
X8240000Y3430000D02*
X8509999Y3160001D01*
X8240000Y3430000D02*
Y3570000D01*
X8509999Y3160001D02*
X8750001D01*
X8590000Y6110000D02*
Y6870000D01*
X8170000Y5690000D02*
X8590000Y6110000D01*
X8170000Y5610000D02*
Y5690000D01*
X9400000Y6376000D02*
X9680000Y6656000D01*
X9640000Y3740000D02*
Y4400000D01*
X9240000Y4800000D02*
X9640000Y4400000D01*
X9240000Y4800000D02*
Y5360000D01*
X9060000Y5540000D02*
X9240000Y5360000D01*
X7520000Y6860000D02*
X8270000D01*
D80*
X7140000Y8060000D02*
D03*
X4288000Y6370000D02*
D03*
X3284000Y8800000D02*
D03*
D81*
X6886000Y8060000D02*
D03*
X3272000Y6370000D02*
D03*
X3526000D02*
D03*
X3780000D02*
D03*
X4034000D02*
D03*
X3030000Y8800000D02*
D03*
X9680000Y4776000D02*
D03*
Y5030000D02*
D03*
Y5894000D02*
D03*
Y6148000D02*
D03*
Y6402000D02*
D03*
Y6656000D02*
D03*
Y6910000D02*
D03*
D82*
X9750000Y7730000D02*
D03*
X9930000D02*
D03*
D83*
X9680000Y5284000D02*
D03*
Y5640000D02*
D03*
D84*
X920000Y7500000D02*
D03*
Y7350000D02*
D03*
X2100000Y6850000D02*
D03*
X2070000Y7412500D02*
D03*
X2550000Y7250000D02*
D03*
X2560000Y6840000D02*
D03*
X1030000Y7790000D02*
D03*
X180000Y5640000D02*
D03*
Y6930000D02*
D03*
X3130000Y2200000D02*
D03*
Y2280000D02*
D03*
X3380000Y2280000D02*
D03*
X4360000Y7620000D02*
D03*
X6460000Y7050000D02*
D03*
Y6960000D02*
D03*
X2340000Y1820000D02*
D03*
X2710000Y1630000D02*
D03*
X2480000Y3510000D02*
D03*
X2190000D02*
D03*
X2300000Y3200000D02*
D03*
X2390000D02*
D03*
X4610000Y7020000D02*
D03*
Y7150000D02*
D03*
X4380000Y6600000D02*
D03*
Y6710000D02*
D03*
X4170000Y6600000D02*
D03*
X7890000Y4110000D02*
D03*
X3050000Y2320000D02*
D03*
X2970000D02*
D03*
X2890000D02*
D03*
X2810000D02*
D03*
X1930000Y2320000D02*
D03*
X2570000Y2320000D02*
D03*
X2650000D02*
D03*
X2730000D02*
D03*
X2010000D02*
D03*
X2090000D02*
D03*
X2170000D02*
D03*
X2250000D02*
D03*
X2330000D02*
D03*
X2410000D02*
D03*
X2490000D02*
D03*
X1850000Y2320000D02*
D03*
X1850000Y2240000D02*
D03*
Y2160000D02*
D03*
Y2080000D02*
D03*
Y2000000D02*
D03*
Y1920000D02*
D03*
Y1840000D02*
D03*
X1210000Y1840000D02*
D03*
X1130000D02*
D03*
X1050000D02*
D03*
X1770000D02*
D03*
X1690000D02*
D03*
X1610000D02*
D03*
X1530000D02*
D03*
X1450000D02*
D03*
X1370000D02*
D03*
X1290000D02*
D03*
X970000Y1840000D02*
D03*
X330000Y1840000D02*
D03*
X250000D02*
D03*
X170000D02*
D03*
X890000D02*
D03*
X810000D02*
D03*
X730000D02*
D03*
X650000D02*
D03*
X570000D02*
D03*
X490000D02*
D03*
X410000D02*
D03*
X90000Y1040000D02*
D03*
X90000Y1680000D02*
D03*
Y1760000D02*
D03*
Y1840000D02*
D03*
Y1120000D02*
D03*
Y1200000D02*
D03*
Y1280000D02*
D03*
Y1360000D02*
D03*
Y1440000D02*
D03*
Y1520000D02*
D03*
Y1600000D02*
D03*
X90000Y160000D02*
D03*
X90000Y800000D02*
D03*
Y880000D02*
D03*
Y960000D02*
D03*
Y240000D02*
D03*
Y320000D02*
D03*
Y400000D02*
D03*
Y480000D02*
D03*
Y560000D02*
D03*
Y640000D02*
D03*
Y720000D02*
D03*
X170000Y80000D02*
D03*
X250000D02*
D03*
X330000D02*
D03*
X90000D02*
D03*
X410000Y80000D02*
D03*
X1050000Y80000D02*
D03*
X1130000D02*
D03*
X1210000D02*
D03*
X490000D02*
D03*
X570000D02*
D03*
X650000D02*
D03*
X730000D02*
D03*
X810000D02*
D03*
X890000D02*
D03*
X970000D02*
D03*
X1290000Y80000D02*
D03*
X1930000Y80000D02*
D03*
X2010000D02*
D03*
X2090000D02*
D03*
X1370000D02*
D03*
X1450000D02*
D03*
X1530000D02*
D03*
X1610000D02*
D03*
X1690000D02*
D03*
X1770000D02*
D03*
X1850000D02*
D03*
X5880000Y2310000D02*
D03*
X6520000Y2310000D02*
D03*
X6600000D02*
D03*
X6680000D02*
D03*
X5960000D02*
D03*
X6040000D02*
D03*
X6120000D02*
D03*
X6200000D02*
D03*
X6280000D02*
D03*
X6360000D02*
D03*
X6440000D02*
D03*
X5000000Y2310000D02*
D03*
X5640000Y2310000D02*
D03*
X5720000D02*
D03*
X5800000D02*
D03*
X5080000D02*
D03*
X5160000D02*
D03*
X5240000D02*
D03*
X5320000D02*
D03*
X5400000D02*
D03*
X5480000D02*
D03*
X5560000D02*
D03*
X4120000Y2310000D02*
D03*
X4760000Y2310000D02*
D03*
X4840000D02*
D03*
X4920000D02*
D03*
X4200000D02*
D03*
X4280000D02*
D03*
X4360000D02*
D03*
X4440000D02*
D03*
X4520000D02*
D03*
X4600000D02*
D03*
X4680000D02*
D03*
X6780000Y2070000D02*
D03*
Y1990000D02*
D03*
Y1910000D02*
D03*
Y2310000D02*
D03*
Y2230000D02*
D03*
Y2150000D02*
D03*
X6780000Y1830000D02*
D03*
X6780000Y1190000D02*
D03*
Y1110000D02*
D03*
Y1030000D02*
D03*
Y1750000D02*
D03*
Y1670000D02*
D03*
Y1590000D02*
D03*
Y1510000D02*
D03*
Y1430000D02*
D03*
Y1350000D02*
D03*
Y1270000D02*
D03*
X6780006Y951222D02*
D03*
X6780007Y311222D02*
D03*
Y231222D02*
D03*
Y151222D02*
D03*
Y871222D02*
D03*
Y791222D02*
D03*
Y711222D02*
D03*
Y631222D02*
D03*
Y551222D02*
D03*
Y471222D02*
D03*
Y391222D02*
D03*
X6780000Y70000D02*
D03*
X6700000Y70000D02*
D03*
X6060000Y70000D02*
D03*
X5980000D02*
D03*
X5900000D02*
D03*
X6620000D02*
D03*
X6540000D02*
D03*
X6460000D02*
D03*
X6380000D02*
D03*
X6300000D02*
D03*
X6220000D02*
D03*
X6140000D02*
D03*
X8720000Y6720000D02*
D03*
X1120000Y8200000D02*
D03*
X3480000Y2030000D02*
D03*
Y2110000D02*
D03*
X3760000Y1530000D02*
D03*
X3670000D02*
D03*
X3580000D02*
D03*
X5420000Y5400000D02*
D03*
X7790000Y7150000D02*
D03*
X2720000Y7810000D02*
D03*
X7240000Y3810000D02*
D03*
X8760000Y4330000D02*
D03*
Y4230000D02*
D03*
X8970000Y4780000D02*
D03*
X8670000Y5100000D02*
D03*
Y5430000D02*
D03*
X7360000Y6020000D02*
D03*
X6150000Y6750000D02*
D03*
X5460000Y7240000D02*
D03*
X5120000Y7350000D02*
D03*
X5230000D02*
D03*
X4700000Y8200000D02*
D03*
Y8300000D02*
D03*
Y8400000D02*
D03*
Y8500000D02*
D03*
Y8600000D02*
D03*
Y8700000D02*
D03*
Y8800000D02*
D03*
X4900000D02*
D03*
Y8700000D02*
D03*
Y8600000D02*
D03*
Y8500000D02*
D03*
Y8400000D02*
D03*
Y8300000D02*
D03*
Y8200000D02*
D03*
X6750000Y8280000D02*
D03*
Y8400000D02*
D03*
Y8520000D02*
D03*
X6890000D02*
D03*
Y8660000D02*
D03*
Y8800000D02*
D03*
X7030000D02*
D03*
X7160000D02*
D03*
X6830000Y7890000D02*
D03*
Y7780000D02*
D03*
Y7660000D02*
D03*
X7410000Y6810000D02*
D03*
X7870000Y6470000D02*
D03*
Y6580000D02*
D03*
Y6680000D02*
D03*
Y6790000D02*
D03*
X8010000Y7150000D02*
D03*
X8430000Y7110000D02*
D03*
X9170000Y6600000D02*
D03*
X9910000Y7340000D02*
D03*
Y8110000D02*
D03*
X8670000Y8690000D02*
D03*
X6420000Y5000000D02*
D03*
X7290000Y4720000D02*
D03*
X7170000Y4700000D02*
D03*
X7060000D02*
D03*
X7340000Y4900000D02*
D03*
X8900000Y1100000D02*
D03*
X8400000D02*
D03*
Y800000D02*
D03*
X8900000D02*
D03*
Y1400000D02*
D03*
X8400000D02*
D03*
X7640000Y2860000D02*
D03*
X7830000Y2730000D02*
D03*
X8150000Y2710000D02*
D03*
X8280000D02*
D03*
X8430000D02*
D03*
X8590000D02*
D03*
X8750000Y2700000D02*
D03*
X8890000D02*
D03*
X9050000D02*
D03*
X9200000D02*
D03*
X9630000Y3050000D02*
D03*
Y3340000D02*
D03*
X8990000Y3640000D02*
D03*
X5530000Y4150000D02*
D03*
Y4290000D02*
D03*
Y4430000D02*
D03*
Y4570000D02*
D03*
X5360000Y4060000D02*
D03*
X5530000Y4010000D02*
D03*
X5900000Y3330000D02*
D03*
X5680000D02*
D03*
X5520000D02*
D03*
X5810000Y2920000D02*
D03*
X5570000D02*
D03*
X4590000Y3260000D02*
D03*
X4730000D02*
D03*
X3700000Y3400000D02*
D03*
X3500000D02*
D03*
X3300000D02*
D03*
Y3200000D02*
D03*
X3500000D02*
D03*
X3700000D02*
D03*
X3900000D02*
D03*
Y3400000D02*
D03*
Y3600000D02*
D03*
X3700000D02*
D03*
X3500000D02*
D03*
X3300000D02*
D03*
Y3800000D02*
D03*
X3500000D02*
D03*
X3700000D02*
D03*
X3900000D02*
D03*
Y4000000D02*
D03*
X3700000D02*
D03*
X3500000D02*
D03*
X3300000D02*
D03*
Y4200000D02*
D03*
X3500000D02*
D03*
X3700000D02*
D03*
X3900000D02*
D03*
Y4400000D02*
D03*
X3700000D02*
D03*
X3500000D02*
D03*
X3300000D02*
D03*
X330000Y3800000D02*
D03*
Y3680000D02*
D03*
X1610000Y2120000D02*
D03*
Y2240000D02*
D03*
X1910000Y2470000D02*
D03*
X2000000D02*
D03*
X2100000D02*
D03*
X2200000D02*
D03*
X2300000D02*
D03*
X2390000D02*
D03*
X2480000D02*
D03*
X2580000D02*
D03*
X2480000Y3200000D02*
D03*
X2580000D02*
D03*
X2070000Y4000000D02*
D03*
X2480000Y4210000D02*
D03*
Y4450000D02*
D03*
X2190000Y4530000D02*
D03*
X1880000Y4300000D02*
D03*
X4170000Y6710000D02*
D03*
X4410000Y7020000D02*
D03*
X4290000Y7040000D02*
D03*
X4890000Y5930000D02*
D03*
X5690000Y6210000D02*
D03*
Y6330000D02*
D03*
X5560000Y5990000D02*
D03*
X5120000Y4920000D02*
D03*
X5670000Y4940000D02*
D03*
X6000000Y5530000D02*
D03*
X5890000D02*
D03*
X5970000Y6200000D02*
D03*
X5960000Y6480000D02*
D03*
X6080000D02*
D03*
X6550000Y6530000D02*
D03*
X6460000Y7870000D02*
D03*
X5880000Y7780000D02*
D03*
Y8200000D02*
D03*
X6000000D02*
D03*
X5260000Y7760000D02*
D03*
Y7870000D02*
D03*
X3450000Y7050000D02*
D03*
X3550000Y7350000D02*
D03*
X3450000Y7150000D02*
D03*
Y7250000D02*
D03*
Y7350000D02*
D03*
X3350000D02*
D03*
X3050000Y7900000D02*
D03*
Y8000000D02*
D03*
Y8100000D02*
D03*
Y8210000D02*
D03*
X3070000Y8570000D02*
D03*
X1810000Y7800000D02*
D03*
X1230000Y8200000D02*
D03*
X1110000Y8700000D02*
D03*
X760001Y8040000D02*
D03*
X830000Y8410000D02*
D03*
X2270000Y7840000D02*
D03*
X2270000Y7932501D02*
D03*
X6880000Y7040000D02*
D03*
Y7150000D02*
D03*
X8770000Y6360000D02*
D03*
Y6480000D02*
D03*
X7287500Y3040000D02*
D03*
X7380000Y3040000D02*
D03*
X7540000Y3310000D02*
D03*
X7670000Y3700000D02*
D03*
X7980000Y4110000D02*
D03*
X6540000Y4210000D02*
D03*
Y4090000D02*
D03*
Y3980000D02*
D03*
Y3860000D02*
D03*
X6320000Y8420000D02*
D03*
X6480000D02*
D03*
X6320000Y8540000D02*
D03*
X6480000D02*
D03*
Y8660000D02*
D03*
X6320000D02*
D03*
Y8780000D02*
D03*
X6480000D02*
D03*
Y8900000D02*
D03*
X6320000D02*
D03*
X3810000Y2310000D02*
D03*
Y2230000D02*
D03*
Y2150000D02*
D03*
Y2070000D02*
D03*
Y1990000D02*
D03*
Y1910000D02*
D03*
X4030000Y2310000D02*
D03*
Y2230000D02*
D03*
Y2150000D02*
D03*
Y2070000D02*
D03*
Y1990000D02*
D03*
Y1910000D02*
D03*
X4060000Y1820000D02*
D03*
X3460000Y1840000D02*
D03*
X3540000D02*
D03*
X3620000D02*
D03*
X3700000D02*
D03*
X3780000D02*
D03*
X3980000Y1600000D02*
D03*
X4060000D02*
D03*
Y1720000D02*
D03*
X3490000Y1530000D02*
D03*
X3820000Y1600000D02*
D03*
X3900000D02*
D03*
X2220000Y240000D02*
D03*
Y160000D02*
D03*
X2180000Y80000D02*
D03*
X2220000Y800000D02*
D03*
Y720000D02*
D03*
Y640000D02*
D03*
Y560000D02*
D03*
Y480000D02*
D03*
Y400000D02*
D03*
Y320000D02*
D03*
X2460000Y880000D02*
D03*
X2380000D02*
D03*
X2300000D02*
D03*
X2220000D02*
D03*
X3020000D02*
D03*
X2940000D02*
D03*
X2860000D02*
D03*
X2780000D02*
D03*
X2700000D02*
D03*
X2620000D02*
D03*
X2540000D02*
D03*
X5900000Y390000D02*
D03*
Y470000D02*
D03*
Y550000D02*
D03*
Y630000D02*
D03*
Y710000D02*
D03*
Y790000D02*
D03*
Y870000D02*
D03*
Y150000D02*
D03*
Y230000D02*
D03*
Y310000D02*
D03*
X5740000Y870000D02*
D03*
X5820000D02*
D03*
X5100000D02*
D03*
X5020000D02*
D03*
X4940000D02*
D03*
X4860000D02*
D03*
X4780000D02*
D03*
X4700000D02*
D03*
X4620000D02*
D03*
X5660000D02*
D03*
X5580000D02*
D03*
X5500000D02*
D03*
X5420000D02*
D03*
X5340000D02*
D03*
X5260000D02*
D03*
X5180000D02*
D03*
X4060000D02*
D03*
X4140000D02*
D03*
X4220000D02*
D03*
X4300000D02*
D03*
X4380000D02*
D03*
X4460000D02*
D03*
X4540000D02*
D03*
X3580000D02*
D03*
X3660000D02*
D03*
X3740000D02*
D03*
X3820000D02*
D03*
X3900000D02*
D03*
X3980000D02*
D03*
X3490000Y1030000D02*
D03*
Y950000D02*
D03*
Y870000D02*
D03*
X3400000Y1110000D02*
D03*
Y1190000D02*
D03*
Y1270000D02*
D03*
Y1350000D02*
D03*
Y1430000D02*
D03*
Y1510000D02*
D03*
Y1590000D02*
D03*
X3380000Y2200000D02*
D03*
X3380000Y2000000D02*
D03*
Y1920000D02*
D03*
Y1840000D02*
D03*
X3130000Y2120000D02*
D03*
Y2040000D02*
D03*
Y1960000D02*
D03*
Y1880000D02*
D03*
Y1800000D02*
D03*
Y1720000D02*
D03*
Y1640000D02*
D03*
X3030000Y1630000D02*
D03*
X2950000D02*
D03*
X2870000D02*
D03*
X2790000D02*
D03*
X2620000Y1660000D02*
D03*
X2420000Y1820000D02*
D03*
X2500000D02*
D03*
X2580000D02*
D03*
X2620000Y1740000D02*
D03*
X2100000Y1820000D02*
D03*
X2180000D02*
D03*
X2260000D02*
D03*
X2090000Y1730000D02*
D03*
Y1650000D02*
D03*
Y1570000D02*
D03*
Y1490000D02*
D03*
Y1410000D02*
D03*
Y1330000D02*
D03*
X2150000Y1250000D02*
D03*
X2230000D02*
D03*
X2310000D02*
D03*
X2390000D02*
D03*
X2470000D02*
D03*
X2550000D02*
D03*
X2630000Y1280000D02*
D03*
Y1360000D02*
D03*
Y1440000D02*
D03*
X2710000D02*
D03*
X2790000D02*
D03*
X2870000D02*
D03*
X2950000D02*
D03*
X3030000D02*
D03*
X3110000D02*
D03*
Y1360000D02*
D03*
Y1280000D02*
D03*
Y1200000D02*
D03*
Y1120000D02*
D03*
Y1040000D02*
D03*
Y960000D02*
D03*
Y880000D02*
D03*
X1710000Y2020000D02*
D03*
X6550000Y4880000D02*
D03*
X6150000Y4850000D02*
D03*
X9610000Y7390000D02*
D03*
X6880000Y6832500D02*
D03*
X4980000Y7430000D02*
D03*
X4700000Y4510000D02*
D03*
X2050000Y3290000D02*
D03*
X7520000Y6860000D02*
D03*
X8060000Y5570000D02*
D03*
X6270000Y3860000D02*
D03*
X8280000Y5660000D02*
D03*
X8170000Y5610000D02*
D03*
X6270000Y4960000D02*
D03*
X6350000Y4760000D02*
D03*
X9230000Y6030000D02*
D03*
X9400000Y6210500D02*
D03*
X4570000Y5510000D02*
D03*
X4980000Y7160000D02*
D03*
Y7250000D02*
D03*
Y7340000D02*
D03*
X7510000Y5010000D02*
D03*
X6230000Y4680000D02*
D03*
X6050000Y4850000D02*
D03*
X5780000Y5300000D02*
D03*
X5880000D02*
D03*
X6340000Y6210000D02*
D03*
Y6330000D02*
D03*
Y6440000D02*
D03*
X7530000Y6200000D02*
D03*
X6460000Y7280000D02*
D03*
X6550000D02*
D03*
X6640000D02*
D03*
X4500000Y5700000D02*
D03*
X580000Y2730000D02*
D03*
Y2850000D02*
D03*
X700000D02*
D03*
Y2730000D02*
D03*
X820000D02*
D03*
Y2850000D02*
D03*
Y2980000D02*
D03*
X700000D02*
D03*
X580000D02*
D03*
X2970000Y6150000D02*
D03*
X2720000Y7950000D02*
D03*
X1970000Y3920000D02*
D03*
X7170000Y3530000D02*
D03*
X7290000D02*
D03*
X6830000Y4320000D02*
D03*
Y4210000D02*
D03*
X7300000Y7260000D02*
D03*
X7420000Y7340000D02*
D03*
X7300000D02*
D03*
Y7420000D02*
D03*
X7420000Y7260000D02*
D03*
Y7420000D02*
D03*
X7300000Y7180000D02*
D03*
X7420000D02*
D03*
X8270000Y6860000D02*
D03*
X9170000Y6460000D02*
D03*
X6550000Y7540000D02*
D03*
X6450000D02*
D03*
Y7440000D02*
D03*
X6550000D02*
D03*
X6650000D02*
D03*
X6750000D02*
D03*
X7120566Y7178728D02*
D03*
X7120000Y7260000D02*
D03*
X7210000Y7260000D02*
D03*
Y7180000D02*
D03*
X4490000Y7490000D02*
D03*
X4500000Y6840000D02*
D03*
X3110000Y7120000D02*
D03*
Y7490000D02*
D03*
X4180000Y7080000D02*
D03*
X4160000Y7180000D02*
D03*
X4210000Y7610000D02*
D03*
X3850000Y6650000D02*
D03*
X1590000Y7610000D02*
D03*
X1990000Y3430000D02*
D03*
X6050000Y3480000D02*
D03*
X5970000Y3170000D02*
D03*
X6420000D02*
D03*
X5860000Y4960000D02*
D03*
X500000Y7980000D02*
D03*
Y8510000D02*
D03*
Y8890000D02*
D03*
X1490000Y7420000D02*
D03*
X1780000Y7460000D02*
D03*
X9100000Y3600000D02*
D03*
X9000000Y5450000D02*
D03*
X8980000Y5320000D02*
D03*
X8910000Y5010000D02*
D03*
X9220000Y3520000D02*
D03*
X8940000Y5200000D02*
D03*
X9630000Y3490000D02*
D03*
Y3630000D02*
D03*
X8990000Y3530000D02*
D03*
X8240000Y3570000D02*
D03*
X8750001Y3160001D02*
D03*
X9090000Y3090000D02*
D03*
X7540000Y3920000D02*
D03*
X8590000Y6870000D02*
D03*
X8780000D02*
D03*
X9640000Y3740000D02*
D03*
X9060000Y5540000D02*
D03*
D85*
X6497679Y5499385D02*
G03*
X6661210Y5498487I82321J100615D01*
G01*
Y5701513D02*
G03*
X6450000Y5600000I-81211J-101513D01*
G01*
X6710000D02*
X6825000Y5485000D01*
X6710000Y5600000D02*
X6825000Y5715000D01*
X6660000Y5600000D02*
X6710000D01*
X6460000D02*
X6660000D01*
D86*
X6208000D02*
G03*
X6208006Y5602278I450000J0D01*
G01*
%TF.MD5,c69c372a82fc069fed0b6b67e69bcaf3*%
M02*
