%TF.GenerationSoftware,Altium Limited,Altium Designer,20.2.6 (244)*%
G04 Layer_Color=128*
%FSLAX45Y45*%
%MOMM*%
%TF.SameCoordinates,65E78103-6D03-462D-AAE3-041F84C347C7*%
%TF.FilePolarity,Positive*%
%TF.FileFunction,Drillmap*%
%TF.Part,Single*%
G01*
G75*
%TA.AperFunction,NonConductor*%
%ADD95C,0.12700*%
D95*
X7095000Y8060000D02*
X7185000D01*
X7140000Y8015000D02*
Y8105000D01*
X6841000Y8060000D02*
X6931000D01*
X6886000Y8015000D02*
Y8105000D01*
X3227000Y6370000D02*
X3317000D01*
X3272000Y6325000D02*
Y6415000D01*
X3481000Y6370000D02*
X3571000D01*
X3526000Y6325000D02*
Y6415000D01*
X3735000Y6370000D02*
X3825000D01*
X3780000Y6325000D02*
Y6415000D01*
X3989000Y6370000D02*
X4079000D01*
X4034000Y6325000D02*
Y6415000D01*
X4243000Y6370000D02*
X4333000D01*
X4288000Y6325000D02*
Y6415000D01*
X3239000Y8800000D02*
X3329000D01*
X3284000Y8755000D02*
Y8845000D01*
X2985000Y8800000D02*
X3075000D01*
X3030000Y8755000D02*
Y8845000D01*
X9714000Y7730000D02*
X9786000D01*
X9750000Y7694000D02*
Y7766000D01*
X9894000Y7730000D02*
X9966000D01*
X9930000Y7694000D02*
Y7766000D01*
X9635000Y4776000D02*
X9725000D01*
X9680000Y4731000D02*
Y4821000D01*
X9635000Y5030000D02*
X9725000D01*
X9680000Y4985000D02*
Y5075000D01*
X9635000Y5284000D02*
X9725000D01*
X9680000Y5239000D02*
Y5329000D01*
X9635000Y5640000D02*
X9725000D01*
X9680000Y5595000D02*
Y5685000D01*
X9635000Y5894000D02*
X9725000D01*
X9680000Y5849000D02*
Y5939000D01*
X9635000Y6148000D02*
X9725000D01*
X9680000Y6103000D02*
Y6193000D01*
X9635000Y6402000D02*
X9725000D01*
X9680000Y6357000D02*
Y6447000D01*
X9635000Y6656000D02*
X9725000D01*
X9680000Y6611000D02*
Y6701000D01*
X9635000Y6910000D02*
X9725000D01*
X9680000Y6865000D02*
Y6955000D01*
X905000Y7500000D02*
X935000D01*
X920000Y7485000D02*
Y7515000D01*
X905000Y7350000D02*
X935000D01*
X920000Y7335000D02*
Y7365000D01*
X2085000Y6850000D02*
X2115000D01*
X2100000Y6835000D02*
Y6865000D01*
X2055000Y7412500D02*
X2085000D01*
X2070000Y7397500D02*
Y7427500D01*
X2535000Y7250000D02*
X2565000D01*
X2550000Y7235000D02*
Y7265000D01*
X2545000Y6840000D02*
X2575000D01*
X2560000Y6825000D02*
Y6855000D01*
X1015000Y7790000D02*
X1045000D01*
X1030000Y7775000D02*
Y7805000D01*
X165000Y5640000D02*
X195000D01*
X180000Y5625000D02*
Y5655000D01*
X165000Y6930000D02*
X195000D01*
X180000Y6915000D02*
Y6945000D01*
X3115000Y2200000D02*
X3145000D01*
X3130000Y2185000D02*
Y2215000D01*
X3115000Y2280000D02*
X3145000D01*
X3130000Y2265000D02*
Y2295000D01*
X3365000Y2280000D02*
X3395000D01*
X3380000Y2265000D02*
Y2295000D01*
X4345000Y7620000D02*
X4375000D01*
X4360000Y7605000D02*
Y7635000D01*
X6445000Y7050000D02*
X6475000D01*
X6460000Y7035000D02*
Y7065000D01*
X6445000Y6960000D02*
X6475000D01*
X6460000Y6945000D02*
Y6975000D01*
X2325000Y1820000D02*
X2355000D01*
X2340000Y1805000D02*
Y1835000D01*
X2695000Y1630000D02*
X2725000D01*
X2710000Y1615000D02*
Y1645000D01*
X2465000Y3510000D02*
X2495000D01*
X2480000Y3495000D02*
Y3525000D01*
X2175000Y3510000D02*
X2205000D01*
X2190000Y3495000D02*
Y3525000D01*
X2285000Y3200000D02*
X2315000D01*
X2300000Y3185000D02*
Y3215000D01*
X2375000Y3200000D02*
X2405000D01*
X2390000Y3185000D02*
Y3215000D01*
X4595000Y7020000D02*
X4625000D01*
X4610000Y7005000D02*
Y7035000D01*
X4595000Y7150000D02*
X4625000D01*
X4610000Y7135000D02*
Y7165000D01*
X4365000Y6600000D02*
X4395000D01*
X4380000Y6585000D02*
Y6615000D01*
X4365000Y6710000D02*
X4395000D01*
X4380000Y6695000D02*
Y6725000D01*
X4155000Y6600000D02*
X4185000D01*
X4170000Y6585000D02*
Y6615000D01*
X7875000Y4110000D02*
X7905000D01*
X7890000Y4095000D02*
Y4125000D01*
X3035000Y2320000D02*
X3065000D01*
X3050000Y2305000D02*
Y2335000D01*
X2955000Y2320000D02*
X2985000D01*
X2970000Y2305000D02*
Y2335000D01*
X2875000Y2320000D02*
X2905000D01*
X2890000Y2305000D02*
Y2335000D01*
X2795000Y2320000D02*
X2825000D01*
X2810000Y2305000D02*
Y2335000D01*
X1915000Y2320000D02*
X1945000D01*
X1930000Y2305000D02*
Y2335000D01*
X2555000Y2320000D02*
X2585000D01*
X2570000Y2305000D02*
Y2335000D01*
X2635000Y2320000D02*
X2665000D01*
X2650000Y2305000D02*
Y2335000D01*
X2715000Y2320000D02*
X2745000D01*
X2730000Y2305000D02*
Y2335000D01*
X1995000Y2320000D02*
X2025000D01*
X2010000Y2305000D02*
Y2335000D01*
X2075000Y2320000D02*
X2105000D01*
X2090000Y2305000D02*
Y2335000D01*
X2155000Y2320000D02*
X2185000D01*
X2170000Y2305000D02*
Y2335000D01*
X2235000Y2320000D02*
X2265000D01*
X2250000Y2305000D02*
Y2335000D01*
X2315000Y2320000D02*
X2345000D01*
X2330000Y2305000D02*
Y2335000D01*
X2395000Y2320000D02*
X2425000D01*
X2410000Y2305000D02*
Y2335000D01*
X2475000Y2320000D02*
X2505000D01*
X2490000Y2305000D02*
Y2335000D01*
X1835000Y2320000D02*
X1865000D01*
X1850000Y2305000D02*
Y2335000D01*
X1835000Y2240000D02*
X1865000D01*
X1850000Y2225000D02*
Y2255000D01*
X1835000Y2160000D02*
X1865000D01*
X1850000Y2145000D02*
Y2175000D01*
X1835000Y2080000D02*
X1865000D01*
X1850000Y2065000D02*
Y2095000D01*
X1835000Y2000000D02*
X1865000D01*
X1850000Y1985000D02*
Y2015000D01*
X1835000Y1920000D02*
X1865000D01*
X1850000Y1905000D02*
Y1935000D01*
X1835000Y1840000D02*
X1865000D01*
X1850000Y1825000D02*
Y1855000D01*
X1195000Y1840000D02*
X1225000D01*
X1210000Y1825000D02*
Y1855000D01*
X1115000Y1840000D02*
X1145000D01*
X1130000Y1825000D02*
Y1855000D01*
X1035000Y1840000D02*
X1065000D01*
X1050000Y1825000D02*
Y1855000D01*
X1755000Y1840000D02*
X1785000D01*
X1770000Y1825000D02*
Y1855000D01*
X1675000Y1840000D02*
X1705000D01*
X1690000Y1825000D02*
Y1855000D01*
X1595000Y1840000D02*
X1625000D01*
X1610000Y1825000D02*
Y1855000D01*
X1515000Y1840000D02*
X1545000D01*
X1530000Y1825000D02*
Y1855000D01*
X1435000Y1840000D02*
X1465000D01*
X1450000Y1825000D02*
Y1855000D01*
X1355000Y1840000D02*
X1385000D01*
X1370000Y1825000D02*
Y1855000D01*
X1275000Y1840000D02*
X1305000D01*
X1290000Y1825000D02*
Y1855000D01*
X955000Y1840000D02*
X985000D01*
X970000Y1825000D02*
Y1855000D01*
X315000Y1840000D02*
X345000D01*
X330000Y1825000D02*
Y1855000D01*
X235000Y1840000D02*
X265000D01*
X250000Y1825000D02*
Y1855000D01*
X155000Y1840000D02*
X185000D01*
X170000Y1825000D02*
Y1855000D01*
X875000Y1840000D02*
X905000D01*
X890000Y1825000D02*
Y1855000D01*
X795000Y1840000D02*
X825000D01*
X810000Y1825000D02*
Y1855000D01*
X715000Y1840000D02*
X745000D01*
X730000Y1825000D02*
Y1855000D01*
X635000Y1840000D02*
X665000D01*
X650000Y1825000D02*
Y1855000D01*
X555000Y1840000D02*
X585000D01*
X570000Y1825000D02*
Y1855000D01*
X475000Y1840000D02*
X505000D01*
X490000Y1825000D02*
Y1855000D01*
X395000Y1840000D02*
X425000D01*
X410000Y1825000D02*
Y1855000D01*
X75000Y1040000D02*
X105000D01*
X90000Y1025000D02*
Y1055000D01*
X75000Y1680000D02*
X105000D01*
X90000Y1665000D02*
Y1695000D01*
X75000Y1760000D02*
X105000D01*
X90000Y1745000D02*
Y1775000D01*
X75000Y1840000D02*
X105000D01*
X90000Y1825000D02*
Y1855000D01*
X75000Y1120000D02*
X105000D01*
X90000Y1105000D02*
Y1135000D01*
X75000Y1200000D02*
X105000D01*
X90000Y1185000D02*
Y1215000D01*
X75000Y1280000D02*
X105000D01*
X90000Y1265000D02*
Y1295000D01*
X75000Y1360000D02*
X105000D01*
X90000Y1345000D02*
Y1375000D01*
X75000Y1440000D02*
X105000D01*
X90000Y1425000D02*
Y1455000D01*
X75000Y1520000D02*
X105000D01*
X90000Y1505000D02*
Y1535000D01*
X75000Y1600000D02*
X105000D01*
X90000Y1585000D02*
Y1615000D01*
X75000Y160000D02*
X105000D01*
X90000Y145000D02*
Y175000D01*
X75000Y800000D02*
X105000D01*
X90000Y785000D02*
Y815000D01*
X75000Y880000D02*
X105000D01*
X90000Y865000D02*
Y895000D01*
X75000Y960000D02*
X105000D01*
X90000Y945000D02*
Y975000D01*
X75000Y240000D02*
X105000D01*
X90000Y225000D02*
Y255000D01*
X75000Y320000D02*
X105000D01*
X90000Y305000D02*
Y335000D01*
X75000Y400000D02*
X105000D01*
X90000Y385000D02*
Y415000D01*
X75000Y480000D02*
X105000D01*
X90000Y465000D02*
Y495000D01*
X75000Y560000D02*
X105000D01*
X90000Y545000D02*
Y575000D01*
X75000Y640000D02*
X105000D01*
X90000Y625000D02*
Y655000D01*
X75000Y720000D02*
X105000D01*
X90000Y705000D02*
Y735000D01*
X155000Y80000D02*
X185000D01*
X170000Y65000D02*
Y95000D01*
X235000Y80000D02*
X265000D01*
X250000Y65000D02*
Y95000D01*
X315000Y80000D02*
X345000D01*
X330000Y65000D02*
Y95000D01*
X75000Y80000D02*
X105000D01*
X90000Y65000D02*
Y95000D01*
X395000Y80000D02*
X425000D01*
X410000Y65000D02*
Y95000D01*
X1035000Y80000D02*
X1065000D01*
X1050000Y65000D02*
Y95000D01*
X1115000Y80000D02*
X1145000D01*
X1130000Y65000D02*
Y95000D01*
X1195000Y80000D02*
X1225000D01*
X1210000Y65000D02*
Y95000D01*
X475000Y80000D02*
X505000D01*
X490000Y65000D02*
Y95000D01*
X555000Y80000D02*
X585000D01*
X570000Y65000D02*
Y95000D01*
X635000Y80000D02*
X665000D01*
X650000Y65000D02*
Y95000D01*
X715000Y80000D02*
X745000D01*
X730000Y65000D02*
Y95000D01*
X795000Y80000D02*
X825000D01*
X810000Y65000D02*
Y95000D01*
X875000Y80000D02*
X905000D01*
X890000Y65000D02*
Y95000D01*
X955000Y80000D02*
X985000D01*
X970000Y65000D02*
Y95000D01*
X1275000Y80000D02*
X1305000D01*
X1290000Y65000D02*
Y95000D01*
X1915000Y80000D02*
X1945000D01*
X1930000Y65000D02*
Y95000D01*
X1995000Y80000D02*
X2025000D01*
X2010000Y65000D02*
Y95000D01*
X2075000Y80000D02*
X2105000D01*
X2090000Y65000D02*
Y95000D01*
X1355000Y80000D02*
X1385000D01*
X1370000Y65000D02*
Y95000D01*
X1435000Y80000D02*
X1465000D01*
X1450000Y65000D02*
Y95000D01*
X1515000Y80000D02*
X1545000D01*
X1530000Y65000D02*
Y95000D01*
X1595000Y80000D02*
X1625000D01*
X1610000Y65000D02*
Y95000D01*
X1675000Y80000D02*
X1705000D01*
X1690000Y65000D02*
Y95000D01*
X1755000Y80000D02*
X1785000D01*
X1770000Y65000D02*
Y95000D01*
X1835000Y80000D02*
X1865000D01*
X1850000Y65000D02*
Y95000D01*
X5865000Y2310000D02*
X5895000D01*
X5880000Y2295000D02*
Y2325000D01*
X6505000Y2310000D02*
X6535000D01*
X6520000Y2295000D02*
Y2325000D01*
X6585000Y2310000D02*
X6615000D01*
X6600000Y2295000D02*
Y2325000D01*
X6665000Y2310000D02*
X6695000D01*
X6680000Y2295000D02*
Y2325000D01*
X5945000Y2310000D02*
X5975000D01*
X5960000Y2295000D02*
Y2325000D01*
X6025000Y2310000D02*
X6055000D01*
X6040000Y2295000D02*
Y2325000D01*
X6105000Y2310000D02*
X6135000D01*
X6120000Y2295000D02*
Y2325000D01*
X6185000Y2310000D02*
X6215000D01*
X6200000Y2295000D02*
Y2325000D01*
X6265000Y2310000D02*
X6295000D01*
X6280000Y2295000D02*
Y2325000D01*
X6345000Y2310000D02*
X6375000D01*
X6360000Y2295000D02*
Y2325000D01*
X6425000Y2310000D02*
X6455000D01*
X6440000Y2295000D02*
Y2325000D01*
X4985000Y2310000D02*
X5015000D01*
X5000000Y2295000D02*
Y2325000D01*
X5625000Y2310000D02*
X5655000D01*
X5640000Y2295000D02*
Y2325000D01*
X5705000Y2310000D02*
X5735000D01*
X5720000Y2295000D02*
Y2325000D01*
X5785000Y2310000D02*
X5815000D01*
X5800000Y2295000D02*
Y2325000D01*
X5065000Y2310000D02*
X5095000D01*
X5080000Y2295000D02*
Y2325000D01*
X5145000Y2310000D02*
X5175000D01*
X5160000Y2295000D02*
Y2325000D01*
X5225000Y2310000D02*
X5255000D01*
X5240000Y2295000D02*
Y2325000D01*
X5305000Y2310000D02*
X5335000D01*
X5320000Y2295000D02*
Y2325000D01*
X5385000Y2310000D02*
X5415000D01*
X5400000Y2295000D02*
Y2325000D01*
X5465000Y2310000D02*
X5495000D01*
X5480000Y2295000D02*
Y2325000D01*
X5545000Y2310000D02*
X5575000D01*
X5560000Y2295000D02*
Y2325000D01*
X4105000Y2310000D02*
X4135000D01*
X4120000Y2295000D02*
Y2325000D01*
X4745000Y2310000D02*
X4775000D01*
X4760000Y2295000D02*
Y2325000D01*
X4825000Y2310000D02*
X4855000D01*
X4840000Y2295000D02*
Y2325000D01*
X4905000Y2310000D02*
X4935000D01*
X4920000Y2295000D02*
Y2325000D01*
X4185000Y2310000D02*
X4215000D01*
X4200000Y2295000D02*
Y2325000D01*
X4265000Y2310000D02*
X4295000D01*
X4280000Y2295000D02*
Y2325000D01*
X4345000Y2310000D02*
X4375000D01*
X4360000Y2295000D02*
Y2325000D01*
X4425000Y2310000D02*
X4455000D01*
X4440000Y2295000D02*
Y2325000D01*
X4505000Y2310000D02*
X4535000D01*
X4520000Y2295000D02*
Y2325000D01*
X4585000Y2310000D02*
X4615000D01*
X4600000Y2295000D02*
Y2325000D01*
X4665000Y2310000D02*
X4695000D01*
X4680000Y2295000D02*
Y2325000D01*
X6765000Y2070000D02*
X6795000D01*
X6780000Y2055000D02*
Y2085000D01*
X6765000Y1990000D02*
X6795000D01*
X6780000Y1975000D02*
Y2005000D01*
X6765000Y1910000D02*
X6795000D01*
X6780000Y1895000D02*
Y1925000D01*
X6765000Y2310000D02*
X6795000D01*
X6780000Y2295000D02*
Y2325000D01*
X6765000Y2230000D02*
X6795000D01*
X6780000Y2215000D02*
Y2245000D01*
X6765000Y2150000D02*
X6795000D01*
X6780000Y2135000D02*
Y2165000D01*
X6765000Y1830000D02*
X6795000D01*
X6780000Y1815000D02*
Y1845000D01*
X6765000Y1190000D02*
X6795000D01*
X6780000Y1175000D02*
Y1205000D01*
X6765000Y1110000D02*
X6795000D01*
X6780000Y1095000D02*
Y1125000D01*
X6765000Y1030000D02*
X6795000D01*
X6780000Y1015000D02*
Y1045000D01*
X6765000Y1750000D02*
X6795000D01*
X6780000Y1735000D02*
Y1765000D01*
X6765000Y1670000D02*
X6795000D01*
X6780000Y1655000D02*
Y1685000D01*
X6765000Y1590000D02*
X6795000D01*
X6780000Y1575000D02*
Y1605000D01*
X6765000Y1510000D02*
X6795000D01*
X6780000Y1495000D02*
Y1525000D01*
X6765000Y1430000D02*
X6795000D01*
X6780000Y1415000D02*
Y1445000D01*
X6765000Y1350000D02*
X6795000D01*
X6780000Y1335000D02*
Y1365000D01*
X6765000Y1270000D02*
X6795000D01*
X6780000Y1255000D02*
Y1285000D01*
X6765006Y951222D02*
X6795006D01*
X6780006Y936222D02*
Y966222D01*
X6765007Y311222D02*
X6795006D01*
X6780007Y296222D02*
Y326222D01*
X6765007Y231222D02*
X6795006D01*
X6780007Y216222D02*
Y246222D01*
X6765007Y151222D02*
X6795006D01*
X6780007Y136222D02*
Y166222D01*
X6765007Y871222D02*
X6795006D01*
X6780007Y856222D02*
Y886222D01*
X6765007Y791222D02*
X6795006D01*
X6780007Y776222D02*
Y806222D01*
X6765007Y711222D02*
X6795006D01*
X6780007Y696222D02*
Y726222D01*
X6765007Y631222D02*
X6795006D01*
X6780007Y616222D02*
Y646222D01*
X6765007Y551222D02*
X6795006D01*
X6780007Y536222D02*
Y566222D01*
X6765007Y471222D02*
X6795006D01*
X6780007Y456222D02*
Y486222D01*
X6765007Y391222D02*
X6795006D01*
X6780007Y376222D02*
Y406222D01*
X6765000Y70000D02*
X6795000D01*
X6780000Y55000D02*
Y85000D01*
X6685000Y70000D02*
X6715000D01*
X6700000Y55000D02*
Y85000D01*
X6045000Y70000D02*
X6075000D01*
X6060000Y55000D02*
Y85000D01*
X5965000Y70000D02*
X5995000D01*
X5980000Y55000D02*
Y85000D01*
X5885000Y70000D02*
X5915000D01*
X5900000Y55000D02*
Y85000D01*
X6605000Y70000D02*
X6635000D01*
X6620000Y55000D02*
Y85000D01*
X6525000Y70000D02*
X6555000D01*
X6540000Y55000D02*
Y85000D01*
X6445000Y70000D02*
X6475000D01*
X6460000Y55000D02*
Y85000D01*
X6365000Y70000D02*
X6395000D01*
X6380000Y55000D02*
Y85000D01*
X6285000Y70000D02*
X6315000D01*
X6300000Y55000D02*
Y85000D01*
X6205000Y70000D02*
X6235000D01*
X6220000Y55000D02*
Y85000D01*
X6125000Y70000D02*
X6155000D01*
X6140000Y55000D02*
Y85000D01*
X8705000Y6720000D02*
X8735000D01*
X8720000Y6705000D02*
Y6735000D01*
X1105000Y8200000D02*
X1135000D01*
X1120000Y8185000D02*
Y8215000D01*
X3465000Y2030000D02*
X3495000D01*
X3480000Y2015000D02*
Y2045000D01*
X3465000Y2110000D02*
X3495000D01*
X3480000Y2095000D02*
Y2125000D01*
X3745000Y1530000D02*
X3775000D01*
X3760000Y1515000D02*
Y1545000D01*
X3655000Y1530000D02*
X3685000D01*
X3670000Y1515000D02*
Y1545000D01*
X3565000Y1530000D02*
X3595000D01*
X3580000Y1515000D02*
Y1545000D01*
X5405000Y5400000D02*
X5435000D01*
X5420000Y5385000D02*
Y5415000D01*
X7775000Y7150000D02*
X7805000D01*
X7790000Y7135000D02*
Y7165000D01*
X2705000Y7810000D02*
X2735000D01*
X2720000Y7795000D02*
Y7825000D01*
X7225000Y3810000D02*
X7255000D01*
X7240000Y3795000D02*
Y3825000D01*
X8745000Y4330000D02*
X8775000D01*
X8760000Y4315000D02*
Y4345000D01*
X8745000Y4230000D02*
X8775000D01*
X8760000Y4215000D02*
Y4245000D01*
X8955000Y4780000D02*
X8985000D01*
X8970000Y4765000D02*
Y4795000D01*
X8655000Y5100000D02*
X8685000D01*
X8670000Y5085000D02*
Y5115000D01*
X8655000Y5430000D02*
X8685000D01*
X8670000Y5415000D02*
Y5445000D01*
X7345000Y6020000D02*
X7375000D01*
X7360000Y6005000D02*
Y6035000D01*
X6135000Y6750000D02*
X6165000D01*
X6150000Y6735000D02*
Y6765000D01*
X5445000Y7240000D02*
X5475000D01*
X5460000Y7225000D02*
Y7255000D01*
X5105000Y7350000D02*
X5135000D01*
X5120000Y7335000D02*
Y7365000D01*
X5215000Y7350000D02*
X5245000D01*
X5230000Y7335000D02*
Y7365000D01*
X4685000Y8200000D02*
X4715000D01*
X4700000Y8185000D02*
Y8215000D01*
X4685000Y8300000D02*
X4715000D01*
X4700000Y8285000D02*
Y8315000D01*
X4685000Y8400000D02*
X4715000D01*
X4700000Y8385000D02*
Y8415000D01*
X4685000Y8500000D02*
X4715000D01*
X4700000Y8485000D02*
Y8515000D01*
X4685000Y8600000D02*
X4715000D01*
X4700000Y8585000D02*
Y8615000D01*
X4685000Y8700000D02*
X4715000D01*
X4700000Y8685000D02*
Y8715000D01*
X4685000Y8800000D02*
X4715000D01*
X4700000Y8785000D02*
Y8815000D01*
X4885000Y8800000D02*
X4915000D01*
X4900000Y8785000D02*
Y8815000D01*
X4885000Y8700000D02*
X4915000D01*
X4900000Y8685000D02*
Y8715000D01*
X4885000Y8600000D02*
X4915000D01*
X4900000Y8585000D02*
Y8615000D01*
X4885000Y8500000D02*
X4915000D01*
X4900000Y8485000D02*
Y8515000D01*
X4885000Y8400000D02*
X4915000D01*
X4900000Y8385000D02*
Y8415000D01*
X4885000Y8300000D02*
X4915000D01*
X4900000Y8285000D02*
Y8315000D01*
X4885000Y8200000D02*
X4915000D01*
X4900000Y8185000D02*
Y8215000D01*
X6735000Y8280000D02*
X6765000D01*
X6750000Y8265000D02*
Y8295000D01*
X6735000Y8400000D02*
X6765000D01*
X6750000Y8385000D02*
Y8415000D01*
X6735000Y8520000D02*
X6765000D01*
X6750000Y8505000D02*
Y8535000D01*
X6875000Y8520000D02*
X6905000D01*
X6890000Y8505000D02*
Y8535000D01*
X6875000Y8660000D02*
X6905000D01*
X6890000Y8645000D02*
Y8675000D01*
X6875000Y8800000D02*
X6905000D01*
X6890000Y8785000D02*
Y8815000D01*
X7015000Y8800000D02*
X7045000D01*
X7030000Y8785000D02*
Y8815000D01*
X7145000Y8800000D02*
X7175000D01*
X7160000Y8785000D02*
Y8815000D01*
X6815000Y7890000D02*
X6845000D01*
X6830000Y7875000D02*
Y7905000D01*
X6815000Y7780000D02*
X6845000D01*
X6830000Y7765000D02*
Y7795000D01*
X6815000Y7660000D02*
X6845000D01*
X6830000Y7645000D02*
Y7675000D01*
X7395000Y6810000D02*
X7425000D01*
X7410000Y6795000D02*
Y6825000D01*
X7855000Y6470000D02*
X7885000D01*
X7870000Y6455000D02*
Y6485000D01*
X7855000Y6580000D02*
X7885000D01*
X7870000Y6565000D02*
Y6595000D01*
X7855000Y6680000D02*
X7885000D01*
X7870000Y6665000D02*
Y6695000D01*
X7855000Y6790000D02*
X7885000D01*
X7870000Y6775000D02*
Y6805000D01*
X7995000Y7150000D02*
X8025000D01*
X8010000Y7135000D02*
Y7165000D01*
X8415000Y7110000D02*
X8445000D01*
X8430000Y7095000D02*
Y7125000D01*
X9155000Y6600000D02*
X9185000D01*
X9170000Y6585000D02*
Y6615000D01*
X9895000Y7340000D02*
X9925000D01*
X9910000Y7325000D02*
Y7355000D01*
X9895000Y8110000D02*
X9925000D01*
X9910000Y8095000D02*
Y8125000D01*
X8655000Y8690000D02*
X8685000D01*
X8670000Y8675000D02*
Y8705000D01*
X6405000Y5000000D02*
X6435000D01*
X6420000Y4985000D02*
Y5015000D01*
X7275000Y4720000D02*
X7305000D01*
X7290000Y4705000D02*
Y4735000D01*
X7155000Y4700000D02*
X7185000D01*
X7170000Y4685000D02*
Y4715000D01*
X7045000Y4700000D02*
X7075000D01*
X7060000Y4685000D02*
Y4715000D01*
X7325000Y4900000D02*
X7355000D01*
X7340000Y4885000D02*
Y4915000D01*
X8885000Y1100000D02*
X8915000D01*
X8900000Y1085000D02*
Y1115000D01*
X8385000Y1100000D02*
X8415000D01*
X8400000Y1085000D02*
Y1115000D01*
X8385000Y800000D02*
X8415000D01*
X8400000Y785000D02*
Y815000D01*
X8885000Y800000D02*
X8915000D01*
X8900000Y785000D02*
Y815000D01*
X8885000Y1400000D02*
X8915000D01*
X8900000Y1385000D02*
Y1415000D01*
X8385000Y1400000D02*
X8415000D01*
X8400000Y1385000D02*
Y1415000D01*
X7625000Y2860000D02*
X7655000D01*
X7640000Y2845000D02*
Y2875000D01*
X7815000Y2730000D02*
X7845000D01*
X7830000Y2715000D02*
Y2745000D01*
X8135000Y2710000D02*
X8165000D01*
X8150000Y2695000D02*
Y2725000D01*
X8265000Y2710000D02*
X8295000D01*
X8280000Y2695000D02*
Y2725000D01*
X8415000Y2710000D02*
X8445000D01*
X8430000Y2695000D02*
Y2725000D01*
X8575000Y2710000D02*
X8605000D01*
X8590000Y2695000D02*
Y2725000D01*
X8735000Y2700000D02*
X8765000D01*
X8750000Y2685000D02*
Y2715000D01*
X8875000Y2700000D02*
X8905000D01*
X8890000Y2685000D02*
Y2715000D01*
X9035000Y2700000D02*
X9065000D01*
X9050000Y2685000D02*
Y2715000D01*
X9185000Y2700000D02*
X9215000D01*
X9200000Y2685000D02*
Y2715000D01*
X9615000Y3050000D02*
X9645000D01*
X9630000Y3035000D02*
Y3065000D01*
X9615000Y3340000D02*
X9645000D01*
X9630000Y3325000D02*
Y3355000D01*
X8975000Y3640000D02*
X9005000D01*
X8990000Y3625000D02*
Y3655000D01*
X5515000Y4150000D02*
X5545000D01*
X5530000Y4135000D02*
Y4165000D01*
X5515000Y4290000D02*
X5545000D01*
X5530000Y4275000D02*
Y4305000D01*
X5515000Y4430000D02*
X5545000D01*
X5530000Y4415000D02*
Y4445000D01*
X5515000Y4570000D02*
X5545000D01*
X5530000Y4555000D02*
Y4585000D01*
X5345000Y4060000D02*
X5375000D01*
X5360000Y4045000D02*
Y4075000D01*
X5515000Y4010000D02*
X5545000D01*
X5530000Y3995000D02*
Y4025000D01*
X5885000Y3330000D02*
X5915000D01*
X5900000Y3315000D02*
Y3345000D01*
X5665000Y3330000D02*
X5695000D01*
X5680000Y3315000D02*
Y3345000D01*
X5505000Y3330000D02*
X5535000D01*
X5520000Y3315000D02*
Y3345000D01*
X5795000Y2920000D02*
X5825000D01*
X5810000Y2905000D02*
Y2935000D01*
X5555000Y2920000D02*
X5585000D01*
X5570000Y2905000D02*
Y2935000D01*
X4575000Y3260000D02*
X4605000D01*
X4590000Y3245000D02*
Y3275000D01*
X4715000Y3260000D02*
X4745000D01*
X4730000Y3245000D02*
Y3275000D01*
X3685000Y3400000D02*
X3715000D01*
X3700000Y3385000D02*
Y3415000D01*
X3485000Y3400000D02*
X3515000D01*
X3500000Y3385000D02*
Y3415000D01*
X3285000Y3400000D02*
X3315000D01*
X3300000Y3385000D02*
Y3415000D01*
X3285000Y3200000D02*
X3315000D01*
X3300000Y3185000D02*
Y3215000D01*
X3485000Y3200000D02*
X3515000D01*
X3500000Y3185000D02*
Y3215000D01*
X3685000Y3200000D02*
X3715000D01*
X3700000Y3185000D02*
Y3215000D01*
X3885000Y3200000D02*
X3915000D01*
X3900000Y3185000D02*
Y3215000D01*
X3885000Y3400000D02*
X3915000D01*
X3900000Y3385000D02*
Y3415000D01*
X3885000Y3600000D02*
X3915000D01*
X3900000Y3585000D02*
Y3615000D01*
X3685000Y3600000D02*
X3715000D01*
X3700000Y3585000D02*
Y3615000D01*
X3485000Y3600000D02*
X3515000D01*
X3500000Y3585000D02*
Y3615000D01*
X3285000Y3600000D02*
X3315000D01*
X3300000Y3585000D02*
Y3615000D01*
X3285000Y3800000D02*
X3315000D01*
X3300000Y3785000D02*
Y3815000D01*
X3485000Y3800000D02*
X3515000D01*
X3500000Y3785000D02*
Y3815000D01*
X3685000Y3800000D02*
X3715000D01*
X3700000Y3785000D02*
Y3815000D01*
X3885000Y3800000D02*
X3915000D01*
X3900000Y3785000D02*
Y3815000D01*
X3885000Y4000000D02*
X3915000D01*
X3900000Y3985000D02*
Y4015000D01*
X3685000Y4000000D02*
X3715000D01*
X3700000Y3985000D02*
Y4015000D01*
X3485000Y4000000D02*
X3515000D01*
X3500000Y3985000D02*
Y4015000D01*
X3285000Y4000000D02*
X3315000D01*
X3300000Y3985000D02*
Y4015000D01*
X3285000Y4200000D02*
X3315000D01*
X3300000Y4185000D02*
Y4215000D01*
X3485000Y4200000D02*
X3515000D01*
X3500000Y4185000D02*
Y4215000D01*
X3685000Y4200000D02*
X3715000D01*
X3700000Y4185000D02*
Y4215000D01*
X3885000Y4200000D02*
X3915000D01*
X3900000Y4185000D02*
Y4215000D01*
X3885000Y4400000D02*
X3915000D01*
X3900000Y4385000D02*
Y4415000D01*
X3685000Y4400000D02*
X3715000D01*
X3700000Y4385000D02*
Y4415000D01*
X3485000Y4400000D02*
X3515000D01*
X3500000Y4385000D02*
Y4415000D01*
X3285000Y4400000D02*
X3315000D01*
X3300000Y4385000D02*
Y4415000D01*
X315000Y3800000D02*
X345000D01*
X330000Y3785000D02*
Y3815000D01*
X315000Y3680000D02*
X345000D01*
X330000Y3665000D02*
Y3695000D01*
X1595000Y2120000D02*
X1625000D01*
X1610000Y2105000D02*
Y2135000D01*
X1595000Y2240000D02*
X1625000D01*
X1610000Y2225000D02*
Y2255000D01*
X1895000Y2470000D02*
X1925000D01*
X1910000Y2455000D02*
Y2485000D01*
X1985000Y2470000D02*
X2015000D01*
X2000000Y2455000D02*
Y2485000D01*
X2085000Y2470000D02*
X2115000D01*
X2100000Y2455000D02*
Y2485000D01*
X2185000Y2470000D02*
X2215000D01*
X2200000Y2455000D02*
Y2485000D01*
X2285000Y2470000D02*
X2315000D01*
X2300000Y2455000D02*
Y2485000D01*
X2375000Y2470000D02*
X2405000D01*
X2390000Y2455000D02*
Y2485000D01*
X2465000Y2470000D02*
X2495000D01*
X2480000Y2455000D02*
Y2485000D01*
X2565000Y2470000D02*
X2595000D01*
X2580000Y2455000D02*
Y2485000D01*
X2465000Y3200000D02*
X2495000D01*
X2480000Y3185000D02*
Y3215000D01*
X2565000Y3200000D02*
X2595000D01*
X2580000Y3185000D02*
Y3215000D01*
X2055000Y4000000D02*
X2085000D01*
X2070000Y3985000D02*
Y4015000D01*
X2465000Y4210000D02*
X2495000D01*
X2480000Y4195000D02*
Y4225000D01*
X2465000Y4450000D02*
X2495000D01*
X2480000Y4435000D02*
Y4465000D01*
X2175000Y4530000D02*
X2205000D01*
X2190000Y4515000D02*
Y4545000D01*
X1865000Y4300000D02*
X1895000D01*
X1880000Y4285000D02*
Y4315000D01*
X4155000Y6710000D02*
X4185000D01*
X4170000Y6695000D02*
Y6725000D01*
X4395000Y7020000D02*
X4425000D01*
X4410000Y7005000D02*
Y7035000D01*
X4275000Y7040000D02*
X4305000D01*
X4290000Y7025000D02*
Y7055000D01*
X4875000Y5930000D02*
X4905000D01*
X4890000Y5915000D02*
Y5945000D01*
X5675000Y6210000D02*
X5705000D01*
X5690000Y6195000D02*
Y6225000D01*
X5675000Y6330000D02*
X5705000D01*
X5690000Y6315000D02*
Y6345000D01*
X5545000Y5990000D02*
X5575000D01*
X5560000Y5975000D02*
Y6005000D01*
X5105000Y4920000D02*
X5135000D01*
X5120000Y4905000D02*
Y4935000D01*
X5655000Y4940000D02*
X5685000D01*
X5670000Y4925000D02*
Y4955000D01*
X5985000Y5530000D02*
X6015000D01*
X6000000Y5515000D02*
Y5545000D01*
X5875000Y5530000D02*
X5905000D01*
X5890000Y5515000D02*
Y5545000D01*
X5955000Y6200000D02*
X5985000D01*
X5970000Y6185000D02*
Y6215000D01*
X5945000Y6480000D02*
X5975000D01*
X5960000Y6465000D02*
Y6495000D01*
X6065000Y6480000D02*
X6095000D01*
X6080000Y6465000D02*
Y6495000D01*
X6535000Y6530000D02*
X6565000D01*
X6550000Y6515000D02*
Y6545000D01*
X6445000Y7870000D02*
X6475000D01*
X6460000Y7855000D02*
Y7885000D01*
X5865000Y7780000D02*
X5895000D01*
X5880000Y7765000D02*
Y7795000D01*
X5865000Y8200000D02*
X5895000D01*
X5880000Y8185000D02*
Y8215000D01*
X5985000Y8200000D02*
X6015000D01*
X6000000Y8185000D02*
Y8215000D01*
X5245000Y7760000D02*
X5275000D01*
X5260000Y7745000D02*
Y7775000D01*
X5245000Y7870000D02*
X5275000D01*
X5260000Y7855000D02*
Y7885000D01*
X3435000Y7050000D02*
X3465000D01*
X3450000Y7035000D02*
Y7065000D01*
X3535000Y7350000D02*
X3565000D01*
X3550000Y7335000D02*
Y7365000D01*
X3435000Y7150000D02*
X3465000D01*
X3450000Y7135000D02*
Y7165000D01*
X3435000Y7250000D02*
X3465000D01*
X3450000Y7235000D02*
Y7265000D01*
X3435000Y7350000D02*
X3465000D01*
X3450000Y7335000D02*
Y7365000D01*
X3335000Y7350000D02*
X3365000D01*
X3350000Y7335000D02*
Y7365000D01*
X3035000Y7900000D02*
X3065000D01*
X3050000Y7885000D02*
Y7915000D01*
X3035000Y8000000D02*
X3065000D01*
X3050000Y7985000D02*
Y8015000D01*
X3035000Y8100000D02*
X3065000D01*
X3050000Y8085000D02*
Y8115000D01*
X3035000Y8210000D02*
X3065000D01*
X3050000Y8195000D02*
Y8225000D01*
X3055000Y8570000D02*
X3085000D01*
X3070000Y8555000D02*
Y8585000D01*
X1795000Y7800000D02*
X1825000D01*
X1810000Y7785000D02*
Y7815000D01*
X1215000Y8200000D02*
X1245000D01*
X1230000Y8185000D02*
Y8215000D01*
X1095000Y8700000D02*
X1125000D01*
X1110000Y8685000D02*
Y8715000D01*
X745001Y8040000D02*
X775001D01*
X760001Y8025000D02*
Y8055000D01*
X815000Y8410000D02*
X845000D01*
X830000Y8395000D02*
Y8425000D01*
X2255000Y7840000D02*
X2285000D01*
X2270000Y7825000D02*
Y7855000D01*
X2255000Y7932501D02*
X2285000D01*
X2270000Y7917501D02*
Y7947500D01*
X6865000Y7040000D02*
X6895000D01*
X6880000Y7025000D02*
Y7055000D01*
X6865000Y7150000D02*
X6895000D01*
X6880000Y7135000D02*
Y7165000D01*
X8755000Y6360000D02*
X8785000D01*
X8770000Y6345000D02*
Y6375000D01*
X8755000Y6480000D02*
X8785000D01*
X8770000Y6465000D02*
Y6495000D01*
X7272500Y3040000D02*
X7302500D01*
X7287500Y3025000D02*
Y3054999D01*
X7365000Y3040000D02*
X7395000D01*
X7380000Y3025000D02*
Y3055000D01*
X7525000Y3310000D02*
X7555000D01*
X7540000Y3295000D02*
Y3325000D01*
X7655000Y3700000D02*
X7685000D01*
X7670000Y3685000D02*
Y3715000D01*
X7965000Y4110000D02*
X7995000D01*
X7980000Y4095000D02*
Y4125000D01*
X6525000Y4210000D02*
X6555000D01*
X6540000Y4195000D02*
Y4225000D01*
X6525000Y4090000D02*
X6555000D01*
X6540000Y4075000D02*
Y4105000D01*
X6525000Y3980000D02*
X6555000D01*
X6540000Y3965000D02*
Y3995000D01*
X6525000Y3860000D02*
X6555000D01*
X6540000Y3845000D02*
Y3875000D01*
X6305000Y8420000D02*
X6335000D01*
X6320000Y8405000D02*
Y8435000D01*
X6465000Y8420000D02*
X6495000D01*
X6480000Y8405000D02*
Y8435000D01*
X6305000Y8540000D02*
X6335000D01*
X6320000Y8525000D02*
Y8555000D01*
X6465000Y8540000D02*
X6495000D01*
X6480000Y8525000D02*
Y8555000D01*
X6465000Y8660000D02*
X6495000D01*
X6480000Y8645000D02*
Y8675000D01*
X6305000Y8660000D02*
X6335000D01*
X6320000Y8645000D02*
Y8675000D01*
X6305000Y8780000D02*
X6335000D01*
X6320000Y8765000D02*
Y8795000D01*
X6465000Y8780000D02*
X6495000D01*
X6480000Y8765000D02*
Y8795000D01*
X6465000Y8900000D02*
X6495000D01*
X6480000Y8885000D02*
Y8915000D01*
X6305000Y8900000D02*
X6335000D01*
X6320000Y8885000D02*
Y8915000D01*
X3795000Y2310000D02*
X3825000D01*
X3810000Y2295000D02*
Y2325000D01*
X3795000Y2230000D02*
X3825000D01*
X3810000Y2215000D02*
Y2245000D01*
X3795000Y2150000D02*
X3825000D01*
X3810000Y2135000D02*
Y2165000D01*
X3795000Y2070000D02*
X3825000D01*
X3810000Y2055000D02*
Y2085000D01*
X3795000Y1990000D02*
X3825000D01*
X3810000Y1975000D02*
Y2005000D01*
X3795000Y1910000D02*
X3825000D01*
X3810000Y1895000D02*
Y1925000D01*
X4015000Y2310000D02*
X4045000D01*
X4030000Y2295000D02*
Y2325000D01*
X4015000Y2230000D02*
X4045000D01*
X4030000Y2215000D02*
Y2245000D01*
X4015000Y2150000D02*
X4045000D01*
X4030000Y2135000D02*
Y2165000D01*
X4015000Y2070000D02*
X4045000D01*
X4030000Y2055000D02*
Y2085000D01*
X4015000Y1990000D02*
X4045000D01*
X4030000Y1975000D02*
Y2005000D01*
X4015000Y1910000D02*
X4045000D01*
X4030000Y1895000D02*
Y1925000D01*
X4045000Y1820000D02*
X4075000D01*
X4060000Y1805000D02*
Y1835000D01*
X3445000Y1840000D02*
X3475000D01*
X3460000Y1825000D02*
Y1855000D01*
X3525000Y1840000D02*
X3555000D01*
X3540000Y1825000D02*
Y1855000D01*
X3605000Y1840000D02*
X3635000D01*
X3620000Y1825000D02*
Y1855000D01*
X3685000Y1840000D02*
X3715000D01*
X3700000Y1825000D02*
Y1855000D01*
X3765000Y1840000D02*
X3795000D01*
X3780000Y1825000D02*
Y1855000D01*
X3965000Y1600000D02*
X3995000D01*
X3980000Y1585000D02*
Y1615000D01*
X4045000Y1600000D02*
X4075000D01*
X4060000Y1585000D02*
Y1615000D01*
X4045000Y1720000D02*
X4075000D01*
X4060000Y1705000D02*
Y1735000D01*
X3475000Y1530000D02*
X3505000D01*
X3490000Y1515000D02*
Y1545000D01*
X3805000Y1600000D02*
X3835000D01*
X3820000Y1585000D02*
Y1615000D01*
X3885000Y1600000D02*
X3915000D01*
X3900000Y1585000D02*
Y1615000D01*
X2205000Y240000D02*
X2235000D01*
X2220000Y225000D02*
Y255000D01*
X2205000Y160000D02*
X2235000D01*
X2220000Y145000D02*
Y175000D01*
X2165000Y80000D02*
X2195000D01*
X2180000Y65000D02*
Y95000D01*
X2205000Y800000D02*
X2235000D01*
X2220000Y785000D02*
Y815000D01*
X2205000Y720000D02*
X2235000D01*
X2220000Y705000D02*
Y735000D01*
X2205000Y640000D02*
X2235000D01*
X2220000Y625000D02*
Y655000D01*
X2205000Y560000D02*
X2235000D01*
X2220000Y545000D02*
Y575000D01*
X2205000Y480000D02*
X2235000D01*
X2220000Y465000D02*
Y495000D01*
X2205000Y400000D02*
X2235000D01*
X2220000Y385000D02*
Y415000D01*
X2205000Y320000D02*
X2235000D01*
X2220000Y305000D02*
Y335000D01*
X2445000Y880000D02*
X2475000D01*
X2460000Y865000D02*
Y895000D01*
X2365000Y880000D02*
X2395000D01*
X2380000Y865000D02*
Y895000D01*
X2285000Y880000D02*
X2315000D01*
X2300000Y865000D02*
Y895000D01*
X2205000Y880000D02*
X2235000D01*
X2220000Y865000D02*
Y895000D01*
X3005000Y880000D02*
X3035000D01*
X3020000Y865000D02*
Y895000D01*
X2925000Y880000D02*
X2955000D01*
X2940000Y865000D02*
Y895000D01*
X2845000Y880000D02*
X2875000D01*
X2860000Y865000D02*
Y895000D01*
X2765000Y880000D02*
X2795000D01*
X2780000Y865000D02*
Y895000D01*
X2685000Y880000D02*
X2715000D01*
X2700000Y865000D02*
Y895000D01*
X2605000Y880000D02*
X2635000D01*
X2620000Y865000D02*
Y895000D01*
X2525000Y880000D02*
X2555000D01*
X2540000Y865000D02*
Y895000D01*
X5885000Y390000D02*
X5915000D01*
X5900000Y375000D02*
Y405000D01*
X5885000Y470000D02*
X5915000D01*
X5900000Y455000D02*
Y485000D01*
X5885000Y550000D02*
X5915000D01*
X5900000Y535000D02*
Y565000D01*
X5885000Y630000D02*
X5915000D01*
X5900000Y615000D02*
Y645000D01*
X5885000Y710000D02*
X5915000D01*
X5900000Y695000D02*
Y725000D01*
X5885000Y790000D02*
X5915000D01*
X5900000Y775000D02*
Y805000D01*
X5885000Y870000D02*
X5915000D01*
X5900000Y855000D02*
Y885000D01*
X5885000Y150000D02*
X5915000D01*
X5900000Y135000D02*
Y165000D01*
X5885000Y230000D02*
X5915000D01*
X5900000Y215000D02*
Y245000D01*
X5885000Y310000D02*
X5915000D01*
X5900000Y295000D02*
Y325000D01*
X5725000Y870000D02*
X5755000D01*
X5740000Y855000D02*
Y885000D01*
X5805000Y870000D02*
X5835000D01*
X5820000Y855000D02*
Y885000D01*
X5085000Y870000D02*
X5115000D01*
X5100000Y855000D02*
Y885000D01*
X5005000Y870000D02*
X5035000D01*
X5020000Y855000D02*
Y885000D01*
X4925000Y870000D02*
X4955000D01*
X4940000Y855000D02*
Y885000D01*
X4845000Y870000D02*
X4875000D01*
X4860000Y855000D02*
Y885000D01*
X4765000Y870000D02*
X4795000D01*
X4780000Y855000D02*
Y885000D01*
X4685000Y870000D02*
X4715000D01*
X4700000Y855000D02*
Y885000D01*
X4605000Y870000D02*
X4635000D01*
X4620000Y855000D02*
Y885000D01*
X5645000Y870000D02*
X5675000D01*
X5660000Y855000D02*
Y885000D01*
X5565000Y870000D02*
X5595000D01*
X5580000Y855000D02*
Y885000D01*
X5485000Y870000D02*
X5515000D01*
X5500000Y855000D02*
Y885000D01*
X5405000Y870000D02*
X5435000D01*
X5420000Y855000D02*
Y885000D01*
X5325000Y870000D02*
X5355000D01*
X5340000Y855000D02*
Y885000D01*
X5245000Y870000D02*
X5275000D01*
X5260000Y855000D02*
Y885000D01*
X5165000Y870000D02*
X5195000D01*
X5180000Y855000D02*
Y885000D01*
X4045000Y870000D02*
X4075000D01*
X4060000Y855000D02*
Y885000D01*
X4125000Y870000D02*
X4155000D01*
X4140000Y855000D02*
Y885000D01*
X4205000Y870000D02*
X4235000D01*
X4220000Y855000D02*
Y885000D01*
X4285000Y870000D02*
X4315000D01*
X4300000Y855000D02*
Y885000D01*
X4365000Y870000D02*
X4395000D01*
X4380000Y855000D02*
Y885000D01*
X4445000Y870000D02*
X4475000D01*
X4460000Y855000D02*
Y885000D01*
X4525000Y870000D02*
X4555000D01*
X4540000Y855000D02*
Y885000D01*
X3565000Y870000D02*
X3595000D01*
X3580000Y855000D02*
Y885000D01*
X3645000Y870000D02*
X3675000D01*
X3660000Y855000D02*
Y885000D01*
X3725000Y870000D02*
X3755000D01*
X3740000Y855000D02*
Y885000D01*
X3805000Y870000D02*
X3835000D01*
X3820000Y855000D02*
Y885000D01*
X3885000Y870000D02*
X3915000D01*
X3900000Y855000D02*
Y885000D01*
X3965000Y870000D02*
X3995000D01*
X3980000Y855000D02*
Y885000D01*
X3475000Y1030000D02*
X3505000D01*
X3490000Y1015000D02*
Y1045000D01*
X3475000Y950000D02*
X3505000D01*
X3490000Y935000D02*
Y965000D01*
X3475000Y870000D02*
X3505000D01*
X3490000Y855000D02*
Y885000D01*
X3385000Y1110000D02*
X3415000D01*
X3400000Y1095000D02*
Y1125000D01*
X3385000Y1190000D02*
X3415000D01*
X3400000Y1175000D02*
Y1205000D01*
X3385000Y1270000D02*
X3415000D01*
X3400000Y1255000D02*
Y1285000D01*
X3385000Y1350000D02*
X3415000D01*
X3400000Y1335000D02*
Y1365000D01*
X3385000Y1430000D02*
X3415000D01*
X3400000Y1415000D02*
Y1445000D01*
X3385000Y1510000D02*
X3415000D01*
X3400000Y1495000D02*
Y1525000D01*
X3385000Y1590000D02*
X3415000D01*
X3400000Y1575000D02*
Y1605000D01*
X3365000Y2200000D02*
X3395000D01*
X3380000Y2185000D02*
Y2215000D01*
X3365000Y2000000D02*
X3395000D01*
X3380000Y1985000D02*
Y2015000D01*
X3365000Y1920000D02*
X3395000D01*
X3380000Y1905000D02*
Y1935000D01*
X3365000Y1840000D02*
X3395000D01*
X3380000Y1825000D02*
Y1855000D01*
X3115000Y2120000D02*
X3145000D01*
X3130000Y2105000D02*
Y2135000D01*
X3115000Y2040000D02*
X3145000D01*
X3130000Y2025000D02*
Y2055000D01*
X3115000Y1960000D02*
X3145000D01*
X3130000Y1945000D02*
Y1975000D01*
X3115000Y1880000D02*
X3145000D01*
X3130000Y1865000D02*
Y1895000D01*
X3115000Y1800000D02*
X3145000D01*
X3130000Y1785000D02*
Y1815000D01*
X3115000Y1720000D02*
X3145000D01*
X3130000Y1705000D02*
Y1735000D01*
X3115000Y1640000D02*
X3145000D01*
X3130000Y1625000D02*
Y1655000D01*
X3015000Y1630000D02*
X3045000D01*
X3030000Y1615000D02*
Y1645000D01*
X2935000Y1630000D02*
X2965000D01*
X2950000Y1615000D02*
Y1645000D01*
X2855000Y1630000D02*
X2885000D01*
X2870000Y1615000D02*
Y1645000D01*
X2775000Y1630000D02*
X2805000D01*
X2790000Y1615000D02*
Y1645000D01*
X2605000Y1660000D02*
X2635000D01*
X2620000Y1645000D02*
Y1675000D01*
X2405000Y1820000D02*
X2435000D01*
X2420000Y1805000D02*
Y1835000D01*
X2485000Y1820000D02*
X2515000D01*
X2500000Y1805000D02*
Y1835000D01*
X2565000Y1820000D02*
X2595000D01*
X2580000Y1805000D02*
Y1835000D01*
X2605000Y1740000D02*
X2635000D01*
X2620000Y1725000D02*
Y1755000D01*
X2085000Y1820000D02*
X2115000D01*
X2100000Y1805000D02*
Y1835000D01*
X2165000Y1820000D02*
X2195000D01*
X2180000Y1805000D02*
Y1835000D01*
X2245000Y1820000D02*
X2275000D01*
X2260000Y1805000D02*
Y1835000D01*
X2075000Y1730000D02*
X2105000D01*
X2090000Y1715000D02*
Y1745000D01*
X2075000Y1650000D02*
X2105000D01*
X2090000Y1635000D02*
Y1665000D01*
X2075000Y1570000D02*
X2105000D01*
X2090000Y1555000D02*
Y1585000D01*
X2075000Y1490000D02*
X2105000D01*
X2090000Y1475000D02*
Y1505000D01*
X2075000Y1410000D02*
X2105000D01*
X2090000Y1395000D02*
Y1425000D01*
X2075000Y1330000D02*
X2105000D01*
X2090000Y1315000D02*
Y1345000D01*
X2135000Y1250000D02*
X2165000D01*
X2150000Y1235000D02*
Y1265000D01*
X2215000Y1250000D02*
X2245000D01*
X2230000Y1235000D02*
Y1265000D01*
X2295000Y1250000D02*
X2325000D01*
X2310000Y1235000D02*
Y1265000D01*
X2375000Y1250000D02*
X2405000D01*
X2390000Y1235000D02*
Y1265000D01*
X2455000Y1250000D02*
X2485000D01*
X2470000Y1235000D02*
Y1265000D01*
X2535000Y1250000D02*
X2565000D01*
X2550000Y1235000D02*
Y1265000D01*
X2615000Y1280000D02*
X2645000D01*
X2630000Y1265000D02*
Y1295000D01*
X2615000Y1360000D02*
X2645000D01*
X2630000Y1345000D02*
Y1375000D01*
X2615000Y1440000D02*
X2645000D01*
X2630000Y1425000D02*
Y1455000D01*
X2695000Y1440000D02*
X2725000D01*
X2710000Y1425000D02*
Y1455000D01*
X2775000Y1440000D02*
X2805000D01*
X2790000Y1425000D02*
Y1455000D01*
X2855000Y1440000D02*
X2885000D01*
X2870000Y1425000D02*
Y1455000D01*
X2935000Y1440000D02*
X2965000D01*
X2950000Y1425000D02*
Y1455000D01*
X3015000Y1440000D02*
X3045000D01*
X3030000Y1425000D02*
Y1455000D01*
X3095000Y1440000D02*
X3125000D01*
X3110000Y1425000D02*
Y1455000D01*
X3095000Y1360000D02*
X3125000D01*
X3110000Y1345000D02*
Y1375000D01*
X3095000Y1280000D02*
X3125000D01*
X3110000Y1265000D02*
Y1295000D01*
X3095000Y1200000D02*
X3125000D01*
X3110000Y1185000D02*
Y1215000D01*
X3095000Y1120000D02*
X3125000D01*
X3110000Y1105000D02*
Y1135000D01*
X3095000Y1040000D02*
X3125000D01*
X3110000Y1025000D02*
Y1055000D01*
X3095000Y960000D02*
X3125000D01*
X3110000Y945000D02*
Y975000D01*
X3095000Y880000D02*
X3125000D01*
X3110000Y865000D02*
Y895000D01*
X1695000Y2020000D02*
X1725000D01*
X1710000Y2005000D02*
Y2035000D01*
X6535000Y4880000D02*
X6565000D01*
X6550000Y4865000D02*
Y4895000D01*
X6135000Y4850000D02*
X6165000D01*
X6150000Y4835000D02*
Y4865000D01*
X9595000Y7390000D02*
X9625000D01*
X9610000Y7375000D02*
Y7405000D01*
X6865000Y6832500D02*
X6895000D01*
X6880000Y6817500D02*
Y6847500D01*
X4965000Y7430000D02*
X4995000D01*
X4980000Y7415000D02*
Y7445000D01*
X4685000Y4510000D02*
X4715000D01*
X4700000Y4495000D02*
Y4525000D01*
X2035000Y3290000D02*
X2065000D01*
X2050000Y3275000D02*
Y3305000D01*
X7505000Y6860000D02*
X7535000D01*
X7520000Y6845000D02*
Y6875000D01*
X8045000Y5570000D02*
X8075000D01*
X8060000Y5555000D02*
Y5585000D01*
X6255000Y3860000D02*
X6285000D01*
X6270000Y3845000D02*
Y3875000D01*
X8265000Y5660000D02*
X8295000D01*
X8280000Y5645000D02*
Y5675000D01*
X8155000Y5610000D02*
X8185000D01*
X8170000Y5595000D02*
Y5625000D01*
X6255000Y4960000D02*
X6285000D01*
X6270000Y4945000D02*
Y4975000D01*
X6335000Y4760000D02*
X6365000D01*
X6350000Y4745000D02*
Y4775000D01*
X9215000Y6030000D02*
X9245000D01*
X9230000Y6015000D02*
Y6045000D01*
X9385000Y6210500D02*
X9415000D01*
X9400000Y6195500D02*
Y6225500D01*
X4555000Y5510000D02*
X4585000D01*
X4570000Y5495000D02*
Y5525000D01*
X4965000Y7160000D02*
X4995000D01*
X4980000Y7145000D02*
Y7175000D01*
X4965000Y7250000D02*
X4995000D01*
X4980000Y7235000D02*
Y7265000D01*
X4965000Y7340000D02*
X4995000D01*
X4980000Y7325000D02*
Y7355000D01*
X7495000Y5010000D02*
X7525000D01*
X7510000Y4995000D02*
Y5025000D01*
X6215000Y4680000D02*
X6245000D01*
X6230000Y4665000D02*
Y4695000D01*
X6035000Y4850000D02*
X6065000D01*
X6050000Y4835000D02*
Y4865000D01*
X5765000Y5300000D02*
X5795000D01*
X5780000Y5285000D02*
Y5315000D01*
X5865000Y5300000D02*
X5895000D01*
X5880000Y5285000D02*
Y5315000D01*
X6325000Y6210000D02*
X6355000D01*
X6340000Y6195000D02*
Y6225000D01*
X6325000Y6330000D02*
X6355000D01*
X6340000Y6315000D02*
Y6345000D01*
X6325000Y6440000D02*
X6355000D01*
X6340000Y6425000D02*
Y6455000D01*
X7515000Y6200000D02*
X7545000D01*
X7530000Y6185000D02*
Y6215000D01*
X6445000Y7280000D02*
X6475000D01*
X6460000Y7265000D02*
Y7295000D01*
X6535000Y7280000D02*
X6565000D01*
X6550000Y7265000D02*
Y7295000D01*
X6625000Y7280000D02*
X6655000D01*
X6640000Y7265000D02*
Y7295000D01*
X4485000Y5700000D02*
X4515000D01*
X4500000Y5685000D02*
Y5715000D01*
X565000Y2730000D02*
X595000D01*
X580000Y2715000D02*
Y2745000D01*
X565000Y2850000D02*
X595000D01*
X580000Y2835000D02*
Y2865000D01*
X685000Y2850000D02*
X715000D01*
X700000Y2835000D02*
Y2865000D01*
X685000Y2730000D02*
X715000D01*
X700000Y2715000D02*
Y2745000D01*
X805000Y2730000D02*
X835000D01*
X820000Y2715000D02*
Y2745000D01*
X805000Y2850000D02*
X835000D01*
X820000Y2835000D02*
Y2865000D01*
X805000Y2980000D02*
X835000D01*
X820000Y2965000D02*
Y2995000D01*
X685000Y2980000D02*
X715000D01*
X700000Y2965000D02*
Y2995000D01*
X565000Y2980000D02*
X595000D01*
X580000Y2965000D02*
Y2995000D01*
X2955000Y6150000D02*
X2985000D01*
X2970000Y6135000D02*
Y6165000D01*
X2705000Y7950000D02*
X2735000D01*
X2720000Y7935000D02*
Y7965000D01*
X1955000Y3920000D02*
X1985000D01*
X1970000Y3905000D02*
Y3935000D01*
X7155000Y3530000D02*
X7185000D01*
X7170000Y3515000D02*
Y3545000D01*
X7275000Y3530000D02*
X7305000D01*
X7290000Y3515000D02*
Y3545000D01*
X6815000Y4320000D02*
X6845000D01*
X6830000Y4305000D02*
Y4335000D01*
X6815000Y4210000D02*
X6845000D01*
X6830000Y4195000D02*
Y4225000D01*
X7285000Y7260000D02*
X7315000D01*
X7300000Y7245000D02*
Y7275000D01*
X7405000Y7340000D02*
X7435000D01*
X7420000Y7325000D02*
Y7355000D01*
X7285000Y7340000D02*
X7315000D01*
X7300000Y7325000D02*
Y7355000D01*
X7285000Y7420000D02*
X7315000D01*
X7300000Y7405000D02*
Y7435000D01*
X7405000Y7260000D02*
X7435000D01*
X7420000Y7245000D02*
Y7275000D01*
X7405000Y7420000D02*
X7435000D01*
X7420000Y7405000D02*
Y7435000D01*
X7285000Y7180000D02*
X7315000D01*
X7300000Y7165000D02*
Y7195000D01*
X7405000Y7180000D02*
X7435000D01*
X7420000Y7165000D02*
Y7195000D01*
X8255000Y6860000D02*
X8285000D01*
X8270000Y6845000D02*
Y6875000D01*
X9155000Y6460000D02*
X9185000D01*
X9170000Y6445000D02*
Y6475000D01*
X6535000Y7540000D02*
X6565000D01*
X6550000Y7525000D02*
Y7555000D01*
X6435000Y7540000D02*
X6465000D01*
X6450000Y7525000D02*
Y7555000D01*
X6435000Y7440000D02*
X6465000D01*
X6450000Y7425000D02*
Y7455000D01*
X6535000Y7440000D02*
X6565000D01*
X6550000Y7425000D02*
Y7455000D01*
X6635000Y7440000D02*
X6665000D01*
X6650000Y7425000D02*
Y7455000D01*
X6735000Y7440000D02*
X6765000D01*
X6750000Y7425000D02*
Y7455000D01*
X7105566Y7178728D02*
X7135566D01*
X7120566Y7163728D02*
Y7193728D01*
X7105000Y7260000D02*
X7135000D01*
X7120000Y7245000D02*
Y7275000D01*
X7195000Y7260000D02*
X7225000D01*
X7210000Y7245000D02*
Y7275000D01*
X7195000Y7180000D02*
X7225000D01*
X7210000Y7165000D02*
Y7195000D01*
X4475000Y7490000D02*
X4505000D01*
X4490000Y7475000D02*
Y7505000D01*
X4485000Y6840000D02*
X4515000D01*
X4500000Y6825000D02*
Y6855000D01*
X3095000Y7120000D02*
X3125000D01*
X3110000Y7105000D02*
Y7135000D01*
X3095000Y7490000D02*
X3125000D01*
X3110000Y7475000D02*
Y7505000D01*
X4165000Y7080000D02*
X4195000D01*
X4180000Y7065000D02*
Y7095000D01*
X4145000Y7180000D02*
X4175000D01*
X4160000Y7165000D02*
Y7195000D01*
X4195000Y7610000D02*
X4225000D01*
X4210000Y7595000D02*
Y7625000D01*
X3835000Y6650000D02*
X3865000D01*
X3850000Y6635000D02*
Y6665000D01*
X1575000Y7610000D02*
X1605000D01*
X1590000Y7595000D02*
Y7625000D01*
X1975000Y3430000D02*
X2005000D01*
X1990000Y3415000D02*
Y3445000D01*
X6035000Y3480000D02*
X6065000D01*
X6050000Y3465000D02*
Y3495000D01*
X5955000Y3170000D02*
X5985000D01*
X5970000Y3155000D02*
Y3185000D01*
X6405000Y3170000D02*
X6435000D01*
X6420000Y3155000D02*
Y3185000D01*
X5845000Y4960000D02*
X5875000D01*
X5860000Y4945000D02*
Y4975000D01*
X485000Y7980000D02*
X515000D01*
X500000Y7965000D02*
Y7995000D01*
X485000Y8510000D02*
X515000D01*
X500000Y8495000D02*
Y8525000D01*
X485000Y8890000D02*
X515000D01*
X500000Y8875000D02*
Y8905000D01*
X1475000Y7420000D02*
X1505000D01*
X1490000Y7405000D02*
Y7435000D01*
X1765000Y7460000D02*
X1795000D01*
X1780000Y7445000D02*
Y7475000D01*
X9085000Y3600000D02*
X9115000D01*
X9100000Y3585000D02*
Y3615000D01*
X8985000Y5450000D02*
X9015000D01*
X9000000Y5435000D02*
Y5465000D01*
X8965000Y5320000D02*
X8995000D01*
X8980000Y5305000D02*
Y5335000D01*
X8895000Y5010000D02*
X8925000D01*
X8910000Y4995000D02*
Y5025000D01*
X9205000Y3520000D02*
X9235000D01*
X9220000Y3505000D02*
Y3535000D01*
X8925000Y5200000D02*
X8955000D01*
X8940000Y5185000D02*
Y5215000D01*
X9615000Y3490000D02*
X9645000D01*
X9630000Y3475000D02*
Y3505000D01*
X9615000Y3630000D02*
X9645000D01*
X9630000Y3615000D02*
Y3645000D01*
X8975000Y3530000D02*
X9005000D01*
X8990000Y3515000D02*
Y3545000D01*
X8225000Y3570000D02*
X8255000D01*
X8240000Y3555000D02*
Y3585000D01*
X8735001Y3160001D02*
X8765001D01*
X8750001Y3145001D02*
Y3175001D01*
X9075000Y3090000D02*
X9105000D01*
X9090000Y3075000D02*
Y3105000D01*
X7525000Y3920000D02*
X7555000D01*
X7540000Y3905000D02*
Y3935000D01*
X8575000Y6870000D02*
X8605000D01*
X8590000Y6855000D02*
Y6885000D01*
X8765000Y6870000D02*
X8795000D01*
X8780000Y6855000D02*
Y6885000D01*
X9625000Y3740000D02*
X9655000D01*
X9640000Y3725000D02*
Y3755000D01*
X9045000Y5540000D02*
X9075000D01*
X9060000Y5525000D02*
Y5555000D01*
%TF.MD5,ab2e8ae2b091ae796dfa70eb5b0fc5fd*%
M02*
