%TF.GenerationSoftware,Altium Limited,Altium Designer,20.2.6 (244)*%
G04 Layer_Color=2752767*
%FSLAX45Y45*%
%MOMM*%
%TF.SameCoordinates,65E78103-6D03-462D-AAE3-041F84C347C7*%
%TF.FilePolarity,Positive*%
%TF.FileFunction,Drawing*%
%TF.Part,Single*%
G01*
G75*
%TA.AperFunction,NonConductor*%
%ADD95C,0.12700*%
%ADD145C,0.16933*%
D95*
X7089200Y8009200D02*
Y8110800D01*
X7190800D01*
Y8009200D01*
X7089200D01*
X6835200D02*
Y8110800D01*
X6936800D01*
Y8009200D01*
X6835200D01*
X3221200Y6319200D02*
Y6420800D01*
X3322800D01*
Y6319200D01*
X3221200D01*
X3475200D02*
Y6420800D01*
X3576800D01*
Y6319200D01*
X3475200D01*
X3729200D02*
Y6420800D01*
X3830800D01*
Y6319200D01*
X3729200D01*
X3983200D02*
Y6420800D01*
X4084800D01*
Y6319200D01*
X3983200D01*
X4237200D02*
Y6420800D01*
X4338800D01*
Y6319200D01*
X4237200D01*
X3233200Y8749200D02*
Y8850800D01*
X3334800D01*
Y8749200D01*
X3233200D01*
X2979200D02*
Y8850800D01*
X3080800D01*
Y8749200D01*
X2979200D01*
X9629200Y4725200D02*
Y4826800D01*
X9730800D01*
Y4725200D01*
X9629200D01*
Y4979200D02*
Y5080800D01*
X9730800D01*
Y4979200D01*
X9629200D01*
Y5233200D02*
Y5334800D01*
X9730800D01*
Y5233200D01*
X9629200D01*
Y5589200D02*
Y5690800D01*
X9730800D01*
Y5589200D01*
X9629200D01*
Y5843200D02*
Y5944800D01*
X9730800D01*
Y5843200D01*
X9629200D01*
Y6097200D02*
Y6198800D01*
X9730800D01*
Y6097200D01*
X9629200D01*
Y6351200D02*
Y6452800D01*
X9730800D01*
Y6351200D01*
X9629200D01*
Y6605200D02*
Y6706800D01*
X9730800D01*
Y6605200D01*
X9629200D01*
Y6859200D02*
Y6960800D01*
X9730800D01*
Y6859200D01*
X9629200D01*
X920000Y7449200D02*
X869200Y7550800D01*
X970800D01*
X920000Y7449200D01*
Y7299200D02*
X869200Y7400800D01*
X970800D01*
X920000Y7299200D01*
X2100000Y6799200D02*
X2049200Y6900800D01*
X2150800D01*
X2100000Y6799200D01*
X2070000Y7361700D02*
X2019200Y7463300D01*
X2120800D01*
X2070000Y7361700D01*
X2550000Y7199200D02*
X2499200Y7300800D01*
X2600800D01*
X2550000Y7199200D01*
X2560000Y6789200D02*
X2509200Y6890800D01*
X2610800D01*
X2560000Y6789200D01*
X1030000Y7739200D02*
X979200Y7840800D01*
X1080800D01*
X1030000Y7739200D01*
X180000Y5589200D02*
X129200Y5690800D01*
X230800D01*
X180000Y5589200D01*
Y6879200D02*
X129200Y6980800D01*
X230800D01*
X180000Y6879200D01*
X3130000Y2149200D02*
X3079200Y2250800D01*
X3180800D01*
X3130000Y2149200D01*
Y2229200D02*
X3079200Y2330800D01*
X3180800D01*
X3130000Y2229200D01*
X3380000Y2229200D02*
X3329200Y2330800D01*
X3430800D01*
X3380000Y2229200D01*
X4360000Y7569200D02*
X4309200Y7670800D01*
X4410800D01*
X4360000Y7569200D01*
X6460000Y6999200D02*
X6409200Y7100800D01*
X6510800D01*
X6460000Y6999200D01*
Y6909200D02*
X6409200Y7010800D01*
X6510800D01*
X6460000Y6909200D01*
X2340000Y1769200D02*
X2289200Y1870800D01*
X2390800D01*
X2340000Y1769200D01*
X2710000Y1579200D02*
X2659200Y1680800D01*
X2760800D01*
X2710000Y1579200D01*
X2480000Y3459200D02*
X2429200Y3560800D01*
X2530800D01*
X2480000Y3459200D01*
X2190000D02*
X2139200Y3560800D01*
X2240800D01*
X2190000Y3459200D01*
X2300000Y3149200D02*
X2249200Y3250800D01*
X2350800D01*
X2300000Y3149200D01*
X2390000D02*
X2339200Y3250800D01*
X2440800D01*
X2390000Y3149200D01*
X4610000Y6969200D02*
X4559200Y7070800D01*
X4660800D01*
X4610000Y6969200D01*
Y7099200D02*
X4559200Y7200800D01*
X4660800D01*
X4610000Y7099200D01*
X4380000Y6549200D02*
X4329200Y6650800D01*
X4430800D01*
X4380000Y6549200D01*
Y6659200D02*
X4329200Y6760800D01*
X4430800D01*
X4380000Y6659200D01*
X4170000Y6549200D02*
X4119200Y6650800D01*
X4220800D01*
X4170000Y6549200D01*
X7890000Y4059200D02*
X7839200Y4160800D01*
X7940800D01*
X7890000Y4059200D01*
X3050000Y2269200D02*
X2999200Y2370800D01*
X3100800D01*
X3050000Y2269200D01*
X2970000D02*
X2919200Y2370800D01*
X3020800D01*
X2970000Y2269200D01*
X2890000D02*
X2839200Y2370800D01*
X2940800D01*
X2890000Y2269200D01*
X2810000D02*
X2759200Y2370800D01*
X2860800D01*
X2810000Y2269200D01*
X1930000Y2269200D02*
X1879200Y2370800D01*
X1980800D01*
X1930000Y2269200D01*
X2570000Y2269200D02*
X2519200Y2370800D01*
X2620800D01*
X2570000Y2269200D01*
X2650000D02*
X2599200Y2370800D01*
X2700800D01*
X2650000Y2269200D01*
X2730000D02*
X2679200Y2370800D01*
X2780800D01*
X2730000Y2269200D01*
X2010000D02*
X1959200Y2370800D01*
X2060800D01*
X2010000Y2269200D01*
X2090000D02*
X2039200Y2370800D01*
X2140800D01*
X2090000Y2269200D01*
X2170000D02*
X2119200Y2370800D01*
X2220800D01*
X2170000Y2269200D01*
X2250000D02*
X2199200Y2370800D01*
X2300800D01*
X2250000Y2269200D01*
X2330000D02*
X2279200Y2370800D01*
X2380800D01*
X2330000Y2269200D01*
X2410000D02*
X2359200Y2370800D01*
X2460800D01*
X2410000Y2269200D01*
X2490000D02*
X2439200Y2370800D01*
X2540800D01*
X2490000Y2269200D01*
X1850000Y2269200D02*
X1799200Y2370800D01*
X1900800D01*
X1850000Y2269200D01*
X1850000Y2189200D02*
X1799200Y2290800D01*
X1900800D01*
X1850000Y2189200D01*
Y2109200D02*
X1799200Y2210800D01*
X1900800D01*
X1850000Y2109200D01*
Y2029200D02*
X1799200Y2130800D01*
X1900800D01*
X1850000Y2029200D01*
Y1949200D02*
X1799200Y2050800D01*
X1900800D01*
X1850000Y1949200D01*
Y1869200D02*
X1799200Y1970800D01*
X1900800D01*
X1850000Y1869200D01*
Y1789200D02*
X1799200Y1890800D01*
X1900800D01*
X1850000Y1789200D01*
X1210000Y1789200D02*
X1159200Y1890800D01*
X1260800D01*
X1210000Y1789200D01*
X1130000D02*
X1079200Y1890800D01*
X1180800D01*
X1130000Y1789200D01*
X1050000D02*
X999200Y1890800D01*
X1100800D01*
X1050000Y1789200D01*
X1770000D02*
X1719200Y1890800D01*
X1820800D01*
X1770000Y1789200D01*
X1690000D02*
X1639200Y1890800D01*
X1740800D01*
X1690000Y1789200D01*
X1610000D02*
X1559200Y1890800D01*
X1660800D01*
X1610000Y1789200D01*
X1530000D02*
X1479200Y1890800D01*
X1580800D01*
X1530000Y1789200D01*
X1450000D02*
X1399200Y1890800D01*
X1500800D01*
X1450000Y1789200D01*
X1370000D02*
X1319200Y1890800D01*
X1420800D01*
X1370000Y1789200D01*
X1290000D02*
X1239200Y1890800D01*
X1340800D01*
X1290000Y1789200D01*
X970000Y1789200D02*
X919200Y1890800D01*
X1020800D01*
X970000Y1789200D01*
X330000Y1789200D02*
X279200Y1890800D01*
X380800D01*
X330000Y1789200D01*
X250000D02*
X199200Y1890800D01*
X300800D01*
X250000Y1789200D01*
X170000D02*
X119200Y1890800D01*
X220800D01*
X170000Y1789200D01*
X890000D02*
X839200Y1890800D01*
X940800D01*
X890000Y1789200D01*
X810000D02*
X759200Y1890800D01*
X860800D01*
X810000Y1789200D01*
X730000D02*
X679200Y1890800D01*
X780800D01*
X730000Y1789200D01*
X650000D02*
X599200Y1890800D01*
X700800D01*
X650000Y1789200D01*
X570000D02*
X519200Y1890800D01*
X620800D01*
X570000Y1789200D01*
X490000D02*
X439200Y1890800D01*
X540800D01*
X490000Y1789200D01*
X410000D02*
X359200Y1890800D01*
X460800D01*
X410000Y1789200D01*
X90000Y989200D02*
X39200Y1090800D01*
X140800D01*
X90000Y989200D01*
X90000Y1629200D02*
X39200Y1730800D01*
X140800D01*
X90000Y1629200D01*
Y1709200D02*
X39200Y1810800D01*
X140800D01*
X90000Y1709200D01*
Y1789200D02*
X39200Y1890800D01*
X140800D01*
X90000Y1789200D01*
Y1069200D02*
X39200Y1170800D01*
X140800D01*
X90000Y1069200D01*
Y1149200D02*
X39200Y1250800D01*
X140800D01*
X90000Y1149200D01*
Y1229200D02*
X39200Y1330800D01*
X140800D01*
X90000Y1229200D01*
Y1309200D02*
X39200Y1410800D01*
X140800D01*
X90000Y1309200D01*
Y1389200D02*
X39200Y1490800D01*
X140800D01*
X90000Y1389200D01*
Y1469200D02*
X39200Y1570800D01*
X140800D01*
X90000Y1469200D01*
Y1549200D02*
X39200Y1650800D01*
X140800D01*
X90000Y1549200D01*
X90000Y109200D02*
X39200Y210800D01*
X140800D01*
X90000Y109200D01*
X90000Y749200D02*
X39200Y850800D01*
X140800D01*
X90000Y749200D01*
Y829200D02*
X39200Y930800D01*
X140800D01*
X90000Y829200D01*
Y909200D02*
X39200Y1010800D01*
X140800D01*
X90000Y909200D01*
Y189200D02*
X39200Y290800D01*
X140800D01*
X90000Y189200D01*
Y269200D02*
X39200Y370800D01*
X140800D01*
X90000Y269200D01*
Y349200D02*
X39200Y450800D01*
X140800D01*
X90000Y349200D01*
Y429200D02*
X39200Y530800D01*
X140800D01*
X90000Y429200D01*
Y509200D02*
X39200Y610800D01*
X140800D01*
X90000Y509200D01*
Y589200D02*
X39200Y690800D01*
X140800D01*
X90000Y589200D01*
Y669200D02*
X39200Y770800D01*
X140800D01*
X90000Y669200D01*
X170000Y29200D02*
X119200Y130800D01*
X220800D01*
X170000Y29200D01*
X250000D02*
X199200Y130800D01*
X300800D01*
X250000Y29200D01*
X330000D02*
X279200Y130800D01*
X380800D01*
X330000Y29200D01*
X90000D02*
X39200Y130800D01*
X140800D01*
X90000Y29200D01*
X410000Y29200D02*
X359200Y130800D01*
X460800D01*
X410000Y29200D01*
X1050000Y29200D02*
X999200Y130800D01*
X1100800D01*
X1050000Y29200D01*
X1130000D02*
X1079200Y130800D01*
X1180800D01*
X1130000Y29200D01*
X1210000D02*
X1159200Y130800D01*
X1260800D01*
X1210000Y29200D01*
X490000D02*
X439200Y130800D01*
X540800D01*
X490000Y29200D01*
X570000D02*
X519200Y130800D01*
X620800D01*
X570000Y29200D01*
X650000D02*
X599200Y130800D01*
X700800D01*
X650000Y29200D01*
X730000D02*
X679200Y130800D01*
X780800D01*
X730000Y29200D01*
X810000D02*
X759200Y130800D01*
X860800D01*
X810000Y29200D01*
X890000D02*
X839200Y130800D01*
X940800D01*
X890000Y29200D01*
X970000D02*
X919200Y130800D01*
X1020800D01*
X970000Y29200D01*
X1290000Y29200D02*
X1239200Y130800D01*
X1340800D01*
X1290000Y29200D01*
X1930000Y29200D02*
X1879200Y130800D01*
X1980800D01*
X1930000Y29200D01*
X2010000D02*
X1959200Y130800D01*
X2060800D01*
X2010000Y29200D01*
X2090000D02*
X2039200Y130800D01*
X2140800D01*
X2090000Y29200D01*
X1370000D02*
X1319200Y130800D01*
X1420800D01*
X1370000Y29200D01*
X1450000D02*
X1399200Y130800D01*
X1500800D01*
X1450000Y29200D01*
X1530000D02*
X1479200Y130800D01*
X1580800D01*
X1530000Y29200D01*
X1610000D02*
X1559200Y130800D01*
X1660800D01*
X1610000Y29200D01*
X1690000D02*
X1639200Y130800D01*
X1740800D01*
X1690000Y29200D01*
X1770000D02*
X1719200Y130800D01*
X1820800D01*
X1770000Y29200D01*
X1850000D02*
X1799200Y130800D01*
X1900800D01*
X1850000Y29200D01*
X5880000Y2259200D02*
X5829200Y2360800D01*
X5930800D01*
X5880000Y2259200D01*
X6520000Y2259200D02*
X6469200Y2360800D01*
X6570800D01*
X6520000Y2259200D01*
X6600000D02*
X6549200Y2360800D01*
X6650800D01*
X6600000Y2259200D01*
X6680000D02*
X6629200Y2360800D01*
X6730800D01*
X6680000Y2259200D01*
X5960000D02*
X5909200Y2360800D01*
X6010800D01*
X5960000Y2259200D01*
X6040000D02*
X5989200Y2360800D01*
X6090800D01*
X6040000Y2259200D01*
X6120000D02*
X6069200Y2360800D01*
X6170800D01*
X6120000Y2259200D01*
X6200000D02*
X6149200Y2360800D01*
X6250800D01*
X6200000Y2259200D01*
X6280000D02*
X6229200Y2360800D01*
X6330800D01*
X6280000Y2259200D01*
X6360000D02*
X6309200Y2360800D01*
X6410800D01*
X6360000Y2259200D01*
X6440000D02*
X6389200Y2360800D01*
X6490800D01*
X6440000Y2259200D01*
X5000000Y2259200D02*
X4949200Y2360800D01*
X5050800D01*
X5000000Y2259200D01*
X5640000Y2259200D02*
X5589200Y2360800D01*
X5690800D01*
X5640000Y2259200D01*
X5720000D02*
X5669200Y2360800D01*
X5770800D01*
X5720000Y2259200D01*
X5800000D02*
X5749200Y2360800D01*
X5850800D01*
X5800000Y2259200D01*
X5080000D02*
X5029200Y2360800D01*
X5130800D01*
X5080000Y2259200D01*
X5160000D02*
X5109200Y2360800D01*
X5210800D01*
X5160000Y2259200D01*
X5240000D02*
X5189200Y2360800D01*
X5290800D01*
X5240000Y2259200D01*
X5320000D02*
X5269200Y2360800D01*
X5370800D01*
X5320000Y2259200D01*
X5400000D02*
X5349200Y2360800D01*
X5450800D01*
X5400000Y2259200D01*
X5480000D02*
X5429200Y2360800D01*
X5530800D01*
X5480000Y2259200D01*
X5560000D02*
X5509200Y2360800D01*
X5610800D01*
X5560000Y2259200D01*
X4120000Y2259200D02*
X4069200Y2360800D01*
X4170800D01*
X4120000Y2259200D01*
X4760000Y2259200D02*
X4709200Y2360800D01*
X4810800D01*
X4760000Y2259200D01*
X4840000D02*
X4789200Y2360800D01*
X4890800D01*
X4840000Y2259200D01*
X4920000D02*
X4869200Y2360800D01*
X4970800D01*
X4920000Y2259200D01*
X4200000D02*
X4149200Y2360800D01*
X4250800D01*
X4200000Y2259200D01*
X4280000D02*
X4229200Y2360800D01*
X4330800D01*
X4280000Y2259200D01*
X4360000D02*
X4309200Y2360800D01*
X4410800D01*
X4360000Y2259200D01*
X4440000D02*
X4389200Y2360800D01*
X4490800D01*
X4440000Y2259200D01*
X4520000D02*
X4469200Y2360800D01*
X4570800D01*
X4520000Y2259200D01*
X4600000D02*
X4549200Y2360800D01*
X4650800D01*
X4600000Y2259200D01*
X4680000D02*
X4629200Y2360800D01*
X4730800D01*
X4680000Y2259200D01*
X6780000Y2019200D02*
X6729200Y2120800D01*
X6830800D01*
X6780000Y2019200D01*
Y1939200D02*
X6729200Y2040800D01*
X6830800D01*
X6780000Y1939200D01*
Y1859200D02*
X6729200Y1960800D01*
X6830800D01*
X6780000Y1859200D01*
Y2259200D02*
X6729200Y2360800D01*
X6830800D01*
X6780000Y2259200D01*
Y2179200D02*
X6729200Y2280800D01*
X6830800D01*
X6780000Y2179200D01*
Y2099200D02*
X6729200Y2200800D01*
X6830800D01*
X6780000Y2099200D01*
X6780000Y1779200D02*
X6729200Y1880800D01*
X6830800D01*
X6780000Y1779200D01*
X6780000Y1139200D02*
X6729200Y1240800D01*
X6830800D01*
X6780000Y1139200D01*
Y1059200D02*
X6729200Y1160800D01*
X6830800D01*
X6780000Y1059200D01*
Y979200D02*
X6729200Y1080800D01*
X6830800D01*
X6780000Y979200D01*
Y1699200D02*
X6729200Y1800800D01*
X6830800D01*
X6780000Y1699200D01*
Y1619200D02*
X6729200Y1720800D01*
X6830800D01*
X6780000Y1619200D01*
Y1539200D02*
X6729200Y1640800D01*
X6830800D01*
X6780000Y1539200D01*
Y1459200D02*
X6729200Y1560800D01*
X6830800D01*
X6780000Y1459200D01*
Y1379200D02*
X6729200Y1480800D01*
X6830800D01*
X6780000Y1379200D01*
Y1299200D02*
X6729200Y1400800D01*
X6830800D01*
X6780000Y1299200D01*
Y1219200D02*
X6729200Y1320800D01*
X6830800D01*
X6780000Y1219200D01*
X6780006Y900422D02*
X6729206Y1002022D01*
X6830806D01*
X6780006Y900422D01*
X6780007Y260422D02*
X6729207Y362022D01*
X6830807D01*
X6780007Y260422D01*
Y180422D02*
X6729207Y282022D01*
X6830807D01*
X6780007Y180422D01*
Y100422D02*
X6729207Y202022D01*
X6830807D01*
X6780007Y100422D01*
Y820422D02*
X6729207Y922022D01*
X6830807D01*
X6780007Y820422D01*
Y740422D02*
X6729207Y842022D01*
X6830807D01*
X6780007Y740422D01*
Y660422D02*
X6729207Y762022D01*
X6830807D01*
X6780007Y660422D01*
Y580422D02*
X6729207Y682022D01*
X6830807D01*
X6780007Y580422D01*
Y500422D02*
X6729207Y602022D01*
X6830807D01*
X6780007Y500422D01*
Y420422D02*
X6729207Y522022D01*
X6830807D01*
X6780007Y420422D01*
Y340422D02*
X6729207Y442022D01*
X6830807D01*
X6780007Y340422D01*
X6780000Y19200D02*
X6729200Y120800D01*
X6830800D01*
X6780000Y19200D01*
X6700000Y19200D02*
X6649200Y120800D01*
X6750800D01*
X6700000Y19200D01*
X6060000Y19200D02*
X6009200Y120800D01*
X6110800D01*
X6060000Y19200D01*
X5980000D02*
X5929200Y120800D01*
X6030800D01*
X5980000Y19200D01*
X5900000D02*
X5849200Y120800D01*
X5950800D01*
X5900000Y19200D01*
X6620000D02*
X6569200Y120800D01*
X6670800D01*
X6620000Y19200D01*
X6540000D02*
X6489200Y120800D01*
X6590800D01*
X6540000Y19200D01*
X6460000D02*
X6409200Y120800D01*
X6510800D01*
X6460000Y19200D01*
X6380000D02*
X6329200Y120800D01*
X6430800D01*
X6380000Y19200D01*
X6300000D02*
X6249200Y120800D01*
X6350800D01*
X6300000Y19200D01*
X6220000D02*
X6169200Y120800D01*
X6270800D01*
X6220000Y19200D01*
X6140000D02*
X6089200Y120800D01*
X6190800D01*
X6140000Y19200D01*
X8720000Y6669200D02*
X8669200Y6770800D01*
X8770800D01*
X8720000Y6669200D01*
X1120000Y8149200D02*
X1069200Y8250800D01*
X1170800D01*
X1120000Y8149200D01*
X3480000Y1979200D02*
X3429200Y2080800D01*
X3530800D01*
X3480000Y1979200D01*
Y2059200D02*
X3429200Y2160800D01*
X3530800D01*
X3480000Y2059200D01*
X3760000Y1479200D02*
X3709200Y1580800D01*
X3810800D01*
X3760000Y1479200D01*
X3670000D02*
X3619200Y1580800D01*
X3720800D01*
X3670000Y1479200D01*
X3580000D02*
X3529200Y1580800D01*
X3630800D01*
X3580000Y1479200D01*
X5420000Y5349200D02*
X5369200Y5450800D01*
X5470800D01*
X5420000Y5349200D01*
X7790000Y7099200D02*
X7739200Y7200800D01*
X7840800D01*
X7790000Y7099200D01*
X2720000Y7759200D02*
X2669200Y7860800D01*
X2770800D01*
X2720000Y7759200D01*
X7240000Y3759200D02*
X7189200Y3860800D01*
X7290800D01*
X7240000Y3759200D01*
X8760000Y4279200D02*
X8709200Y4380800D01*
X8810800D01*
X8760000Y4279200D01*
Y4179200D02*
X8709200Y4280800D01*
X8810800D01*
X8760000Y4179200D01*
X8970000Y4729200D02*
X8919200Y4830800D01*
X9020800D01*
X8970000Y4729200D01*
X8670000Y5049200D02*
X8619200Y5150800D01*
X8720800D01*
X8670000Y5049200D01*
Y5379200D02*
X8619200Y5480800D01*
X8720800D01*
X8670000Y5379200D01*
X7360000Y5969200D02*
X7309200Y6070800D01*
X7410800D01*
X7360000Y5969200D01*
X6150000Y6699200D02*
X6099200Y6800800D01*
X6200800D01*
X6150000Y6699200D01*
X5460000Y7189200D02*
X5409200Y7290800D01*
X5510800D01*
X5460000Y7189200D01*
X5120000Y7299200D02*
X5069200Y7400800D01*
X5170800D01*
X5120000Y7299200D01*
X5230000D02*
X5179200Y7400800D01*
X5280800D01*
X5230000Y7299200D01*
X4700000Y8149200D02*
X4649200Y8250800D01*
X4750800D01*
X4700000Y8149200D01*
Y8249200D02*
X4649200Y8350800D01*
X4750800D01*
X4700000Y8249200D01*
Y8349200D02*
X4649200Y8450800D01*
X4750800D01*
X4700000Y8349200D01*
Y8449200D02*
X4649200Y8550800D01*
X4750800D01*
X4700000Y8449200D01*
Y8549200D02*
X4649200Y8650800D01*
X4750800D01*
X4700000Y8549200D01*
Y8649200D02*
X4649200Y8750800D01*
X4750800D01*
X4700000Y8649200D01*
Y8749200D02*
X4649200Y8850800D01*
X4750800D01*
X4700000Y8749200D01*
X4900000D02*
X4849200Y8850800D01*
X4950800D01*
X4900000Y8749200D01*
Y8649200D02*
X4849200Y8750800D01*
X4950800D01*
X4900000Y8649200D01*
Y8549200D02*
X4849200Y8650800D01*
X4950800D01*
X4900000Y8549200D01*
Y8449200D02*
X4849200Y8550800D01*
X4950800D01*
X4900000Y8449200D01*
Y8349200D02*
X4849200Y8450800D01*
X4950800D01*
X4900000Y8349200D01*
Y8249200D02*
X4849200Y8350800D01*
X4950800D01*
X4900000Y8249200D01*
Y8149200D02*
X4849200Y8250800D01*
X4950800D01*
X4900000Y8149200D01*
X6750000Y8229200D02*
X6699200Y8330800D01*
X6800800D01*
X6750000Y8229200D01*
Y8349200D02*
X6699200Y8450800D01*
X6800800D01*
X6750000Y8349200D01*
Y8469200D02*
X6699200Y8570800D01*
X6800800D01*
X6750000Y8469200D01*
X6890000D02*
X6839200Y8570800D01*
X6940800D01*
X6890000Y8469200D01*
Y8609200D02*
X6839200Y8710800D01*
X6940800D01*
X6890000Y8609200D01*
Y8749200D02*
X6839200Y8850800D01*
X6940800D01*
X6890000Y8749200D01*
X7030000D02*
X6979200Y8850800D01*
X7080800D01*
X7030000Y8749200D01*
X7160000D02*
X7109200Y8850800D01*
X7210800D01*
X7160000Y8749200D01*
X6830000Y7839200D02*
X6779200Y7940800D01*
X6880800D01*
X6830000Y7839200D01*
Y7729200D02*
X6779200Y7830800D01*
X6880800D01*
X6830000Y7729200D01*
Y7609200D02*
X6779200Y7710800D01*
X6880800D01*
X6830000Y7609200D01*
X7410000Y6759200D02*
X7359200Y6860800D01*
X7460800D01*
X7410000Y6759200D01*
X7870000Y6419200D02*
X7819200Y6520800D01*
X7920800D01*
X7870000Y6419200D01*
Y6529200D02*
X7819200Y6630800D01*
X7920800D01*
X7870000Y6529200D01*
Y6629200D02*
X7819200Y6730800D01*
X7920800D01*
X7870000Y6629200D01*
Y6739200D02*
X7819200Y6840800D01*
X7920800D01*
X7870000Y6739200D01*
X8010000Y7099200D02*
X7959200Y7200800D01*
X8060800D01*
X8010000Y7099200D01*
X8430000Y7059200D02*
X8379200Y7160800D01*
X8480800D01*
X8430000Y7059200D01*
X9170000Y6549200D02*
X9119200Y6650800D01*
X9220800D01*
X9170000Y6549200D01*
X9910000Y7289200D02*
X9859200Y7390800D01*
X9960800D01*
X9910000Y7289200D01*
Y8059200D02*
X9859200Y8160800D01*
X9960800D01*
X9910000Y8059200D01*
X8670000Y8639200D02*
X8619200Y8740800D01*
X8720800D01*
X8670000Y8639200D01*
X6420000Y4949200D02*
X6369200Y5050800D01*
X6470800D01*
X6420000Y4949200D01*
X7290000Y4669200D02*
X7239200Y4770800D01*
X7340800D01*
X7290000Y4669200D01*
X7170000Y4649200D02*
X7119200Y4750800D01*
X7220800D01*
X7170000Y4649200D01*
X7060000D02*
X7009200Y4750800D01*
X7110800D01*
X7060000Y4649200D01*
X7340000Y4849200D02*
X7289200Y4950800D01*
X7390800D01*
X7340000Y4849200D01*
X8900000Y1049200D02*
X8849200Y1150800D01*
X8950800D01*
X8900000Y1049200D01*
X8400000D02*
X8349200Y1150800D01*
X8450800D01*
X8400000Y1049200D01*
Y749200D02*
X8349200Y850800D01*
X8450800D01*
X8400000Y749200D01*
X8900000D02*
X8849200Y850800D01*
X8950800D01*
X8900000Y749200D01*
Y1349200D02*
X8849200Y1450800D01*
X8950800D01*
X8900000Y1349200D01*
X8400000D02*
X8349200Y1450800D01*
X8450800D01*
X8400000Y1349200D01*
X7640000Y2809200D02*
X7589200Y2910800D01*
X7690800D01*
X7640000Y2809200D01*
X7830000Y2679200D02*
X7779200Y2780800D01*
X7880800D01*
X7830000Y2679200D01*
X8150000Y2659200D02*
X8099200Y2760800D01*
X8200800D01*
X8150000Y2659200D01*
X8280000D02*
X8229200Y2760800D01*
X8330800D01*
X8280000Y2659200D01*
X8430000D02*
X8379200Y2760800D01*
X8480800D01*
X8430000Y2659200D01*
X8590000D02*
X8539200Y2760800D01*
X8640800D01*
X8590000Y2659200D01*
X8750000Y2649200D02*
X8699200Y2750800D01*
X8800800D01*
X8750000Y2649200D01*
X8890000D02*
X8839200Y2750800D01*
X8940800D01*
X8890000Y2649200D01*
X9050000D02*
X8999200Y2750800D01*
X9100800D01*
X9050000Y2649200D01*
X9200000D02*
X9149200Y2750800D01*
X9250800D01*
X9200000Y2649200D01*
X9630000Y2999200D02*
X9579200Y3100800D01*
X9680800D01*
X9630000Y2999200D01*
Y3289200D02*
X9579200Y3390800D01*
X9680800D01*
X9630000Y3289200D01*
X8990000Y3589200D02*
X8939200Y3690800D01*
X9040800D01*
X8990000Y3589200D01*
X5530000Y4099200D02*
X5479200Y4200800D01*
X5580800D01*
X5530000Y4099200D01*
Y4239200D02*
X5479200Y4340800D01*
X5580800D01*
X5530000Y4239200D01*
Y4379200D02*
X5479200Y4480800D01*
X5580800D01*
X5530000Y4379200D01*
Y4519200D02*
X5479200Y4620800D01*
X5580800D01*
X5530000Y4519200D01*
X5360000Y4009200D02*
X5309200Y4110800D01*
X5410800D01*
X5360000Y4009200D01*
X5530000Y3959200D02*
X5479200Y4060800D01*
X5580800D01*
X5530000Y3959200D01*
X5900000Y3279200D02*
X5849200Y3380800D01*
X5950800D01*
X5900000Y3279200D01*
X5680000D02*
X5629200Y3380800D01*
X5730800D01*
X5680000Y3279200D01*
X5520000D02*
X5469200Y3380800D01*
X5570800D01*
X5520000Y3279200D01*
X5810000Y2869200D02*
X5759200Y2970800D01*
X5860800D01*
X5810000Y2869200D01*
X5570000D02*
X5519200Y2970800D01*
X5620800D01*
X5570000Y2869200D01*
X4590000Y3209200D02*
X4539200Y3310800D01*
X4640800D01*
X4590000Y3209200D01*
X4730000D02*
X4679200Y3310800D01*
X4780800D01*
X4730000Y3209200D01*
X3700000Y3349200D02*
X3649200Y3450800D01*
X3750800D01*
X3700000Y3349200D01*
X3500000D02*
X3449200Y3450800D01*
X3550800D01*
X3500000Y3349200D01*
X3300000D02*
X3249200Y3450800D01*
X3350800D01*
X3300000Y3349200D01*
Y3149200D02*
X3249200Y3250800D01*
X3350800D01*
X3300000Y3149200D01*
X3500000D02*
X3449200Y3250800D01*
X3550800D01*
X3500000Y3149200D01*
X3700000D02*
X3649200Y3250800D01*
X3750800D01*
X3700000Y3149200D01*
X3900000D02*
X3849200Y3250800D01*
X3950800D01*
X3900000Y3149200D01*
Y3349200D02*
X3849200Y3450800D01*
X3950800D01*
X3900000Y3349200D01*
Y3549200D02*
X3849200Y3650800D01*
X3950800D01*
X3900000Y3549200D01*
X3700000D02*
X3649200Y3650800D01*
X3750800D01*
X3700000Y3549200D01*
X3500000D02*
X3449200Y3650800D01*
X3550800D01*
X3500000Y3549200D01*
X3300000D02*
X3249200Y3650800D01*
X3350800D01*
X3300000Y3549200D01*
Y3749200D02*
X3249200Y3850800D01*
X3350800D01*
X3300000Y3749200D01*
X3500000D02*
X3449200Y3850800D01*
X3550800D01*
X3500000Y3749200D01*
X3700000D02*
X3649200Y3850800D01*
X3750800D01*
X3700000Y3749200D01*
X3900000D02*
X3849200Y3850800D01*
X3950800D01*
X3900000Y3749200D01*
Y3949200D02*
X3849200Y4050800D01*
X3950800D01*
X3900000Y3949200D01*
X3700000D02*
X3649200Y4050800D01*
X3750800D01*
X3700000Y3949200D01*
X3500000D02*
X3449200Y4050800D01*
X3550800D01*
X3500000Y3949200D01*
X3300000D02*
X3249200Y4050800D01*
X3350800D01*
X3300000Y3949200D01*
Y4149200D02*
X3249200Y4250800D01*
X3350800D01*
X3300000Y4149200D01*
X3500000D02*
X3449200Y4250800D01*
X3550800D01*
X3500000Y4149200D01*
X3700000D02*
X3649200Y4250800D01*
X3750800D01*
X3700000Y4149200D01*
X3900000D02*
X3849200Y4250800D01*
X3950800D01*
X3900000Y4149200D01*
Y4349200D02*
X3849200Y4450800D01*
X3950800D01*
X3900000Y4349200D01*
X3700000D02*
X3649200Y4450800D01*
X3750800D01*
X3700000Y4349200D01*
X3500000D02*
X3449200Y4450800D01*
X3550800D01*
X3500000Y4349200D01*
X3300000D02*
X3249200Y4450800D01*
X3350800D01*
X3300000Y4349200D01*
X330000Y3749200D02*
X279200Y3850800D01*
X380800D01*
X330000Y3749200D01*
Y3629200D02*
X279200Y3730800D01*
X380800D01*
X330000Y3629200D01*
X1610000Y2069200D02*
X1559200Y2170800D01*
X1660800D01*
X1610000Y2069200D01*
Y2189200D02*
X1559200Y2290800D01*
X1660800D01*
X1610000Y2189200D01*
X1910000Y2419200D02*
X1859200Y2520800D01*
X1960800D01*
X1910000Y2419200D01*
X2000000D02*
X1949200Y2520800D01*
X2050800D01*
X2000000Y2419200D01*
X2100000D02*
X2049200Y2520800D01*
X2150800D01*
X2100000Y2419200D01*
X2200000D02*
X2149200Y2520800D01*
X2250800D01*
X2200000Y2419200D01*
X2300000D02*
X2249200Y2520800D01*
X2350800D01*
X2300000Y2419200D01*
X2390000D02*
X2339200Y2520800D01*
X2440800D01*
X2390000Y2419200D01*
X2480000D02*
X2429200Y2520800D01*
X2530800D01*
X2480000Y2419200D01*
X2580000D02*
X2529200Y2520800D01*
X2630800D01*
X2580000Y2419200D01*
X2480000Y3149200D02*
X2429200Y3250800D01*
X2530800D01*
X2480000Y3149200D01*
X2580000D02*
X2529200Y3250800D01*
X2630800D01*
X2580000Y3149200D01*
X2070000Y3949200D02*
X2019200Y4050800D01*
X2120800D01*
X2070000Y3949200D01*
X2480000Y4159200D02*
X2429200Y4260800D01*
X2530800D01*
X2480000Y4159200D01*
Y4399200D02*
X2429200Y4500800D01*
X2530800D01*
X2480000Y4399200D01*
X2190000Y4479200D02*
X2139200Y4580800D01*
X2240800D01*
X2190000Y4479200D01*
X1880000Y4249200D02*
X1829200Y4350800D01*
X1930800D01*
X1880000Y4249200D01*
X4170000Y6659200D02*
X4119200Y6760800D01*
X4220800D01*
X4170000Y6659200D01*
X4410000Y6969200D02*
X4359200Y7070800D01*
X4460800D01*
X4410000Y6969200D01*
X4290000Y6989200D02*
X4239200Y7090800D01*
X4340800D01*
X4290000Y6989200D01*
X4890000Y5879200D02*
X4839200Y5980800D01*
X4940800D01*
X4890000Y5879200D01*
X5690000Y6159200D02*
X5639200Y6260800D01*
X5740800D01*
X5690000Y6159200D01*
Y6279200D02*
X5639200Y6380800D01*
X5740800D01*
X5690000Y6279200D01*
X5560000Y5939200D02*
X5509200Y6040800D01*
X5610800D01*
X5560000Y5939200D01*
X5120000Y4869200D02*
X5069200Y4970800D01*
X5170800D01*
X5120000Y4869200D01*
X5670000Y4889200D02*
X5619200Y4990800D01*
X5720800D01*
X5670000Y4889200D01*
X6000000Y5479200D02*
X5949200Y5580800D01*
X6050800D01*
X6000000Y5479200D01*
X5890000D02*
X5839200Y5580800D01*
X5940800D01*
X5890000Y5479200D01*
X5970000Y6149200D02*
X5919200Y6250800D01*
X6020800D01*
X5970000Y6149200D01*
X5960000Y6429200D02*
X5909200Y6530800D01*
X6010800D01*
X5960000Y6429200D01*
X6080000D02*
X6029200Y6530800D01*
X6130800D01*
X6080000Y6429200D01*
X6550000Y6479200D02*
X6499200Y6580800D01*
X6600800D01*
X6550000Y6479200D01*
X6460000Y7819200D02*
X6409200Y7920800D01*
X6510800D01*
X6460000Y7819200D01*
X5880000Y7729200D02*
X5829200Y7830800D01*
X5930800D01*
X5880000Y7729200D01*
Y8149200D02*
X5829200Y8250800D01*
X5930800D01*
X5880000Y8149200D01*
X6000000D02*
X5949200Y8250800D01*
X6050800D01*
X6000000Y8149200D01*
X5260000Y7709200D02*
X5209200Y7810800D01*
X5310800D01*
X5260000Y7709200D01*
Y7819200D02*
X5209200Y7920800D01*
X5310800D01*
X5260000Y7819200D01*
X3450000Y6999200D02*
X3399200Y7100800D01*
X3500800D01*
X3450000Y6999200D01*
X3550000Y7299200D02*
X3499200Y7400800D01*
X3600800D01*
X3550000Y7299200D01*
X3450000Y7099200D02*
X3399200Y7200800D01*
X3500800D01*
X3450000Y7099200D01*
Y7199200D02*
X3399200Y7300800D01*
X3500800D01*
X3450000Y7199200D01*
Y7299200D02*
X3399200Y7400800D01*
X3500800D01*
X3450000Y7299200D01*
X3350000D02*
X3299200Y7400800D01*
X3400800D01*
X3350000Y7299200D01*
X3050000Y7849200D02*
X2999200Y7950800D01*
X3100800D01*
X3050000Y7849200D01*
Y7949200D02*
X2999200Y8050800D01*
X3100800D01*
X3050000Y7949200D01*
Y8049200D02*
X2999200Y8150800D01*
X3100800D01*
X3050000Y8049200D01*
Y8159200D02*
X2999200Y8260800D01*
X3100800D01*
X3050000Y8159200D01*
X3070000Y8519200D02*
X3019200Y8620800D01*
X3120800D01*
X3070000Y8519200D01*
X1810000Y7749200D02*
X1759200Y7850800D01*
X1860800D01*
X1810000Y7749200D01*
X1230000Y8149200D02*
X1179200Y8250800D01*
X1280800D01*
X1230000Y8149200D01*
X1110000Y8649200D02*
X1059200Y8750800D01*
X1160800D01*
X1110000Y8649200D01*
X760001Y7989200D02*
X709201Y8090800D01*
X810801D01*
X760001Y7989200D01*
X830000Y8359200D02*
X779200Y8460800D01*
X880800D01*
X830000Y8359200D01*
X2270000Y7789200D02*
X2219200Y7890800D01*
X2320800D01*
X2270000Y7789200D01*
X2270000Y7881701D02*
X2219200Y7983301D01*
X2320800D01*
X2270000Y7881701D01*
X6880000Y6989200D02*
X6829200Y7090800D01*
X6930800D01*
X6880000Y6989200D01*
Y7099200D02*
X6829200Y7200800D01*
X6930800D01*
X6880000Y7099200D01*
X8770000Y6309200D02*
X8719200Y6410800D01*
X8820800D01*
X8770000Y6309200D01*
Y6429200D02*
X8719200Y6530800D01*
X8820800D01*
X8770000Y6429200D01*
X7287500Y2989200D02*
X7236700Y3090800D01*
X7338300D01*
X7287500Y2989200D01*
X7380000Y2989200D02*
X7329200Y3090800D01*
X7430800D01*
X7380000Y2989200D01*
X7540000Y3259200D02*
X7489200Y3360800D01*
X7590800D01*
X7540000Y3259200D01*
X7670000Y3649200D02*
X7619200Y3750800D01*
X7720800D01*
X7670000Y3649200D01*
X7980000Y4059200D02*
X7929200Y4160800D01*
X8030800D01*
X7980000Y4059200D01*
X6540000Y4159200D02*
X6489200Y4260800D01*
X6590800D01*
X6540000Y4159200D01*
Y4039200D02*
X6489200Y4140800D01*
X6590800D01*
X6540000Y4039200D01*
Y3929200D02*
X6489200Y4030800D01*
X6590800D01*
X6540000Y3929200D01*
Y3809200D02*
X6489200Y3910800D01*
X6590800D01*
X6540000Y3809200D01*
X6320000Y8369200D02*
X6269200Y8470800D01*
X6370800D01*
X6320000Y8369200D01*
X6480000D02*
X6429200Y8470800D01*
X6530800D01*
X6480000Y8369200D01*
X6320000Y8489200D02*
X6269200Y8590800D01*
X6370800D01*
X6320000Y8489200D01*
X6480000D02*
X6429200Y8590800D01*
X6530800D01*
X6480000Y8489200D01*
Y8609200D02*
X6429200Y8710800D01*
X6530800D01*
X6480000Y8609200D01*
X6320000D02*
X6269200Y8710800D01*
X6370800D01*
X6320000Y8609200D01*
Y8729200D02*
X6269200Y8830800D01*
X6370800D01*
X6320000Y8729200D01*
X6480000D02*
X6429200Y8830800D01*
X6530800D01*
X6480000Y8729200D01*
Y8849200D02*
X6429200Y8950800D01*
X6530800D01*
X6480000Y8849200D01*
X6320000D02*
X6269200Y8950800D01*
X6370800D01*
X6320000Y8849200D01*
X3810000Y2259200D02*
X3759200Y2360800D01*
X3860800D01*
X3810000Y2259200D01*
Y2179200D02*
X3759200Y2280800D01*
X3860800D01*
X3810000Y2179200D01*
Y2099200D02*
X3759200Y2200800D01*
X3860800D01*
X3810000Y2099200D01*
Y2019200D02*
X3759200Y2120800D01*
X3860800D01*
X3810000Y2019200D01*
Y1939200D02*
X3759200Y2040800D01*
X3860800D01*
X3810000Y1939200D01*
Y1859200D02*
X3759200Y1960800D01*
X3860800D01*
X3810000Y1859200D01*
X4030000Y2259200D02*
X3979200Y2360800D01*
X4080800D01*
X4030000Y2259200D01*
Y2179200D02*
X3979200Y2280800D01*
X4080800D01*
X4030000Y2179200D01*
Y2099200D02*
X3979200Y2200800D01*
X4080800D01*
X4030000Y2099200D01*
Y2019200D02*
X3979200Y2120800D01*
X4080800D01*
X4030000Y2019200D01*
Y1939200D02*
X3979200Y2040800D01*
X4080800D01*
X4030000Y1939200D01*
Y1859200D02*
X3979200Y1960800D01*
X4080800D01*
X4030000Y1859200D01*
X4060000Y1769200D02*
X4009200Y1870800D01*
X4110800D01*
X4060000Y1769200D01*
X3460000Y1789200D02*
X3409200Y1890800D01*
X3510800D01*
X3460000Y1789200D01*
X3540000D02*
X3489200Y1890800D01*
X3590800D01*
X3540000Y1789200D01*
X3620000D02*
X3569200Y1890800D01*
X3670800D01*
X3620000Y1789200D01*
X3700000D02*
X3649200Y1890800D01*
X3750800D01*
X3700000Y1789200D01*
X3780000D02*
X3729200Y1890800D01*
X3830800D01*
X3780000Y1789200D01*
X3980000Y1549200D02*
X3929200Y1650800D01*
X4030800D01*
X3980000Y1549200D01*
X4060000D02*
X4009200Y1650800D01*
X4110800D01*
X4060000Y1549200D01*
Y1669200D02*
X4009200Y1770800D01*
X4110800D01*
X4060000Y1669200D01*
X3490000Y1479200D02*
X3439200Y1580800D01*
X3540800D01*
X3490000Y1479200D01*
X3820000Y1549200D02*
X3769200Y1650800D01*
X3870800D01*
X3820000Y1549200D01*
X3900000D02*
X3849200Y1650800D01*
X3950800D01*
X3900000Y1549200D01*
X2220000Y189200D02*
X2169200Y290800D01*
X2270800D01*
X2220000Y189200D01*
Y109200D02*
X2169200Y210800D01*
X2270800D01*
X2220000Y109200D01*
X2180000Y29200D02*
X2129200Y130800D01*
X2230800D01*
X2180000Y29200D01*
X2220000Y749200D02*
X2169200Y850800D01*
X2270800D01*
X2220000Y749200D01*
Y669200D02*
X2169200Y770800D01*
X2270800D01*
X2220000Y669200D01*
Y589200D02*
X2169200Y690800D01*
X2270800D01*
X2220000Y589200D01*
Y509200D02*
X2169200Y610800D01*
X2270800D01*
X2220000Y509200D01*
Y429200D02*
X2169200Y530800D01*
X2270800D01*
X2220000Y429200D01*
Y349200D02*
X2169200Y450800D01*
X2270800D01*
X2220000Y349200D01*
Y269200D02*
X2169200Y370800D01*
X2270800D01*
X2220000Y269200D01*
X2460000Y829200D02*
X2409200Y930800D01*
X2510800D01*
X2460000Y829200D01*
X2380000D02*
X2329200Y930800D01*
X2430800D01*
X2380000Y829200D01*
X2300000D02*
X2249200Y930800D01*
X2350800D01*
X2300000Y829200D01*
X2220000D02*
X2169200Y930800D01*
X2270800D01*
X2220000Y829200D01*
X3020000D02*
X2969200Y930800D01*
X3070800D01*
X3020000Y829200D01*
X2940000D02*
X2889200Y930800D01*
X2990800D01*
X2940000Y829200D01*
X2860000D02*
X2809200Y930800D01*
X2910800D01*
X2860000Y829200D01*
X2780000D02*
X2729200Y930800D01*
X2830800D01*
X2780000Y829200D01*
X2700000D02*
X2649200Y930800D01*
X2750800D01*
X2700000Y829200D01*
X2620000D02*
X2569200Y930800D01*
X2670800D01*
X2620000Y829200D01*
X2540000D02*
X2489200Y930800D01*
X2590800D01*
X2540000Y829200D01*
X5900000Y339200D02*
X5849200Y440800D01*
X5950800D01*
X5900000Y339200D01*
Y419200D02*
X5849200Y520800D01*
X5950800D01*
X5900000Y419200D01*
Y499200D02*
X5849200Y600800D01*
X5950800D01*
X5900000Y499200D01*
Y579200D02*
X5849200Y680800D01*
X5950800D01*
X5900000Y579200D01*
Y659200D02*
X5849200Y760800D01*
X5950800D01*
X5900000Y659200D01*
Y739200D02*
X5849200Y840800D01*
X5950800D01*
X5900000Y739200D01*
Y819200D02*
X5849200Y920800D01*
X5950800D01*
X5900000Y819200D01*
Y99200D02*
X5849200Y200800D01*
X5950800D01*
X5900000Y99200D01*
Y179200D02*
X5849200Y280800D01*
X5950800D01*
X5900000Y179200D01*
Y259200D02*
X5849200Y360800D01*
X5950800D01*
X5900000Y259200D01*
X5740000Y819200D02*
X5689200Y920800D01*
X5790800D01*
X5740000Y819200D01*
X5820000D02*
X5769200Y920800D01*
X5870800D01*
X5820000Y819200D01*
X5100000D02*
X5049200Y920800D01*
X5150800D01*
X5100000Y819200D01*
X5020000D02*
X4969200Y920800D01*
X5070800D01*
X5020000Y819200D01*
X4940000D02*
X4889200Y920800D01*
X4990800D01*
X4940000Y819200D01*
X4860000D02*
X4809200Y920800D01*
X4910800D01*
X4860000Y819200D01*
X4780000D02*
X4729200Y920800D01*
X4830800D01*
X4780000Y819200D01*
X4700000D02*
X4649200Y920800D01*
X4750800D01*
X4700000Y819200D01*
X4620000D02*
X4569200Y920800D01*
X4670800D01*
X4620000Y819200D01*
X5660000D02*
X5609200Y920800D01*
X5710800D01*
X5660000Y819200D01*
X5580000D02*
X5529200Y920800D01*
X5630800D01*
X5580000Y819200D01*
X5500000D02*
X5449200Y920800D01*
X5550800D01*
X5500000Y819200D01*
X5420000D02*
X5369200Y920800D01*
X5470800D01*
X5420000Y819200D01*
X5340000D02*
X5289200Y920800D01*
X5390800D01*
X5340000Y819200D01*
X5260000D02*
X5209200Y920800D01*
X5310800D01*
X5260000Y819200D01*
X5180000D02*
X5129200Y920800D01*
X5230800D01*
X5180000Y819200D01*
X4060000D02*
X4009200Y920800D01*
X4110800D01*
X4060000Y819200D01*
X4140000D02*
X4089200Y920800D01*
X4190800D01*
X4140000Y819200D01*
X4220000D02*
X4169200Y920800D01*
X4270800D01*
X4220000Y819200D01*
X4300000D02*
X4249200Y920800D01*
X4350800D01*
X4300000Y819200D01*
X4380000D02*
X4329200Y920800D01*
X4430800D01*
X4380000Y819200D01*
X4460000D02*
X4409200Y920800D01*
X4510800D01*
X4460000Y819200D01*
X4540000D02*
X4489200Y920800D01*
X4590800D01*
X4540000Y819200D01*
X3580000D02*
X3529200Y920800D01*
X3630800D01*
X3580000Y819200D01*
X3660000D02*
X3609200Y920800D01*
X3710800D01*
X3660000Y819200D01*
X3740000D02*
X3689200Y920800D01*
X3790800D01*
X3740000Y819200D01*
X3820000D02*
X3769200Y920800D01*
X3870800D01*
X3820000Y819200D01*
X3900000D02*
X3849200Y920800D01*
X3950800D01*
X3900000Y819200D01*
X3980000D02*
X3929200Y920800D01*
X4030800D01*
X3980000Y819200D01*
X3490000Y979200D02*
X3439200Y1080800D01*
X3540800D01*
X3490000Y979200D01*
Y899200D02*
X3439200Y1000800D01*
X3540800D01*
X3490000Y899200D01*
Y819200D02*
X3439200Y920800D01*
X3540800D01*
X3490000Y819200D01*
X3400000Y1059200D02*
X3349200Y1160800D01*
X3450800D01*
X3400000Y1059200D01*
Y1139200D02*
X3349200Y1240800D01*
X3450800D01*
X3400000Y1139200D01*
Y1219200D02*
X3349200Y1320800D01*
X3450800D01*
X3400000Y1219200D01*
Y1299200D02*
X3349200Y1400800D01*
X3450800D01*
X3400000Y1299200D01*
Y1379200D02*
X3349200Y1480800D01*
X3450800D01*
X3400000Y1379200D01*
Y1459200D02*
X3349200Y1560800D01*
X3450800D01*
X3400000Y1459200D01*
Y1539200D02*
X3349200Y1640800D01*
X3450800D01*
X3400000Y1539200D01*
X3380000Y2149200D02*
X3329200Y2250800D01*
X3430800D01*
X3380000Y2149200D01*
X3380000Y1949200D02*
X3329200Y2050800D01*
X3430800D01*
X3380000Y1949200D01*
Y1869200D02*
X3329200Y1970800D01*
X3430800D01*
X3380000Y1869200D01*
Y1789200D02*
X3329200Y1890800D01*
X3430800D01*
X3380000Y1789200D01*
X3130000Y2069200D02*
X3079200Y2170800D01*
X3180800D01*
X3130000Y2069200D01*
Y1989200D02*
X3079200Y2090800D01*
X3180800D01*
X3130000Y1989200D01*
Y1909200D02*
X3079200Y2010800D01*
X3180800D01*
X3130000Y1909200D01*
Y1829200D02*
X3079200Y1930800D01*
X3180800D01*
X3130000Y1829200D01*
Y1749200D02*
X3079200Y1850800D01*
X3180800D01*
X3130000Y1749200D01*
Y1669200D02*
X3079200Y1770800D01*
X3180800D01*
X3130000Y1669200D01*
Y1589200D02*
X3079200Y1690800D01*
X3180800D01*
X3130000Y1589200D01*
X3030000Y1579200D02*
X2979200Y1680800D01*
X3080800D01*
X3030000Y1579200D01*
X2950000D02*
X2899200Y1680800D01*
X3000800D01*
X2950000Y1579200D01*
X2870000D02*
X2819200Y1680800D01*
X2920800D01*
X2870000Y1579200D01*
X2790000D02*
X2739200Y1680800D01*
X2840800D01*
X2790000Y1579200D01*
X2620000Y1609200D02*
X2569200Y1710800D01*
X2670800D01*
X2620000Y1609200D01*
X2420000Y1769200D02*
X2369200Y1870800D01*
X2470800D01*
X2420000Y1769200D01*
X2500000D02*
X2449200Y1870800D01*
X2550800D01*
X2500000Y1769200D01*
X2580000D02*
X2529200Y1870800D01*
X2630800D01*
X2580000Y1769200D01*
X2620000Y1689200D02*
X2569200Y1790800D01*
X2670800D01*
X2620000Y1689200D01*
X2100000Y1769200D02*
X2049200Y1870800D01*
X2150800D01*
X2100000Y1769200D01*
X2180000D02*
X2129200Y1870800D01*
X2230800D01*
X2180000Y1769200D01*
X2260000D02*
X2209200Y1870800D01*
X2310800D01*
X2260000Y1769200D01*
X2090000Y1679200D02*
X2039200Y1780800D01*
X2140800D01*
X2090000Y1679200D01*
Y1599200D02*
X2039200Y1700800D01*
X2140800D01*
X2090000Y1599200D01*
Y1519200D02*
X2039200Y1620800D01*
X2140800D01*
X2090000Y1519200D01*
Y1439200D02*
X2039200Y1540800D01*
X2140800D01*
X2090000Y1439200D01*
Y1359200D02*
X2039200Y1460800D01*
X2140800D01*
X2090000Y1359200D01*
Y1279200D02*
X2039200Y1380800D01*
X2140800D01*
X2090000Y1279200D01*
X2150000Y1199200D02*
X2099200Y1300800D01*
X2200800D01*
X2150000Y1199200D01*
X2230000D02*
X2179200Y1300800D01*
X2280800D01*
X2230000Y1199200D01*
X2310000D02*
X2259200Y1300800D01*
X2360800D01*
X2310000Y1199200D01*
X2390000D02*
X2339200Y1300800D01*
X2440800D01*
X2390000Y1199200D01*
X2470000D02*
X2419200Y1300800D01*
X2520800D01*
X2470000Y1199200D01*
X2550000D02*
X2499200Y1300800D01*
X2600800D01*
X2550000Y1199200D01*
X2630000Y1229200D02*
X2579200Y1330800D01*
X2680800D01*
X2630000Y1229200D01*
Y1309200D02*
X2579200Y1410800D01*
X2680800D01*
X2630000Y1309200D01*
Y1389200D02*
X2579200Y1490800D01*
X2680800D01*
X2630000Y1389200D01*
X2710000D02*
X2659200Y1490800D01*
X2760800D01*
X2710000Y1389200D01*
X2790000D02*
X2739200Y1490800D01*
X2840800D01*
X2790000Y1389200D01*
X2870000D02*
X2819200Y1490800D01*
X2920800D01*
X2870000Y1389200D01*
X2950000D02*
X2899200Y1490800D01*
X3000800D01*
X2950000Y1389200D01*
X3030000D02*
X2979200Y1490800D01*
X3080800D01*
X3030000Y1389200D01*
X3110000D02*
X3059200Y1490800D01*
X3160800D01*
X3110000Y1389200D01*
Y1309200D02*
X3059200Y1410800D01*
X3160800D01*
X3110000Y1309200D01*
Y1229200D02*
X3059200Y1330800D01*
X3160800D01*
X3110000Y1229200D01*
Y1149200D02*
X3059200Y1250800D01*
X3160800D01*
X3110000Y1149200D01*
Y1069200D02*
X3059200Y1170800D01*
X3160800D01*
X3110000Y1069200D01*
Y989200D02*
X3059200Y1090800D01*
X3160800D01*
X3110000Y989200D01*
Y909200D02*
X3059200Y1010800D01*
X3160800D01*
X3110000Y909200D01*
Y829200D02*
X3059200Y930800D01*
X3160800D01*
X3110000Y829200D01*
X1710000Y1969200D02*
X1659200Y2070800D01*
X1760800D01*
X1710000Y1969200D01*
X6550000Y4829200D02*
X6499200Y4930800D01*
X6600800D01*
X6550000Y4829200D01*
X6150000Y4799200D02*
X6099200Y4900800D01*
X6200800D01*
X6150000Y4799200D01*
X9610000Y7339200D02*
X9559200Y7440800D01*
X9660800D01*
X9610000Y7339200D01*
X6880000Y6781700D02*
X6829200Y6883300D01*
X6930800D01*
X6880000Y6781700D01*
X4980000Y7379200D02*
X4929200Y7480800D01*
X5030800D01*
X4980000Y7379200D01*
X4700000Y4459200D02*
X4649200Y4560800D01*
X4750800D01*
X4700000Y4459200D01*
X2050000Y3239200D02*
X1999200Y3340800D01*
X2100800D01*
X2050000Y3239200D01*
X7520000Y6809200D02*
X7469200Y6910800D01*
X7570800D01*
X7520000Y6809200D01*
X8060000Y5519200D02*
X8009200Y5620800D01*
X8110800D01*
X8060000Y5519200D01*
X6270000Y3809200D02*
X6219200Y3910800D01*
X6320800D01*
X6270000Y3809200D01*
X8280000Y5609200D02*
X8229200Y5710800D01*
X8330800D01*
X8280000Y5609200D01*
X8170000Y5559200D02*
X8119200Y5660800D01*
X8220800D01*
X8170000Y5559200D01*
X6270000Y4909200D02*
X6219200Y5010800D01*
X6320800D01*
X6270000Y4909200D01*
X6350000Y4709200D02*
X6299200Y4810800D01*
X6400800D01*
X6350000Y4709200D01*
X9230000Y5979200D02*
X9179200Y6080800D01*
X9280800D01*
X9230000Y5979200D01*
X9400000Y6159700D02*
X9349200Y6261300D01*
X9450800D01*
X9400000Y6159700D01*
X4570000Y5459200D02*
X4519200Y5560800D01*
X4620800D01*
X4570000Y5459200D01*
X4980000Y7109200D02*
X4929200Y7210800D01*
X5030800D01*
X4980000Y7109200D01*
Y7199200D02*
X4929200Y7300800D01*
X5030800D01*
X4980000Y7199200D01*
Y7289200D02*
X4929200Y7390800D01*
X5030800D01*
X4980000Y7289200D01*
X7510000Y4959200D02*
X7459200Y5060800D01*
X7560800D01*
X7510000Y4959200D01*
X6230000Y4629200D02*
X6179200Y4730800D01*
X6280800D01*
X6230000Y4629200D01*
X6050000Y4799200D02*
X5999200Y4900800D01*
X6100800D01*
X6050000Y4799200D01*
X5780000Y5249200D02*
X5729200Y5350800D01*
X5830800D01*
X5780000Y5249200D01*
X5880000D02*
X5829200Y5350800D01*
X5930800D01*
X5880000Y5249200D01*
X6340000Y6159200D02*
X6289200Y6260800D01*
X6390800D01*
X6340000Y6159200D01*
Y6279200D02*
X6289200Y6380800D01*
X6390800D01*
X6340000Y6279200D01*
Y6389200D02*
X6289200Y6490800D01*
X6390800D01*
X6340000Y6389200D01*
X7530000Y6149200D02*
X7479200Y6250800D01*
X7580800D01*
X7530000Y6149200D01*
X6460000Y7229200D02*
X6409200Y7330800D01*
X6510800D01*
X6460000Y7229200D01*
X6550000D02*
X6499200Y7330800D01*
X6600800D01*
X6550000Y7229200D01*
X6640000D02*
X6589200Y7330800D01*
X6690800D01*
X6640000Y7229200D01*
X4500000Y5649200D02*
X4449200Y5750800D01*
X4550800D01*
X4500000Y5649200D01*
X580000Y2679200D02*
X529200Y2780800D01*
X630800D01*
X580000Y2679200D01*
Y2799200D02*
X529200Y2900800D01*
X630800D01*
X580000Y2799200D01*
X700000D02*
X649200Y2900800D01*
X750800D01*
X700000Y2799200D01*
Y2679200D02*
X649200Y2780800D01*
X750800D01*
X700000Y2679200D01*
X820000D02*
X769200Y2780800D01*
X870800D01*
X820000Y2679200D01*
Y2799200D02*
X769200Y2900800D01*
X870800D01*
X820000Y2799200D01*
Y2929200D02*
X769200Y3030800D01*
X870800D01*
X820000Y2929200D01*
X700000D02*
X649200Y3030800D01*
X750800D01*
X700000Y2929200D01*
X580000D02*
X529200Y3030800D01*
X630800D01*
X580000Y2929200D01*
X2970000Y6099200D02*
X2919200Y6200800D01*
X3020800D01*
X2970000Y6099200D01*
X2720000Y7899200D02*
X2669200Y8000800D01*
X2770800D01*
X2720000Y7899200D01*
X1970000Y3869200D02*
X1919200Y3970800D01*
X2020800D01*
X1970000Y3869200D01*
X7170000Y3479200D02*
X7119200Y3580800D01*
X7220800D01*
X7170000Y3479200D01*
X7290000D02*
X7239200Y3580800D01*
X7340800D01*
X7290000Y3479200D01*
X6830000Y4269200D02*
X6779200Y4370800D01*
X6880800D01*
X6830000Y4269200D01*
Y4159200D02*
X6779200Y4260800D01*
X6880800D01*
X6830000Y4159200D01*
X7300000Y7209200D02*
X7249200Y7310800D01*
X7350800D01*
X7300000Y7209200D01*
X7420000Y7289200D02*
X7369200Y7390800D01*
X7470800D01*
X7420000Y7289200D01*
X7300000D02*
X7249200Y7390800D01*
X7350800D01*
X7300000Y7289200D01*
Y7369200D02*
X7249200Y7470800D01*
X7350800D01*
X7300000Y7369200D01*
X7420000Y7209200D02*
X7369200Y7310800D01*
X7470800D01*
X7420000Y7209200D01*
Y7369200D02*
X7369200Y7470800D01*
X7470800D01*
X7420000Y7369200D01*
X7300000Y7129200D02*
X7249200Y7230800D01*
X7350800D01*
X7300000Y7129200D01*
X7420000D02*
X7369200Y7230800D01*
X7470800D01*
X7420000Y7129200D01*
X8270000Y6809200D02*
X8219200Y6910800D01*
X8320800D01*
X8270000Y6809200D01*
X9170000Y6409200D02*
X9119200Y6510800D01*
X9220800D01*
X9170000Y6409200D01*
X6550000Y7489200D02*
X6499200Y7590800D01*
X6600800D01*
X6550000Y7489200D01*
X6450000D02*
X6399200Y7590800D01*
X6500800D01*
X6450000Y7489200D01*
Y7389200D02*
X6399200Y7490800D01*
X6500800D01*
X6450000Y7389200D01*
X6550000D02*
X6499200Y7490800D01*
X6600800D01*
X6550000Y7389200D01*
X6650000D02*
X6599200Y7490800D01*
X6700800D01*
X6650000Y7389200D01*
X6750000D02*
X6699200Y7490800D01*
X6800800D01*
X6750000Y7389200D01*
X7120566Y7127928D02*
X7069766Y7229528D01*
X7171366D01*
X7120566Y7127928D01*
X7120000Y7209200D02*
X7069200Y7310800D01*
X7170800D01*
X7120000Y7209200D01*
X7210000Y7209200D02*
X7159200Y7310800D01*
X7260800D01*
X7210000Y7209200D01*
Y7129200D02*
X7159200Y7230800D01*
X7260800D01*
X7210000Y7129200D01*
X4490000Y7439200D02*
X4439200Y7540800D01*
X4540800D01*
X4490000Y7439200D01*
X4500000Y6789200D02*
X4449200Y6890800D01*
X4550800D01*
X4500000Y6789200D01*
X3110000Y7069200D02*
X3059200Y7170800D01*
X3160800D01*
X3110000Y7069200D01*
Y7439200D02*
X3059200Y7540800D01*
X3160800D01*
X3110000Y7439200D01*
X4180000Y7029200D02*
X4129200Y7130800D01*
X4230800D01*
X4180000Y7029200D01*
X4160000Y7129200D02*
X4109200Y7230800D01*
X4210800D01*
X4160000Y7129200D01*
X4210000Y7559200D02*
X4159200Y7660800D01*
X4260800D01*
X4210000Y7559200D01*
X3850000Y6599200D02*
X3799200Y6700800D01*
X3900800D01*
X3850000Y6599200D01*
X1590000Y7559200D02*
X1539200Y7660800D01*
X1640800D01*
X1590000Y7559200D01*
X1990000Y3379200D02*
X1939200Y3480800D01*
X2040800D01*
X1990000Y3379200D01*
X6050000Y3429200D02*
X5999200Y3530800D01*
X6100800D01*
X6050000Y3429200D01*
X5970000Y3119200D02*
X5919200Y3220800D01*
X6020800D01*
X5970000Y3119200D01*
X6420000D02*
X6369200Y3220800D01*
X6470800D01*
X6420000Y3119200D01*
X5860000Y4909200D02*
X5809200Y5010800D01*
X5910800D01*
X5860000Y4909200D01*
X500000Y7929200D02*
X449200Y8030800D01*
X550800D01*
X500000Y7929200D01*
Y8459200D02*
X449200Y8560800D01*
X550800D01*
X500000Y8459200D01*
Y8839200D02*
X449200Y8940800D01*
X550800D01*
X500000Y8839200D01*
X1490000Y7369200D02*
X1439200Y7470800D01*
X1540800D01*
X1490000Y7369200D01*
X1780000Y7409200D02*
X1729200Y7510800D01*
X1830800D01*
X1780000Y7409200D01*
X9100000Y3549200D02*
X9049200Y3650800D01*
X9150800D01*
X9100000Y3549200D01*
X9000000Y5399200D02*
X8949200Y5500800D01*
X9050800D01*
X9000000Y5399200D01*
X8980000Y5269200D02*
X8929200Y5370800D01*
X9030800D01*
X8980000Y5269200D01*
X8910000Y4959200D02*
X8859200Y5060800D01*
X8960800D01*
X8910000Y4959200D01*
X9220000Y3469200D02*
X9169200Y3570800D01*
X9270800D01*
X9220000Y3469200D01*
X8940000Y5149200D02*
X8889200Y5250800D01*
X8990800D01*
X8940000Y5149200D01*
X9630000Y3439200D02*
X9579200Y3540800D01*
X9680800D01*
X9630000Y3439200D01*
Y3579200D02*
X9579200Y3680800D01*
X9680800D01*
X9630000Y3579200D01*
X8990000Y3479200D02*
X8939200Y3580800D01*
X9040800D01*
X8990000Y3479200D01*
X8240000Y3519200D02*
X8189200Y3620800D01*
X8290800D01*
X8240000Y3519200D01*
X8750001Y3109201D02*
X8699201Y3210801D01*
X8800801D01*
X8750001Y3109201D01*
X9090000Y3039200D02*
X9039200Y3140800D01*
X9140800D01*
X9090000Y3039200D01*
X7540000Y3869200D02*
X7489200Y3970800D01*
X7590800D01*
X7540000Y3869200D01*
X8590000Y6819200D02*
X8539200Y6920800D01*
X8640800D01*
X8590000Y6819200D01*
X8780000D02*
X8729200Y6920800D01*
X8830800D01*
X8780000Y6819200D01*
X9640000Y3689200D02*
X9589200Y3790800D01*
X9690800D01*
X9640000Y3689200D01*
X9060000Y5489200D02*
X9009200Y5590800D01*
X9110800D01*
X9060000Y5489200D01*
D145*
X9800800Y7730000D02*
G03*
X9800800Y7730000I-50800J0D01*
G01*
X9980800D02*
G03*
X9980800Y7730000I-50800J0D01*
G01*
%TF.MD5,cdc89a0c8a7cf589ed6458f4da96503b*%
M02*
