%TF.GenerationSoftware,Altium Limited,Altium Designer,20.2.6 (244)*%
G04 Layer_Color=16711935*
%FSLAX45Y45*%
%MOMM*%
%TF.SameCoordinates,65E78103-6D03-462D-AAE3-041F84C347C7*%
%TF.FilePolarity,Positive*%
%TF.FileFunction,Other,Mechanical_13*%
%TF.Part,Single*%
G01*
G75*
%TA.AperFunction,NonConductor*%
%ADD90C,0.20000*%
%ADD92C,0.10000*%
%ADD93C,0.30000*%
%ADD95C,0.12700*%
%ADD136C,0.01000*%
%ADD137C,0.00000*%
D90*
X7555000Y4456250D02*
G03*
X7555000Y4456250I-10000J0D01*
G01*
D92*
X6095000Y4435000D02*
G03*
X6095000Y4435000I-50000J0D01*
G01*
X1290001Y2965000D02*
G03*
X1290001Y2965000I-50000J0D01*
G01*
X815000Y8475000D02*
G03*
X815000Y8475000I-50000J0D01*
G01*
X2157500Y1320000D02*
Y1760000D01*
X2557500D01*
Y1320000D02*
Y1760000D01*
X2157500Y1320000D02*
X2557500D01*
X5275000Y8005000D02*
Y8315000D01*
X5445000Y8005000D02*
Y8315000D01*
X5275000D02*
X5445000D01*
X5275000Y8005000D02*
X5445000D01*
X4880000Y7227499D02*
Y7372500D01*
X4660000Y7227499D02*
Y7372500D01*
Y7227499D02*
X4880000D01*
X4660000Y7372500D02*
X4880000D01*
X3090000Y8297500D02*
Y8442501D01*
X3310000Y8297500D02*
Y8442501D01*
X3090000D02*
X3310000D01*
X3090000Y8297500D02*
X3310000D01*
X5625000Y4075000D02*
Y4525000D01*
X6135000Y4075000D02*
Y4525000D01*
X5625000Y4075000D02*
X6135000D01*
X5625000Y4525000D02*
X6135000D01*
X9680000Y8000000D02*
X10000000D01*
X9680000Y7460000D02*
Y8000000D01*
Y7460000D02*
X10000000D01*
Y8000000D01*
X7902550Y1865051D02*
X9454068D01*
X7902550Y316000D02*
Y1865051D01*
Y316000D02*
X9454068D01*
Y1865051D01*
X1150001Y2545000D02*
Y3055000D01*
X1550001Y2545000D02*
Y3055000D01*
X1150001D02*
X1550001D01*
X1150001Y2545000D02*
X1550001D01*
X2262500Y2592500D02*
X2357500D01*
X2262500Y2767500D02*
X2357500D01*
X2262500Y2592500D02*
Y2767500D01*
X2357500Y2592500D02*
Y2767500D01*
X3517500Y1712500D02*
X3582500D01*
X3517500Y1627500D02*
X3582500D01*
Y1712500D01*
X3517500Y1627500D02*
Y1712500D01*
X2262501Y3097500D02*
X2357501D01*
X2262501Y2922500D02*
X2357501D01*
Y3097500D01*
X2262501Y2922500D02*
Y3097500D01*
X3242500Y1672500D02*
Y1767500D01*
X3417500Y1672500D02*
Y1767500D01*
X3242500D02*
X3417500D01*
X3242500Y1672500D02*
X3417500D01*
X3872500Y1702500D02*
X3967500D01*
X3872500Y1877500D02*
X3967500D01*
X3872500Y1702500D02*
Y1877500D01*
X3967500Y1702500D02*
Y1877500D01*
X1937500Y2570000D02*
X2082500D01*
X1937500Y2790000D02*
X2082500D01*
X1937500Y2570000D02*
Y2790000D01*
X2082500Y2570000D02*
Y2790000D01*
X2157501Y3637500D02*
Y3722500D01*
X2222501Y3637500D02*
Y3722500D01*
X2157501Y3637500D02*
X2222501D01*
X2157501Y3722500D02*
X2222501D01*
Y3887501D02*
Y3972501D01*
X2157501Y3887501D02*
Y3972501D01*
X2222501D01*
X2157501Y3887501D02*
X2222501D01*
Y4107501D02*
Y4192500D01*
X2157501Y4107501D02*
Y4192500D01*
X2222501D01*
X2157501Y4107501D02*
X2222501D01*
Y4327501D02*
Y4412500D01*
X2157501Y4327501D02*
Y4412500D01*
X2222501D01*
X2157501Y4327501D02*
X2222501D01*
X6742501Y3417500D02*
X6837501D01*
X6742501Y3242500D02*
X6837501D01*
Y3417500D01*
X6742501Y3242500D02*
Y3417500D01*
X6562501D02*
X6657501D01*
X6562501Y3242500D02*
X6657501D01*
Y3417500D01*
X6562501Y3242500D02*
Y3417500D01*
X5277500Y4462500D02*
Y4557500D01*
X5102500Y4462500D02*
Y4557500D01*
Y4462500D02*
X5277500D01*
X5102500Y4557500D02*
X5277500D01*
X6162474Y6312499D02*
Y6487500D01*
X6257474Y6312499D02*
Y6487500D01*
X6162474Y6312499D02*
X6257474D01*
X6162474Y6487500D02*
X6257474D01*
X675000Y8255000D02*
Y8565000D01*
X985000Y8255000D02*
Y8565000D01*
X675000D02*
X985000D01*
X675000Y8255000D02*
X985000D01*
X3038001Y7607500D02*
Y7752500D01*
X3258000Y7607500D02*
Y7752500D01*
X3038001D02*
X3258000D01*
X3038001Y7607500D02*
X3258000D01*
X2532500Y7792500D02*
X2627500D01*
X2532500Y7967500D02*
X2627500D01*
X2532500Y7792500D02*
Y7967500D01*
X2627500Y7792500D02*
Y7967500D01*
X1882500Y7782500D02*
X1977500D01*
X1882500Y7957500D02*
X1977500D01*
X1882500Y7782500D02*
Y7957500D01*
X1977500Y7782500D02*
Y7957500D01*
X4375500Y7114999D02*
X4520500D01*
X4375500Y7334999D02*
X4520500D01*
X4375500Y7114999D02*
Y7334999D01*
X4520500Y7114999D02*
Y7334999D01*
X817500Y7302500D02*
Y7397500D01*
X642500Y7302500D02*
Y7397500D01*
Y7302500D02*
X817500D01*
X642500Y7397500D02*
X817500D01*
X1902500Y6832500D02*
X1997500D01*
X1902500Y7007500D02*
X1997500D01*
X1902500Y6832500D02*
Y7007500D01*
X1997500Y6832500D02*
Y7007500D01*
X2502500Y7127500D02*
X2597500D01*
X2502500Y6952500D02*
X2597500D01*
Y7127500D01*
X2502500Y6952500D02*
Y7127500D01*
X4967500Y7772500D02*
Y7947500D01*
X4872500Y7772500D02*
Y7947500D01*
X4967500D01*
X4872500Y7772500D02*
X4967500D01*
X5652500Y7502500D02*
Y7597500D01*
X5827500Y7502500D02*
Y7597500D01*
X5652500D02*
X5827500D01*
X5652500Y7502500D02*
X5827500D01*
X5827500Y8012500D02*
Y8107500D01*
X5652500Y8012500D02*
Y8107500D01*
Y8012500D02*
X5827500D01*
X5652500Y8107500D02*
X5827500D01*
X5932500Y8012500D02*
Y8107500D01*
X6107500Y8012500D02*
Y8107500D01*
X5932500D02*
X6107500D01*
X5932500Y8012500D02*
X6107500D01*
X6252500Y7692500D02*
Y7787500D01*
X6427500Y7692500D02*
Y7787500D01*
X6252500D02*
X6427500D01*
X6252500Y7692500D02*
X6427500D01*
X6792500Y7242500D02*
Y7337500D01*
X6967500Y7242500D02*
Y7337500D01*
X6792500D02*
X6967500D01*
X6792500Y7242500D02*
X6967500D01*
X6922500Y7382500D02*
Y7477500D01*
X7097500Y7382500D02*
Y7477500D01*
X6922500D02*
X7097500D01*
X6922500Y7382500D02*
X7097500D01*
X6922500Y7532500D02*
Y7627500D01*
X7097500Y7532500D02*
Y7627500D01*
X6922500D02*
X7097500D01*
X6922500Y7532500D02*
X7097500D01*
X7317500Y6887500D02*
Y6952500D01*
X7402500Y6887500D02*
Y6952500D01*
X7317500D02*
X7402500D01*
X7317500Y6887500D02*
X7402500D01*
X7972500Y6262500D02*
Y6357500D01*
X8147500Y6262500D02*
Y6357500D01*
X7972500D02*
X8147500D01*
X7972500Y6262500D02*
X8147500D01*
X7972500Y6522501D02*
Y6617501D01*
X8147500Y6522501D02*
Y6617501D01*
X7972500D02*
X8147500D01*
X7972500Y6522501D02*
X8147500D01*
X8102500Y6997501D02*
Y7062501D01*
X8017500Y6997501D02*
Y7062501D01*
Y6997501D02*
X8102500D01*
X8017500Y7062501D02*
X8102500D01*
X8277500Y6967500D02*
Y7032500D01*
X8362500Y6967500D02*
Y7032500D01*
X8277500D02*
X8362500D01*
X8277500Y6967500D02*
X8362500D01*
X8582500Y6967500D02*
Y7032501D01*
X8497500Y6967500D02*
Y7032501D01*
Y6967500D02*
X8582500D01*
X8497500Y7032501D02*
X8582500D01*
X8772500Y6967500D02*
Y7032501D01*
X8687500Y6967500D02*
Y7032501D01*
Y6967500D02*
X8772500D01*
X8687500Y7032501D02*
X8772500D01*
X7652500Y6997500D02*
Y7062500D01*
X7567500Y6997500D02*
Y7062500D01*
Y6997500D02*
X7652500D01*
X7567500Y7062500D02*
X7652500D01*
X7852500Y6997500D02*
Y7062500D01*
X7767500Y6997500D02*
Y7062500D01*
Y6997500D02*
X7852500D01*
X7767500Y7062500D02*
X7852500D01*
X6922500Y7672500D02*
Y7767500D01*
X7097500Y7672500D02*
Y7767500D01*
X6922500D02*
X7097500D01*
X6922500Y7672500D02*
X7097500D01*
X7972500Y6392501D02*
Y6487501D01*
X8147500Y6392501D02*
Y6487501D01*
X7972500D02*
X8147500D01*
X7972500Y6392501D02*
X8147500D01*
X6532500Y6992500D02*
X6627500D01*
X6532500Y7167500D02*
X6627500D01*
X6532500Y6992500D02*
Y7167500D01*
X6627500Y6992500D02*
Y7167500D01*
X6612500Y3962500D02*
X6707500D01*
X6612500Y4137500D02*
X6707500D01*
X6612500Y3962500D02*
Y4137500D01*
X6707500Y3962500D02*
Y4137500D01*
X7192500Y3912500D02*
X7287501D01*
X7192500Y4087500D02*
X7287501D01*
X7192500Y3912500D02*
Y4087500D01*
X7287501Y3912500D02*
Y4087500D01*
X7427500Y2682499D02*
Y2777499D01*
X7252500Y2682499D02*
Y2777499D01*
Y2682499D02*
X7427500D01*
X7252500Y2777499D02*
X7427500D01*
X7447500Y3262499D02*
Y3357499D01*
X7272500Y3262499D02*
Y3357499D01*
Y3262499D02*
X7447500D01*
X7272500Y3357499D02*
X7447500D01*
X6912500Y4617500D02*
X7007500D01*
X6912500Y4442500D02*
X7007500D01*
Y4617500D01*
X6912500Y4442500D02*
Y4617500D01*
X7512500Y2757500D02*
X7607500D01*
X7512500Y2582500D02*
X7607500D01*
Y2757500D01*
X7512500Y2582500D02*
Y2757500D01*
X8972500Y6442500D02*
Y6617500D01*
X9067500Y6442500D02*
Y6617500D01*
X8972500Y6442500D02*
X9067500D01*
X8972500Y6617500D02*
X9067500D01*
X8572501Y4157500D02*
X8747501D01*
X8572501Y4062500D02*
X8747501D01*
X8572501D02*
Y4157500D01*
X8747501Y4062500D02*
Y4157500D01*
X8872501Y4202501D02*
X9047501D01*
X8872501Y4297501D02*
X9047501D01*
Y4202501D02*
Y4297501D01*
X8872501Y4202501D02*
Y4297501D01*
X8797501Y2812500D02*
Y2987501D01*
X8702501Y2812500D02*
Y2987501D01*
X8797501D01*
X8702501Y2812500D02*
X8797501D01*
X8477501D02*
Y2987501D01*
X8382501Y2812500D02*
Y2987501D01*
X8477501D01*
X8382501Y2812500D02*
X8477501D01*
X8327501D02*
Y2987501D01*
X8232501Y2812500D02*
Y2987501D01*
X8327501D01*
X8232501Y2812500D02*
X8327501D01*
X8637501D02*
Y2987501D01*
X8542501Y2812500D02*
Y2987501D01*
X8637501D01*
X8542501Y2812500D02*
X8637501D01*
X8937501D02*
Y2987501D01*
X8842500Y2812500D02*
Y2987501D01*
X8937501D01*
X8842500Y2812500D02*
X8937501D01*
X9247501D02*
Y2987501D01*
X9152501Y2812500D02*
Y2987501D01*
X9247501D01*
X9152501Y2812500D02*
X9247501D01*
X9097501D02*
Y2987501D01*
X9002501Y2812500D02*
Y2987501D01*
X9097501D01*
X9002501Y2812500D02*
X9097501D01*
X7957500Y4202500D02*
Y4377500D01*
X7862500Y4202500D02*
Y4377500D01*
X7957500D01*
X7862500Y4202500D02*
X7957500D01*
X8872501Y4062500D02*
X9047501D01*
X8872501Y4157500D02*
X9047501D01*
Y4062500D02*
Y4157500D01*
X8872501Y4062500D02*
Y4157500D01*
D93*
X7235000Y8095000D02*
G03*
X7235000Y8095000I-10000J0D01*
G01*
D95*
X6615000Y8195000D02*
Y8955000D01*
X7405000D01*
Y8195000D02*
Y8955000D01*
X6615000Y8195000D02*
X7405000D01*
X7295000Y4436250D02*
X7495000D01*
X7295000D02*
Y4636251D01*
X7495000D01*
Y4436250D02*
Y4636251D01*
D136*
X250000Y6480000D02*
G03*
X250000Y6480000I-50000J0D01*
G01*
X650000D02*
G03*
X650000Y6480000I-50000J0D01*
G01*
X250000Y6080000D02*
G03*
X250000Y6080000I-50000J0D01*
G01*
X650000D02*
G03*
X650000Y6080000I-50000J0D01*
G01*
D137*
X575000Y6280000D02*
G03*
X575000Y6280000I-175000J0D01*
G01*
%TF.MD5,48fbc55da3cde462d2061ebfe0fb259c*%
M02*
