%TF.GenerationSoftware,Altium Limited,Altium Designer,20.2.6 (244)*%
G04 Layer_Color=16711935*
%FSLAX45Y45*%
%MOMM*%
%TF.SameCoordinates,65E78103-6D03-462D-AAE3-041F84C347C7*%
%TF.FilePolarity,Negative*%
%TF.FileFunction,Soldermask,Bot*%
%TF.Part,Single*%
G01*
G75*
%TA.AperFunction,ComponentPad*%
%ADD80R,1.50000X1.50000*%
%ADD81C,1.50000*%
%ADD82C,0.70000*%
%ADD83R,1.50000X1.50000*%
%TA.AperFunction,ViaPad*%
%ADD84C,0.65000*%
%TA.AperFunction,NonConductor*%
%ADD86C,1.00000*%
G36*
X7121000Y5613000D02*
Y5709000D01*
X7043000Y5787000D01*
Y5848000D01*
X6954000Y5937000D01*
Y5947000D01*
X6933000D01*
X6828000Y6052000D01*
X6522000D01*
X6430000Y5960000D01*
X6348000D01*
Y5921000D01*
X6211000Y5784000D01*
Y5435000D01*
X6337000Y5309000D01*
Y5240000D01*
X6397000Y5180000D01*
X6641000D01*
X6679000Y5142000D01*
X6817000D01*
X6984000Y5309000D01*
X7001000D01*
Y5324000D01*
X7092000Y5415000D01*
X7121000Y5613000D01*
D02*
G37*
D80*
X7140000Y8060000D02*
D03*
X4288000Y6370000D02*
D03*
X3284000Y8800000D02*
D03*
D81*
X6886000Y8060000D02*
D03*
X3272000Y6370000D02*
D03*
X3526000D02*
D03*
X3780000D02*
D03*
X4034000D02*
D03*
X3030000Y8800000D02*
D03*
X9680000Y4776000D02*
D03*
Y5030000D02*
D03*
Y5894000D02*
D03*
Y6148000D02*
D03*
Y6402000D02*
D03*
Y6656000D02*
D03*
Y6910000D02*
D03*
D82*
X9750000Y7730000D02*
D03*
X9930000D02*
D03*
D83*
X9680000Y5284000D02*
D03*
Y5640000D02*
D03*
D84*
X4360000Y7620000D02*
D03*
X6460000Y6960000D02*
D03*
X9610000Y7390000D02*
D03*
D86*
X7118076Y5600000D02*
G03*
X7118076Y5600000I-458077J0D01*
G01*
%TF.MD5,53fd4371c73a042c65949f0b4f8ced25*%
M02*
