%TF.GenerationSoftware,Altium Limited,Altium Designer,20.2.6 (244)*%
G04 Layer_Color=8388736*
%FSLAX45Y45*%
%MOMM*%
%TF.SameCoordinates,65E78103-6D03-462D-AAE3-041F84C347C7*%
%TF.FilePolarity,Positive*%
%TF.FileFunction,Other,Mechanical_2*%
%TF.Part,Single*%
G01*
G75*
%TA.AperFunction,NonConductor*%
%ADD87C,0.25400*%
%ADD90C,0.20000*%
%ADD92C,0.10000*%
%ADD138C,0.05000*%
G36*
X3600000Y1760000D02*
Y1720000D01*
X3500000D01*
Y1760000D01*
X3600000D01*
D02*
G37*
G36*
X2240001Y3770001D02*
Y3730000D01*
X2140001D01*
Y3770001D01*
X2240001D01*
D02*
G37*
G36*
X2140001Y3840000D02*
Y3880001D01*
X2240001D01*
Y3840000D01*
X2140001D01*
D02*
G37*
G36*
Y4060000D02*
Y4100000D01*
X2240001D01*
Y4060000D01*
X2140001D01*
D02*
G37*
G36*
Y4280000D02*
Y4320001D01*
X2240001D01*
Y4280000D01*
X2140001D01*
D02*
G37*
G36*
X7270000Y6970000D02*
X7310000D01*
Y6870000D01*
X7270000D01*
Y6970000D01*
D02*
G37*
G36*
X7700000Y6980000D02*
X7660000D01*
Y7080000D01*
X7700000D01*
Y6980000D01*
D02*
G37*
G36*
X7900000D02*
X7860000D01*
Y7080000D01*
X7900000D01*
Y6980000D01*
D02*
G37*
G36*
X8150000Y6980001D02*
X8110000D01*
Y7080001D01*
X8150000D01*
Y6980001D01*
D02*
G37*
G36*
X8230000Y7050000D02*
X8270000D01*
Y6950000D01*
X8230000D01*
Y7050000D01*
D02*
G37*
G36*
X8630000Y6950001D02*
X8590000D01*
Y7050000D01*
X8630000D01*
Y6950001D01*
D02*
G37*
G36*
X8820000D02*
X8780000D01*
Y7050000D01*
X8820000D01*
Y6950001D01*
D02*
G37*
D87*
X3488000Y8029999D02*
Y8730000D01*
Y8029999D02*
X4188000D01*
Y8730000D01*
X3488000D02*
X4188000D01*
X5680000Y7930000D02*
X6080000D01*
Y7630000D02*
Y7930000D01*
X5680000Y7630000D02*
X6080000D01*
X5680000D02*
Y7930000D01*
D90*
X630000Y7622500D02*
Y7822500D01*
X930000D01*
Y7622500D02*
Y7822500D01*
X630000Y7622500D02*
X930000D01*
X4630026Y2960000D02*
Y3140000D01*
X4550026Y2960000D02*
X4630026D01*
X4550026D02*
Y3140000D01*
X4630026D01*
X6334999Y5124999D02*
Y6325000D01*
Y5124999D02*
X7534999D01*
Y6325000D01*
X6334999D02*
X7534999D01*
X770000Y5860000D02*
X950000D01*
Y5780000D02*
Y5860000D01*
X770000Y5780000D02*
X950000D01*
X770000D02*
Y5860000D01*
X964976Y2402475D02*
Y2482475D01*
Y2402475D02*
X1144976D01*
Y2482475D01*
X964976D02*
X1144976D01*
X1240001Y1980000D02*
Y2160000D01*
X1320001D01*
Y1980000D02*
Y2160000D01*
X1240001Y1980000D02*
X1320001D01*
X1450001Y1980000D02*
Y2160000D01*
X1370001Y1980000D02*
X1450001D01*
X1370001D02*
Y2160000D01*
X1450001D01*
X1570001Y2302474D02*
X1650001D01*
Y2482475D01*
X1570001D02*
X1650001D01*
X1570001Y2302474D02*
Y2482475D01*
X2310001Y3590000D02*
Y3770000D01*
X2390001D01*
Y3590000D02*
Y3770000D01*
X2310001Y3590000D02*
X2390001D01*
Y3830000D02*
Y4010000D01*
X2310001Y3830000D02*
X2390001D01*
X2310001D02*
Y4010000D01*
X2390001D01*
Y4060000D02*
Y4240000D01*
X2310001Y4060000D02*
X2390001D01*
X2310001D02*
Y4240000D01*
X2390001D01*
Y4300000D02*
Y4480000D01*
X2310001Y4300000D02*
X2390001D01*
X2310001D02*
Y4480000D01*
X2390001D01*
X2440001Y3590000D02*
Y3770001D01*
X2520001D01*
Y3590000D02*
Y3770001D01*
X2440001Y3590000D02*
X2520001D01*
X2410001Y2610000D02*
X2490001D01*
Y2790000D01*
X2410001D02*
X2490001D01*
X2410001Y2610000D02*
Y2790000D01*
Y3090000D02*
X2490001D01*
X2410001Y2910000D02*
Y3090000D01*
Y2910000D02*
X2490001D01*
Y3090000D01*
X2520000Y3820000D02*
Y4000000D01*
X2440000Y3820000D02*
X2520000D01*
X2440000D02*
Y4000000D01*
X2520000D01*
X3400000Y960000D02*
Y1040000D01*
X3220000D02*
X3400000D01*
X3220000Y960000D02*
Y1040000D01*
Y960000D02*
X3400000D01*
X3220000Y1250000D02*
X3300000D01*
X3220000Y1070000D02*
Y1250000D01*
Y1070000D02*
X3300000D01*
Y1250000D01*
X3220000Y1290000D02*
X3300000D01*
Y1470000D01*
X3220000D02*
X3300000D01*
X3220000Y1290000D02*
Y1470000D01*
X3120000Y1500000D02*
Y1580000D01*
Y1500000D02*
X3300000D01*
Y1580000D01*
X3120000D02*
X3300000D01*
X3220000Y2000000D02*
X3300000D01*
X3220000Y1820000D02*
Y2000000D01*
Y1820000D02*
X3300000D01*
Y2000000D01*
X3220000Y2140000D02*
X3300000D01*
Y2320000D01*
X3220000D02*
X3300000D01*
X3220000Y2140000D02*
Y2320000D01*
X3220000Y850000D02*
Y930000D01*
Y850000D02*
X3400000D01*
Y930000D01*
X3220000D02*
X3400000D01*
Y2030000D02*
Y2110000D01*
X3220000D02*
X3400000D01*
X3220000Y2030000D02*
Y2110000D01*
Y2030000D02*
X3400000D01*
X2540001Y2610000D02*
X2620001D01*
Y2790000D01*
X2540001D02*
X2620001D01*
X2540001Y2610000D02*
Y2790000D01*
Y3090000D02*
X2620001D01*
X2540001Y2910000D02*
Y3090000D01*
Y2910000D02*
X2620001D01*
Y3090000D01*
X3650000Y1580000D02*
X3730000D01*
Y1760000D01*
X3650000D02*
X3730000D01*
X3650000Y1580000D02*
Y1760000D01*
X5030000Y4040000D02*
Y4120000D01*
Y4040000D02*
X5210001D01*
Y4120000D01*
X5030000D02*
X5210001D01*
X5010000Y4470000D02*
Y4550000D01*
X4830000D02*
X5010000D01*
X4830000Y4470000D02*
Y4550000D01*
Y4470000D02*
X5010000D01*
X4860000Y4880000D02*
X5040000D01*
X4860000D02*
Y4960000D01*
X5040000D01*
Y4880000D02*
Y4960000D01*
X5139999Y5125000D02*
X5320000D01*
Y5045000D02*
Y5125000D01*
X5139999Y5045000D02*
X5320000D01*
X5139999D02*
Y5125000D01*
Y5295050D02*
X5320000D01*
X5139999D02*
Y5375050D01*
X5320000D01*
Y5295050D02*
Y5375050D01*
X5399999Y4900000D02*
Y5080000D01*
X5479999D01*
Y4900000D02*
Y5080000D01*
X5399999Y4900000D02*
X5479999D01*
X5389999Y5459999D02*
Y5640000D01*
X5469999D01*
Y5459999D02*
Y5640000D01*
X5389999Y5459999D02*
X5469999D01*
Y5844974D02*
Y6024974D01*
X5389999Y5844974D02*
X5469999D01*
X5389999D02*
Y6024974D01*
X5469999D01*
X5605025Y6070000D02*
Y6250000D01*
X5525025Y6070000D02*
X5605025D01*
X5525025D02*
Y6250000D01*
X5605025D01*
X5525025Y6295025D02*
Y6475025D01*
X5605025D01*
Y6295025D02*
Y6475025D01*
X5525025Y6295025D02*
X5605025D01*
X5529999Y4900000D02*
Y5080000D01*
X5609999D01*
Y4900000D02*
Y5080000D01*
X5529999Y4900000D02*
X5609999D01*
X5814974Y5380000D02*
Y5560000D01*
X5734975Y5380000D02*
X5814974D01*
X5734975D02*
Y5560000D01*
X5814974D01*
X5860000Y5460000D02*
X6040000D01*
Y5380000D02*
Y5460000D01*
X5860000Y5380000D02*
X6040000D01*
X5860000D02*
Y5460000D01*
X6079999Y6239974D02*
X6259999D01*
Y6159974D02*
Y6239974D01*
X6079999Y6159974D02*
X6259999D01*
X6079999D02*
Y6239974D01*
X6500000Y5040000D02*
X6680000D01*
Y4960000D02*
Y5040000D01*
X6500000Y4960000D02*
X6680000D01*
X6500000D02*
Y5040000D01*
X6410000Y6400000D02*
X6590000D01*
X6410000D02*
Y6480000D01*
X6590000D01*
Y6400000D02*
Y6480000D01*
X7249999Y5049974D02*
X7429999D01*
Y4969974D02*
Y5049974D01*
X7249999Y4969974D02*
X7429999D01*
X7249999D02*
Y5049974D01*
X7609999Y6050000D02*
Y6230000D01*
X7689999D01*
Y6050000D02*
Y6230000D01*
X7609999Y6050000D02*
X7689999D01*
X8549999Y5790000D02*
X8729999D01*
Y5710000D02*
Y5790000D01*
X8549999Y5710000D02*
X8729999D01*
X8549999D02*
Y5790000D01*
Y5920000D02*
X8729999D01*
Y5840000D02*
Y5920000D01*
X8549999Y5840000D02*
X8729999D01*
X8549999D02*
Y5920000D01*
X5000000Y5459999D02*
X5339999D01*
Y6030000D01*
X5000000D02*
X5339999D01*
X5000000Y5459999D02*
Y6030000D01*
X5139999Y5250025D02*
X5320000D01*
Y5170025D02*
Y5250025D01*
X5139999Y5170025D02*
X5320000D01*
X5139999D02*
Y5250025D01*
X5299999Y6450000D02*
X5479999D01*
X5299999Y6100000D02*
Y6450000D01*
Y6100000D02*
X5479999D01*
Y6450000D01*
X6165025Y5380000D02*
Y5560000D01*
X6085025Y5380000D02*
X6165025D01*
X6085025D02*
Y5560000D01*
X6165025D01*
X6690000Y6580000D02*
Y6760000D01*
X6770000D01*
Y6580000D02*
Y6760000D01*
X6690000Y6580000D02*
X6770000D01*
X8922500Y5885000D02*
X9240000D01*
Y5727500D02*
Y5885000D01*
X8922500Y5727500D02*
X9240000D01*
X8922500D02*
Y5885000D01*
X6090000Y7160000D02*
Y7340000D01*
X6170000D01*
Y7160000D02*
Y7340000D01*
X6090000Y7160000D02*
X6170000D01*
X5960000D02*
Y7340000D01*
X6040000D01*
Y7160000D02*
Y7340000D01*
X5960000Y7160000D02*
X6040000D01*
X990000Y8140000D02*
X1070000D01*
X990000Y7960000D02*
Y8140000D01*
Y7960000D02*
X1070000D01*
Y8140000D01*
X950000Y8660000D02*
X1030000D01*
Y8840000D01*
X950000D02*
X1030000D01*
X950000Y8660000D02*
Y8840000D01*
X680001Y8679999D02*
Y8839999D01*
Y8679999D02*
X830001D01*
Y8839999D01*
X680001D02*
X830001D01*
X3200000Y7160000D02*
X3380000D01*
Y7080000D02*
Y7160000D01*
X3200000Y7080000D02*
X3380000D01*
X3200000D02*
Y7160000D01*
X3180000Y7350000D02*
Y7530000D01*
X3260000D01*
Y7350000D02*
Y7530000D01*
X3180000Y7350000D02*
X3260000D01*
X4128000Y6779999D02*
Y6960000D01*
X4208000D01*
Y6779999D02*
Y6960000D01*
X4128000Y6779999D02*
X4208000D01*
X4248000D02*
Y6960000D01*
X4328000D01*
Y6779999D02*
Y6960000D01*
X4248000Y6779999D02*
X4328000D01*
X4258000Y7129999D02*
Y7310000D01*
X4338000D01*
Y7129999D02*
Y7310000D01*
X4258000Y7129999D02*
X4338000D01*
X2165000Y7995001D02*
X2375000D01*
Y7785001D02*
Y7995001D01*
X2165000Y7785001D02*
X2375000D01*
X2165000D02*
Y7995001D01*
X1080000Y8270000D02*
X1160000D01*
Y8450000D01*
X1080000D02*
X1160000D01*
X1080000Y8270000D02*
Y8450000D01*
X3300000Y6920000D02*
X3480000D01*
X3300000D02*
Y7000000D01*
X3480000D01*
Y6920000D02*
Y7000000D01*
X2410000Y8050001D02*
Y8130001D01*
X2230000D02*
X2410000D01*
X2230000Y8050001D02*
Y8130001D01*
Y8050001D02*
X2410000D01*
X4088000Y6679999D02*
Y6859999D01*
X4008000Y6679999D02*
X4088000D01*
X4008000D02*
Y6859999D01*
X4088000D01*
X5180000Y6818000D02*
X5360000D01*
X5180000D02*
Y6898000D01*
X5360000D01*
Y6818000D02*
Y6898000D01*
X5470000Y6820000D02*
Y7000000D01*
X5390000Y6820000D02*
X5470000D01*
X5390000D02*
Y7000000D01*
X5470000D01*
X5180000Y6928000D02*
X5360000D01*
X5180000D02*
Y7008000D01*
X5360000D01*
Y6928000D02*
Y7008000D01*
X5550000Y7250000D02*
X5730000D01*
Y7170000D02*
Y7250000D01*
X5550000Y7170000D02*
X5730000D01*
X5550000D02*
Y7250000D01*
X6180000Y6818000D02*
Y7118000D01*
X5690000D02*
X6180000D01*
X5690000Y6818000D02*
Y7118000D01*
Y6818000D02*
X6180000D01*
X5180000Y7038000D02*
X5360000D01*
X5180000D02*
Y7118000D01*
X5360000D01*
Y7038000D02*
Y7118000D01*
X2110000Y7270000D02*
Y7350000D01*
X1930000D02*
X2110000D01*
X1930000Y7270000D02*
Y7350000D01*
Y7270000D02*
X2110000D01*
X820000Y7454775D02*
Y7534775D01*
X640000D02*
X820000D01*
X640000Y7454775D02*
Y7534775D01*
Y7454775D02*
X820000D01*
X1680000Y7160000D02*
Y7340000D01*
X1600000Y7160000D02*
X1680000D01*
X1600000D02*
Y7340000D01*
X1680000D01*
X1810000Y7160000D02*
Y7340000D01*
X1730000Y7160000D02*
X1810000D01*
X1730000D02*
Y7340000D01*
X1810000D01*
X810000Y7170000D02*
Y7250000D01*
X630000D02*
X810000D01*
X630000Y7170000D02*
Y7250000D01*
Y7170000D02*
X810000D01*
X2340000Y7270000D02*
Y7350000D01*
X2160000D02*
X2340000D01*
X2160000Y7270000D02*
Y7350000D01*
Y7270000D02*
X2340000D01*
X5200000Y7430000D02*
Y7610000D01*
X5280000D01*
Y7430000D02*
Y7610000D01*
X5200000Y7430000D02*
X5280000D01*
X5080000D02*
Y7610000D01*
X5160000D01*
Y7430000D02*
Y7610000D01*
X5080000Y7430000D02*
X5160000D01*
X5350000Y7720000D02*
Y7800000D01*
Y7720000D02*
X5530000D01*
Y7800000D01*
X5350000D02*
X5530000D01*
X5350000Y7830000D02*
Y7910000D01*
Y7830000D02*
X5530000D01*
Y7910000D01*
X5350000D02*
X5530000D01*
X5890000Y7510000D02*
Y7590000D01*
Y7510000D02*
X6070000D01*
Y7590000D01*
X5890000D02*
X6070000D01*
X6410000Y7830000D02*
Y7910000D01*
X6230000D02*
X6410000D01*
X6230000Y7830000D02*
Y7910000D01*
Y7830000D02*
X6410000D01*
X6775000Y7195000D02*
X6985000D01*
Y6985000D02*
Y7195000D01*
X6775000Y6985000D02*
X6985000D01*
X6775000D02*
Y7195000D01*
X6930001Y7807975D02*
Y7887975D01*
Y7807975D02*
X7110001D01*
Y7887975D01*
X6930001D02*
X7110001D01*
X8665000Y6525000D02*
X8875000D01*
Y6315000D02*
Y6525000D01*
X8665000Y6315000D02*
X8875000D01*
X8665000D02*
Y6525000D01*
X7970000Y6760001D02*
Y6840001D01*
Y6760001D02*
X8150000D01*
Y6840001D01*
X7970000D02*
X8150000D01*
X7970000Y6650001D02*
Y6730001D01*
Y6650001D02*
X8150000D01*
Y6730001D01*
X7970000D02*
X8150000D01*
X7970000Y6870001D02*
Y6950001D01*
Y6870001D02*
X8150000D01*
Y6950001D01*
X7970000D02*
X8150000D01*
X8740000Y6570000D02*
Y6650000D01*
Y6570000D02*
X8920000D01*
Y6650000D01*
X8740000D02*
X8920000D01*
X6230000Y7940000D02*
Y8020000D01*
Y7940000D02*
X6410000D01*
Y8020000D01*
X6230000D02*
X6410000D01*
X4550001Y3410000D02*
Y3590000D01*
X4630001D01*
Y3410000D02*
Y3590000D01*
X4550001Y3410000D02*
X4630001D01*
X4680001Y3410000D02*
Y3590000D01*
X4760001D01*
Y3410000D02*
Y3590000D01*
X4680001Y3410000D02*
X4760001D01*
X6620001Y3720000D02*
X6700001D01*
Y3900000D01*
X6620001D02*
X6700001D01*
X6620001Y3720000D02*
Y3900000D01*
X7090000Y2999999D02*
X7170000D01*
Y3179999D01*
X7090000D02*
X7170000D01*
X7090000Y2999999D02*
Y3179999D01*
X7225000Y2934999D02*
Y3145000D01*
X7435000D01*
Y2934999D02*
Y3145000D01*
X7225000Y2934999D02*
X7435000D01*
X7160000Y4600000D02*
X7240000D01*
X7160000Y4420000D02*
Y4600000D01*
Y4420000D02*
X7240000D01*
Y4600000D01*
X7590000Y4310000D02*
X7670000D01*
Y4490000D01*
X7590000D02*
X7670000D01*
X7590000Y4310000D02*
Y4490000D01*
Y4700000D02*
X7670000D01*
X7590000Y4520000D02*
Y4700000D01*
Y4520000D02*
X7670000D01*
Y4700000D01*
X7050000Y4600000D02*
X7130000D01*
X7050000Y4420000D02*
Y4600000D01*
Y4420000D02*
X7130000D01*
Y4600000D01*
X9510000Y7820000D02*
X9590000D01*
X9510000Y7640000D02*
Y7820000D01*
Y7640000D02*
X9590000D01*
Y7820000D01*
X5530001Y3010001D02*
X5610001D01*
Y3190001D01*
X5530001D02*
X5610001D01*
X5530001Y3010001D02*
Y3190001D01*
X5844954Y3130001D02*
Y3210001D01*
X5664953D02*
X5844954D01*
X5664953Y3130001D02*
Y3210001D01*
Y3130001D02*
X5844954D01*
X5850001Y3000001D02*
Y3080001D01*
X5670001D02*
X5850001D01*
X5670001Y3000001D02*
Y3080001D01*
Y3000001D02*
X5850001D01*
X5634976Y3454975D02*
X5714976D01*
Y3634975D01*
X5634976D02*
X5714976D01*
X5634976Y3454975D02*
Y3634975D01*
X5940001Y3554976D02*
Y3634975D01*
X5760001D02*
X5940001D01*
X5760001Y3554976D02*
Y3634975D01*
Y3554976D02*
X5940001D01*
Y3429950D02*
Y3509950D01*
X5760001D02*
X5940001D01*
X5760001Y3429950D02*
Y3509950D01*
Y3429950D02*
X5940001D01*
X7650000Y2770000D02*
X7730000D01*
X7650000Y2590000D02*
Y2770000D01*
Y2590000D02*
X7730000D01*
Y2770000D01*
X8420000Y5060000D02*
Y5240000D01*
X8500000D01*
Y5060000D02*
Y5240000D01*
X8420000Y5060000D02*
X8500000D01*
Y5280000D02*
Y5460000D01*
X8420000Y5280000D02*
X8500000D01*
X8420000D02*
Y5460000D01*
X8500000D01*
X8200000Y5240000D02*
X8380000D01*
Y5160000D02*
Y5240000D01*
X8200000Y5160000D02*
X8380000D01*
X8200000D02*
Y5240000D01*
X7630000Y3880000D02*
Y4060000D01*
X7710000D01*
Y3880000D02*
Y4060000D01*
X7630000Y3880000D02*
X7710000D01*
X7740000D02*
Y4060000D01*
X7820000D01*
Y3880000D02*
Y4060000D01*
X7740000Y3880000D02*
X7820000D01*
X9000001Y4510000D02*
Y4690000D01*
X9080001D01*
Y4510000D02*
Y4690000D01*
X9000001Y4510000D02*
X9080001D01*
X8690001Y4740000D02*
X8870001D01*
X8690001D02*
Y4820000D01*
X8870001D01*
Y4740000D02*
Y4820000D01*
X7740000Y3670000D02*
Y3850000D01*
X7820000D01*
Y3670000D02*
Y3850000D01*
X7740000Y3670000D02*
X7820000D01*
X8200000Y5360000D02*
X8380000D01*
Y5280000D02*
Y5360000D01*
X8200000Y5280000D02*
X8380000D01*
X8200000D02*
Y5360000D01*
X8110001Y2810000D02*
Y2990000D01*
X8190001D01*
Y2810000D02*
Y2990000D01*
X8110001Y2810000D02*
X8190001D01*
D92*
X2357500Y6929975D02*
Y7229975D01*
X2107500D02*
X2357500D01*
X2107500Y6929975D02*
Y7229975D01*
Y6929975D02*
X2357500D01*
X2157500Y1320000D02*
Y1760000D01*
X2557500D01*
Y1320000D02*
Y1760000D01*
X2157500Y1320000D02*
X2557500D01*
X500000Y3740000D02*
X1100000D01*
Y3240000D02*
Y3740000D01*
X500000Y3240000D02*
X1100000D01*
X500000D02*
Y3740000D01*
X1185001Y2232475D02*
Y2482475D01*
Y2232475D02*
X1485001D01*
Y2482475D01*
X1185001D02*
X1485001D01*
X5110000Y4415000D02*
X5410000D01*
Y4165000D02*
Y4415000D01*
X5110000Y4165000D02*
X5410000D01*
X5110000D02*
Y4415000D01*
X4789999Y5275000D02*
X5089999D01*
Y5025000D02*
Y5275000D01*
X4789999Y5025000D02*
X5089999D01*
X4789999D02*
Y5275000D01*
X860001Y7940000D02*
Y8140000D01*
X660001D02*
X860001D01*
X660001Y7940000D02*
Y8140000D01*
Y7940000D02*
X860001D01*
X4153000Y7955000D02*
X4453000D01*
Y7705000D02*
Y7955000D01*
X4153000Y7705000D02*
X4453000D01*
X4153000D02*
Y7955000D01*
X6832501Y4135000D02*
X7082501D01*
Y3835000D02*
Y4135000D01*
X6832501Y3835000D02*
X7082501D01*
X6832501D02*
Y4135000D01*
X5189976Y2965026D02*
Y3215026D01*
Y2965026D02*
X5489976D01*
Y3215026D01*
X5189976D02*
X5489976D01*
X5275001Y3430001D02*
Y3680001D01*
Y3430001D02*
X5575001D01*
Y3680001D01*
X5275001D02*
X5575001D01*
X8010001Y4220000D02*
Y4720000D01*
Y4220000D02*
X8640001D01*
Y4720000D01*
X8010001D02*
X8640001D01*
X9390001Y2640000D02*
Y4490000D01*
X9860001D01*
Y2640000D02*
Y4490000D01*
X9390001Y2640000D02*
X9860001D01*
X8955001Y4400000D02*
Y4700000D01*
X8705001Y4400000D02*
X8955001D01*
X8705001D02*
Y4700000D01*
X8955001D01*
D138*
X3500000Y1760000D02*
X3600000D01*
Y1580000D02*
Y1760000D01*
X3500000Y1580000D02*
X3600000D01*
X3500000D02*
Y1760000D01*
X2140001Y3590000D02*
Y3770001D01*
Y3590000D02*
X2240001D01*
Y3770001D01*
X2140001D02*
X2240001D01*
Y3840000D02*
Y4020001D01*
X2140001D02*
X2240001D01*
X2140001Y3840000D02*
Y4020001D01*
Y3840000D02*
X2240001D01*
Y4060000D02*
Y4240000D01*
X2140001D02*
X2240001D01*
X2140001Y4060000D02*
Y4240000D01*
Y4060000D02*
X2240001D01*
Y4280000D02*
Y4460000D01*
X2140001D02*
X2240001D01*
X2140001Y4280000D02*
Y4460000D01*
Y4280000D02*
X2240001D01*
X7270000Y6870000D02*
Y6970000D01*
X7450000D01*
Y6870000D02*
Y6970000D01*
X7270000Y6870000D02*
X7450000D01*
X8150000Y6980001D02*
Y7080001D01*
X7970000Y6980001D02*
X8150000D01*
X7970000D02*
Y7080001D01*
X8150000D01*
X8230000Y6950000D02*
Y7050000D01*
X8410000D01*
Y6950000D02*
Y7050000D01*
X8230000Y6950000D02*
X8410000D01*
X8630000Y6950001D02*
Y7050000D01*
X8450000Y6950001D02*
X8630000D01*
X8450000D02*
Y7050000D01*
X8630000D01*
X8820000Y6950001D02*
Y7050000D01*
X8640000Y6950001D02*
X8820000D01*
X8640000D02*
Y7050000D01*
X8820000D01*
X7700000Y6980000D02*
Y7080000D01*
X7520000Y6980000D02*
X7700000D01*
X7520000D02*
Y7080000D01*
X7700000D01*
X7900000Y6980000D02*
Y7080000D01*
X7720000Y6980000D02*
X7900000D01*
X7720000D02*
Y7080000D01*
X7900000D01*
%TF.MD5,304a8b00d24fc8dd4e45372d755d495e*%
M02*
