M48
;Layer_Color=9474304
;FILE_FORMAT=4:4
METRIC,LZ
;TYPE=PLATED
T1F00S00C0.3000
T2F00S00C0.7000
T3F00S00C1.0000
T4F00S00C2.3000
%
T01
X00182Y00016
X0019Y00018
X0021Y00021
X0022Y00018
X00248
X00275Y0002
Y000725
X002675Y000825
X00263Y00091
X0026075Y0011
X00237999Y00115
X00231999Y0013
X002255Y00124
X00207
X00188
X0017Y00127
X00169511Y00136061
X001815Y00165488
X00195741Y00172836
X001975Y001825
X00188162Y00182162
X00169475Y00179926
X00169378Y00205857
X00162Y00213086
X00174Y00216
X00185344Y00212751
X002Y00227015
X00225225Y00228213
X00224Y00258513
X002Y00266533
X001725Y002655
X00165Y002725
X00173Y00281
X00208818Y00307263
X00220319
X00228319Y00288663
X002425Y002725
X00254759Y00266
X00265Y002825
X00282337
X00297237Y00274333
X002725Y002975
X00266639Y00236418
X00263927Y0022237
X00273286Y00222412
X00283672Y00236418
X00319387Y00243545
X00342387Y00247513
X00371191Y00245459
X0037Y00264
X00359617Y00266083
X00369Y00297
X00319387Y00215306
X00324Y0018
X00293Y00183
X00282999Y00181
X00275647Y00192633
X00263927Y0019487
X00242999Y00189
X00225Y00182
X00217562Y00177563
X00227714Y0016945
X00229246Y00160046
X0023Y0015
X002145Y00158627
X00196823
X00260759Y0016455
X00298Y001482
X00308Y0011
X00256177Y0007
X00244606Y00055235
X0022Y00051197
X00180479Y00052338
X00170578Y00048391
X002Y0008362
X0023Y00091
X00357Y00052
X00338Y00019
X00369Y00161
X00138Y00165
X0013Y00175
X00103964Y0017
X00079Y00157
X00032Y00161
X00024Y00215
X00044
X0005925Y0021575
X00034Y00235
X00057Y003065
X00064Y00300655
X00088422Y002905
X0009075Y003225
X000775Y00329922
X00116189Y003225
Y003025
X00134Y00291
X001475Y00295513
X00138Y0021138
X00148Y00189
X0014325Y00105
X0015675
X0013Y000875
X0011Y00095
X000875
Y000775
X00065Y000875
X00067Y00101
X001Y0005662
X0014385Y0007
X001425Y00015
X00034Y00044
T02
X00385Y000396
Y000523
Y00065
Y000777
Y000904
Y001031
Y00144782
Y00157483
Y00170182
Y00182882
X001327Y00152627
X0012
X001073
X00015Y0024767
Y0026037
Y0027307
Y0028577
Y0029847
Y0031117
T03
X00280437Y00323943
X00305837
X00331237
X00356637
T04
X00375Y0022
X00025Y0007
M30
