M48
;Layer_Color=9474304
;FILE_FORMAT=4:4
METRIC,LZ
;TYPE=PLATED
T1F00S00C0.3000
T3F00S00C0.7000
%
T01
X00029Y00094
X00019Y00111
X00016Y00129
Y00152
Y00178
Y00204
Y0023
Y00256
X00055Y0026
X00057Y00271
X00046
X00106Y00199
X00115Y0018
X00117Y00159
X00127Y00166
X00153Y00163
X00168
X00228Y00162
X00238Y00169
X00231Y00177
X00249
X00234Y00197
X00265Y0021
X00277Y00205
X00276Y00059
X00244Y00045
X00167Y00053
X00161Y00062
X00173
X00128Y00069
X00115Y00072
X00114Y00083
X00105Y00063
X00069Y00058
Y00071
X00052
X00045Y00106
X00048Y0012
X00058Y00113
X00068Y00122
X00069Y00136
X00103Y00115
X00146
X00138Y00124
X0031Y00113
X00354Y0012
X00406Y00121
X00415
X00431Y00113
X00446Y0013
X0045Y00143255
X00457Y00152
X00459Y00171
X00448Y00184
X00431Y00198
X00427Y00209
X00431Y00231
X00445Y00234
X00438Y00243
X00457Y0024125
X00471Y00265
X00491
X00502Y00273
X00513Y00265
X00545Y00273
X00574
X00584Y00277
X00594
X00575Y00235
X00561Y00206
X0056Y00192
X00603Y00214
X00619Y00238
X00616Y00173
X00626Y0017
Y00144
X00627Y00133
Y00122
X00631Y00065843
Y00057
X00620568Y0005627
X0062Y00065843
Y00034
X00613Y00022
X00602Y00017
X00543Y00065
X0053
X00533Y00081
X00509Y00065
X00498Y00069
X00489Y00095
X00477Y00098
X00431Y0008
Y00069
Y00057
X0043Y00043
X00415Y00045
X00391Y00086
X00372Y0007
X00347Y00041
X00352Y00033
X0034Y00032
X00293Y00056
X00302Y00163
X00341Y00202
X00378Y00231
X00423Y00252
X00399Y00172
X00481Y00175
X00498Y00184
Y00219
X00514Y00211
X005Y00022
X00319Y00261
X00057Y00281
X00046
T03
X001056Y00019
X001183
X00131
X001437
X001564
X003856Y00276
X003983
X00411
X004237
X004364
X004491
X00553Y001467
Y00134
Y001213
M30
