%TF.GenerationSoftware,Altium Limited,Altium Designer,20.2.6 (244)*%
G04 Layer_Color=65535*
%FSLAX45Y45*%
%MOMM*%
%TF.SameCoordinates,5B1E47F8-7F56-49C7-AB48-EE235D2752C7*%
%TF.FilePolarity,Positive*%
%TF.FileFunction,Legend,Top*%
%TF.Part,Single*%
G01*
G75*
%TA.AperFunction,NonConductor*%
%ADD60C,0.20000*%
%ADD61C,0.30000*%
%ADD62C,0.10000*%
%ADD73C,0.25000*%
%ADD74C,0.25400*%
%ADD75C,0.60000*%
D60*
X5230000Y2385000D02*
G03*
X5230000Y2385000I-5590J0D01*
G01*
X6070000Y1060000D02*
G03*
X6070000Y1060000I-10000J0D01*
G01*
X1472500Y1670000D02*
G03*
X1472500Y1670000I-2500J0D01*
G01*
X6223090Y1444410D02*
G03*
X6223090Y1444410I-5590J0D01*
G01*
X3756400Y315000D02*
G03*
X3756400Y315000I-20000J0D01*
G01*
X3920000Y250000D02*
G03*
X3920000Y250000I-20000J0D01*
G01*
X5780000Y275000D02*
Y425000D01*
Y275000D02*
Y350000D01*
X5880000Y275000D01*
X5780000Y350000D02*
X5880000Y425000D01*
Y275000D02*
Y425000D01*
X5515000Y2515000D02*
Y2525000D01*
X5685000Y2515000D02*
Y2525000D01*
X5515000Y2515000D02*
X5685000D01*
X5515000Y2525000D02*
X5685000D01*
X5780000Y535000D02*
Y685000D01*
Y535000D02*
Y610000D01*
X5880000Y535000D01*
X5780000Y610000D02*
X5880000Y685000D01*
Y535000D02*
Y685000D01*
X5050000Y417500D02*
Y557500D01*
X5130000D01*
X5350000Y417500D02*
Y557500D01*
X5270000D02*
X5350000D01*
X4729974Y312500D02*
Y452500D01*
X4649974Y312500D02*
X4729974D01*
X4429974D02*
Y452500D01*
Y312500D02*
X4509974D01*
X510000Y1590000D02*
X620000Y1480000D01*
X900000D01*
X1010000Y1590000D01*
X900000Y2000000D02*
X1010000Y1890000D01*
X620000Y2000000D02*
X900000D01*
X510000Y1890000D02*
X620000Y2000000D01*
X1180000Y165000D02*
Y315000D01*
Y165000D02*
Y240000D01*
X1280000Y165000D01*
X1180000Y240000D02*
X1280000Y315000D01*
Y165000D02*
Y315000D01*
X4680000Y725000D02*
Y875000D01*
X4580000Y800000D02*
X4680000Y875000D01*
X4580000Y800000D02*
X4680000Y725000D01*
X4580000D02*
Y800000D01*
Y725000D02*
Y875000D01*
X4407475Y1260050D02*
Y1880050D01*
X5027475Y1260050D02*
Y1880050D01*
X4407475D02*
X5027475D01*
X4407475Y1260050D02*
X5027475D01*
X3810000Y740000D02*
Y780000D01*
X3250000Y740000D02*
Y780000D01*
X3810000D01*
X3250000Y240000D02*
X3810000D01*
X3250000D02*
Y280000D01*
X3810000Y240000D02*
Y280000D01*
X1020000Y636632D02*
Y556658D01*
X1059987D01*
X1073316Y569987D01*
Y583316D01*
X1059987Y596645D01*
X1020000D01*
X1059987D01*
X1073316Y609974D01*
Y623303D01*
X1059987Y636632D01*
X1020000D01*
X1153290Y623303D02*
X1139961Y636632D01*
X1113303D01*
X1099974Y623303D01*
Y609974D01*
X1113303Y596645D01*
X1139961D01*
X1153290Y583316D01*
Y569987D01*
X1139961Y556658D01*
X1113303D01*
X1099974Y569987D01*
X1179948Y636632D02*
X1233264D01*
X1206606D01*
Y556658D01*
X1339897D02*
Y636632D01*
X1379884D01*
X1393213Y623303D01*
Y596645D01*
X1379884Y583316D01*
X1339897D01*
X1419871Y609974D02*
Y556658D01*
Y583316D01*
X1433200Y596645D01*
X1446529Y609974D01*
X1459858D01*
X1513174Y556658D02*
X1539832D01*
X1553161Y569987D01*
Y596645D01*
X1539832Y609974D01*
X1513174D01*
X1499845Y596645D01*
Y569987D01*
X1513174Y556658D01*
X1606477Y530000D02*
X1619807D01*
X1633135Y543329D01*
Y609974D01*
X1593148D01*
X1579819Y596645D01*
Y569987D01*
X1593148Y556658D01*
X1633135D01*
X3090000Y2736658D02*
Y2816632D01*
X3116658Y2789974D01*
X3143316Y2816632D01*
Y2736658D01*
X3223290Y2803303D02*
X3209961Y2816632D01*
X3183303D01*
X3169974Y2803303D01*
Y2749987D01*
X3183303Y2736658D01*
X3209961D01*
X3223290Y2749987D01*
X3249948Y2816632D02*
Y2749987D01*
X3263277Y2736658D01*
X3289936D01*
X3303264Y2749987D01*
Y2816632D01*
X3409897Y2736658D02*
Y2816632D01*
X3449884D01*
X3463213Y2803303D01*
Y2776645D01*
X3449884Y2763316D01*
X3409897D01*
X3489871Y2789974D02*
Y2736658D01*
Y2763316D01*
X3503200Y2776645D01*
X3516529Y2789974D01*
X3529858D01*
X3583174Y2736658D02*
X3609832D01*
X3623161Y2749987D01*
Y2776645D01*
X3609832Y2789974D01*
X3583174D01*
X3569845Y2776645D01*
Y2749987D01*
X3583174Y2736658D01*
X3676477Y2710000D02*
X3689806D01*
X3703135Y2723329D01*
Y2789974D01*
X3663148D01*
X3649819Y2776645D01*
Y2749987D01*
X3663148Y2736658D01*
X3703135D01*
X5350000Y1259974D02*
X5403316D01*
X5376658D01*
Y1180000D01*
X5350000Y1310000D02*
Y1389974D01*
X5389987D01*
X5403316Y1376645D01*
Y1349987D01*
X5389987Y1336658D01*
X5350000D01*
X5376658D02*
X5403316Y1310000D01*
Y1496645D02*
X5389987Y1509974D01*
X5363329D01*
X5350000Y1496645D01*
Y1443329D01*
X5363329Y1430000D01*
X5389987D01*
X5403316Y1443329D01*
Y1469987D01*
X5376658D01*
X3155900Y1859357D02*
X3202552Y1789380D01*
Y1859357D02*
X3155900Y1789380D01*
X3272529D02*
X3225877D01*
X3272529Y1836032D01*
Y1847695D01*
X3260866Y1859357D01*
X3237540D01*
X3225877Y1847695D01*
X3058337Y1253326D02*
X3046674Y1264989D01*
X3023348D01*
X3011685Y1253326D01*
Y1206674D01*
X3023348Y1195011D01*
X3046674D01*
X3058337Y1206674D01*
X3116652Y1195011D02*
Y1264989D01*
X3081663Y1230000D01*
X3128315D01*
X4018337Y1843326D02*
X4006674Y1854989D01*
X3983348D01*
X3971685Y1843326D01*
Y1796674D01*
X3983348Y1785011D01*
X4006674D01*
X4018337Y1796674D01*
X4041663Y1843326D02*
X4053326Y1854989D01*
X4076652D01*
X4088315Y1843326D01*
Y1831663D01*
X4076652Y1820000D01*
X4064989D01*
X4076652D01*
X4088315Y1808337D01*
Y1796674D01*
X4076652Y1785011D01*
X4053326D01*
X4041663Y1796674D01*
X3955011Y1993348D02*
X4024988Y2040000D01*
X3955011D02*
X4024988Y1993348D01*
Y2063326D02*
Y2086652D01*
Y2074989D01*
X3955011D01*
X3966674Y2063326D01*
X2586940Y2512137D02*
Y2453823D01*
X2598603Y2442160D01*
X2621929D01*
X2633592Y2453823D01*
Y2512137D01*
X2656917Y2442160D02*
X2680243D01*
X2668580D01*
Y2512137D01*
X2656917Y2500475D01*
X2715232D02*
X2726895Y2512137D01*
X2750221D01*
X2761884Y2500475D01*
Y2453823D01*
X2750221Y2442160D01*
X2726895D01*
X2715232Y2453823D01*
Y2500475D01*
X5631685Y2294989D02*
Y2236674D01*
X5643348Y2225011D01*
X5666674D01*
X5678337Y2236674D01*
Y2294989D01*
X5701663Y2236674D02*
X5713326Y2225011D01*
X5736652D01*
X5748315Y2236674D01*
Y2283326D01*
X5736652Y2294989D01*
X5713326D01*
X5701663Y2283326D01*
Y2271663D01*
X5713326Y2260000D01*
X5748315D01*
X5271685Y2344989D02*
Y2286674D01*
X5283348Y2275011D01*
X5306674D01*
X5318337Y2286674D01*
Y2344989D01*
X5341663D02*
X5388315D01*
Y2333326D01*
X5341663Y2286674D01*
Y2275011D01*
X6095011Y2451685D02*
X6153326D01*
X6164989Y2463348D01*
Y2486674D01*
X6153326Y2498337D01*
X6095011D01*
Y2568315D02*
Y2521663D01*
X6130000D01*
X6118337Y2544989D01*
Y2556652D01*
X6130000Y2568315D01*
X6153326D01*
X6164989Y2556652D01*
Y2533326D01*
X6153326Y2521663D01*
X3059380Y939877D02*
Y881563D01*
X3071043Y869900D01*
X3094369D01*
X3106032Y881563D01*
Y939877D01*
X3164346Y869900D02*
Y939877D01*
X3129357Y904889D01*
X3176009D01*
X5131685Y214989D02*
Y156674D01*
X5143348Y145011D01*
X5166674D01*
X5178337Y156674D01*
Y214989D01*
X5201663Y203326D02*
X5213326Y214989D01*
X5236652D01*
X5248315Y203326D01*
Y191663D01*
X5236652Y180000D01*
X5224989D01*
X5236652D01*
X5248315Y168337D01*
Y156674D01*
X5236652Y145011D01*
X5213326D01*
X5201663Y156674D01*
X5937200Y1806017D02*
Y1747703D01*
X5948863Y1736040D01*
X5972189D01*
X5983852Y1747703D01*
Y1806017D01*
X6053829Y1736040D02*
X6007177D01*
X6053829Y1782692D01*
Y1794355D01*
X6042166Y1806017D01*
X6018840D01*
X6007177Y1794355D01*
X786697Y874989D02*
Y816674D01*
X798360Y805011D01*
X821685D01*
X833348Y816674D01*
Y874989D01*
X856674Y863326D02*
X868337Y874989D01*
X891663D01*
X903326Y863326D01*
Y816674D01*
X891663Y805011D01*
X868337D01*
X856674Y816674D01*
Y863326D01*
X973303Y805011D02*
X926652D01*
X973303Y851663D01*
Y863326D01*
X961640Y874989D01*
X938315D01*
X926652Y863326D01*
X4215080Y2232737D02*
Y2174423D01*
X4226743Y2162760D01*
X4250069D01*
X4261732Y2174423D01*
Y2232737D01*
X4285057Y2162760D02*
X4308383D01*
X4296720D01*
Y2232737D01*
X4285057Y2221075D01*
X5916697Y2195011D02*
Y2264989D01*
X5951685D01*
X5963348Y2253326D01*
Y2230000D01*
X5951685Y2218337D01*
X5916697D01*
X5940022D02*
X5963348Y2195011D01*
X5986674Y2253326D02*
X5998337Y2264989D01*
X6021663D01*
X6033326Y2253326D01*
Y2241663D01*
X6021663Y2230000D01*
X6010000D01*
X6021663D01*
X6033326Y2218337D01*
Y2206674D01*
X6021663Y2195011D01*
X5998337D01*
X5986674Y2206674D01*
X6056652Y2253326D02*
X6068315Y2264989D01*
X6091640D01*
X6103303Y2253326D01*
Y2206674D01*
X6091640Y2195011D01*
X6068315D01*
X6056652Y2206674D01*
Y2253326D01*
X2136697Y1655011D02*
Y1724989D01*
X2171686D01*
X2183348Y1713326D01*
Y1690000D01*
X2171686Y1678337D01*
X2136697D01*
X2160023D02*
X2183348Y1655011D01*
X2253326D02*
X2206674D01*
X2253326Y1701663D01*
Y1713326D01*
X2241663Y1724989D01*
X2218337D01*
X2206674Y1713326D01*
X2276652Y1666674D02*
X2288315Y1655011D01*
X2311641D01*
X2323303Y1666674D01*
Y1713326D01*
X2311641Y1724989D01*
X2288315D01*
X2276652Y1713326D01*
Y1701663D01*
X2288315Y1690000D01*
X2323303D01*
X2646697Y1445011D02*
Y1514989D01*
X2681686D01*
X2693348Y1503326D01*
Y1480000D01*
X2681686Y1468337D01*
X2646697D01*
X2670023D02*
X2693348Y1445011D01*
X2763326D02*
X2716674D01*
X2763326Y1491663D01*
Y1503326D01*
X2751663Y1514989D01*
X2728337D01*
X2716674Y1503326D01*
X2833303Y1445011D02*
X2786652D01*
X2833303Y1491663D01*
Y1503326D01*
X2821641Y1514989D01*
X2798315D01*
X2786652Y1503326D01*
X2436697Y1175011D02*
Y1244989D01*
X2471685D01*
X2483348Y1233326D01*
Y1210000D01*
X2471685Y1198337D01*
X2436697D01*
X2460023D02*
X2483348Y1175011D01*
X2553326D02*
X2506674D01*
X2553326Y1221663D01*
Y1233326D01*
X2541663Y1244989D01*
X2518337D01*
X2506674Y1233326D01*
X2576652D02*
X2588315Y1244989D01*
X2611640D01*
X2623303Y1233326D01*
Y1186674D01*
X2611640Y1175011D01*
X2588315D01*
X2576652Y1186674D01*
Y1233326D01*
X2174989Y1312528D02*
X2105011D01*
Y1347517D01*
X2116674Y1359180D01*
X2140000D01*
X2151663Y1347517D01*
Y1312528D01*
Y1335854D02*
X2174989Y1359180D01*
Y1382505D02*
Y1405831D01*
Y1394168D01*
X2105011D01*
X2116674Y1382505D01*
X2174989Y1475809D02*
X2105011D01*
X2140000Y1440820D01*
Y1487472D01*
X5434989Y812528D02*
X5365011D01*
Y847517D01*
X5376674Y859180D01*
X5400000D01*
X5411663Y847517D01*
Y812528D01*
Y835854D02*
X5434989Y859180D01*
Y882506D02*
Y905832D01*
Y894169D01*
X5365011D01*
X5376674Y882506D01*
Y940820D02*
X5365011Y952483D01*
Y975809D01*
X5376674Y987472D01*
X5388337D01*
X5400000Y975809D01*
Y964146D01*
Y975809D01*
X5411663Y987472D01*
X5423326D01*
X5434989Y975809D01*
Y952483D01*
X5423326Y940820D01*
X4804989Y82528D02*
X4735011D01*
Y117517D01*
X4746674Y129180D01*
X4770000D01*
X4781663Y117517D01*
Y82528D01*
Y105854D02*
X4804989Y129180D01*
Y152505D02*
Y175831D01*
Y164168D01*
X4735011D01*
X4746674Y152505D01*
X4804989Y257472D02*
Y210820D01*
X4758337Y257472D01*
X4746674D01*
X4735011Y245809D01*
Y222483D01*
X4746674Y210820D01*
X5284191Y1035011D02*
Y1104989D01*
X5319180D01*
X5330843Y1093326D01*
Y1070000D01*
X5319180Y1058337D01*
X5284191D01*
X5307517D02*
X5330843Y1035011D01*
X5354169D02*
X5377494D01*
X5365832D01*
Y1104989D01*
X5354169Y1093326D01*
X5412483Y1035011D02*
X5435809D01*
X5424146D01*
Y1104989D01*
X5412483Y1093326D01*
X3692528Y2385011D02*
Y2454989D01*
X3727517D01*
X3739180Y2443326D01*
Y2420000D01*
X3727517Y2408337D01*
X3692528D01*
X3715854D02*
X3739180Y2385011D01*
X3762506D02*
X3785832D01*
X3774169D01*
Y2454989D01*
X3762506Y2443326D01*
X3820820D02*
X3832483Y2454989D01*
X3855809D01*
X3867472Y2443326D01*
Y2396674D01*
X3855809Y2385011D01*
X3832483D01*
X3820820Y2396674D01*
Y2443326D01*
X4834989Y2411686D02*
X4765011D01*
Y2446674D01*
X4776674Y2458337D01*
X4800000D01*
X4811663Y2446674D01*
Y2411686D01*
Y2435011D02*
X4834989Y2458337D01*
X4823326Y2481663D02*
X4834989Y2493326D01*
Y2516652D01*
X4823326Y2528315D01*
X4776674D01*
X4765011Y2516652D01*
Y2493326D01*
X4776674Y2481663D01*
X4788337D01*
X4800000Y2493326D01*
Y2528315D01*
X5034988Y2251685D02*
X4965011D01*
Y2286674D01*
X4976674Y2298337D01*
X5000000D01*
X5011663Y2286674D01*
Y2251685D01*
Y2275011D02*
X5034988Y2298337D01*
X4976674Y2321663D02*
X4965011Y2333326D01*
Y2356651D01*
X4976674Y2368314D01*
X4988337D01*
X5000000Y2356651D01*
X5011663Y2368314D01*
X5023325D01*
X5034988Y2356651D01*
Y2333326D01*
X5023325Y2321663D01*
X5011663D01*
X5000000Y2333326D01*
X4988337Y2321663D01*
X4976674D01*
X5000000Y2333326D02*
Y2356651D01*
X4524988Y2391685D02*
X4455011D01*
Y2426674D01*
X4466674Y2438337D01*
X4489999D01*
X4501662Y2426674D01*
Y2391685D01*
Y2415011D02*
X4524988Y2438337D01*
X4455011Y2461663D02*
Y2508315D01*
X4466674D01*
X4513325Y2461663D01*
X4524988D01*
X4614989Y2531685D02*
X4545011D01*
Y2566674D01*
X4556674Y2578337D01*
X4580000D01*
X4591663Y2566674D01*
Y2531685D01*
Y2555011D02*
X4614989Y2578337D01*
X4545011Y2648314D02*
X4556674Y2624989D01*
X4580000Y2601663D01*
X4603326D01*
X4614989Y2613326D01*
Y2636652D01*
X4603326Y2648314D01*
X4591663D01*
X4580000Y2636652D01*
Y2601663D01*
X5054989Y2431686D02*
X4985011D01*
Y2466674D01*
X4996674Y2478337D01*
X5020000D01*
X5031663Y2466674D01*
Y2431686D01*
Y2455011D02*
X5054989Y2478337D01*
X4985011Y2548315D02*
Y2501663D01*
X5020000D01*
X5008337Y2524989D01*
Y2536652D01*
X5020000Y2548315D01*
X5043326D01*
X5054989Y2536652D01*
Y2513326D01*
X5043326Y2501663D01*
X5651685Y1775011D02*
Y1844989D01*
X5686674D01*
X5698337Y1833326D01*
Y1810000D01*
X5686674Y1798337D01*
X5651685D01*
X5675011D02*
X5698337Y1775011D01*
X5756652D02*
Y1844989D01*
X5721663Y1810000D01*
X5768315D01*
X5711685Y1385011D02*
Y1454989D01*
X5746674D01*
X5758337Y1443326D01*
Y1420000D01*
X5746674Y1408337D01*
X5711685D01*
X5735011D02*
X5758337Y1385011D01*
X5781663Y1443326D02*
X5793326Y1454989D01*
X5816652D01*
X5828314Y1443326D01*
Y1431663D01*
X5816652Y1420000D01*
X5804989D01*
X5816652D01*
X5828314Y1408337D01*
Y1396674D01*
X5816652Y1385011D01*
X5793326D01*
X5781663Y1396674D01*
X6141685Y1785011D02*
Y1854989D01*
X6176674D01*
X6188337Y1843326D01*
Y1820000D01*
X6176674Y1808337D01*
X6141685D01*
X6165011D02*
X6188337Y1785011D01*
X6258315D02*
X6211663D01*
X6258315Y1831663D01*
Y1843326D01*
X6246652Y1854989D01*
X6223326D01*
X6211663Y1843326D01*
X214988Y796696D02*
X145011D01*
Y831685D01*
X156674Y843348D01*
X180000D01*
X191663Y831685D01*
Y796696D01*
Y820022D02*
X214988Y843348D01*
X156674Y866674D02*
X145011Y878337D01*
Y901663D01*
X156674Y913326D01*
X203325D01*
X214988Y901663D01*
Y878337D01*
X203325Y866674D01*
X156674D01*
X214988Y983303D02*
Y936651D01*
X168337Y983303D01*
X156674D01*
X145011Y971640D01*
Y948314D01*
X156674Y936651D01*
X3793348Y2565011D02*
Y2634989D01*
X3828337D01*
X3840000Y2623326D01*
Y2600000D01*
X3828337Y2588337D01*
X3793348D01*
X3816674D02*
X3840000Y2565011D01*
X3863326D02*
X3886652D01*
X3874989D01*
Y2634989D01*
X3863326Y2623326D01*
X1694988Y768360D02*
X1625011D01*
Y803348D01*
X1636674Y815011D01*
X1659999D01*
X1671662Y803348D01*
Y768360D01*
Y791685D02*
X1694988Y815011D01*
X1636674Y838337D02*
X1625011Y850000D01*
Y873326D01*
X1636674Y884989D01*
X1683325D01*
X1694988Y873326D01*
Y850000D01*
X1683325Y838337D01*
X1636674D01*
X1694988Y908315D02*
Y931641D01*
Y919978D01*
X1625011D01*
X1636674Y908315D01*
X4450000Y126674D02*
Y173326D01*
X4438337Y184989D01*
X4415011D01*
X4403348Y173326D01*
Y126674D01*
X4415011Y115011D01*
X4438337D01*
X4426674Y138337D02*
X4450000Y115011D01*
X4438337D02*
X4450000Y126674D01*
X4473326Y115011D02*
X4496652D01*
X4484989D01*
Y184989D01*
X4473326Y173326D01*
X1495011Y2046674D02*
Y2093326D01*
X1483348Y2104989D01*
X1460022D01*
X1448360Y2093326D01*
Y2046674D01*
X1460022Y2035011D01*
X1483348D01*
X1471685Y2058337D02*
X1495011Y2035011D01*
X1483348D02*
X1495011Y2046674D01*
X1518337Y2093326D02*
X1530000Y2104989D01*
X1553326D01*
X1564989Y2093326D01*
Y2046674D01*
X1553326Y2035011D01*
X1530000D01*
X1518337Y2046674D01*
Y2093326D01*
X1588315Y2035011D02*
X1611640D01*
X1599977D01*
Y2104989D01*
X1588315Y2093326D01*
X4631685Y2725011D02*
Y2794989D01*
X4666674D01*
X4678337Y2783326D01*
Y2760000D01*
X4666674Y2748337D01*
X4631685D01*
X4736652Y2725011D02*
Y2794989D01*
X4701663Y2760000D01*
X4748315D01*
X5477460Y1603960D02*
Y1673937D01*
X5512449D01*
X5524112Y1662275D01*
Y1638949D01*
X5512449Y1627286D01*
X5477460D01*
X5547437Y1662275D02*
X5559100Y1673937D01*
X5582426D01*
X5594089Y1662275D01*
Y1650612D01*
X5582426Y1638949D01*
X5570763D01*
X5582426D01*
X5594089Y1627286D01*
Y1615623D01*
X5582426Y1603960D01*
X5559100D01*
X5547437Y1615623D01*
X791685Y395011D02*
Y464989D01*
X826674D01*
X838337Y453326D01*
Y430000D01*
X826674Y418337D01*
X791685D01*
X861663Y453326D02*
X873326Y464989D01*
X896652D01*
X908315Y453326D01*
Y441663D01*
X896652Y430000D01*
X884989D01*
X896652D01*
X908315Y418337D01*
Y406674D01*
X896652Y395011D01*
X873326D01*
X861663Y406674D01*
X2016697Y755011D02*
Y824989D01*
X2040023Y801663D01*
X2063348Y824989D01*
Y755011D01*
X2086674Y824989D02*
Y755011D01*
Y790000D01*
X2133326D01*
Y824989D01*
Y755011D01*
X2203303D02*
X2156652D01*
X2203303Y801663D01*
Y813326D01*
X2191641Y824989D01*
X2168315D01*
X2156652Y813326D01*
X1728360Y2715011D02*
Y2784989D01*
X1751685Y2761663D01*
X1775011Y2784989D01*
Y2715011D01*
X1798337Y2784989D02*
Y2715011D01*
Y2750000D01*
X1844989D01*
Y2784989D01*
Y2715011D01*
X1868315D02*
X1891640D01*
X1879977D01*
Y2784989D01*
X1868315Y2773326D01*
X226697Y1924989D02*
Y1855011D01*
X273348D01*
X296674Y1913326D02*
X308337Y1924989D01*
X331663D01*
X343326Y1913326D01*
Y1866674D01*
X331663Y1855011D01*
X308337D01*
X296674Y1866674D01*
Y1913326D01*
X413303Y1855011D02*
X366652D01*
X413303Y1901663D01*
Y1913326D01*
X401641Y1924989D01*
X378315D01*
X366652Y1913326D01*
X3875011Y1013348D02*
X3944988D01*
Y1060000D01*
Y1083326D02*
Y1106652D01*
Y1094989D01*
X3875011D01*
X3886674Y1083326D01*
X1468360Y2334989D02*
Y2265011D01*
X1515011D01*
X1538337Y2323326D02*
X1550000Y2334989D01*
X1573326D01*
X1584989Y2323326D01*
Y2276674D01*
X1573326Y2265011D01*
X1550000D01*
X1538337Y2276674D01*
Y2323326D01*
X1608315Y2265011D02*
X1631640D01*
X1619977D01*
Y2334989D01*
X1608315Y2323326D01*
X741685Y274989D02*
Y205011D01*
X776674D01*
X788337Y216674D01*
Y263326D01*
X776674Y274989D01*
X741685D01*
X858315D02*
X811663D01*
Y240000D01*
X834989Y251663D01*
X846652D01*
X858315Y240000D01*
Y216674D01*
X846652Y205011D01*
X823326D01*
X811663Y216674D01*
X5721686Y814989D02*
Y745011D01*
X5756674D01*
X5768337Y756674D01*
Y803326D01*
X5756674Y814989D01*
X5721686D01*
X5826652Y745011D02*
Y814989D01*
X5791663Y780000D01*
X5838315D01*
X5721686Y204989D02*
Y135011D01*
X5756674D01*
X5768337Y146674D01*
Y193326D01*
X5756674Y204989D01*
X5721686D01*
X5791663Y193326D02*
X5803326Y204989D01*
X5826652D01*
X5838315Y193326D01*
Y181663D01*
X5826652Y170000D01*
X5814989D01*
X5826652D01*
X5838315Y158337D01*
Y146674D01*
X5826652Y135011D01*
X5803326D01*
X5791663Y146674D01*
X6195011Y891685D02*
X6264988D01*
Y926674D01*
X6253325Y938337D01*
X6206674D01*
X6195011Y926674D01*
Y891685D01*
X6264988Y1008314D02*
Y961663D01*
X6218337Y1008314D01*
X6206674D01*
X6195011Y996652D01*
Y973326D01*
X6206674Y961663D01*
X1556697Y1854989D02*
Y1785011D01*
X1591685D01*
X1603348Y1796674D01*
Y1843326D01*
X1591685Y1854989D01*
X1556697D01*
X1626674Y1843326D02*
X1638337Y1854989D01*
X1661663D01*
X1673326Y1843326D01*
Y1796674D01*
X1661663Y1785011D01*
X1638337D01*
X1626674Y1796674D01*
Y1843326D01*
X1743303Y1785011D02*
X1696652D01*
X1743303Y1831663D01*
Y1843326D01*
X1731640Y1854989D01*
X1708315D01*
X1696652Y1843326D01*
X4415740Y1044017D02*
Y974040D01*
X4450729D01*
X4462392Y985703D01*
Y1032355D01*
X4450729Y1044017D01*
X4415740D01*
X4485717Y974040D02*
X4509043D01*
X4497380D01*
Y1044017D01*
X4485717Y1032355D01*
X2546674Y623348D02*
X2535011Y611685D01*
Y588360D01*
X2546674Y576697D01*
X2593326D01*
X2604989Y588360D01*
Y611685D01*
X2593326Y623348D01*
X2604989Y693326D02*
Y646674D01*
X2558337Y693326D01*
X2546674D01*
X2535011Y681663D01*
Y658337D01*
X2546674Y646674D01*
Y716652D02*
X2535011Y728315D01*
Y751640D01*
X2546674Y763303D01*
X2558337D01*
X2570000Y751640D01*
Y739977D01*
Y751640D01*
X2581663Y763303D01*
X2593326D01*
X2604989Y751640D01*
Y728315D01*
X2593326Y716652D01*
X4046674Y1563348D02*
X4035011Y1551685D01*
Y1528360D01*
X4046674Y1516697D01*
X4093326D01*
X4104989Y1528360D01*
Y1551685D01*
X4093326Y1563348D01*
X4104989Y1633326D02*
Y1586674D01*
X4058337Y1633326D01*
X4046674D01*
X4035011Y1621663D01*
Y1598337D01*
X4046674Y1586674D01*
X4104989Y1703303D02*
Y1656652D01*
X4058337Y1703303D01*
X4046674D01*
X4035011Y1691641D01*
Y1668315D01*
X4046674Y1656652D01*
X2456674Y2115012D02*
X2445011Y2103349D01*
Y2080023D01*
X2456674Y2068360D01*
X2503326D01*
X2514989Y2080023D01*
Y2103349D01*
X2503326Y2115012D01*
X2514989Y2184989D02*
Y2138337D01*
X2468337Y2184989D01*
X2456674D01*
X2445011Y2173326D01*
Y2150000D01*
X2456674Y2138337D01*
X2514989Y2208315D02*
Y2231641D01*
Y2219978D01*
X2445011D01*
X2456674Y2208315D01*
X5553348Y2853326D02*
X5541685Y2864989D01*
X5518360D01*
X5506697Y2853326D01*
Y2806674D01*
X5518360Y2795011D01*
X5541685D01*
X5553348Y2806674D01*
X5623326Y2795011D02*
X5576674D01*
X5623326Y2841663D01*
Y2853326D01*
X5611663Y2864989D01*
X5588337D01*
X5576674Y2853326D01*
X5646652D02*
X5658315Y2864989D01*
X5681640D01*
X5693303Y2853326D01*
Y2806674D01*
X5681640Y2795011D01*
X5658315D01*
X5646652Y2806674D01*
Y2853326D01*
X5106674Y2229180D02*
X5095011Y2217517D01*
Y2194191D01*
X5106674Y2182528D01*
X5153325D01*
X5164988Y2194191D01*
Y2217517D01*
X5153325Y2229180D01*
X5164988Y2252506D02*
Y2275831D01*
Y2264168D01*
X5095011D01*
X5106674Y2252506D01*
X5153325Y2310820D02*
X5164988Y2322483D01*
Y2345809D01*
X5153325Y2357472D01*
X5106674D01*
X5095011Y2345809D01*
Y2322483D01*
X5106674Y2310820D01*
X5118337D01*
X5130000Y2322483D01*
Y2357472D01*
X2936674Y1419180D02*
X2925011Y1407517D01*
Y1384191D01*
X2936674Y1372528D01*
X2983326D01*
X2994988Y1384191D01*
Y1407517D01*
X2983326Y1419180D01*
X2994988Y1442505D02*
Y1465831D01*
Y1454168D01*
X2925011D01*
X2936674Y1442505D01*
X2925011Y1500820D02*
Y1547472D01*
X2936674D01*
X2983326Y1500820D01*
X2994988D01*
X6049180Y2713326D02*
X6037517Y2724989D01*
X6014191D01*
X6002528Y2713326D01*
Y2666674D01*
X6014191Y2655011D01*
X6037517D01*
X6049180Y2666674D01*
X6072506Y2655011D02*
X6095832D01*
X6084169D01*
Y2724989D01*
X6072506Y2713326D01*
X6177472Y2724989D02*
X6154146Y2713326D01*
X6130820Y2690000D01*
Y2666674D01*
X6142483Y2655011D01*
X6165809D01*
X6177472Y2666674D01*
Y2678337D01*
X6165809Y2690000D01*
X6130820D01*
X2906674Y579180D02*
X2895011Y567517D01*
Y544191D01*
X2906674Y532528D01*
X2953326D01*
X2964988Y544191D01*
Y567517D01*
X2953326Y579180D01*
X2964988Y602506D02*
Y625831D01*
Y614168D01*
X2895011D01*
X2906674Y602506D01*
X2895011Y707472D02*
Y660820D01*
X2930000D01*
X2918337Y684146D01*
Y695809D01*
X2930000Y707472D01*
X2953326D01*
X2964988Y695809D01*
Y672483D01*
X2953326Y660820D01*
X2726674Y639180D02*
X2715011Y627517D01*
Y604191D01*
X2726674Y592528D01*
X2773326D01*
X2784989Y604191D01*
Y627517D01*
X2773326Y639180D01*
X2784989Y662506D02*
Y685831D01*
Y674169D01*
X2715011D01*
X2726674Y662506D01*
X2784989Y755809D02*
X2715011D01*
X2750000Y720820D01*
Y767472D01*
X4886674Y729180D02*
X4875011Y717517D01*
Y694191D01*
X4886674Y682528D01*
X4933326D01*
X4944989Y694191D01*
Y717517D01*
X4933326Y729180D01*
X4944989Y752506D02*
Y775832D01*
Y764169D01*
X4875011D01*
X4886674Y752506D01*
Y810820D02*
X4875011Y822483D01*
Y845809D01*
X4886674Y857472D01*
X4898337D01*
X4910000Y845809D01*
Y834146D01*
Y845809D01*
X4921663Y857472D01*
X4933326D01*
X4944989Y845809D01*
Y822483D01*
X4933326Y810820D01*
X5486674Y689180D02*
X5475011Y677517D01*
Y654191D01*
X5486674Y642528D01*
X5533326D01*
X5544989Y654191D01*
Y677517D01*
X5533326Y689180D01*
X5544989Y712506D02*
Y735832D01*
Y724169D01*
X5475011D01*
X5486674Y712506D01*
X5544989Y817472D02*
Y770820D01*
X5498337Y817472D01*
X5486674D01*
X5475011Y805809D01*
Y782483D01*
X5486674Y770820D01*
X5286674Y2110843D02*
X5275011Y2099180D01*
Y2075854D01*
X5286674Y2064191D01*
X5333326D01*
X5344989Y2075854D01*
Y2099180D01*
X5333326Y2110843D01*
X5344989Y2134169D02*
Y2157495D01*
Y2145832D01*
X5275011D01*
X5286674Y2134169D01*
X5344989Y2192483D02*
Y2215809D01*
Y2204146D01*
X5275011D01*
X5286674Y2192483D01*
X5419180Y1793326D02*
X5407517Y1804989D01*
X5384191D01*
X5372528Y1793326D01*
Y1746674D01*
X5384191Y1735011D01*
X5407517D01*
X5419180Y1746674D01*
X5442506Y1735011D02*
X5465832D01*
X5454169D01*
Y1804989D01*
X5442506Y1793326D01*
X5500820D02*
X5512483Y1804989D01*
X5535809D01*
X5547472Y1793326D01*
Y1746674D01*
X5535809Y1735011D01*
X5512483D01*
X5500820Y1746674D01*
Y1793326D01*
X3688337Y1103326D02*
X3676674Y1114989D01*
X3653348D01*
X3641685Y1103326D01*
Y1056674D01*
X3653348Y1045011D01*
X3676674D01*
X3688337Y1056674D01*
X3711663D02*
X3723326Y1045011D01*
X3746652D01*
X3758315Y1056674D01*
Y1103326D01*
X3746652Y1114989D01*
X3723326D01*
X3711663Y1103326D01*
Y1091663D01*
X3723326Y1080000D01*
X3758315D01*
X646674Y843348D02*
X635011Y831685D01*
Y808359D01*
X646674Y796696D01*
X693326D01*
X704988Y808359D01*
Y831685D01*
X693326Y843348D01*
X646674Y866674D02*
X635011Y878337D01*
Y901663D01*
X646674Y913326D01*
X693326D01*
X704988Y901663D01*
Y878337D01*
X693326Y866674D01*
X646674D01*
X693326Y936651D02*
X704988Y948314D01*
Y971640D01*
X693326Y983303D01*
X646674D01*
X635011Y971640D01*
Y948314D01*
X646674Y936651D01*
X658337D01*
X670000Y948314D01*
Y983303D01*
X5158337Y1163326D02*
X5146674Y1174989D01*
X5123348D01*
X5111685Y1163326D01*
Y1116674D01*
X5123348Y1105011D01*
X5146674D01*
X5158337Y1116674D01*
X5181663Y1163326D02*
X5193326Y1174989D01*
X5216652D01*
X5228315Y1163326D01*
Y1151663D01*
X5216652Y1140000D01*
X5228315Y1128337D01*
Y1116674D01*
X5216652Y1105011D01*
X5193326D01*
X5181663Y1116674D01*
Y1128337D01*
X5193326Y1140000D01*
X5181663Y1151663D01*
Y1163326D01*
X5193326Y1140000D02*
X5216652D01*
X1756674Y883348D02*
X1745011Y871685D01*
Y848359D01*
X1756674Y836697D01*
X1803326D01*
X1814989Y848359D01*
Y871685D01*
X1803326Y883348D01*
X1756674Y906674D02*
X1745011Y918337D01*
Y941663D01*
X1756674Y953326D01*
X1803326D01*
X1814989Y941663D01*
Y918337D01*
X1803326Y906674D01*
X1756674D01*
Y976652D02*
X1745011Y988315D01*
Y1011640D01*
X1756674Y1023303D01*
X1768337D01*
X1780000Y1011640D01*
X1791663Y1023303D01*
X1803326D01*
X1814989Y1011640D01*
Y988315D01*
X1803326Y976652D01*
X1791663D01*
X1780000Y988315D01*
X1768337Y976652D01*
X1756674D01*
X1780000Y988315D02*
Y1011640D01*
X5266674Y888337D02*
X5255011Y876674D01*
Y853349D01*
X5266674Y841686D01*
X5313326D01*
X5324989Y853349D01*
Y876674D01*
X5313326Y888337D01*
X5255011Y911663D02*
Y958315D01*
X5266674D01*
X5313326Y911663D01*
X5324989D01*
X1876674Y883348D02*
X1865011Y871685D01*
Y848359D01*
X1876674Y836696D01*
X1923326D01*
X1934989Y848359D01*
Y871685D01*
X1923326Y883348D01*
X1876674Y906674D02*
X1865011Y918337D01*
Y941663D01*
X1876674Y953326D01*
X1923326D01*
X1934989Y941663D01*
Y918337D01*
X1923326Y906674D01*
X1876674D01*
X1865011Y976651D02*
Y1023303D01*
X1876674D01*
X1923326Y976651D01*
X1934989D01*
X4330312Y2360775D02*
X4318649Y2372437D01*
X4295323D01*
X4283660Y2360775D01*
Y2314123D01*
X4295323Y2302460D01*
X4318649D01*
X4330312Y2314123D01*
X4400289Y2372437D02*
X4376963Y2360775D01*
X4353637Y2337449D01*
Y2314123D01*
X4365300Y2302460D01*
X4388626D01*
X4400289Y2314123D01*
Y2325786D01*
X4388626Y2337449D01*
X4353637D01*
X1836674Y1503348D02*
X1825011Y1491685D01*
Y1468360D01*
X1836674Y1456697D01*
X1883325D01*
X1894988Y1468360D01*
Y1491685D01*
X1883325Y1503348D01*
X1836674Y1526674D02*
X1825011Y1538337D01*
Y1561663D01*
X1836674Y1573326D01*
X1883325D01*
X1894988Y1561663D01*
Y1538337D01*
X1883325Y1526674D01*
X1836674D01*
X1825011Y1643303D02*
X1836674Y1619977D01*
X1860000Y1596652D01*
X1883325D01*
X1894988Y1608315D01*
Y1631640D01*
X1883325Y1643303D01*
X1871663D01*
X1860000Y1631640D01*
Y1596652D01*
X4108337Y2473326D02*
X4096674Y2484989D01*
X4073348D01*
X4061685Y2473326D01*
Y2426674D01*
X4073348Y2415011D01*
X4096674D01*
X4108337Y2426674D01*
X4178314Y2484989D02*
X4131663D01*
Y2450000D01*
X4154989Y2461663D01*
X4166652D01*
X4178314Y2450000D01*
Y2426674D01*
X4166652Y2415011D01*
X4143326D01*
X4131663Y2426674D01*
X1193348Y1513326D02*
X1181685Y1524989D01*
X1158360D01*
X1146697Y1513326D01*
Y1466674D01*
X1158360Y1455011D01*
X1181685D01*
X1193348Y1466674D01*
X1216674Y1513326D02*
X1228337Y1524989D01*
X1251663D01*
X1263326Y1513326D01*
Y1466674D01*
X1251663Y1455011D01*
X1228337D01*
X1216674Y1466674D01*
Y1513326D01*
X1333303Y1524989D02*
X1286652D01*
Y1490000D01*
X1309978Y1501663D01*
X1321640D01*
X1333303Y1490000D01*
Y1466674D01*
X1321640Y1455011D01*
X1298315D01*
X1286652Y1466674D01*
X283348Y2113326D02*
X271686Y2124989D01*
X248360D01*
X236697Y2113326D01*
Y2066674D01*
X248360Y2055011D01*
X271686D01*
X283348Y2066674D01*
X306674Y2113326D02*
X318337Y2124989D01*
X341663D01*
X353326Y2113326D01*
Y2066674D01*
X341663Y2055011D01*
X318337D01*
X306674Y2066674D01*
Y2113326D01*
X411641Y2055011D02*
Y2124989D01*
X376652Y2090000D01*
X423303D01*
X273348Y2573326D02*
X261686Y2584989D01*
X238360D01*
X226697Y2573326D01*
Y2526674D01*
X238360Y2515011D01*
X261686D01*
X273348Y2526674D01*
X296674Y2573326D02*
X308337Y2584989D01*
X331663D01*
X343326Y2573326D01*
Y2526674D01*
X331663Y2515011D01*
X308337D01*
X296674Y2526674D01*
Y2573326D01*
X366652D02*
X378315Y2584989D01*
X401641D01*
X413303Y2573326D01*
Y2561663D01*
X401641Y2550000D01*
X389978D01*
X401641D01*
X413303Y2538337D01*
Y2526674D01*
X401641Y2515011D01*
X378315D01*
X366652Y2526674D01*
X3388337Y1923326D02*
X3376674Y1934989D01*
X3353348D01*
X3341685Y1923326D01*
Y1876674D01*
X3353348Y1865011D01*
X3376674D01*
X3388337Y1876674D01*
X3458315Y1865011D02*
X3411663D01*
X3458315Y1911663D01*
Y1923326D01*
X3446652Y1934989D01*
X3423326D01*
X3411663Y1923326D01*
X346674Y1533348D02*
X335011Y1521685D01*
Y1498359D01*
X346674Y1486697D01*
X393325D01*
X404988Y1498359D01*
Y1521685D01*
X393325Y1533348D01*
X346674Y1556674D02*
X335011Y1568337D01*
Y1591663D01*
X346674Y1603326D01*
X393325D01*
X404988Y1591663D01*
Y1568337D01*
X393325Y1556674D01*
X346674D01*
X404988Y1673303D02*
Y1626652D01*
X358337Y1673303D01*
X346674D01*
X335011Y1661640D01*
Y1638314D01*
X346674Y1626652D01*
X3400000Y2183326D02*
X3388337Y2194989D01*
X3365011D01*
X3353348Y2183326D01*
Y2136674D01*
X3365011Y2125011D01*
X3388337D01*
X3400000Y2136674D01*
X3423326Y2125011D02*
X3446652D01*
X3434989D01*
Y2194989D01*
X3423326Y2183326D01*
D61*
X650000Y1740000D02*
G03*
X650000Y1740000I-10000J0D01*
G01*
D62*
X1502500Y1720000D02*
Y1800000D01*
X1437500Y1720000D02*
Y1800000D01*
X1230000Y1650000D02*
X1340000D01*
X1205000Y1812500D02*
Y1835000D01*
Y1765000D02*
Y1812500D01*
X1340000Y1650000D02*
Y1725000D01*
X1230000Y1950000D02*
X1340000D01*
Y1875000D02*
Y1950000D01*
D73*
X5490000Y2450000D02*
G03*
X5490000Y2450000I-12500J0D01*
G01*
X5777501Y2560001D02*
G03*
X5777501Y2560001I-12500J0D01*
G01*
X5032500Y332500D02*
G03*
X5032500Y332500I-12500J0D01*
G01*
X4772475Y537500D02*
G03*
X4772475Y537500I-12500J0D01*
G01*
X2910000Y2285001D02*
G03*
X2910000Y2285001I-10000J0D01*
G01*
X4304975Y1915050D02*
G03*
X4304975Y1915050I-12500J0D01*
G01*
D74*
X730000Y1290000D02*
G03*
X730000Y1290000I-10000J0D01*
G01*
X1180000Y1370000D02*
X1210000D01*
Y1340000D02*
Y1370000D01*
X810000D02*
X840000D01*
X810000Y1340000D02*
Y1370000D01*
Y970000D02*
Y1000000D01*
Y970000D02*
X840000D01*
X1180000D02*
X1210000D01*
Y1000000D01*
X1300000Y2060000D02*
Y2210000D01*
X600000Y2060000D02*
X1300000D01*
Y2610000D02*
Y2760000D01*
X600000D02*
X1300000D01*
X600000Y2610000D02*
Y2760000D01*
Y2060000D02*
Y2210000D01*
D75*
X4537475Y1780050D02*
G03*
X4537475Y1780050I-30000J0D01*
G01*
%TF.MD5,82f0f3b33a850dfa1fe9c97c72071000*%
M02*
