%TF.GenerationSoftware,Altium Limited,Altium Designer,20.2.6 (244)*%
G04 Layer_Physical_Order=3*
G04 Layer_Color=16440176*
%FSLAX45Y45*%
%MOMM*%
%TF.SameCoordinates,BE144905-350C-4E41-9AB6-63F68E724E9C*%
%TF.FilePolarity,Positive*%
%TF.FileFunction,Copper,L3,Inr,Signal*%
%TF.Part,Single*%
G01*
G75*
%TA.AperFunction,Conductor*%
%ADD45C,0.30000*%
%TA.AperFunction,ComponentPad*%
%ADD50C,1.10000*%
%ADD51R,1.10000X1.10000*%
G04:AMPARAMS|DCode=52|XSize=1.1mm|YSize=1.1mm|CornerRadius=0.275mm|HoleSize=0mm|Usage=FLASHONLY|Rotation=270.000|XOffset=0mm|YOffset=0mm|HoleType=Round|Shape=RoundedRectangle|*
%AMROUNDEDRECTD52*
21,1,1.10000,0.55000,0,0,270.0*
21,1,0.55000,1.10000,0,0,270.0*
1,1,0.55000,-0.27500,-0.27500*
1,1,0.55000,-0.27500,0.27500*
1,1,0.55000,0.27500,0.27500*
1,1,0.55000,0.27500,-0.27500*
%
%ADD52ROUNDEDRECTD52*%
G04:AMPARAMS|DCode=53|XSize=1.1mm|YSize=1.1mm|CornerRadius=0.1375mm|HoleSize=0mm|Usage=FLASHONLY|Rotation=270.000|XOffset=0mm|YOffset=0mm|HoleType=Round|Shape=RoundedRectangle|*
%AMROUNDEDRECTD53*
21,1,1.10000,0.82500,0,0,270.0*
21,1,0.82500,1.10000,0,0,270.0*
1,1,0.27500,-0.41250,-0.41250*
1,1,0.27500,-0.41250,0.41250*
1,1,0.27500,0.41250,0.41250*
1,1,0.27500,0.41250,-0.41250*
%
%ADD53ROUNDEDRECTD53*%
%ADD54O,2.80000X1.40000*%
%ADD55R,1.10000X1.10000*%
%TA.AperFunction,ViaPad*%
%ADD56C,0.65000*%
G36*
X3900000Y1050000D02*
X2250000D01*
Y1569447D01*
X2259272Y1574402D01*
X2262700Y1575011D01*
X2280000Y1571569D01*
X2298534Y1575256D01*
X2314246Y1585755D01*
X2324744Y1601466D01*
X2328431Y1620000D01*
X2324744Y1638534D01*
X2314246Y1654246D01*
X2298534Y1664744D01*
X2280000Y1668431D01*
X2262700Y1664990D01*
X2259272Y1665598D01*
X2250000Y1670553D01*
Y1753254D01*
X2255638Y1763619D01*
X2255639Y1763619D01*
Y1763619D01*
X2262700Y1764314D01*
X2262867Y1763475D01*
X2265256Y1751466D01*
X2275754Y1735754D01*
X2291466Y1725256D01*
X2310000Y1721569D01*
X2328534Y1725256D01*
X2333270Y1728421D01*
X2342426Y1719265D01*
X2335256Y1708534D01*
X2331569Y1690000D01*
X2335256Y1671466D01*
X2345755Y1655754D01*
X2361466Y1645256D01*
X2380000Y1641569D01*
X2398534Y1645256D01*
X2414246Y1655754D01*
X2424744Y1671466D01*
X2428431Y1690000D01*
X2424744Y1708534D01*
X2414246Y1724245D01*
X2398534Y1734744D01*
X2380000Y1738431D01*
X2361466Y1734744D01*
X2356730Y1731579D01*
X2347574Y1740735D01*
X2354744Y1751466D01*
X2358431Y1770000D01*
X2354744Y1788534D01*
X2344246Y1804246D01*
X2328534Y1814744D01*
X2310000Y1818431D01*
X2291466Y1814744D01*
X2275754Y1804246D01*
X2265256Y1788534D01*
X2262867Y1776526D01*
X2262700Y1775686D01*
X2255639Y1776381D01*
Y1776381D01*
X2255638Y1776381D01*
X2250000Y1786746D01*
Y2470000D01*
X3900000D01*
Y1050000D01*
D02*
G37*
G36*
X5690000Y730000D02*
X5005633D01*
X4998534Y734744D01*
X4980000Y738431D01*
X4961466Y734744D01*
X4954367Y730000D01*
X4480000D01*
Y470000D01*
X4325633D01*
X4318534Y474744D01*
X4300000Y478431D01*
X4281466Y474744D01*
X4274367Y470000D01*
X4193765D01*
X4184246Y484246D01*
X4168534Y494744D01*
X4150000Y498431D01*
X4131466Y494744D01*
X4115755Y484246D01*
X4106236Y470000D01*
X4030000D01*
Y1694367D01*
X4034744Y1701466D01*
X4038431Y1720000D01*
X4034744Y1738534D01*
X4030000Y1745634D01*
Y2600000D01*
X5690000D01*
Y730000D01*
D02*
G37*
%LPC*%
G36*
X3780000Y2358431D02*
X3761466Y2354744D01*
X3745755Y2344246D01*
X3735256Y2328534D01*
X3731569Y2310000D01*
X3735256Y2291466D01*
X3745755Y2275754D01*
X3761466Y2265256D01*
X3780000Y2261569D01*
X3798534Y2265256D01*
X3814246Y2275754D01*
X3824744Y2291466D01*
X3828431Y2310000D01*
X3824744Y2328534D01*
X3814246Y2344246D01*
X3798534Y2354744D01*
X3780000Y2358431D01*
D02*
G37*
G36*
X2650000Y2148431D02*
X2631466Y2144744D01*
X2615754Y2134246D01*
X2605256Y2118534D01*
X2601569Y2100000D01*
X2605256Y2081466D01*
X2615754Y2065755D01*
X2631466Y2055256D01*
X2650000Y2051569D01*
X2668534Y2055256D01*
X2684246Y2065755D01*
X2694744Y2081466D01*
X2698431Y2100000D01*
X2694744Y2118534D01*
X2684246Y2134246D01*
X2668534Y2144744D01*
X2650000Y2148431D01*
D02*
G37*
G36*
X2490000Y1818431D02*
X2471466Y1814744D01*
X2455755Y1804246D01*
X2445256Y1788534D01*
X2441569Y1770000D01*
X2445256Y1751466D01*
X2455755Y1735754D01*
X2471466Y1725256D01*
X2490000Y1721569D01*
X2508534Y1725256D01*
X2524246Y1735754D01*
X2534744Y1751466D01*
X2538431Y1770000D01*
X2534744Y1788534D01*
X2524246Y1804246D01*
X2508534Y1814744D01*
X2490000Y1818431D01*
D02*
G37*
G36*
X4380000Y2478431D02*
X4361466Y2474744D01*
X4345754Y2464246D01*
X4335256Y2448534D01*
X4331569Y2430000D01*
X4335256Y2411466D01*
X4345754Y2395754D01*
X4361466Y2385256D01*
X4380000Y2381569D01*
X4398533Y2385256D01*
X4414245Y2395754D01*
X4424744Y2411466D01*
X4428431Y2430000D01*
X4424744Y2448534D01*
X4414245Y2464246D01*
X4398533Y2474744D01*
X4380000Y2478431D01*
D02*
G37*
G36*
X4570000Y2460931D02*
X4551466Y2457244D01*
X4535754Y2446746D01*
X4525256Y2431034D01*
X4521569Y2412500D01*
X4525256Y2393967D01*
X4535754Y2378255D01*
X4551466Y2367756D01*
X4570000Y2364069D01*
X4588534Y2367756D01*
X4604246Y2378255D01*
X4614744Y2393967D01*
X4618431Y2412500D01*
X4614744Y2431034D01*
X4604246Y2446746D01*
X4588534Y2457244D01*
X4570000Y2460931D01*
D02*
G37*
G36*
X4450000Y2388431D02*
X4431466Y2384744D01*
X4415754Y2374245D01*
X4405256Y2358534D01*
X4401569Y2340000D01*
X4405256Y2321466D01*
X4415754Y2305754D01*
X4431466Y2295256D01*
X4450000Y2291569D01*
X4468534Y2295256D01*
X4484246Y2305754D01*
X4494744Y2321466D01*
X4498431Y2340000D01*
X4494744Y2358534D01*
X4484246Y2374245D01*
X4468534Y2384744D01*
X4450000Y2388431D01*
D02*
G37*
G36*
X4310000Y2358431D02*
X4291466Y2354744D01*
X4275754Y2344246D01*
X4265256Y2328534D01*
X4261569Y2310000D01*
X4265256Y2291466D01*
X4275754Y2275754D01*
X4291466Y2265256D01*
X4310000Y2261569D01*
X4328534Y2265256D01*
X4344246Y2275754D01*
X4354744Y2291466D01*
X4358431Y2310000D01*
X4354744Y2328534D01*
X4344246Y2344246D01*
X4328534Y2354744D01*
X4310000Y2358431D01*
D02*
G37*
G36*
X4980000Y2238431D02*
X4961466Y2234744D01*
X4945754Y2224245D01*
X4935256Y2208534D01*
X4931569Y2190000D01*
X4935256Y2171466D01*
X4945754Y2155754D01*
X4961466Y2145256D01*
X4980000Y2141569D01*
X4998534Y2145256D01*
X5014245Y2155754D01*
X5024744Y2171466D01*
X5028431Y2190000D01*
X5024744Y2208534D01*
X5014245Y2224245D01*
X4998534Y2234744D01*
X4980000Y2238431D01*
D02*
G37*
G36*
X5140000Y2158431D02*
X5121466Y2154744D01*
X5105754Y2144246D01*
X5095256Y2128534D01*
X5091569Y2110000D01*
X5095256Y2091466D01*
X5105754Y2075755D01*
X5121466Y2065256D01*
X5140000Y2061569D01*
X5158533Y2065256D01*
X5174245Y2075755D01*
X5184744Y2091466D01*
X5188431Y2110000D01*
X5184744Y2128534D01*
X5174245Y2144246D01*
X5158533Y2154744D01*
X5140000Y2158431D01*
D02*
G37*
G36*
X5600000Y1968431D02*
X5581466Y1964744D01*
X5565754Y1954246D01*
X5555256Y1938534D01*
X5551569Y1920000D01*
X5555256Y1901466D01*
X5565754Y1885754D01*
X5581466Y1875256D01*
X5600000Y1871569D01*
X5618534Y1875256D01*
X5634246Y1885754D01*
X5644744Y1901466D01*
X5648431Y1920000D01*
X5644744Y1938534D01*
X5634246Y1954246D01*
X5618534Y1964744D01*
X5600000Y1968431D01*
D02*
G37*
G36*
X4980000Y1888431D02*
X4961466Y1884744D01*
X4945754Y1874245D01*
X4935256Y1858533D01*
X4931569Y1840000D01*
X4935256Y1821466D01*
X4945754Y1805754D01*
X4961466Y1795256D01*
X4980000Y1791569D01*
X4998534Y1795256D01*
X5014245Y1805754D01*
X5024744Y1821466D01*
X5028431Y1840000D01*
X5024744Y1858533D01*
X5014245Y1874245D01*
X4998534Y1884744D01*
X4980000Y1888431D01*
D02*
G37*
G36*
X4480000D02*
X4461466Y1884744D01*
X4445754Y1874245D01*
X4435256Y1858533D01*
X4431569Y1840000D01*
X4435256Y1821466D01*
X4445754Y1805754D01*
X4461466Y1795256D01*
X4480000Y1791569D01*
X4498534Y1795256D01*
X4514245Y1805754D01*
X4524744Y1821466D01*
X4528431Y1840000D01*
X4524744Y1858533D01*
X4514245Y1874245D01*
X4498534Y1884744D01*
X4480000Y1888431D01*
D02*
G37*
G36*
X4810000Y1798431D02*
X4791466Y1794744D01*
X4775754Y1784246D01*
X4765256Y1768534D01*
X4761569Y1750000D01*
X4765256Y1731466D01*
X4775754Y1715755D01*
X4791466Y1705256D01*
X4810000Y1701569D01*
X4828534Y1705256D01*
X4844246Y1715755D01*
X4854744Y1731466D01*
X4858431Y1750000D01*
X4854744Y1768534D01*
X4844246Y1784246D01*
X4828534Y1794744D01*
X4810000Y1798431D01*
D02*
G37*
G36*
X4590000Y1758431D02*
X4571466Y1754744D01*
X4555754Y1744245D01*
X4545256Y1728533D01*
X4541569Y1710000D01*
X4545256Y1691466D01*
X4555754Y1675754D01*
X4571466Y1665256D01*
X4590000Y1661569D01*
X4608534Y1665256D01*
X4624246Y1675754D01*
X4634744Y1691466D01*
X4638431Y1710000D01*
X4634744Y1728533D01*
X4624246Y1744245D01*
X4608534Y1754744D01*
X4590000Y1758431D01*
D02*
G37*
G36*
X4570000Y1568431D02*
X4551466Y1564744D01*
X4535754Y1554246D01*
X4525256Y1538534D01*
X4521569Y1520000D01*
X4525256Y1501466D01*
X4535754Y1485754D01*
X4551466Y1475256D01*
X4570000Y1471569D01*
X4588534Y1475256D01*
X4604246Y1485754D01*
X4614744Y1501466D01*
X4618431Y1520000D01*
X4614744Y1538534D01*
X4604246Y1554246D01*
X4588534Y1564744D01*
X4570000Y1568431D01*
D02*
G37*
G36*
X4500000Y1480981D02*
X4481466Y1477294D01*
X4465754Y1466796D01*
X4455256Y1451084D01*
X4451569Y1432550D01*
X4455256Y1414017D01*
X4465754Y1398305D01*
X4481466Y1387806D01*
X4500000Y1384120D01*
X4518534Y1387806D01*
X4534245Y1398305D01*
X4544744Y1414017D01*
X4548431Y1432550D01*
X4544744Y1451084D01*
X4534245Y1466796D01*
X4518534Y1477294D01*
X4500000Y1480981D01*
D02*
G37*
G36*
X4460000Y1348431D02*
X4441466Y1344744D01*
X4425754Y1334245D01*
X4415256Y1318534D01*
X4411569Y1300000D01*
X4415256Y1281466D01*
X4425754Y1265754D01*
X4441466Y1255256D01*
X4460000Y1251569D01*
X4478534Y1255256D01*
X4494246Y1265754D01*
X4504744Y1281466D01*
X4508431Y1300000D01*
X4504744Y1318534D01*
X4494246Y1334245D01*
X4478534Y1344744D01*
X4460000Y1348431D01*
D02*
G37*
G36*
X4150000Y1258431D02*
X4131466Y1254744D01*
X4115755Y1244246D01*
X4105256Y1228534D01*
X4101569Y1210000D01*
X4105256Y1191467D01*
X4115755Y1175755D01*
X4131466Y1165256D01*
X4150000Y1161569D01*
X4168534Y1165256D01*
X4184246Y1175755D01*
X4194744Y1191467D01*
X4198431Y1210000D01*
X4194744Y1228534D01*
X4184246Y1244246D01*
X4168534Y1254744D01*
X4150000Y1258431D01*
D02*
G37*
G36*
X5600000Y1537000D02*
X5460000D01*
Y1397000D01*
X5469497D01*
X5475760Y1384300D01*
X5468855Y1375302D01*
X5461802Y1358274D01*
X5459396Y1340000D01*
X5461802Y1321727D01*
X5468855Y1304698D01*
X5480076Y1290076D01*
X5487515Y1284367D01*
Y1268633D01*
X5480076Y1262925D01*
X5468855Y1248302D01*
X5461802Y1231274D01*
X5459396Y1213000D01*
X5461802Y1194727D01*
X5468855Y1177698D01*
X5480076Y1163076D01*
X5494698Y1151855D01*
X5511727Y1144802D01*
X5530000Y1142396D01*
X5548274Y1144802D01*
X5565302Y1151855D01*
X5579925Y1163076D01*
X5591145Y1177698D01*
X5598198Y1194727D01*
X5600604Y1213000D01*
X5598198Y1231274D01*
X5591145Y1248302D01*
X5579925Y1262925D01*
X5572485Y1268633D01*
Y1284367D01*
X5579925Y1290076D01*
X5591145Y1304698D01*
X5598198Y1321727D01*
X5600604Y1340000D01*
X5598198Y1358274D01*
X5591145Y1375302D01*
X5584240Y1384300D01*
X5590503Y1397000D01*
X5600000D01*
Y1537000D01*
D02*
G37*
G36*
X4310000Y1178431D02*
X4291466Y1174744D01*
X4275754Y1164246D01*
X4265256Y1148534D01*
X4261569Y1130000D01*
X4265256Y1111466D01*
X4275754Y1095754D01*
X4291466Y1085256D01*
X4310000Y1081569D01*
X4328534Y1085256D01*
X4344246Y1095754D01*
X4354744Y1111466D01*
X4358431Y1130000D01*
X4354744Y1148534D01*
X4344246Y1164246D01*
X4328534Y1174744D01*
X4310000Y1178431D01*
D02*
G37*
G36*
X4770000Y1028431D02*
X4751466Y1024744D01*
X4735755Y1014246D01*
X4725256Y998534D01*
X4721569Y980000D01*
X4725256Y961466D01*
X4735755Y945755D01*
X4751466Y935256D01*
X4770000Y931569D01*
X4788534Y935256D01*
X4804246Y945755D01*
X4814744Y961466D01*
X4818431Y980000D01*
X4814744Y998534D01*
X4804246Y1014246D01*
X4788534Y1024744D01*
X4770000Y1028431D01*
D02*
G37*
G36*
X4890000Y998431D02*
X4871467Y994744D01*
X4855755Y984245D01*
X4845256Y968533D01*
X4841569Y950000D01*
X4845256Y931466D01*
X4855755Y915754D01*
X4871467Y905256D01*
X4890000Y901569D01*
X4908534Y905256D01*
X4924246Y915754D01*
X4934744Y931466D01*
X4938431Y950000D01*
X4934744Y968533D01*
X4924246Y984245D01*
X4908534Y994744D01*
X4890000Y998431D01*
D02*
G37*
%LPD*%
D45*
X3860000Y2520000D02*
X4230000D01*
X3770000Y2610000D02*
X3860000Y2520000D01*
X3190000Y2610000D02*
X3770000D01*
X5020000Y2730000D02*
X5450000D01*
D50*
X3856000Y2760000D02*
D03*
X3983000D02*
D03*
X4110000D02*
D03*
X4237000D02*
D03*
X4364000D02*
D03*
X5530000Y1213000D02*
D03*
Y1340000D02*
D03*
D51*
X4491000Y2760000D02*
D03*
D52*
X1056000Y190000D02*
D03*
X1183000D02*
D03*
X1310000D02*
D03*
X1437000D02*
D03*
D53*
X1564000D02*
D03*
D54*
X5931000Y1207500D02*
D03*
Y1922500D02*
D03*
D55*
X5530000Y1467000D02*
D03*
D56*
X3470000Y410000D02*
D03*
X3520000Y330000D02*
D03*
X4300000Y430000D02*
D03*
X4150000Y450000D02*
D03*
X4380000Y2430000D02*
D03*
X4310000Y2310000D02*
D03*
X4230000Y2520000D02*
D03*
X4570000Y1520000D02*
D03*
X4500000Y1432550D02*
D03*
X3400000Y320000D02*
D03*
X4770000Y980000D02*
D03*
X4890000Y950000D02*
D03*
X3910000Y860000D02*
D03*
X2930000Y560000D02*
D03*
X2760000Y590000D02*
D03*
X1150000Y1800000D02*
D03*
X1270000Y1660000D02*
D03*
X1060000Y1990000D02*
D03*
X1050000Y630000D02*
D03*
X1150000Y720000D02*
D03*
X1730000Y620000D02*
D03*
X1610000D02*
D03*
X1670000Y530000D02*
D03*
X1280000Y690000D02*
D03*
X1460000Y1150000D02*
D03*
X4910000Y2650000D02*
D03*
X4710000D02*
D03*
X570000Y2710000D02*
D03*
X460000D02*
D03*
X570000Y2810000D02*
D03*
X460000D02*
D03*
X550000Y2600000D02*
D03*
X6310000Y658431D02*
D03*
X6200000D02*
D03*
X6310000Y570000D02*
D03*
X6205684Y562699D02*
D03*
X3190000Y2610000D02*
D03*
X4570000Y2412500D02*
D03*
X1530000Y1630000D02*
D03*
X1680000D02*
D03*
X2340000Y1970000D02*
D03*
X4450000Y2340000D02*
D03*
X4310000Y1980000D02*
D03*
X4270000Y2090000D02*
D03*
X4310000Y570000D02*
D03*
Y690000D02*
D03*
Y800000D02*
D03*
X4980000Y690000D02*
D03*
X5090000Y650000D02*
D03*
X5300000D02*
D03*
X5430000D02*
D03*
X6200000Y340000D02*
D03*
X6130000Y220000D02*
D03*
X6020000Y170000D02*
D03*
X6260000Y1700000D02*
D03*
Y1440000D02*
D03*
X6160000Y1730000D02*
D03*
X3410000Y2020000D02*
D03*
X3990000Y1720000D02*
D03*
X160000Y2560000D02*
D03*
Y2300000D02*
D03*
Y2040000D02*
D03*
Y1780000D02*
D03*
Y1520000D02*
D03*
Y1290000D02*
D03*
X190000Y1110000D02*
D03*
X450000Y1060000D02*
D03*
X580000Y1130000D02*
D03*
X680000Y1220000D02*
D03*
X690000Y1360000D02*
D03*
X520000Y710000D02*
D03*
X2380000Y1690000D02*
D03*
X2280000Y1620000D02*
D03*
X2310000Y1770000D02*
D03*
X6270000Y1220000D02*
D03*
Y1330000D02*
D03*
X6190000Y2380000D02*
D03*
X4980000Y1840000D02*
D03*
X4810000Y1750000D02*
D03*
X4590000Y1710000D02*
D03*
X4480000Y1840000D02*
D03*
X3780000Y2310000D02*
D03*
X3020000Y1630000D02*
D03*
X3540000Y1200000D02*
D03*
X3100000Y1130000D02*
D03*
X4060000Y1210000D02*
D03*
X4150000D02*
D03*
X690000Y580000D02*
D03*
Y710000D02*
D03*
X1030000Y1150000D02*
D03*
X290000Y940000D02*
D03*
X480000Y1200000D02*
D03*
X1140000Y830000D02*
D03*
X1380000Y1240000D02*
D03*
X1170000Y1590000D02*
D03*
X2440000Y450000D02*
D03*
X3720000Y700000D02*
D03*
X5000000Y220000D02*
D03*
X5330000Y810000D02*
D03*
X2650000Y2100000D02*
D03*
X5140000Y2110000D02*
D03*
X6030000Y2140000D02*
D03*
X4460000Y1300000D02*
D03*
X4310000Y1130000D02*
D03*
X5130000Y2650000D02*
D03*
X5740000Y2730000D02*
D03*
X5600000Y1920000D02*
D03*
X5610000Y2060000D02*
D03*
X2770000Y2050000D02*
D03*
X2490000Y1770000D02*
D03*
X5020000Y2730000D02*
D03*
X5450000D02*
D03*
X5840000Y2770000D02*
D03*
X4980000Y2190000D02*
D03*
X5940000Y2770000D02*
D03*
X5750000Y2350000D02*
D03*
%TF.MD5,9b393a9ab178ab8033cd9ca634a7cf5d*%
M02*
