%TF.GenerationSoftware,Altium Limited,Altium Designer,20.2.6 (244)*%
G04 Layer_Physical_Order=2*
G04 Layer_Color=36540*
%FSLAX45Y45*%
%MOMM*%
%TF.SameCoordinates,5B1E47F8-7F56-49C7-AB48-EE235D2752C7*%
%TF.FilePolarity,Positive*%
%TF.FileFunction,Copper,L2,Inr,Signal*%
%TF.Part,Single*%
G01*
G75*
%TA.AperFunction,ComponentPad*%
%ADD48C,3.50000*%
%ADD49C,1.10000*%
%ADD50R,1.10000X1.10000*%
G04:AMPARAMS|DCode=51|XSize=1.1mm|YSize=1.1mm|CornerRadius=0.275mm|HoleSize=0mm|Usage=FLASHONLY|Rotation=270.000|XOffset=0mm|YOffset=0mm|HoleType=Round|Shape=RoundedRectangle|*
%AMROUNDEDRECTD51*
21,1,1.10000,0.55000,0,0,270.0*
21,1,0.55000,1.10000,0,0,270.0*
1,1,0.55000,-0.27500,-0.27500*
1,1,0.55000,-0.27500,0.27500*
1,1,0.55000,0.27500,0.27500*
1,1,0.55000,0.27500,-0.27500*
%
%ADD51ROUNDEDRECTD51*%
G04:AMPARAMS|DCode=52|XSize=1.1mm|YSize=1.1mm|CornerRadius=0.1375mm|HoleSize=0mm|Usage=FLASHONLY|Rotation=270.000|XOffset=0mm|YOffset=0mm|HoleType=Round|Shape=RoundedRectangle|*
%AMROUNDEDRECTD52*
21,1,1.10000,0.82500,0,0,270.0*
21,1,0.82500,1.10000,0,0,270.0*
1,1,0.27500,-0.41250,-0.41250*
1,1,0.27500,-0.41250,0.41250*
1,1,0.27500,0.41250,0.41250*
1,1,0.27500,0.41250,-0.41250*
%
%ADD52ROUNDEDRECTD52*%
%ADD53O,2.80000X1.40000*%
%ADD54R,1.10000X1.10000*%
%TA.AperFunction,ViaPad*%
%ADD55C,0.65000*%
G36*
X5979158Y2890763D02*
X6037967Y2875302D01*
X6094248Y2852291D01*
X6147045Y2822123D01*
X6195448Y2785316D01*
X6238625Y2742504D01*
X6275840Y2694415D01*
X6306454Y2641876D01*
X6329941Y2585790D01*
X6345900Y2527115D01*
X6354057Y2466857D01*
X6354164Y2436481D01*
X6354164Y2436481D01*
X6354446Y2324560D01*
X6354449Y2324544D01*
X6354446Y2324528D01*
X6354781Y2236193D01*
X6354782Y2236187D01*
X6354781Y2236181D01*
X6358062Y1462194D01*
X6354781Y688206D01*
X6354782Y688198D01*
X6354781Y688191D01*
X6354371Y575820D01*
X6354374Y575803D01*
X6354371Y575787D01*
X6354164Y487902D01*
X6354164Y487901D01*
X6354054Y457532D01*
X6345894Y397277D01*
X6329932Y338604D01*
X6306442Y282517D01*
X6275828Y229982D01*
X6238612Y181895D01*
X6195435Y139082D01*
X6147034Y102275D01*
X6094242Y72108D01*
X6037958Y49094D01*
X5979154Y33630D01*
X5918830Y25981D01*
X5888429Y26128D01*
X5776538Y26794D01*
X5776522Y26791D01*
X5776506Y26795D01*
X5688171Y27209D01*
X5688165Y27208D01*
X5688160Y27209D01*
X2220000Y41903D01*
Y1260000D01*
X1800000D01*
Y52681D01*
X1791000Y43720D01*
X688206Y48392D01*
X688199Y48391D01*
X688191Y48392D01*
X575821Y48802D01*
X575804Y48799D01*
X575788Y48802D01*
X487903Y49009D01*
X487902Y49009D01*
X457532Y49118D01*
X397277Y57277D01*
X338603Y73238D01*
X282517Y96728D01*
X229980Y127342D01*
X181893Y164557D01*
X139080Y207734D01*
X102274Y256135D01*
X72105Y308930D01*
X49093Y365212D01*
X33630Y424019D01*
X25981Y484341D01*
X26129Y514744D01*
X26795Y626636D01*
X26792Y626651D01*
X26796Y626668D01*
X27210Y715002D01*
X27209Y715008D01*
X27210Y715014D01*
X30373Y1462086D01*
X30352Y1462194D01*
X30373Y1462302D01*
X27210Y2209373D01*
X27208Y2209381D01*
X27210Y2209389D01*
X26667Y2321759D01*
X26664Y2321775D01*
X26667Y2321792D01*
X26129Y2409644D01*
X25980Y2440047D01*
X33627Y2500370D01*
X49089Y2559176D01*
X72102Y2615461D01*
X102269Y2668255D01*
X139075Y2716656D01*
X181889Y2759834D01*
X229977Y2797050D01*
X282513Y2827663D01*
X338599Y2851151D01*
X397275Y2867112D01*
X457532Y2875270D01*
X487907Y2875378D01*
X487908Y2875378D01*
X599828Y2875660D01*
X599844Y2875663D01*
X599860Y2875660D01*
X688195Y2875995D01*
X688200Y2875996D01*
X688206Y2875995D01*
X1751001Y2880497D01*
X1760000Y2871536D01*
Y1510000D01*
X2220000D01*
Y1603249D01*
X2225624Y1613619D01*
X2225626Y1613619D01*
Y1613619D01*
X2232699Y1614316D01*
X2232868Y1613474D01*
X2235256Y1601466D01*
X2245754Y1585755D01*
X2261466Y1575256D01*
X2280000Y1571569D01*
X2298534Y1575256D01*
X2314246Y1585755D01*
X2324744Y1601466D01*
X2328431Y1620000D01*
X2324744Y1638534D01*
X2314246Y1654246D01*
X2298534Y1664744D01*
X2280000Y1668431D01*
X2261466Y1664744D01*
X2245754Y1654246D01*
X2235256Y1638534D01*
X2232868Y1626527D01*
X2232699Y1625684D01*
X2225626Y1626381D01*
Y1626381D01*
X2225625Y1626381D01*
X2220000Y1636751D01*
Y2882484D01*
X5688160Y2897178D01*
X5688167Y2897180D01*
X5688175Y2897178D01*
X5800545Y2897721D01*
X5800561Y2897724D01*
X5800578Y2897721D01*
X5888430Y2898259D01*
X5918833Y2898409D01*
X5979158Y2890763D01*
D02*
G37*
%LPC*%
G36*
X4237000Y2830604D02*
X4218726Y2828198D01*
X4201698Y2821145D01*
X4187075Y2809925D01*
X4181367Y2802485D01*
X4165633D01*
X4159924Y2809925D01*
X4145302Y2821145D01*
X4128273Y2828198D01*
X4110000Y2830604D01*
X4091726Y2828198D01*
X4074698Y2821145D01*
X4060075Y2809925D01*
X4054367Y2802485D01*
X4038633D01*
X4032924Y2809925D01*
X4018302Y2821145D01*
X4001273Y2828198D01*
X3983000Y2830604D01*
X3964726Y2828198D01*
X3947698Y2821145D01*
X3933075Y2809925D01*
X3927367Y2802485D01*
X3911633D01*
X3905924Y2809925D01*
X3891302Y2821145D01*
X3874273Y2828198D01*
X3856000Y2830604D01*
X3837726Y2828198D01*
X3820698Y2821145D01*
X3806075Y2809925D01*
X3794855Y2795302D01*
X3787802Y2778274D01*
X3785396Y2760000D01*
X3787802Y2741727D01*
X3794855Y2724698D01*
X3806075Y2710076D01*
X3820698Y2698855D01*
X3837726Y2691802D01*
X3856000Y2689396D01*
X3874273Y2691802D01*
X3891302Y2698855D01*
X3905924Y2710076D01*
X3911633Y2717515D01*
X3927367D01*
X3933075Y2710076D01*
X3947698Y2698855D01*
X3964726Y2691802D01*
X3983000Y2689396D01*
X4001273Y2691802D01*
X4018302Y2698855D01*
X4032924Y2710076D01*
X4038633Y2717515D01*
X4054367D01*
X4060075Y2710076D01*
X4074698Y2698855D01*
X4091726Y2691802D01*
X4110000Y2689396D01*
X4128273Y2691802D01*
X4145302Y2698855D01*
X4159924Y2710076D01*
X4165633Y2717515D01*
X4181367D01*
X4187075Y2710076D01*
X4201698Y2698855D01*
X4218726Y2691802D01*
X4237000Y2689396D01*
X4255273Y2691802D01*
X4272302Y2698855D01*
X4286924Y2710076D01*
X4298145Y2724698D01*
X4305198Y2741727D01*
X4307604Y2760000D01*
X4305198Y2778274D01*
X4298145Y2795302D01*
X4286924Y2809925D01*
X4272302Y2821145D01*
X4255273Y2828198D01*
X4237000Y2830604D01*
D02*
G37*
G36*
X5840000Y2818431D02*
X5821466Y2814744D01*
X5805754Y2804246D01*
X5795256Y2788534D01*
X5791569Y2770000D01*
X5795256Y2751466D01*
X5805754Y2735754D01*
X5821466Y2725256D01*
X5840000Y2721569D01*
X5858534Y2725256D01*
X5874246Y2735754D01*
X5884744Y2751466D01*
X5888431Y2770000D01*
X5884744Y2788534D01*
X5874246Y2804246D01*
X5858534Y2814744D01*
X5840000Y2818431D01*
D02*
G37*
G36*
X4561000Y2830000D02*
X4421000D01*
Y2690000D01*
X4561000D01*
Y2830000D01*
D02*
G37*
G36*
X5450000Y2778431D02*
X5431466Y2774744D01*
X5415754Y2764245D01*
X5405256Y2748533D01*
X5401569Y2730000D01*
X5405256Y2711466D01*
X5415754Y2695754D01*
X5431466Y2685256D01*
X5450000Y2681569D01*
X5468534Y2685256D01*
X5484246Y2695754D01*
X5494744Y2711466D01*
X5498431Y2730000D01*
X5494744Y2748533D01*
X5484246Y2764245D01*
X5468534Y2774744D01*
X5450000Y2778431D01*
D02*
G37*
G36*
X5020000D02*
X5001467Y2774744D01*
X4985755Y2764245D01*
X4975256Y2748533D01*
X4971569Y2730000D01*
X4975256Y2711466D01*
X4985755Y2695754D01*
X5001467Y2685256D01*
X5020000Y2681569D01*
X5038534Y2685256D01*
X5054246Y2695754D01*
X5064744Y2711466D01*
X5068431Y2730000D01*
X5064744Y2748533D01*
X5054246Y2764245D01*
X5038534Y2774744D01*
X5020000Y2778431D01*
D02*
G37*
G36*
X570000Y2858431D02*
X551466Y2854744D01*
X535754Y2844246D01*
X525256Y2828534D01*
X521569Y2810000D01*
X525256Y2791466D01*
X535754Y2775754D01*
X548773Y2767056D01*
X549792Y2762394D01*
Y2757606D01*
X548773Y2752944D01*
X535754Y2744245D01*
X525256Y2728534D01*
X521569Y2710000D01*
X525256Y2691466D01*
X535754Y2675754D01*
X551466Y2665256D01*
X570000Y2661569D01*
X588533Y2665256D01*
X604245Y2675754D01*
X614744Y2691466D01*
X618431Y2710000D01*
X614744Y2728534D01*
X604245Y2744245D01*
X591227Y2752944D01*
X590207Y2757606D01*
Y2762394D01*
X591227Y2767056D01*
X604245Y2775754D01*
X614744Y2791466D01*
X618431Y2810000D01*
X614744Y2828534D01*
X604245Y2844246D01*
X588533Y2854744D01*
X570000Y2858431D01*
D02*
G37*
G36*
X460000D02*
X441466Y2854744D01*
X425755Y2844246D01*
X415256Y2828534D01*
X411569Y2810000D01*
X415256Y2791466D01*
X425755Y2775754D01*
X438773Y2767056D01*
X439793Y2762394D01*
Y2757606D01*
X438773Y2752944D01*
X425755Y2744245D01*
X415256Y2728534D01*
X411569Y2710000D01*
X415256Y2691466D01*
X425755Y2675754D01*
X441466Y2665256D01*
X460000Y2661569D01*
X478534Y2665256D01*
X494246Y2675754D01*
X504744Y2691466D01*
X508431Y2710000D01*
X504744Y2728534D01*
X494246Y2744245D01*
X481227Y2752944D01*
X480208Y2757606D01*
Y2762394D01*
X481227Y2767056D01*
X494246Y2775754D01*
X504744Y2791466D01*
X508431Y2810000D01*
X504744Y2828534D01*
X494246Y2844246D01*
X478534Y2854744D01*
X460000Y2858431D01*
D02*
G37*
G36*
X550000Y2648431D02*
X531466Y2644744D01*
X515754Y2634245D01*
X507056Y2621227D01*
X502395Y2620208D01*
X497605D01*
X492944Y2621227D01*
X484246Y2634245D01*
X468534Y2644744D01*
X450000Y2648431D01*
X431466Y2644744D01*
X415755Y2634245D01*
X405256Y2618533D01*
X401569Y2600000D01*
X405256Y2581466D01*
X415755Y2565754D01*
X420420Y2562637D01*
Y2547363D01*
X415755Y2544246D01*
X405256Y2528534D01*
X401569Y2510000D01*
X405256Y2491466D01*
X415755Y2475755D01*
X431466Y2465256D01*
X450000Y2461569D01*
X468534Y2465256D01*
X484246Y2475755D01*
X494744Y2491466D01*
X498431Y2510000D01*
X494744Y2528534D01*
X484246Y2544246D01*
X479581Y2547363D01*
Y2562637D01*
X484246Y2565754D01*
X492944Y2578772D01*
X497605Y2579792D01*
X502395D01*
X507056Y2578772D01*
X515754Y2565754D01*
X531466Y2555256D01*
X550000Y2551569D01*
X568534Y2555256D01*
X584245Y2565754D01*
X594744Y2581466D01*
X598431Y2600000D01*
X594744Y2618533D01*
X584245Y2634245D01*
X568534Y2644744D01*
X550000Y2648431D01*
D02*
G37*
G36*
X4910000Y2698431D02*
X4891466Y2694744D01*
X4875755Y2684246D01*
X4865256Y2668534D01*
X4861569Y2650000D01*
X4865256Y2631466D01*
X4875755Y2615754D01*
X4891466Y2605256D01*
X4910000Y2601569D01*
X4928534Y2605256D01*
X4944246Y2615754D01*
X4954744Y2631466D01*
X4958431Y2650000D01*
X4954744Y2668534D01*
X4944246Y2684246D01*
X4928534Y2694744D01*
X4910000Y2698431D01*
D02*
G37*
G36*
X4710000D02*
X4691466Y2694744D01*
X4675754Y2684246D01*
X4665256Y2668534D01*
X4661569Y2650000D01*
X4665256Y2631466D01*
X4675754Y2615754D01*
X4691466Y2605256D01*
X4710000Y2601569D01*
X4728534Y2605256D01*
X4744246Y2615754D01*
X4754744Y2631466D01*
X4758431Y2650000D01*
X4754744Y2668534D01*
X4744246Y2684246D01*
X4728534Y2694744D01*
X4710000Y2698431D01*
D02*
G37*
G36*
X3190000Y2658431D02*
X3171466Y2654744D01*
X3155754Y2644246D01*
X3145256Y2628534D01*
X3141569Y2610000D01*
X3145256Y2591466D01*
X3155754Y2575755D01*
X3171466Y2565256D01*
X3190000Y2561569D01*
X3208534Y2565256D01*
X3224246Y2575755D01*
X3234744Y2591466D01*
X3238431Y2610000D01*
X3234744Y2628534D01*
X3224246Y2644246D01*
X3208534Y2654744D01*
X3190000Y2658431D01*
D02*
G37*
G36*
X4230000Y2568431D02*
X4211466Y2564744D01*
X4195754Y2554246D01*
X4185256Y2538534D01*
X4181569Y2520000D01*
X4185256Y2501466D01*
X4195754Y2485754D01*
X4211466Y2475256D01*
X4230000Y2471569D01*
X4248534Y2475256D01*
X4264245Y2485754D01*
X4274744Y2501466D01*
X4278431Y2520000D01*
X4274744Y2538534D01*
X4264245Y2554246D01*
X4248534Y2564744D01*
X4230000Y2568431D01*
D02*
G37*
G36*
X4450000Y2388431D02*
X4431466Y2384744D01*
X4415754Y2374245D01*
X4405256Y2358534D01*
X4401569Y2340000D01*
X4405256Y2321466D01*
X4415754Y2305754D01*
X4431466Y2295256D01*
X4450000Y2291569D01*
X4468534Y2295256D01*
X4484246Y2305754D01*
X4494744Y2321466D01*
X4498431Y2340000D01*
X4494744Y2358534D01*
X4484246Y2374245D01*
X4468534Y2384744D01*
X4450000Y2388431D01*
D02*
G37*
G36*
X3780000Y2358431D02*
X3761466Y2354744D01*
X3745755Y2344246D01*
X3735256Y2328534D01*
X3731569Y2310000D01*
X3735256Y2291466D01*
X3745755Y2275754D01*
X3761466Y2265256D01*
X3780000Y2261569D01*
X3798534Y2265256D01*
X3814246Y2275754D01*
X3824744Y2291466D01*
X3828431Y2310000D01*
X3824744Y2328534D01*
X3814246Y2344246D01*
X3798534Y2354744D01*
X3780000Y2358431D01*
D02*
G37*
G36*
X4980000Y2238431D02*
X4961466Y2234744D01*
X4945754Y2224245D01*
X4935256Y2208534D01*
X4931569Y2190000D01*
X4935256Y2171466D01*
X4945754Y2155754D01*
X4961466Y2145256D01*
X4980000Y2141569D01*
X4998534Y2145256D01*
X5014245Y2155754D01*
X5024744Y2171466D01*
X5028431Y2190000D01*
X5024744Y2208534D01*
X5014245Y2224245D01*
X4998534Y2234744D01*
X4980000Y2238431D01*
D02*
G37*
G36*
X6030000Y2188431D02*
X6011466Y2184744D01*
X5995754Y2174246D01*
X5985256Y2158534D01*
X5981569Y2140000D01*
X5985256Y2121466D01*
X5995754Y2105754D01*
X6011466Y2095256D01*
X6030000Y2091569D01*
X6048533Y2095256D01*
X6064245Y2105754D01*
X6074744Y2121466D01*
X6078431Y2140000D01*
X6074744Y2158534D01*
X6064245Y2174246D01*
X6048533Y2184744D01*
X6030000Y2188431D01*
D02*
G37*
G36*
X5140000Y2158431D02*
X5121466Y2154744D01*
X5105754Y2144246D01*
X5095256Y2128534D01*
X5091569Y2110000D01*
X5095256Y2091466D01*
X5105754Y2075755D01*
X5121466Y2065256D01*
X5140000Y2061569D01*
X5158533Y2065256D01*
X5174245Y2075755D01*
X5184744Y2091466D01*
X5188431Y2110000D01*
X5184744Y2128534D01*
X5174245Y2144246D01*
X5158533Y2154744D01*
X5140000Y2158431D01*
D02*
G37*
G36*
X2650000Y2148431D02*
X2631466Y2144744D01*
X2615754Y2134246D01*
X2605256Y2118534D01*
X2601569Y2100000D01*
X2605256Y2081466D01*
X2615754Y2065755D01*
X2631466Y2055256D01*
X2650000Y2051569D01*
X2668534Y2055256D01*
X2684246Y2065755D01*
X2694744Y2081466D01*
X2698431Y2100000D01*
X2694744Y2118534D01*
X2684246Y2134246D01*
X2668534Y2144744D01*
X2650000Y2148431D01*
D02*
G37*
G36*
X4270000Y2138431D02*
X4251466Y2134744D01*
X4235755Y2124245D01*
X4225256Y2108534D01*
X4221569Y2090000D01*
X4225256Y2071466D01*
X4235755Y2055754D01*
X4251466Y2045256D01*
X4270000Y2041569D01*
X4288534Y2045256D01*
X4304246Y2055754D01*
X4314744Y2071466D01*
X4318431Y2090000D01*
X4314744Y2108534D01*
X4304246Y2124245D01*
X4288534Y2134744D01*
X4270000Y2138431D01*
D02*
G37*
G36*
X5610000Y2108431D02*
X5591466Y2104744D01*
X5575754Y2094245D01*
X5565256Y2078534D01*
X5561569Y2060000D01*
X5565256Y2041466D01*
X5575754Y2025754D01*
X5591466Y2015256D01*
X5610000Y2011569D01*
X5628534Y2015256D01*
X5644246Y2025754D01*
X5654744Y2041466D01*
X5658431Y2060000D01*
X5654744Y2078534D01*
X5644246Y2094245D01*
X5628534Y2104744D01*
X5610000Y2108431D01*
D02*
G37*
G36*
X4310000Y2028431D02*
X4291466Y2024744D01*
X4275754Y2014246D01*
X4265256Y1998534D01*
X4261569Y1980000D01*
X4265256Y1961466D01*
X4275754Y1945755D01*
X4291466Y1935256D01*
X4310000Y1931569D01*
X4328534Y1935256D01*
X4344246Y1945755D01*
X4354744Y1961466D01*
X4358431Y1980000D01*
X4354744Y1998534D01*
X4344246Y2014246D01*
X4328534Y2024744D01*
X4310000Y2028431D01*
D02*
G37*
G36*
X4980000Y1888431D02*
X4961466Y1884744D01*
X4945754Y1874245D01*
X4935256Y1858533D01*
X4931569Y1840000D01*
X4935256Y1821466D01*
X4945754Y1805754D01*
X4961466Y1795256D01*
X4980000Y1791569D01*
X4998534Y1795256D01*
X5014245Y1805754D01*
X5024744Y1821466D01*
X5028431Y1840000D01*
X5024744Y1858533D01*
X5014245Y1874245D01*
X4998534Y1884744D01*
X4980000Y1888431D01*
D02*
G37*
G36*
X4480000D02*
X4461466Y1884744D01*
X4445754Y1874245D01*
X4435256Y1858533D01*
X4431569Y1840000D01*
X4435256Y1821466D01*
X4445754Y1805754D01*
X4461466Y1795256D01*
X4480000Y1791569D01*
X4498534Y1795256D01*
X4514245Y1805754D01*
X4524744Y1821466D01*
X4528431Y1840000D01*
X4524744Y1858533D01*
X4514245Y1874245D01*
X4498534Y1884744D01*
X4480000Y1888431D01*
D02*
G37*
G36*
X1250000Y1848431D02*
X1231466Y1844744D01*
X1215754Y1834246D01*
X1205256Y1818534D01*
X1201569Y1800000D01*
X1205256Y1781466D01*
X1215754Y1765754D01*
X1231466Y1755256D01*
X1250000Y1751569D01*
X1268534Y1755256D01*
X1284246Y1765754D01*
X1294744Y1781466D01*
X1298431Y1800000D01*
X1294744Y1818534D01*
X1284246Y1834246D01*
X1268534Y1844744D01*
X1250000Y1848431D01*
D02*
G37*
G36*
X2490000Y1818431D02*
X2471466Y1814744D01*
X2455755Y1804246D01*
X2445256Y1788534D01*
X2441569Y1770000D01*
X2445256Y1751466D01*
X2455755Y1735754D01*
X2471466Y1725256D01*
X2490000Y1721569D01*
X2508534Y1725256D01*
X2524246Y1735754D01*
X2534744Y1751466D01*
X2538431Y1770000D01*
X2534744Y1788534D01*
X2524246Y1804246D01*
X2508534Y1814744D01*
X2490000Y1818431D01*
D02*
G37*
G36*
X4810000Y1798431D02*
X4791466Y1794744D01*
X4775754Y1784246D01*
X4765256Y1768534D01*
X4761569Y1750000D01*
X4765256Y1731466D01*
X4775754Y1715755D01*
X4791466Y1705256D01*
X4810000Y1701569D01*
X4828534Y1705256D01*
X4844246Y1715755D01*
X4854744Y1731466D01*
X4858431Y1750000D01*
X4854744Y1768534D01*
X4844246Y1784246D01*
X4828534Y1794744D01*
X4810000Y1798431D01*
D02*
G37*
G36*
X6160000Y1778431D02*
X6141467Y1774744D01*
X6125755Y1764246D01*
X6115256Y1748534D01*
X6111569Y1730000D01*
X6115256Y1711466D01*
X6125755Y1695755D01*
X6141467Y1685256D01*
X6160000Y1681569D01*
X6178534Y1685256D01*
X6194246Y1695755D01*
X6204744Y1711466D01*
X6208431Y1730000D01*
X6204744Y1748534D01*
X6194246Y1764246D01*
X6178534Y1774744D01*
X6160000Y1778431D01*
D02*
G37*
G36*
X4590000Y1758431D02*
X4571466Y1754744D01*
X4555754Y1744245D01*
X4545256Y1728533D01*
X4541569Y1710000D01*
X4545256Y1691466D01*
X4555754Y1675754D01*
X4571466Y1665256D01*
X4590000Y1661569D01*
X4608534Y1665256D01*
X4624246Y1675754D01*
X4634744Y1691466D01*
X4638431Y1710000D01*
X4634744Y1728533D01*
X4624246Y1744245D01*
X4608534Y1754744D01*
X4590000Y1758431D01*
D02*
G37*
G36*
X2310000Y1818431D02*
X2291466Y1814744D01*
X2275754Y1804246D01*
X2265256Y1788534D01*
X2261569Y1770000D01*
X2265256Y1751466D01*
X2275754Y1735754D01*
X2291466Y1725256D01*
X2310000Y1721569D01*
X2328534Y1725256D01*
X2333270Y1728421D01*
X2342426Y1719265D01*
X2335256Y1708534D01*
X2331569Y1690000D01*
X2335256Y1671466D01*
X2345755Y1655754D01*
X2361466Y1645256D01*
X2380000Y1641569D01*
X2398534Y1645256D01*
X2414246Y1655754D01*
X2424744Y1671466D01*
X2428431Y1690000D01*
X2424744Y1708534D01*
X2414246Y1724245D01*
X2398534Y1734744D01*
X2380000Y1738431D01*
X2361466Y1734744D01*
X2356730Y1731579D01*
X2347574Y1740735D01*
X2354744Y1751466D01*
X2358431Y1770000D01*
X2354744Y1788534D01*
X2344246Y1804246D01*
X2328534Y1814744D01*
X2310000Y1818431D01*
D02*
G37*
G36*
X6260000Y1488431D02*
X6241466Y1484744D01*
X6225754Y1474245D01*
X6215256Y1458534D01*
X6211569Y1440000D01*
X6215256Y1421466D01*
X6225754Y1405754D01*
X6241466Y1395256D01*
X6260000Y1391569D01*
X6278534Y1395256D01*
X6294245Y1405754D01*
X6304744Y1421466D01*
X6308431Y1440000D01*
X6304744Y1458534D01*
X6294245Y1474245D01*
X6278534Y1484744D01*
X6260000Y1488431D01*
D02*
G37*
G36*
X4500000D02*
X4481466Y1484744D01*
X4465754Y1474245D01*
X4455256Y1458534D01*
X4451569Y1440000D01*
X4455256Y1421466D01*
X4465754Y1405754D01*
X4481466Y1395256D01*
X4500000Y1391569D01*
X4518534Y1395256D01*
X4534245Y1405754D01*
X4544744Y1421466D01*
X4548431Y1440000D01*
X4544744Y1458534D01*
X4534245Y1474245D01*
X4518534Y1484744D01*
X4500000Y1488431D01*
D02*
G37*
G36*
X6270000Y1378431D02*
X6251466Y1374744D01*
X6235754Y1364245D01*
X6225256Y1348533D01*
X6221569Y1330000D01*
X6225256Y1311466D01*
X6235754Y1295754D01*
X6251466Y1285256D01*
X6270000Y1281569D01*
X6288534Y1285256D01*
X6304245Y1295754D01*
X6314744Y1311466D01*
X6318431Y1330000D01*
X6314744Y1348533D01*
X6304245Y1364245D01*
X6288534Y1374744D01*
X6270000Y1378431D01*
D02*
G37*
G36*
X4460000Y1348431D02*
X4441466Y1344744D01*
X4425754Y1334245D01*
X4415256Y1318534D01*
X4411569Y1300000D01*
X4415256Y1281466D01*
X4425754Y1265754D01*
X4441466Y1255256D01*
X4460000Y1251569D01*
X4478534Y1255256D01*
X4494246Y1265754D01*
X4504744Y1281466D01*
X4508431Y1300000D01*
X4504744Y1318534D01*
X4494246Y1334245D01*
X4478534Y1344744D01*
X4460000Y1348431D01*
D02*
G37*
G36*
X4150000Y1258431D02*
X4131466Y1254744D01*
X4115755Y1244246D01*
X4112637Y1239580D01*
X4097363D01*
X4094246Y1244246D01*
X4078534Y1254744D01*
X4060000Y1258431D01*
X4041466Y1254744D01*
X4025754Y1244246D01*
X4015256Y1228534D01*
X4011569Y1210000D01*
X4015256Y1191467D01*
X4025754Y1175755D01*
X4041466Y1165256D01*
X4060000Y1161569D01*
X4078534Y1165256D01*
X4094246Y1175755D01*
X4097363Y1180420D01*
X4112637D01*
X4115755Y1175755D01*
X4131466Y1165256D01*
X4150000Y1161569D01*
X4168534Y1165256D01*
X4184246Y1175755D01*
X4194744Y1191467D01*
X4198431Y1210000D01*
X4194744Y1228534D01*
X4184246Y1244246D01*
X4168534Y1254744D01*
X4150000Y1258431D01*
D02*
G37*
G36*
X1380000Y1288431D02*
X1361466Y1284744D01*
X1345754Y1274246D01*
X1335256Y1258534D01*
X1331569Y1240000D01*
X1335256Y1221466D01*
X1345754Y1205755D01*
X1361466Y1195256D01*
X1380000Y1191569D01*
X1398534Y1195256D01*
X1414246Y1205755D01*
X1424744Y1221466D01*
X1428431Y1240000D01*
X1424744Y1258534D01*
X1414246Y1274246D01*
X1398534Y1284744D01*
X1380000Y1288431D01*
D02*
G37*
G36*
X6270000Y1268431D02*
X6251466Y1264744D01*
X6235754Y1254246D01*
X6225256Y1238534D01*
X6221569Y1220000D01*
X6225256Y1201466D01*
X6235754Y1185755D01*
X6251466Y1175256D01*
X6270000Y1171569D01*
X6288534Y1175256D01*
X6304245Y1185755D01*
X6314744Y1201466D01*
X6318431Y1220000D01*
X6314744Y1238534D01*
X6304245Y1254246D01*
X6288534Y1264744D01*
X6270000Y1268431D01*
D02*
G37*
G36*
X480000Y1248431D02*
X461466Y1244744D01*
X445755Y1234245D01*
X435256Y1218534D01*
X431569Y1200000D01*
X435256Y1181466D01*
X445755Y1165754D01*
X461466Y1155256D01*
X480000Y1151569D01*
X498534Y1155256D01*
X514246Y1165754D01*
X524744Y1181466D01*
X528431Y1200000D01*
X524744Y1218534D01*
X514246Y1234245D01*
X498534Y1244744D01*
X480000Y1248431D01*
D02*
G37*
G36*
X5530000Y1410604D02*
X5511727Y1408198D01*
X5494698Y1401145D01*
X5480076Y1389925D01*
X5468855Y1375302D01*
X5461802Y1358274D01*
X5459396Y1340000D01*
X5461802Y1321727D01*
X5468855Y1304698D01*
X5480076Y1290076D01*
X5487515Y1284367D01*
Y1268633D01*
X5480076Y1262925D01*
X5468855Y1248302D01*
X5461802Y1231274D01*
X5459396Y1213000D01*
X5461802Y1194727D01*
X5468855Y1177698D01*
X5480076Y1163076D01*
X5494698Y1151855D01*
X5511727Y1144802D01*
X5530000Y1142396D01*
X5548274Y1144802D01*
X5565302Y1151855D01*
X5579925Y1163076D01*
X5591145Y1177698D01*
X5598198Y1194727D01*
X5600604Y1213000D01*
X5598198Y1231274D01*
X5591145Y1248302D01*
X5579925Y1262925D01*
X5572485Y1268633D01*
Y1284367D01*
X5579925Y1290076D01*
X5591145Y1304698D01*
X5598198Y1321727D01*
X5600604Y1340000D01*
X5598198Y1358274D01*
X5591145Y1375302D01*
X5579925Y1389925D01*
X5565302Y1401145D01*
X5548274Y1408198D01*
X5530000Y1410604D01*
D02*
G37*
G36*
X1460000Y1198431D02*
X1441466Y1194744D01*
X1425754Y1184246D01*
X1415256Y1168534D01*
X1411569Y1150000D01*
X1415256Y1131466D01*
X1425754Y1115754D01*
X1441466Y1105256D01*
X1460000Y1101569D01*
X1478533Y1105256D01*
X1494245Y1115754D01*
X1504744Y1131466D01*
X1508431Y1150000D01*
X1504744Y1168534D01*
X1494245Y1184246D01*
X1478533Y1194744D01*
X1460000Y1198431D01*
D02*
G37*
G36*
X4310000Y1178431D02*
X4291466Y1174744D01*
X4275754Y1164246D01*
X4265256Y1148534D01*
X4261569Y1130000D01*
X4265256Y1111466D01*
X4275754Y1095754D01*
X4291466Y1085256D01*
X4310000Y1081569D01*
X4328534Y1085256D01*
X4344246Y1095754D01*
X4354744Y1111466D01*
X4358431Y1130000D01*
X4354744Y1148534D01*
X4344246Y1164246D01*
X4328534Y1174744D01*
X4310000Y1178431D01*
D02*
G37*
G36*
X4770000Y1028431D02*
X4751466Y1024744D01*
X4735755Y1014246D01*
X4725256Y998534D01*
X4721569Y980000D01*
X4725256Y961466D01*
X4735755Y945755D01*
X4751466Y935256D01*
X4770000Y931569D01*
X4788534Y935256D01*
X4804246Y945755D01*
X4814744Y961466D01*
X4818431Y980000D01*
X4814744Y998534D01*
X4804246Y1014246D01*
X4788534Y1024744D01*
X4770000Y1028431D01*
D02*
G37*
G36*
X4900000Y1008431D02*
X4881466Y1004744D01*
X4865755Y994246D01*
X4855256Y978534D01*
X4851569Y960000D01*
X4855256Y941466D01*
X4865755Y925755D01*
X4881466Y915256D01*
X4900000Y911569D01*
X4918534Y915256D01*
X4934246Y925755D01*
X4944744Y941466D01*
X4948431Y960000D01*
X4944744Y978534D01*
X4934246Y994246D01*
X4918534Y1004744D01*
X4900000Y1008431D01*
D02*
G37*
G36*
X290000Y988431D02*
X271466Y984744D01*
X255754Y974245D01*
X245256Y958534D01*
X241569Y940000D01*
X245256Y921466D01*
X255754Y905754D01*
X271466Y895256D01*
X290000Y891569D01*
X308534Y895256D01*
X324245Y905754D01*
X334744Y921466D01*
X338431Y940000D01*
X334744Y958534D01*
X324245Y974245D01*
X308534Y984744D01*
X290000Y988431D01*
D02*
G37*
G36*
X1140000Y878431D02*
X1121466Y874744D01*
X1105754Y864246D01*
X1095256Y848534D01*
X1091569Y830000D01*
X1095256Y811466D01*
X1105754Y795755D01*
X1121466Y785256D01*
X1140000Y781569D01*
X1158534Y785256D01*
X1174246Y795755D01*
X1184744Y811466D01*
X1188431Y830000D01*
X1184744Y848534D01*
X1174246Y864246D01*
X1158534Y874744D01*
X1140000Y878431D01*
D02*
G37*
G36*
X5330000Y858431D02*
X5311466Y854744D01*
X5295754Y844245D01*
X5285256Y828534D01*
X5281569Y810000D01*
X5285256Y791466D01*
X5295754Y775754D01*
X5311466Y765256D01*
X5330000Y761569D01*
X5348534Y765256D01*
X5364246Y775754D01*
X5374744Y791466D01*
X5378431Y810000D01*
X5374744Y828534D01*
X5364246Y844245D01*
X5348534Y854744D01*
X5330000Y858431D01*
D02*
G37*
G36*
X4310000Y848431D02*
X4291466Y844744D01*
X4275754Y834245D01*
X4265256Y818534D01*
X4261569Y800000D01*
X4265256Y781466D01*
X4275754Y765754D01*
X4291466Y755256D01*
X4310000Y751569D01*
X4328534Y755256D01*
X4344246Y765754D01*
X4354744Y781466D01*
X4358431Y800000D01*
X4354744Y818534D01*
X4344246Y834245D01*
X4328534Y844744D01*
X4310000Y848431D01*
D02*
G37*
G36*
X690000Y758431D02*
X671466Y754744D01*
X655754Y744246D01*
X645256Y728534D01*
X641569Y710000D01*
X645256Y691466D01*
X655754Y675755D01*
X671466Y665256D01*
X690000Y661569D01*
X708534Y665256D01*
X724245Y675755D01*
X734744Y691466D01*
X738431Y710000D01*
X734744Y728534D01*
X724245Y744246D01*
X708534Y754744D01*
X690000Y758431D01*
D02*
G37*
G36*
X520000D02*
X501466Y754744D01*
X485754Y744246D01*
X475256Y728534D01*
X471569Y710000D01*
X475256Y691466D01*
X485754Y675755D01*
X501466Y665256D01*
X520000Y661569D01*
X538534Y665256D01*
X554246Y675755D01*
X564744Y691466D01*
X568431Y710000D01*
X564744Y728534D01*
X554246Y744246D01*
X538534Y754744D01*
X520000Y758431D01*
D02*
G37*
G36*
X4310000Y738431D02*
X4291466Y734744D01*
X4275754Y724245D01*
X4265256Y708534D01*
X4261569Y690000D01*
X4265256Y671466D01*
X4275754Y655754D01*
X4291466Y645256D01*
X4310000Y641569D01*
X4328534Y645256D01*
X4344246Y655754D01*
X4354744Y671466D01*
X4358431Y690000D01*
X4354744Y708534D01*
X4344246Y724245D01*
X4328534Y734744D01*
X4310000Y738431D01*
D02*
G37*
G36*
X690000Y628431D02*
X671466Y624744D01*
X655754Y614246D01*
X645256Y598534D01*
X641569Y580000D01*
X645256Y561466D01*
X655754Y545755D01*
X671466Y535256D01*
X690000Y531569D01*
X708534Y535256D01*
X724245Y545755D01*
X734744Y561466D01*
X738431Y580000D01*
X734744Y598534D01*
X724245Y614246D01*
X708534Y624744D01*
X690000Y628431D01*
D02*
G37*
G36*
X4310000Y618431D02*
X4291466Y614744D01*
X4275754Y604245D01*
X4265256Y588533D01*
X4261569Y570000D01*
X4265256Y551466D01*
X4275754Y535754D01*
X4291466Y525256D01*
X4310000Y521569D01*
X4328534Y525256D01*
X4344246Y535754D01*
X4354744Y551466D01*
X4358431Y570000D01*
X4354744Y588533D01*
X4344246Y604245D01*
X4328534Y614744D01*
X4310000Y618431D01*
D02*
G37*
G36*
X1511500Y500832D02*
X1456500D01*
X1439918Y497534D01*
X1429009Y490245D01*
X1420500Y488954D01*
X1411991Y490245D01*
X1401083Y497534D01*
X1384500Y500832D01*
X1329500D01*
X1312918Y497534D01*
X1302009Y490245D01*
X1293500Y488954D01*
X1284991Y490245D01*
X1274083Y497534D01*
X1257500Y500832D01*
X1202500D01*
X1185918Y497534D01*
X1175009Y490245D01*
X1166500Y488954D01*
X1157991Y490245D01*
X1147083Y497534D01*
X1130500Y500832D01*
X1075500D01*
X1058918Y497534D01*
X1044859Y488141D01*
X1035466Y474082D01*
X1032168Y457500D01*
Y402500D01*
X1035466Y385917D01*
X1044859Y371859D01*
X1058918Y362466D01*
X1075500Y359167D01*
X1130500D01*
X1147083Y362466D01*
X1157991Y369755D01*
X1166500Y371046D01*
X1175009Y369755D01*
X1185918Y362466D01*
X1202500Y359167D01*
X1257500D01*
X1274083Y362466D01*
X1284991Y369755D01*
X1293500Y371046D01*
X1302009Y369755D01*
X1312918Y362466D01*
X1329500Y359167D01*
X1384500D01*
X1401083Y362466D01*
X1411991Y369755D01*
X1420500Y371046D01*
X1429009Y369755D01*
X1439918Y362466D01*
X1456500Y359167D01*
X1511500D01*
X1528083Y362466D01*
X1542141Y371859D01*
X1551534Y385917D01*
X1554833Y402500D01*
Y457500D01*
X1551534Y474082D01*
X1542141Y488141D01*
X1528083Y497534D01*
X1511500Y500832D01*
D02*
G37*
G36*
X4160000Y448431D02*
X4141466Y444744D01*
X4125755Y434246D01*
X4115256Y418534D01*
X4111569Y400000D01*
X4115256Y381466D01*
X4125755Y365754D01*
X4141466Y355256D01*
X4160000Y351569D01*
X4178534Y355256D01*
X4194246Y365754D01*
X4204744Y381466D01*
X4208431Y400000D01*
X4204744Y418534D01*
X4194246Y434246D01*
X4178534Y444744D01*
X4160000Y448431D01*
D02*
G37*
G36*
X4340000Y438431D02*
X4321466Y434744D01*
X4305754Y424246D01*
X4295256Y408534D01*
X4291569Y390000D01*
X4295256Y371466D01*
X4305754Y355754D01*
X4321466Y345256D01*
X4340000Y341569D01*
X4358534Y345256D01*
X4374246Y355754D01*
X4384744Y371466D01*
X4388431Y390000D01*
X4384744Y408534D01*
X4374246Y424246D01*
X4358534Y434744D01*
X4340000Y438431D01*
D02*
G37*
G36*
X6200000Y388431D02*
X6181466Y384744D01*
X6165754Y374246D01*
X6155256Y358534D01*
X6151569Y340000D01*
X6155256Y321466D01*
X6165754Y305755D01*
X6181466Y295256D01*
X6200000Y291569D01*
X6218534Y295256D01*
X6234246Y305755D01*
X6244744Y321466D01*
X6248431Y340000D01*
X6244744Y358534D01*
X6234246Y374246D01*
X6218534Y384744D01*
X6200000Y388431D01*
D02*
G37*
G36*
X3400000Y368431D02*
X3381466Y364744D01*
X3365755Y354246D01*
X3355256Y338534D01*
X3351569Y320000D01*
X3355256Y301467D01*
X3365755Y285755D01*
X3381466Y275256D01*
X3400000Y271569D01*
X3418534Y275256D01*
X3434246Y285755D01*
X3444744Y301467D01*
X3448431Y320000D01*
X3444744Y338534D01*
X3434246Y354246D01*
X3418534Y364744D01*
X3400000Y368431D01*
D02*
G37*
G36*
X1710000Y288431D02*
X1691466Y284744D01*
X1675754Y274246D01*
X1665256Y258534D01*
X1661569Y240000D01*
X1665256Y221466D01*
X1675754Y205754D01*
X1691466Y195256D01*
X1710000Y191569D01*
X1728533Y195256D01*
X1744245Y205754D01*
X1754744Y221466D01*
X1758431Y240000D01*
X1754744Y258534D01*
X1744245Y274246D01*
X1728533Y284744D01*
X1710000Y288431D01*
D02*
G37*
G36*
X1550000D02*
X1531466Y284744D01*
X1515754Y274246D01*
X1505256Y258534D01*
X1501569Y240000D01*
X1505256Y221466D01*
X1515754Y205754D01*
X1531466Y195256D01*
X1550000Y191569D01*
X1568534Y195256D01*
X1584245Y205754D01*
X1594744Y221466D01*
X1598431Y240000D01*
X1594744Y258534D01*
X1584245Y274246D01*
X1568534Y284744D01*
X1550000Y288431D01*
D02*
G37*
G36*
X6130000Y268431D02*
X6111466Y264744D01*
X6095754Y254246D01*
X6085256Y238534D01*
X6081569Y220000D01*
X6085256Y201466D01*
X6095754Y185755D01*
X6111466Y175256D01*
X6130000Y171569D01*
X6148534Y175256D01*
X6164245Y185755D01*
X6174744Y201466D01*
X6178431Y220000D01*
X6174744Y238534D01*
X6164245Y254246D01*
X6148534Y264744D01*
X6130000Y268431D01*
D02*
G37*
G36*
X6020000Y218431D02*
X6001466Y214744D01*
X5985754Y204245D01*
X5975256Y188534D01*
X5971569Y170000D01*
X5975256Y151466D01*
X5985754Y135754D01*
X6001466Y125256D01*
X6020000Y121569D01*
X6038534Y125256D01*
X6054245Y135754D01*
X6064744Y151466D01*
X6068431Y170000D01*
X6064744Y188534D01*
X6054245Y204245D01*
X6038534Y214744D01*
X6020000Y218431D01*
D02*
G37*
G36*
X1710000Y178431D02*
X1691466Y174744D01*
X1675754Y164246D01*
X1665256Y148534D01*
X1661569Y130000D01*
X1665256Y111466D01*
X1675754Y95754D01*
X1691466Y85256D01*
X1710000Y81569D01*
X1728533Y85256D01*
X1744245Y95754D01*
X1754744Y111466D01*
X1758431Y130000D01*
X1754744Y148534D01*
X1744245Y164246D01*
X1728533Y174744D01*
X1710000Y178431D01*
D02*
G37*
G36*
X1550000D02*
X1531466Y174744D01*
X1515754Y164246D01*
X1505256Y148534D01*
X1501569Y130000D01*
X1505256Y111466D01*
X1515754Y95754D01*
X1531466Y85256D01*
X1550000Y81569D01*
X1568534Y85256D01*
X1584245Y95754D01*
X1594744Y111466D01*
X1598431Y130000D01*
X1594744Y148534D01*
X1584245Y164246D01*
X1568534Y174744D01*
X1550000Y178431D01*
D02*
G37*
%LPD*%
D48*
X2000000Y2500000D02*
D03*
Y500000D02*
D03*
D49*
X3856000Y2760000D02*
D03*
X3983000D02*
D03*
X4110000D02*
D03*
X4237000D02*
D03*
X4364000D02*
D03*
X5530000Y1213000D02*
D03*
Y1340000D02*
D03*
D50*
X4491000Y2760000D02*
D03*
D51*
X1103000Y430000D02*
D03*
X1230000D02*
D03*
X1357000D02*
D03*
X1484000D02*
D03*
D52*
X1611000D02*
D03*
D53*
X5931000Y1207500D02*
D03*
Y1922500D02*
D03*
D54*
X5530000Y1467000D02*
D03*
D55*
X1460000Y1150000D02*
D03*
X4910000Y2650000D02*
D03*
X4710000D02*
D03*
X570000Y2710000D02*
D03*
X460000D02*
D03*
X570000Y2810000D02*
D03*
X460000D02*
D03*
X550000Y2600000D02*
D03*
X450000Y2510000D02*
D03*
Y2600000D02*
D03*
X6310000Y658431D02*
D03*
X6200000D02*
D03*
X6310000Y570000D02*
D03*
X6205684Y562699D02*
D03*
X3190000Y2610000D02*
D03*
X4570000Y2412500D02*
D03*
X1530000Y1630000D02*
D03*
X1680000D02*
D03*
X2340000Y1970000D02*
D03*
X4450000Y2340000D02*
D03*
X4310000Y1980000D02*
D03*
X4270000Y2090000D02*
D03*
X4230000Y2520000D02*
D03*
X4310000Y570000D02*
D03*
Y690000D02*
D03*
Y800000D02*
D03*
X4980000Y690000D02*
D03*
X5090000Y650000D02*
D03*
X5300000D02*
D03*
X5430000D02*
D03*
X6200000Y340000D02*
D03*
X6130000Y220000D02*
D03*
X6020000Y170000D02*
D03*
X6260000Y1700000D02*
D03*
Y1440000D02*
D03*
X6160000Y1730000D02*
D03*
X3410000Y2020000D02*
D03*
X3990000Y1720000D02*
D03*
X160000Y2560000D02*
D03*
Y2300000D02*
D03*
Y2040000D02*
D03*
Y1780000D02*
D03*
Y1520000D02*
D03*
Y1290000D02*
D03*
X190000Y1110000D02*
D03*
X650000Y1040000D02*
D03*
X580000Y1130000D02*
D03*
X680000Y1220000D02*
D03*
X690000Y1360000D02*
D03*
X520000Y710000D02*
D03*
X1550000Y130000D02*
D03*
X1710000D02*
D03*
Y240000D02*
D03*
X1550000D02*
D03*
X2380000Y1690000D02*
D03*
X2280000Y1620000D02*
D03*
X2310000Y1770000D02*
D03*
X4160000Y400000D02*
D03*
X3400000Y320000D02*
D03*
X6270000Y1220000D02*
D03*
Y1330000D02*
D03*
X6190000Y2380000D02*
D03*
X4980000Y1840000D02*
D03*
X4810000Y1750000D02*
D03*
X4590000Y1710000D02*
D03*
X4480000Y1840000D02*
D03*
X3780000Y2310000D02*
D03*
X3020000Y1630000D02*
D03*
X3540000Y1200000D02*
D03*
X3100000Y1130000D02*
D03*
X4060000Y1210000D02*
D03*
X4150000D02*
D03*
X690000Y580000D02*
D03*
Y710000D02*
D03*
X1030000Y1150000D02*
D03*
X290000Y940000D02*
D03*
X480000Y1200000D02*
D03*
X1140000Y830000D02*
D03*
X1380000Y1240000D02*
D03*
X1250000Y1800000D02*
D03*
X1170000Y1590000D02*
D03*
X4770000Y980000D02*
D03*
X4900000Y960000D02*
D03*
X2440000Y450000D02*
D03*
X3720000Y700000D02*
D03*
X5000000Y220000D02*
D03*
X5330000Y810000D02*
D03*
X2650000Y2100000D02*
D03*
X5140000Y2110000D02*
D03*
X4500000Y1440000D02*
D03*
X6030000Y2140000D02*
D03*
X4460000Y1300000D02*
D03*
X4340000Y390000D02*
D03*
X4310000Y1130000D02*
D03*
X5130000Y2650000D02*
D03*
X5740000Y2730000D02*
D03*
X5600000Y1920000D02*
D03*
X5610000Y2060000D02*
D03*
X4310000Y2310000D02*
D03*
X2770000Y2050000D02*
D03*
X2490000Y1770000D02*
D03*
X5020000Y2730000D02*
D03*
X5450000D02*
D03*
X5840000Y2770000D02*
D03*
X4980000Y2190000D02*
D03*
X5940000Y2770000D02*
D03*
X5750000Y2350000D02*
D03*
%TF.MD5,0ea8de929beeb726bf1da5ebfdcb02ac*%
M02*
