%TF.GenerationSoftware,Altium Limited,Altium Designer,20.2.6 (244)*%
G04 Layer_Physical_Order=4*
G04 Layer_Color=16711680*
%FSLAX45Y45*%
%MOMM*%
%TF.SameCoordinates,5B1E47F8-7F56-49C7-AB48-EE235D2752C7*%
%TF.FilePolarity,Positive*%
%TF.FileFunction,Copper,L4,Bot,Signal*%
%TF.Part,Single*%
G01*
G75*
%TA.AperFunction,Conductor*%
%ADD43C,0.20000*%
%ADD44C,0.30000*%
%ADD45C,0.35000*%
%TA.AperFunction,ComponentPad*%
%ADD48C,3.50000*%
%ADD49C,1.10000*%
%ADD50R,1.10000X1.10000*%
G04:AMPARAMS|DCode=51|XSize=1.1mm|YSize=1.1mm|CornerRadius=0.275mm|HoleSize=0mm|Usage=FLASHONLY|Rotation=270.000|XOffset=0mm|YOffset=0mm|HoleType=Round|Shape=RoundedRectangle|*
%AMROUNDEDRECTD51*
21,1,1.10000,0.55000,0,0,270.0*
21,1,0.55000,1.10000,0,0,270.0*
1,1,0.55000,-0.27500,-0.27500*
1,1,0.55000,-0.27500,0.27500*
1,1,0.55000,0.27500,0.27500*
1,1,0.55000,0.27500,-0.27500*
%
%ADD51ROUNDEDRECTD51*%
G04:AMPARAMS|DCode=52|XSize=1.1mm|YSize=1.1mm|CornerRadius=0.1375mm|HoleSize=0mm|Usage=FLASHONLY|Rotation=270.000|XOffset=0mm|YOffset=0mm|HoleType=Round|Shape=RoundedRectangle|*
%AMROUNDEDRECTD52*
21,1,1.10000,0.82500,0,0,270.0*
21,1,0.82500,1.10000,0,0,270.0*
1,1,0.27500,-0.41250,-0.41250*
1,1,0.27500,-0.41250,0.41250*
1,1,0.27500,0.41250,0.41250*
1,1,0.27500,0.41250,-0.41250*
%
%ADD52ROUNDEDRECTD52*%
%ADD53O,2.80000X1.40000*%
%ADD54R,1.10000X1.10000*%
%TA.AperFunction,ViaPad*%
%ADD55C,0.65000*%
%TA.AperFunction,SMDPad,CuDef*%
%ADD56R,2.70000X1.80000*%
%ADD57R,1.00000X3.20000*%
%ADD58R,1.50000X0.40000*%
%ADD59C,5.00000*%
G36*
X730000Y2867172D02*
Y2070000D01*
X590000Y2050000D01*
X400000Y2240000D01*
Y2867481D01*
X457532Y2875270D01*
X487907Y2875378D01*
X487908Y2875378D01*
X599828Y2875660D01*
X599844Y2875663D01*
X599860Y2875660D01*
X688195Y2875995D01*
X688200Y2875996D01*
X688206Y2875995D01*
X721001Y2876134D01*
X730000Y2867172D01*
D02*
G37*
G36*
X6100000Y1970000D02*
Y1680000D01*
X5950000D01*
Y1720000D01*
X5780000Y1890000D01*
Y1980000D01*
X5830000Y2030000D01*
X6040000D01*
X6100000Y1970000D01*
D02*
G37*
G36*
X6140000Y1400000D02*
X6234366D01*
X6241466Y1395256D01*
X6260000Y1391569D01*
X6278534Y1395256D01*
X6285634Y1400000D01*
X6348799D01*
X6357760Y1391001D01*
X6356781Y1160000D01*
X6190000D01*
Y1280000D01*
X6130000Y1340000D01*
X6010000D01*
X5950000Y1400000D01*
Y1450000D01*
X6090000D01*
X6140000Y1400000D01*
D02*
G37*
G36*
X330000Y1910000D02*
X560000Y1680000D01*
X780000D01*
X809319Y1279302D01*
X800673Y1270000D01*
X450000D01*
X180000Y1000000D01*
X37416D01*
X28455Y1009000D01*
X30373Y1462086D01*
X30352Y1462194D01*
X30373Y1462302D01*
X27210Y2209373D01*
X27208Y2209381D01*
X27210Y2209389D01*
X26667Y2321759D01*
X26664Y2321775D01*
X26667Y2321792D01*
X26129Y2409644D01*
X25980Y2440047D01*
X33627Y2500370D01*
X49089Y2559176D01*
X72102Y2615461D01*
X91838Y2650000D01*
X330000D01*
Y1910000D01*
D02*
G37*
G36*
X6354031Y691765D02*
X6354777Y687300D01*
X6354371Y575820D01*
X6354374Y575803D01*
X6354371Y575787D01*
X6354216Y510000D01*
X5810000D01*
Y700000D01*
X6345831D01*
X6354031Y691765D01*
D02*
G37*
G36*
X2444442Y1755558D02*
X2445256Y1751466D01*
X2455755Y1735754D01*
X2471466Y1725256D01*
X2475558Y1724442D01*
X2500000Y1700000D01*
Y920000D01*
X3130000Y290000D01*
X3362918D01*
X3365755Y285755D01*
X3381466Y275256D01*
X3400000Y271569D01*
X3418534Y275256D01*
X3434246Y285755D01*
X3436690Y289412D01*
X4479999D01*
X4480000Y289412D01*
X4482955Y290000D01*
X4500000D01*
X4660000Y450000D01*
X6260000D01*
Y209530D01*
X6238612Y181895D01*
X6195435Y139082D01*
X6147034Y102275D01*
X6094242Y72108D01*
X6037958Y49094D01*
X5979154Y33630D01*
X5918830Y25981D01*
X5888429Y26128D01*
X5776538Y26794D01*
X5776522Y26791D01*
X5776506Y26795D01*
X5688171Y27209D01*
X5688165Y27208D01*
X5688160Y27209D01*
X2499281Y40719D01*
X2280000Y260000D01*
Y1200000D01*
X1800000D01*
Y52681D01*
X1791000Y43720D01*
X1470000Y45080D01*
Y280000D01*
X1554418Y364418D01*
X1558533Y361668D01*
X1569750Y359437D01*
X1652250D01*
X1663468Y361668D01*
X1672978Y368022D01*
X1679332Y377532D01*
X1681563Y388750D01*
Y471250D01*
X1679332Y482467D01*
X1672978Y491977D01*
X1670000Y493967D01*
Y620000D01*
X1570000Y720000D01*
Y1360000D01*
X1610000Y1400000D01*
X2180000D01*
X2220000Y1440000D01*
Y1840000D01*
X2360000D01*
X2444442Y1755558D01*
D02*
G37*
%LPC*%
G36*
X2440000Y498431D02*
X2421466Y494744D01*
X2405754Y484246D01*
X2395256Y468534D01*
X2391569Y450000D01*
X2395256Y431466D01*
X2405754Y415755D01*
X2421466Y405256D01*
X2440000Y401569D01*
X2458534Y405256D01*
X2474245Y415755D01*
X2484744Y431466D01*
X2488431Y450000D01*
X2484744Y468534D01*
X2474245Y484246D01*
X2458534Y494744D01*
X2440000Y498431D01*
D02*
G37*
G36*
X5000000Y268431D02*
X4981466Y264744D01*
X4965754Y254246D01*
X4955256Y238534D01*
X4951569Y220000D01*
X4955256Y201466D01*
X4965754Y185755D01*
X4981466Y175256D01*
X5000000Y171569D01*
X5018534Y175256D01*
X5034245Y185755D01*
X5044744Y201466D01*
X5048431Y220000D01*
X5044744Y238534D01*
X5034245Y254246D01*
X5018534Y264744D01*
X5000000Y268431D01*
D02*
G37*
%LPD*%
D43*
X1460000Y454000D02*
X1484000Y430000D01*
X1460000Y454000D02*
Y1150000D01*
X1457000Y1147000D02*
X1460000Y1150000D01*
X4380000Y2310000D02*
Y2496568D01*
X4430000Y2546568D01*
Y2699000D01*
X4110000Y2400000D02*
Y2760000D01*
X4430000Y2699000D02*
X4491000Y2760000D01*
X4550000Y2140000D02*
X4590000D01*
X4380000Y2310000D02*
X4550000Y2140000D01*
X4810000Y1750000D02*
Y1920000D01*
X4590000Y2140000D02*
X4810000Y1920000D01*
X3983000Y2127000D02*
X4270000Y1840000D01*
X3983000Y2127000D02*
Y2760000D01*
X4270000Y1840000D02*
X4480000D01*
X3856000Y2204503D02*
X4350503Y1710000D01*
X3856000Y2204503D02*
Y2760000D01*
X4350503Y1710000D02*
X4590000D01*
X4220000Y510000D02*
Y1180000D01*
X4380000Y1220000D02*
X4460000Y1300000D01*
X4220000Y1180000D02*
X4260000Y1220000D01*
X4155000Y405000D02*
X4160000Y400000D01*
X4260000Y1220000D02*
X4380000D01*
X4220000Y510000D02*
X4340000Y390000D01*
X4110000Y2400000D02*
X4690000Y1820000D01*
Y1700000D02*
X4750000Y1640000D01*
X4690000Y1700000D02*
Y1820000D01*
X4750000Y1640000D02*
X4870000D01*
X4980000Y1750000D02*
Y1840000D01*
X4870000Y1640000D02*
X4980000Y1750000D01*
X3590000Y2335026D02*
X3615026Y2310000D01*
X3780000D01*
X3590000Y1655025D02*
Y2335026D01*
X4155000Y405000D02*
Y1205000D01*
X4150000Y1210000D02*
X4155000Y1205000D01*
X290000Y1010000D02*
X480000Y1200000D01*
X290000Y940000D02*
Y1010000D01*
X1140000Y1000000D02*
X1380000Y1240000D01*
X1140000Y830000D02*
Y1000000D01*
X1250000Y1800000D02*
X1380000Y1670000D01*
Y1240000D02*
Y1670000D01*
X4410000Y980000D02*
X4770000D01*
X2650000Y1850000D02*
Y2100000D01*
Y1850000D02*
X3120000Y1380000D01*
X3680000D01*
X3850000Y1550000D02*
X4920000D01*
X3680000Y1380000D02*
X3850000Y1550000D01*
X5140000Y1770000D02*
Y2110000D01*
X4920000Y1550000D02*
X5140000Y1770000D01*
X4500000Y1440000D02*
X4990000D01*
X5160000Y1610000D01*
X5460000D01*
X5710000Y1860000D02*
Y2030000D01*
X5460000Y1610000D02*
X5710000Y1860000D01*
X5820000Y2140000D02*
X6030000D01*
X5710000Y2030000D02*
X5820000Y2140000D01*
X4310000Y1080000D02*
Y1130000D01*
Y1080000D02*
X4410000Y980000D01*
D44*
X4710000Y2650000D02*
X4910000D01*
X4980000Y2190000D02*
Y2580000D01*
X4910000Y2650000D02*
X4980000Y2580000D01*
X4710000Y2860000D02*
X4755000Y2815000D01*
X4450000Y2340000D02*
Y2510000D01*
X4755000Y2815000D01*
X4780000Y2790000D01*
X4800000Y2770000D01*
X3190000Y2335026D02*
Y2610000D01*
X4800000Y2770000D02*
X4840000Y2730000D01*
X2490000Y1770000D02*
Y2420000D01*
X2930000Y2860000D01*
X4710000D01*
X4840000Y2730000D02*
X5020000D01*
X4480000Y320000D02*
X4900000Y740000D01*
X3400000Y320000D02*
X4480000D01*
X3190000Y1655025D02*
Y2335026D01*
X4900000Y740000D02*
Y960000D01*
X5840000Y2650000D02*
Y2770000D01*
X5380000Y2190000D02*
X5840000Y2650000D01*
X4980000Y2190000D02*
X5380000D01*
D45*
X6160000Y1620000D02*
Y1730000D01*
X6107500Y1567500D02*
X6160000Y1620000D01*
X6020000Y1565000D02*
X6022500Y1567500D01*
X6107500D01*
X6228787Y1500000D02*
X6254260Y1474527D01*
X6020000Y1500000D02*
X6228787D01*
X6254260Y1445740D02*
Y1474527D01*
Y1445740D02*
X6260000Y1440000D01*
D48*
X2000000Y2500000D02*
D03*
Y500000D02*
D03*
D49*
X3856000Y2760000D02*
D03*
X3983000D02*
D03*
X4110000D02*
D03*
X4237000D02*
D03*
X4364000D02*
D03*
X5530000Y1213000D02*
D03*
Y1340000D02*
D03*
D50*
X4491000Y2760000D02*
D03*
D51*
X1103000Y430000D02*
D03*
X1230000D02*
D03*
X1357000D02*
D03*
X1484000D02*
D03*
D52*
X1611000D02*
D03*
D53*
X5931000Y1207500D02*
D03*
Y1922500D02*
D03*
D54*
X5530000Y1467000D02*
D03*
D55*
X1460000Y1150000D02*
D03*
X4910000Y2650000D02*
D03*
X4710000D02*
D03*
X570000Y2710000D02*
D03*
X460000D02*
D03*
X570000Y2810000D02*
D03*
X460000D02*
D03*
X550000Y2600000D02*
D03*
X450000Y2510000D02*
D03*
Y2600000D02*
D03*
X6310000Y658431D02*
D03*
X6200000D02*
D03*
X6310000Y570000D02*
D03*
X6205684Y562699D02*
D03*
X3190000Y2610000D02*
D03*
X4570000Y2412500D02*
D03*
X1530000Y1630000D02*
D03*
X1680000D02*
D03*
X2340000Y1970000D02*
D03*
X4450000Y2340000D02*
D03*
X4310000Y1980000D02*
D03*
X4270000Y2090000D02*
D03*
X4230000Y2520000D02*
D03*
X4310000Y570000D02*
D03*
Y690000D02*
D03*
Y800000D02*
D03*
X4980000Y690000D02*
D03*
X5090000Y650000D02*
D03*
X5300000D02*
D03*
X5430000D02*
D03*
X6200000Y340000D02*
D03*
X6130000Y220000D02*
D03*
X6020000Y170000D02*
D03*
X6260000Y1700000D02*
D03*
Y1440000D02*
D03*
X6160000Y1730000D02*
D03*
X3410000Y2020000D02*
D03*
X3990000Y1720000D02*
D03*
X160000Y2560000D02*
D03*
Y2300000D02*
D03*
Y2040000D02*
D03*
Y1780000D02*
D03*
Y1520000D02*
D03*
Y1290000D02*
D03*
X190000Y1110000D02*
D03*
X650000Y1040000D02*
D03*
X580000Y1130000D02*
D03*
X680000Y1220000D02*
D03*
X690000Y1360000D02*
D03*
X520000Y710000D02*
D03*
X1550000Y130000D02*
D03*
X1710000D02*
D03*
Y240000D02*
D03*
X1550000D02*
D03*
X2380000Y1690000D02*
D03*
X2280000Y1620000D02*
D03*
X2310000Y1770000D02*
D03*
X4160000Y400000D02*
D03*
X3400000Y320000D02*
D03*
X6270000Y1220000D02*
D03*
Y1330000D02*
D03*
X6190000Y2380000D02*
D03*
X4980000Y1840000D02*
D03*
X4810000Y1750000D02*
D03*
X4590000Y1710000D02*
D03*
X4480000Y1840000D02*
D03*
X3780000Y2310000D02*
D03*
X3020000Y1630000D02*
D03*
X3540000Y1200000D02*
D03*
X3100000Y1130000D02*
D03*
X4060000Y1210000D02*
D03*
X4150000D02*
D03*
X690000Y580000D02*
D03*
Y710000D02*
D03*
X1030000Y1150000D02*
D03*
X290000Y940000D02*
D03*
X480000Y1200000D02*
D03*
X1140000Y830000D02*
D03*
X1380000Y1240000D02*
D03*
X1250000Y1800000D02*
D03*
X1170000Y1590000D02*
D03*
X4770000Y980000D02*
D03*
X4900000Y960000D02*
D03*
X2440000Y450000D02*
D03*
X3720000Y700000D02*
D03*
X5000000Y220000D02*
D03*
X5330000Y810000D02*
D03*
X2650000Y2100000D02*
D03*
X5140000Y2110000D02*
D03*
X4500000Y1440000D02*
D03*
X6030000Y2140000D02*
D03*
X4460000Y1300000D02*
D03*
X4340000Y390000D02*
D03*
X4310000Y1130000D02*
D03*
X5130000Y2650000D02*
D03*
X5740000Y2730000D02*
D03*
X5600000Y1920000D02*
D03*
X5610000Y2060000D02*
D03*
X4310000Y2310000D02*
D03*
X2770000Y2050000D02*
D03*
X2490000Y1770000D02*
D03*
X5020000Y2730000D02*
D03*
X5450000D02*
D03*
X5840000Y2770000D02*
D03*
X4980000Y2190000D02*
D03*
X5940000Y2770000D02*
D03*
X5750000Y2350000D02*
D03*
D56*
X5990000Y363000D02*
D03*
Y617000D02*
D03*
D57*
X3590000Y1655025D02*
D03*
Y2335026D02*
D03*
X3190000D02*
D03*
Y1655025D02*
D03*
D58*
X6020000Y1435000D02*
D03*
Y1500000D02*
D03*
Y1565000D02*
D03*
Y1630000D02*
D03*
Y1695000D02*
D03*
D59*
X692500Y712500D02*
D03*
Y1460000D02*
D03*
Y2212500D02*
D03*
%TF.MD5,83e6e14e639f9345a568ea3e0904a0c8*%
M02*
