%TF.GenerationSoftware,Altium Limited,Altium Designer,20.2.6 (244)*%
G04 Layer_Color=8421504*
%FSLAX45Y45*%
%MOMM*%
%TF.SameCoordinates,BE144905-350C-4E41-9AB6-63F68E724E9C*%
%TF.FilePolarity,Positive*%
%TF.FileFunction,Paste,Top*%
%TF.Part,Single*%
G01*
G75*
%TA.AperFunction,SMDPad,CuDef*%
%ADD10R,1.20000X0.30000*%
%ADD11R,0.30000X1.20000*%
%ADD12R,1.80000X1.00000*%
%ADD13R,0.91000X1.22000*%
%ADD14R,0.64000X0.64000*%
%ADD15R,1.00000X0.90000*%
%ADD16R,0.64000X0.64000*%
%ADD17R,0.55000X0.60000*%
%ADD18R,0.60000X0.55000*%
%ADD19R,0.35000X0.55000*%
%ADD20R,1.60000X0.70000*%
%ADD21R,0.35000X0.75000*%
%ADD22R,0.65000X1.35000*%
%ADD23R,0.50000X0.25000*%
%ADD24R,1.20000X0.60000*%
%ADD25R,0.90000X1.00000*%
%ADD26R,1.00000X1.40000*%
%ADD27R,1.40000X1.10000*%
%ADD28R,1.00000X2.00000*%
%ADD29R,0.50000X0.60000*%
%ADD30R,1.10000X1.40000*%
%ADD31R,0.60000X0.50000*%
%ADD32R,2.00000X1.50000*%
%ADD33R,0.50000X0.20000*%
%ADD34R,0.65000X0.20000*%
%ADD35R,0.20000X0.50000*%
%ADD36R,0.20000X0.65000*%
%ADD37R,0.25000X0.36000*%
%ADD38R,1.80000X2.40000*%
%ADD39R,1.80000X1.20000*%
%ADD40R,0.30000X1.45000*%
%ADD41R,0.85000X0.40000*%
%ADD42O,2.00000X0.60000*%
D10*
X4292475Y1845050D02*
D03*
Y1795050D02*
D03*
Y1745050D02*
D03*
Y1695050D02*
D03*
Y1645050D02*
D03*
Y1595050D02*
D03*
Y1545050D02*
D03*
Y1495050D02*
D03*
Y1445050D02*
D03*
Y1395050D02*
D03*
Y1345050D02*
D03*
Y1295050D02*
D03*
X5142475D02*
D03*
Y1345050D02*
D03*
Y1395050D02*
D03*
Y1445050D02*
D03*
Y1495050D02*
D03*
Y1545050D02*
D03*
Y1595050D02*
D03*
Y1645050D02*
D03*
Y1695050D02*
D03*
Y1745050D02*
D03*
Y1795050D02*
D03*
Y1845050D02*
D03*
D11*
X4442475Y1145050D02*
D03*
X4492475D02*
D03*
X4542475D02*
D03*
X4592475D02*
D03*
X4642475D02*
D03*
X4692475D02*
D03*
X4742475D02*
D03*
X4792475D02*
D03*
X4842475D02*
D03*
X4892475D02*
D03*
X4942475D02*
D03*
X4992475D02*
D03*
Y1995050D02*
D03*
X4942475D02*
D03*
X4892475D02*
D03*
X4842475D02*
D03*
X4792475D02*
D03*
X4742475D02*
D03*
X4692475D02*
D03*
X4642475D02*
D03*
X4592475D02*
D03*
X4542475D02*
D03*
X4492475D02*
D03*
X4442475D02*
D03*
D12*
X3820000Y1895725D02*
D03*
Y2145725D02*
D03*
D13*
X5666500Y350000D02*
D03*
X5993500D02*
D03*
X5666500Y610000D02*
D03*
X5993500D02*
D03*
X1116500Y490000D02*
D03*
X1443500D02*
D03*
X4793500Y800000D02*
D03*
X4466500D02*
D03*
D14*
X4070000Y1344000D02*
D03*
Y1436000D02*
D03*
X3240000Y1134000D02*
D03*
Y1226000D02*
D03*
X3880000Y1716000D02*
D03*
Y1624000D02*
D03*
X5128794Y2444000D02*
D03*
Y2536000D02*
D03*
X2930000Y324000D02*
D03*
Y416000D02*
D03*
X2487475Y1880000D02*
D03*
Y1972000D02*
D03*
X5320000Y1904000D02*
D03*
Y1996000D02*
D03*
D15*
X3910000Y1212500D02*
D03*
Y1347500D02*
D03*
X4157475Y2200076D02*
D03*
Y2335076D02*
D03*
X5477525Y2060000D02*
D03*
Y1925000D02*
D03*
X5489975Y422500D02*
D03*
Y557500D02*
D03*
X4890000Y462500D02*
D03*
Y597500D02*
D03*
X2760000Y312500D02*
D03*
Y447500D02*
D03*
X2574974Y312500D02*
D03*
Y447500D02*
D03*
D16*
X3660000Y1200000D02*
D03*
X3752000D02*
D03*
X3534000Y2150000D02*
D03*
X3626000D02*
D03*
X3536475Y1900000D02*
D03*
X3628475D02*
D03*
X5844000Y2675041D02*
D03*
X5936000D02*
D03*
X5130000Y967525D02*
D03*
X5038000D02*
D03*
X2866000Y1640000D02*
D03*
X2774000D02*
D03*
X5554000Y2730000D02*
D03*
X5646000D02*
D03*
X4407475Y2180051D02*
D03*
X4315475D02*
D03*
D17*
X3900000Y2330000D02*
D03*
X3995000D02*
D03*
X5815000Y1685025D02*
D03*
X5720000D02*
D03*
X5817500Y1550000D02*
D03*
X5722500D02*
D03*
X5500000Y1030000D02*
D03*
X5595000D02*
D03*
X5502500Y894975D02*
D03*
X5597500D02*
D03*
X2562525Y1625025D02*
D03*
X2467525D02*
D03*
X2562525Y1490000D02*
D03*
X2467525D02*
D03*
X2562525Y1350000D02*
D03*
X2467525D02*
D03*
D18*
X3980000Y2512500D02*
D03*
Y2607500D02*
D03*
X4687475Y2542576D02*
D03*
Y2447576D02*
D03*
X4592450Y2232551D02*
D03*
Y2327551D02*
D03*
X4727475Y2232551D02*
D03*
Y2327551D02*
D03*
X4867384Y2232551D02*
D03*
Y2327551D02*
D03*
X4907475Y2542577D02*
D03*
Y2447577D02*
D03*
X6190000Y2140000D02*
D03*
Y2235000D02*
D03*
X4890000Y315000D02*
D03*
Y220000D02*
D03*
X6190000Y2015000D02*
D03*
Y1920000D02*
D03*
D19*
X5270000Y2437500D02*
D03*
X5370000D02*
D03*
Y2622500D02*
D03*
X5270000D02*
D03*
D20*
X5320000Y2530000D02*
D03*
D21*
X5550000Y2450000D02*
D03*
X5600000D02*
D03*
X5650000D02*
D03*
Y2590000D02*
D03*
X5600000D02*
D03*
X5550000D02*
D03*
D22*
X5935001Y2495001D02*
D03*
D23*
X6030001Y2560001D02*
D03*
Y2495001D02*
D03*
Y2430001D02*
D03*
X5840001D02*
D03*
Y2495001D02*
D03*
Y2560001D02*
D03*
D24*
X5810000Y1000000D02*
D03*
Y900000D02*
D03*
X6050000D02*
D03*
Y1000000D02*
D03*
D25*
X5157500Y810000D02*
D03*
X5022500D02*
D03*
D26*
X5105000Y332500D02*
D03*
X5295000D02*
D03*
X5200000Y577500D02*
D03*
X4674974Y537500D02*
D03*
X4484975D02*
D03*
X4579974Y292500D02*
D03*
D27*
X2310000Y1340000D02*
D03*
Y1490000D02*
D03*
X1590025Y1335000D02*
D03*
Y1485000D02*
D03*
D28*
X1010000Y1740000D02*
D03*
X510000D02*
D03*
D29*
X430000Y2210000D02*
D03*
X330000D02*
D03*
D30*
X455000Y2340000D02*
D03*
X305000D02*
D03*
X515000Y1359975D02*
D03*
X365000D02*
D03*
D31*
X1280000Y780000D02*
D03*
Y880000D02*
D03*
X1405025Y990000D02*
D03*
Y890000D02*
D03*
X1530050Y980000D02*
D03*
Y880000D02*
D03*
X540000Y830000D02*
D03*
Y930000D02*
D03*
X410000Y830000D02*
D03*
Y930000D02*
D03*
X1430000Y1350000D02*
D03*
Y1450000D02*
D03*
X1370000Y1800000D02*
D03*
X1170000Y1705000D02*
D03*
Y1895000D02*
D03*
D32*
X1030000Y1150000D02*
D03*
D33*
X1227500Y1050000D02*
D03*
D34*
X1220000Y1290000D02*
D03*
Y1250000D02*
D03*
Y1210000D02*
D03*
Y1170000D02*
D03*
Y1130000D02*
D03*
Y1090000D02*
D03*
X800000Y1050000D02*
D03*
Y1090000D02*
D03*
Y1130000D02*
D03*
Y1170000D02*
D03*
Y1210000D02*
D03*
Y1250000D02*
D03*
Y1290000D02*
D03*
D35*
X1130000Y952500D02*
D03*
D36*
X1090000Y960000D02*
D03*
X1050000D02*
D03*
X1010000D02*
D03*
X970000D02*
D03*
X930000D02*
D03*
X890000D02*
D03*
Y1380000D02*
D03*
X930000D02*
D03*
X970000D02*
D03*
X1130000D02*
D03*
X1090000D02*
D03*
X1050000D02*
D03*
X1010000D02*
D03*
D37*
X1470000Y1800000D02*
D03*
Y1720000D02*
D03*
D38*
X1250000Y2410000D02*
D03*
X650000D02*
D03*
D39*
X3660000Y1630725D02*
D03*
X3260000Y1390725D02*
D03*
X3660000D02*
D03*
X3260000Y1630725D02*
D03*
D40*
X2650000Y2270001D02*
D03*
X2850000D02*
D03*
X2800000D02*
D03*
X2750000D02*
D03*
X2700000D02*
D03*
X2650000Y1830000D02*
D03*
X2700000D02*
D03*
X2750000D02*
D03*
X2800000D02*
D03*
X2850000D02*
D03*
D41*
X6165000Y1490000D02*
D03*
Y1555000D02*
D03*
Y1620000D02*
D03*
X5980000D02*
D03*
Y1490000D02*
D03*
D42*
X3910000Y319500D02*
D03*
X3150000Y700500D02*
D03*
Y319500D02*
D03*
Y573500D02*
D03*
Y446499D02*
D03*
X3910000Y573500D02*
D03*
Y700500D02*
D03*
Y446500D02*
D03*
%TF.MD5,9ddfed0cc631ec18ed73b89c96ab5ee1*%
M02*
