%TF.GenerationSoftware,Altium Limited,Altium Designer,20.2.6 (244)*%
G04 Layer_Color=255*
%FSLAX45Y45*%
%MOMM*%
%TF.SameCoordinates,5B1E47F8-7F56-49C7-AB48-EE235D2752C7*%
%TF.FilePolarity,Positive*%
%TF.FileFunction,Pads,Top*%
%TF.Part,Single*%
G01*
G75*
%TA.AperFunction,SMDPad,CuDef*%
%ADD10R,1.80000X1.00000*%
%ADD11R,0.91000X1.22000*%
%ADD12R,0.64000X0.64000*%
%ADD13R,1.00000X0.90000*%
%ADD14R,0.64000X0.64000*%
%ADD15R,0.55000X0.60000*%
%ADD16R,0.60000X0.55000*%
%ADD17R,0.35000X0.55000*%
%ADD18R,1.60000X0.70000*%
%ADD19R,0.35000X0.75000*%
%ADD20R,0.65000X1.35000*%
%ADD21R,0.50000X0.25000*%
%ADD22R,1.20000X0.60000*%
%ADD23R,0.90000X1.00000*%
%ADD24R,1.00000X1.40000*%
%ADD25R,1.40000X1.10000*%
%ADD26R,1.00000X2.00000*%
%ADD27R,0.50000X0.60000*%
%ADD28R,1.10000X1.40000*%
%ADD29R,0.60000X0.50000*%
%ADD30R,2.00000X1.50000*%
%ADD31R,0.50000X0.20000*%
%ADD32R,0.65000X0.20000*%
%ADD33R,0.20000X0.50000*%
%ADD34R,0.20000X0.65000*%
%ADD35R,0.25000X0.36000*%
%ADD36R,1.80000X2.40000*%
%ADD37R,1.80000X1.20000*%
%ADD38R,0.30000X1.45000*%
%ADD39R,0.30000X1.20000*%
%ADD40R,1.20000X0.30000*%
%ADD41R,0.85000X0.40000*%
%ADD42O,2.00000X0.60000*%
%TA.AperFunction,ComponentPad*%
%ADD48C,3.50000*%
%ADD49C,1.10000*%
%ADD50R,1.10000X1.10000*%
G04:AMPARAMS|DCode=51|XSize=1.1mm|YSize=1.1mm|CornerRadius=0.275mm|HoleSize=0mm|Usage=FLASHONLY|Rotation=270.000|XOffset=0mm|YOffset=0mm|HoleType=Round|Shape=RoundedRectangle|*
%AMROUNDEDRECTD51*
21,1,1.10000,0.55000,0,0,270.0*
21,1,0.55000,1.10000,0,0,270.0*
1,1,0.55000,-0.27500,-0.27500*
1,1,0.55000,-0.27500,0.27500*
1,1,0.55000,0.27500,0.27500*
1,1,0.55000,0.27500,-0.27500*
%
%ADD51ROUNDEDRECTD51*%
G04:AMPARAMS|DCode=52|XSize=1.1mm|YSize=1.1mm|CornerRadius=0.1375mm|HoleSize=0mm|Usage=FLASHONLY|Rotation=270.000|XOffset=0mm|YOffset=0mm|HoleType=Round|Shape=RoundedRectangle|*
%AMROUNDEDRECTD52*
21,1,1.10000,0.82500,0,0,270.0*
21,1,0.82500,1.10000,0,0,270.0*
1,1,0.27500,-0.41250,-0.41250*
1,1,0.27500,-0.41250,0.41250*
1,1,0.27500,0.41250,0.41250*
1,1,0.27500,0.41250,-0.41250*
%
%ADD52ROUNDEDRECTD52*%
%ADD53O,2.80000X1.40000*%
%ADD54R,1.10000X1.10000*%
D10*
X3820000Y1895725D02*
D03*
Y2145725D02*
D03*
D11*
X5666500Y350000D02*
D03*
X5993500D02*
D03*
X5666500Y610000D02*
D03*
X5993500D02*
D03*
X1066500Y240000D02*
D03*
X1393500D02*
D03*
X4793500Y800000D02*
D03*
X4466500D02*
D03*
D12*
X4070000Y1344000D02*
D03*
Y1436000D02*
D03*
X3240000Y1134000D02*
D03*
Y1226000D02*
D03*
X3880000Y1716000D02*
D03*
Y1624000D02*
D03*
X5128794Y2444000D02*
D03*
Y2536000D02*
D03*
X2930000Y324000D02*
D03*
Y416000D02*
D03*
X2487475Y1880000D02*
D03*
Y1972000D02*
D03*
X5320000Y1904000D02*
D03*
Y1996000D02*
D03*
D13*
X3910000Y1212500D02*
D03*
Y1347500D02*
D03*
X4157475Y2200076D02*
D03*
Y2335076D02*
D03*
X5477525Y2060000D02*
D03*
Y1925000D02*
D03*
X5489975Y422500D02*
D03*
Y557500D02*
D03*
X4890000Y462500D02*
D03*
Y597500D02*
D03*
X2760000Y312500D02*
D03*
Y447500D02*
D03*
X2574974Y312500D02*
D03*
Y447500D02*
D03*
D14*
X3660000Y1200000D02*
D03*
X3752000D02*
D03*
X3534000Y2150000D02*
D03*
X3626000D02*
D03*
X3536475Y1900000D02*
D03*
X3628475D02*
D03*
X5844000Y2675041D02*
D03*
X5936000D02*
D03*
X5130000Y967525D02*
D03*
X5038000D02*
D03*
X2866000Y1640000D02*
D03*
X2774000D02*
D03*
X5554000Y2730000D02*
D03*
X5646000D02*
D03*
X4407475Y2180051D02*
D03*
X4315475D02*
D03*
D15*
X3900000Y2330000D02*
D03*
X3995000D02*
D03*
X5815000Y1685025D02*
D03*
X5720000D02*
D03*
X5817500Y1550000D02*
D03*
X5722500D02*
D03*
X5500000Y1030000D02*
D03*
X5595000D02*
D03*
X5502500Y894975D02*
D03*
X5597500D02*
D03*
X2562525Y1625025D02*
D03*
X2467525D02*
D03*
X2562525Y1490000D02*
D03*
X2467525D02*
D03*
X2562525Y1350000D02*
D03*
X2467525D02*
D03*
D16*
X3980000Y2512500D02*
D03*
Y2607500D02*
D03*
X4687475Y2542576D02*
D03*
Y2447576D02*
D03*
X4592450Y2232551D02*
D03*
Y2327551D02*
D03*
X4727475Y2232551D02*
D03*
Y2327551D02*
D03*
X4867384Y2232551D02*
D03*
Y2327551D02*
D03*
X4907475Y2542577D02*
D03*
Y2447577D02*
D03*
X6190000Y2140000D02*
D03*
Y2235000D02*
D03*
X4890000Y315000D02*
D03*
Y220000D02*
D03*
X6190000Y2015000D02*
D03*
Y1920000D02*
D03*
D17*
X5270000Y2437500D02*
D03*
X5370000D02*
D03*
Y2622500D02*
D03*
X5270000D02*
D03*
D18*
X5320000Y2530000D02*
D03*
D19*
X5550000Y2450000D02*
D03*
X5600000D02*
D03*
X5650000D02*
D03*
Y2590000D02*
D03*
X5600000D02*
D03*
X5550000D02*
D03*
D20*
X5935001Y2495001D02*
D03*
D21*
X6030001Y2560001D02*
D03*
Y2495001D02*
D03*
Y2430001D02*
D03*
X5840001D02*
D03*
Y2495001D02*
D03*
Y2560001D02*
D03*
D22*
X5810000Y1000000D02*
D03*
Y900000D02*
D03*
X6050000D02*
D03*
Y1000000D02*
D03*
D23*
X5157500Y810000D02*
D03*
X5022500D02*
D03*
D24*
X5105000Y332500D02*
D03*
X5295000D02*
D03*
X5200000Y577500D02*
D03*
X4674974Y537500D02*
D03*
X4484975D02*
D03*
X4579974Y292500D02*
D03*
D25*
X2310000Y1340000D02*
D03*
Y1490000D02*
D03*
X1590025Y1335000D02*
D03*
Y1485000D02*
D03*
D26*
X1010000Y1740000D02*
D03*
X510000D02*
D03*
D27*
X430000Y2210000D02*
D03*
X330000D02*
D03*
D28*
X450000Y2380000D02*
D03*
X300000D02*
D03*
X515000Y1359975D02*
D03*
X365000D02*
D03*
D29*
X1280000Y780000D02*
D03*
Y880000D02*
D03*
X1405025Y990000D02*
D03*
Y890000D02*
D03*
X1530050Y980000D02*
D03*
Y880000D02*
D03*
X540000Y830000D02*
D03*
Y930000D02*
D03*
X410000Y830000D02*
D03*
Y930000D02*
D03*
X1430000Y1350000D02*
D03*
Y1450000D02*
D03*
X1370000Y1800000D02*
D03*
X1170000Y1705000D02*
D03*
Y1895000D02*
D03*
D30*
X1030000Y1150000D02*
D03*
D31*
X1227500Y1050000D02*
D03*
D32*
X1220000Y1290000D02*
D03*
Y1250000D02*
D03*
Y1210000D02*
D03*
Y1170000D02*
D03*
Y1130000D02*
D03*
Y1090000D02*
D03*
X800000Y1050000D02*
D03*
Y1090000D02*
D03*
Y1130000D02*
D03*
Y1170000D02*
D03*
Y1210000D02*
D03*
Y1250000D02*
D03*
Y1290000D02*
D03*
D33*
X1130000Y952500D02*
D03*
D34*
X1090000Y960000D02*
D03*
X1050000D02*
D03*
X1010000D02*
D03*
X970000D02*
D03*
X930000D02*
D03*
X890000D02*
D03*
Y1380000D02*
D03*
X930000D02*
D03*
X970000D02*
D03*
X1130000D02*
D03*
X1090000D02*
D03*
X1050000D02*
D03*
X1010000D02*
D03*
D35*
X1470000Y1800000D02*
D03*
Y1720000D02*
D03*
D36*
X1250000Y2410000D02*
D03*
X650000D02*
D03*
D37*
X3660000Y1630725D02*
D03*
X3260000Y1390725D02*
D03*
X3660000D02*
D03*
X3260000Y1630725D02*
D03*
D38*
X2650000Y2270001D02*
D03*
X2850000D02*
D03*
X2800000D02*
D03*
X2750000D02*
D03*
X2700000D02*
D03*
X2650000Y1830000D02*
D03*
X2700000D02*
D03*
X2750000D02*
D03*
X2800000D02*
D03*
X2850000D02*
D03*
D39*
X4442475Y1995050D02*
D03*
X4492475D02*
D03*
X4542475D02*
D03*
X4592475D02*
D03*
X4642475D02*
D03*
X4692475D02*
D03*
X4742475D02*
D03*
X4792475D02*
D03*
X4842475D02*
D03*
X4892475D02*
D03*
X4942475D02*
D03*
X4992475D02*
D03*
Y1145050D02*
D03*
X4942475D02*
D03*
X4892475D02*
D03*
X4842475D02*
D03*
X4792475D02*
D03*
X4742475D02*
D03*
X4692475D02*
D03*
X4642475D02*
D03*
X4592475D02*
D03*
X4542475D02*
D03*
X4492475D02*
D03*
X4442475D02*
D03*
D40*
X5142475Y1845050D02*
D03*
Y1795050D02*
D03*
Y1745050D02*
D03*
Y1695050D02*
D03*
Y1645050D02*
D03*
Y1595050D02*
D03*
Y1545050D02*
D03*
Y1495050D02*
D03*
Y1445050D02*
D03*
Y1395050D02*
D03*
Y1345050D02*
D03*
Y1295050D02*
D03*
X4292475D02*
D03*
Y1345050D02*
D03*
Y1395050D02*
D03*
Y1445050D02*
D03*
Y1495050D02*
D03*
Y1545050D02*
D03*
Y1595050D02*
D03*
Y1645050D02*
D03*
Y1695050D02*
D03*
Y1745050D02*
D03*
Y1795050D02*
D03*
Y1845050D02*
D03*
D41*
X6165000Y1490000D02*
D03*
Y1555000D02*
D03*
Y1620000D02*
D03*
X5980000D02*
D03*
Y1490000D02*
D03*
D42*
X3910000Y319500D02*
D03*
X3150000Y700500D02*
D03*
Y319500D02*
D03*
Y573500D02*
D03*
Y446499D02*
D03*
X3910000Y573500D02*
D03*
Y700500D02*
D03*
Y446500D02*
D03*
D48*
X2000000Y2500000D02*
D03*
Y500000D02*
D03*
D49*
X3856000Y2760000D02*
D03*
X3983000D02*
D03*
X4110000D02*
D03*
X4237000D02*
D03*
X4364000D02*
D03*
X5530000Y1213000D02*
D03*
Y1340000D02*
D03*
D50*
X4491000Y2760000D02*
D03*
D51*
X1103000Y430000D02*
D03*
X1230000D02*
D03*
X1357000D02*
D03*
X1484000D02*
D03*
D52*
X1611000D02*
D03*
D53*
X5931000Y1207500D02*
D03*
Y1922500D02*
D03*
D54*
X5530000Y1467000D02*
D03*
%TF.MD5,d9d7ba7cb1045030116c4477d8974b4c*%
M02*
