%TF.GenerationSoftware,Altium Limited,Altium Designer,20.2.6 (244)*%
G04 Layer_Color=8388736*
%FSLAX45Y45*%
%MOMM*%
%TF.SameCoordinates,5B1E47F8-7F56-49C7-AB48-EE235D2752C7*%
%TF.FilePolarity,Negative*%
%TF.FileFunction,Soldermask,Top*%
%TF.Part,Single*%
G01*
G75*
%TA.AperFunction,SMDPad,CuDef*%
%ADD10R,1.80000X1.00000*%
%ADD11R,0.91000X1.22000*%
%ADD12R,0.64000X0.64000*%
%ADD13R,1.00000X0.90000*%
%ADD14R,0.64000X0.64000*%
%ADD15R,0.55000X0.60000*%
%ADD16R,0.60000X0.55000*%
%ADD17R,0.35000X0.55000*%
%ADD18R,1.60000X0.70000*%
%ADD19R,0.35000X0.75000*%
%ADD20R,0.65000X1.35000*%
%ADD21R,0.50000X0.25000*%
%ADD22R,1.20000X0.60000*%
%ADD23R,0.90000X1.00000*%
%ADD24R,1.00000X1.40000*%
%ADD25R,1.40000X1.10000*%
%ADD28R,1.10000X1.40000*%
%ADD37R,1.80000X1.20000*%
%ADD38R,0.30000X1.45000*%
%ADD39R,0.30000X1.20000*%
%ADD40R,1.20000X0.30000*%
%ADD41R,0.85000X0.40000*%
%ADD42O,2.00000X0.60000*%
%TA.AperFunction,ComponentPad*%
%ADD48C,3.50000*%
%ADD49C,1.10000*%
%ADD50R,1.10000X1.10000*%
G04:AMPARAMS|DCode=51|XSize=1.1mm|YSize=1.1mm|CornerRadius=0.275mm|HoleSize=0mm|Usage=FLASHONLY|Rotation=270.000|XOffset=0mm|YOffset=0mm|HoleType=Round|Shape=RoundedRectangle|*
%AMROUNDEDRECTD51*
21,1,1.10000,0.55000,0,0,270.0*
21,1,0.55000,1.10000,0,0,270.0*
1,1,0.55000,-0.27500,-0.27500*
1,1,0.55000,-0.27500,0.27500*
1,1,0.55000,0.27500,0.27500*
1,1,0.55000,0.27500,-0.27500*
%
%ADD51ROUNDEDRECTD51*%
G04:AMPARAMS|DCode=52|XSize=1.1mm|YSize=1.1mm|CornerRadius=0.1375mm|HoleSize=0mm|Usage=FLASHONLY|Rotation=270.000|XOffset=0mm|YOffset=0mm|HoleType=Round|Shape=RoundedRectangle|*
%AMROUNDEDRECTD52*
21,1,1.10000,0.82500,0,0,270.0*
21,1,0.82500,1.10000,0,0,270.0*
1,1,0.27500,-0.41250,-0.41250*
1,1,0.27500,-0.41250,0.41250*
1,1,0.27500,0.41250,0.41250*
1,1,0.27500,0.41250,-0.41250*
%
%ADD52ROUNDEDRECTD52*%
%ADD54R,1.10000X1.10000*%
%TA.AperFunction,NonConductor*%
%ADD62C,0.10000*%
%TA.AperFunction,SMDPad,CuDef*%
%ADD63R,1.10000X2.10000*%
%ADD64R,0.60000X0.70000*%
%ADD65R,0.70000X0.60000*%
%ADD66R,2.10000X1.60000*%
%ADD67R,0.60000X0.30000*%
%ADD68R,0.75000X0.30000*%
%ADD69R,0.30000X0.60000*%
%ADD70R,0.30000X0.75000*%
%ADD71R,0.35000X0.46000*%
%ADD72R,1.90000X2.50000*%
G36*
X400000Y400000D02*
Y390151D01*
X396157Y370831D01*
X388619Y352632D01*
X377675Y336254D01*
X363746Y322325D01*
X347368Y311381D01*
X329169Y303843D01*
X309849Y300000D01*
X300000D01*
X290151D01*
X270831Y303843D01*
X252632Y311381D01*
X236254Y322325D01*
X222325Y336254D01*
X211381Y352632D01*
X203843Y370831D01*
X200000Y390151D01*
Y400000D01*
Y409849D01*
X203843Y429169D01*
X211381Y447368D01*
X222325Y463746D01*
X236254Y477675D01*
X252632Y488619D01*
X270831Y496157D01*
X290151Y500000D01*
X300000D01*
X309849D01*
X329169Y496157D01*
X347368Y488619D01*
X363746Y477675D01*
X377675Y463746D01*
X388619Y447368D01*
X396157Y429169D01*
X400000Y409849D01*
Y400000D01*
D01*
D02*
G37*
G36*
X2450000Y200000D02*
Y190151D01*
X2446157Y170831D01*
X2438619Y152632D01*
X2427675Y136254D01*
X2413747Y122325D01*
X2397368Y111381D01*
X2379169Y103843D01*
X2359849Y100000D01*
X2350000D01*
X2340151D01*
X2320831Y103843D01*
X2302632Y111381D01*
X2286254Y122325D01*
X2272325Y136254D01*
X2261381Y152632D01*
X2253843Y170831D01*
X2250000Y190151D01*
Y200000D01*
Y209849D01*
X2253843Y229169D01*
X2261381Y247368D01*
X2272325Y263746D01*
X2286254Y277675D01*
X2302632Y288619D01*
X2320831Y296157D01*
X2340151Y300000D01*
X2350000D01*
X2359849D01*
X2379169Y296157D01*
X2397368Y288619D01*
X2413747Y277675D01*
X2427675Y263746D01*
X2438619Y247368D01*
X2446157Y229169D01*
X2450000Y209849D01*
Y200000D01*
D01*
D02*
G37*
G36*
X1600000Y2650000D02*
Y2640151D01*
X1596157Y2620831D01*
X1588619Y2602632D01*
X1577675Y2586254D01*
X1563746Y2572325D01*
X1547368Y2561381D01*
X1529169Y2553843D01*
X1509849Y2550000D01*
X1500000D01*
X1490151D01*
X1470831Y2553843D01*
X1452632Y2561381D01*
X1436254Y2572325D01*
X1422325Y2586254D01*
X1411381Y2602632D01*
X1403843Y2620831D01*
X1400000Y2640151D01*
Y2650000D01*
Y2659849D01*
X1403843Y2679169D01*
X1411381Y2697368D01*
X1422325Y2713746D01*
X1436254Y2727675D01*
X1452632Y2738619D01*
X1470831Y2746157D01*
X1490151Y2750000D01*
X1500000D01*
X1509849D01*
X1529169Y2746157D01*
X1547368Y2738619D01*
X1563746Y2727675D01*
X1577675Y2713746D01*
X1588619Y2697368D01*
X1596157Y2679169D01*
X1600000Y2659849D01*
Y2650000D01*
D01*
D02*
G37*
G36*
X2600000D02*
Y2640151D01*
X2596157Y2620831D01*
X2588619Y2602632D01*
X2577675Y2586254D01*
X2563746Y2572325D01*
X2547368Y2561381D01*
X2529169Y2553843D01*
X2509849Y2550000D01*
X2500000D01*
X2490151D01*
X2470831Y2553843D01*
X2452632Y2561381D01*
X2436254Y2572325D01*
X2422325Y2586254D01*
X2411381Y2602632D01*
X2403843Y2620831D01*
X2400000Y2640151D01*
Y2650000D01*
Y2659849D01*
X2403843Y2679169D01*
X2411381Y2697368D01*
X2422325Y2713746D01*
X2436254Y2727675D01*
X2452632Y2738619D01*
X2470831Y2746157D01*
X2490151Y2750000D01*
X2500000D01*
X2509849D01*
X2529169Y2746157D01*
X2547368Y2738619D01*
X2563746Y2727675D01*
X2577675Y2713746D01*
X2588619Y2697368D01*
X2596157Y2679169D01*
X2600000Y2659849D01*
Y2650000D01*
D01*
D02*
G37*
G36*
X2950000Y1050000D02*
Y1040151D01*
X2946157Y1020831D01*
X2938619Y1002632D01*
X2927675Y986254D01*
X2913746Y972325D01*
X2897368Y961381D01*
X2879169Y953843D01*
X2859849Y950000D01*
X2850000D01*
X2840151D01*
X2820831Y953843D01*
X2802632Y961381D01*
X2786254Y972325D01*
X2772325Y986254D01*
X2761381Y1002632D01*
X2753843Y1020831D01*
X2750000Y1040151D01*
Y1050000D01*
Y1059849D01*
X2753843Y1079169D01*
X2761381Y1097368D01*
X2772325Y1113746D01*
X2786254Y1127675D01*
X2802632Y1138619D01*
X2820831Y1146157D01*
X2840151Y1150000D01*
X2850000D01*
X2859849D01*
X2879169Y1146157D01*
X2897368Y1138619D01*
X2913746Y1127675D01*
X2927675Y1113746D01*
X2938619Y1097368D01*
X2946157Y1079169D01*
X2950000Y1059849D01*
Y1050000D01*
D01*
D02*
G37*
G36*
X4350000Y200000D02*
Y190151D01*
X4346157Y170831D01*
X4338619Y152632D01*
X4327675Y136254D01*
X4313746Y122325D01*
X4297368Y111381D01*
X4279169Y103843D01*
X4259849Y100000D01*
X4250000D01*
X4240151D01*
X4220831Y103843D01*
X4202632Y111381D01*
X4186254Y122325D01*
X4172325Y136254D01*
X4161381Y152632D01*
X4153843Y170831D01*
X4150000Y190151D01*
Y200000D01*
Y209849D01*
X4153843Y229169D01*
X4161381Y247368D01*
X4172325Y263746D01*
X4186254Y277675D01*
X4202632Y288619D01*
X4220831Y296157D01*
X4240151Y300000D01*
X4250000D01*
X4259849D01*
X4279169Y296157D01*
X4297368Y288619D01*
X4313746Y277675D01*
X4327675Y263746D01*
X4338619Y247368D01*
X4346157Y229169D01*
X4350000Y209849D01*
Y200000D01*
D01*
D02*
G37*
G36*
X6028404Y1211163D02*
X6028116Y1214817D01*
X6027638Y1218450D01*
X6026970Y1222054D01*
X6026115Y1225617D01*
X6025074Y1229131D01*
X6023851Y1232586D01*
X6022448Y1235971D01*
X6020870Y1239279D01*
X6019122Y1242500D01*
X6017207Y1245625D01*
X6015131Y1248645D01*
X6012900Y1251552D01*
X6010520Y1254339D01*
X6007997Y1256997D01*
X6005339Y1259520D01*
X6002552Y1261900D01*
X5999645Y1264131D01*
X5996625Y1266207D01*
X5993500Y1268122D01*
X5990279Y1269870D01*
X5986972Y1271448D01*
X5983586Y1272851D01*
X5980131Y1274074D01*
X5976617Y1275115D01*
X5973054Y1275970D01*
X5969450Y1276638D01*
X5965817Y1277117D01*
X5962163Y1277404D01*
X5958500Y1277500D01*
X5903500D01*
X5899836Y1277404D01*
X5896183Y1277117D01*
X5892550Y1276638D01*
X5888946Y1275970D01*
X5885382Y1275115D01*
X5881869Y1274074D01*
X5878414Y1272851D01*
X5875028Y1271448D01*
X5871721Y1269870D01*
X5868500Y1268122D01*
X5865375Y1266207D01*
X5862355Y1264131D01*
X5859448Y1261900D01*
X5856661Y1259520D01*
X5854003Y1256997D01*
X5851480Y1254339D01*
X5849100Y1251552D01*
X5846869Y1248645D01*
X5844793Y1245625D01*
X5842878Y1242500D01*
X5841130Y1239279D01*
X5839552Y1235971D01*
X5838149Y1232586D01*
X5836926Y1229131D01*
X5835885Y1225617D01*
X5835029Y1222054D01*
X5834362Y1218450D01*
X5833883Y1214817D01*
X5833596Y1211163D01*
X5833500Y1207500D01*
X5833596Y1203836D01*
X5833883Y1200183D01*
X5834362Y1196550D01*
X5835029Y1192946D01*
X5835885Y1189383D01*
X5836926Y1185869D01*
X5838149Y1182414D01*
X5839552Y1179028D01*
X5841130Y1175721D01*
X5842878Y1172500D01*
X5844793Y1169375D01*
X5846869Y1166355D01*
X5849100Y1163448D01*
X5851480Y1160661D01*
X5854003Y1158003D01*
X5856661Y1155480D01*
X5859448Y1153100D01*
X5862355Y1150869D01*
X5865375Y1148793D01*
X5868500Y1146878D01*
X5871721Y1145130D01*
X5875028Y1143552D01*
X5878414Y1142149D01*
X5881869Y1140926D01*
X5885382Y1139885D01*
X5888946Y1139029D01*
X5892550Y1138362D01*
X5896183Y1137883D01*
X5899836Y1137596D01*
X5903500Y1137500D01*
X5958500D01*
X5962163Y1137596D01*
X5965817Y1137883D01*
X5969450Y1138362D01*
X5973054Y1139029D01*
X5976617Y1139885D01*
X5980131Y1140926D01*
X5983586Y1142149D01*
X5986972Y1143552D01*
X5990279Y1145130D01*
X5993500Y1146878D01*
X5996625Y1148793D01*
X5999645Y1150869D01*
X6002552Y1153100D01*
X6005339Y1155480D01*
X6007997Y1158003D01*
X6010520Y1160661D01*
X6012900Y1163448D01*
X6015131Y1166355D01*
X6017207Y1169375D01*
X6019122Y1172500D01*
X6020870Y1175721D01*
X6022448Y1179028D01*
X6023851Y1182414D01*
X6025074Y1185869D01*
X6026115Y1189383D01*
X6026970Y1192946D01*
X6027638Y1196550D01*
X6028116Y1200183D01*
X6028404Y1203836D01*
X6028500Y1207500D01*
X6028404Y1211163D01*
D02*
G37*
G36*
Y1926164D02*
X6028116Y1929817D01*
X6027638Y1933450D01*
X6026970Y1937054D01*
X6026115Y1940617D01*
X6025074Y1944131D01*
X6023851Y1947586D01*
X6022448Y1950971D01*
X6020870Y1954279D01*
X6019122Y1957500D01*
X6017207Y1960625D01*
X6015131Y1963645D01*
X6012900Y1966552D01*
X6010520Y1969339D01*
X6007997Y1971997D01*
X6005339Y1974520D01*
X6002552Y1976900D01*
X5999645Y1979131D01*
X5996625Y1981207D01*
X5993500Y1983122D01*
X5990279Y1984870D01*
X5986972Y1986448D01*
X5983586Y1987850D01*
X5980131Y1989074D01*
X5976617Y1990115D01*
X5973054Y1990970D01*
X5969450Y1991638D01*
X5965817Y1992116D01*
X5962163Y1992404D01*
X5958500Y1992500D01*
X5903500D01*
X5899836Y1992404D01*
X5896183Y1992116D01*
X5892550Y1991638D01*
X5888946Y1990970D01*
X5885382Y1990115D01*
X5881869Y1989074D01*
X5878414Y1987850D01*
X5875028Y1986448D01*
X5871721Y1984870D01*
X5868500Y1983122D01*
X5865375Y1981207D01*
X5862355Y1979131D01*
X5859448Y1976900D01*
X5856661Y1974520D01*
X5854003Y1971997D01*
X5851480Y1969339D01*
X5849100Y1966552D01*
X5846869Y1963645D01*
X5844793Y1960625D01*
X5842878Y1957500D01*
X5841130Y1954279D01*
X5839552Y1950971D01*
X5838149Y1947586D01*
X5836926Y1944131D01*
X5835885Y1940617D01*
X5835029Y1937054D01*
X5834362Y1933450D01*
X5833883Y1929817D01*
X5833596Y1926164D01*
X5833500Y1922500D01*
X5833596Y1918836D01*
X5833883Y1915183D01*
X5834362Y1911549D01*
X5835029Y1907946D01*
X5835885Y1904383D01*
X5836926Y1900869D01*
X5838149Y1897414D01*
X5839552Y1894028D01*
X5841130Y1890721D01*
X5842878Y1887500D01*
X5844793Y1884375D01*
X5846869Y1881355D01*
X5849100Y1878448D01*
X5851480Y1875661D01*
X5854003Y1873002D01*
X5856661Y1870480D01*
X5859448Y1868100D01*
X5862355Y1865869D01*
X5865375Y1863793D01*
X5868500Y1861878D01*
X5871721Y1860129D01*
X5875028Y1858552D01*
X5878414Y1857149D01*
X5881869Y1855926D01*
X5885382Y1854885D01*
X5888946Y1854030D01*
X5892550Y1853362D01*
X5896183Y1852883D01*
X5899836Y1852596D01*
X5903500Y1852500D01*
X5958500D01*
X5962163Y1852596D01*
X5965817Y1852883D01*
X5969450Y1853362D01*
X5973054Y1854030D01*
X5976617Y1854885D01*
X5980131Y1855926D01*
X5983586Y1857149D01*
X5986972Y1858552D01*
X5990279Y1860129D01*
X5993500Y1861878D01*
X5996625Y1863793D01*
X5999645Y1865869D01*
X6002552Y1868100D01*
X6005339Y1870480D01*
X6007997Y1873002D01*
X6010520Y1875661D01*
X6012900Y1878448D01*
X6015131Y1881355D01*
X6017207Y1884375D01*
X6019122Y1887500D01*
X6020870Y1890721D01*
X6022448Y1894028D01*
X6023851Y1897414D01*
X6025074Y1900869D01*
X6026115Y1904383D01*
X6026970Y1907946D01*
X6027638Y1911549D01*
X6028116Y1915183D01*
X6028404Y1918836D01*
X6028500Y1922500D01*
X6028404Y1926164D01*
D02*
G37*
D10*
X3820000Y1895725D02*
D03*
Y2145725D02*
D03*
D11*
X5666500Y350000D02*
D03*
X5993500D02*
D03*
X5666500Y610000D02*
D03*
X5993500D02*
D03*
X1066500Y240000D02*
D03*
X1393500D02*
D03*
X4793500Y800000D02*
D03*
X4466500D02*
D03*
D12*
X4070000Y1344000D02*
D03*
Y1436000D02*
D03*
X3240000Y1134000D02*
D03*
Y1226000D02*
D03*
X3880000Y1716000D02*
D03*
Y1624000D02*
D03*
X5128794Y2444000D02*
D03*
Y2536000D02*
D03*
X2930000Y324000D02*
D03*
Y416000D02*
D03*
X2487475Y1880000D02*
D03*
Y1972000D02*
D03*
X5320000Y1904000D02*
D03*
Y1996000D02*
D03*
D13*
X3910000Y1212500D02*
D03*
Y1347500D02*
D03*
X4157475Y2200076D02*
D03*
Y2335076D02*
D03*
X5477525Y2060000D02*
D03*
Y1925000D02*
D03*
X5489975Y422500D02*
D03*
Y557500D02*
D03*
X4890000Y462500D02*
D03*
Y597500D02*
D03*
X2760000Y312500D02*
D03*
Y447500D02*
D03*
X2574974Y312500D02*
D03*
Y447500D02*
D03*
D14*
X3660000Y1200000D02*
D03*
X3752000D02*
D03*
X3534000Y2150000D02*
D03*
X3626000D02*
D03*
X3536475Y1900000D02*
D03*
X3628475D02*
D03*
X5844000Y2675041D02*
D03*
X5936000D02*
D03*
X5130000Y967525D02*
D03*
X5038000D02*
D03*
X2866000Y1640000D02*
D03*
X2774000D02*
D03*
X5554000Y2730000D02*
D03*
X5646000D02*
D03*
X4407475Y2180051D02*
D03*
X4315475D02*
D03*
D15*
X3900000Y2330000D02*
D03*
X3995000D02*
D03*
X5815000Y1685025D02*
D03*
X5720000D02*
D03*
X5817500Y1550000D02*
D03*
X5722500D02*
D03*
X5500000Y1030000D02*
D03*
X5595000D02*
D03*
X5502500Y894975D02*
D03*
X5597500D02*
D03*
X2562525Y1625025D02*
D03*
X2467525D02*
D03*
X2562525Y1490000D02*
D03*
X2467525D02*
D03*
X2562525Y1350000D02*
D03*
X2467525D02*
D03*
D16*
X3980000Y2512500D02*
D03*
Y2607500D02*
D03*
X4687475Y2542576D02*
D03*
Y2447576D02*
D03*
X4592450Y2232551D02*
D03*
Y2327551D02*
D03*
X4727475Y2232551D02*
D03*
Y2327551D02*
D03*
X4867384Y2232551D02*
D03*
Y2327551D02*
D03*
X4907475Y2542577D02*
D03*
Y2447577D02*
D03*
X6190000Y2140000D02*
D03*
Y2235000D02*
D03*
X4890000Y315000D02*
D03*
Y220000D02*
D03*
X6190000Y2015000D02*
D03*
Y1920000D02*
D03*
D17*
X5270000Y2437500D02*
D03*
X5370000D02*
D03*
Y2622500D02*
D03*
X5270000D02*
D03*
D18*
X5320000Y2530000D02*
D03*
D19*
X5550000Y2450000D02*
D03*
X5600000D02*
D03*
X5650000D02*
D03*
Y2590000D02*
D03*
X5600000D02*
D03*
X5550000D02*
D03*
D20*
X5935001Y2495001D02*
D03*
D21*
X6030001Y2560001D02*
D03*
Y2495001D02*
D03*
Y2430001D02*
D03*
X5840001D02*
D03*
Y2495001D02*
D03*
Y2560001D02*
D03*
D22*
X5810000Y1000000D02*
D03*
Y900000D02*
D03*
X6050000D02*
D03*
Y1000000D02*
D03*
D23*
X5157500Y810000D02*
D03*
X5022500D02*
D03*
D24*
X5105000Y332500D02*
D03*
X5295000D02*
D03*
X5200000Y577500D02*
D03*
X4674974Y537500D02*
D03*
X4484975D02*
D03*
X4579974Y292500D02*
D03*
D25*
X2310000Y1340000D02*
D03*
Y1490000D02*
D03*
X1590025Y1335000D02*
D03*
Y1485000D02*
D03*
D28*
X450000Y2380000D02*
D03*
X300000D02*
D03*
X515000Y1359975D02*
D03*
X365000D02*
D03*
D37*
X3660000Y1630725D02*
D03*
X3260000Y1390725D02*
D03*
X3660000D02*
D03*
X3260000Y1630725D02*
D03*
D38*
X2650000Y2270001D02*
D03*
X2850000D02*
D03*
X2800000D02*
D03*
X2750000D02*
D03*
X2700000D02*
D03*
X2650000Y1830000D02*
D03*
X2700000D02*
D03*
X2750000D02*
D03*
X2800000D02*
D03*
X2850000D02*
D03*
D39*
X4442475Y1995050D02*
D03*
X4492475D02*
D03*
X4542475D02*
D03*
X4592475D02*
D03*
X4642475D02*
D03*
X4692475D02*
D03*
X4742475D02*
D03*
X4792475D02*
D03*
X4842475D02*
D03*
X4892475D02*
D03*
X4942475D02*
D03*
X4992475D02*
D03*
Y1145050D02*
D03*
X4942475D02*
D03*
X4892475D02*
D03*
X4842475D02*
D03*
X4792475D02*
D03*
X4742475D02*
D03*
X4692475D02*
D03*
X4642475D02*
D03*
X4592475D02*
D03*
X4542475D02*
D03*
X4492475D02*
D03*
X4442475D02*
D03*
D40*
X5142475Y1845050D02*
D03*
Y1795050D02*
D03*
Y1745050D02*
D03*
Y1695050D02*
D03*
Y1645050D02*
D03*
Y1595050D02*
D03*
Y1545050D02*
D03*
Y1495050D02*
D03*
Y1445050D02*
D03*
Y1395050D02*
D03*
Y1345050D02*
D03*
Y1295050D02*
D03*
X4292475D02*
D03*
Y1345050D02*
D03*
Y1395050D02*
D03*
Y1445050D02*
D03*
Y1495050D02*
D03*
Y1545050D02*
D03*
Y1595050D02*
D03*
Y1645050D02*
D03*
Y1695050D02*
D03*
Y1745050D02*
D03*
Y1795050D02*
D03*
Y1845050D02*
D03*
D41*
X6165000Y1490000D02*
D03*
Y1555000D02*
D03*
Y1620000D02*
D03*
X5980000D02*
D03*
Y1490000D02*
D03*
D42*
X3910000Y319500D02*
D03*
X3150000Y700500D02*
D03*
Y319500D02*
D03*
Y573500D02*
D03*
Y446499D02*
D03*
X3910000Y573500D02*
D03*
Y700500D02*
D03*
Y446500D02*
D03*
D48*
X2000000Y2500000D02*
D03*
Y500000D02*
D03*
D49*
X3856000Y2760000D02*
D03*
X3983000D02*
D03*
X4110000D02*
D03*
X4237000D02*
D03*
X4364000D02*
D03*
X5530000Y1213000D02*
D03*
Y1340000D02*
D03*
D50*
X4491000Y2760000D02*
D03*
D51*
X1103000Y430000D02*
D03*
X1230000D02*
D03*
X1357000D02*
D03*
X1484000D02*
D03*
D52*
X1611000D02*
D03*
D54*
X5530000Y1467000D02*
D03*
D62*
X2600000Y2650000D02*
G03*
X2600000Y2650000I-100000J0D01*
G01*
X2450000Y200000D02*
G03*
X2450000Y200000I-100000J0D01*
G01*
X4350000D02*
G03*
X4350000Y200000I-100000J0D01*
G01*
X2950000Y1050000D02*
G03*
X2950000Y1050000I-100000J0D01*
G01*
X400000Y400000D02*
G03*
X400000Y400000I-100000J0D01*
G01*
X1600000Y2650000D02*
G03*
X1600000Y2650000I-100000J0D01*
G01*
D63*
X1010000Y1740000D02*
D03*
X510000D02*
D03*
D64*
X430000Y2210000D02*
D03*
X330000D02*
D03*
D65*
X1280000Y780000D02*
D03*
Y880000D02*
D03*
X1405025Y990000D02*
D03*
Y890000D02*
D03*
X1530050Y980000D02*
D03*
Y880000D02*
D03*
X540000Y830000D02*
D03*
Y930000D02*
D03*
X410000Y830000D02*
D03*
Y930000D02*
D03*
X1430000Y1350000D02*
D03*
Y1450000D02*
D03*
X1370000Y1800000D02*
D03*
X1170000Y1705000D02*
D03*
Y1895000D02*
D03*
D66*
X1030000Y1150000D02*
D03*
D67*
X1227500Y1050000D02*
D03*
D68*
X1220000Y1290000D02*
D03*
Y1250000D02*
D03*
Y1210000D02*
D03*
Y1170000D02*
D03*
Y1130000D02*
D03*
Y1090000D02*
D03*
X800000Y1050000D02*
D03*
Y1090000D02*
D03*
Y1130000D02*
D03*
Y1170000D02*
D03*
Y1210000D02*
D03*
Y1250000D02*
D03*
Y1290000D02*
D03*
D69*
X1130000Y952500D02*
D03*
D70*
X1090000Y960000D02*
D03*
X1050000D02*
D03*
X1010000D02*
D03*
X970000D02*
D03*
X930000D02*
D03*
X890000D02*
D03*
Y1380000D02*
D03*
X930000D02*
D03*
X970000D02*
D03*
X1130000D02*
D03*
X1090000D02*
D03*
X1050000D02*
D03*
X1010000D02*
D03*
D71*
X1470000Y1800000D02*
D03*
Y1720000D02*
D03*
D72*
X1250000Y2410000D02*
D03*
X650000D02*
D03*
%TF.MD5,97d12038a9f56a65f0ae2ddd1a36e9b8*%
M02*
