%TF.GenerationSoftware,Altium Limited,Altium Designer,20.2.6 (244)*%
G04 Layer_Color=0*
%FSLAX45Y45*%
%MOMM*%
%TF.SameCoordinates,5F830152-65C5-4415-BC49-C393C33858C2*%
%TF.FilePolarity,Positive*%
%TF.FileFunction,NonPlated,1,2,NPTH,Drill*%
%TF.Part,Single*%
G01*
G75*
G36*
X7919899Y680244D02*
X7919698Y681893D01*
X7919353Y685197D01*
X7919066Y688507D01*
X7918836Y691822D01*
X7918750Y693481D01*
D01*
X7918685Y694731D01*
X7918588Y697233D01*
X7918523Y699736D01*
X7918491Y702239D01*
X7918491Y703491D01*
D01*
Y2053491D01*
Y2053938D01*
X7918502Y2054832D01*
X7918525Y2055725D01*
X7918558Y2056618D01*
X7918581Y2057064D01*
X7918581Y2057065D01*
X7919213Y2069399D01*
X7928840Y2092146D01*
X7945669Y2110227D01*
X7967669Y2121459D01*
X7979926Y2122972D01*
X7979926D01*
X7980533Y2123047D01*
X7981751Y2123174D01*
X7982970Y2123279D01*
X7984192Y2123364D01*
X7984803Y2123396D01*
X7985263Y2123420D01*
X7986185Y2123455D01*
X7987107Y2123479D01*
X7988030Y2123491D01*
X7988491Y2123491D01*
Y2123491D01*
X7988938Y2123491D01*
X7989831Y2123480D01*
X7990725Y2123457D01*
X7991618Y2123424D01*
X7992064Y2123401D01*
X8004399Y2122769D01*
X8027146Y2113142D01*
X8045227Y2096313D01*
X8056459Y2074313D01*
X8057972Y2062056D01*
D01*
X8058046Y2061449D01*
X8058173Y2060231D01*
X8058279Y2059012D01*
X8058364Y2057790D01*
X8058395Y2057179D01*
D01*
X8058419Y2056719D01*
X8058455Y2055797D01*
X8058479Y2054875D01*
X8058491Y2053952D01*
X8058491Y2053491D01*
X8058491Y2053491D01*
Y703491D01*
X8058492Y703162D01*
X8058501Y702503D01*
X8058518Y701844D01*
X8058543Y701186D01*
X8058559Y700857D01*
X8058559Y700857D01*
X8058559D01*
X8058584Y700420D01*
X8058644Y699548D01*
X8058719Y698677D01*
X8058810Y697808D01*
X8058861Y697374D01*
X8060681Y688844D01*
X8068581Y673369D01*
X8081300Y661531D01*
X8097301Y654759D01*
X8105938Y653555D01*
X8106257Y653540D01*
X8106895Y653516D01*
X8107533Y653500D01*
X8108172Y653492D01*
X8108491Y653491D01*
X8108491D01*
X9178491D01*
X9178820Y653492D01*
X9179479Y653501D01*
X9180138Y653518D01*
X9180796Y653543D01*
X9181125Y653559D01*
X9181562Y653584D01*
X9182434Y653644D01*
X9183305Y653720D01*
X9184174Y653810D01*
X9184609Y653862D01*
X9184609Y653862D01*
X9193138Y655681D01*
X9208613Y663582D01*
X9220451Y676300D01*
X9227223Y692301D01*
X9228427Y700939D01*
X9228442Y701257D01*
X9228466Y701895D01*
X9228482Y702534D01*
X9228490Y703172D01*
X9228491Y703491D01*
X9228491Y703491D01*
Y2053491D01*
X9228491Y2053938D01*
X9228502Y2054832D01*
X9228525Y2055725D01*
X9228558Y2056618D01*
X9228580Y2057064D01*
X9228581Y2057065D01*
X9229212Y2069399D01*
X9238840Y2092146D01*
X9255669Y2110227D01*
X9277669Y2121459D01*
X9289926Y2122972D01*
X9289926D01*
X9290534Y2123047D01*
X9291751Y2123174D01*
X9292970Y2123279D01*
X9294192Y2123364D01*
X9294803Y2123396D01*
X9294803D01*
X9295263Y2123420D01*
X9296185Y2123455D01*
X9297107Y2123479D01*
X9298030Y2123491D01*
X9298491Y2123491D01*
Y2123491D01*
X9298938Y2123491D01*
X9299832Y2123480D01*
X9300725Y2123457D01*
X9301618Y2123424D01*
X9302064Y2123401D01*
X9302065D01*
X9314399Y2122769D01*
X9337146Y2113142D01*
X9355227Y2096313D01*
X9366459Y2074313D01*
X9367972Y2062056D01*
D01*
X9368046Y2061449D01*
X9368173Y2060231D01*
X9368279Y2059012D01*
X9368364Y2057790D01*
X9368396Y2057179D01*
X9368419Y2056719D01*
X9368455Y2055797D01*
X9368479Y2054875D01*
X9368491Y2053952D01*
X9368491Y2053491D01*
X9368491Y2053491D01*
X9368491Y703491D01*
X9368491Y702278D01*
X9368461Y699852D01*
X9368400Y697427D01*
X9368308Y695003D01*
X9368248Y693791D01*
X9367397Y677180D01*
X9359949Y644759D01*
X9346984Y614124D01*
X9328893Y586207D01*
X9306229Y561856D01*
X9279679Y541813D01*
X9250051Y526687D01*
X9218246Y516937D01*
X9201738Y514899D01*
Y514899D01*
X9200089Y514698D01*
X9196785Y514353D01*
X9193475Y514066D01*
X9190160Y513836D01*
X9188501Y513750D01*
X9187251Y513686D01*
X9184749Y513588D01*
X9182246Y513523D01*
X9179743Y513491D01*
X9178491Y513491D01*
X9178491D01*
X8108491D01*
X8107278Y513491D01*
X8104852Y513521D01*
X8102427Y513582D01*
X8100003Y513674D01*
X8098791Y513734D01*
X8082180Y514585D01*
X8049759Y522033D01*
X8019124Y534998D01*
X7991207Y553089D01*
X7966856Y575753D01*
X7946813Y602303D01*
X7931687Y631931D01*
X7921937Y663736D01*
X7919899Y680244D01*
X7919899D01*
D02*
G37*
%TF.MD5,1ae4e2a992ace281f2870a382b284471*%
M02*
