%TF.GenerationSoftware,Altium Limited,Altium Designer,20.2.6 (244)*%
G04 Layer_Color=32896*
%FSLAX45Y45*%
%MOMM*%
%TF.SameCoordinates,5F830152-65C5-4415-BC49-C393C33858C2*%
%TF.FilePolarity,Positive*%
%TF.FileFunction,Legend,Bot*%
%TF.Part,Single*%
G01*
G75*
%TA.AperFunction,NonConductor*%
%ADD13C,0.30000*%
%ADD14R,19.71036X7.00000*%
G36*
X11606554Y1476196D02*
Y1472363D01*
Y1468529D01*
Y1464695D01*
Y1460861D01*
Y1457028D01*
Y1453193D01*
Y1449360D01*
Y1445526D01*
Y1441692D01*
Y1437858D01*
Y1434024D01*
Y1430190D01*
Y1426357D01*
Y1422523D01*
Y1418689D01*
Y1414855D01*
Y1411021D01*
Y1407187D01*
Y1403354D01*
Y1399520D01*
Y1395686D01*
Y1391852D01*
Y1388018D01*
Y1384184D01*
Y1380350D01*
Y1376517D01*
Y1372683D01*
Y1368849D01*
Y1365015D01*
Y1361181D01*
Y1357348D01*
Y1353513D01*
Y1349680D01*
Y1345846D01*
Y1342012D01*
Y1338178D01*
Y1334345D01*
Y1330511D01*
Y1326677D01*
Y1322843D01*
Y1319009D01*
Y1315175D01*
Y1311341D01*
Y1307507D01*
Y1303674D01*
Y1299840D01*
Y1296006D01*
Y1292172D01*
Y1288338D01*
Y1284505D01*
Y1280671D01*
Y1276837D01*
Y1273003D01*
Y1269169D01*
Y1265335D01*
Y1261501D01*
Y1257668D01*
Y1253833D01*
Y1250000D01*
Y1246166D01*
Y1242332D01*
X11568216D01*
Y1246166D01*
Y1250000D01*
Y1253833D01*
Y1257668D01*
Y1261501D01*
Y1265335D01*
Y1269169D01*
Y1273003D01*
Y1276837D01*
Y1280671D01*
Y1284505D01*
Y1288338D01*
Y1292172D01*
Y1296006D01*
Y1299840D01*
Y1303674D01*
Y1307507D01*
Y1311341D01*
Y1315175D01*
Y1319009D01*
Y1322843D01*
Y1326677D01*
Y1330511D01*
Y1334345D01*
Y1338178D01*
Y1342012D01*
Y1345846D01*
Y1349680D01*
Y1353513D01*
Y1357348D01*
Y1361181D01*
Y1365015D01*
X11564381D01*
Y1368849D01*
Y1372683D01*
Y1376517D01*
Y1380350D01*
Y1384184D01*
X11560548D01*
Y1388018D01*
Y1391852D01*
Y1395686D01*
X11556714D01*
Y1399520D01*
Y1403354D01*
X11552880D01*
Y1407187D01*
Y1411021D01*
X11549046D01*
Y1414855D01*
X11545212D01*
Y1418689D01*
Y1422523D01*
X11541378D01*
Y1426357D01*
X11537545D01*
Y1430190D01*
X11529877D01*
Y1434024D01*
X11526043D01*
Y1437858D01*
X11518375D01*
Y1441692D01*
X11503040D01*
Y1445526D01*
X11476203D01*
Y1449360D01*
Y1453193D01*
Y1457028D01*
Y1460861D01*
Y1464695D01*
Y1468529D01*
Y1472363D01*
Y1476196D01*
Y1480030D01*
X11503040D01*
Y1476196D01*
X11518375D01*
Y1472363D01*
X11529877D01*
Y1468529D01*
X11537545D01*
Y1464695D01*
X11541378D01*
Y1460861D01*
X11545212D01*
Y1457028D01*
X11552880D01*
Y1453193D01*
Y1449360D01*
X11556714D01*
Y1445526D01*
X11560548D01*
Y1441692D01*
X11564381D01*
Y1437858D01*
X11568216D01*
Y1441692D01*
Y1445526D01*
Y1449360D01*
Y1453193D01*
Y1457028D01*
Y1460861D01*
Y1464695D01*
Y1468529D01*
Y1472363D01*
Y1476196D01*
Y1480030D01*
X11606554D01*
Y1476196D01*
D02*
G37*
G36*
X12097286D02*
Y1472363D01*
X12101120D01*
Y1468529D01*
Y1464695D01*
X12104953D01*
Y1460861D01*
Y1457028D01*
X12108787D01*
Y1453193D01*
Y1449360D01*
X12112621D01*
Y1445526D01*
Y1441692D01*
X12116455D01*
Y1437858D01*
Y1434024D01*
X12120289D01*
Y1430190D01*
Y1426357D01*
X12124123D01*
Y1422523D01*
Y1418689D01*
X12127956D01*
Y1414855D01*
X12131790D01*
Y1411021D01*
Y1407187D01*
X12135624D01*
Y1403354D01*
Y1399520D01*
X12139458D01*
Y1395686D01*
Y1391852D01*
X12143292D01*
Y1388018D01*
Y1384184D01*
X12147126D01*
Y1380350D01*
Y1376517D01*
Y1372683D01*
X12143292D01*
Y1368849D01*
Y1365015D01*
X12139458D01*
Y1361181D01*
Y1357348D01*
X12135624D01*
Y1353513D01*
Y1349680D01*
X12131790D01*
Y1345846D01*
Y1342012D01*
X12127956D01*
Y1338178D01*
Y1334345D01*
X12124123D01*
Y1338178D01*
X12120289D01*
Y1342012D01*
Y1345846D01*
X12116455D01*
Y1349680D01*
Y1353513D01*
X12112621D01*
Y1357348D01*
Y1361181D01*
X12108787D01*
Y1365015D01*
Y1368849D01*
X12104953D01*
Y1372683D01*
Y1376517D01*
X12101120D01*
Y1380350D01*
X12097286D01*
Y1384184D01*
Y1388018D01*
X12093452D01*
Y1391852D01*
Y1395686D01*
X12089618D01*
Y1399520D01*
Y1403354D01*
X12085784D01*
Y1407187D01*
Y1411021D01*
X12081950D01*
Y1414855D01*
Y1418689D01*
X12078117D01*
Y1422523D01*
Y1426357D01*
X12074283D01*
Y1430190D01*
Y1434024D01*
X12070449D01*
Y1437858D01*
Y1441692D01*
X12066615D01*
Y1445526D01*
Y1449360D01*
X12062781D01*
Y1453193D01*
Y1457028D01*
X12058947D01*
Y1460861D01*
Y1464695D01*
X12055113D01*
Y1468529D01*
Y1472363D01*
X12051279D01*
Y1476196D01*
X12047446D01*
Y1480030D01*
X12097286D01*
Y1476196D01*
D02*
G37*
G36*
X11077484D02*
X11073650D01*
Y1472363D01*
Y1468529D01*
Y1464695D01*
X11069816D01*
Y1460861D01*
Y1457028D01*
X11065982D01*
Y1453193D01*
Y1449360D01*
Y1445526D01*
X11062148D01*
Y1441692D01*
Y1437858D01*
X11058314D01*
Y1434024D01*
Y1430190D01*
Y1426357D01*
X11054481D01*
Y1422523D01*
Y1418689D01*
X11050647D01*
Y1414855D01*
Y1411021D01*
Y1407187D01*
X11046813D01*
Y1403354D01*
Y1399520D01*
X11042979D01*
Y1395686D01*
Y1391852D01*
Y1388018D01*
X11039145D01*
Y1384184D01*
Y1380350D01*
X11035311D01*
Y1376517D01*
Y1372683D01*
Y1368849D01*
X11031478D01*
Y1365015D01*
Y1361181D01*
X11027644D01*
Y1357348D01*
Y1353513D01*
Y1349680D01*
X11023810D01*
Y1345846D01*
Y1342012D01*
X11019976D01*
Y1338178D01*
Y1334345D01*
Y1330511D01*
X11016142D01*
Y1326677D01*
Y1322843D01*
X11012308D01*
Y1319009D01*
Y1315175D01*
Y1311341D01*
X11008475D01*
Y1307507D01*
Y1303674D01*
X11004640D01*
Y1299840D01*
Y1296006D01*
Y1292172D01*
X11000807D01*
Y1288338D01*
Y1284505D01*
X10996973D01*
Y1280671D01*
Y1276837D01*
Y1273003D01*
X10993139D01*
Y1269169D01*
Y1265335D01*
X10989305D01*
Y1261501D01*
Y1257668D01*
Y1253833D01*
X10985472D01*
Y1250000D01*
Y1246166D01*
Y1242332D01*
Y1238498D01*
X10989305D01*
Y1234665D01*
Y1230831D01*
X10993139D01*
Y1226997D01*
Y1223163D01*
Y1219329D01*
X10996973D01*
Y1215495D01*
Y1211662D01*
X11000807D01*
Y1207827D01*
Y1203994D01*
Y1200160D01*
X11004640D01*
Y1196326D01*
Y1192492D01*
Y1188658D01*
X11008475D01*
Y1184825D01*
Y1180991D01*
X11012308D01*
Y1177157D01*
Y1173323D01*
Y1169489D01*
X11016142D01*
Y1165655D01*
Y1161822D01*
X11019976D01*
Y1157988D01*
X10981638D01*
Y1161822D01*
X10977804D01*
Y1165655D01*
Y1169489D01*
Y1173323D01*
X10973970D01*
Y1177157D01*
Y1180991D01*
X10970136D01*
Y1184825D01*
Y1188658D01*
Y1192492D01*
X10966302D01*
Y1196326D01*
Y1200160D01*
X10962468D01*
Y1203994D01*
Y1207827D01*
Y1211662D01*
X10958634D01*
Y1215495D01*
Y1219329D01*
Y1223163D01*
X10954801D01*
Y1226997D01*
Y1230831D01*
X10950967D01*
Y1234665D01*
Y1238498D01*
Y1242332D01*
X10947133D01*
Y1246166D01*
Y1250000D01*
X10943299D01*
Y1253833D01*
Y1257668D01*
Y1261501D01*
X10939465D01*
Y1265335D01*
Y1269169D01*
Y1273003D01*
X10935631D01*
Y1276837D01*
Y1280671D01*
X10931798D01*
Y1284505D01*
Y1288338D01*
Y1292172D01*
X10927964D01*
Y1296006D01*
Y1299840D01*
X10924130D01*
Y1303674D01*
Y1307507D01*
Y1311341D01*
X10920296D01*
Y1315175D01*
Y1319009D01*
X10916462D01*
Y1322843D01*
Y1326677D01*
Y1330511D01*
X10912628D01*
Y1334345D01*
Y1338178D01*
Y1342012D01*
X10908795D01*
Y1345846D01*
Y1349680D01*
X10904961D01*
Y1353513D01*
Y1357348D01*
Y1361181D01*
X10901127D01*
Y1365015D01*
Y1368849D01*
Y1372683D01*
X10897293D01*
Y1376517D01*
Y1380350D01*
X10893459D01*
Y1384184D01*
Y1388018D01*
Y1391852D01*
X10889625D01*
Y1395686D01*
Y1399520D01*
X10885792D01*
Y1403354D01*
Y1407187D01*
Y1411021D01*
X10881958D01*
Y1414855D01*
Y1418689D01*
X10878124D01*
Y1422523D01*
Y1426357D01*
Y1430190D01*
X10874290D01*
Y1434024D01*
Y1437858D01*
Y1441692D01*
X10870456D01*
Y1445526D01*
Y1449360D01*
X10866622D01*
Y1453193D01*
Y1457028D01*
Y1460861D01*
X10862788D01*
Y1464695D01*
Y1468529D01*
X10858955D01*
Y1472363D01*
Y1476196D01*
Y1480030D01*
X10897293D01*
Y1476196D01*
Y1472363D01*
Y1468529D01*
X10901127D01*
Y1464695D01*
Y1460861D01*
Y1457028D01*
X10904961D01*
Y1453193D01*
Y1449360D01*
X10908795D01*
Y1445526D01*
Y1441692D01*
Y1437858D01*
X10912628D01*
Y1434024D01*
Y1430190D01*
X10916462D01*
Y1426357D01*
Y1422523D01*
Y1418689D01*
X10920296D01*
Y1414855D01*
Y1411021D01*
Y1407187D01*
X10924130D01*
Y1403354D01*
Y1399520D01*
X10927964D01*
Y1395686D01*
Y1391852D01*
Y1388018D01*
X10931798D01*
Y1384184D01*
Y1380350D01*
X10935631D01*
Y1376517D01*
Y1372683D01*
Y1368849D01*
X10939465D01*
Y1365015D01*
Y1361181D01*
Y1357348D01*
X10943299D01*
Y1353513D01*
Y1349680D01*
X10947133D01*
Y1345846D01*
Y1342012D01*
Y1338178D01*
X10950967D01*
Y1334345D01*
Y1330511D01*
X10954801D01*
Y1326677D01*
Y1322843D01*
Y1319009D01*
X10958634D01*
Y1315175D01*
Y1311341D01*
Y1307507D01*
X10962468D01*
Y1303674D01*
X10970136D01*
Y1307507D01*
Y1311341D01*
X10973970D01*
Y1315175D01*
Y1319009D01*
Y1322843D01*
X10977804D01*
Y1326677D01*
Y1330511D01*
X10981638D01*
Y1334345D01*
Y1338178D01*
Y1342012D01*
X10985472D01*
Y1345846D01*
Y1349680D01*
X10989305D01*
Y1353513D01*
Y1357348D01*
Y1361181D01*
X10993139D01*
Y1365015D01*
Y1368849D01*
Y1372683D01*
X10996973D01*
Y1376517D01*
Y1380350D01*
X11000807D01*
Y1384184D01*
Y1388018D01*
Y1391852D01*
X11004640D01*
Y1395686D01*
Y1399520D01*
X11008475D01*
Y1403354D01*
Y1407187D01*
Y1411021D01*
X11012308D01*
Y1414855D01*
Y1418689D01*
Y1422523D01*
X11016142D01*
Y1426357D01*
Y1430190D01*
X11019976D01*
Y1434024D01*
Y1437858D01*
Y1441692D01*
X11023810D01*
Y1445526D01*
Y1449360D01*
X11027644D01*
Y1453193D01*
Y1457028D01*
Y1460861D01*
X11031478D01*
Y1464695D01*
Y1468529D01*
X11035311D01*
Y1472363D01*
Y1476196D01*
Y1480030D01*
X11077484D01*
Y1476196D01*
D02*
G37*
G36*
X11763742Y1480030D02*
X11786744D01*
Y1476196D01*
X11798246D01*
Y1472363D01*
X11805914D01*
Y1468529D01*
X11813581D01*
Y1464695D01*
X11821249D01*
Y1460861D01*
X11825083D01*
Y1457028D01*
X11828917D01*
Y1453193D01*
X11832751D01*
Y1449360D01*
X11836584D01*
Y1445526D01*
X11840418D01*
Y1441692D01*
X11844252D01*
Y1437858D01*
Y1434024D01*
X11848086D01*
Y1430190D01*
X11851920D01*
Y1426357D01*
Y1422523D01*
X11855754D01*
Y1418689D01*
Y1414855D01*
X11859588D01*
Y1411021D01*
Y1407187D01*
Y1403354D01*
X11863421D01*
Y1399520D01*
Y1395686D01*
Y1391852D01*
Y1388018D01*
Y1384184D01*
X11867255D01*
Y1380350D01*
Y1376517D01*
Y1372683D01*
Y1368849D01*
Y1365015D01*
Y1361181D01*
Y1357348D01*
Y1353513D01*
Y1349680D01*
Y1345846D01*
Y1342012D01*
Y1338178D01*
X11863421D01*
Y1334345D01*
Y1330511D01*
Y1326677D01*
Y1322843D01*
X11859588D01*
Y1319009D01*
Y1315175D01*
Y1311341D01*
X11855754D01*
Y1307507D01*
Y1303674D01*
X11851920D01*
Y1299840D01*
Y1296006D01*
X11848086D01*
Y1292172D01*
Y1288338D01*
X11844252D01*
Y1284505D01*
X11840418D01*
Y1280671D01*
Y1276837D01*
X11836584D01*
Y1273003D01*
X11832751D01*
Y1269169D01*
X11828917D01*
Y1265335D01*
X11821249D01*
Y1261501D01*
X11817415D01*
Y1257668D01*
X11809748D01*
Y1253833D01*
X11805914D01*
Y1250000D01*
X11794412D01*
Y1246166D01*
X11782911D01*
Y1242332D01*
X11717735D01*
Y1246166D01*
X11706234D01*
Y1250000D01*
X11698566D01*
Y1253833D01*
X11690898D01*
Y1257668D01*
X11683231D01*
Y1261501D01*
X11679397D01*
Y1265335D01*
X11671729D01*
Y1269169D01*
X11667895D01*
Y1273003D01*
Y1276837D01*
X11664062D01*
Y1280671D01*
X11660228D01*
Y1284505D01*
X11656394D01*
Y1288338D01*
Y1292172D01*
X11652560D01*
Y1296006D01*
Y1299840D01*
X11648726D01*
Y1303674D01*
Y1307507D01*
Y1311341D01*
X11652560D01*
Y1315175D01*
X11667895D01*
Y1319009D01*
X11683231D01*
Y1315175D01*
X11687065D01*
Y1311341D01*
Y1307507D01*
X11690898D01*
Y1303674D01*
Y1299840D01*
X11694732D01*
Y1296006D01*
X11698566D01*
Y1292172D01*
X11702400D01*
Y1288338D01*
X11710068D01*
Y1284505D01*
X11713901D01*
Y1280671D01*
X11725403D01*
Y1276837D01*
X11744572D01*
Y1273003D01*
X11756074D01*
Y1276837D01*
X11775243D01*
Y1280671D01*
X11786744D01*
Y1284505D01*
X11794412D01*
Y1288338D01*
X11798246D01*
Y1292172D01*
X11802080D01*
Y1296006D01*
X11805914D01*
Y1299840D01*
X11809748D01*
Y1303674D01*
X11813581D01*
Y1307507D01*
Y1311341D01*
X11817415D01*
Y1315175D01*
Y1319009D01*
X11821249D01*
Y1322843D01*
Y1326677D01*
X11825083D01*
Y1330511D01*
Y1334345D01*
Y1338178D01*
Y1342012D01*
X11828917D01*
Y1345846D01*
Y1349680D01*
Y1353513D01*
X11641059D01*
Y1357348D01*
Y1361181D01*
Y1365015D01*
Y1368849D01*
Y1372683D01*
Y1376517D01*
Y1380350D01*
Y1384184D01*
Y1388018D01*
Y1391852D01*
Y1395686D01*
X11644892D01*
Y1399520D01*
Y1403354D01*
Y1407187D01*
Y1411021D01*
X11648726D01*
Y1414855D01*
Y1418689D01*
X11652560D01*
Y1422523D01*
Y1426357D01*
X11656394D01*
Y1430190D01*
Y1434024D01*
X11660228D01*
Y1437858D01*
Y1441692D01*
X11664062D01*
Y1445526D01*
X11667895D01*
Y1449360D01*
X11671729D01*
Y1453193D01*
X11675563D01*
Y1457028D01*
X11679397D01*
Y1460861D01*
X11687065D01*
Y1464695D01*
X11690898D01*
Y1468529D01*
X11698566D01*
Y1472363D01*
X11706234D01*
Y1476196D01*
X11717735D01*
Y1480030D01*
X11740738D01*
Y1483864D01*
X11763742D01*
Y1480030D01*
D02*
G37*
G36*
X10659595D02*
X10682598D01*
Y1476196D01*
X10690266D01*
Y1472363D01*
X10697933D01*
Y1468529D01*
X10705601D01*
Y1464695D01*
X10713269D01*
Y1460861D01*
X10717103D01*
Y1457028D01*
X10720936D01*
Y1453193D01*
X10724770D01*
Y1449360D01*
X10728604D01*
Y1445526D01*
X10732438D01*
Y1441692D01*
X10736272D01*
Y1437858D01*
Y1434024D01*
X10740106D01*
Y1430190D01*
X10743939D01*
Y1426357D01*
Y1422523D01*
X10747773D01*
Y1418689D01*
Y1414855D01*
Y1411021D01*
X10751607D01*
Y1407187D01*
Y1403354D01*
Y1399520D01*
X10755441D01*
Y1395686D01*
Y1391852D01*
Y1388018D01*
Y1384184D01*
Y1380350D01*
X10759275D01*
Y1376517D01*
Y1372683D01*
Y1368849D01*
Y1365015D01*
Y1361181D01*
Y1357348D01*
Y1353513D01*
Y1349680D01*
Y1345846D01*
Y1342012D01*
X10755441D01*
Y1338178D01*
Y1334345D01*
Y1330511D01*
Y1326677D01*
Y1322843D01*
X10751607D01*
Y1319009D01*
Y1315175D01*
Y1311341D01*
X10747773D01*
Y1307507D01*
Y1303674D01*
X10743939D01*
Y1299840D01*
Y1296006D01*
X10740106D01*
Y1292172D01*
Y1288338D01*
X10736272D01*
Y1284505D01*
X10732438D01*
Y1280671D01*
Y1276837D01*
X10728604D01*
Y1273003D01*
X10724770D01*
Y1269169D01*
X10720936D01*
Y1265335D01*
X10713269D01*
Y1261501D01*
X10709435D01*
Y1257668D01*
X10701767D01*
Y1253833D01*
X10697933D01*
Y1250000D01*
X10686432D01*
Y1246166D01*
X10678764D01*
Y1242332D01*
X10613589D01*
Y1246166D01*
X10598253D01*
Y1250000D01*
X10590586D01*
Y1253833D01*
X10582918D01*
Y1257668D01*
X10579084D01*
Y1261501D01*
X10571416D01*
Y1265335D01*
X10567583D01*
Y1269169D01*
X10563749D01*
Y1273003D01*
X10559915D01*
Y1276837D01*
X10556081D01*
Y1280671D01*
Y1284505D01*
X10552247D01*
Y1288338D01*
X10548413D01*
Y1292172D01*
Y1296006D01*
X10544580D01*
Y1299840D01*
Y1303674D01*
Y1307507D01*
X10540746D01*
Y1311341D01*
X10544580D01*
Y1315175D01*
X10559915D01*
Y1319009D01*
X10575250D01*
Y1315175D01*
X10579084D01*
Y1311341D01*
Y1307507D01*
X10582918D01*
Y1303674D01*
Y1299840D01*
X10586752D01*
Y1296006D01*
X10590586D01*
Y1292172D01*
X10594420D01*
Y1288338D01*
X10602087D01*
Y1284505D01*
X10609755D01*
Y1280671D01*
X10617423D01*
Y1276837D01*
X10640426D01*
Y1273003D01*
X10651927D01*
Y1276837D01*
X10671096D01*
Y1280671D01*
X10678764D01*
Y1284505D01*
X10686432D01*
Y1288338D01*
X10694099D01*
Y1292172D01*
X10697933D01*
Y1296006D01*
X10701767D01*
Y1299840D01*
X10705601D01*
Y1303674D01*
Y1307507D01*
X10709435D01*
Y1311341D01*
X10713269D01*
Y1315175D01*
Y1319009D01*
Y1322843D01*
X10717103D01*
Y1326677D01*
Y1330511D01*
Y1334345D01*
X10720936D01*
Y1338178D01*
Y1342012D01*
Y1345846D01*
Y1349680D01*
Y1353513D01*
X10536912D01*
Y1357348D01*
Y1361181D01*
Y1365015D01*
X10533078D01*
Y1368849D01*
Y1372683D01*
Y1376517D01*
X10536912D01*
Y1380350D01*
Y1384184D01*
Y1388018D01*
Y1391852D01*
Y1395686D01*
Y1399520D01*
Y1403354D01*
X10540746D01*
Y1407187D01*
Y1411021D01*
Y1414855D01*
X10544580D01*
Y1418689D01*
Y1422523D01*
X10548413D01*
Y1426357D01*
Y1430190D01*
X10552247D01*
Y1434024D01*
Y1437858D01*
X10556081D01*
Y1441692D01*
X10559915D01*
Y1445526D01*
X10563749D01*
Y1449360D01*
X10567583D01*
Y1453193D01*
X10571416D01*
Y1457028D01*
X10575250D01*
Y1460861D01*
X10579084D01*
Y1464695D01*
X10586752D01*
Y1468529D01*
X10594420D01*
Y1472363D01*
X10602087D01*
Y1476196D01*
X10613589D01*
Y1480030D01*
X10636592D01*
Y1483864D01*
X10659595D01*
Y1480030D01*
D02*
G37*
G36*
X12001440Y1476196D02*
X12005273D01*
Y1472363D01*
Y1468529D01*
X12009108D01*
Y1464695D01*
Y1460861D01*
X12012941D01*
Y1457028D01*
Y1453193D01*
X12016775D01*
Y1449360D01*
Y1445526D01*
X12020609D01*
Y1441692D01*
X12024443D01*
Y1437858D01*
Y1434024D01*
X12028277D01*
Y1430190D01*
Y1426357D01*
X12032110D01*
Y1422523D01*
Y1418689D01*
X12035944D01*
Y1414855D01*
Y1411021D01*
X12039778D01*
Y1407187D01*
Y1403354D01*
X12043612D01*
Y1399520D01*
Y1395686D01*
X12047446D01*
Y1391852D01*
Y1388018D01*
X12051279D01*
Y1384184D01*
Y1380350D01*
X12055113D01*
Y1376517D01*
Y1372683D01*
X12058947D01*
Y1368849D01*
Y1365015D01*
X12062781D01*
Y1361181D01*
Y1357348D01*
X12066615D01*
Y1353513D01*
X12070449D01*
Y1349680D01*
Y1345846D01*
X12074283D01*
Y1342012D01*
Y1338178D01*
X12078117D01*
Y1334345D01*
Y1330511D01*
X12081950D01*
Y1326677D01*
Y1322843D01*
X12085784D01*
Y1319009D01*
Y1315175D01*
X12089618D01*
Y1311341D01*
Y1307507D01*
X12093452D01*
Y1303674D01*
Y1299840D01*
X12097286D01*
Y1296006D01*
Y1292172D01*
X12101120D01*
Y1288338D01*
Y1284505D01*
X12097286D01*
Y1280671D01*
Y1276837D01*
X12093452D01*
Y1273003D01*
Y1269169D01*
X12089618D01*
Y1265335D01*
Y1261501D01*
X12085784D01*
Y1257668D01*
Y1253833D01*
X12081950D01*
Y1250000D01*
Y1246166D01*
X12074283D01*
Y1250000D01*
Y1253833D01*
X12070449D01*
Y1257668D01*
Y1261501D01*
X12066615D01*
Y1265335D01*
Y1269169D01*
X12062781D01*
Y1273003D01*
Y1276837D01*
X12058947D01*
Y1280671D01*
Y1284505D01*
X12055113D01*
Y1288338D01*
Y1292172D01*
X12051279D01*
Y1296006D01*
Y1299840D01*
X12047446D01*
Y1303674D01*
Y1307507D01*
X12043612D01*
Y1311341D01*
X12039778D01*
Y1315175D01*
Y1319009D01*
X12035944D01*
Y1322843D01*
Y1326677D01*
X12032110D01*
Y1330511D01*
Y1334345D01*
X12028277D01*
Y1338178D01*
Y1342012D01*
X12024443D01*
Y1345846D01*
Y1349680D01*
X12020609D01*
Y1353513D01*
Y1357348D01*
X12016775D01*
Y1361181D01*
Y1365015D01*
X12012941D01*
Y1368849D01*
Y1372683D01*
X12009108D01*
Y1376517D01*
Y1380350D01*
X12005273D01*
Y1384184D01*
Y1388018D01*
X12001440D01*
Y1391852D01*
Y1395686D01*
X11997606D01*
Y1399520D01*
Y1403354D01*
X11993772D01*
Y1407187D01*
Y1411021D01*
X11989938D01*
Y1414855D01*
X11986104D01*
Y1418689D01*
Y1422523D01*
X11982270D01*
Y1426357D01*
Y1430190D01*
X11978437D01*
Y1434024D01*
Y1437858D01*
X11974603D01*
Y1441692D01*
Y1445526D01*
X11970769D01*
Y1449360D01*
Y1453193D01*
X11966935D01*
Y1457028D01*
Y1460861D01*
X11963101D01*
Y1464695D01*
Y1468529D01*
X11959267D01*
Y1472363D01*
Y1476196D01*
X11955434D01*
Y1480030D01*
X12001440D01*
Y1476196D01*
D02*
G37*
G36*
X12653193Y1568209D02*
Y1564375D01*
Y1560541D01*
Y1556707D01*
Y1552873D01*
Y1549040D01*
Y1545206D01*
Y1541372D01*
Y1537538D01*
Y1533704D01*
Y1529870D01*
Y1526037D01*
Y1522203D01*
Y1518369D01*
Y1514535D01*
Y1510701D01*
Y1506867D01*
Y1503034D01*
Y1499200D01*
Y1495366D01*
Y1491532D01*
Y1487698D01*
Y1483864D01*
Y1480030D01*
Y1476196D01*
Y1472363D01*
Y1468529D01*
Y1464695D01*
Y1460861D01*
Y1457028D01*
Y1453193D01*
Y1449360D01*
Y1445526D01*
Y1441692D01*
Y1437858D01*
Y1434024D01*
Y1430190D01*
Y1426357D01*
Y1422523D01*
Y1418689D01*
Y1414855D01*
Y1411021D01*
Y1407187D01*
Y1403354D01*
Y1399520D01*
Y1395686D01*
Y1391852D01*
Y1388018D01*
Y1384184D01*
Y1380350D01*
Y1376517D01*
Y1372683D01*
Y1368849D01*
Y1365015D01*
Y1361181D01*
Y1357348D01*
Y1353513D01*
Y1349680D01*
Y1345846D01*
Y1342012D01*
Y1338178D01*
Y1334345D01*
Y1330511D01*
Y1326677D01*
Y1322843D01*
Y1319009D01*
Y1315175D01*
Y1311341D01*
Y1307507D01*
Y1303674D01*
Y1299840D01*
Y1296006D01*
Y1292172D01*
Y1288338D01*
Y1284505D01*
Y1280671D01*
Y1276837D01*
Y1273003D01*
Y1269169D01*
Y1265335D01*
Y1261501D01*
Y1257668D01*
Y1253833D01*
Y1250000D01*
Y1246166D01*
Y1242332D01*
X12611020D01*
Y1246166D01*
Y1250000D01*
Y1253833D01*
Y1257668D01*
Y1261501D01*
Y1265335D01*
Y1269169D01*
Y1273003D01*
Y1276837D01*
Y1280671D01*
Y1284505D01*
Y1288338D01*
Y1292172D01*
Y1296006D01*
Y1299840D01*
Y1303674D01*
Y1307507D01*
Y1311341D01*
Y1315175D01*
Y1319009D01*
Y1322843D01*
Y1326677D01*
Y1330511D01*
Y1334345D01*
Y1338178D01*
Y1342012D01*
Y1345846D01*
Y1349680D01*
Y1353513D01*
Y1357348D01*
Y1361181D01*
Y1365015D01*
Y1368849D01*
Y1372683D01*
Y1376517D01*
Y1380350D01*
X12515175D01*
Y1384184D01*
X12492171D01*
Y1388018D01*
X12480670D01*
Y1391852D01*
X12473002D01*
Y1395686D01*
X12465334D01*
Y1399520D01*
X12461501D01*
Y1403354D01*
X12453833D01*
Y1407187D01*
X12449999D01*
Y1411021D01*
X12446165D01*
Y1414855D01*
Y1418689D01*
X12442331D01*
Y1422523D01*
X12438498D01*
Y1426357D01*
Y1430190D01*
X12434664D01*
Y1434024D01*
Y1437858D01*
X12430830D01*
Y1441692D01*
Y1445526D01*
Y1449360D01*
X12426996D01*
Y1453193D01*
Y1457028D01*
Y1460861D01*
Y1464695D01*
Y1468529D01*
Y1472363D01*
Y1476196D01*
Y1480030D01*
Y1483864D01*
Y1487698D01*
Y1491532D01*
Y1495366D01*
Y1499200D01*
Y1503034D01*
X12430830D01*
Y1506867D01*
Y1510701D01*
Y1514535D01*
X12434664D01*
Y1518369D01*
Y1522203D01*
X12438498D01*
Y1526037D01*
Y1529870D01*
X12442331D01*
Y1533704D01*
X12446165D01*
Y1537538D01*
X12449999D01*
Y1541372D01*
X12453833D01*
Y1545206D01*
X12457667D01*
Y1549040D01*
X12461501D01*
Y1552873D01*
X12469168D01*
Y1556707D01*
X12473002D01*
Y1560541D01*
X12484504D01*
Y1564375D01*
X12496005D01*
Y1568209D01*
X12519008D01*
Y1572043D01*
X12653193D01*
Y1568209D01*
D02*
G37*
G36*
X12315815Y1480030D02*
X12338818D01*
Y1476196D01*
X12350319D01*
Y1472363D01*
X12357987D01*
Y1468529D01*
X12365655D01*
Y1464695D01*
X12373322D01*
Y1460861D01*
X12377156D01*
Y1457028D01*
X12380990D01*
Y1453193D01*
X12384824D01*
Y1449360D01*
X12388658D01*
Y1445526D01*
X12392492D01*
Y1441692D01*
X12396325D01*
Y1437858D01*
X12400159D01*
Y1434024D01*
X12403993D01*
Y1430190D01*
Y1426357D01*
X12407827D01*
Y1422523D01*
Y1418689D01*
X12411661D01*
Y1414855D01*
Y1411021D01*
X12415495D01*
Y1407187D01*
Y1403354D01*
Y1399520D01*
X12419328D01*
Y1395686D01*
Y1391852D01*
Y1388018D01*
Y1384184D01*
X12423162D01*
Y1380350D01*
Y1376517D01*
Y1372683D01*
Y1368849D01*
Y1365015D01*
Y1361181D01*
Y1357348D01*
Y1353513D01*
Y1349680D01*
Y1345846D01*
Y1342012D01*
Y1338178D01*
X12419328D01*
Y1334345D01*
Y1330511D01*
Y1326677D01*
Y1322843D01*
X12415495D01*
Y1319009D01*
Y1315175D01*
Y1311341D01*
X12411661D01*
Y1307507D01*
Y1303674D01*
X12407827D01*
Y1299840D01*
Y1296006D01*
X12403993D01*
Y1292172D01*
Y1288338D01*
X12400159D01*
Y1284505D01*
X12396325D01*
Y1280671D01*
X12392492D01*
Y1276837D01*
X12388658D01*
Y1273003D01*
X12384824D01*
Y1269169D01*
X12380990D01*
Y1265335D01*
X12377156D01*
Y1261501D01*
X12369488D01*
Y1257668D01*
X12365655D01*
Y1253833D01*
X12357987D01*
Y1250000D01*
X12346486D01*
Y1246166D01*
X12334984D01*
Y1242332D01*
X12269809D01*
Y1246166D01*
X12258307D01*
Y1250000D01*
X12250639D01*
Y1253833D01*
X12242972D01*
Y1257668D01*
X12235304D01*
Y1261501D01*
X12231470D01*
Y1265335D01*
X12223803D01*
Y1269169D01*
X12219969D01*
Y1273003D01*
X12216135D01*
Y1276837D01*
X12212301D01*
Y1280671D01*
X12208467D01*
Y1284505D01*
Y1288338D01*
X12204633D01*
Y1292172D01*
X12200799D01*
Y1296006D01*
Y1299840D01*
X12196965D01*
Y1303674D01*
Y1307507D01*
X12193132D01*
Y1311341D01*
Y1315175D01*
X12189298D01*
Y1319009D01*
Y1322843D01*
Y1326677D01*
X12185464D01*
Y1330511D01*
Y1334345D01*
Y1338178D01*
Y1342012D01*
Y1345846D01*
Y1349680D01*
Y1353513D01*
X12181630D01*
Y1357348D01*
Y1361181D01*
Y1365015D01*
Y1368849D01*
X12185464D01*
Y1372683D01*
Y1376517D01*
Y1380350D01*
Y1384184D01*
Y1388018D01*
Y1391852D01*
Y1395686D01*
X12189298D01*
Y1399520D01*
Y1403354D01*
Y1407187D01*
X12193132D01*
Y1411021D01*
Y1414855D01*
X12196965D01*
Y1418689D01*
Y1422523D01*
X12200799D01*
Y1426357D01*
Y1430190D01*
X12204633D01*
Y1434024D01*
Y1437858D01*
X12208467D01*
Y1441692D01*
X12212301D01*
Y1445526D01*
X12216135D01*
Y1449360D01*
X12219969D01*
Y1453193D01*
X12223803D01*
Y1457028D01*
X12227636D01*
Y1460861D01*
X12235304D01*
Y1464695D01*
X12239138D01*
Y1468529D01*
X12246806D01*
Y1472363D01*
X12258307D01*
Y1476196D01*
X12269809D01*
Y1480030D01*
X12292812D01*
Y1483864D01*
X12315815D01*
Y1480030D01*
D02*
G37*
G36*
X11909428Y1476196D02*
Y1472363D01*
X11913261D01*
Y1468529D01*
Y1464695D01*
X11917095D01*
Y1460861D01*
Y1457028D01*
X11920929D01*
Y1453193D01*
X11924763D01*
Y1449360D01*
Y1445526D01*
X11928597D01*
Y1441692D01*
Y1437858D01*
X11932431D01*
Y1434024D01*
Y1430190D01*
X11936264D01*
Y1426357D01*
Y1422523D01*
X11940098D01*
Y1418689D01*
Y1414855D01*
X11943932D01*
Y1411021D01*
Y1407187D01*
X11947766D01*
Y1403354D01*
Y1399520D01*
X11951600D01*
Y1395686D01*
Y1391852D01*
X11955434D01*
Y1388018D01*
Y1384184D01*
X11959267D01*
Y1380350D01*
Y1376517D01*
X11963101D01*
Y1372683D01*
Y1368849D01*
X11966935D01*
Y1365015D01*
X11970769D01*
Y1361181D01*
Y1357348D01*
X11974603D01*
Y1353513D01*
Y1349680D01*
X11978437D01*
Y1345846D01*
Y1342012D01*
X11982270D01*
Y1338178D01*
Y1334345D01*
X11986104D01*
Y1330511D01*
Y1326677D01*
X11989938D01*
Y1322843D01*
Y1319009D01*
X11993772D01*
Y1315175D01*
Y1311341D01*
X11997606D01*
Y1307507D01*
Y1303674D01*
X12001440D01*
Y1299840D01*
Y1296006D01*
X12005273D01*
Y1292172D01*
Y1288338D01*
Y1284505D01*
Y1280671D01*
X12001440D01*
Y1276837D01*
Y1273003D01*
X11997606D01*
Y1269169D01*
Y1265335D01*
X11993772D01*
Y1261501D01*
Y1257668D01*
X11989938D01*
Y1253833D01*
Y1250000D01*
X11986104D01*
Y1246166D01*
Y1242332D01*
X11982270D01*
Y1246166D01*
Y1250000D01*
X11978437D01*
Y1253833D01*
Y1257668D01*
X11974603D01*
Y1261501D01*
Y1265335D01*
X11970769D01*
Y1269169D01*
Y1273003D01*
X11966935D01*
Y1276837D01*
Y1280671D01*
X11963101D01*
Y1284505D01*
Y1288338D01*
X11959267D01*
Y1292172D01*
Y1296006D01*
X11955434D01*
Y1299840D01*
Y1303674D01*
X11951600D01*
Y1307507D01*
Y1311341D01*
X11947766D01*
Y1315175D01*
X11943932D01*
Y1319009D01*
Y1322843D01*
X11940098D01*
Y1326677D01*
Y1330511D01*
X11936264D01*
Y1334345D01*
Y1338178D01*
X11932431D01*
Y1342012D01*
Y1345846D01*
X11928597D01*
Y1349680D01*
Y1353513D01*
X11924763D01*
Y1357348D01*
Y1361181D01*
X11920929D01*
Y1365015D01*
Y1368849D01*
X11917095D01*
Y1372683D01*
Y1376517D01*
X11913261D01*
Y1380350D01*
Y1384184D01*
X11909428D01*
Y1388018D01*
Y1391852D01*
X11905593D01*
Y1395686D01*
Y1399520D01*
X11901760D01*
Y1403354D01*
Y1407187D01*
X11897926D01*
Y1411021D01*
Y1414855D01*
X11894092D01*
Y1418689D01*
X11890258D01*
Y1422523D01*
Y1426357D01*
X11886424D01*
Y1430190D01*
Y1434024D01*
X11882590D01*
Y1437858D01*
Y1441692D01*
X11878757D01*
Y1445526D01*
Y1449360D01*
X11874923D01*
Y1453193D01*
Y1457028D01*
X11871089D01*
Y1460861D01*
Y1464695D01*
X11867255D01*
Y1468529D01*
Y1472363D01*
X11863421D01*
Y1476196D01*
Y1480030D01*
X11909428D01*
Y1476196D01*
D02*
G37*
G36*
X11365022Y1575876D02*
X11376523D01*
Y1572043D01*
X11384191D01*
Y1568209D01*
X11388025D01*
Y1564375D01*
X11391859D01*
Y1560541D01*
X11395692D01*
Y1556707D01*
X11399526D01*
Y1552873D01*
X11403360D01*
Y1549040D01*
Y1545206D01*
X11407194D01*
Y1541372D01*
Y1537538D01*
X11411028D01*
Y1533704D01*
Y1529870D01*
Y1526037D01*
Y1522203D01*
Y1518369D01*
X11414862D01*
Y1514535D01*
Y1510701D01*
Y1506867D01*
Y1503034D01*
Y1499200D01*
Y1495366D01*
Y1491532D01*
Y1487698D01*
Y1483864D01*
Y1480030D01*
X11453200D01*
Y1476196D01*
Y1472363D01*
Y1468529D01*
Y1464695D01*
Y1460861D01*
Y1457028D01*
Y1453193D01*
Y1449360D01*
Y1445526D01*
X11414862D01*
Y1441692D01*
Y1437858D01*
Y1434024D01*
Y1430190D01*
Y1426357D01*
Y1422523D01*
Y1418689D01*
Y1414855D01*
Y1411021D01*
Y1407187D01*
Y1403354D01*
Y1399520D01*
Y1395686D01*
Y1391852D01*
Y1388018D01*
Y1384184D01*
Y1380350D01*
Y1376517D01*
Y1372683D01*
Y1368849D01*
Y1365015D01*
Y1361181D01*
Y1357348D01*
Y1353513D01*
Y1349680D01*
Y1345846D01*
Y1342012D01*
Y1338178D01*
Y1334345D01*
Y1330511D01*
Y1326677D01*
Y1322843D01*
Y1319009D01*
Y1315175D01*
Y1311341D01*
Y1307507D01*
Y1303674D01*
Y1299840D01*
Y1296006D01*
Y1292172D01*
Y1288338D01*
Y1284505D01*
Y1280671D01*
Y1276837D01*
Y1273003D01*
Y1269169D01*
Y1265335D01*
Y1261501D01*
Y1257668D01*
Y1253833D01*
Y1250000D01*
Y1246166D01*
Y1242332D01*
X11376523D01*
Y1246166D01*
Y1250000D01*
Y1253833D01*
Y1257668D01*
Y1261501D01*
Y1265335D01*
Y1269169D01*
Y1273003D01*
Y1276837D01*
Y1280671D01*
Y1284505D01*
Y1288338D01*
Y1292172D01*
Y1296006D01*
Y1299840D01*
Y1303674D01*
Y1307507D01*
Y1311341D01*
Y1315175D01*
Y1319009D01*
Y1322843D01*
Y1326677D01*
Y1330511D01*
Y1334345D01*
Y1338178D01*
Y1342012D01*
Y1345846D01*
Y1349680D01*
Y1353513D01*
Y1357348D01*
Y1361181D01*
Y1365015D01*
Y1368849D01*
Y1372683D01*
Y1376517D01*
Y1380350D01*
Y1384184D01*
Y1388018D01*
Y1391852D01*
Y1395686D01*
Y1399520D01*
Y1403354D01*
Y1407187D01*
Y1411021D01*
Y1414855D01*
Y1418689D01*
Y1422523D01*
Y1426357D01*
Y1430190D01*
Y1434024D01*
Y1437858D01*
Y1441692D01*
Y1445526D01*
X11315182D01*
Y1449360D01*
Y1453193D01*
Y1457028D01*
Y1460861D01*
Y1464695D01*
Y1468529D01*
Y1472363D01*
Y1476196D01*
Y1480030D01*
X11376523D01*
Y1483864D01*
Y1487698D01*
Y1491532D01*
Y1495366D01*
Y1499200D01*
Y1503034D01*
Y1506867D01*
Y1510701D01*
Y1514535D01*
Y1518369D01*
Y1522203D01*
X11372689D01*
Y1526037D01*
Y1529870D01*
X11368856D01*
Y1533704D01*
X11365022D01*
Y1537538D01*
X11361188D01*
Y1541372D01*
X11357354D01*
Y1545206D01*
X11322850D01*
Y1541372D01*
X11315182D01*
Y1545206D01*
Y1549040D01*
Y1552873D01*
Y1556707D01*
Y1560541D01*
Y1564375D01*
Y1568209D01*
Y1572043D01*
Y1575876D01*
X11319016D01*
Y1579710D01*
X11365022D01*
Y1575876D01*
D02*
G37*
G36*
X11207834Y1480030D02*
X11230837D01*
Y1476196D01*
X11242339D01*
Y1472363D01*
X11250007D01*
Y1468529D01*
X11257674D01*
Y1464695D01*
X11265342D01*
Y1460861D01*
X11269176D01*
Y1457028D01*
X11273010D01*
Y1453193D01*
X11276844D01*
Y1449360D01*
X11280677D01*
Y1445526D01*
X11284511D01*
Y1441692D01*
X11288345D01*
Y1437858D01*
X11292179D01*
Y1434024D01*
Y1430190D01*
X11296013D01*
Y1426357D01*
X11299847D01*
Y1422523D01*
Y1418689D01*
X11303680D01*
Y1414855D01*
Y1411021D01*
Y1407187D01*
X11307514D01*
Y1403354D01*
Y1399520D01*
Y1395686D01*
X11311348D01*
Y1391852D01*
Y1388018D01*
Y1384184D01*
Y1380350D01*
Y1376517D01*
Y1372683D01*
X11315182D01*
Y1368849D01*
Y1365015D01*
Y1361181D01*
Y1357348D01*
Y1353513D01*
Y1349680D01*
X11311348D01*
Y1345846D01*
Y1342012D01*
Y1338178D01*
Y1334345D01*
Y1330511D01*
Y1326677D01*
X11307514D01*
Y1322843D01*
Y1319009D01*
Y1315175D01*
X11303680D01*
Y1311341D01*
Y1307507D01*
Y1303674D01*
X11299847D01*
Y1299840D01*
Y1296006D01*
X11296013D01*
Y1292172D01*
X11292179D01*
Y1288338D01*
Y1284505D01*
X11288345D01*
Y1280671D01*
X11284511D01*
Y1276837D01*
X11280677D01*
Y1273003D01*
X11276844D01*
Y1269169D01*
X11273010D01*
Y1265335D01*
X11269176D01*
Y1261501D01*
X11261508D01*
Y1257668D01*
X11257674D01*
Y1253833D01*
X11250007D01*
Y1250000D01*
X11242339D01*
Y1246166D01*
X11227003D01*
Y1242332D01*
X11161828D01*
Y1246166D01*
X11150327D01*
Y1250000D01*
X11142659D01*
Y1253833D01*
X11134991D01*
Y1257668D01*
X11127323D01*
Y1261501D01*
X11123490D01*
Y1265335D01*
X11119656D01*
Y1269169D01*
X11111988D01*
Y1273003D01*
X11108154D01*
Y1276837D01*
X11104320D01*
Y1280671D01*
Y1284505D01*
X11100487D01*
Y1288338D01*
X11096653D01*
Y1292172D01*
X11092819D01*
Y1296006D01*
Y1299840D01*
X11088985D01*
Y1303674D01*
Y1307507D01*
X11085151D01*
Y1311341D01*
Y1315175D01*
Y1319009D01*
X11081318D01*
Y1322843D01*
Y1326677D01*
Y1330511D01*
X11077484D01*
Y1334345D01*
Y1338178D01*
Y1342012D01*
Y1345846D01*
Y1349680D01*
Y1353513D01*
Y1357348D01*
Y1361181D01*
Y1365015D01*
Y1368849D01*
Y1372683D01*
Y1376517D01*
Y1380350D01*
Y1384184D01*
Y1388018D01*
Y1391852D01*
X11081318D01*
Y1395686D01*
Y1399520D01*
Y1403354D01*
Y1407187D01*
X11085151D01*
Y1411021D01*
Y1414855D01*
X11088985D01*
Y1418689D01*
Y1422523D01*
X11092819D01*
Y1426357D01*
Y1430190D01*
X11096653D01*
Y1434024D01*
X11100487D01*
Y1437858D01*
Y1441692D01*
X11104320D01*
Y1445526D01*
X11108154D01*
Y1449360D01*
X11111988D01*
Y1453193D01*
X11115822D01*
Y1457028D01*
X11123490D01*
Y1460861D01*
X11127323D01*
Y1464695D01*
X11134991D01*
Y1468529D01*
X11142659D01*
Y1472363D01*
X11150327D01*
Y1476196D01*
X11161828D01*
Y1480030D01*
X11184831D01*
Y1483864D01*
X11207834D01*
Y1480030D01*
D02*
G37*
G36*
X10832118Y1572043D02*
Y1568209D01*
Y1564375D01*
Y1560541D01*
Y1556707D01*
Y1552873D01*
Y1549040D01*
Y1545206D01*
Y1541372D01*
Y1537538D01*
Y1533704D01*
Y1529870D01*
Y1526037D01*
Y1522203D01*
Y1518369D01*
Y1514535D01*
Y1510701D01*
Y1506867D01*
Y1503034D01*
Y1499200D01*
Y1495366D01*
Y1491532D01*
Y1487698D01*
Y1483864D01*
Y1480030D01*
Y1476196D01*
Y1472363D01*
Y1468529D01*
Y1464695D01*
Y1460861D01*
Y1457028D01*
Y1453193D01*
Y1449360D01*
Y1445526D01*
Y1441692D01*
Y1437858D01*
Y1434024D01*
Y1430190D01*
Y1426357D01*
Y1422523D01*
Y1418689D01*
Y1414855D01*
Y1411021D01*
Y1407187D01*
Y1403354D01*
Y1399520D01*
Y1395686D01*
Y1391852D01*
Y1388018D01*
Y1384184D01*
Y1380350D01*
Y1376517D01*
Y1372683D01*
Y1368849D01*
Y1365015D01*
Y1361181D01*
Y1357348D01*
Y1353513D01*
Y1349680D01*
Y1345846D01*
Y1342012D01*
Y1338178D01*
Y1334345D01*
Y1330511D01*
Y1326677D01*
Y1322843D01*
Y1319009D01*
Y1315175D01*
Y1311341D01*
Y1307507D01*
Y1303674D01*
Y1299840D01*
Y1296006D01*
Y1292172D01*
Y1288338D01*
Y1284505D01*
Y1280671D01*
Y1276837D01*
Y1273003D01*
Y1269169D01*
Y1265335D01*
Y1261501D01*
Y1257668D01*
Y1253833D01*
Y1250000D01*
Y1246166D01*
Y1242332D01*
X10793779D01*
Y1246166D01*
Y1250000D01*
Y1253833D01*
Y1257668D01*
Y1261501D01*
Y1265335D01*
Y1269169D01*
Y1273003D01*
Y1276837D01*
Y1280671D01*
Y1284505D01*
Y1288338D01*
Y1292172D01*
Y1296006D01*
Y1299840D01*
Y1303674D01*
Y1307507D01*
Y1311341D01*
Y1315175D01*
Y1319009D01*
Y1322843D01*
Y1326677D01*
Y1330511D01*
Y1334345D01*
Y1338178D01*
Y1342012D01*
Y1345846D01*
Y1349680D01*
Y1353513D01*
Y1357348D01*
Y1361181D01*
Y1365015D01*
Y1368849D01*
Y1372683D01*
Y1376517D01*
Y1380350D01*
Y1384184D01*
Y1388018D01*
Y1391852D01*
Y1395686D01*
Y1399520D01*
Y1403354D01*
Y1407187D01*
Y1411021D01*
Y1414855D01*
Y1418689D01*
Y1422523D01*
Y1426357D01*
Y1430190D01*
Y1434024D01*
Y1437858D01*
Y1441692D01*
Y1445526D01*
Y1449360D01*
Y1453193D01*
Y1457028D01*
Y1460861D01*
Y1464695D01*
Y1468529D01*
Y1472363D01*
Y1476196D01*
Y1480030D01*
Y1483864D01*
Y1487698D01*
Y1491532D01*
Y1495366D01*
Y1499200D01*
Y1503034D01*
Y1506867D01*
Y1510701D01*
Y1514535D01*
Y1518369D01*
Y1522203D01*
Y1526037D01*
Y1529870D01*
Y1533704D01*
Y1537538D01*
Y1541372D01*
Y1545206D01*
Y1549040D01*
Y1552873D01*
Y1556707D01*
Y1560541D01*
Y1564375D01*
Y1568209D01*
Y1572043D01*
Y1575876D01*
X10832118D01*
Y1572043D01*
D02*
G37*
G36*
X11414862Y1088978D02*
Y1085145D01*
Y1081311D01*
Y1077477D01*
Y1073643D01*
Y1069809D01*
Y1065976D01*
Y1062142D01*
Y1058308D01*
Y1054474D01*
Y1050640D01*
Y1046806D01*
Y1042973D01*
Y1039138D01*
Y1035305D01*
Y1031471D01*
Y1027637D01*
Y1023803D01*
Y1019970D01*
Y1016136D01*
Y1012302D01*
Y1008468D01*
Y1004634D01*
Y1000800D01*
Y996966D01*
Y993132D01*
Y989299D01*
Y985465D01*
Y981631D01*
Y977797D01*
Y973963D01*
Y970129D01*
Y966296D01*
Y962462D01*
Y958628D01*
Y954794D01*
X11403360D01*
Y958628D01*
Y962462D01*
Y966296D01*
X11395692D01*
Y962462D01*
X11391859D01*
Y958628D01*
X11388025D01*
Y954794D01*
X11372689D01*
Y950960D01*
X11361188D01*
Y954794D01*
X11345853D01*
Y958628D01*
X11338185D01*
Y962462D01*
X11334351D01*
Y966296D01*
X11330517D01*
Y970129D01*
X11326683D01*
Y973963D01*
Y977797D01*
X11322850D01*
Y981631D01*
Y985465D01*
Y989299D01*
Y993132D01*
X11319016D01*
Y996966D01*
Y1000800D01*
Y1004634D01*
Y1008468D01*
Y1012302D01*
X11322850D01*
Y1016136D01*
Y1019970D01*
Y1023803D01*
Y1027637D01*
X11326683D01*
Y1031471D01*
Y1035305D01*
X11330517D01*
Y1039138D01*
X11334351D01*
Y1042973D01*
X11338185D01*
Y1046806D01*
X11345853D01*
Y1050640D01*
X11357354D01*
Y1054474D01*
X11376523D01*
Y1050640D01*
X11388025D01*
Y1046806D01*
X11391859D01*
Y1042973D01*
X11395692D01*
Y1039138D01*
X11403360D01*
Y1042973D01*
Y1046806D01*
Y1050640D01*
Y1054474D01*
Y1058308D01*
Y1062142D01*
Y1065976D01*
Y1069809D01*
Y1073643D01*
Y1077477D01*
Y1081311D01*
Y1085145D01*
Y1088978D01*
Y1092812D01*
X11414862D01*
Y1088978D01*
D02*
G37*
G36*
X10793779Y1050640D02*
X10805281D01*
Y1046806D01*
X10809115D01*
Y1042973D01*
X10816783D01*
Y1039138D01*
Y1035305D01*
X10820616D01*
Y1031471D01*
X10824450D01*
Y1027637D01*
Y1023803D01*
Y1019970D01*
Y1016136D01*
X10828284D01*
Y1012302D01*
Y1008468D01*
Y1004634D01*
Y1000800D01*
Y996966D01*
Y993132D01*
X10824450D01*
Y989299D01*
Y985465D01*
Y981631D01*
X10820616D01*
Y977797D01*
Y973963D01*
X10816783D01*
Y970129D01*
X10812949D01*
Y966296D01*
X10809115D01*
Y962462D01*
X10801447D01*
Y958628D01*
X10763109D01*
Y962462D01*
X10759275D01*
Y966296D01*
X10755441D01*
Y970129D01*
X10747773D01*
Y966296D01*
X10743939D01*
Y962462D01*
Y958628D01*
Y954794D01*
Y950960D01*
X10747773D01*
Y947126D01*
Y943293D01*
Y939458D01*
X10751607D01*
Y935625D01*
X10755441D01*
Y931791D01*
X10763109D01*
Y927957D01*
X10770776D01*
Y924123D01*
X10789945D01*
Y927957D01*
X10801447D01*
Y931791D01*
X10805281D01*
Y935625D01*
X10809115D01*
Y939458D01*
X10812949D01*
Y943293D01*
X10820616D01*
Y939458D01*
Y935625D01*
X10816783D01*
Y931791D01*
Y927957D01*
X10812949D01*
Y924123D01*
X10809115D01*
Y920289D01*
X10801447D01*
Y916456D01*
X10763109D01*
Y920289D01*
X10755441D01*
Y924123D01*
X10747773D01*
Y927957D01*
X10743939D01*
Y931791D01*
Y935625D01*
X10740106D01*
Y939458D01*
Y943293D01*
X10736272D01*
Y947126D01*
Y950960D01*
Y954794D01*
Y958628D01*
Y962462D01*
Y966296D01*
Y970129D01*
Y973963D01*
Y977797D01*
Y981631D01*
Y985465D01*
Y989299D01*
Y993132D01*
Y996966D01*
Y1000800D01*
Y1004634D01*
Y1008468D01*
Y1012302D01*
Y1016136D01*
Y1019970D01*
Y1023803D01*
Y1027637D01*
Y1031471D01*
Y1035305D01*
Y1039138D01*
Y1042973D01*
Y1046806D01*
Y1050640D01*
X10743939D01*
Y1046806D01*
Y1042973D01*
X10747773D01*
Y1039138D01*
X10755441D01*
Y1042973D01*
X10759275D01*
Y1046806D01*
X10763109D01*
Y1050640D01*
X10774610D01*
Y1054474D01*
X10793779D01*
Y1050640D01*
D02*
G37*
G36*
X11035311Y1046806D02*
X11031478D01*
Y1042973D01*
X11027644D01*
Y1039138D01*
Y1035305D01*
X11023810D01*
Y1031471D01*
X11019976D01*
Y1027637D01*
Y1023803D01*
X11016142D01*
Y1019970D01*
X11012308D01*
Y1016136D01*
Y1012302D01*
X11008475D01*
Y1008468D01*
X11004640D01*
Y1004634D01*
Y1000800D01*
X11008475D01*
Y996966D01*
X11012308D01*
Y993132D01*
Y989299D01*
X11016142D01*
Y985465D01*
X11019976D01*
Y981631D01*
Y977797D01*
X11023810D01*
Y973963D01*
X11027644D01*
Y970129D01*
Y966296D01*
X11031478D01*
Y962462D01*
X11035311D01*
Y958628D01*
Y954794D01*
X11023810D01*
Y958628D01*
Y962462D01*
X11019976D01*
Y966296D01*
X11016142D01*
Y970129D01*
Y973963D01*
X11012308D01*
Y977797D01*
X11008475D01*
Y981631D01*
Y985465D01*
X11004640D01*
Y989299D01*
X11000807D01*
Y993132D01*
X10996973D01*
Y989299D01*
X10993139D01*
Y985465D01*
X10989305D01*
Y981631D01*
Y977797D01*
X10985472D01*
Y973963D01*
X10981638D01*
Y970129D01*
X10977804D01*
Y966296D01*
Y962462D01*
X10973970D01*
Y958628D01*
X10970136D01*
Y954794D01*
X10958634D01*
Y958628D01*
X10962468D01*
Y962462D01*
X10966302D01*
Y966296D01*
Y970129D01*
X10970136D01*
Y973963D01*
X10973970D01*
Y977797D01*
Y981631D01*
X10977804D01*
Y985465D01*
X10981638D01*
Y989299D01*
Y993132D01*
X10985472D01*
Y996966D01*
X10989305D01*
Y1000800D01*
X10993139D01*
Y1004634D01*
Y1008468D01*
X10989305D01*
Y1012302D01*
X10985472D01*
Y1016136D01*
Y1019970D01*
X10981638D01*
Y1023803D01*
X10977804D01*
Y1027637D01*
X10973970D01*
Y1031471D01*
Y1035305D01*
X10970136D01*
Y1039138D01*
X10966302D01*
Y1042973D01*
Y1046806D01*
X10962468D01*
Y1050640D01*
X10973970D01*
Y1046806D01*
X10977804D01*
Y1042973D01*
X10981638D01*
Y1039138D01*
Y1035305D01*
X10985472D01*
Y1031471D01*
X10989305D01*
Y1027637D01*
Y1023803D01*
X10993139D01*
Y1019970D01*
X10996973D01*
Y1016136D01*
X11000807D01*
Y1019970D01*
X11004640D01*
Y1023803D01*
X11008475D01*
Y1027637D01*
Y1031471D01*
X11012308D01*
Y1035305D01*
X11016142D01*
Y1039138D01*
Y1042973D01*
X11019976D01*
Y1046806D01*
X11023810D01*
Y1050640D01*
X11035311D01*
Y1046806D01*
D02*
G37*
G36*
X11303680D02*
Y1042973D01*
X11299847D01*
Y1039138D01*
Y1035305D01*
Y1031471D01*
X11296013D01*
Y1027637D01*
Y1023803D01*
X11292179D01*
Y1019970D01*
Y1016136D01*
Y1012302D01*
X11288345D01*
Y1008468D01*
Y1004634D01*
X11284511D01*
Y1000800D01*
Y996966D01*
Y993132D01*
X11280677D01*
Y989299D01*
Y985465D01*
X11276844D01*
Y981631D01*
Y977797D01*
Y973963D01*
X11273010D01*
Y970129D01*
Y966296D01*
X11269176D01*
Y962462D01*
Y958628D01*
Y954794D01*
X11265342D01*
Y950960D01*
X11269176D01*
Y947126D01*
Y943293D01*
Y939458D01*
X11273010D01*
Y935625D01*
Y931791D01*
X11276844D01*
Y927957D01*
Y924123D01*
Y920289D01*
X11280677D01*
Y916456D01*
X11269176D01*
Y920289D01*
Y924123D01*
X11265342D01*
Y927957D01*
Y931791D01*
Y935625D01*
X11261508D01*
Y939458D01*
Y943293D01*
X11257674D01*
Y947126D01*
Y950960D01*
Y954794D01*
X11253840D01*
Y958628D01*
Y962462D01*
X11250007D01*
Y966296D01*
Y970129D01*
Y973963D01*
X11246173D01*
Y977797D01*
Y981631D01*
Y985465D01*
X11242339D01*
Y989299D01*
Y993132D01*
X11238505D01*
Y996966D01*
Y1000800D01*
Y1004634D01*
X11234671D01*
Y1008468D01*
Y1012302D01*
X11230837D01*
Y1016136D01*
Y1019970D01*
Y1023803D01*
X11227003D01*
Y1027637D01*
Y1031471D01*
Y1035305D01*
X11223170D01*
Y1039138D01*
Y1042973D01*
X11219336D01*
Y1046806D01*
Y1050640D01*
X11230837D01*
Y1046806D01*
Y1042973D01*
Y1039138D01*
X11234671D01*
Y1035305D01*
Y1031471D01*
X11238505D01*
Y1027637D01*
Y1023803D01*
Y1019970D01*
X11242339D01*
Y1016136D01*
Y1012302D01*
X11246173D01*
Y1008468D01*
Y1004634D01*
Y1000800D01*
X11250007D01*
Y996966D01*
Y993132D01*
Y989299D01*
X11253840D01*
Y985465D01*
Y981631D01*
X11257674D01*
Y977797D01*
Y973963D01*
X11265342D01*
Y977797D01*
Y981631D01*
X11269176D01*
Y985465D01*
Y989299D01*
Y993132D01*
X11273010D01*
Y996966D01*
Y1000800D01*
X11276844D01*
Y1004634D01*
Y1008468D01*
Y1012302D01*
X11280677D01*
Y1016136D01*
Y1019970D01*
X11284511D01*
Y1023803D01*
Y1027637D01*
Y1031471D01*
X11288345D01*
Y1035305D01*
Y1039138D01*
Y1042973D01*
X11292179D01*
Y1046806D01*
Y1050640D01*
X11303680D01*
Y1046806D01*
D02*
G37*
G36*
X10908795Y1050640D02*
X10920296D01*
Y1046806D01*
X10924130D01*
Y1042973D01*
X10927964D01*
Y1039138D01*
X10931798D01*
Y1035305D01*
X10935631D01*
Y1031471D01*
Y1027637D01*
X10939465D01*
Y1023803D01*
Y1019970D01*
Y1016136D01*
Y1012302D01*
X10943299D01*
Y1008468D01*
Y1004634D01*
Y1000800D01*
Y996966D01*
Y993132D01*
X10939465D01*
Y989299D01*
Y985465D01*
Y981631D01*
Y977797D01*
X10935631D01*
Y973963D01*
X10931798D01*
Y970129D01*
Y966296D01*
X10927964D01*
Y962462D01*
X10924130D01*
Y958628D01*
X10916462D01*
Y954794D01*
X10901127D01*
Y950960D01*
X10893459D01*
Y954794D01*
X10874290D01*
Y958628D01*
X10866622D01*
Y962462D01*
X10862788D01*
Y966296D01*
X10858955D01*
Y970129D01*
Y973963D01*
X10855121D01*
Y977797D01*
Y981631D01*
X10862788D01*
Y977797D01*
X10866622D01*
Y973963D01*
X10870456D01*
Y970129D01*
X10874290D01*
Y966296D01*
X10885792D01*
Y962462D01*
X10908795D01*
Y966296D01*
X10916462D01*
Y970129D01*
X10920296D01*
Y973963D01*
X10924130D01*
Y977797D01*
X10927964D01*
Y981631D01*
Y985465D01*
X10931798D01*
Y989299D01*
Y993132D01*
Y996966D01*
Y1000800D01*
X10851287D01*
Y1004634D01*
Y1008468D01*
Y1012302D01*
Y1016136D01*
Y1019970D01*
Y1023803D01*
X10855121D01*
Y1027637D01*
Y1031471D01*
X10858955D01*
Y1035305D01*
Y1039138D01*
X10862788D01*
Y1042973D01*
X10866622D01*
Y1046806D01*
X10874290D01*
Y1050640D01*
X10885792D01*
Y1054474D01*
X10908795D01*
Y1050640D01*
D02*
G37*
G36*
X10671096D02*
X10682598D01*
Y1046806D01*
X10686432D01*
Y1042973D01*
X10694099D01*
Y1039138D01*
Y1035305D01*
X10697933D01*
Y1031471D01*
X10701767D01*
Y1027637D01*
Y1023803D01*
X10705601D01*
Y1019970D01*
Y1016136D01*
Y1012302D01*
Y1008468D01*
Y1004634D01*
Y1000800D01*
Y996966D01*
Y993132D01*
Y989299D01*
Y985465D01*
X10701767D01*
Y981631D01*
Y977797D01*
Y973963D01*
X10697933D01*
Y970129D01*
X10694099D01*
Y966296D01*
X10690266D01*
Y962462D01*
X10686432D01*
Y958628D01*
X10682598D01*
Y954794D01*
X10667263D01*
Y950960D01*
X10655761D01*
Y954794D01*
X10640426D01*
Y958628D01*
X10632758D01*
Y962462D01*
X10628924D01*
Y966296D01*
X10625090D01*
Y970129D01*
X10621256D01*
Y973963D01*
Y977797D01*
X10617423D01*
Y981631D01*
X10628924D01*
Y977797D01*
X10632758D01*
Y973963D01*
Y970129D01*
X10640426D01*
Y966296D01*
X10648093D01*
Y962462D01*
X10671096D01*
Y966296D01*
X10678764D01*
Y970129D01*
X10686432D01*
Y973963D01*
X10690266D01*
Y977797D01*
Y981631D01*
X10694099D01*
Y985465D01*
Y989299D01*
X10697933D01*
Y993132D01*
Y996966D01*
Y1000800D01*
X10613589D01*
Y1004634D01*
Y1008468D01*
Y1012302D01*
X10617423D01*
Y1016136D01*
Y1019970D01*
Y1023803D01*
Y1027637D01*
X10621256D01*
Y1031471D01*
Y1035305D01*
X10625090D01*
Y1039138D01*
X10628924D01*
Y1042973D01*
X10632758D01*
Y1046806D01*
X10640426D01*
Y1050640D01*
X10651927D01*
Y1054474D01*
X10671096D01*
Y1050640D01*
D02*
G37*
G36*
X11142659Y1088978D02*
Y1085145D01*
Y1081311D01*
Y1077477D01*
Y1073643D01*
Y1069809D01*
Y1065976D01*
Y1062142D01*
Y1058308D01*
Y1054474D01*
Y1050640D01*
Y1046806D01*
Y1042973D01*
Y1039138D01*
Y1035305D01*
Y1031471D01*
Y1027637D01*
Y1023803D01*
Y1019970D01*
Y1016136D01*
Y1012302D01*
Y1008468D01*
Y1004634D01*
Y1000800D01*
Y996966D01*
Y993132D01*
Y989299D01*
Y985465D01*
Y981631D01*
Y977797D01*
Y973963D01*
Y970129D01*
Y966296D01*
Y962462D01*
Y958628D01*
Y954794D01*
X11058314D01*
Y958628D01*
Y962462D01*
Y966296D01*
X11134991D01*
Y970129D01*
Y973963D01*
Y977797D01*
Y981631D01*
Y985465D01*
Y989299D01*
Y993132D01*
Y996966D01*
Y1000800D01*
Y1004634D01*
Y1008468D01*
Y1012302D01*
Y1016136D01*
Y1019970D01*
X11073650D01*
Y1023803D01*
Y1027637D01*
Y1031471D01*
Y1035305D01*
X11134991D01*
Y1039138D01*
Y1042973D01*
Y1046806D01*
Y1050640D01*
Y1054474D01*
Y1058308D01*
Y1062142D01*
Y1065976D01*
Y1069809D01*
Y1073643D01*
Y1077477D01*
Y1081311D01*
X11062148D01*
Y1085145D01*
Y1088978D01*
Y1092812D01*
X11142659D01*
Y1088978D01*
D02*
G37*
G36*
X10548413Y1050640D02*
X10556081D01*
Y1046806D01*
X10559915D01*
Y1042973D01*
X10563749D01*
Y1039138D01*
X10567583D01*
Y1035305D01*
X10571416D01*
Y1031471D01*
X10579084D01*
Y1035305D01*
Y1039138D01*
X10575250D01*
Y1042973D01*
Y1046806D01*
Y1050640D01*
X10586752D01*
Y1046806D01*
Y1042973D01*
Y1039138D01*
Y1035305D01*
Y1031471D01*
Y1027637D01*
Y1023803D01*
Y1019970D01*
Y1016136D01*
Y1012302D01*
Y1008468D01*
Y1004634D01*
Y1000800D01*
Y996966D01*
Y993132D01*
Y989299D01*
Y985465D01*
Y981631D01*
Y977797D01*
Y973963D01*
Y970129D01*
Y966296D01*
Y962462D01*
Y958628D01*
Y954794D01*
X10575250D01*
Y958628D01*
Y962462D01*
Y966296D01*
Y970129D01*
Y973963D01*
Y977797D01*
Y981631D01*
Y985465D01*
Y989299D01*
Y993132D01*
Y996966D01*
Y1000800D01*
Y1004634D01*
Y1008468D01*
Y1012302D01*
Y1016136D01*
X10571416D01*
Y1019970D01*
Y1023803D01*
Y1027637D01*
X10567583D01*
Y1031471D01*
X10563749D01*
Y1035305D01*
X10559915D01*
Y1039138D01*
X10552247D01*
Y1042973D01*
X10533078D01*
Y1046806D01*
Y1050640D01*
Y1054474D01*
X10548413D01*
Y1050640D01*
D02*
G37*
G36*
X6760000Y1534195D02*
X6681789Y1452745D01*
X6679475Y1430531D01*
X6674384Y1377310D01*
X6670682Y1338899D01*
X6754446Y1252357D01*
X6748893Y1246804D01*
X6669756Y1327792D01*
X6665128Y1278274D01*
X6662814D01*
Y1259299D01*
X6645229D01*
Y1278274D01*
X6590620D01*
X6588768Y1274571D01*
X6585992Y1270869D01*
X6582289Y1266704D01*
X6577199Y1263002D01*
X6571182Y1261150D01*
X6565629Y1260688D01*
X6560076D01*
X6555910Y1262076D01*
X6550820Y1263927D01*
X6546655Y1266704D01*
X6543415Y1269943D01*
X6540176Y1274571D01*
X6537862Y1279662D01*
X6536473Y1284290D01*
X6536011Y1288455D01*
X6536473Y1293083D01*
X6537399Y1296785D01*
X6538787Y1300487D01*
X6540638Y1304190D01*
X6542952Y1307429D01*
X6546192Y1310669D01*
X6549894Y1312983D01*
X6553134Y1314371D01*
X6552671Y1318536D01*
X6483253Y1246804D01*
X6477699Y1252820D01*
X6551745Y1329643D01*
X6545729Y1396747D01*
X6541564Y1445340D01*
X6519350D01*
Y1476347D01*
X6525366D01*
X6468906Y1534195D01*
X6474923Y1539749D01*
X6527680Y1485140D01*
Y1489305D01*
X6526755Y1490230D01*
X6525366Y1491156D01*
X6523978Y1492544D01*
X6522590Y1493933D01*
X6521664Y1496247D01*
X6521201Y1498098D01*
X6520739Y1500412D01*
X6521201Y1503189D01*
X6522127Y1505040D01*
X6523978Y1508279D01*
X6526292Y1510130D01*
X6529532Y1511519D01*
X6532771Y1511981D01*
X6536011Y1511519D01*
X6538787Y1510593D01*
X6541101Y1509205D01*
X6542027Y1507816D01*
X6544341Y1509668D01*
X6547580Y1511981D01*
X6551745Y1513833D01*
X6557762Y1516147D01*
X6564241Y1517998D01*
X6570720Y1519386D01*
X6577661Y1520774D01*
X6583215Y1521237D01*
Y1528179D01*
X6627643D01*
Y1522163D01*
X6631345D01*
X6636898Y1521700D01*
X6642915Y1520774D01*
X6648931Y1519849D01*
Y1523551D01*
X6667905D01*
Y1514758D01*
X6670219Y1513370D01*
X6673459Y1511981D01*
X6676698Y1510130D01*
X6679475Y1508279D01*
X6682252Y1505965D01*
X6684103Y1504114D01*
X6685028Y1502726D01*
X6685954Y1500875D01*
X6685491Y1497635D01*
X6696598D01*
Y1483289D01*
X6684565D01*
X6682714Y1465240D01*
X6754446Y1539749D01*
X6760000Y1534195D01*
D02*
G37*
G36*
X6743340Y1182939D02*
Y1182014D01*
Y1180162D01*
Y1178311D01*
Y1176460D01*
Y1174609D01*
Y1173683D01*
Y1173221D01*
Y1165816D01*
Y1158874D01*
Y1155635D01*
Y1153321D01*
Y1151932D01*
Y1151470D01*
Y1143139D01*
Y1139437D01*
Y1136198D01*
Y1133421D01*
Y1131570D01*
Y1130181D01*
Y1129719D01*
Y1126479D01*
Y1124165D01*
Y1122314D01*
Y1121388D01*
Y1120000D01*
X6490195D01*
Y1120463D01*
Y1121388D01*
Y1125091D01*
Y1128330D01*
Y1129256D01*
Y1129719D01*
Y1137123D01*
Y1144065D01*
Y1147305D01*
Y1149618D01*
Y1151007D01*
Y1151470D01*
Y1159800D01*
Y1163502D01*
Y1166742D01*
Y1169518D01*
Y1171370D01*
Y1172758D01*
Y1173221D01*
Y1176460D01*
Y1179237D01*
Y1181088D01*
Y1182014D01*
Y1182939D01*
Y1183402D01*
X6743340D01*
Y1182939D01*
D02*
G37*
%LPC*%
G36*
X11775243Y1449360D02*
X11733071D01*
Y1445526D01*
X11721569D01*
Y1441692D01*
X11713901D01*
Y1437858D01*
X11706234D01*
Y1434024D01*
X11702400D01*
Y1430190D01*
X11698566D01*
Y1426357D01*
X11694732D01*
Y1422523D01*
Y1418689D01*
X11690898D01*
Y1414855D01*
Y1411021D01*
X11687065D01*
Y1407187D01*
Y1403354D01*
X11683231D01*
Y1399520D01*
Y1395686D01*
Y1391852D01*
Y1388018D01*
X11825083D01*
Y1391852D01*
Y1395686D01*
X11821249D01*
Y1399520D01*
Y1403354D01*
Y1407187D01*
X11817415D01*
Y1411021D01*
Y1414855D01*
X11813581D01*
Y1418689D01*
Y1422523D01*
X11809748D01*
Y1426357D01*
X11805914D01*
Y1430190D01*
X11802080D01*
Y1434024D01*
X11798246D01*
Y1437858D01*
X11790578D01*
Y1441692D01*
X11782911D01*
Y1445526D01*
X11775243D01*
Y1449360D01*
D02*
G37*
G36*
X10667263D02*
X10625090D01*
Y1445526D01*
X10613589D01*
Y1441692D01*
X10605921D01*
Y1437858D01*
X10598253D01*
Y1434024D01*
X10594420D01*
Y1430190D01*
X10590586D01*
Y1426357D01*
X10586752D01*
Y1422523D01*
Y1418689D01*
X10582918D01*
Y1414855D01*
X10579084D01*
Y1411021D01*
Y1407187D01*
Y1403354D01*
X10575250D01*
Y1399520D01*
Y1395686D01*
Y1391852D01*
Y1388018D01*
X10717103D01*
Y1391852D01*
Y1395686D01*
Y1399520D01*
Y1403354D01*
X10713269D01*
Y1407187D01*
Y1411021D01*
X10709435D01*
Y1414855D01*
Y1418689D01*
X10705601D01*
Y1422523D01*
X10701767D01*
Y1426357D01*
X10697933D01*
Y1430190D01*
X10694099D01*
Y1434024D01*
X10690266D01*
Y1437858D01*
X10686432D01*
Y1441692D01*
X10678764D01*
Y1445526D01*
X10667263D01*
Y1449360D01*
D02*
G37*
G36*
X12611020Y1533704D02*
X12515175D01*
Y1529870D01*
X12503673D01*
Y1526037D01*
X12496005D01*
Y1522203D01*
X12488338D01*
Y1518369D01*
X12484504D01*
Y1514535D01*
X12480670D01*
Y1510701D01*
X12476836D01*
Y1506867D01*
Y1503034D01*
X12473002D01*
Y1499200D01*
Y1495366D01*
X12469168D01*
Y1491532D01*
Y1487698D01*
Y1483864D01*
Y1480030D01*
Y1476196D01*
Y1472363D01*
Y1468529D01*
Y1464695D01*
Y1460861D01*
Y1457028D01*
X12473002D01*
Y1453193D01*
Y1449360D01*
X12476836D01*
Y1445526D01*
Y1441692D01*
X12480670D01*
Y1437858D01*
X12484504D01*
Y1434024D01*
X12488338D01*
Y1430190D01*
X12496005D01*
Y1426357D01*
X12499839D01*
Y1422523D01*
X12515175D01*
Y1418689D01*
X12611020D01*
Y1422523D01*
Y1426357D01*
Y1430190D01*
Y1434024D01*
Y1437858D01*
Y1441692D01*
Y1445526D01*
Y1449360D01*
Y1453193D01*
Y1457028D01*
Y1460861D01*
Y1464695D01*
Y1468529D01*
Y1472363D01*
Y1476196D01*
Y1480030D01*
Y1483864D01*
Y1487698D01*
Y1491532D01*
Y1495366D01*
Y1499200D01*
Y1503034D01*
Y1506867D01*
Y1510701D01*
Y1514535D01*
Y1518369D01*
Y1522203D01*
Y1526037D01*
Y1529870D01*
Y1533704D01*
D02*
G37*
G36*
X12311981Y1449360D02*
X12296645D01*
Y1445526D01*
X12277476D01*
Y1441692D01*
X12269809D01*
Y1437858D01*
X12262141D01*
Y1434024D01*
X12254473D01*
Y1430190D01*
X12250639D01*
Y1426357D01*
X12246806D01*
Y1422523D01*
X12242972D01*
Y1418689D01*
X12239138D01*
Y1414855D01*
Y1411021D01*
X12235304D01*
Y1407187D01*
Y1403354D01*
X12231470D01*
Y1399520D01*
Y1395686D01*
X12227636D01*
Y1391852D01*
Y1388018D01*
Y1384184D01*
Y1380350D01*
X12223803D01*
Y1376517D01*
Y1372683D01*
Y1368849D01*
Y1365015D01*
Y1361181D01*
Y1357348D01*
Y1353513D01*
Y1349680D01*
Y1345846D01*
Y1342012D01*
X12227636D01*
Y1338178D01*
Y1334345D01*
Y1330511D01*
Y1326677D01*
X12231470D01*
Y1322843D01*
Y1319009D01*
X12235304D01*
Y1315175D01*
Y1311341D01*
X12239138D01*
Y1307507D01*
X12242972D01*
Y1303674D01*
Y1299840D01*
X12246806D01*
Y1296006D01*
X12250639D01*
Y1292172D01*
X12258307D01*
Y1288338D01*
X12262141D01*
Y1284505D01*
X12269809D01*
Y1280671D01*
X12281310D01*
Y1276837D01*
X12327316D01*
Y1280671D01*
X12338818D01*
Y1284505D01*
X12342652D01*
Y1288338D01*
X12350319D01*
Y1292172D01*
X12354153D01*
Y1296006D01*
X12357987D01*
Y1299840D01*
X12361821D01*
Y1303674D01*
X12365655D01*
Y1307507D01*
X12369488D01*
Y1311341D01*
Y1315175D01*
X12373322D01*
Y1319009D01*
Y1322843D01*
X12377156D01*
Y1326677D01*
Y1330511D01*
Y1334345D01*
X12380990D01*
Y1338178D01*
Y1342012D01*
Y1345846D01*
Y1349680D01*
Y1353513D01*
Y1357348D01*
X12384824D01*
Y1361181D01*
Y1365015D01*
X12380990D01*
Y1368849D01*
Y1372683D01*
Y1376517D01*
Y1380350D01*
Y1384184D01*
Y1388018D01*
Y1391852D01*
X12377156D01*
Y1395686D01*
Y1399520D01*
X12373322D01*
Y1403354D01*
Y1407187D01*
X12369488D01*
Y1411021D01*
Y1414855D01*
X12365655D01*
Y1418689D01*
X12361821D01*
Y1422523D01*
X12357987D01*
Y1426357D01*
X12354153D01*
Y1430190D01*
X12350319D01*
Y1434024D01*
X12346486D01*
Y1437858D01*
X12338818D01*
Y1441692D01*
X12331150D01*
Y1445526D01*
X12311981D01*
Y1449360D01*
D02*
G37*
G36*
X11204000D02*
X11188665D01*
Y1445526D01*
X11169496D01*
Y1441692D01*
X11161828D01*
Y1437858D01*
X11154161D01*
Y1434024D01*
X11146493D01*
Y1430190D01*
X11142659D01*
Y1426357D01*
X11138825D01*
Y1422523D01*
X11134991D01*
Y1418689D01*
X11131157D01*
Y1414855D01*
X11127323D01*
Y1411021D01*
Y1407187D01*
X11123490D01*
Y1403354D01*
Y1399520D01*
X11119656D01*
Y1395686D01*
Y1391852D01*
Y1388018D01*
X11115822D01*
Y1384184D01*
Y1380350D01*
Y1376517D01*
Y1372683D01*
Y1368849D01*
Y1365015D01*
Y1361181D01*
Y1357348D01*
Y1353513D01*
Y1349680D01*
Y1345846D01*
Y1342012D01*
Y1338178D01*
Y1334345D01*
X11119656D01*
Y1330511D01*
Y1326677D01*
Y1322843D01*
X11123490D01*
Y1319009D01*
Y1315175D01*
X11127323D01*
Y1311341D01*
X11131157D01*
Y1307507D01*
Y1303674D01*
X11134991D01*
Y1299840D01*
X11138825D01*
Y1296006D01*
X11142659D01*
Y1292172D01*
X11146493D01*
Y1288338D01*
X11154161D01*
Y1284505D01*
X11161828D01*
Y1280671D01*
X11173330D01*
Y1276837D01*
X11219336D01*
Y1280671D01*
X11230837D01*
Y1284505D01*
X11238505D01*
Y1288338D01*
X11242339D01*
Y1292172D01*
X11246173D01*
Y1296006D01*
X11250007D01*
Y1299840D01*
X11253840D01*
Y1303674D01*
X11257674D01*
Y1307507D01*
X11261508D01*
Y1311341D01*
X11265342D01*
Y1315175D01*
Y1319009D01*
X11269176D01*
Y1322843D01*
Y1326677D01*
Y1330511D01*
X11273010D01*
Y1334345D01*
Y1338178D01*
Y1342012D01*
Y1345846D01*
X11276844D01*
Y1349680D01*
Y1353513D01*
Y1357348D01*
Y1361181D01*
Y1365015D01*
Y1368849D01*
Y1372683D01*
Y1376517D01*
X11273010D01*
Y1380350D01*
Y1384184D01*
Y1388018D01*
Y1391852D01*
X11269176D01*
Y1395686D01*
Y1399520D01*
Y1403354D01*
X11265342D01*
Y1407187D01*
Y1411021D01*
X11261508D01*
Y1414855D01*
X11257674D01*
Y1418689D01*
X11253840D01*
Y1422523D01*
Y1426357D01*
X11250007D01*
Y1430190D01*
X11242339D01*
Y1434024D01*
X11238505D01*
Y1437858D01*
X11230837D01*
Y1441692D01*
X11223170D01*
Y1445526D01*
X11204000D01*
Y1449360D01*
D02*
G37*
G36*
X11380357Y1042973D02*
X11357354D01*
Y1039138D01*
X11349686D01*
Y1035305D01*
X11342019D01*
Y1031471D01*
X11338185D01*
Y1027637D01*
Y1023803D01*
X11334351D01*
Y1019970D01*
Y1016136D01*
X11330517D01*
Y1012302D01*
Y1008468D01*
Y1004634D01*
Y1000800D01*
Y996966D01*
Y993132D01*
X11334351D01*
Y989299D01*
Y985465D01*
Y981631D01*
X11338185D01*
Y977797D01*
X11342019D01*
Y973963D01*
X11345853D01*
Y970129D01*
X11349686D01*
Y966296D01*
X11357354D01*
Y962462D01*
X11380357D01*
Y966296D01*
X11388025D01*
Y970129D01*
X11391859D01*
Y973963D01*
X11395692D01*
Y977797D01*
X11399526D01*
Y981631D01*
X11403360D01*
Y985465D01*
Y989299D01*
Y993132D01*
Y996966D01*
Y1000800D01*
X11407194D01*
Y1004634D01*
Y1008468D01*
X11403360D01*
Y1012302D01*
Y1016136D01*
Y1019970D01*
Y1023803D01*
X11399526D01*
Y1027637D01*
X11395692D01*
Y1031471D01*
Y1035305D01*
X11388025D01*
Y1039138D01*
X11380357D01*
Y1042973D01*
D02*
G37*
G36*
X10793779D02*
X10770776D01*
Y1039138D01*
X10759275D01*
Y1035305D01*
X10755441D01*
Y1031471D01*
X10751607D01*
Y1027637D01*
X10747773D01*
Y1023803D01*
Y1019970D01*
X10743939D01*
Y1016136D01*
Y1012302D01*
Y1008468D01*
Y1004634D01*
Y1000800D01*
Y996966D01*
Y993132D01*
X10747773D01*
Y989299D01*
Y985465D01*
X10751607D01*
Y981631D01*
Y977797D01*
X10755441D01*
Y973963D01*
X10763109D01*
Y970129D01*
X10774610D01*
Y966296D01*
X10789945D01*
Y970129D01*
X10801447D01*
Y973963D01*
X10805281D01*
Y977797D01*
X10809115D01*
Y981631D01*
X10812949D01*
Y985465D01*
Y989299D01*
X10816783D01*
Y993132D01*
Y996966D01*
Y1000800D01*
Y1004634D01*
Y1008468D01*
Y1012302D01*
Y1016136D01*
Y1019970D01*
X10812949D01*
Y1023803D01*
Y1027637D01*
X10809115D01*
Y1031471D01*
X10805281D01*
Y1035305D01*
X10801447D01*
Y1039138D01*
X10793779D01*
Y1042973D01*
D02*
G37*
G36*
X10912628D02*
X10881958D01*
Y1039138D01*
X10874290D01*
Y1035305D01*
X10870456D01*
Y1031471D01*
X10866622D01*
Y1027637D01*
Y1023803D01*
X10862788D01*
Y1019970D01*
Y1016136D01*
Y1012302D01*
X10931798D01*
Y1016136D01*
Y1019970D01*
X10927964D01*
Y1023803D01*
Y1027637D01*
X10924130D01*
Y1031471D01*
Y1035305D01*
X10916462D01*
Y1039138D01*
X10912628D01*
Y1042973D01*
D02*
G37*
G36*
X10674930D02*
X10648093D01*
Y1039138D01*
X10640426D01*
Y1035305D01*
X10632758D01*
Y1031471D01*
Y1027637D01*
X10628924D01*
Y1023803D01*
Y1019970D01*
X10625090D01*
Y1016136D01*
Y1012302D01*
X10697933D01*
Y1016136D01*
X10694099D01*
Y1019970D01*
Y1023803D01*
Y1027637D01*
X10690266D01*
Y1031471D01*
X10686432D01*
Y1035305D01*
X10682598D01*
Y1039138D01*
X10674930D01*
Y1042973D01*
D02*
G37*
G36*
X6619312Y1520312D02*
X6591082D01*
Y1515684D01*
X6619312D01*
Y1520312D01*
D02*
G37*
G36*
X6627643Y1513833D02*
Y1507816D01*
X6583215D01*
Y1512907D01*
X6573959Y1511519D01*
X6565629Y1509668D01*
X6558687Y1507816D01*
X6553134Y1505040D01*
X6548969Y1502726D01*
X6545729Y1499486D01*
Y1497635D01*
X6648931D01*
Y1511056D01*
X6642452Y1512444D01*
X6635510Y1513370D01*
X6627643Y1513833D01*
D02*
G37*
G36*
X6660038Y1515684D02*
X6656798D01*
Y1505040D01*
X6660038D01*
Y1515684D01*
D02*
G37*
G36*
X6667905Y1505502D02*
Y1497635D01*
X6677624D01*
Y1499023D01*
X6675310Y1501337D01*
X6672533Y1503189D01*
X6667905Y1505502D01*
D02*
G37*
G36*
X6533697Y1504114D02*
X6533234D01*
X6530920Y1503651D01*
X6529532Y1502263D01*
X6529069Y1500412D01*
Y1499949D01*
X6529532Y1497635D01*
X6530920Y1496709D01*
X6532771Y1496247D01*
X6533234D01*
X6535548Y1496709D01*
X6536473Y1498098D01*
X6536936Y1499486D01*
Y1499949D01*
X6536473Y1502263D01*
X6535085Y1503651D01*
X6533697Y1504114D01*
D02*
G37*
G36*
X6542952Y1468479D02*
X6527680D01*
Y1453207D01*
X6542952D01*
Y1468479D01*
D02*
G37*
G36*
X6620701Y1433770D02*
X6579050D01*
Y1430994D01*
X6620701D01*
Y1433770D01*
D02*
G37*
G36*
X6676235Y1483289D02*
X6546655D01*
X6547580Y1476347D01*
X6550820D01*
Y1461538D01*
X6570257Y1441638D01*
X6628568D01*
Y1423126D01*
X6588306D01*
X6615147Y1395359D01*
X6673921Y1456447D01*
X6676235Y1483289D01*
D02*
G37*
G36*
X6672533Y1443489D02*
X6620701Y1389805D01*
X6663277Y1345841D01*
X6672533Y1443489D01*
D02*
G37*
G36*
X6550820Y1449968D02*
Y1445340D01*
X6549894D01*
X6559150Y1337510D01*
X6609594Y1389805D01*
X6577199Y1423126D01*
X6570257D01*
Y1430068D01*
X6550820Y1449968D01*
D02*
G37*
G36*
X6615147Y1383789D02*
X6560076Y1326866D01*
X6561001Y1316685D01*
X6564703Y1317148D01*
X6568868Y1316685D01*
X6573959Y1315297D01*
X6579050Y1312983D01*
X6582752Y1310206D01*
X6585992Y1306966D01*
X6589231Y1302339D01*
X6591545Y1296785D01*
X6592933Y1290769D01*
X6592471Y1286604D01*
X6657724D01*
X6662352Y1335196D01*
X6615147Y1383789D01*
D02*
G37*
G36*
X6567017Y1302801D02*
X6564703D01*
X6560076Y1302339D01*
X6556836Y1300487D01*
X6554059Y1298636D01*
X6552671Y1295859D01*
X6551745Y1293546D01*
X6550820Y1291232D01*
Y1289380D01*
Y1288918D01*
X6551283Y1284290D01*
X6553134Y1281050D01*
X6554985Y1278274D01*
X6557762Y1276885D01*
X6560076Y1275960D01*
X6562389Y1275497D01*
X6564241Y1275034D01*
X6564703D01*
X6569331Y1275497D01*
X6572571Y1277348D01*
X6575348Y1279662D01*
X6576736Y1281976D01*
X6577661Y1284753D01*
X6578124Y1286604D01*
X6578587Y1288455D01*
Y1288918D01*
X6578124Y1293546D01*
X6576273Y1296785D01*
X6573959Y1299562D01*
X6571645Y1300950D01*
X6568868Y1301876D01*
X6567017Y1302801D01*
D02*
G37*
G36*
X6654947Y1278274D02*
X6653096D01*
Y1267167D01*
X6654947D01*
Y1278274D01*
D02*
G37*
%LPD*%
G36*
X6567943Y1297711D02*
X6570257Y1296785D01*
X6571645Y1295397D01*
X6572571Y1293546D01*
X6573959Y1290306D01*
Y1289380D01*
Y1288918D01*
X6573496Y1285678D01*
X6572571Y1283364D01*
X6571182Y1281976D01*
X6569331Y1281050D01*
X6566092Y1279662D01*
X6564703D01*
X6561464Y1280125D01*
X6559150Y1281050D01*
X6557762Y1282439D01*
X6556373Y1284290D01*
X6555448Y1287529D01*
Y1288455D01*
Y1288918D01*
X6555910Y1292157D01*
X6556836Y1294471D01*
X6558224Y1295859D01*
X6560076Y1297248D01*
X6563315Y1298173D01*
X6564703D01*
X6567943Y1297711D01*
D02*
G37*
%LPC*%
G36*
X6565166Y1290306D02*
X6563778D01*
X6563315Y1289843D01*
Y1289380D01*
Y1288918D01*
Y1287992D01*
X6563778Y1287529D01*
X6564703D01*
X6565629Y1287992D01*
X6566092Y1288455D01*
Y1288918D01*
X6565629Y1289843D01*
X6565166Y1290306D01*
D02*
G37*
%LPD*%
D13*
X8250556Y2225455D02*
Y2092165D01*
X8183911Y2158810D02*
X8317201D01*
X8790516Y2225455D02*
Y2092164D01*
X8505556Y2225455D02*
Y2092165D01*
X8438911Y2158810D02*
X8572201D01*
X9023016Y2225455D02*
Y2092164D01*
X5878381Y1250000D02*
X6025000D01*
X5878381Y1396619D01*
Y1433274D01*
X5915035Y1469929D01*
X5988345D01*
X6025000Y1433274D01*
X5805071D02*
X5768416Y1469929D01*
X5695106D01*
X5658452Y1433274D01*
Y1286655D01*
X5695106Y1250000D01*
X5768416D01*
X5805071Y1286655D01*
Y1433274D01*
X5585142D02*
X5548487Y1469929D01*
X5475178D01*
X5438523Y1433274D01*
Y1396619D01*
X5475178Y1359965D01*
X5511832D01*
X5475178D01*
X5438523Y1323310D01*
Y1286655D01*
X5475178Y1250000D01*
X5548487D01*
X5585142Y1286655D01*
X5365213Y1469929D02*
X5218594D01*
Y1433274D01*
X5365213Y1286655D01*
Y1250000D01*
X4705426Y1469929D02*
Y1323310D01*
X4632116Y1250000D01*
X4558807Y1323310D01*
Y1469929D01*
X4485497Y1250000D02*
X4412188D01*
X4448843D01*
Y1469929D01*
X4485497Y1433274D01*
D14*
X5355518Y600000D02*
D03*
%TF.MD5,db9cb25e7c3bef857fd7dc8e843d0039*%
M02*
