%TF.GenerationSoftware,Altium Limited,Altium Designer,21.2.2 (38)*%
G04 Layer_Color=8421504*
%FSLAX45Y45*%
%MOMM*%
%TF.SameCoordinates,DC8D9031-FEEE-4EB9-A140-7D2FD38E5C7C*%
%TF.FilePolarity,Positive*%
%TF.FileFunction,Paste,Top*%
%TF.Part,Single*%
G01*
G75*
%TA.AperFunction,SMDPad,CuDef*%
%ADD10R,1.40000X1.10000*%
%ADD11R,0.60000X0.50000*%
%ADD12R,0.50000X0.60000*%
%ADD13R,1.45000X0.30000*%
%ADD14R,0.80000X0.90000*%
G04:AMPARAMS|DCode=15|XSize=1.19mm|YSize=0.4mm|CornerRadius=0.05mm|HoleSize=0mm|Usage=FLASHONLY|Rotation=0.000|XOffset=0mm|YOffset=0mm|HoleType=Round|Shape=RoundedRectangle|*
%AMROUNDEDRECTD15*
21,1,1.19000,0.30000,0,0,0.0*
21,1,1.09000,0.40000,0,0,0.0*
1,1,0.10000,0.54500,-0.15000*
1,1,0.10000,-0.54500,-0.15000*
1,1,0.10000,-0.54500,0.15000*
1,1,0.10000,0.54500,0.15000*
%
%ADD15ROUNDEDRECTD15*%
D10*
X880000Y1985000D02*
D03*
Y1835000D02*
D03*
X880000Y1555000D02*
D03*
Y1705000D02*
D03*
D11*
X2760000Y1990000D02*
D03*
Y1890000D02*
D03*
X2660000Y2040000D02*
D03*
Y1940000D02*
D03*
X1780000Y1690000D02*
D03*
Y1790000D02*
D03*
Y1990000D02*
D03*
Y1890000D02*
D03*
D12*
X1510000Y1790000D02*
D03*
X1610000D02*
D03*
X1510000Y1690000D02*
D03*
X1610000D02*
D03*
X1990000Y2060000D02*
D03*
X2090000D02*
D03*
X2730000Y3105000D02*
D03*
X2630000D02*
D03*
D13*
X2410000Y1730000D02*
D03*
Y1780000D02*
D03*
Y1830000D02*
D03*
Y1880000D02*
D03*
Y1930000D02*
D03*
X1970000D02*
D03*
Y1880000D02*
D03*
Y1830000D02*
D03*
Y1780000D02*
D03*
Y1730000D02*
D03*
D14*
X2525000Y3105000D02*
D03*
X2385000D02*
D03*
D15*
X1114000Y1835000D02*
D03*
Y1770000D02*
D03*
Y1705000D02*
D03*
X1306000D02*
D03*
Y1770000D02*
D03*
Y1835000D02*
D03*
%TF.MD5,7d6d7c50774e801a414912aea697fa3c*%
M02*
