%TF.GenerationSoftware,Altium Limited,Altium Designer,21.2.2 (38)*%
G04 Layer_Color=65535*
%FSLAX45Y45*%
%MOMM*%
%TF.SameCoordinates,DC8D9031-FEEE-4EB9-A140-7D2FD38E5C7C*%
%TF.FilePolarity,Positive*%
%TF.FileFunction,Legend,Top*%
%TF.Part,Single*%
G01*
G75*
%TA.AperFunction,NonConductor*%
%ADD24C,0.25400*%
%ADD25C,0.20000*%
%ADD26C,0.12700*%
D24*
X2280000Y1730000D02*
G03*
X2280000Y1730000I-10000J0D01*
G01*
X776175Y2073041D02*
X623825D01*
Y2149216D01*
X649217Y2174608D01*
X700000D01*
X725392Y2149216D01*
Y2073041D01*
Y2123825D02*
X776175Y2174608D01*
X649217Y2225392D02*
X623825Y2250784D01*
Y2301567D01*
X649217Y2326959D01*
X674608D01*
X700000Y2301567D01*
X725392Y2326959D01*
X750784D01*
X776175Y2301567D01*
Y2250784D01*
X750784Y2225392D01*
X725392D01*
X700000Y2250784D01*
X674608Y2225392D01*
X649217D01*
X700000Y2250784D02*
Y2301567D01*
X2836175Y2163041D02*
X2683824D01*
Y2239216D01*
X2709216Y2264608D01*
X2760000D01*
X2785392Y2239216D01*
Y2163041D01*
Y2213824D02*
X2836175Y2264608D01*
X2683824Y2315392D02*
Y2416959D01*
X2709216D01*
X2810783Y2315392D01*
X2836175D01*
X2546175Y2153041D02*
X2393825D01*
Y2229216D01*
X2419216Y2254608D01*
X2470000D01*
X2495392Y2229216D01*
Y2153041D01*
Y2203824D02*
X2546175Y2254608D01*
X2393825Y2406959D02*
X2419216Y2356175D01*
X2470000Y2305392D01*
X2520783D01*
X2546175Y2330784D01*
Y2381567D01*
X2520783Y2406959D01*
X2495392D01*
X2470000Y2381567D01*
Y2305392D01*
X1413041Y1943825D02*
Y2096175D01*
X1489216D01*
X1514608Y2070784D01*
Y2020000D01*
X1489216Y1994608D01*
X1413041D01*
X1463825D02*
X1514608Y1943825D01*
X1666959Y2096175D02*
X1565392D01*
Y2020000D01*
X1616175Y2045392D01*
X1641567D01*
X1666959Y2020000D01*
Y1969217D01*
X1641567Y1943825D01*
X1590784D01*
X1565392Y1969217D01*
X833825Y1346959D02*
X986176D01*
Y1270783D01*
X960784Y1245391D01*
X910000D01*
X884608Y1270783D01*
Y1346959D01*
Y1296175D02*
X833825Y1245391D01*
Y1118433D02*
X986176D01*
X910000Y1194608D01*
Y1093041D01*
X1353041Y1333825D02*
Y1486175D01*
X1429217D01*
X1454608Y1460783D01*
Y1410000D01*
X1429217Y1384608D01*
X1353041D01*
X1403825D02*
X1454608Y1333825D01*
X1505392Y1460783D02*
X1530784Y1486175D01*
X1581567D01*
X1606959Y1460783D01*
Y1435392D01*
X1581567Y1410000D01*
X1556175D01*
X1581567D01*
X1606959Y1384608D01*
Y1359216D01*
X1581567Y1333825D01*
X1530784D01*
X1505392Y1359216D01*
X1729217Y1424609D02*
X1703825Y1399217D01*
Y1348433D01*
X1729217Y1323041D01*
X1830783D01*
X1856175Y1348433D01*
Y1399217D01*
X1830783Y1424609D01*
X1856175Y1576959D02*
Y1475392D01*
X1754608Y1576959D01*
X1729217D01*
X1703825Y1551567D01*
Y1500784D01*
X1729217Y1475392D01*
X1836175Y2163041D02*
X1683825D01*
Y2239217D01*
X1709217Y2264608D01*
X1760000D01*
X1785392Y2239217D01*
Y2163041D01*
Y2213825D02*
X1836175Y2264608D01*
Y2416959D02*
Y2315392D01*
X1734608Y2416959D01*
X1709217D01*
X1683825Y2391567D01*
Y2340784D01*
X1709217Y2315392D01*
X2044954Y1596175D02*
X2095737D01*
X2070346D01*
Y1443825D01*
X2044954D01*
X2095737D01*
X2273480Y1570783D02*
X2248088Y1596175D01*
X2197304D01*
X2171913Y1570783D01*
Y1469217D01*
X2197304Y1443825D01*
X2248088D01*
X2273480Y1469217D01*
X2324263Y1443825D02*
X2375047D01*
X2349655D01*
Y1596175D01*
X2324263Y1570783D01*
X2090000Y2410784D02*
X2064609Y2436175D01*
X2013825D01*
X1988433Y2410784D01*
Y2309217D01*
X2013825Y2283825D01*
X2064609D01*
X2090000Y2309217D01*
X2140784Y2283825D02*
X2191567D01*
X2166176D01*
Y2436175D01*
X2140784Y2410784D01*
X103041Y923825D02*
Y1076176D01*
X179217D01*
X204608Y1050784D01*
Y1000000D01*
X179217Y974608D01*
X103041D01*
X356959Y923825D02*
X255392D01*
X356959Y1025392D01*
Y1050784D01*
X331567Y1076176D01*
X280784D01*
X255392Y1050784D01*
X103041Y2402825D02*
Y2555175D01*
X179217D01*
X204608Y2529784D01*
Y2479000D01*
X179217Y2453608D01*
X103041D01*
X255392Y2529784D02*
X280784Y2555175D01*
X331567D01*
X356959Y2529784D01*
Y2504392D01*
X331567Y2479000D01*
X306175D01*
X331567D01*
X356959Y2453608D01*
Y2428217D01*
X331567Y2402825D01*
X280784D01*
X255392Y2428217D01*
X2604720Y3232100D02*
Y3384451D01*
X2680895D01*
X2706287Y3359059D01*
Y3308275D01*
X2680895Y3282883D01*
X2604720D01*
X2655503D02*
X2706287Y3232100D01*
X2757071D02*
X2807854D01*
X2782463D01*
Y3384451D01*
X2757071Y3359059D01*
X2355800Y3394611D02*
Y3242260D01*
X2431975D01*
X2457367Y3267652D01*
Y3369219D01*
X2431975Y3394611D01*
X2355800D01*
X2508151Y3242260D02*
X2558934D01*
X2533543D01*
Y3394611D01*
X2508151Y3369219D01*
X1004520Y2127151D02*
Y2000192D01*
X1029912Y1974800D01*
X1080695D01*
X1106087Y2000192D01*
Y2127151D01*
X1156871Y1974800D02*
X1207654D01*
X1182263D01*
Y2127151D01*
X1156871Y2101759D01*
D25*
X1010000Y1850200D02*
G03*
X1010000Y1850200I-10000J0D01*
G01*
X2080000Y1680000D02*
X2300000D01*
X2080000Y1980000D02*
X2300000D01*
X103000Y1173000D02*
X357000D01*
X103000D02*
Y1681000D01*
X357000D01*
Y1173000D02*
Y1681000D01*
X103000Y2281000D02*
X357000D01*
Y1773000D02*
Y2281000D01*
X103000Y1773000D02*
X357000D01*
X103000D02*
Y2281000D01*
X2904000Y72000D02*
X3412000D01*
X2904000Y3374000D02*
X3412000D01*
Y72000D02*
Y3374000D01*
X2904000Y72000D02*
Y3374000D01*
D26*
X1147500Y1887000D02*
X1272500D01*
X1147500Y1653000D02*
X1272500D01*
%TF.MD5,c303552346e5c16f4b529169f48b6b54*%
M02*
