%TF.GenerationSoftware,Altium Limited,Altium Designer,21.2.2 (38)*%
G04 Layer_Physical_Order=1*
G04 Layer_Color=255*
%FSLAX45Y45*%
%MOMM*%
%TF.SameCoordinates,DC8D9031-FEEE-4EB9-A140-7D2FD38E5C7C*%
%TF.FilePolarity,Positive*%
%TF.FileFunction,Copper,L1,Top,Signal*%
%TF.Part,Single*%
G01*
G75*
%TA.AperFunction,SMDPad,CuDef*%
%ADD10R,1.40000X1.10000*%
%ADD11R,0.60000X0.50000*%
%ADD12R,0.50000X0.60000*%
%ADD13R,1.45000X0.30000*%
%ADD14R,0.80000X0.90000*%
G04:AMPARAMS|DCode=15|XSize=1.19mm|YSize=0.4mm|CornerRadius=0.05mm|HoleSize=0mm|Usage=FLASHONLY|Rotation=0.000|XOffset=0mm|YOffset=0mm|HoleType=Round|Shape=RoundedRectangle|*
%AMROUNDEDRECTD15*
21,1,1.19000,0.30000,0,0,0.0*
21,1,1.09000,0.40000,0,0,0.0*
1,1,0.10000,0.54500,-0.15000*
1,1,0.10000,-0.54500,-0.15000*
1,1,0.10000,-0.54500,0.15000*
1,1,0.10000,0.54500,0.15000*
%
%ADD15ROUNDEDRECTD15*%
%TA.AperFunction,Conductor*%
%ADD16C,0.40000*%
%ADD17C,0.30000*%
%ADD18C,0.20000*%
%ADD19C,0.70000*%
%TA.AperFunction,ComponentPad*%
%ADD20R,1.50000X1.50000*%
%ADD21C,1.50000*%
%TA.AperFunction,ViaPad*%
%ADD22C,0.85000*%
%ADD23C,0.65000*%
G36*
X950000Y1500000D02*
X1150000D01*
Y1300000D01*
X625000D01*
Y1500000D01*
X825000D01*
Y1600000D01*
X950000D01*
Y1500000D01*
D02*
G37*
G36*
X3474512Y2875000D02*
X1200000D01*
X950000Y2625000D01*
Y1950000D01*
X825000D01*
Y3474512D01*
X3474512D01*
Y2875000D01*
D02*
G37*
%LPC*%
G36*
X3121000Y3337000D02*
X2941000D01*
Y3157000D01*
X3121000D01*
Y3337000D01*
D02*
G37*
G36*
X2580000Y3165000D02*
X2470000D01*
Y3045000D01*
X2580000D01*
Y3053482D01*
X2590000Y3060000D01*
X2670000D01*
Y3150000D01*
X2590000D01*
X2580000Y3156518D01*
Y3165000D01*
D02*
G37*
G36*
X2241437Y3167500D02*
X2218563D01*
X2197429Y3158746D01*
X2181254Y3142571D01*
X2172500Y3121437D01*
Y3098563D01*
X2181254Y3077429D01*
X2197429Y3061254D01*
X2218563Y3052500D01*
X2241437D01*
X2262571Y3061254D01*
X2275730Y3074412D01*
X2330000D01*
Y3045000D01*
X2440000D01*
Y3165000D01*
X2330000D01*
Y3135588D01*
X2281639D01*
X2278746Y3142571D01*
X2262571Y3158746D01*
X2241437Y3167500D01*
D02*
G37*
G36*
X3042849Y3083000D02*
X3019151D01*
X2996261Y3076867D01*
X2975739Y3065018D01*
X2958982Y3048261D01*
X2947134Y3027739D01*
X2941000Y3004849D01*
Y2981152D01*
X2947134Y2958262D01*
X2958982Y2937739D01*
X2975739Y2920982D01*
X2996261Y2909134D01*
X3019151Y2903000D01*
X3042849D01*
X3065739Y2909134D01*
X3086261Y2920982D01*
X3103018Y2937739D01*
X3114867Y2958262D01*
X3121000Y2981152D01*
Y3004849D01*
X3114867Y3027739D01*
X3103018Y3048261D01*
X3086261Y3065018D01*
X3065739Y3076867D01*
X3042849Y3083000D01*
D02*
G37*
%LPD*%
D10*
X880000Y1985000D02*
D03*
Y1835000D02*
D03*
X880000Y1555000D02*
D03*
Y1705000D02*
D03*
D11*
X2760000Y1990000D02*
D03*
Y1890000D02*
D03*
X2660000Y2040000D02*
D03*
Y1940000D02*
D03*
X1780000Y1690000D02*
D03*
Y1790000D02*
D03*
Y1990000D02*
D03*
Y1890000D02*
D03*
D12*
X1510000Y1790000D02*
D03*
X1610000D02*
D03*
X1510000Y1690000D02*
D03*
X1610000D02*
D03*
X1990000Y2060000D02*
D03*
X2090000D02*
D03*
X2730000Y3105000D02*
D03*
X2630000D02*
D03*
D13*
X2410000Y1730000D02*
D03*
Y1780000D02*
D03*
Y1830000D02*
D03*
Y1880000D02*
D03*
Y1930000D02*
D03*
X1970000D02*
D03*
Y1880000D02*
D03*
Y1830000D02*
D03*
Y1780000D02*
D03*
Y1730000D02*
D03*
D14*
X2525000Y3105000D02*
D03*
X2385000D02*
D03*
D15*
X1114000Y1835000D02*
D03*
Y1770000D02*
D03*
Y1705000D02*
D03*
X1306000D02*
D03*
Y1770000D02*
D03*
Y1835000D02*
D03*
D16*
X3285000Y2231000D02*
X3440000Y2386000D01*
Y2584000D01*
X3285000Y2739000D02*
X3440000Y2584000D01*
X3031000Y2739000D02*
X3285000D01*
X2660000Y2231000D02*
X2760000D01*
X2091000D02*
X2660000D01*
X2760000D02*
X3031000D01*
X3285000D01*
X1990000Y2130000D02*
X2091000Y2231000D01*
X1990000Y2060000D02*
Y2130000D01*
D17*
X2235000Y3105000D02*
X2385000D01*
X2230000Y3110000D02*
X2235000Y3105000D01*
X2525000Y3105000D02*
X2630000D01*
X2525000Y3105000D02*
X2525000Y3105000D01*
X880000Y1835000D02*
X880001Y1835000D01*
X1114000D01*
X880000Y1705000D02*
X1114000D01*
X880000Y1705000D02*
X880000Y1705000D01*
D18*
X3160000Y2610000D02*
X3285000Y2485000D01*
X1800000Y2610000D02*
X3160000D01*
X1310000Y2120000D02*
X1800000Y2610000D01*
X1157500Y1987500D02*
X1372500D01*
X1510000Y1850000D01*
X1155000Y1985000D02*
X1157500Y1987500D01*
X1760000Y2005000D02*
X1775000Y1990000D01*
X925000Y2030000D02*
X1740000D01*
X1775000Y1990000D02*
X1780000D01*
X1760000Y2005000D02*
Y2010000D01*
X1740000Y2030000D02*
X1760000Y2010000D01*
X880000Y1985000D02*
X925000Y2030000D01*
X880000Y1985000D02*
X1155000D01*
X1306000Y1835000D02*
Y1916000D01*
X1310000Y1920000D01*
X1510000Y1785000D02*
Y1790000D01*
Y1850000D01*
X3285000Y2231000D02*
X3410000Y2106000D01*
X3411716Y1121716D02*
Y1138284D01*
X3410000Y1140000D02*
X3411716Y1138284D01*
X3370000Y1080000D02*
X3411716Y1121716D01*
X3410000Y1140000D02*
Y2106000D01*
X3150000Y1080000D02*
X3370000D01*
X3031000Y961000D02*
X3150000Y1080000D01*
X2660000Y2040000D02*
Y2231000D01*
X2760000Y1990000D02*
Y2231000D01*
X2650000Y1930000D02*
X2660000Y1940000D01*
X2410000Y1930000D02*
X2650000D01*
X2410000Y1880000D02*
X2750000D01*
X2760000Y1890000D01*
X2765000D01*
X2958822Y1940000D02*
X2995822Y1977000D01*
X2660000Y1940000D02*
X2958822D01*
X2995822Y1977000D02*
X3031000D01*
X2780000Y1870000D02*
X2927000Y1723000D01*
X2765000Y1890000D02*
X2780000Y1875000D01*
X2927000Y1723000D02*
X3031000D01*
X2780000Y1870000D02*
Y1875000D01*
X2410000Y1730000D02*
X2560000D01*
X2560000Y1730000D01*
X2410000Y1730000D02*
Y1780000D01*
X1970000Y1880000D02*
X2078284D01*
X2090000Y1891716D02*
Y2060000D01*
X2078284Y1880000D02*
X2090000Y1891716D01*
Y2060000D02*
X2230000D01*
X1970000Y2035000D02*
X1990000Y2055000D01*
Y2060000D01*
X1970000Y1930000D02*
Y2035000D01*
X1780000Y1890000D02*
X1785000D01*
X1840000Y1830000D02*
X1970000D01*
X1800000Y1870000D02*
X1840000Y1830000D01*
X1800000Y1870000D02*
Y1875000D01*
X1785000Y1890000D02*
X1800000Y1875000D01*
X1610000Y1790000D02*
X1780000D01*
X1790000Y1780000D02*
X1970000D01*
X1780000Y1790000D02*
X1790000Y1780000D01*
X1800000Y1705000D02*
Y1710000D01*
X1785000Y1690000D02*
X1800000Y1705000D01*
X1780000Y1690000D02*
X1785000D01*
X1820000Y1730000D02*
X1970000D01*
X1800000Y1710000D02*
X1820000Y1730000D01*
X1780000Y1690000D02*
X1780000Y1690000D01*
X1610000Y1690000D02*
X1780000D01*
X1306000Y1705000D02*
X1495000D01*
X1510000Y1690000D01*
X1495000Y1770000D02*
X1510000Y1785000D01*
X1306000Y1770000D02*
X1495000D01*
X1210000Y1560000D02*
Y1750000D01*
X1191499Y1768501D02*
X1210000Y1750000D01*
X1115499Y1768501D02*
X1191499D01*
X1114000Y1770000D02*
X1115499Y1768501D01*
D19*
X730000Y1705000D02*
X880000D01*
X334779Y1309779D02*
X730000Y1705000D01*
X239779Y1309779D02*
X334779D01*
X230000Y1300000D02*
X239779Y1309779D01*
X371000Y2154000D02*
X690000Y1835000D01*
X880000D01*
X230000Y2154000D02*
X371000D01*
D20*
X230000Y1554000D02*
D03*
Y1900000D02*
D03*
X3031000Y3247000D02*
D03*
D21*
X230000Y1300000D02*
D03*
Y2154000D02*
D03*
X3285000Y3247000D02*
D03*
X3031000Y2993000D02*
D03*
X3285000D02*
D03*
X3031000Y2739000D02*
D03*
X3285000D02*
D03*
X3031000Y2485000D02*
D03*
X3285000D02*
D03*
X3031000Y2231000D02*
D03*
X3285000D02*
D03*
X3031000Y1977000D02*
D03*
X3285000D02*
D03*
X3031000Y1723000D02*
D03*
X3285000D02*
D03*
X3031000Y1469000D02*
D03*
X3285000D02*
D03*
X3031000Y1215000D02*
D03*
X3285000D02*
D03*
X3031000Y961000D02*
D03*
X3285000D02*
D03*
X3031000Y707000D02*
D03*
X3285000D02*
D03*
X3031000Y453000D02*
D03*
X3285000D02*
D03*
X3031000Y199000D02*
D03*
X3285000D02*
D03*
D22*
X2230000Y3110000D02*
D03*
X1310000Y2120000D02*
D03*
Y1920000D02*
D03*
X2560000Y1730000D02*
D03*
X2230000Y2060000D02*
D03*
X1210000Y1560000D02*
D03*
D23*
X880000Y2190000D02*
D03*
Y2280000D02*
D03*
Y2370000D02*
D03*
Y2460000D02*
D03*
Y2550000D02*
D03*
X675000Y1400000D02*
D03*
X775000D02*
D03*
X875000D02*
D03*
X975000D02*
D03*
X1075000D02*
D03*
%TF.MD5,7cffbcbddf80040dace7345f95a7a1fb*%
M02*
