%TF.GenerationSoftware,Altium Limited,Altium Designer,21.2.2 (38)*%
G04 Layer_Color=2752767*
%FSLAX45Y45*%
%MOMM*%
%TF.SameCoordinates,DC8D9031-FEEE-4EB9-A140-7D2FD38E5C7C*%
%TF.FilePolarity,Positive*%
%TF.FileFunction,Drawing*%
%TF.Part,Single*%
G01*
G75*
%TA.AperFunction,NonConductor*%
%ADD26C,0.12700*%
%ADD37C,0.16933*%
D26*
X179200Y1503200D02*
Y1604800D01*
X280800D01*
Y1503200D01*
X179200D01*
Y1249200D02*
Y1350800D01*
X280800D01*
Y1249200D01*
X179200D01*
Y1849200D02*
Y1950800D01*
X280800D01*
Y1849200D01*
X179200D01*
Y2103200D02*
Y2204800D01*
X280800D01*
Y2103200D01*
X179200D01*
X2980200Y3196200D02*
Y3297800D01*
X3081800D01*
Y3196200D01*
X2980200D01*
X3234200D02*
Y3297800D01*
X3335800D01*
Y3196200D01*
X3234200D01*
X2980200Y2942200D02*
Y3043800D01*
X3081800D01*
Y2942200D01*
X2980200D01*
X3234200D02*
Y3043800D01*
X3335800D01*
Y2942200D01*
X3234200D01*
X2980200Y2688200D02*
Y2789800D01*
X3081800D01*
Y2688200D01*
X2980200D01*
X3234200D02*
Y2789800D01*
X3335800D01*
Y2688200D01*
X3234200D01*
X2980200Y2434200D02*
Y2535800D01*
X3081800D01*
Y2434200D01*
X2980200D01*
X3234200D02*
Y2535800D01*
X3335800D01*
Y2434200D01*
X3234200D01*
X2980200Y2180200D02*
Y2281800D01*
X3081800D01*
Y2180200D01*
X2980200D01*
X3234200D02*
Y2281800D01*
X3335800D01*
Y2180200D01*
X3234200D01*
X2980200Y1926200D02*
Y2027800D01*
X3081800D01*
Y1926200D01*
X2980200D01*
X3234200D02*
Y2027800D01*
X3335800D01*
Y1926200D01*
X3234200D01*
X2980200Y1672200D02*
Y1773800D01*
X3081800D01*
Y1672200D01*
X2980200D01*
X3234200D02*
Y1773800D01*
X3335800D01*
Y1672200D01*
X3234200D01*
X2980200Y1418200D02*
Y1519800D01*
X3081800D01*
Y1418200D01*
X2980200D01*
X3234200D02*
Y1519800D01*
X3335800D01*
Y1418200D01*
X3234200D01*
X2980200Y1164200D02*
Y1265800D01*
X3081800D01*
Y1164200D01*
X2980200D01*
X3234200D02*
Y1265800D01*
X3335800D01*
Y1164200D01*
X3234200D01*
X2980200Y910200D02*
Y1011800D01*
X3081800D01*
Y910200D01*
X2980200D01*
X3234200D02*
Y1011800D01*
X3335800D01*
Y910200D01*
X3234200D01*
X2980200Y656200D02*
Y757800D01*
X3081800D01*
Y656200D01*
X2980200D01*
X3234200D02*
Y757800D01*
X3335800D01*
Y656200D01*
X3234200D01*
X2980200Y402200D02*
Y503800D01*
X3081800D01*
Y402200D01*
X2980200D01*
X3234200D02*
Y503800D01*
X3335800D01*
Y402200D01*
X3234200D01*
X2980200Y148200D02*
Y249800D01*
X3081800D01*
Y148200D01*
X2980200D01*
X3234200D02*
Y249800D01*
X3335800D01*
Y148200D01*
X3234200D01*
X880000Y2139200D02*
X829200Y2240800D01*
X930800D01*
X880000Y2139200D01*
Y2229200D02*
X829200Y2330800D01*
X930800D01*
X880000Y2229200D01*
Y2319200D02*
X829200Y2420800D01*
X930800D01*
X880000Y2319200D01*
Y2409200D02*
X829200Y2510800D01*
X930800D01*
X880000Y2409200D01*
Y2499200D02*
X829200Y2600800D01*
X930800D01*
X880000Y2499200D01*
X675000Y1349200D02*
X624200Y1450800D01*
X725800D01*
X675000Y1349200D01*
X775000D02*
X724200Y1450800D01*
X825800D01*
X775000Y1349200D01*
X875000D02*
X824200Y1450800D01*
X925800D01*
X875000Y1349200D01*
X975000D02*
X924200Y1450800D01*
X1025800D01*
X975000Y1349200D01*
X1075000D02*
X1024200Y1450800D01*
X1125800D01*
X1075000Y1349200D01*
D37*
X2280800Y3110000D02*
G03*
X2280800Y3110000I-50800J0D01*
G01*
X1360800Y2120000D02*
G03*
X1360800Y2120000I-50800J0D01*
G01*
Y1920000D02*
G03*
X1360800Y1920000I-50800J0D01*
G01*
X2610800Y1730000D02*
G03*
X2610800Y1730000I-50800J0D01*
G01*
X2280800Y2060000D02*
G03*
X2280800Y2060000I-50800J0D01*
G01*
X1260800Y1560000D02*
G03*
X1260800Y1560000I-50800J0D01*
G01*
%TF.MD5,1ee91f9abd01211f8befccdf85d56530*%
M02*
