G04*
G04 #@! TF.GenerationSoftware,Altium Limited,Altium Designer,20.2.6 (244)*
G04*
G04 Layer_Color=8421504*
%FSLAX44Y44*%
%MOMM*%
G71*
G04*
G04 #@! TF.SameCoordinates,080974CB-42C0-40AB-A5A7-DB2945E70A23*
G04*
G04*
G04 #@! TF.FilePolarity,Positive*
G04*
G01*
G75*
%ADD10C,4.0000*%
G36*
X852861Y165938D02*
Y143937D01*
X839361Y143938D01*
X839361Y146437D01*
X839862Y146938D01*
X842111Y146937D01*
X849361Y154187D01*
Y160562D01*
X843986Y165937D01*
Y165938D01*
X834611Y165937D01*
X830861Y169688D01*
X830862Y171936D01*
X839362Y180439D01*
X839361Y192938D01*
X843111D01*
X843111Y192938D01*
X852861D01*
X852861Y165938D01*
D02*
G37*
G36*
X835362Y183439D02*
X826111Y174186D01*
X826110Y167188D01*
X832610Y160688D01*
X843111Y160687D01*
X844861Y158938D01*
X844861Y156186D01*
X840362Y151688D01*
X836611Y151688D01*
X835361Y150437D01*
X835361Y143938D01*
X821901Y143937D01*
X821861Y151687D01*
X821861Y151687D01*
X821861D01*
X821861Y192937D01*
X835362Y192938D01*
X835362Y183439D01*
D02*
G37*
G36*
X907975Y165938D02*
Y143938D01*
X894475Y143939D01*
X894475Y146438D01*
X894976Y146938D01*
X897225Y146938D01*
X904475Y154188D01*
Y160563D01*
X899101Y165938D01*
Y165938D01*
X889726Y165937D01*
X885975Y169688D01*
X885976Y171936D01*
X894476Y180439D01*
X894476Y192938D01*
X898226D01*
X898226Y192938D01*
X907975D01*
X907975Y165938D01*
D02*
G37*
G36*
X890476Y183439D02*
X881226Y174186D01*
X881225Y167188D01*
X887724Y160689D01*
X898226Y160687D01*
X899975Y158938D01*
X899975Y156187D01*
X895476Y151688D01*
X891725Y151688D01*
X890475Y150438D01*
X890475Y143938D01*
X877015Y143938D01*
X876975Y151688D01*
X876976Y151688D01*
X876975D01*
X876975Y192938D01*
X890476Y192938D01*
X890476Y183439D01*
D02*
G37*
D10*
X313309Y125000D02*
D03*
X153309D02*
D03*
X1415609D02*
D03*
X1575609D02*
D03*
M02*
