%TF.GenerationSoftware,Altium Limited,Altium Designer,20.1.14 (287)*%
G04 Layer_Color=16711935*
%FSLAX45Y45*%
%MOMM*%
%TF.SameCoordinates,D919A4BC-3EF6-4BA5-801F-EB9C9E4D33F9*%
%TF.FilePolarity,Negative*%
%TF.FileFunction,Soldermask,Bot*%
%TF.Part,Single*%
G01*
G75*
%TA.AperFunction,NonConductor*%
%ADD63C,0.10000*%
%TA.AperFunction,ComponentPad*%
%ADD93C,3.70320*%
%ADD94R,1.30320X1.30320*%
%ADD95C,1.30320*%
%ADD96C,1.90320*%
%ADD97R,1.90320X1.90320*%
%ADD98R,1.30320X1.30320*%
%TA.AperFunction,SMDPad,CuDef*%
%ADD101R,3.40320X4.40320*%
%ADD102R,1.70320X3.60320*%
%ADD103R,1.20320X3.70320*%
G36*
X429169Y3296157D02*
X447368Y3288619D01*
X463746Y3277675D01*
X477675Y3263746D01*
X488619Y3247368D01*
X496157Y3229169D01*
X500000Y3209849D01*
Y3200000D01*
Y3190151D01*
X496157Y3170831D01*
X488619Y3152632D01*
X477675Y3136254D01*
X463746Y3122325D01*
X447368Y3111381D01*
X429169Y3103843D01*
X409849Y3100000D01*
X390151D01*
X370831Y3103843D01*
X352632Y3111381D01*
X336254Y3122325D01*
X322325Y3136254D01*
X311381Y3152632D01*
X303843Y3170831D01*
X300000Y3190151D01*
Y3200000D01*
Y3209849D01*
X303843Y3229169D01*
X311381Y3247368D01*
X322325Y3263746D01*
X336254Y3277675D01*
X352632Y3288619D01*
X370831Y3296157D01*
X390151Y3300000D01*
X409849D01*
X429169Y3296157D01*
D02*
G37*
G36*
X229169Y296157D02*
X247368Y288619D01*
X263746Y277675D01*
X277675Y263746D01*
X288619Y247368D01*
X296157Y229169D01*
X300000Y209849D01*
Y200000D01*
Y190151D01*
X296157Y170831D01*
X288619Y152632D01*
X277675Y136254D01*
X263746Y122325D01*
X247368Y111381D01*
X229169Y103843D01*
X209849Y100000D01*
X190151D01*
X170831Y103843D01*
X152632Y111381D01*
X136254Y122325D01*
X122325Y136254D01*
X111381Y152632D01*
X103843Y170831D01*
X100000Y190151D01*
Y200000D01*
Y209849D01*
X103843Y229169D01*
X111381Y247368D01*
X122325Y263746D01*
X136254Y277675D01*
X152632Y288619D01*
X170831Y296157D01*
X190151Y300000D01*
X209849D01*
X229169Y296157D01*
D02*
G37*
G36*
X3629169Y296157D02*
X3647368Y288619D01*
X3663746Y277675D01*
X3677675Y263746D01*
X3688619Y247368D01*
X3696157Y229169D01*
X3700000Y209849D01*
Y200000D01*
Y190150D01*
X3696157Y170831D01*
X3688619Y152632D01*
X3677675Y136253D01*
X3663746Y122325D01*
X3647368Y111381D01*
X3629169Y103843D01*
X3609849Y100000D01*
X3590151D01*
X3570831Y103843D01*
X3552632Y111381D01*
X3536254Y122325D01*
X3522325Y136253D01*
X3511381Y152632D01*
X3503843Y170831D01*
X3500000Y190150D01*
Y200000D01*
Y209849D01*
X3503843Y229169D01*
X3511381Y247368D01*
X3522325Y263746D01*
X3536254Y277675D01*
X3552632Y288619D01*
X3570831Y296157D01*
X3590151Y300000D01*
X3609849D01*
X3629169Y296157D01*
D02*
G37*
D63*
X500000Y3200000D02*
G03*
X500000Y3200000I-100000J0D01*
G01*
X3700000Y200000D02*
G03*
X3700000Y200000I-100000J0D01*
G01*
X300000Y200000D02*
G03*
X300000Y200000I-100000J0D01*
G01*
D93*
X3750000Y2200000D02*
D03*
X250000Y700000D02*
D03*
D94*
X150000Y2476701D02*
D03*
X3850000Y1447825D02*
D03*
Y396000D02*
D03*
D95*
X150000Y2603701D02*
D03*
Y2730701D02*
D03*
Y2857701D02*
D03*
Y2984701D02*
D03*
Y3111701D02*
D03*
X3850000Y1574825D02*
D03*
Y1701825D02*
D03*
Y1828825D02*
D03*
Y523000D02*
D03*
Y650000D02*
D03*
Y777000D02*
D03*
Y904000D02*
D03*
Y1031000D02*
D03*
X1327000Y1526274D02*
D03*
X1200000D02*
D03*
D96*
X3312371Y3239427D02*
D03*
X3058371D02*
D03*
X2804371D02*
D03*
D97*
X3566371D02*
D03*
D98*
X1073000Y1526274D02*
D03*
D101*
X533871Y1700000D02*
D03*
X3463871D02*
D03*
D102*
X2342500Y221275D02*
D03*
X1672500D02*
D03*
D103*
X1904300Y796275D02*
D03*
X2107500D02*
D03*
%TF.MD5,92e44945de3ec9b58554a517c387c798*%
M02*
