%TF.GenerationSoftware,Altium Limited,Altium Designer,20.1.14 (287)*%
G04 Layer_Physical_Order=3*
G04 Layer_Color=128*
%FSLAX45Y45*%
%MOMM*%
%TF.SameCoordinates,D919A4BC-3EF6-4BA5-801F-EB9C9E4D33F9*%
%TF.FilePolarity,Negative*%
%TF.FileFunction,Copper,L3,Inr,Plane*%
%TF.Part,Single*%
G01*
G75*
%TA.AperFunction,ComponentPad*%
%ADD47C,1.10000*%
%TA.AperFunction,NonConductor*%
%ADD52C,1.01600*%
%TA.AperFunction,ComponentPad*%
%ADD53C,1.40000*%
%TA.AperFunction,ViaPad*%
%ADD54C,0.70000*%
%TA.AperFunction,NonConductor*%
%ADD55C,0.20000*%
%TA.AperFunction,ComponentPad*%
%ADD56C,2.70000*%
D47*
X150000Y2603701D02*
D03*
Y2730701D02*
D03*
Y2857701D02*
D03*
Y2984701D02*
D03*
Y3111701D02*
D03*
X3850000Y1447825D02*
D03*
Y1574825D02*
D03*
Y1701825D02*
D03*
Y1828825D02*
D03*
Y396000D02*
D03*
Y523000D02*
D03*
Y777000D02*
D03*
Y904000D02*
D03*
Y1031000D02*
D03*
X1327000Y1526274D02*
D03*
X1200000D02*
D03*
X1073000D02*
D03*
D52*
X3900000Y0D02*
G03*
X4000000Y100000I0J100000D01*
G01*
X4000000Y3300000D02*
G03*
X3900000Y3400000I-100000J0D01*
G01*
X100000D02*
G03*
X0Y3300000I0J-100000D01*
G01*
Y100000D02*
G03*
X100000Y0I100000J0D01*
G01*
X3900000D02*
X3900000D01*
X3999999Y100000D02*
X4000000D01*
X3999999D02*
X4000000Y3300000D01*
Y3300000D02*
Y3300000D01*
X100000Y3400000D02*
X3900000Y3400000D01*
X100000D02*
Y3400000D01*
X-1Y3300000D02*
X0Y3300000D01*
X-1Y3300000D02*
X0Y100000D01*
X100000Y0D02*
X3900000D01*
D53*
X3312371Y3239427D02*
D03*
X3058371D02*
D03*
X2804371D02*
D03*
X3566371D02*
D03*
D54*
X3193871Y2153065D02*
D03*
X2480000Y180000D02*
D03*
X3690000Y1610000D02*
D03*
X592500Y2157500D02*
D03*
X2277138Y1694504D02*
D03*
X3711912Y2454585D02*
D03*
X2547592Y2660000D02*
D03*
X2836721Y2364177D02*
D03*
X2000000Y2270148D02*
D03*
X1693784Y2058572D02*
D03*
X1853444Y2127509D02*
D03*
X1694752Y1799258D02*
D03*
X1881618Y1821618D02*
D03*
X1695114Y1360607D02*
D03*
X1700000Y1270000D02*
D03*
X1705783Y483915D02*
D03*
X1620000Y2130865D02*
D03*
X1740000Y2160000D02*
D03*
X1380000Y2113799D02*
D03*
X1161895Y3025000D02*
D03*
X2639273Y2223700D02*
D03*
X2756474Y1926334D02*
D03*
X2429995Y1889996D02*
D03*
X2175624Y1775625D02*
D03*
X2250000Y1820000D02*
D03*
X2292456Y1600456D02*
D03*
X2980000Y1482000D02*
D03*
X2319995Y1299997D02*
D03*
X2379995Y1149998D02*
D03*
X2675000Y825000D02*
D03*
X1975000Y1825000D02*
D03*
X2750000Y725000D02*
D03*
X1300000Y1750000D02*
D03*
X1815000Y1654876D02*
D03*
X2300000Y1500000D02*
D03*
X1880000Y1240000D02*
D03*
X1957406Y1728365D02*
D03*
X2255000Y1240000D02*
D03*
X1380000Y1650000D02*
D03*
X2070000Y1240000D02*
D03*
X1804794Y523379D02*
D03*
X319999Y1609997D02*
D03*
X2200000Y511972D02*
D03*
X775000Y3299216D02*
D03*
X640000Y3006552D02*
D03*
X570000Y3065000D02*
D03*
X907500Y3225000D02*
D03*
X1432500Y1050000D02*
D03*
X2203185Y3072627D02*
D03*
X2088185D02*
D03*
X2240000Y2585126D02*
D03*
X2972370Y2743326D02*
D03*
X3423871Y2475126D02*
D03*
X2930000Y1830000D02*
D03*
X3240000Y1800000D02*
D03*
X2000000Y836197D02*
D03*
X1820000Y160000D02*
D03*
X2630000Y910000D02*
D03*
X3080000Y1100000D02*
D03*
X3380000Y190000D02*
D03*
X340000Y440000D02*
D03*
X1000000Y566200D02*
D03*
X1340000Y2910000D02*
D03*
X1730000Y2810000D02*
D03*
X2000000Y2665333D02*
D03*
X1475000Y2955126D02*
D03*
X1650000Y2725000D02*
D03*
X790000Y1570000D02*
D03*
X340000Y2350000D02*
D03*
X3700000Y2640000D02*
D03*
X3193871Y2435454D02*
D03*
X3690000Y2970000D02*
D03*
X2200000Y180000D02*
D03*
X1900000D02*
D03*
X2446056Y552348D02*
D03*
X2732864Y2224118D02*
D03*
X2650000Y2825000D02*
D03*
X2725000Y2975000D02*
D03*
X2639273Y1948700D02*
D03*
X2425000Y2725000D02*
D03*
X1725000Y2655000D02*
D03*
X240000Y2150000D02*
D03*
X440000D02*
D03*
X1425000Y150000D02*
D03*
X1300000Y875000D02*
D03*
X875000Y775000D02*
D03*
X1100000Y950000D02*
D03*
X650000Y875000D02*
D03*
X875000Y950000D02*
D03*
D55*
X1777591Y2113799D02*
Y2736201D01*
X2016391Y2975000D01*
X2405127D01*
X2460000Y2920126D01*
Y2150000D02*
Y2920126D01*
X2047432Y1737432D02*
X2460000Y2150000D01*
X2047432Y1471274D02*
Y1737432D01*
X20000Y2260000D02*
Y2548701D01*
X2580460Y1883825D02*
X4010000D01*
X2167909Y1471274D02*
X2580460Y1883825D01*
X1926955Y1471274D02*
X2167909D01*
X1880000Y1518229D02*
X1926955Y1471274D01*
X1880000Y1518229D02*
Y2011391D01*
X1342690Y2548701D02*
X1880000Y2011391D01*
X20000Y2548701D02*
X1342690D01*
X0Y1275000D02*
X25000Y1250000D01*
X2900000Y0D02*
X3175000D01*
X2900000D02*
Y395000D01*
X2666081Y628919D02*
X2900000Y395000D01*
X1318386Y628919D02*
X2666081D01*
X697305Y1250000D02*
X1318386Y628919D01*
X25000Y1250000D02*
X697305D01*
D56*
X3750000Y2200000D02*
D03*
X250000Y700000D02*
D03*
%TF.MD5,659b298f823d3f4e3ec6aed21e87e4d8*%
M02*
