%TF.GenerationSoftware,Altium Limited,Altium Designer,21.2.2 (38)*%
G04 Layer_Color=128*
%FSLAX45Y45*%
%MOMM*%
%TF.SameCoordinates,F4E1E0DB-6713-413A-AE5C-2C0DFB2A2A9F*%
%TF.FilePolarity,Positive*%
%TF.FileFunction,Drillmap*%
%TF.Part,Single*%
G01*
G75*
%TA.AperFunction,NonConductor*%
%ADD19C,0.12700*%
D19*
X2850000Y1134000D02*
X2970000D01*
X2910000Y1074000D02*
Y1194000D01*
X2850000Y880000D02*
X2970000D01*
X2910000Y820000D02*
Y940000D01*
X2850000Y626000D02*
X2970000D01*
X2910000Y566000D02*
Y686000D01*
X2850000Y372000D02*
X2970000D01*
X2910000Y312000D02*
Y432000D01*
X201000Y646000D02*
X291000D01*
X246000Y601000D02*
Y691000D01*
X201000Y900000D02*
X291000D01*
X246000Y855000D02*
Y945000D01*
X455000Y646000D02*
X545000D01*
X500000Y601000D02*
Y691000D01*
X455000Y900000D02*
X545000D01*
X500000Y855000D02*
Y945000D01*
X1801000Y646000D02*
X1891000D01*
X1846000Y601000D02*
Y691000D01*
X1801000Y900000D02*
X1891000D01*
X1846000Y855000D02*
Y945000D01*
X2055000Y646000D02*
X2145000D01*
X2100000Y601000D02*
Y691000D01*
X2055000Y900000D02*
X2145000D01*
X2100000Y855000D02*
Y945000D01*
%TF.MD5,834057cbb33fa18ce74235243ef1771d*%
M02*
