%TF.GenerationSoftware,Altium Limited,Altium Designer,21.2.2 (38)*%
G04 Layer_Color=65535*
%FSLAX45Y45*%
%MOMM*%
%TF.SameCoordinates,7653A142-3D0C-49AF-9664-9F25AB3B0509*%
%TF.FilePolarity,Positive*%
%TF.FileFunction,Legend,Top*%
%TF.Part,Single*%
G01*
G75*
%TA.AperFunction,NonConductor*%
%ADD14C,0.20000*%
G36*
X228162Y176106D02*
X228994Y176014D01*
X230011Y175921D01*
X231028Y175829D01*
X232230Y175551D01*
X234726Y174997D01*
X237500Y174164D01*
X238886Y173610D01*
X240181Y172963D01*
X241475Y172130D01*
X242770Y171298D01*
X242862Y171206D01*
X243047Y171113D01*
X243417Y170836D01*
X243879Y170374D01*
X244341Y169912D01*
X244989Y169264D01*
X245636Y168525D01*
X246375Y167785D01*
X247115Y166860D01*
X247855Y165751D01*
X248687Y164642D01*
X249426Y163440D01*
X250074Y162053D01*
X250813Y160666D01*
X251368Y159187D01*
X251923Y157522D01*
X243602Y155581D01*
Y155673D01*
X243509Y155858D01*
X243324Y156228D01*
X243139Y156690D01*
X242955Y157245D01*
X242677Y157985D01*
X241938Y159464D01*
X241013Y161128D01*
X239904Y162792D01*
X238517Y164364D01*
X237037Y165751D01*
X236852Y165936D01*
X236298Y166306D01*
X235373Y166768D01*
X234171Y167415D01*
X232599Y167970D01*
X230843Y168525D01*
X228716Y168895D01*
X226405Y168987D01*
X225665D01*
X225203Y168895D01*
X224556D01*
X223816Y168802D01*
X222059Y168525D01*
X220118Y168155D01*
X218084Y167508D01*
X215957Y166583D01*
X214016Y165381D01*
X213923D01*
X213831Y165196D01*
X213184Y164734D01*
X212352Y163994D01*
X211335Y162885D01*
X210133Y161498D01*
X209023Y159926D01*
X208006Y157985D01*
X207082Y155858D01*
Y155766D01*
X206989Y155581D01*
X206897Y155303D01*
X206804Y154841D01*
X206619Y154286D01*
X206434Y153639D01*
X206157Y152068D01*
X205787Y150218D01*
X205417Y148184D01*
X205233Y145965D01*
X205140Y143562D01*
Y143469D01*
Y143192D01*
Y142729D01*
Y142175D01*
X205233Y141528D01*
Y140695D01*
X205325Y139771D01*
X205417Y138754D01*
X205695Y136535D01*
X206157Y134131D01*
X206712Y131727D01*
X207451Y129323D01*
Y129231D01*
X207544Y129046D01*
X207729Y128769D01*
X207914Y128306D01*
X208468Y127197D01*
X209301Y125902D01*
X210318Y124423D01*
X211612Y122851D01*
X213091Y121465D01*
X214848Y120170D01*
X214940D01*
X215125Y120078D01*
X215403Y119893D01*
X215772Y119708D01*
X216235Y119523D01*
X216790Y119246D01*
X218084Y118691D01*
X219748Y118136D01*
X221597Y117674D01*
X223631Y117304D01*
X225758Y117212D01*
X226405D01*
X226960Y117304D01*
X227607D01*
X228254Y117397D01*
X229918Y117766D01*
X231860Y118229D01*
X233801Y118968D01*
X235835Y119985D01*
X236852Y120540D01*
X237777Y121280D01*
X237869Y121372D01*
X237962Y121465D01*
X238239Y121742D01*
X238609Y122019D01*
X238979Y122482D01*
X239441Y123036D01*
X239996Y123591D01*
X240458Y124331D01*
X241013Y125163D01*
X241660Y126087D01*
X242215Y127012D01*
X242770Y128121D01*
X243232Y129323D01*
X243694Y130618D01*
X244156Y132005D01*
X244526Y133484D01*
X253032Y131357D01*
Y131265D01*
X252940Y130895D01*
X252755Y130340D01*
X252478Y129601D01*
X252200Y128769D01*
X251830Y127752D01*
X251368Y126642D01*
X250813Y125440D01*
X249519Y122851D01*
X247855Y120263D01*
X246838Y118968D01*
X245821Y117674D01*
X244711Y116564D01*
X243417Y115455D01*
X243324Y115362D01*
X243139Y115178D01*
X242677Y114993D01*
X242215Y114623D01*
X241475Y114161D01*
X240736Y113698D01*
X239719Y113236D01*
X238702Y112774D01*
X237500Y112219D01*
X236205Y111757D01*
X234818Y111294D01*
X233339Y110832D01*
X231767Y110462D01*
X230103Y110277D01*
X228347Y110092D01*
X226497Y110000D01*
X225480D01*
X224741Y110092D01*
X223909D01*
X222892Y110185D01*
X221782Y110370D01*
X220488Y110555D01*
X217807Y111017D01*
X215033Y111757D01*
X212259Y112774D01*
X210965Y113421D01*
X209670Y114161D01*
X209578Y114253D01*
X209393Y114345D01*
X209023Y114623D01*
X208653Y114993D01*
X208099Y115362D01*
X207451Y115917D01*
X206712Y116564D01*
X205972Y117304D01*
X205233Y118136D01*
X204400Y118968D01*
X202736Y121095D01*
X201164Y123591D01*
X199778Y126365D01*
Y126457D01*
X199593Y126735D01*
X199500Y127197D01*
X199223Y127752D01*
X199038Y128491D01*
X198761Y129416D01*
X198391Y130433D01*
X198113Y131542D01*
X197836Y132744D01*
X197466Y134131D01*
X197004Y136997D01*
X196634Y140233D01*
X196449Y143562D01*
Y143654D01*
Y144024D01*
Y144579D01*
X196542Y145226D01*
Y146150D01*
X196634Y147075D01*
X196727Y148277D01*
X196911Y149479D01*
X197374Y152160D01*
X198021Y155119D01*
X198946Y158077D01*
X200240Y160943D01*
X200332Y161036D01*
X200425Y161313D01*
X200610Y161683D01*
X200980Y162145D01*
X201349Y162792D01*
X201812Y163532D01*
X203014Y165196D01*
X204585Y167045D01*
X206434Y168895D01*
X208561Y170744D01*
X211057Y172315D01*
X211150Y172408D01*
X211427Y172500D01*
X211797Y172685D01*
X212259Y172963D01*
X212999Y173240D01*
X213738Y173517D01*
X214663Y173887D01*
X215680Y174257D01*
X216790Y174627D01*
X217991Y174997D01*
X220580Y175551D01*
X223539Y176014D01*
X226590Y176199D01*
X227514D01*
X228162Y176106D01*
D02*
G37*
G36*
X442105Y175274D02*
X442844Y175182D01*
X443769Y175089D01*
X444786Y174904D01*
X445803Y174719D01*
X448207Y174072D01*
X450611Y173147D01*
X451813Y172593D01*
X453015Y171946D01*
X454124Y171113D01*
X455141Y170189D01*
X455234Y170096D01*
X455418Y170004D01*
X455603Y169634D01*
X455973Y169264D01*
X456435Y168802D01*
X456898Y168155D01*
X457360Y167508D01*
X457915Y166676D01*
X458839Y164919D01*
X459764Y162700D01*
X460134Y161590D01*
X460319Y160296D01*
X460504Y159002D01*
X460596Y157615D01*
Y157430D01*
Y156968D01*
X460504Y156228D01*
X460411Y155211D01*
X460226Y154102D01*
X459856Y152807D01*
X459487Y151420D01*
X458932Y150033D01*
X458839Y149849D01*
X458654Y149386D01*
X458285Y148647D01*
X457730Y147630D01*
X456990Y146520D01*
X456066Y145133D01*
X454956Y143746D01*
X453662Y142175D01*
X453477Y141990D01*
X453015Y141435D01*
X452552Y140973D01*
X452090Y140511D01*
X451535Y139956D01*
X450796Y139216D01*
X450056Y138476D01*
X449131Y137644D01*
X448207Y136720D01*
X447097Y135703D01*
X445895Y134686D01*
X444601Y133484D01*
X443122Y132282D01*
X441643Y130988D01*
X441550Y130895D01*
X441365Y130710D01*
X440995Y130433D01*
X440533Y130063D01*
X439978Y129508D01*
X439331Y128954D01*
X437852Y127752D01*
X436280Y126365D01*
X434801Y124978D01*
X433506Y123776D01*
X432952Y123314D01*
X432489Y122851D01*
X432397Y122759D01*
X432120Y122482D01*
X431750Y122112D01*
X431287Y121557D01*
X430825Y120910D01*
X430270Y120263D01*
X429161Y118691D01*
X460688D01*
Y111110D01*
X418251D01*
Y111202D01*
Y111572D01*
Y112127D01*
X418344Y112866D01*
X418436Y113698D01*
X418621Y114623D01*
X418806Y115547D01*
X419176Y116564D01*
Y116657D01*
X419268Y116749D01*
X419453Y117304D01*
X419823Y118136D01*
X420378Y119246D01*
X421117Y120540D01*
X422042Y122019D01*
X423059Y123499D01*
X424353Y125070D01*
Y125163D01*
X424538Y125255D01*
X425000Y125810D01*
X425833Y126642D01*
X427034Y127844D01*
X428421Y129231D01*
X430178Y130895D01*
X432304Y132744D01*
X434616Y134686D01*
X434708Y134778D01*
X435078Y135056D01*
X435633Y135518D01*
X436280Y136073D01*
X437112Y136812D01*
X438129Y137644D01*
X439146Y138569D01*
X440348Y139586D01*
X442660Y141805D01*
X444971Y144024D01*
X446080Y145133D01*
X447097Y146243D01*
X448022Y147260D01*
X448762Y148277D01*
Y148369D01*
X448947Y148462D01*
X449131Y148739D01*
X449316Y149109D01*
X449964Y150126D01*
X450703Y151328D01*
X451350Y152807D01*
X451998Y154379D01*
X452367Y156136D01*
X452552Y157800D01*
Y157892D01*
Y157985D01*
X452460Y158539D01*
X452367Y159464D01*
X452090Y160481D01*
X451720Y161775D01*
X451073Y163070D01*
X450241Y164364D01*
X449131Y165659D01*
X448947Y165843D01*
X448484Y166213D01*
X447837Y166676D01*
X446820Y167323D01*
X445526Y167877D01*
X444046Y168432D01*
X442290Y168802D01*
X440348Y168895D01*
X439793D01*
X439424Y168802D01*
X438314Y168710D01*
X437020Y168432D01*
X435633Y168062D01*
X434061Y167415D01*
X432582Y166583D01*
X431195Y165474D01*
X431010Y165289D01*
X430640Y164826D01*
X430085Y164087D01*
X429531Y162977D01*
X428884Y161683D01*
X428329Y160019D01*
X427959Y158170D01*
X427774Y156043D01*
X419730Y156875D01*
Y156968D01*
X419823Y157245D01*
Y157707D01*
X419915Y158355D01*
X420100Y159094D01*
X420285Y159926D01*
X420563Y160943D01*
X420840Y161960D01*
X421580Y164179D01*
X422689Y166398D01*
X423336Y167508D01*
X424168Y168617D01*
X425000Y169634D01*
X425925Y170559D01*
X426017Y170651D01*
X426202Y170744D01*
X426480Y171021D01*
X426942Y171298D01*
X427497Y171668D01*
X428144Y172038D01*
X428884Y172500D01*
X429808Y172963D01*
X430825Y173425D01*
X431935Y173887D01*
X433137Y174257D01*
X434431Y174627D01*
X435818Y174904D01*
X437297Y175182D01*
X438869Y175274D01*
X440533Y175366D01*
X441458D01*
X442105Y175274D01*
D02*
G37*
G36*
X288905Y174997D02*
X289645D01*
X291309Y174812D01*
X293158Y174627D01*
X295100Y174257D01*
X297041Y173795D01*
X298798Y173147D01*
X298890D01*
X298983Y173055D01*
X299538Y172778D01*
X300370Y172315D01*
X301294Y171668D01*
X302404Y170836D01*
X303606Y169819D01*
X304715Y168525D01*
X305732Y167138D01*
X305825Y166953D01*
X306102Y166398D01*
X306564Y165659D01*
X307027Y164549D01*
X307489Y163255D01*
X307951Y161868D01*
X308228Y160296D01*
X308321Y158724D01*
Y158539D01*
Y158077D01*
X308228Y157245D01*
X308044Y156228D01*
X307766Y155026D01*
X307304Y153732D01*
X306749Y152437D01*
X306010Y151050D01*
X305917Y150866D01*
X305640Y150496D01*
X305085Y149756D01*
X304345Y149016D01*
X303421Y148092D01*
X302311Y147075D01*
X300924Y146150D01*
X299353Y145226D01*
X299445D01*
X299630Y145133D01*
X299907Y145041D01*
X300277Y144856D01*
X301387Y144486D01*
X302681Y143839D01*
X304068Y143007D01*
X305640Y141990D01*
X307027Y140788D01*
X308321Y139309D01*
X308413Y139124D01*
X308783Y138569D01*
X309338Y137737D01*
X309893Y136627D01*
X310447Y135148D01*
X311002Y133576D01*
X311372Y131727D01*
X311464Y129693D01*
Y129601D01*
Y129508D01*
Y128954D01*
X311372Y128029D01*
X311187Y126919D01*
X311002Y125625D01*
X310632Y124238D01*
X310170Y122759D01*
X309523Y121280D01*
X309430Y121095D01*
X309153Y120632D01*
X308783Y119985D01*
X308228Y119061D01*
X307489Y118136D01*
X306749Y117119D01*
X305825Y116102D01*
X304808Y115270D01*
X304715Y115178D01*
X304345Y114900D01*
X303698Y114530D01*
X302866Y114161D01*
X301849Y113606D01*
X300647Y113051D01*
X299353Y112589D01*
X297781Y112127D01*
X297596D01*
X297041Y111942D01*
X296117Y111849D01*
X294915Y111664D01*
X293436Y111479D01*
X291679Y111294D01*
X289737Y111202D01*
X287518Y111110D01*
X263110D01*
Y175089D01*
X288258D01*
X288905Y174997D01*
D02*
G37*
G36*
X166956D02*
X168527Y174904D01*
X170192Y174812D01*
X171763Y174627D01*
X173150Y174442D01*
X173335D01*
X173982Y174257D01*
X174814Y174072D01*
X175924Y173795D01*
X177126Y173332D01*
X178420Y172778D01*
X179807Y172130D01*
X181009Y171391D01*
X181194Y171298D01*
X181564Y171021D01*
X182119Y170466D01*
X182858Y169819D01*
X183690Y168987D01*
X184522Y167877D01*
X185447Y166676D01*
X186187Y165289D01*
X186279Y165104D01*
X186464Y164642D01*
X186834Y163809D01*
X187204Y162700D01*
X187481Y161406D01*
X187851Y159926D01*
X188036Y158262D01*
X188128Y156505D01*
Y156413D01*
Y156136D01*
Y155766D01*
X188036Y155119D01*
X187943Y154471D01*
X187851Y153639D01*
X187666Y152715D01*
X187481Y151698D01*
X186834Y149571D01*
X186464Y148462D01*
X185909Y147260D01*
X185262Y146058D01*
X184615Y144948D01*
X183783Y143839D01*
X182858Y142729D01*
X182766Y142637D01*
X182581Y142452D01*
X182303Y142175D01*
X181841Y141897D01*
X181286Y141435D01*
X180547Y140973D01*
X179622Y140418D01*
X178605Y139956D01*
X177403Y139401D01*
X176016Y138846D01*
X174537Y138384D01*
X172780Y138014D01*
X170931Y137644D01*
X168897Y137367D01*
X166586Y137182D01*
X164182Y137090D01*
X147817D01*
Y111110D01*
X139311D01*
Y175089D01*
X165569D01*
X166956Y174997D01*
D02*
G37*
G36*
X392363Y175274D02*
X393565Y175089D01*
X394952Y174812D01*
X396432Y174442D01*
X398003Y173980D01*
X399483Y173240D01*
X399575D01*
X399667Y173147D01*
X400130Y172870D01*
X400869Y172408D01*
X401794Y171761D01*
X402811Y170836D01*
X403920Y169819D01*
X404937Y168617D01*
X405954Y167230D01*
X406047Y167045D01*
X406417Y166583D01*
X406787Y165751D01*
X407434Y164549D01*
X407989Y163162D01*
X408728Y161590D01*
X409375Y159741D01*
X409930Y157707D01*
Y157615D01*
X410023Y157430D01*
X410115Y157153D01*
X410207Y156690D01*
X410300Y156136D01*
X410392Y155488D01*
X410577Y154656D01*
X410670Y153732D01*
X410855Y152715D01*
X410947Y151605D01*
X411040Y150311D01*
X411224Y149016D01*
X411317Y147537D01*
Y146058D01*
X411409Y144394D01*
Y142637D01*
Y142545D01*
Y142175D01*
Y141528D01*
Y140788D01*
X411317Y139771D01*
Y138661D01*
X411224Y137459D01*
X411132Y136165D01*
X410855Y133206D01*
X410392Y130155D01*
X409838Y127197D01*
X409468Y125810D01*
X409006Y124423D01*
Y124331D01*
X408913Y124146D01*
X408728Y123776D01*
X408543Y123314D01*
X408358Y122667D01*
X407989Y122019D01*
X407249Y120448D01*
X406324Y118783D01*
X405122Y116934D01*
X403736Y115270D01*
X402071Y113698D01*
X401979D01*
X401886Y113513D01*
X401609Y113328D01*
X401239Y113144D01*
X400777Y112866D01*
X400315Y112496D01*
X398928Y111849D01*
X397264Y111202D01*
X395322Y110555D01*
X393011Y110185D01*
X390514Y110000D01*
X389590D01*
X388943Y110092D01*
X388203Y110185D01*
X387278Y110370D01*
X386261Y110555D01*
X385152Y110832D01*
X384042Y111202D01*
X382840Y111572D01*
X381639Y112127D01*
X380437Y112774D01*
X379235Y113513D01*
X378033Y114438D01*
X376923Y115455D01*
X375906Y116564D01*
X375814Y116657D01*
X375629Y116934D01*
X375352Y117397D01*
X374889Y118136D01*
X374427Y118968D01*
X373965Y120078D01*
X373318Y121372D01*
X372763Y122851D01*
X372208Y124516D01*
X371653Y126457D01*
X371099Y128584D01*
X370636Y130988D01*
X370174Y133576D01*
X369897Y136350D01*
X369712Y139401D01*
X369619Y142637D01*
Y142729D01*
Y143099D01*
Y143746D01*
Y144486D01*
X369712Y145503D01*
Y146613D01*
X369804Y147815D01*
X369897Y149201D01*
X370174Y152068D01*
X370636Y155119D01*
X371191Y158170D01*
X371561Y159556D01*
X371931Y160943D01*
Y161036D01*
X372023Y161221D01*
X372208Y161590D01*
X372393Y162053D01*
X372578Y162700D01*
X372948Y163347D01*
X373687Y164919D01*
X374612Y166583D01*
X375814Y168340D01*
X377201Y170096D01*
X378865Y171576D01*
X378957D01*
X379050Y171761D01*
X379327Y171946D01*
X379697Y172130D01*
X380159Y172500D01*
X380714Y172778D01*
X382101Y173517D01*
X383765Y174164D01*
X385707Y174812D01*
X388018Y175182D01*
X390514Y175366D01*
X391346D01*
X392363Y175274D01*
D02*
G37*
G36*
X342622D02*
X343824Y175089D01*
X345211Y174812D01*
X346690Y174442D01*
X348262Y173980D01*
X349741Y173240D01*
X349834D01*
X349926Y173147D01*
X350388Y172870D01*
X351128Y172408D01*
X352053Y171761D01*
X353070Y170836D01*
X354179Y169819D01*
X355196Y168617D01*
X356213Y167230D01*
X356306Y167045D01*
X356675Y166583D01*
X357045Y165751D01*
X357692Y164549D01*
X358247Y163162D01*
X358987Y161590D01*
X359634Y159741D01*
X360189Y157707D01*
Y157615D01*
X360281Y157430D01*
X360374Y157153D01*
X360466Y156690D01*
X360559Y156136D01*
X360651Y155488D01*
X360836Y154656D01*
X360928Y153732D01*
X361113Y152715D01*
X361206Y151605D01*
X361298Y150311D01*
X361483Y149016D01*
X361576Y147537D01*
Y146058D01*
X361668Y144394D01*
Y142637D01*
Y142545D01*
Y142175D01*
Y141528D01*
Y140788D01*
X361576Y139771D01*
Y138661D01*
X361483Y137459D01*
X361391Y136165D01*
X361113Y133206D01*
X360651Y130155D01*
X360096Y127197D01*
X359726Y125810D01*
X359264Y124423D01*
Y124331D01*
X359172Y124146D01*
X358987Y123776D01*
X358802Y123314D01*
X358617Y122667D01*
X358247Y122019D01*
X357508Y120448D01*
X356583Y118783D01*
X355381Y116934D01*
X353994Y115270D01*
X352330Y113698D01*
X352238D01*
X352145Y113513D01*
X351868Y113328D01*
X351498Y113144D01*
X351036Y112866D01*
X350573Y112496D01*
X349187Y111849D01*
X347522Y111202D01*
X345581Y110555D01*
X343269Y110185D01*
X340773Y110000D01*
X339848D01*
X339201Y110092D01*
X338462Y110185D01*
X337537Y110370D01*
X336520Y110555D01*
X335411Y110832D01*
X334301Y111202D01*
X333099Y111572D01*
X331897Y112127D01*
X330695Y112774D01*
X329493Y113513D01*
X328291Y114438D01*
X327182Y115455D01*
X326165Y116564D01*
X326072Y116657D01*
X325888Y116934D01*
X325610Y117397D01*
X325148Y118136D01*
X324686Y118968D01*
X324223Y120078D01*
X323576Y121372D01*
X323021Y122851D01*
X322467Y124516D01*
X321912Y126457D01*
X321357Y128584D01*
X320895Y130988D01*
X320433Y133576D01*
X320155Y136350D01*
X319970Y139401D01*
X319878Y142637D01*
Y142729D01*
Y143099D01*
Y143746D01*
Y144486D01*
X319970Y145503D01*
Y146613D01*
X320063Y147815D01*
X320155Y149201D01*
X320433Y152068D01*
X320895Y155119D01*
X321450Y158170D01*
X321820Y159556D01*
X322189Y160943D01*
Y161036D01*
X322282Y161221D01*
X322467Y161590D01*
X322652Y162053D01*
X322837Y162700D01*
X323206Y163347D01*
X323946Y164919D01*
X324871Y166583D01*
X326072Y168340D01*
X327459Y170096D01*
X329124Y171576D01*
X329216D01*
X329308Y171761D01*
X329586Y171946D01*
X329956Y172130D01*
X330418Y172500D01*
X330973Y172778D01*
X332360Y173517D01*
X334024Y174164D01*
X335965Y174812D01*
X338277Y175182D01*
X340773Y175366D01*
X341605D01*
X342622Y175274D01*
D02*
G37*
G36*
X2354566Y1179159D02*
X2355814Y1179021D01*
X2357340Y1178882D01*
X2358865Y1178743D01*
X2360668Y1178327D01*
X2364413Y1177495D01*
X2368573Y1176247D01*
X2370654Y1175415D01*
X2372595Y1174444D01*
X2374537Y1173196D01*
X2376478Y1171948D01*
X2376617Y1171809D01*
X2376894Y1171670D01*
X2377449Y1171254D01*
X2378143Y1170561D01*
X2378836Y1169867D01*
X2379807Y1168897D01*
X2380778Y1167787D01*
X2381887Y1166678D01*
X2382997Y1165291D01*
X2384106Y1163627D01*
X2385354Y1161962D01*
X2386464Y1160159D01*
X2387434Y1158079D01*
X2388544Y1155999D01*
X2389376Y1153780D01*
X2390208Y1151284D01*
X2377727Y1148371D01*
Y1148510D01*
X2377588Y1148787D01*
X2377310Y1149342D01*
X2377033Y1150036D01*
X2376756Y1150868D01*
X2376340Y1151977D01*
X2375230Y1154196D01*
X2373843Y1156692D01*
X2372179Y1159189D01*
X2370099Y1161546D01*
X2367880Y1163627D01*
X2367603Y1163904D01*
X2366770Y1164459D01*
X2365384Y1165152D01*
X2363581Y1166123D01*
X2361223Y1166955D01*
X2358588Y1167787D01*
X2355398Y1168342D01*
X2351931Y1168481D01*
X2350822D01*
X2350128Y1168342D01*
X2349158D01*
X2348048Y1168203D01*
X2345413Y1167787D01*
X2342501Y1167232D01*
X2339450Y1166262D01*
X2336260Y1164875D01*
X2333348Y1163072D01*
X2333209D01*
X2333070Y1162794D01*
X2332099Y1162101D01*
X2330851Y1160992D01*
X2329326Y1159327D01*
X2327523Y1157247D01*
X2325859Y1154889D01*
X2324333Y1151977D01*
X2322946Y1148787D01*
Y1148649D01*
X2322808Y1148371D01*
X2322669Y1147955D01*
X2322530Y1147262D01*
X2322253Y1146430D01*
X2321976Y1145459D01*
X2321559Y1143101D01*
X2321005Y1140328D01*
X2320450Y1137277D01*
X2320173Y1133948D01*
X2320034Y1130342D01*
Y1130204D01*
Y1129788D01*
Y1129094D01*
Y1128262D01*
X2320173Y1127291D01*
Y1126043D01*
X2320311Y1124656D01*
X2320450Y1123131D01*
X2320866Y1119802D01*
X2321559Y1116197D01*
X2322392Y1112591D01*
X2323501Y1108985D01*
Y1108846D01*
X2323640Y1108569D01*
X2323917Y1108153D01*
X2324194Y1107460D01*
X2325027Y1105795D01*
X2326275Y1103854D01*
X2327800Y1101635D01*
X2329742Y1099277D01*
X2331961Y1097197D01*
X2334596Y1095255D01*
X2334734D01*
X2335012Y1095117D01*
X2335428Y1094839D01*
X2335983Y1094562D01*
X2336676Y1094285D01*
X2337508Y1093869D01*
X2339450Y1093036D01*
X2341946Y1092204D01*
X2344720Y1091511D01*
X2347771Y1090956D01*
X2350961Y1090817D01*
X2351931D01*
X2352763Y1090956D01*
X2353734D01*
X2354705Y1091095D01*
X2357201Y1091650D01*
X2360114Y1092343D01*
X2363026Y1093452D01*
X2366077Y1094978D01*
X2367603Y1095810D01*
X2368989Y1096920D01*
X2369128Y1097058D01*
X2369267Y1097197D01*
X2369683Y1097613D01*
X2370238Y1098029D01*
X2370792Y1098722D01*
X2371486Y1099555D01*
X2372318Y1100387D01*
X2373011Y1101496D01*
X2373843Y1102744D01*
X2374814Y1104131D01*
X2375646Y1105518D01*
X2376478Y1107182D01*
X2377172Y1108985D01*
X2377865Y1110927D01*
X2378559Y1113007D01*
X2379113Y1115226D01*
X2391872Y1112036D01*
Y1111897D01*
X2391734Y1111343D01*
X2391456Y1110511D01*
X2391040Y1109401D01*
X2390624Y1108153D01*
X2390069Y1106627D01*
X2389376Y1104963D01*
X2388544Y1103160D01*
X2386602Y1099277D01*
X2384106Y1095394D01*
X2382580Y1093452D01*
X2381055Y1091511D01*
X2379391Y1089847D01*
X2377449Y1088182D01*
X2377310Y1088044D01*
X2377033Y1087766D01*
X2376340Y1087489D01*
X2375646Y1086934D01*
X2374537Y1086241D01*
X2373427Y1085547D01*
X2371902Y1084854D01*
X2370376Y1084161D01*
X2368573Y1083329D01*
X2366632Y1082635D01*
X2364552Y1081942D01*
X2362333Y1081248D01*
X2359975Y1080694D01*
X2357479Y1080416D01*
X2354844Y1080139D01*
X2352070Y1080000D01*
X2350544D01*
X2349435Y1080139D01*
X2348187D01*
X2346661Y1080277D01*
X2344997Y1080555D01*
X2343056Y1080832D01*
X2339034Y1081526D01*
X2334873Y1082635D01*
X2330713Y1084161D01*
X2328771Y1085131D01*
X2326829Y1086241D01*
X2326691Y1086380D01*
X2326413Y1086518D01*
X2325859Y1086934D01*
X2325304Y1087489D01*
X2324472Y1088044D01*
X2323501Y1088876D01*
X2322392Y1089847D01*
X2321282Y1090956D01*
X2320173Y1092204D01*
X2318924Y1093452D01*
X2316428Y1096642D01*
X2314071Y1100387D01*
X2311990Y1104547D01*
Y1104686D01*
X2311713Y1105102D01*
X2311574Y1105795D01*
X2311158Y1106627D01*
X2310881Y1107737D01*
X2310465Y1109124D01*
X2309910Y1110649D01*
X2309494Y1112313D01*
X2309078Y1114116D01*
X2308523Y1116197D01*
X2307830Y1120496D01*
X2307275Y1125350D01*
X2306998Y1130342D01*
Y1130481D01*
Y1131036D01*
Y1131868D01*
X2307136Y1132839D01*
Y1134226D01*
X2307275Y1135612D01*
X2307414Y1137415D01*
X2307691Y1139218D01*
X2308385Y1143240D01*
X2309355Y1147678D01*
X2310742Y1152116D01*
X2312684Y1156415D01*
X2312822Y1156554D01*
X2312961Y1156970D01*
X2313238Y1157524D01*
X2313793Y1158218D01*
X2314348Y1159189D01*
X2315041Y1160298D01*
X2316844Y1162794D01*
X2319202Y1165568D01*
X2321976Y1168342D01*
X2325165Y1171116D01*
X2328910Y1173473D01*
X2329048Y1173612D01*
X2329464Y1173751D01*
X2330019Y1174028D01*
X2330713Y1174444D01*
X2331822Y1174860D01*
X2332932Y1175276D01*
X2334318Y1175831D01*
X2335844Y1176386D01*
X2337508Y1176940D01*
X2339311Y1177495D01*
X2343194Y1178327D01*
X2347632Y1179021D01*
X2352209Y1179298D01*
X2353595D01*
X2354566Y1179159D01*
D02*
G37*
G36*
X2473002Y1166262D02*
X2420857D01*
Y1136583D01*
X2465930D01*
Y1125211D01*
X2420857D01*
Y1081664D01*
X2408098D01*
Y1177634D01*
X2473002D01*
Y1166262D01*
D02*
G37*
G36*
X2440065Y939159D02*
X2441036D01*
X2443671Y938882D01*
X2446583Y938466D01*
X2449634Y937772D01*
X2452963Y936940D01*
X2456014Y935831D01*
X2456152D01*
X2456430Y935692D01*
X2456846Y935415D01*
X2457400Y935137D01*
X2458787Y934444D01*
X2460590Y933196D01*
X2462670Y931809D01*
X2464751Y930006D01*
X2466692Y927926D01*
X2468495Y925568D01*
Y925429D01*
X2468634Y925291D01*
X2468911Y924875D01*
X2469189Y924459D01*
X2469882Y923072D01*
X2470714Y921269D01*
X2471685Y919050D01*
X2472378Y916415D01*
X2473072Y913641D01*
X2473349Y910590D01*
X2461145Y909619D01*
Y909758D01*
Y910036D01*
X2461006Y910452D01*
X2460868Y911145D01*
X2460452Y912671D01*
X2459897Y914751D01*
X2459065Y916970D01*
X2457817Y919189D01*
X2456291Y921269D01*
X2454349Y923210D01*
X2454072Y923349D01*
X2453379Y923904D01*
X2451992Y924736D01*
X2450189Y925568D01*
X2447831Y926400D01*
X2445058Y927232D01*
X2441590Y927787D01*
X2437707Y927926D01*
X2435766D01*
X2434934Y927787D01*
X2433824Y927648D01*
X2431328Y927371D01*
X2428554Y926816D01*
X2425781Y926123D01*
X2423146Y925013D01*
X2422036Y924320D01*
X2420927Y923627D01*
X2420649Y923488D01*
X2420094Y922933D01*
X2419262Y921962D01*
X2418430Y920853D01*
X2417459Y919327D01*
X2416627Y917663D01*
X2416073Y915722D01*
X2415795Y913503D01*
Y913225D01*
Y912671D01*
X2415934Y911700D01*
X2416211Y910590D01*
X2416627Y909203D01*
X2417321Y907817D01*
X2418153Y906430D01*
X2419401Y905043D01*
X2419540Y904904D01*
X2420233Y904488D01*
X2420788Y904072D01*
X2421343Y903795D01*
X2422175Y903379D01*
X2423146Y902824D01*
X2424394Y902408D01*
X2425781Y901853D01*
X2427306Y901298D01*
X2429109Y900605D01*
X2431051Y900050D01*
X2433269Y899357D01*
X2435766Y898802D01*
X2438539Y898109D01*
X2438678D01*
X2439233Y897970D01*
X2440065Y897831D01*
X2441036Y897554D01*
X2442284Y897277D01*
X2443809Y896861D01*
X2445335Y896444D01*
X2446999Y896028D01*
X2450605Y895058D01*
X2454072Y894087D01*
X2455736Y893532D01*
X2457262Y892977D01*
X2458649Y892561D01*
X2459758Y892007D01*
X2459897D01*
X2460174Y891868D01*
X2460590Y891591D01*
X2461145Y891313D01*
X2462670Y890481D01*
X2464473Y889372D01*
X2466554Y887846D01*
X2468634Y886182D01*
X2470575Y884240D01*
X2472240Y882160D01*
X2472378Y881883D01*
X2472933Y881189D01*
X2473488Y879941D01*
X2474320Y878277D01*
X2475013Y876335D01*
X2475707Y873978D01*
X2476123Y871343D01*
X2476261Y868569D01*
Y868430D01*
Y868292D01*
Y867876D01*
Y867321D01*
X2475984Y865795D01*
X2475707Y863854D01*
X2475152Y861635D01*
X2474459Y859277D01*
X2473349Y856781D01*
X2471824Y854146D01*
Y854007D01*
X2471685Y853868D01*
X2470992Y853036D01*
X2470021Y851788D01*
X2468634Y850401D01*
X2466831Y848737D01*
X2464612Y846934D01*
X2462116Y845270D01*
X2459203Y843745D01*
X2459065D01*
X2458787Y843606D01*
X2458371Y843467D01*
X2457817Y843190D01*
X2456984Y842912D01*
X2456014Y842496D01*
X2453795Y841942D01*
X2451160Y841248D01*
X2447970Y840555D01*
X2444503Y840139D01*
X2440758Y840000D01*
X2438539D01*
X2437430Y840139D01*
X2436182D01*
X2434795Y840277D01*
X2433131Y840416D01*
X2429664Y840971D01*
X2426058Y841526D01*
X2422452Y842496D01*
X2418985Y843745D01*
X2418846D01*
X2418569Y843883D01*
X2418153Y844161D01*
X2417598Y844438D01*
X2415934Y845270D01*
X2413992Y846518D01*
X2411773Y848182D01*
X2409416Y850124D01*
X2407197Y852482D01*
X2405117Y855117D01*
Y855255D01*
X2404839Y855533D01*
X2404701Y855949D01*
X2404284Y856503D01*
X2404007Y857197D01*
X2403591Y858029D01*
X2402620Y860109D01*
X2401650Y862744D01*
X2400817Y865657D01*
X2400263Y868985D01*
X2399985Y872452D01*
X2411912Y873562D01*
Y873423D01*
Y873284D01*
X2412051Y872868D01*
Y872313D01*
X2412328Y871065D01*
X2412744Y869262D01*
X2413299Y867460D01*
X2413854Y865379D01*
X2414824Y863438D01*
X2415795Y861635D01*
X2415934Y861496D01*
X2416350Y860941D01*
X2417043Y859971D01*
X2418153Y859000D01*
X2419540Y857752D01*
X2421065Y856503D01*
X2423146Y855255D01*
X2425364Y854146D01*
X2425503D01*
X2425642Y854007D01*
X2426058Y853868D01*
X2426474Y853730D01*
X2427861Y853314D01*
X2429664Y852759D01*
X2431883Y852204D01*
X2434379Y851788D01*
X2437153Y851511D01*
X2440204Y851372D01*
X2441452D01*
X2442839Y851511D01*
X2444503Y851650D01*
X2446444Y851927D01*
X2448663Y852204D01*
X2450882Y852759D01*
X2452963Y853452D01*
X2453240Y853591D01*
X2453933Y853868D01*
X2454904Y854423D01*
X2456152Y854978D01*
X2457400Y855949D01*
X2458787Y856920D01*
X2460174Y858029D01*
X2461284Y859416D01*
X2461422Y859555D01*
X2461700Y860109D01*
X2462116Y860803D01*
X2462670Y861912D01*
X2463225Y863022D01*
X2463641Y864408D01*
X2463919Y865934D01*
X2464057Y867598D01*
Y867737D01*
Y868430D01*
X2463919Y869262D01*
X2463780Y870372D01*
X2463364Y871481D01*
X2462948Y872868D01*
X2462254Y874255D01*
X2461284Y875503D01*
X2461145Y875642D01*
X2460729Y876058D01*
X2460174Y876613D01*
X2459203Y877445D01*
X2458094Y878277D01*
X2456568Y879248D01*
X2454765Y880218D01*
X2452685Y881051D01*
X2452547Y881189D01*
X2451853Y881328D01*
X2450744Y881744D01*
X2450050Y881883D01*
X2449079Y882160D01*
X2448109Y882576D01*
X2446860Y882853D01*
X2445474Y883270D01*
X2443809Y883686D01*
X2442145Y884102D01*
X2440204Y884656D01*
X2437985Y885211D01*
X2435627Y885766D01*
X2435488D01*
X2435072Y885905D01*
X2434379Y886043D01*
X2433547Y886321D01*
X2432437Y886598D01*
X2431189Y886875D01*
X2428416Y887707D01*
X2425364Y888678D01*
X2422175Y889649D01*
X2419401Y890620D01*
X2418153Y891174D01*
X2417043Y891729D01*
X2416905D01*
X2416766Y891868D01*
X2415934Y892423D01*
X2414686Y893116D01*
X2413299Y894226D01*
X2411635Y895474D01*
X2409971Y896999D01*
X2408306Y898802D01*
X2406919Y900744D01*
X2406781Y901021D01*
X2406365Y901714D01*
X2405810Y902824D01*
X2405255Y904211D01*
X2404701Y906014D01*
X2404146Y908094D01*
X2403730Y910313D01*
X2403591Y912671D01*
Y912809D01*
Y912948D01*
Y913364D01*
Y913919D01*
X2403868Y915306D01*
X2404146Y917108D01*
X2404562Y919189D01*
X2405255Y921546D01*
X2406226Y923904D01*
X2407613Y926262D01*
Y926400D01*
X2407752Y926539D01*
X2408445Y927371D01*
X2409416Y928480D01*
X2410664Y929867D01*
X2412328Y931393D01*
X2414408Y933057D01*
X2416905Y934583D01*
X2419678Y935969D01*
X2419817D01*
X2420094Y936108D01*
X2420511Y936247D01*
X2421065Y936524D01*
X2421759Y936802D01*
X2422729Y937079D01*
X2424810Y937634D01*
X2427445Y938188D01*
X2430496Y938743D01*
X2433686Y939159D01*
X2437291Y939298D01*
X2439094D01*
X2440065Y939159D01*
D02*
G37*
G36*
X2351307D02*
X2352555Y939020D01*
X2354081Y938882D01*
X2355606Y938743D01*
X2357409Y938327D01*
X2361154Y937495D01*
X2365314Y936247D01*
X2367395Y935415D01*
X2369336Y934444D01*
X2371278Y933196D01*
X2373219Y931948D01*
X2373358Y931809D01*
X2373635Y931670D01*
X2374190Y931254D01*
X2374883Y930561D01*
X2375577Y929867D01*
X2376548Y928897D01*
X2377518Y927787D01*
X2378628Y926678D01*
X2379737Y925291D01*
X2380847Y923627D01*
X2382095Y921962D01*
X2383205Y920159D01*
X2384175Y918079D01*
X2385285Y915999D01*
X2386117Y913780D01*
X2386949Y911284D01*
X2374467Y908371D01*
Y908510D01*
X2374329Y908787D01*
X2374051Y909342D01*
X2373774Y910036D01*
X2373497Y910868D01*
X2373081Y911977D01*
X2371971Y914196D01*
X2370584Y916692D01*
X2368920Y919189D01*
X2366840Y921546D01*
X2364621Y923627D01*
X2364344Y923904D01*
X2363511Y924459D01*
X2362125Y925152D01*
X2360322Y926123D01*
X2357964Y926955D01*
X2355329Y927787D01*
X2352139Y928342D01*
X2348672Y928480D01*
X2347563D01*
X2346869Y928342D01*
X2345899D01*
X2344789Y928203D01*
X2342154Y927787D01*
X2339242Y927232D01*
X2336191Y926262D01*
X2333001Y924875D01*
X2330089Y923072D01*
X2329950D01*
X2329811Y922794D01*
X2328840Y922101D01*
X2327592Y920992D01*
X2326067Y919327D01*
X2324264Y917247D01*
X2322600Y914889D01*
X2321074Y911977D01*
X2319687Y908787D01*
Y908649D01*
X2319549Y908371D01*
X2319410Y907955D01*
X2319271Y907262D01*
X2318994Y906430D01*
X2318716Y905459D01*
X2318300Y903101D01*
X2317746Y900328D01*
X2317191Y897277D01*
X2316914Y893948D01*
X2316775Y890342D01*
Y890204D01*
Y889788D01*
Y889094D01*
Y888262D01*
X2316914Y887291D01*
Y886043D01*
X2317052Y884656D01*
X2317191Y883131D01*
X2317607Y879802D01*
X2318300Y876197D01*
X2319133Y872591D01*
X2320242Y868985D01*
Y868846D01*
X2320381Y868569D01*
X2320658Y868153D01*
X2320935Y867460D01*
X2321768Y865795D01*
X2323016Y863854D01*
X2324541Y861635D01*
X2326483Y859277D01*
X2328702Y857197D01*
X2331337Y855255D01*
X2331475D01*
X2331753Y855117D01*
X2332169Y854839D01*
X2332724Y854562D01*
X2333417Y854285D01*
X2334249Y853868D01*
X2336191Y853036D01*
X2338687Y852204D01*
X2341461Y851511D01*
X2344512Y850956D01*
X2347701Y850817D01*
X2348672D01*
X2349504Y850956D01*
X2350475D01*
X2351446Y851095D01*
X2353942Y851650D01*
X2356855Y852343D01*
X2359767Y853452D01*
X2362818Y854978D01*
X2364344Y855810D01*
X2365730Y856920D01*
X2365869Y857058D01*
X2366008Y857197D01*
X2366424Y857613D01*
X2366979Y858029D01*
X2367533Y858722D01*
X2368227Y859555D01*
X2369059Y860387D01*
X2369752Y861496D01*
X2370584Y862744D01*
X2371555Y864131D01*
X2372387Y865518D01*
X2373219Y867182D01*
X2373913Y868985D01*
X2374606Y870927D01*
X2375300Y873007D01*
X2375854Y875226D01*
X2388613Y872036D01*
Y871897D01*
X2388475Y871343D01*
X2388197Y870511D01*
X2387781Y869401D01*
X2387365Y868153D01*
X2386810Y866627D01*
X2386117Y864963D01*
X2385285Y863160D01*
X2383343Y859277D01*
X2380847Y855394D01*
X2379321Y853452D01*
X2377796Y851511D01*
X2376132Y849847D01*
X2374190Y848182D01*
X2374051Y848044D01*
X2373774Y847766D01*
X2373081Y847489D01*
X2372387Y846934D01*
X2371278Y846241D01*
X2370168Y845547D01*
X2368643Y844854D01*
X2367117Y844161D01*
X2365314Y843329D01*
X2363373Y842635D01*
X2361292Y841942D01*
X2359074Y841248D01*
X2356716Y840694D01*
X2354220Y840416D01*
X2351585Y840139D01*
X2348811Y840000D01*
X2347285D01*
X2346176Y840139D01*
X2344928D01*
X2343402Y840277D01*
X2341738Y840555D01*
X2339796Y840832D01*
X2335775Y841526D01*
X2331614Y842635D01*
X2327454Y844161D01*
X2325512Y845131D01*
X2323570Y846241D01*
X2323432Y846380D01*
X2323154Y846518D01*
X2322600Y846934D01*
X2322045Y847489D01*
X2321213Y848044D01*
X2320242Y848876D01*
X2319133Y849847D01*
X2318023Y850956D01*
X2316914Y852204D01*
X2315665Y853452D01*
X2313169Y856642D01*
X2310811Y860387D01*
X2308731Y864547D01*
Y864686D01*
X2308454Y865102D01*
X2308315Y865795D01*
X2307899Y866627D01*
X2307622Y867737D01*
X2307206Y869124D01*
X2306651Y870649D01*
X2306235Y872313D01*
X2305819Y874116D01*
X2305264Y876197D01*
X2304571Y880496D01*
X2304016Y885350D01*
X2303739Y890342D01*
Y890481D01*
Y891036D01*
Y891868D01*
X2303877Y892839D01*
Y894226D01*
X2304016Y895612D01*
X2304155Y897415D01*
X2304432Y899218D01*
X2305125Y903240D01*
X2306096Y907678D01*
X2307483Y912116D01*
X2309425Y916415D01*
X2309563Y916554D01*
X2309702Y916970D01*
X2309979Y917524D01*
X2310534Y918218D01*
X2311089Y919189D01*
X2311782Y920298D01*
X2313585Y922794D01*
X2315943Y925568D01*
X2318716Y928342D01*
X2321906Y931115D01*
X2325651Y933473D01*
X2325789Y933612D01*
X2326205Y933750D01*
X2326760Y934028D01*
X2327454Y934444D01*
X2328563Y934860D01*
X2329673Y935276D01*
X2331059Y935831D01*
X2332585Y936385D01*
X2334249Y936940D01*
X2336052Y937495D01*
X2339935Y938327D01*
X2344373Y939020D01*
X2348950Y939298D01*
X2350336D01*
X2351307Y939159D01*
D02*
G37*
G36*
X2457539Y429159D02*
X2458510D01*
X2461145Y428882D01*
X2464057Y428466D01*
X2467108Y427772D01*
X2470437Y426940D01*
X2473488Y425831D01*
X2473626D01*
X2473904Y425692D01*
X2474320Y425415D01*
X2474875Y425137D01*
X2476261Y424444D01*
X2478064Y423196D01*
X2480145Y421809D01*
X2482225Y420006D01*
X2484166Y417926D01*
X2485969Y415568D01*
Y415429D01*
X2486108Y415291D01*
X2486385Y414875D01*
X2486663Y414459D01*
X2487356Y413072D01*
X2488188Y411269D01*
X2489159Y409050D01*
X2489853Y406415D01*
X2490546Y403641D01*
X2490823Y400590D01*
X2478619Y399619D01*
Y399758D01*
Y400036D01*
X2478480Y400452D01*
X2478342Y401145D01*
X2477926Y402671D01*
X2477371Y404751D01*
X2476539Y406970D01*
X2475291Y409189D01*
X2473765Y411269D01*
X2471824Y413211D01*
X2471546Y413349D01*
X2470853Y413904D01*
X2469466Y414736D01*
X2467663Y415568D01*
X2465305Y416400D01*
X2462532Y417232D01*
X2459065Y417787D01*
X2455182Y417926D01*
X2453240D01*
X2452408Y417787D01*
X2451298Y417648D01*
X2448802Y417371D01*
X2446028Y416816D01*
X2443255Y416123D01*
X2440620Y415013D01*
X2439510Y414320D01*
X2438401Y413627D01*
X2438123Y413488D01*
X2437569Y412933D01*
X2436737Y411962D01*
X2435904Y410853D01*
X2434934Y409327D01*
X2434102Y407663D01*
X2433547Y405722D01*
X2433269Y403503D01*
Y403225D01*
Y402671D01*
X2433408Y401700D01*
X2433686Y400590D01*
X2434102Y399203D01*
X2434795Y397817D01*
X2435627Y396430D01*
X2436875Y395043D01*
X2437014Y394904D01*
X2437707Y394488D01*
X2438262Y394072D01*
X2438817Y393795D01*
X2439649Y393379D01*
X2440620Y392824D01*
X2441868Y392408D01*
X2443255Y391853D01*
X2444780Y391298D01*
X2446583Y390605D01*
X2448525Y390050D01*
X2450744Y389357D01*
X2453240Y388802D01*
X2456014Y388109D01*
X2456152D01*
X2456707Y387970D01*
X2457539Y387831D01*
X2458510Y387554D01*
X2459758Y387277D01*
X2461284Y386861D01*
X2462809Y386444D01*
X2464473Y386028D01*
X2468079Y385058D01*
X2471546Y384087D01*
X2473210Y383532D01*
X2474736Y382977D01*
X2476123Y382561D01*
X2477232Y382007D01*
X2477371D01*
X2477648Y381868D01*
X2478064Y381591D01*
X2478619Y381313D01*
X2480145Y380481D01*
X2481948Y379372D01*
X2484028Y377846D01*
X2486108Y376182D01*
X2488050Y374240D01*
X2489714Y372160D01*
X2489853Y371883D01*
X2490407Y371189D01*
X2490962Y369941D01*
X2491794Y368277D01*
X2492488Y366335D01*
X2493181Y363978D01*
X2493597Y361343D01*
X2493736Y358569D01*
Y358430D01*
Y358292D01*
Y357876D01*
Y357321D01*
X2493458Y355795D01*
X2493181Y353854D01*
X2492626Y351635D01*
X2491933Y349277D01*
X2490823Y346781D01*
X2489298Y344146D01*
Y344007D01*
X2489159Y343869D01*
X2488466Y343036D01*
X2487495Y341788D01*
X2486108Y340401D01*
X2484305Y338737D01*
X2482086Y336934D01*
X2479590Y335270D01*
X2476678Y333745D01*
X2476539D01*
X2476261Y333606D01*
X2475845Y333467D01*
X2475291Y333190D01*
X2474459Y332912D01*
X2473488Y332496D01*
X2471269Y331942D01*
X2468634Y331248D01*
X2465444Y330555D01*
X2461977Y330139D01*
X2458233Y330000D01*
X2456014D01*
X2454904Y330139D01*
X2453656D01*
X2452269Y330277D01*
X2450605Y330416D01*
X2447138Y330971D01*
X2443532Y331526D01*
X2439926Y332496D01*
X2436459Y333745D01*
X2436321D01*
X2436043Y333883D01*
X2435627Y334161D01*
X2435072Y334438D01*
X2433408Y335270D01*
X2431467Y336518D01*
X2429248Y338182D01*
X2426890Y340124D01*
X2424671Y342482D01*
X2422591Y345117D01*
Y345255D01*
X2422313Y345533D01*
X2422175Y345949D01*
X2421759Y346503D01*
X2421481Y347197D01*
X2421065Y348029D01*
X2420094Y350109D01*
X2419124Y352744D01*
X2418292Y355657D01*
X2417737Y358985D01*
X2417459Y362452D01*
X2429386Y363562D01*
Y363423D01*
Y363284D01*
X2429525Y362868D01*
Y362313D01*
X2429802Y361065D01*
X2430218Y359262D01*
X2430773Y357460D01*
X2431328Y355379D01*
X2432299Y353438D01*
X2433269Y351635D01*
X2433408Y351496D01*
X2433824Y350941D01*
X2434518Y349971D01*
X2435627Y349000D01*
X2437014Y347752D01*
X2438539Y346503D01*
X2440620Y345255D01*
X2442839Y344146D01*
X2442977D01*
X2443116Y344007D01*
X2443532Y343869D01*
X2443948Y343730D01*
X2445335Y343314D01*
X2447138Y342759D01*
X2449357Y342204D01*
X2451853Y341788D01*
X2454627Y341511D01*
X2457678Y341372D01*
X2458926D01*
X2460313Y341511D01*
X2461977Y341650D01*
X2463919Y341927D01*
X2466138Y342204D01*
X2468357Y342759D01*
X2470437Y343452D01*
X2470714Y343591D01*
X2471408Y343869D01*
X2472378Y344423D01*
X2473626Y344978D01*
X2474875Y345949D01*
X2476261Y346920D01*
X2477648Y348029D01*
X2478758Y349416D01*
X2478896Y349555D01*
X2479174Y350109D01*
X2479590Y350803D01*
X2480145Y351912D01*
X2480699Y353022D01*
X2481115Y354408D01*
X2481393Y355934D01*
X2481531Y357598D01*
Y357737D01*
Y358430D01*
X2481393Y359262D01*
X2481254Y360372D01*
X2480838Y361481D01*
X2480422Y362868D01*
X2479729Y364255D01*
X2478758Y365503D01*
X2478619Y365642D01*
X2478203Y366058D01*
X2477648Y366613D01*
X2476678Y367445D01*
X2475568Y368277D01*
X2474043Y369248D01*
X2472240Y370218D01*
X2470159Y371051D01*
X2470021Y371189D01*
X2469327Y371328D01*
X2468218Y371744D01*
X2467524Y371883D01*
X2466554Y372160D01*
X2465583Y372576D01*
X2464335Y372853D01*
X2462948Y373270D01*
X2461284Y373686D01*
X2459619Y374102D01*
X2457678Y374656D01*
X2455459Y375211D01*
X2453101Y375766D01*
X2452963D01*
X2452547Y375905D01*
X2451853Y376043D01*
X2451021Y376321D01*
X2449912Y376598D01*
X2448663Y376875D01*
X2445890Y377707D01*
X2442839Y378678D01*
X2439649Y379649D01*
X2436875Y380620D01*
X2435627Y381174D01*
X2434518Y381729D01*
X2434379D01*
X2434240Y381868D01*
X2433408Y382423D01*
X2432160Y383116D01*
X2430773Y384226D01*
X2429109Y385474D01*
X2427445Y386999D01*
X2425781Y388802D01*
X2424394Y390744D01*
X2424255Y391021D01*
X2423839Y391714D01*
X2423284Y392824D01*
X2422729Y394211D01*
X2422175Y396014D01*
X2421620Y398094D01*
X2421204Y400313D01*
X2421065Y402671D01*
Y402809D01*
Y402948D01*
Y403364D01*
Y403919D01*
X2421343Y405306D01*
X2421620Y407108D01*
X2422036Y409189D01*
X2422729Y411546D01*
X2423700Y413904D01*
X2425087Y416262D01*
Y416400D01*
X2425226Y416539D01*
X2425919Y417371D01*
X2426890Y418480D01*
X2428138Y419867D01*
X2429802Y421393D01*
X2431883Y423057D01*
X2434379Y424583D01*
X2437153Y425969D01*
X2437291D01*
X2437569Y426108D01*
X2437985Y426247D01*
X2438539Y426524D01*
X2439233Y426802D01*
X2440204Y427079D01*
X2442284Y427634D01*
X2444919Y428188D01*
X2447970Y428743D01*
X2451160Y429159D01*
X2454765Y429298D01*
X2456568D01*
X2457539Y429159D01*
D02*
G37*
G36*
X2383482Y331664D02*
X2371000D01*
X2350891Y404751D01*
Y404889D01*
X2350752Y405167D01*
X2350614Y405583D01*
X2350475Y406276D01*
X2350059Y407802D01*
X2349643Y409605D01*
X2349088Y411546D01*
X2348534Y413349D01*
X2348117Y414875D01*
X2347979Y415568D01*
X2347840Y415984D01*
Y415845D01*
X2347701Y415707D01*
X2347563Y414875D01*
X2347285Y413627D01*
X2346869Y412101D01*
X2346453Y410437D01*
X2345899Y408495D01*
X2345482Y406554D01*
X2344928Y404751D01*
X2324680Y331664D01*
X2311366D01*
X2286264Y427634D01*
X2299439D01*
X2313724Y364671D01*
Y364532D01*
X2313863Y364255D01*
X2314001Y363700D01*
X2314140Y363007D01*
X2314279Y362036D01*
X2314556Y361065D01*
X2314833Y359817D01*
X2315111Y358430D01*
X2315804Y355518D01*
X2316498Y352190D01*
X2317191Y348584D01*
X2317884Y344978D01*
Y345117D01*
X2318023Y345671D01*
X2318300Y346365D01*
X2318439Y347474D01*
X2318716Y348584D01*
X2319133Y349971D01*
X2319826Y353022D01*
X2320658Y356073D01*
X2320935Y357598D01*
X2321351Y358985D01*
X2321629Y360233D01*
X2321906Y361343D01*
X2322184Y362175D01*
X2322322Y362730D01*
X2340490Y427634D01*
X2355884D01*
X2369475Y378956D01*
Y378817D01*
X2369752Y378123D01*
X2370030Y377153D01*
X2370307Y375905D01*
X2370723Y374240D01*
X2371278Y372437D01*
X2371832Y370357D01*
X2372387Y368000D01*
X2373081Y365365D01*
X2373635Y362730D01*
X2374883Y357043D01*
X2376132Y351080D01*
X2377102Y344978D01*
Y345117D01*
X2377241Y345394D01*
Y345949D01*
X2377518Y346642D01*
X2377657Y347474D01*
X2377935Y348445D01*
X2378073Y349693D01*
X2378489Y351080D01*
X2379183Y354131D01*
X2380015Y357737D01*
X2380847Y361620D01*
X2381956Y365919D01*
X2396934Y427634D01*
X2409832D01*
X2383482Y331664D01*
D02*
G37*
G36*
X2386741Y580000D02*
X2374259D01*
X2354150Y653087D01*
Y653225D01*
X2354012Y653503D01*
X2353873Y653919D01*
X2353734Y654612D01*
X2353318Y656138D01*
X2352902Y657941D01*
X2352347Y659882D01*
X2351793Y661685D01*
X2351377Y663211D01*
X2351238Y663904D01*
X2351099Y664320D01*
Y664181D01*
X2350961Y664043D01*
X2350822Y663211D01*
X2350544Y661962D01*
X2350128Y660437D01*
X2349712Y658773D01*
X2349158Y656831D01*
X2348742Y654889D01*
X2348187Y653087D01*
X2327939Y580000D01*
X2314625D01*
X2289523Y675969D01*
X2302698D01*
X2316983Y613007D01*
Y612868D01*
X2317122Y612591D01*
X2317260Y612036D01*
X2317399Y611343D01*
X2317538Y610372D01*
X2317815Y609401D01*
X2318092Y608153D01*
X2318370Y606766D01*
X2319063Y603854D01*
X2319757Y600525D01*
X2320450Y596920D01*
X2321143Y593314D01*
Y593452D01*
X2321282Y594007D01*
X2321559Y594701D01*
X2321698Y595810D01*
X2321976Y596920D01*
X2322392Y598306D01*
X2323085Y601357D01*
X2323917Y604408D01*
X2324194Y605934D01*
X2324611Y607321D01*
X2324888Y608569D01*
X2325165Y609678D01*
X2325443Y610511D01*
X2325581Y611065D01*
X2343749Y675969D01*
X2359143D01*
X2372734Y627291D01*
Y627153D01*
X2373011Y626459D01*
X2373289Y625488D01*
X2373566Y624240D01*
X2373982Y622576D01*
X2374537Y620773D01*
X2375092Y618693D01*
X2375646Y616335D01*
X2376340Y613700D01*
X2376894Y611065D01*
X2378143Y605379D01*
X2379391Y599416D01*
X2380362Y593314D01*
Y593452D01*
X2380500Y593730D01*
Y594285D01*
X2380778Y594978D01*
X2380916Y595810D01*
X2381194Y596781D01*
X2381332Y598029D01*
X2381748Y599416D01*
X2382442Y602467D01*
X2383274Y606073D01*
X2384106Y609956D01*
X2385215Y614255D01*
X2400193Y675969D01*
X2413091D01*
X2386741Y580000D01*
D02*
G37*
G36*
X2490477Y664597D02*
X2438331D01*
Y634919D01*
X2483404D01*
Y623547D01*
X2438331D01*
Y580000D01*
X2425572D01*
Y675969D01*
X2490477D01*
Y664597D01*
D02*
G37*
G36*
X1979240Y1100000D02*
X1958415D01*
X1924863Y1221945D01*
Y1222176D01*
X1924631Y1222639D01*
X1924400Y1223333D01*
X1924169Y1224490D01*
X1923474Y1227035D01*
X1922780Y1230044D01*
X1921855Y1233283D01*
X1920929Y1236291D01*
X1920235Y1238836D01*
X1920004Y1239993D01*
X1919772Y1240688D01*
Y1240456D01*
X1919541Y1240225D01*
X1919309Y1238836D01*
X1918847Y1236754D01*
X1918152Y1234209D01*
X1917458Y1231432D01*
X1916533Y1228192D01*
X1915838Y1224953D01*
X1914913Y1221945D01*
X1881129Y1100000D01*
X1858916D01*
X1817033Y1260125D01*
X1839016D01*
X1862849Y1155072D01*
Y1154840D01*
X1863081Y1154378D01*
X1863312Y1153452D01*
X1863543Y1152295D01*
X1863775Y1150675D01*
X1864238Y1149056D01*
X1864700Y1146973D01*
X1865163Y1144659D01*
X1866320Y1139800D01*
X1867477Y1134246D01*
X1868634Y1128230D01*
X1869791Y1122214D01*
Y1122445D01*
X1870022Y1123371D01*
X1870485Y1124528D01*
X1870717Y1126379D01*
X1871179Y1128230D01*
X1871874Y1130544D01*
X1873031Y1135635D01*
X1874419Y1140725D01*
X1874882Y1143271D01*
X1875576Y1145585D01*
X1876039Y1147667D01*
X1876501Y1149518D01*
X1876964Y1150907D01*
X1877196Y1151832D01*
X1907508Y1260125D01*
X1933193D01*
X1955870Y1178905D01*
Y1178674D01*
X1956332Y1177517D01*
X1956795Y1175897D01*
X1957258Y1173815D01*
X1957952Y1171038D01*
X1958878Y1168030D01*
X1959803Y1164559D01*
X1960729Y1160625D01*
X1961886Y1156229D01*
X1962811Y1151832D01*
X1964894Y1142345D01*
X1966977Y1132395D01*
X1968596Y1122214D01*
Y1122445D01*
X1968828Y1122908D01*
Y1123834D01*
X1969290Y1124991D01*
X1969522Y1126379D01*
X1969985Y1127999D01*
X1970216Y1130081D01*
X1970910Y1132395D01*
X1972067Y1137486D01*
X1973456Y1143502D01*
X1974844Y1149981D01*
X1976695Y1157154D01*
X2001686Y1260125D01*
X2023205D01*
X1979240Y1100000D01*
D02*
G37*
G36*
X2159265Y1241150D02*
X2064625D01*
Y1192326D01*
X2153249D01*
Y1173352D01*
X2064625D01*
Y1118974D01*
X2162967D01*
Y1100000D01*
X2043337D01*
Y1260125D01*
X2159265D01*
Y1241150D01*
D02*
G37*
G36*
X315557Y1265447D02*
X317639Y1265215D01*
X320185Y1264984D01*
X322730Y1264753D01*
X325738Y1264058D01*
X331986Y1262670D01*
X338928Y1260588D01*
X342399Y1259199D01*
X345638Y1257579D01*
X348878Y1255497D01*
X352117Y1253414D01*
X352349Y1253183D01*
X352811Y1252952D01*
X353737Y1252257D01*
X354894Y1251100D01*
X356051Y1249943D01*
X357671Y1248324D01*
X359290Y1246472D01*
X361142Y1244621D01*
X362993Y1242307D01*
X364844Y1239531D01*
X366926Y1236754D01*
X368778Y1233746D01*
X370397Y1230275D01*
X372248Y1226804D01*
X373637Y1223102D01*
X375025Y1218937D01*
X354200Y1214077D01*
Y1214309D01*
X353968Y1214772D01*
X353506Y1215697D01*
X353043Y1216854D01*
X352580Y1218242D01*
X351886Y1220094D01*
X350035Y1223796D01*
X347721Y1227961D01*
X344944Y1232126D01*
X341473Y1236060D01*
X337771Y1239531D01*
X337308Y1239993D01*
X335920Y1240919D01*
X333606Y1242076D01*
X330598Y1243696D01*
X326664Y1245084D01*
X322267Y1246472D01*
X316945Y1247398D01*
X311160Y1247629D01*
X309309D01*
X308152Y1247398D01*
X306533D01*
X304681Y1247167D01*
X300285Y1246472D01*
X295426Y1245547D01*
X290335Y1243927D01*
X285013Y1241613D01*
X280154Y1238605D01*
X279922D01*
X279691Y1238142D01*
X278071Y1236985D01*
X275989Y1235134D01*
X273443Y1232357D01*
X270435Y1228887D01*
X267658Y1224953D01*
X265113Y1220094D01*
X262799Y1214772D01*
Y1214540D01*
X262568Y1214077D01*
X262336Y1213383D01*
X262105Y1212226D01*
X261642Y1210838D01*
X261179Y1209218D01*
X260485Y1205284D01*
X259560Y1200656D01*
X258634Y1195566D01*
X258171Y1190012D01*
X257940Y1183996D01*
Y1183765D01*
Y1183071D01*
Y1181914D01*
Y1180525D01*
X258171Y1178905D01*
Y1176823D01*
X258403Y1174509D01*
X258634Y1171964D01*
X259328Y1166410D01*
X260485Y1160394D01*
X261873Y1154378D01*
X263725Y1148361D01*
Y1148130D01*
X263956Y1147667D01*
X264419Y1146973D01*
X264882Y1145816D01*
X266270Y1143039D01*
X268353Y1139800D01*
X270898Y1136098D01*
X274137Y1132164D01*
X277840Y1128693D01*
X282236Y1125453D01*
X282468D01*
X282930Y1125222D01*
X283625Y1124759D01*
X284550Y1124296D01*
X285707Y1123834D01*
X287095Y1123139D01*
X290335Y1121751D01*
X294500Y1120363D01*
X299128Y1119206D01*
X304219Y1118280D01*
X309541Y1118049D01*
X311160D01*
X312549Y1118280D01*
X314169D01*
X315788Y1118512D01*
X319953Y1119437D01*
X324813Y1120594D01*
X329672Y1122445D01*
X334763Y1124991D01*
X337308Y1126379D01*
X339622Y1128230D01*
X339853Y1128462D01*
X340085Y1128693D01*
X340779Y1129387D01*
X341704Y1130081D01*
X342630Y1131238D01*
X343787Y1132627D01*
X345175Y1134015D01*
X346332Y1135866D01*
X347721Y1137949D01*
X349340Y1140263D01*
X350729Y1142577D01*
X352117Y1145353D01*
X353274Y1148361D01*
X354431Y1151601D01*
X355588Y1155072D01*
X356514Y1158774D01*
X377802Y1153452D01*
Y1153221D01*
X377570Y1152295D01*
X377108Y1150907D01*
X376414Y1149056D01*
X375719Y1146973D01*
X374794Y1144428D01*
X373637Y1141651D01*
X372248Y1138643D01*
X369009Y1132164D01*
X364844Y1125685D01*
X362298Y1122445D01*
X359753Y1119206D01*
X356976Y1116429D01*
X353737Y1113652D01*
X353506Y1113421D01*
X353043Y1112958D01*
X351886Y1112495D01*
X350729Y1111570D01*
X348878Y1110413D01*
X347026Y1109256D01*
X344481Y1108099D01*
X341936Y1106942D01*
X338928Y1105554D01*
X335688Y1104397D01*
X332217Y1103240D01*
X328515Y1102083D01*
X324581Y1101157D01*
X320416Y1100694D01*
X316020Y1100231D01*
X311392Y1100000D01*
X308846D01*
X306995Y1100231D01*
X304913D01*
X302367Y1100463D01*
X299591Y1100926D01*
X296351Y1101388D01*
X289641Y1102545D01*
X282699Y1104397D01*
X275757Y1106942D01*
X272518Y1108562D01*
X269278Y1110413D01*
X269047Y1110644D01*
X268584Y1110876D01*
X267658Y1111570D01*
X266733Y1112495D01*
X265344Y1113421D01*
X263725Y1114809D01*
X261873Y1116429D01*
X260022Y1118280D01*
X258171Y1120363D01*
X256089Y1122445D01*
X251924Y1127767D01*
X247990Y1134015D01*
X244519Y1140957D01*
Y1141188D01*
X244056Y1141882D01*
X243825Y1143039D01*
X243131Y1144428D01*
X242668Y1146279D01*
X241974Y1148593D01*
X241048Y1151138D01*
X240354Y1153915D01*
X239660Y1156923D01*
X238734Y1160394D01*
X237577Y1167567D01*
X236652Y1175666D01*
X236189Y1183996D01*
Y1184228D01*
Y1185153D01*
Y1186541D01*
X236420Y1188161D01*
Y1190475D01*
X236652Y1192789D01*
X236883Y1195797D01*
X237346Y1198805D01*
X238503Y1205516D01*
X240122Y1212920D01*
X242436Y1220325D01*
X245676Y1227498D01*
X245907Y1227730D01*
X246139Y1228424D01*
X246601Y1229349D01*
X247527Y1230506D01*
X248453Y1232126D01*
X249610Y1233977D01*
X252618Y1238142D01*
X256551Y1242770D01*
X261179Y1247398D01*
X266501Y1252026D01*
X272749Y1255960D01*
X272980Y1256191D01*
X273675Y1256422D01*
X274600Y1256885D01*
X275757Y1257579D01*
X277608Y1258274D01*
X279459Y1258968D01*
X281773Y1259893D01*
X284319Y1260819D01*
X287095Y1261744D01*
X290104Y1262670D01*
X296583Y1264058D01*
X303987Y1265215D01*
X311623Y1265678D01*
X313937D01*
X315557Y1265447D01*
D02*
G37*
G36*
X520109Y1243927D02*
X425469D01*
Y1195103D01*
X514093D01*
Y1176129D01*
X425469D01*
Y1121751D01*
X523812D01*
Y1102777D01*
X404181D01*
Y1262901D01*
X520109D01*
Y1243927D01*
D02*
G37*
%LPC*%
G36*
X286779Y167508D02*
X271616D01*
Y148277D01*
X287333D01*
X288535Y148369D01*
X289830Y148462D01*
X291124Y148554D01*
X292419Y148739D01*
X293436Y148924D01*
X293620Y149016D01*
X293990Y149109D01*
X294545Y149386D01*
X295285Y149756D01*
X296024Y150126D01*
X296856Y150681D01*
X297689Y151420D01*
X298336Y152160D01*
X298428Y152252D01*
X298613Y152530D01*
X298890Y153085D01*
X299168Y153732D01*
X299445Y154471D01*
X299723Y155396D01*
X299907Y156505D01*
X300000Y157707D01*
Y157892D01*
Y158262D01*
X299907Y158817D01*
X299815Y159556D01*
X299630Y160481D01*
X299353Y161406D01*
X298983Y162330D01*
X298428Y163255D01*
X298336Y163347D01*
X298151Y163625D01*
X297781Y164087D01*
X297319Y164549D01*
X296671Y165104D01*
X295932Y165659D01*
X295007Y166213D01*
X293990Y166583D01*
X293898D01*
X293436Y166768D01*
X292788Y166860D01*
X291771Y167045D01*
X290384Y167230D01*
X288813Y167323D01*
X286779Y167508D01*
D02*
G37*
G36*
X288443Y140695D02*
X271616D01*
Y118691D01*
X289830D01*
X291771Y118783D01*
X292603Y118876D01*
X293343Y118968D01*
X293436D01*
X293805Y119061D01*
X294360Y119153D01*
X295007Y119338D01*
X296579Y119893D01*
X298151Y120632D01*
X298243Y120725D01*
X298521Y120910D01*
X298890Y121187D01*
X299353Y121557D01*
X299815Y122112D01*
X300462Y122667D01*
X300924Y123406D01*
X301479Y124238D01*
X301572Y124331D01*
X301664Y124608D01*
X301849Y125163D01*
X302126Y125810D01*
X302404Y126550D01*
X302589Y127474D01*
X302681Y128584D01*
X302774Y129693D01*
Y129878D01*
Y130248D01*
X302681Y130988D01*
X302496Y131820D01*
X302311Y132744D01*
X301941Y133761D01*
X301479Y134778D01*
X300832Y135795D01*
X300740Y135888D01*
X300462Y136258D01*
X300092Y136720D01*
X299538Y137275D01*
X298798Y137922D01*
X297873Y138569D01*
X296856Y139124D01*
X295654Y139586D01*
X295470Y139678D01*
X295100Y139771D01*
X294268Y139956D01*
X293251Y140141D01*
X291956Y140326D01*
X290384Y140511D01*
X288443Y140695D01*
D02*
G37*
G36*
X166124Y167508D02*
X147817D01*
Y144671D01*
X165014D01*
X165661Y144763D01*
X166309D01*
X167048Y144856D01*
X168805Y145041D01*
X170746Y145411D01*
X172688Y145965D01*
X174445Y146705D01*
X175277Y147167D01*
X175924Y147722D01*
X176109Y147907D01*
X176479Y148277D01*
X177033Y149016D01*
X177681Y149941D01*
X178328Y151143D01*
X178883Y152622D01*
X179252Y154286D01*
X179437Y156228D01*
Y156320D01*
Y156413D01*
Y156875D01*
X179345Y157707D01*
X179160Y158632D01*
X178975Y159649D01*
X178605Y160851D01*
X178050Y161960D01*
X177403Y163070D01*
X177311Y163162D01*
X177033Y163532D01*
X176571Y163994D01*
X176016Y164642D01*
X175184Y165289D01*
X174260Y165843D01*
X173243Y166398D01*
X172041Y166860D01*
X171948D01*
X171579Y166953D01*
X171024Y167045D01*
X170284Y167230D01*
X169175Y167323D01*
X167788Y167415D01*
X166124Y167508D01*
D02*
G37*
G36*
X390422Y168895D02*
X389867D01*
X389497Y168802D01*
X388480Y168617D01*
X387278Y168340D01*
X385892Y167785D01*
X384412Y166953D01*
X383673Y166398D01*
X382933Y165843D01*
X382286Y165104D01*
X381639Y164272D01*
Y164179D01*
X381454Y163994D01*
X381269Y163625D01*
X380991Y163162D01*
X380714Y162423D01*
X380344Y161590D01*
X380067Y160573D01*
X379697Y159372D01*
X379327Y157985D01*
X378957Y156413D01*
X378588Y154656D01*
X378310Y152715D01*
X378033Y150496D01*
X377848Y148092D01*
X377755Y145503D01*
X377663Y142637D01*
Y142452D01*
Y141990D01*
Y141158D01*
X377755Y140048D01*
Y138846D01*
X377848Y137367D01*
X377940Y135795D01*
X378125Y134131D01*
X378588Y130525D01*
X378865Y128769D01*
X379235Y127104D01*
X379605Y125533D01*
X380159Y124053D01*
X380714Y122759D01*
X381361Y121649D01*
Y121557D01*
X381546Y121465D01*
X382008Y120817D01*
X382840Y119985D01*
X383858Y119061D01*
X385244Y118136D01*
X386816Y117304D01*
X388573Y116657D01*
X389497Y116564D01*
X390514Y116472D01*
X391069D01*
X391439Y116564D01*
X392363Y116749D01*
X393658Y117119D01*
X395045Y117766D01*
X396616Y118691D01*
X397356Y119246D01*
X398096Y119985D01*
X398835Y120725D01*
X399575Y121649D01*
Y121742D01*
X399760Y121927D01*
X399945Y122204D01*
X400130Y122667D01*
X400500Y123314D01*
X400777Y124146D01*
X401147Y125070D01*
X401517Y126180D01*
X401794Y127567D01*
X402164Y129046D01*
X402534Y130803D01*
X402811Y132652D01*
X402996Y134871D01*
X403181Y137182D01*
X403366Y139771D01*
Y142637D01*
Y142729D01*
Y142822D01*
Y143284D01*
Y144116D01*
X403273Y145226D01*
Y146428D01*
X403181Y147907D01*
X403088Y149479D01*
X402903Y151235D01*
X402441Y154749D01*
X402164Y156505D01*
X401794Y158170D01*
X401424Y159741D01*
X400869Y161221D01*
X400315Y162515D01*
X399667Y163625D01*
Y163717D01*
X399483Y163809D01*
X399298Y164087D01*
X399020Y164457D01*
X398188Y165289D01*
X397171Y166306D01*
X395784Y167230D01*
X394213Y168062D01*
X393380Y168432D01*
X392456Y168710D01*
X391439Y168802D01*
X390422Y168895D01*
D02*
G37*
G36*
X340681D02*
X340126D01*
X339756Y168802D01*
X338739Y168617D01*
X337537Y168340D01*
X336150Y167785D01*
X334671Y166953D01*
X333931Y166398D01*
X333192Y165843D01*
X332544Y165104D01*
X331897Y164272D01*
Y164179D01*
X331712Y163994D01*
X331527Y163625D01*
X331250Y163162D01*
X330973Y162423D01*
X330603Y161590D01*
X330325Y160573D01*
X329956Y159372D01*
X329586Y157985D01*
X329216Y156413D01*
X328846Y154656D01*
X328569Y152715D01*
X328291Y150496D01*
X328107Y148092D01*
X328014Y145503D01*
X327922Y142637D01*
Y142452D01*
Y141990D01*
Y141158D01*
X328014Y140048D01*
Y138846D01*
X328107Y137367D01*
X328199Y135795D01*
X328384Y134131D01*
X328846Y130525D01*
X329124Y128769D01*
X329493Y127104D01*
X329863Y125533D01*
X330418Y124053D01*
X330973Y122759D01*
X331620Y121649D01*
Y121557D01*
X331805Y121465D01*
X332267Y120817D01*
X333099Y119985D01*
X334116Y119061D01*
X335503Y118136D01*
X337075Y117304D01*
X338831Y116657D01*
X339756Y116564D01*
X340773Y116472D01*
X341328D01*
X341698Y116564D01*
X342622Y116749D01*
X343917Y117119D01*
X345303Y117766D01*
X346875Y118691D01*
X347615Y119246D01*
X348354Y119985D01*
X349094Y120725D01*
X349834Y121649D01*
Y121742D01*
X350019Y121927D01*
X350204Y122204D01*
X350388Y122667D01*
X350758Y123314D01*
X351036Y124146D01*
X351405Y125070D01*
X351775Y126180D01*
X352053Y127567D01*
X352422Y129046D01*
X352792Y130803D01*
X353070Y132652D01*
X353255Y134871D01*
X353439Y137182D01*
X353624Y139771D01*
Y142637D01*
Y142729D01*
Y142822D01*
Y143284D01*
Y144116D01*
X353532Y145226D01*
Y146428D01*
X353439Y147907D01*
X353347Y149479D01*
X353162Y151235D01*
X352700Y154749D01*
X352422Y156505D01*
X352053Y158170D01*
X351683Y159741D01*
X351128Y161221D01*
X350573Y162515D01*
X349926Y163625D01*
Y163717D01*
X349741Y163809D01*
X349556Y164087D01*
X349279Y164457D01*
X348447Y165289D01*
X347430Y166306D01*
X346043Y167230D01*
X344471Y168062D01*
X343639Y168432D01*
X342715Y168710D01*
X341698Y168802D01*
X340681Y168895D01*
D02*
G37*
%LPD*%
D14*
X1770000Y770000D02*
X2170000D01*
X160000Y760000D02*
X570000D01*
X2783000Y1261000D02*
X3037000D01*
Y245000D02*
Y1261000D01*
X2783000Y245000D02*
Y1261000D01*
Y245000D02*
X3037000D01*
X119000Y496000D02*
X627000D01*
Y1004000D01*
X119000Y496000D02*
Y1004000D01*
X627000D01*
X1719000Y496000D02*
X2227000D01*
Y1004000D01*
X1719000Y496000D02*
Y1004000D01*
X2227000D01*
%TF.MD5,4b5684f5eec9c0da580f272dc253b365*%
M02*
