%TF.GenerationSoftware,Altium Limited,Altium Designer,21.2.2 (38)*%
G04 Layer_Color=65535*
%FSLAX45Y45*%
%MOMM*%
%TF.SameCoordinates,91962C55-0A3B-46C8-9624-B1D99F5FF45C*%
%TF.FilePolarity,Positive*%
%TF.FileFunction,Legend,Top*%
%TF.Part,Single*%
G01*
G75*
%TA.AperFunction,NonConductor*%
%ADD12C,0.20000*%
%ADD13C,0.25400*%
D12*
X8350000Y2000000D02*
Y2150000D01*
X9650000Y2000000D02*
Y2100000D01*
X8350000Y2150000D02*
Y3550000D01*
X9000000D01*
X9650000D01*
Y450000D02*
Y3550000D01*
X8350000Y450000D02*
X9650000D01*
X8350000D02*
Y2000000D01*
X6350000D02*
Y2150000D01*
X7650000Y2000000D02*
Y2100000D01*
X6350000Y2150000D02*
Y3550000D01*
X7000000D01*
X7650000D01*
Y450000D02*
Y3550000D01*
X6350000Y450000D02*
X7650000D01*
X6350000D02*
Y2000000D01*
X4350000D02*
Y2150000D01*
X5650000Y2000000D02*
Y2100000D01*
X4350000Y2150000D02*
Y3550000D01*
X5000000D01*
X5650000D01*
Y450000D02*
Y3550000D01*
X4350000Y450000D02*
X5650000D01*
X4350000D02*
Y2000000D01*
X2350000D02*
Y2150000D01*
X3650000Y2000000D02*
Y2100000D01*
X2350000Y2150000D02*
Y3550000D01*
X3000000D01*
X3650000D01*
Y450000D02*
Y3550000D01*
X2350000Y450000D02*
X3650000D01*
X2350000D02*
Y2000000D01*
X350000D02*
Y2150000D01*
X1650000Y2000000D02*
Y2100000D01*
X350000Y2150000D02*
Y3550000D01*
X1000000D01*
X1650000D01*
Y450000D02*
Y3550000D01*
X350000Y450000D02*
X1650000D01*
X350000D02*
Y2000000D01*
D13*
X8467007Y3788311D02*
X8416223D01*
X8441615D01*
Y3661352D01*
X8416223Y3635960D01*
X8390832D01*
X8365440Y3661352D01*
X8517791Y3635960D02*
X8568574D01*
X8543183D01*
Y3788311D01*
X8517791Y3762919D01*
X6468027Y3788311D02*
X6417243D01*
X6442635D01*
Y3661352D01*
X6417243Y3635960D01*
X6391852D01*
X6366460Y3661352D01*
X6620378Y3635960D02*
X6518811D01*
X6620378Y3737527D01*
Y3762919D01*
X6594986Y3788311D01*
X6544203D01*
X6518811Y3762919D01*
X4466507Y3788311D02*
X4415723D01*
X4441115D01*
Y3661352D01*
X4415723Y3635960D01*
X4390332D01*
X4364940Y3661352D01*
X4517291Y3762919D02*
X4542683Y3788311D01*
X4593466D01*
X4618858Y3762919D01*
Y3737527D01*
X4593466Y3712135D01*
X4568074D01*
X4593466D01*
X4618858Y3686743D01*
Y3661352D01*
X4593466Y3635960D01*
X4542683D01*
X4517291Y3661352D01*
X2467527Y3788311D02*
X2416743D01*
X2442135D01*
Y3661352D01*
X2416743Y3635960D01*
X2391352D01*
X2365960Y3661352D01*
X2594486Y3635960D02*
Y3788311D01*
X2518311Y3712135D01*
X2619878D01*
X466007Y3788311D02*
X415223D01*
X440615D01*
Y3661352D01*
X415223Y3635960D01*
X389832D01*
X364440Y3661352D01*
X618358Y3788311D02*
X516791D01*
Y3712135D01*
X567574Y3737527D01*
X592966D01*
X618358Y3712135D01*
Y3661352D01*
X592966Y3635960D01*
X542183D01*
X516791Y3661352D01*
%TF.MD5,14263c2a40514b4af097bddf13822a33*%
M02*
