%TF.GenerationSoftware,Altium Limited,Altium Designer,21.2.2 (38)*%
G04 Layer_Color=128*
%FSLAX45Y45*%
%MOMM*%
%TF.SameCoordinates,91962C55-0A3B-46C8-9624-B1D99F5FF45C*%
%TF.FilePolarity,Positive*%
%TF.FileFunction,Drillmap*%
%TF.Part,Single*%
G01*
G75*
%TA.AperFunction,NonConductor*%
%ADD18C,0.12700*%
D18*
X8802760Y2548640D02*
X8912760D01*
X8857760Y2493640D02*
Y2603640D01*
X8802760Y2274320D02*
X8912760D01*
X8857760Y2219320D02*
Y2329320D01*
X8802760Y2000000D02*
X8912760D01*
X8857760Y1945000D02*
Y2055000D01*
X8802760Y1725680D02*
X8912760D01*
X8857760Y1670680D02*
Y1780680D01*
X8802760Y1451360D02*
X8912760D01*
X8857760Y1396360D02*
Y1506360D01*
X9087240Y2411480D02*
X9197240D01*
X9142240Y2356480D02*
Y2466480D01*
X9087240Y2137160D02*
X9197240D01*
X9142240Y2082160D02*
Y2192160D01*
X9087240Y1862840D02*
X9197240D01*
X9142240Y1807840D02*
Y1917840D01*
X9087240Y1588520D02*
X9197240D01*
X9142240Y1533520D02*
Y1643520D01*
X6802760Y2548640D02*
X6912760D01*
X6857760Y2493640D02*
Y2603640D01*
X6802760Y2274320D02*
X6912760D01*
X6857760Y2219320D02*
Y2329320D01*
X6802760Y2000000D02*
X6912760D01*
X6857760Y1945000D02*
Y2055000D01*
X6802760Y1725680D02*
X6912760D01*
X6857760Y1670680D02*
Y1780680D01*
X6802760Y1451360D02*
X6912760D01*
X6857760Y1396360D02*
Y1506360D01*
X7087240Y2411480D02*
X7197240D01*
X7142240Y2356480D02*
Y2466480D01*
X7087240Y2137160D02*
X7197240D01*
X7142240Y2082160D02*
Y2192160D01*
X7087240Y1862840D02*
X7197240D01*
X7142240Y1807840D02*
Y1917840D01*
X7087240Y1588520D02*
X7197240D01*
X7142240Y1533520D02*
Y1643520D01*
X4802760Y2548640D02*
X4912760D01*
X4857760Y2493640D02*
Y2603640D01*
X4802760Y2274320D02*
X4912760D01*
X4857760Y2219320D02*
Y2329320D01*
X4802760Y2000000D02*
X4912760D01*
X4857760Y1945000D02*
Y2055000D01*
X4802760Y1725680D02*
X4912760D01*
X4857760Y1670680D02*
Y1780680D01*
X4802760Y1451360D02*
X4912760D01*
X4857760Y1396360D02*
Y1506360D01*
X5087240Y2411480D02*
X5197240D01*
X5142240Y2356480D02*
Y2466480D01*
X5087240Y2137160D02*
X5197240D01*
X5142240Y2082160D02*
Y2192160D01*
X5087240Y1862840D02*
X5197240D01*
X5142240Y1807840D02*
Y1917840D01*
X5087240Y1588520D02*
X5197240D01*
X5142240Y1533520D02*
Y1643520D01*
X2802760Y2548640D02*
X2912760D01*
X2857760Y2493640D02*
Y2603640D01*
X2802760Y2274320D02*
X2912760D01*
X2857760Y2219320D02*
Y2329320D01*
X2802760Y2000000D02*
X2912760D01*
X2857760Y1945000D02*
Y2055000D01*
X2802760Y1725680D02*
X2912760D01*
X2857760Y1670680D02*
Y1780680D01*
X2802760Y1451360D02*
X2912760D01*
X2857760Y1396360D02*
Y1506360D01*
X3087240Y2411480D02*
X3197240D01*
X3142240Y2356480D02*
Y2466480D01*
X3087240Y2137160D02*
X3197240D01*
X3142240Y2082160D02*
Y2192160D01*
X3087240Y1862840D02*
X3197240D01*
X3142240Y1807840D02*
Y1917840D01*
X3087240Y1588520D02*
X3197240D01*
X3142240Y1533520D02*
Y1643520D01*
X802760Y2548640D02*
X912760D01*
X857760Y2493640D02*
Y2603640D01*
X802760Y2274320D02*
X912760D01*
X857760Y2219320D02*
Y2329320D01*
X802760Y2000000D02*
X912760D01*
X857760Y1945000D02*
Y2055000D01*
X802760Y1725680D02*
X912760D01*
X857760Y1670680D02*
Y1780680D01*
X802760Y1451360D02*
X912760D01*
X857760Y1396360D02*
Y1506360D01*
X1087240Y2411480D02*
X1197240D01*
X1142240Y2356480D02*
Y2466480D01*
X1087240Y2137160D02*
X1197240D01*
X1142240Y2082160D02*
Y2192160D01*
X1087240Y1862840D02*
X1197240D01*
X1142240Y1807840D02*
Y1917840D01*
X1087240Y1588520D02*
X1197240D01*
X1142240Y1533520D02*
Y1643520D01*
X8840000Y3249680D02*
X9160000D01*
X9000000Y3089680D02*
Y3409680D01*
X8840000Y749680D02*
X9160000D01*
X9000000Y589680D02*
Y909680D01*
X6840000Y3249680D02*
X7160000D01*
X7000000Y3089680D02*
Y3409680D01*
X6840000Y749680D02*
X7160000D01*
X7000000Y589680D02*
Y909680D01*
X4840000Y3249680D02*
X5160000D01*
X5000000Y3089680D02*
Y3409680D01*
X4840000Y749680D02*
X5160000D01*
X5000000Y589680D02*
Y909680D01*
X2840000Y3249680D02*
X3160000D01*
X3000000Y3089680D02*
Y3409680D01*
X2840000Y749680D02*
X3160000D01*
X3000000Y589680D02*
Y909680D01*
X840000Y3249680D02*
X1160000D01*
X1000000Y3089680D02*
Y3409680D01*
X840000Y749680D02*
X1160000D01*
X1000000Y589680D02*
Y909680D01*
%TF.MD5,6628075438c6469e25be41ee7bc39a09*%
M02*
