%TF.GenerationSoftware,Altium Limited,Altium Designer,20.2.6 (244)*%
G04 Layer_Color=8388736*
%FSLAX45Y45*%
%MOMM*%
%TF.SameCoordinates,BE144905-350C-4E41-9AB6-63F68E724E9C*%
%TF.FilePolarity,Positive*%
%TF.FileFunction,Other,Mechanical_2*%
%TF.Part,Single*%
G01*
G75*
%TA.AperFunction,NonConductor*%
%ADD61C,0.20000*%
%ADD63C,0.10000*%
%ADD76C,0.25400*%
D61*
X290000Y2170000D02*
Y2250000D01*
Y2170000D02*
X470000D01*
Y2250000D01*
X290000D02*
X470000D01*
X1240000Y920000D02*
X1320000D01*
X1240000Y740000D02*
Y920000D01*
Y740000D02*
X1320000D01*
Y920000D01*
X1365025Y850000D02*
X1445025D01*
Y1030000D01*
X1365025D02*
X1445025D01*
X1365025Y850000D02*
Y1030000D01*
X1490050Y840000D02*
X1570050D01*
Y1020000D01*
X1490050D02*
X1570050D01*
X1490050Y840000D02*
Y1020000D01*
X500000Y970000D02*
X580000D01*
X500000Y790000D02*
Y970000D01*
Y790000D02*
X580000D01*
Y970000D01*
X370000D02*
X450000D01*
X370000Y790000D02*
Y970000D01*
Y790000D02*
X450000D01*
Y970000D01*
X1390000Y1490000D02*
X1470000D01*
X1390000Y1310000D02*
Y1490000D01*
Y1310000D02*
X1470000D01*
Y1490000D01*
D63*
X1145000Y1950000D02*
X1395000D01*
X1145000Y1650000D02*
Y1950000D01*
Y1650000D02*
X1395000D01*
Y1950000D01*
D76*
X600000Y2760000D02*
X1300000D01*
Y2060000D02*
Y2760000D01*
X600000Y2060000D02*
X1300000D01*
X600000D02*
Y2760000D01*
%TF.MD5,8a7d8cd2da8d0cdbe57ac6791d1c7f13*%
M02*
