%TF.GenerationSoftware,Altium Limited,Altium Designer,20.2.6 (244)*%
G04 Layer_Color=16711935*
%FSLAX45Y45*%
%MOMM*%
%TF.SameCoordinates,BE144905-350C-4E41-9AB6-63F68E724E9C*%
%TF.FilePolarity,Negative*%
%TF.FileFunction,Soldermask,Bot*%
%TF.Part,Single*%
G01*
G75*
%TA.AperFunction,ComponentPad*%
%ADD50C,1.10000*%
%ADD51R,1.10000X1.10000*%
G04:AMPARAMS|DCode=52|XSize=1.1mm|YSize=1.1mm|CornerRadius=0.275mm|HoleSize=0mm|Usage=FLASHONLY|Rotation=270.000|XOffset=0mm|YOffset=0mm|HoleType=Round|Shape=RoundedRectangle|*
%AMROUNDEDRECTD52*
21,1,1.10000,0.55000,0,0,270.0*
21,1,0.55000,1.10000,0,0,270.0*
1,1,0.55000,-0.27500,-0.27500*
1,1,0.55000,-0.27500,0.27500*
1,1,0.55000,0.27500,0.27500*
1,1,0.55000,0.27500,-0.27500*
%
%ADD52ROUNDEDRECTD52*%
G04:AMPARAMS|DCode=53|XSize=1.1mm|YSize=1.1mm|CornerRadius=0.1375mm|HoleSize=0mm|Usage=FLASHONLY|Rotation=270.000|XOffset=0mm|YOffset=0mm|HoleType=Round|Shape=RoundedRectangle|*
%AMROUNDEDRECTD53*
21,1,1.10000,0.82500,0,0,270.0*
21,1,0.82500,1.10000,0,0,270.0*
1,1,0.27500,-0.41250,-0.41250*
1,1,0.27500,-0.41250,0.41250*
1,1,0.27500,0.41250,0.41250*
1,1,0.27500,0.41250,-0.41250*
%
%ADD53ROUNDEDRECTD53*%
%ADD55R,1.10000X1.10000*%
%TA.AperFunction,ViaPad*%
%ADD56C,0.65000*%
%TA.AperFunction,SMDPad,CuDef*%
%ADD57R,2.70000X1.80000*%
%ADD58R,1.00000X3.20000*%
%ADD59R,1.50000X0.40000*%
%ADD60C,5.00000*%
G36*
X6028404Y1211163D02*
X6028116Y1214817D01*
X6027638Y1218450D01*
X6026970Y1222054D01*
X6026115Y1225617D01*
X6025074Y1229131D01*
X6023851Y1232586D01*
X6022448Y1235971D01*
X6020870Y1239279D01*
X6019122Y1242500D01*
X6017207Y1245625D01*
X6015131Y1248645D01*
X6012900Y1251552D01*
X6010520Y1254339D01*
X6007997Y1256997D01*
X6005339Y1259520D01*
X6002552Y1261900D01*
X5999645Y1264131D01*
X5996625Y1266207D01*
X5993500Y1268122D01*
X5990279Y1269870D01*
X5986972Y1271448D01*
X5983586Y1272851D01*
X5980131Y1274074D01*
X5976617Y1275115D01*
X5973054Y1275970D01*
X5969450Y1276638D01*
X5965817Y1277117D01*
X5962163Y1277404D01*
X5958500Y1277500D01*
X5903500D01*
X5899836Y1277404D01*
X5896183Y1277117D01*
X5892550Y1276638D01*
X5888946Y1275970D01*
X5885382Y1275115D01*
X5881869Y1274074D01*
X5878414Y1272851D01*
X5875028Y1271448D01*
X5871721Y1269870D01*
X5868500Y1268122D01*
X5865375Y1266207D01*
X5862355Y1264131D01*
X5859448Y1261900D01*
X5856661Y1259520D01*
X5854003Y1256997D01*
X5851480Y1254339D01*
X5849100Y1251552D01*
X5846869Y1248645D01*
X5844793Y1245625D01*
X5842878Y1242500D01*
X5841130Y1239279D01*
X5839552Y1235971D01*
X5838149Y1232586D01*
X5836926Y1229131D01*
X5835885Y1225617D01*
X5835029Y1222054D01*
X5834362Y1218450D01*
X5833883Y1214817D01*
X5833596Y1211163D01*
X5833500Y1207500D01*
X5833596Y1203836D01*
X5833883Y1200183D01*
X5834362Y1196550D01*
X5835029Y1192946D01*
X5835885Y1189383D01*
X5836926Y1185869D01*
X5838149Y1182414D01*
X5839552Y1179028D01*
X5841130Y1175721D01*
X5842878Y1172500D01*
X5844793Y1169375D01*
X5846869Y1166355D01*
X5849100Y1163448D01*
X5851480Y1160661D01*
X5854003Y1158003D01*
X5856661Y1155480D01*
X5859448Y1153100D01*
X5862355Y1150869D01*
X5865375Y1148793D01*
X5868500Y1146878D01*
X5871721Y1145130D01*
X5875028Y1143552D01*
X5878414Y1142149D01*
X5881869Y1140926D01*
X5885382Y1139885D01*
X5888946Y1139029D01*
X5892550Y1138362D01*
X5896183Y1137883D01*
X5899836Y1137596D01*
X5903500Y1137500D01*
X5958500D01*
X5962163Y1137596D01*
X5965817Y1137883D01*
X5969450Y1138362D01*
X5973054Y1139029D01*
X5976617Y1139885D01*
X5980131Y1140926D01*
X5983586Y1142149D01*
X5986972Y1143552D01*
X5990279Y1145130D01*
X5993500Y1146878D01*
X5996625Y1148793D01*
X5999645Y1150869D01*
X6002552Y1153100D01*
X6005339Y1155480D01*
X6007997Y1158003D01*
X6010520Y1160661D01*
X6012900Y1163448D01*
X6015131Y1166355D01*
X6017207Y1169375D01*
X6019122Y1172500D01*
X6020870Y1175721D01*
X6022448Y1179028D01*
X6023851Y1182414D01*
X6025074Y1185869D01*
X6026115Y1189383D01*
X6026970Y1192946D01*
X6027638Y1196550D01*
X6028116Y1200183D01*
X6028404Y1203836D01*
X6028500Y1207500D01*
X6028404Y1211163D01*
D02*
G37*
G36*
Y1926164D02*
X6028116Y1929817D01*
X6027638Y1933450D01*
X6026970Y1937054D01*
X6026115Y1940617D01*
X6025074Y1944131D01*
X6023851Y1947586D01*
X6022448Y1950971D01*
X6020870Y1954279D01*
X6019122Y1957500D01*
X6017207Y1960625D01*
X6015131Y1963645D01*
X6012900Y1966552D01*
X6010520Y1969339D01*
X6007997Y1971997D01*
X6005339Y1974520D01*
X6002552Y1976900D01*
X5999645Y1979131D01*
X5996625Y1981207D01*
X5993500Y1983122D01*
X5990279Y1984870D01*
X5986972Y1986448D01*
X5983586Y1987850D01*
X5980131Y1989074D01*
X5976617Y1990115D01*
X5973054Y1990970D01*
X5969450Y1991638D01*
X5965817Y1992116D01*
X5962163Y1992404D01*
X5958500Y1992500D01*
X5903500D01*
X5899836Y1992404D01*
X5896183Y1992116D01*
X5892550Y1991638D01*
X5888946Y1990970D01*
X5885382Y1990115D01*
X5881869Y1989074D01*
X5878414Y1987850D01*
X5875028Y1986448D01*
X5871721Y1984870D01*
X5868500Y1983122D01*
X5865375Y1981207D01*
X5862355Y1979131D01*
X5859448Y1976900D01*
X5856661Y1974520D01*
X5854003Y1971997D01*
X5851480Y1969339D01*
X5849100Y1966552D01*
X5846869Y1963645D01*
X5844793Y1960625D01*
X5842878Y1957500D01*
X5841130Y1954279D01*
X5839552Y1950971D01*
X5838149Y1947586D01*
X5836926Y1944131D01*
X5835885Y1940617D01*
X5835029Y1937054D01*
X5834362Y1933450D01*
X5833883Y1929817D01*
X5833596Y1926164D01*
X5833500Y1922500D01*
X5833596Y1918836D01*
X5833883Y1915183D01*
X5834362Y1911549D01*
X5835029Y1907946D01*
X5835885Y1904383D01*
X5836926Y1900869D01*
X5838149Y1897414D01*
X5839552Y1894028D01*
X5841130Y1890721D01*
X5842878Y1887500D01*
X5844793Y1884375D01*
X5846869Y1881355D01*
X5849100Y1878448D01*
X5851480Y1875661D01*
X5854003Y1873002D01*
X5856661Y1870480D01*
X5859448Y1868100D01*
X5862355Y1865869D01*
X5865375Y1863793D01*
X5868500Y1861878D01*
X5871721Y1860129D01*
X5875028Y1858552D01*
X5878414Y1857149D01*
X5881869Y1855926D01*
X5885382Y1854885D01*
X5888946Y1854030D01*
X5892550Y1853362D01*
X5896183Y1852883D01*
X5899836Y1852596D01*
X5903500Y1852500D01*
X5958500D01*
X5962163Y1852596D01*
X5965817Y1852883D01*
X5969450Y1853362D01*
X5973054Y1854030D01*
X5976617Y1854885D01*
X5980131Y1855926D01*
X5983586Y1857149D01*
X5986972Y1858552D01*
X5990279Y1860129D01*
X5993500Y1861878D01*
X5996625Y1863793D01*
X5999645Y1865869D01*
X6002552Y1868100D01*
X6005339Y1870480D01*
X6007997Y1873002D01*
X6010520Y1875661D01*
X6012900Y1878448D01*
X6015131Y1881355D01*
X6017207Y1884375D01*
X6019122Y1887500D01*
X6020870Y1890721D01*
X6022448Y1894028D01*
X6023851Y1897414D01*
X6025074Y1900869D01*
X6026115Y1904383D01*
X6026970Y1907946D01*
X6027638Y1911549D01*
X6028116Y1915183D01*
X6028404Y1918836D01*
X6028500Y1922500D01*
X6028404Y1926164D01*
D02*
G37*
D50*
X3856000Y2760000D02*
D03*
X3983000D02*
D03*
X4110000D02*
D03*
X4237000D02*
D03*
X4364000D02*
D03*
X5530000Y1213000D02*
D03*
Y1340000D02*
D03*
D51*
X4491000Y2760000D02*
D03*
D52*
X1056000Y190000D02*
D03*
X1183000D02*
D03*
X1310000D02*
D03*
X1437000D02*
D03*
D53*
X1564000D02*
D03*
D55*
X5530000Y1467000D02*
D03*
D56*
X3470000Y410000D02*
D03*
X3520000Y330000D02*
D03*
D57*
X5990000Y363000D02*
D03*
Y617000D02*
D03*
D58*
X3590000Y1655025D02*
D03*
Y2335026D02*
D03*
X3190000D02*
D03*
Y1655025D02*
D03*
D59*
X6020000Y1435000D02*
D03*
Y1500000D02*
D03*
Y1565000D02*
D03*
Y1630000D02*
D03*
Y1695000D02*
D03*
D60*
X692500Y712500D02*
D03*
Y1460000D02*
D03*
Y2212500D02*
D03*
%TF.MD5,c22d3385c3cc2e37eea525d9430fae67*%
M02*
