%TF.GenerationSoftware,Altium Limited,Altium Designer,20.2.6 (244)*%
G04 Layer_Color=16711935*
%FSLAX45Y45*%
%MOMM*%
%TF.SameCoordinates,BE144905-350C-4E41-9AB6-63F68E724E9C*%
%TF.FilePolarity,Positive*%
%TF.FileFunction,Other,Mechanical_1*%
%TF.Part,Single*%
G01*
G75*
%TA.AperFunction,NonConductor*%
%ADD77C,0.01270*%
%ADD78C,0.01300*%
D77*
X641Y514868D02*
G03*
X487843Y23521I488957J-2388D01*
G01*
X687782Y2901799D02*
G03*
X688417Y2901802I318J1D01*
G01*
X575411Y2901390D02*
G03*
X576046Y2901392I318J1D01*
G01*
X487527Y2901183D02*
G03*
X488162Y2901185I318J1D01*
G01*
X1796870Y2561256D02*
G03*
X1796870Y2561256I-102500J0D01*
G01*
X446872Y2562765D02*
G03*
X446872Y2562765I-102500J0D01*
G01*
X446851Y362717D02*
G03*
X446851Y362717I-102500J0D01*
G01*
X1796870Y361260D02*
G03*
X1796870Y361260I-102500J0D01*
G01*
X1575584Y712908D02*
G03*
X1575584Y712908I-210000J0D01*
G01*
X1574196Y1462500D02*
G03*
X1574196Y1462500I-210000J0D01*
G01*
X1574194Y2213272D02*
G03*
X1574194Y2213272I-210000J0D01*
G01*
X904202Y2212520D02*
G03*
X904202Y2212520I-210000J0D01*
G01*
X904197Y1462511D02*
G03*
X904197Y1462511I-210000J0D01*
G01*
X904191Y712503D02*
G03*
X904191Y712503I-210000J0D01*
G01*
D02*
G03*
X904191Y712503I-210000J0D01*
G01*
X904197Y1462511D02*
G03*
X904197Y1462511I-210000J0D01*
G01*
X904202Y2212520D02*
G03*
X904202Y2212520I-210000J0D01*
G01*
X1574194Y2213272D02*
G03*
X1574194Y2213272I-210000J0D01*
G01*
X1574196Y1462500D02*
G03*
X1574196Y1462500I-210000J0D01*
G01*
X1575584Y712908D02*
G03*
X1575584Y712908I-210000J0D01*
G01*
X487843Y2900866D02*
G03*
X641Y2409519I1740J-488945D01*
G01*
X5888304Y641D02*
G03*
X6379652Y487842I2379J488967D01*
G01*
X6379652Y2436545D02*
G03*
X5888305Y2923747I-488929J-1724D01*
G01*
X941018Y2212187D02*
G03*
X941018Y2212187I-250000J0D01*
G01*
X944195Y1462194D02*
G03*
X944195Y1462194I-250000J0D01*
G01*
X941018Y712200D02*
G03*
X941018Y712200I-250000J0D01*
G01*
D02*
G03*
X941018Y712200I-250000J0D01*
G01*
X944195Y1462194D02*
G03*
X944195Y1462194I-250000J0D01*
G01*
X941018Y2212187D02*
G03*
X941018Y2212187I-250000J0D01*
G01*
X688098Y22904D02*
X5688052Y1721D01*
X641Y514868D02*
X1308Y626787D01*
X1722Y2209265D02*
X4885Y1462194D01*
X1722Y715122D02*
X4885Y1462194D01*
X6380269Y688098D02*
X6383551Y1462194D01*
X6380269Y2236289D02*
X6383551Y1462194D01*
X5800422Y2923209D02*
X5888305Y2923747D01*
X5688052Y2922666D02*
X5800422Y2923209D01*
X599764Y2901148D02*
X688098Y2901483D01*
X487843Y2900866D02*
X599764Y2901148D01*
X641Y2409519D02*
X1179Y2321636D01*
X1722Y2209265D01*
X1308Y626787D02*
X1722Y715122D01*
X487843Y23521D02*
X575728Y23314D01*
X688098Y22904D01*
X5688052Y1721D02*
X5776386Y1307D01*
X5888305Y640D01*
X6379652Y487842D02*
X6379859Y575727D01*
X6380269Y688098D01*
X6379934Y2324624D02*
X6380269Y2236289D01*
X6379652Y2436545D02*
X6379934Y2324624D01*
D78*
X2550250Y2900250D02*
X5688052Y2922666D01*
X2200000Y2550000D02*
X2550250Y2900250D01*
X2000000Y2550000D02*
X2200000D01*
X1648198Y2901802D02*
X2000000Y2550000D01*
X688417Y2901802D02*
X1648198D01*
%TF.MD5,61a9d26e72768ea679105d23e0efe1a4*%
M02*
