%TF.GenerationSoftware,Altium Limited,Altium Designer,20.2.6 (244)*%
G04 Layer_Color=32768*
%FSLAX45Y45*%
%MOMM*%
%TF.SameCoordinates,BE144905-350C-4E41-9AB6-63F68E724E9C*%
%TF.FilePolarity,Positive*%
%TF.FileFunction,Other,Mechanical_15*%
%TF.Part,Single*%
G01*
G75*
%TA.AperFunction,NonConductor*%
%ADD61C,0.20000*%
%ADD63C,0.10000*%
%ADD76C,0.25400*%
%ADD79C,0.05000*%
D61*
X290000Y2250000D02*
X470000D01*
Y2170000D02*
Y2250000D01*
X290000Y2170000D02*
X470000D01*
X290000D02*
Y2250000D01*
X1320000Y740000D02*
Y920000D01*
X1240000Y740000D02*
X1320000D01*
X1240000D02*
Y920000D01*
X1320000D01*
X1365025Y850000D02*
Y1030000D01*
X1445025D01*
Y850000D02*
Y1030000D01*
X1365025Y850000D02*
X1445025D01*
X1490050Y840000D02*
Y1020000D01*
X1570050D01*
Y840000D02*
Y1020000D01*
X1490050Y840000D02*
X1570050D01*
X580000Y790000D02*
Y970000D01*
X500000Y790000D02*
X580000D01*
X500000D02*
Y970000D01*
X580000D01*
X450000Y790000D02*
Y970000D01*
X370000Y790000D02*
X450000D01*
X370000D02*
Y970000D01*
X450000D01*
X1470000Y1310000D02*
Y1490000D01*
X1390000Y1310000D02*
X1470000D01*
X1390000D02*
Y1490000D01*
X1470000D01*
D63*
X4667475Y1570050D02*
X4767475D01*
X4717475Y1520050D02*
Y1620050D01*
X5830000Y300000D02*
Y400000D01*
X5780000Y350000D02*
X5880000D01*
X4040000Y1390000D02*
X4100000D01*
X4070000Y1360000D02*
Y1420000D01*
X3910000Y1232500D02*
Y1327500D01*
X3862500Y1280000D02*
X3957500D01*
X3676000Y1200000D02*
X3736000D01*
X3706000Y1170000D02*
Y1230000D01*
X3240000Y1150000D02*
Y1210000D01*
X3210000Y1180000D02*
X3270000D01*
X3550000Y2150000D02*
X3610000D01*
X3580000Y2120000D02*
Y2180000D01*
X3552475Y1900000D02*
X3612475D01*
X3582475Y1870000D02*
Y1930000D01*
X3880000Y1640000D02*
Y1700000D01*
X3850000Y1670000D02*
X3910000D01*
X4109975Y2267576D02*
X4204975D01*
X4157475Y2220076D02*
Y2315076D01*
X3947500Y2300000D02*
Y2360000D01*
X3917500Y2330000D02*
X3977500D01*
X3950000Y2560000D02*
X4010000D01*
X3980000Y2530000D02*
Y2590000D01*
X4657475Y2495076D02*
X4717475D01*
X4687475Y2465076D02*
Y2525076D01*
X4562450Y2280051D02*
X4622450D01*
X4592450Y2250051D02*
Y2310051D01*
X4697475Y2280051D02*
X4757475D01*
X4727475Y2250051D02*
Y2310050D01*
X4837384Y2280051D02*
X4897384D01*
X4867384Y2250051D02*
Y2310051D01*
X4877475Y2495077D02*
X4937475D01*
X4907475Y2465077D02*
Y2525077D01*
X5098794Y2490000D02*
X5158794D01*
X5128794Y2460000D02*
Y2520000D01*
X5222500Y2660000D02*
X5417500D01*
Y2405000D02*
Y2660000D01*
X5222500Y2405000D02*
X5417500D01*
X5222500D02*
Y2660000D01*
X5430026Y1992500D02*
X5525026D01*
X5477525Y1945000D02*
Y2040000D01*
X5600000Y2470000D02*
Y2570000D01*
X5550000Y2520000D02*
X5650000D01*
X5890000Y2645041D02*
Y2705041D01*
X5860000Y2675041D02*
X5920000D01*
X6160000Y2187500D02*
X6220000D01*
X6190000Y2157500D02*
Y2217500D01*
X5767500Y1655025D02*
Y1715025D01*
X5737500Y1685025D02*
X5797500D01*
X5770000Y1520000D02*
Y1580000D01*
X5740000Y1550000D02*
X5800000D01*
X5547500Y1000000D02*
Y1060000D01*
X5517500Y1030000D02*
X5577500D01*
X5550000Y864975D02*
Y924975D01*
X5520000Y894975D02*
X5580000D01*
X5084000Y937525D02*
Y997525D01*
X5054000Y967525D02*
X5114000D01*
X5090000Y762500D02*
Y857500D01*
X5042500Y810000D02*
X5137500D01*
X5830000Y560000D02*
Y660000D01*
X5780000Y610000D02*
X5880000D01*
X5442475Y490000D02*
X5537474D01*
X5489975Y442500D02*
Y537500D01*
X5200000Y420000D02*
Y520000D01*
X5150000Y470000D02*
X5250000D01*
X4842500Y530000D02*
X4937500D01*
X4890000Y482500D02*
Y577500D01*
X4860000Y267500D02*
X4920000D01*
X4890000Y237500D02*
Y297500D01*
X4579974Y350000D02*
Y450000D01*
X4529974Y400000D02*
X4629974D01*
X2900000Y370000D02*
X2960000D01*
X2930000Y340000D02*
Y400000D01*
X2712500Y380000D02*
X2807500D01*
X2760000Y332500D02*
Y427500D01*
X2527474Y380000D02*
X2622474D01*
X2574974Y332500D02*
Y427500D01*
X2260000Y1415000D02*
X2360000D01*
X2310000Y1365000D02*
Y1465000D01*
X2230000Y1275000D02*
Y1555000D01*
X2390000Y1275000D02*
Y1555000D01*
X2230000Y1275000D02*
X2390000D01*
X2230000Y1555000D02*
X2390000D01*
X2515025Y1595026D02*
Y1655025D01*
X2485026Y1625025D02*
X2545025D01*
X2515025Y1460000D02*
Y1520000D01*
X2485026Y1490000D02*
X2545025D01*
X2515025Y1320000D02*
Y1380000D01*
X2485026Y1350000D02*
X2545025D01*
X2820000Y1610000D02*
Y1670000D01*
X2790000Y1640000D02*
X2850000D01*
X2457475Y1926000D02*
X2517475D01*
X2487475Y1896000D02*
Y1956000D01*
X380000Y2290000D02*
Y2390000D01*
X330000Y2340000D02*
X430000D01*
X240000Y2260000D02*
X520000D01*
X240000Y2420000D02*
X520000D01*
Y2260000D02*
Y2420000D01*
X240000Y2260000D02*
Y2420000D01*
X1280000Y440000D02*
Y540000D01*
X1230000Y490000D02*
X1330000D01*
X440000Y1309975D02*
Y1409975D01*
X390000Y1359975D02*
X490000D01*
X300000Y1279975D02*
X580000D01*
X300000Y1439975D02*
X580000D01*
Y1279975D02*
Y1439975D01*
X300000Y1279975D02*
Y1439975D01*
X1540025Y1410000D02*
X1640025D01*
X1590025Y1360000D02*
Y1460000D01*
X1510025Y1270000D02*
Y1550000D01*
X1670025Y1270000D02*
Y1550000D01*
X1510025Y1270000D02*
X1670025D01*
X1510025Y1550000D02*
X1670025D01*
X1145000Y1950000D02*
X1395000D01*
X1145000Y1650000D02*
Y1950000D01*
Y1650000D02*
X1395000D01*
Y1950000D01*
X3140000Y1307525D02*
X3780000D01*
X3140000D02*
Y1713925D01*
X3780000D01*
Y1307525D02*
Y1713925D01*
X5600000Y2700000D02*
Y2760000D01*
X5570000Y2730000D02*
X5630000D01*
X6190000Y1937500D02*
Y1997500D01*
X6160000Y1967500D02*
X6220000D01*
X5320000Y1920000D02*
Y1980000D01*
X5290000Y1950000D02*
X5350000D01*
X2700000Y2050000D02*
X2800000D01*
X2750000Y2000000D02*
Y2100000D01*
X4580000Y800000D02*
X4680000D01*
X4630000Y750000D02*
Y850000D01*
X4331475Y2180051D02*
X4391475D01*
X4361475Y2150051D02*
Y2210050D01*
D76*
X600000Y2760000D02*
X1300000D01*
Y2060000D02*
Y2760000D01*
X600000Y2060000D02*
X1300000D01*
X600000D02*
Y2760000D01*
D79*
X4197475Y1050050D02*
Y2090050D01*
X5237475Y1050050D02*
Y2090050D01*
X4197475D02*
X5237475D01*
X4197475Y1050050D02*
X5237475D01*
X5605000Y450000D02*
X6055000D01*
X5605000Y250000D02*
X6055000D01*
X5605000D02*
Y450000D01*
X6055000Y250000D02*
Y450000D01*
X6155100Y248700D02*
Y731300D01*
X5824900D02*
X6155100D01*
X5824900Y248700D02*
Y731300D01*
Y248700D02*
X6155100D01*
X4020000Y1295000D02*
Y1485000D01*
X4120000Y1295000D02*
Y1485000D01*
X4020000Y1295000D02*
X4120000D01*
X4020000Y1485000D02*
X4120000D01*
X3835000Y1145000D02*
X3985000D01*
X3835000Y1415000D02*
X3985000D01*
X3835000Y1145000D02*
Y1415000D01*
X3985000Y1145000D02*
Y1415000D01*
X3611000Y1150000D02*
Y1250000D01*
X3801000Y1150000D02*
Y1250000D01*
X3611000D02*
X3801000D01*
X3611000Y1150000D02*
X3801000D01*
X3190000Y1085000D02*
X3290000D01*
X3190000Y1275000D02*
X3290000D01*
X3190000Y1085000D02*
Y1275000D01*
X3290000Y1085000D02*
Y1275000D01*
X3485000Y2100000D02*
Y2200000D01*
X3675000Y2100000D02*
Y2200000D01*
X3485000D02*
X3675000D01*
X3485000Y2100000D02*
X3675000D01*
X3487475Y1850000D02*
Y1950000D01*
X3677475Y1850000D02*
Y1950000D01*
X3487475D02*
X3677475D01*
X3487475Y1850000D02*
X3677475D01*
X3830000Y1765000D02*
X3930000D01*
X3830000Y1575000D02*
X3930000D01*
Y1765000D01*
X3830000Y1575000D02*
Y1765000D01*
X4082475Y2132576D02*
Y2402576D01*
X4232475Y2132576D02*
Y2402576D01*
X4082475Y2132576D02*
X4232475D01*
X4082475Y2402576D02*
X4232475D01*
X3857500Y2375000D02*
X4037500D01*
X3857500Y2285000D02*
X4037500D01*
X3857500D02*
Y2375000D01*
X4037500Y2285000D02*
Y2375000D01*
X3935000Y2470000D02*
Y2650000D01*
X4025000Y2470000D02*
Y2650000D01*
X3935000Y2470000D02*
X4025000D01*
X3935000Y2650000D02*
X4025000D01*
X4732475Y2405076D02*
Y2585076D01*
X4642475Y2405076D02*
Y2585076D01*
X4732475D01*
X4642475Y2405076D02*
X4732475D01*
X4547450Y2190051D02*
Y2370051D01*
X4637450Y2190051D02*
Y2370051D01*
X4547450Y2190051D02*
X4637450D01*
X4547450Y2370051D02*
X4637450D01*
X4682475Y2190050D02*
Y2370051D01*
X4772475Y2190050D02*
Y2370051D01*
X4682475Y2190050D02*
X4772475D01*
X4682475Y2370051D02*
X4772475D01*
X4822384Y2190051D02*
Y2370051D01*
X4912384Y2190051D02*
Y2370051D01*
X4822384Y2190051D02*
X4912384D01*
X4822384Y2370051D02*
X4912384D01*
X4952475Y2405077D02*
Y2585077D01*
X4862475Y2405077D02*
Y2585077D01*
X4952475D01*
X4862475Y2405077D02*
X4952475D01*
X5078794Y2395000D02*
Y2585000D01*
X5178794Y2395000D02*
Y2585000D01*
X5078794Y2395000D02*
X5178794D01*
X5078794Y2585000D02*
X5178794D01*
X5552526Y1857500D02*
Y2127500D01*
X5402526Y1857500D02*
Y2127500D01*
X5552526D01*
X5402526Y1857500D02*
X5552526D01*
X5500000Y2397500D02*
X5700000D01*
X5500000Y2642500D02*
X5700000D01*
X5500000Y2397500D02*
Y2642500D01*
X5700000Y2397500D02*
Y2642500D01*
X5795000Y2725041D02*
X5985000D01*
X5795000Y2625041D02*
X5985000D01*
X5795000D02*
Y2725041D01*
X5985000Y2625041D02*
Y2725041D01*
X6145000Y2097500D02*
Y2277500D01*
X6235000Y2097500D02*
Y2277500D01*
X6145000Y2097500D02*
X6235000D01*
X6145000Y2277500D02*
X6235000D01*
X5677500Y1640025D02*
X5857500D01*
X5677500Y1730025D02*
X5857500D01*
Y1640025D02*
Y1730025D01*
X5677500Y1640025D02*
Y1730025D01*
X5680000Y1505000D02*
X5860000D01*
X5680000Y1595000D02*
X5860000D01*
Y1505000D02*
Y1595000D01*
X5680000Y1505000D02*
Y1595000D01*
X5457500Y1075000D02*
X5637500D01*
X5457500Y985000D02*
X5637500D01*
X5457500D02*
Y1075000D01*
X5637500Y985000D02*
Y1075000D01*
X5460000Y939975D02*
X5640000D01*
X5460000Y849975D02*
X5640000D01*
X5460000D02*
Y939975D01*
X5640000Y849975D02*
Y939975D01*
X4989000Y917525D02*
X5179000D01*
X4989000Y1017525D02*
X5179000D01*
Y917525D02*
Y1017525D01*
X4989000Y917525D02*
Y1017525D01*
X4955000Y735000D02*
X5225000D01*
X4955000Y885000D02*
X5225000D01*
Y735000D02*
Y885000D01*
X4955000Y735000D02*
Y885000D01*
X5605000Y710000D02*
X6055000D01*
X5605000Y510000D02*
X6055000D01*
X5605000D02*
Y710000D01*
X6055000Y510000D02*
Y710000D01*
X5414974Y355000D02*
Y625000D01*
X5564974Y355000D02*
Y625000D01*
X5414974Y355000D02*
X5564974D01*
X5414974Y625000D02*
X5564974D01*
X5025000Y260000D02*
X5375000D01*
X5025000Y657500D02*
X5375000D01*
X5025000Y260000D02*
Y657500D01*
X5375000Y260000D02*
Y657500D01*
X4815000Y395000D02*
Y665000D01*
X4965000Y395000D02*
Y665000D01*
X4815000Y395000D02*
X4965000D01*
X4815000Y665000D02*
X4965000D01*
X4935000Y177500D02*
Y357500D01*
X4845000Y177500D02*
Y357500D01*
X4935000D01*
X4845000Y177500D02*
X4935000D01*
X4404974Y610000D02*
X4754974D01*
X4404974Y212500D02*
X4754974D01*
Y610000D01*
X4404974Y212500D02*
Y610000D01*
X2880000Y275000D02*
Y465000D01*
X2980000Y275000D02*
Y465000D01*
X2880000Y275000D02*
X2980000D01*
X2880000Y465000D02*
X2980000D01*
X2685000Y245000D02*
Y515000D01*
X2835000Y245000D02*
Y515000D01*
X2685000Y245000D02*
X2835000D01*
X2685000Y515000D02*
X2835000D01*
X2499974Y245000D02*
Y515000D01*
X2649974Y245000D02*
Y515000D01*
X2499974Y245000D02*
X2649974D01*
X2499974Y515000D02*
X2649974D01*
X2425025Y1580025D02*
X2605026D01*
X2425025Y1670025D02*
X2605026D01*
Y1580025D02*
Y1670025D01*
X2425025Y1580025D02*
Y1670025D01*
Y1445000D02*
X2605026D01*
X2425025Y1535000D02*
X2605026D01*
Y1445000D02*
Y1535000D01*
X2425025Y1445000D02*
Y1535000D01*
Y1305000D02*
X2605026D01*
X2425025Y1395000D02*
X2605026D01*
Y1305000D02*
Y1395000D01*
X2425025Y1305000D02*
Y1395000D01*
X2725000Y1590000D02*
X2915000D01*
X2725000Y1690000D02*
X2915000D01*
Y1590000D02*
Y1690000D01*
X2725000Y1590000D02*
Y1690000D01*
X2437475Y1831000D02*
Y2021000D01*
X2537475Y1831000D02*
Y2021000D01*
X2437475Y1831000D02*
X2537475D01*
X2437475Y2021000D02*
X2537475D01*
X1055000Y590000D02*
X1505000D01*
X1055000Y390000D02*
X1505000D01*
X1055000D02*
Y590000D01*
X1505000Y390000D02*
Y590000D01*
X5505000Y2780000D02*
X5695000D01*
X5505000Y2680000D02*
X5695000D01*
X5505000D02*
Y2780000D01*
X5695000Y2680000D02*
Y2780000D01*
X6145000Y2057500D02*
X6235000D01*
X6145000Y1877500D02*
X6235000D01*
Y2057500D01*
X6145000Y1877500D02*
Y2057500D01*
X5270000Y1855000D02*
X5370000D01*
X5270000Y2045000D02*
X5370000D01*
X5270000Y1855000D02*
Y2045000D01*
X5370000Y1855000D02*
Y2045000D01*
X5670000Y1112500D02*
X6120000D01*
Y2017500D01*
X5670000D02*
X6120000D01*
X5670000Y1112500D02*
Y2017500D01*
X2570000Y1730000D02*
Y2370000D01*
X2930000Y1730000D02*
Y2370000D01*
X2570000Y1730000D02*
X2930000D01*
X2570000Y2370000D02*
X2930000D01*
X4855000Y700000D02*
Y900000D01*
X4405000Y700000D02*
Y900000D01*
Y700000D02*
X4855000D01*
X4405000Y900000D02*
X4855000D01*
X4456475Y2130051D02*
Y2230051D01*
X4266475Y2130051D02*
Y2230051D01*
Y2130051D02*
X4456475D01*
X4266475Y2230051D02*
X4456475D01*
%TF.MD5,e17e5bfbc7a46ec95fdb93ed4223c2a9*%
M02*
