%TF.GenerationSoftware,Altium Limited,Altium Designer,20.2.6 (244)*%
G04 Layer_Color=128*
%FSLAX45Y45*%
%MOMM*%
%TF.SameCoordinates,BE144905-350C-4E41-9AB6-63F68E724E9C*%
%TF.FilePolarity,Positive*%
%TF.FileFunction,Drillmap*%
%TF.Part,Single*%
G01*
G75*
%TA.AperFunction,NonConductor*%
%ADD86C,0.12700*%
D86*
X3821000Y2760000D02*
X3891000D01*
X3856000Y2725000D02*
Y2795000D01*
X3948000Y2760000D02*
X4018000D01*
X3983000Y2725000D02*
Y2795000D01*
X4075000Y2760000D02*
X4145000D01*
X4110000Y2725000D02*
Y2795000D01*
X4202000Y2760000D02*
X4272000D01*
X4237000Y2725000D02*
Y2795000D01*
X4329000Y2760000D02*
X4399000D01*
X4364000Y2725000D02*
Y2795000D01*
X4456000Y2760000D02*
X4526000D01*
X4491000Y2725000D02*
Y2795000D01*
X1021000Y190000D02*
X1091000D01*
X1056000Y155000D02*
Y225000D01*
X1148000Y190000D02*
X1218000D01*
X1183000Y155000D02*
Y225000D01*
X1275000Y190000D02*
X1345000D01*
X1310000Y155000D02*
Y225000D01*
X1402000Y190000D02*
X1472000D01*
X1437000Y155000D02*
Y225000D01*
X1529000Y190000D02*
X1599000D01*
X1564000Y155000D02*
Y225000D01*
X5901000Y1207500D02*
X5961000D01*
X5931000Y1177500D02*
Y1237500D01*
X5901000Y1922500D02*
X5961000D01*
X5931000Y1892500D02*
Y1952500D01*
X5495000Y1213000D02*
X5565000D01*
X5530000Y1178000D02*
Y1248000D01*
X5495000Y1340000D02*
X5565000D01*
X5530000Y1305000D02*
Y1375000D01*
X5495000Y1467000D02*
X5565000D01*
X5530000Y1432000D02*
Y1502000D01*
X3455000Y410000D02*
X3485000D01*
X3470000Y395000D02*
Y425000D01*
X3505000Y330000D02*
X3535000D01*
X3520000Y315000D02*
Y345000D01*
X4285000Y430000D02*
X4315000D01*
X4300000Y415000D02*
Y445000D01*
X4135000Y450000D02*
X4165000D01*
X4150000Y435000D02*
Y465000D01*
X4365000Y2430000D02*
X4395000D01*
X4380000Y2415000D02*
Y2445000D01*
X4295000Y2310000D02*
X4325000D01*
X4310000Y2295000D02*
Y2325000D01*
X4215000Y2520000D02*
X4245000D01*
X4230000Y2505000D02*
Y2535000D01*
X4555000Y1520000D02*
X4585000D01*
X4570000Y1505000D02*
Y1535000D01*
X4485000Y1432550D02*
X4515000D01*
X4500000Y1417550D02*
Y1447550D01*
X3385000Y320000D02*
X3415000D01*
X3400000Y305000D02*
Y335000D01*
X4755000Y980000D02*
X4785000D01*
X4770000Y965000D02*
Y995000D01*
X4875000Y950000D02*
X4905000D01*
X4890000Y935000D02*
Y965000D01*
X3895000Y860000D02*
X3925000D01*
X3910000Y845000D02*
Y875000D01*
X2915000Y560000D02*
X2945000D01*
X2930000Y545000D02*
Y575000D01*
X2745000Y590000D02*
X2775000D01*
X2760000Y575000D02*
Y605000D01*
X1135000Y1800000D02*
X1165000D01*
X1150000Y1785000D02*
Y1815000D01*
X1255000Y1660000D02*
X1285000D01*
X1270000Y1645000D02*
Y1675000D01*
X1045000Y1990000D02*
X1075000D01*
X1060000Y1975000D02*
Y2005000D01*
X1035000Y630000D02*
X1065000D01*
X1050000Y615000D02*
Y645000D01*
X1135000Y720000D02*
X1165000D01*
X1150000Y705000D02*
Y735000D01*
X1715000Y620000D02*
X1745000D01*
X1730000Y605000D02*
Y635000D01*
X1595000Y620000D02*
X1625000D01*
X1610000Y605000D02*
Y635000D01*
X1655000Y530000D02*
X1685000D01*
X1670000Y515000D02*
Y545000D01*
X1265000Y690000D02*
X1295000D01*
X1280000Y675000D02*
Y705000D01*
X1445000Y1150000D02*
X1475000D01*
X1460000Y1135000D02*
Y1165000D01*
X4895000Y2650000D02*
X4925000D01*
X4910000Y2635000D02*
Y2665000D01*
X4695000Y2650000D02*
X4725000D01*
X4710000Y2635000D02*
Y2665000D01*
X555000Y2710000D02*
X585000D01*
X570000Y2695000D02*
Y2725000D01*
X445000Y2710000D02*
X475000D01*
X460000Y2695000D02*
Y2725000D01*
X555000Y2810000D02*
X585000D01*
X570000Y2795000D02*
Y2825000D01*
X445000Y2810000D02*
X475000D01*
X460000Y2795000D02*
Y2825000D01*
X535000Y2600000D02*
X565000D01*
X550000Y2585000D02*
Y2615000D01*
X6295000Y658431D02*
X6325000D01*
X6310000Y643431D02*
Y673431D01*
X6185000Y658431D02*
X6215000D01*
X6200000Y643431D02*
Y673431D01*
X6295000Y570000D02*
X6325000D01*
X6310000Y555000D02*
Y585000D01*
X6190684Y562699D02*
X6220684D01*
X6205684Y547699D02*
Y577699D01*
X3175000Y2610000D02*
X3205000D01*
X3190000Y2595000D02*
Y2625000D01*
X4555000Y2412500D02*
X4585000D01*
X4570000Y2397500D02*
Y2427500D01*
X1515000Y1630000D02*
X1545000D01*
X1530000Y1615000D02*
Y1645000D01*
X1665000Y1630000D02*
X1695000D01*
X1680000Y1615000D02*
Y1645000D01*
X2325000Y1970000D02*
X2355000D01*
X2340000Y1955000D02*
Y1985000D01*
X4435000Y2340000D02*
X4465000D01*
X4450000Y2325000D02*
Y2355000D01*
X4295000Y1980000D02*
X4325000D01*
X4310000Y1965000D02*
Y1995000D01*
X4255000Y2090000D02*
X4285000D01*
X4270000Y2075000D02*
Y2105000D01*
X4295000Y570000D02*
X4325000D01*
X4310000Y555000D02*
Y585000D01*
X4295000Y690000D02*
X4325000D01*
X4310000Y675000D02*
Y705000D01*
X4295000Y800000D02*
X4325000D01*
X4310000Y785000D02*
Y815000D01*
X4965000Y690000D02*
X4995000D01*
X4980000Y675000D02*
Y705000D01*
X5075000Y650000D02*
X5105000D01*
X5090000Y635000D02*
Y665000D01*
X5285000Y650000D02*
X5315000D01*
X5300000Y635000D02*
Y665000D01*
X5415000Y650000D02*
X5445000D01*
X5430000Y635000D02*
Y665000D01*
X6185000Y340000D02*
X6215000D01*
X6200000Y325000D02*
Y355000D01*
X6115000Y220000D02*
X6145000D01*
X6130000Y205000D02*
Y235000D01*
X6005000Y170000D02*
X6035000D01*
X6020000Y155000D02*
Y185000D01*
X6245000Y1700000D02*
X6275000D01*
X6260000Y1685000D02*
Y1715000D01*
X6245000Y1440000D02*
X6275000D01*
X6260000Y1425000D02*
Y1455000D01*
X6145000Y1730000D02*
X6175000D01*
X6160000Y1715000D02*
Y1745000D01*
X3395000Y2020000D02*
X3425000D01*
X3410000Y2005000D02*
Y2035000D01*
X3975000Y1720000D02*
X4005000D01*
X3990000Y1705000D02*
Y1735000D01*
X145000Y2560000D02*
X175000D01*
X160000Y2545000D02*
Y2575000D01*
X145000Y2300000D02*
X175000D01*
X160000Y2285000D02*
Y2315000D01*
X145000Y2040000D02*
X175000D01*
X160000Y2025000D02*
Y2055000D01*
X145000Y1780000D02*
X175000D01*
X160000Y1765000D02*
Y1795000D01*
X145000Y1520000D02*
X175000D01*
X160000Y1505000D02*
Y1535000D01*
X145000Y1290000D02*
X175000D01*
X160000Y1275000D02*
Y1305000D01*
X175000Y1110000D02*
X205000D01*
X190000Y1095000D02*
Y1125000D01*
X435000Y1060000D02*
X465000D01*
X450000Y1045000D02*
Y1075000D01*
X565000Y1130000D02*
X595000D01*
X580000Y1115000D02*
Y1145000D01*
X665000Y1220000D02*
X695000D01*
X680000Y1205000D02*
Y1235000D01*
X675000Y1360000D02*
X705000D01*
X690000Y1345000D02*
Y1375000D01*
X505000Y710000D02*
X535000D01*
X520000Y695000D02*
Y725000D01*
X2365000Y1690000D02*
X2395000D01*
X2380000Y1675000D02*
Y1705000D01*
X2265000Y1620000D02*
X2295000D01*
X2280000Y1605000D02*
Y1635000D01*
X2295000Y1770000D02*
X2325000D01*
X2310000Y1755000D02*
Y1785000D01*
X6255000Y1220000D02*
X6285000D01*
X6270000Y1205000D02*
Y1235000D01*
X6255000Y1330000D02*
X6285000D01*
X6270000Y1315000D02*
Y1345000D01*
X6175000Y2380000D02*
X6205000D01*
X6190000Y2365000D02*
Y2395000D01*
X4965000Y1840000D02*
X4995000D01*
X4980000Y1825000D02*
Y1855000D01*
X4795000Y1750000D02*
X4825000D01*
X4810000Y1735000D02*
Y1765000D01*
X4575000Y1710000D02*
X4605000D01*
X4590000Y1695000D02*
Y1725000D01*
X4465000Y1840000D02*
X4495000D01*
X4480000Y1825000D02*
Y1855000D01*
X3765000Y2310000D02*
X3795000D01*
X3780000Y2295000D02*
Y2325000D01*
X3005000Y1630000D02*
X3035000D01*
X3020000Y1615000D02*
Y1645000D01*
X3525000Y1200000D02*
X3555000D01*
X3540000Y1185000D02*
Y1215000D01*
X3085000Y1130000D02*
X3115000D01*
X3100000Y1115000D02*
Y1145000D01*
X4045000Y1210000D02*
X4075000D01*
X4060000Y1195000D02*
Y1225000D01*
X4135000Y1210000D02*
X4165000D01*
X4150000Y1195000D02*
Y1225000D01*
X675000Y580000D02*
X705000D01*
X690000Y565000D02*
Y595000D01*
X675000Y710000D02*
X705000D01*
X690000Y695000D02*
Y725000D01*
X1015000Y1150000D02*
X1045000D01*
X1030000Y1135000D02*
Y1165000D01*
X275000Y940000D02*
X305000D01*
X290000Y925000D02*
Y955000D01*
X465000Y1200000D02*
X495000D01*
X480000Y1185000D02*
Y1215000D01*
X1125000Y830000D02*
X1155000D01*
X1140000Y815000D02*
Y845000D01*
X1365000Y1240000D02*
X1395000D01*
X1380000Y1225000D02*
Y1255000D01*
X1155000Y1590000D02*
X1185000D01*
X1170000Y1575000D02*
Y1605000D01*
X2425000Y450000D02*
X2455000D01*
X2440000Y435000D02*
Y465000D01*
X3705000Y700000D02*
X3735000D01*
X3720000Y685000D02*
Y715000D01*
X4985000Y220000D02*
X5015000D01*
X5000000Y205000D02*
Y235000D01*
X5315000Y810000D02*
X5345000D01*
X5330000Y795000D02*
Y825000D01*
X2635000Y2100000D02*
X2665000D01*
X2650000Y2085000D02*
Y2115000D01*
X5125000Y2110000D02*
X5155000D01*
X5140000Y2095000D02*
Y2125000D01*
X6015000Y2140000D02*
X6045000D01*
X6030000Y2125000D02*
Y2155000D01*
X4445000Y1300000D02*
X4475000D01*
X4460000Y1285000D02*
Y1315000D01*
X4295000Y1130000D02*
X4325000D01*
X4310000Y1115000D02*
Y1145000D01*
X5115000Y2650000D02*
X5145000D01*
X5130000Y2635000D02*
Y2665000D01*
X5725000Y2730000D02*
X5755000D01*
X5740000Y2715000D02*
Y2745000D01*
X5585000Y1920000D02*
X5615000D01*
X5600000Y1905000D02*
Y1935000D01*
X5595000Y2060000D02*
X5625000D01*
X5610000Y2045000D02*
Y2075000D01*
X2755000Y2050000D02*
X2785000D01*
X2770000Y2035000D02*
Y2065000D01*
X2475000Y1770000D02*
X2505000D01*
X2490000Y1755000D02*
Y1785000D01*
X5005000Y2730000D02*
X5035000D01*
X5020000Y2715000D02*
Y2745000D01*
X5435000Y2730000D02*
X5465000D01*
X5450000Y2715000D02*
Y2745000D01*
X5825000Y2770000D02*
X5855000D01*
X5840000Y2755000D02*
Y2785000D01*
X4965000Y2190000D02*
X4995000D01*
X4980000Y2175000D02*
Y2205000D01*
X5925000Y2770000D02*
X5955000D01*
X5940000Y2755000D02*
Y2785000D01*
X5735000Y2350000D02*
X5765000D01*
X5750000Y2335000D02*
Y2365000D01*
%TF.MD5,2b3734dcc09b2fa503ac7cf4ab17876c*%
M02*
