%TF.GenerationSoftware,Altium Limited,Altium Designer,20.2.6 (244)*%
G04 Layer_Physical_Order=4*
G04 Layer_Color=16711680*
%FSLAX45Y45*%
%MOMM*%
%TF.SameCoordinates,BE144905-350C-4E41-9AB6-63F68E724E9C*%
%TF.FilePolarity,Positive*%
%TF.FileFunction,Copper,L4,Bot,Signal*%
%TF.Part,Single*%
G01*
G75*
%TA.AperFunction,Conductor*%
%ADD44C,0.20000*%
%ADD45C,0.30000*%
%ADD47C,0.35000*%
%TA.AperFunction,ComponentPad*%
%ADD50C,1.10000*%
%ADD51R,1.10000X1.10000*%
G04:AMPARAMS|DCode=52|XSize=1.1mm|YSize=1.1mm|CornerRadius=0.275mm|HoleSize=0mm|Usage=FLASHONLY|Rotation=270.000|XOffset=0mm|YOffset=0mm|HoleType=Round|Shape=RoundedRectangle|*
%AMROUNDEDRECTD52*
21,1,1.10000,0.55000,0,0,270.0*
21,1,0.55000,1.10000,0,0,270.0*
1,1,0.55000,-0.27500,-0.27500*
1,1,0.55000,-0.27500,0.27500*
1,1,0.55000,0.27500,0.27500*
1,1,0.55000,0.27500,-0.27500*
%
%ADD52ROUNDEDRECTD52*%
G04:AMPARAMS|DCode=53|XSize=1.1mm|YSize=1.1mm|CornerRadius=0.1375mm|HoleSize=0mm|Usage=FLASHONLY|Rotation=270.000|XOffset=0mm|YOffset=0mm|HoleType=Round|Shape=RoundedRectangle|*
%AMROUNDEDRECTD53*
21,1,1.10000,0.82500,0,0,270.0*
21,1,0.82500,1.10000,0,0,270.0*
1,1,0.27500,-0.41250,-0.41250*
1,1,0.27500,-0.41250,0.41250*
1,1,0.27500,0.41250,0.41250*
1,1,0.27500,0.41250,-0.41250*
%
%ADD53ROUNDEDRECTD53*%
%ADD54O,2.80000X1.40000*%
%ADD55R,1.10000X1.10000*%
%TA.AperFunction,ViaPad*%
%ADD56C,0.65000*%
%TA.AperFunction,SMDPad,CuDef*%
%ADD57R,2.70000X1.80000*%
%ADD58R,1.00000X3.20000*%
%ADD59R,1.50000X0.40000*%
%ADD60C,5.00000*%
G36*
X730000Y2070000D02*
X590000Y2050000D01*
X400000Y2240000D01*
Y2447271D01*
X402678Y2448381D01*
X404766Y2449776D01*
X407085Y2450737D01*
X423873Y2461954D01*
X425647Y2463728D01*
X427735Y2465124D01*
X442013Y2479401D01*
X443407Y2481488D01*
X445182Y2483263D01*
X456400Y2500051D01*
X457360Y2502370D01*
X458755Y2504458D01*
X466482Y2523112D01*
X466972Y2525574D01*
X467933Y2527894D01*
X471872Y2547696D01*
Y2550207D01*
X472362Y2552669D01*
Y2562765D01*
Y2572860D01*
X471872Y2575322D01*
Y2577833D01*
X467933Y2597636D01*
X466972Y2599955D01*
X466482Y2602417D01*
X458755Y2621071D01*
X457360Y2623159D01*
X456400Y2625478D01*
X445182Y2642266D01*
X443408Y2644040D01*
X442013Y2646128D01*
X427735Y2660405D01*
X425648Y2661800D01*
X423873Y2663575D01*
X407085Y2674793D01*
X404766Y2675753D01*
X402678Y2677148D01*
X400000Y2678258D01*
Y2867481D01*
X457532Y2875270D01*
X487907Y2875378D01*
X487908Y2875378D01*
X599828Y2875660D01*
X599890Y2875672D01*
X599952Y2875661D01*
X688501Y2876314D01*
X730000D01*
Y2070000D01*
D02*
G37*
G36*
X6100000Y1970000D02*
Y1680000D01*
X5950000D01*
Y1720000D01*
X5780000Y1890000D01*
Y1980000D01*
X5830000Y2030000D01*
X6040000D01*
X6100000Y1970000D01*
D02*
G37*
G36*
X6140000Y1400000D02*
X6234366D01*
X6241466Y1395256D01*
X6260000Y1391569D01*
X6278534Y1395256D01*
X6285634Y1400000D01*
X6348799D01*
X6357760Y1391001D01*
X6356781Y1160000D01*
X6190000D01*
Y1280000D01*
X6130000Y1340000D01*
X6010000D01*
X5950000Y1400000D01*
Y1450000D01*
X6090000D01*
X6140000Y1400000D01*
D02*
G37*
G36*
X240243Y2637300D02*
X232344Y2625478D01*
X231383Y2623159D01*
X229988Y2621071D01*
X222261Y2602417D01*
X221771Y2599954D01*
X220811Y2597635D01*
X216872Y2577833D01*
Y2575322D01*
X216382Y2572860D01*
Y2552669D01*
X216872Y2550207D01*
Y2547697D01*
X220811Y2527894D01*
X221772Y2525574D01*
X222261Y2523112D01*
X229988Y2504458D01*
X231383Y2502370D01*
X232344Y2500051D01*
X243561Y2483264D01*
X245336Y2481489D01*
X246731Y2479401D01*
X261008Y2465124D01*
X263095Y2463729D01*
X264870Y2461954D01*
X281659Y2450737D01*
X283977Y2449776D01*
X286065Y2448381D01*
X304719Y2440654D01*
X307182Y2440164D01*
X309501Y2439204D01*
X329304Y2435265D01*
X330000Y2434569D01*
Y1910000D01*
X560000Y1680000D01*
X780000D01*
X809319Y1279302D01*
X800673Y1270000D01*
X450000D01*
X180000Y1000000D01*
X37416D01*
X28455Y1009000D01*
X30373Y1462086D01*
X30352Y1462194D01*
X30373Y1462302D01*
X27210Y2209373D01*
X27208Y2209381D01*
X27210Y2209389D01*
X26667Y2321759D01*
X26664Y2321775D01*
X26667Y2321792D01*
X26129Y2409644D01*
X25980Y2440047D01*
X33627Y2500370D01*
X49089Y2559176D01*
X72102Y2615461D01*
X91838Y2650000D01*
X234017D01*
X240243Y2637300D01*
D02*
G37*
G36*
X6354031Y691765D02*
X6354777Y687300D01*
X6354371Y575820D01*
X6354374Y575803D01*
X6354371Y575787D01*
X6354216Y510000D01*
X5810000D01*
Y700000D01*
X6345831D01*
X6354031Y691765D01*
D02*
G37*
G36*
X4960000Y750000D02*
X4486236Y276236D01*
X3350891Y276236D01*
Y370891D01*
X3430000Y450000D01*
X3730000D01*
X3790000Y390000D01*
X4274366D01*
X4281466Y385256D01*
X4300000Y381569D01*
X4318534Y385256D01*
X4325634Y390000D01*
X4350000D01*
X4840000Y880000D01*
Y1010000D01*
X4960000D01*
Y750000D01*
D02*
G37*
G36*
X2444442Y1755558D02*
X2445256Y1751466D01*
X2455755Y1735754D01*
X2471466Y1725256D01*
X2475558Y1724442D01*
X2500000Y1700000D01*
X2499999Y789999D01*
X2714442Y575557D01*
X2715256Y571466D01*
X2725755Y555755D01*
X2741466Y545256D01*
X2745557Y544442D01*
X3030000Y260000D01*
X4510001Y260000D01*
X4700000Y450000D01*
X6260000D01*
Y209530D01*
X6238612Y181895D01*
X6195435Y139082D01*
X6147034Y102275D01*
X6094242Y72108D01*
X6037958Y49094D01*
X5979154Y33630D01*
X5918830Y25981D01*
X5888429Y26128D01*
X5888428D01*
X5776538Y26794D01*
X5776522Y26791D01*
X5776506Y26795D01*
X5688171Y27209D01*
X5688165Y27208D01*
X5688160Y27209D01*
X2499281Y40719D01*
X2280000Y260000D01*
Y1200000D01*
X1800000D01*
X1800000Y487838D01*
X1714072D01*
X1709438Y488760D01*
X1706927D01*
X1704465Y489249D01*
X1684274D01*
X1681812Y488760D01*
X1679301D01*
X1674667Y487838D01*
X1519999Y487838D01*
X1520000Y1310000D01*
X1610000Y1400000D01*
X2180000D01*
X2220000Y1440000D01*
Y1840000D01*
X2360000D01*
X2444442Y1755558D01*
D02*
G37*
%LPC*%
G36*
X2440000Y498431D02*
X2421466Y494744D01*
X2405754Y484246D01*
X2395256Y468534D01*
X2391569Y450000D01*
X2395256Y431466D01*
X2405754Y415755D01*
X2421466Y405256D01*
X2440000Y401569D01*
X2458534Y405256D01*
X2474245Y415755D01*
X2484744Y431466D01*
X2488431Y450000D01*
X2484744Y468534D01*
X2474245Y484246D01*
X2458534Y494744D01*
X2440000Y498431D01*
D02*
G37*
G36*
X5000000Y268431D02*
X4981466Y264744D01*
X4965754Y254246D01*
X4955256Y238534D01*
X4951569Y220000D01*
X4955256Y201466D01*
X4965754Y185755D01*
X4981466Y175256D01*
X5000000Y171569D01*
X5018534Y175256D01*
X5034245Y185755D01*
X5044744Y201466D01*
X5048431Y220000D01*
X5044744Y238534D01*
X5034245Y254246D01*
X5018534Y264744D01*
X5000000Y268431D01*
D02*
G37*
%LPD*%
D44*
X930000Y130000D02*
Y360000D01*
X1050000Y480000D01*
Y630000D01*
X4150000Y450000D02*
Y1210000D01*
X4220000Y510000D02*
X4300000Y430000D01*
X4312500Y2457959D02*
X4430000Y2575459D01*
X4312500Y2402041D02*
X4380000Y2334541D01*
X4312500Y2402041D02*
Y2457959D01*
X4430000Y2575459D02*
Y2699000D01*
X4380000Y2310000D02*
Y2334541D01*
Y2310000D02*
X4550000Y2140000D01*
X4500000Y1432550D02*
X4507449Y1440000D01*
X4990000D01*
X4970000Y1600000D02*
X5140000Y1770000D01*
X3680000Y1380000D02*
X3900000Y1600000D01*
X4970000D01*
X4410000Y980000D02*
X4770000D01*
X1060000Y1990000D02*
X1270000D01*
X1380000Y1240000D02*
Y1880000D01*
X1270000Y1990000D02*
X1380000Y1880000D01*
X1170000Y177000D02*
X1183000Y190000D01*
X1170000Y110000D02*
Y177000D01*
X970000Y90000D02*
X1150000D01*
X1170000Y110000D01*
X930000Y130000D02*
X970000Y90000D01*
X1150000Y286246D02*
Y720000D01*
X1056000Y190000D02*
Y192246D01*
X1150000Y286246D01*
X1437000Y190000D02*
X1460000Y213000D01*
Y1150000D01*
X1413000Y214000D02*
X1437000Y190000D01*
X1457000Y1147000D02*
X1460000Y1150000D01*
X4110000Y2400000D02*
Y2760000D01*
X4430000Y2699000D02*
X4491000Y2760000D01*
X4550000Y2140000D02*
X4590000D01*
X4810000Y1750000D02*
Y1920000D01*
X4590000Y2140000D02*
X4810000Y1920000D01*
X3983000Y2127000D02*
X4270000Y1840000D01*
X3983000Y2127000D02*
Y2760000D01*
X4270000Y1840000D02*
X4480000D01*
X3856000Y2204503D02*
X4350503Y1710000D01*
X3856000Y2204503D02*
Y2760000D01*
X4350503Y1710000D02*
X4590000D01*
X4220000Y510000D02*
Y1180000D01*
X4380000Y1220000D02*
X4460000Y1300000D01*
X4220000Y1180000D02*
X4260000Y1220000D01*
X4380000D01*
X4110000Y2400000D02*
X4690000Y1820000D01*
Y1700000D02*
X4750000Y1640000D01*
X4690000Y1700000D02*
Y1820000D01*
X4750000Y1640000D02*
X4870000D01*
X4980000Y1750000D02*
Y1840000D01*
X4870000Y1640000D02*
X4980000Y1750000D01*
X3590000Y2335026D02*
X3615026Y2310000D01*
X3780000D01*
X3590000Y1655025D02*
Y2335026D01*
X4150000Y1210000D02*
X4155000Y1205000D01*
X290000Y1010000D02*
X480000Y1200000D01*
X290000Y940000D02*
Y1010000D01*
X1140000Y1000000D02*
X1380000Y1240000D01*
X1140000Y830000D02*
Y1000000D01*
X2650000Y1850000D02*
Y2100000D01*
Y1850000D02*
X3120000Y1380000D01*
X3680000D01*
X5140000Y1770000D02*
Y2110000D01*
X4990000Y1440000D02*
X5160000Y1610000D01*
X5460000D01*
X5710000Y1860000D02*
Y2030000D01*
X5460000Y1610000D02*
X5710000Y1860000D01*
X5820000Y2140000D02*
X6030000D01*
X5710000Y2030000D02*
X5820000Y2140000D01*
X4310000Y1080000D02*
Y1130000D01*
Y1080000D02*
X4410000Y980000D01*
D45*
X4452500Y2512500D02*
X4755000Y2815000D01*
X4450000Y2340000D02*
X4452500Y2342500D01*
Y2512500D01*
X4710000Y2650000D02*
X4910000D01*
X4980000Y2190000D02*
Y2580000D01*
X4910000Y2650000D02*
X4980000Y2580000D01*
X4710000Y2860000D02*
X4755000Y2815000D01*
X4780000Y2790000D01*
X4800000Y2770000D01*
X3190000Y2335026D02*
Y2610000D01*
X4800000Y2770000D02*
X4840000Y2730000D01*
X2490000Y1770000D02*
Y2420000D01*
X2930000Y2860000D01*
X4710000D01*
X4840000Y2730000D02*
X5020000D01*
X3190000Y1655025D02*
Y2335026D01*
X5840000Y2650000D02*
Y2770000D01*
X5380000Y2190000D02*
X5840000Y2650000D01*
X4980000Y2190000D02*
X5380000D01*
D47*
X6160000Y1620000D02*
Y1730000D01*
X6107500Y1567500D02*
X6160000Y1620000D01*
X6020000Y1565000D02*
X6022500Y1567500D01*
X6107500D01*
X6228787Y1500000D02*
X6254260Y1474527D01*
X6020000Y1500000D02*
X6228787D01*
X6254260Y1445740D02*
Y1474527D01*
Y1445740D02*
X6260000Y1440000D01*
D50*
X3856000Y2760000D02*
D03*
X3983000D02*
D03*
X4110000D02*
D03*
X4237000D02*
D03*
X4364000D02*
D03*
X5530000Y1213000D02*
D03*
Y1340000D02*
D03*
D51*
X4491000Y2760000D02*
D03*
D52*
X1056000Y190000D02*
D03*
X1183000D02*
D03*
X1310000D02*
D03*
X1437000D02*
D03*
D53*
X1564000D02*
D03*
D54*
X5931000Y1207500D02*
D03*
Y1922500D02*
D03*
D55*
X5530000Y1467000D02*
D03*
D56*
X3470000Y410000D02*
D03*
X3520000Y330000D02*
D03*
X4300000Y430000D02*
D03*
X4150000Y450000D02*
D03*
X4380000Y2430000D02*
D03*
X4310000Y2310000D02*
D03*
X4230000Y2520000D02*
D03*
X4570000Y1520000D02*
D03*
X4500000Y1432550D02*
D03*
X3400000Y320000D02*
D03*
X4770000Y980000D02*
D03*
X4890000Y950000D02*
D03*
X3910000Y860000D02*
D03*
X2930000Y560000D02*
D03*
X2760000Y590000D02*
D03*
X1150000Y1800000D02*
D03*
X1270000Y1660000D02*
D03*
X1060000Y1990000D02*
D03*
X1050000Y630000D02*
D03*
X1150000Y720000D02*
D03*
X1730000Y620000D02*
D03*
X1610000D02*
D03*
X1670000Y530000D02*
D03*
X1280000Y690000D02*
D03*
X1460000Y1150000D02*
D03*
X4910000Y2650000D02*
D03*
X4710000D02*
D03*
X570000Y2710000D02*
D03*
X460000D02*
D03*
X570000Y2810000D02*
D03*
X460000D02*
D03*
X550000Y2600000D02*
D03*
X6310000Y658431D02*
D03*
X6200000D02*
D03*
X6310000Y570000D02*
D03*
X6205684Y562699D02*
D03*
X3190000Y2610000D02*
D03*
X4570000Y2412500D02*
D03*
X1530000Y1630000D02*
D03*
X1680000D02*
D03*
X2340000Y1970000D02*
D03*
X4450000Y2340000D02*
D03*
X4310000Y1980000D02*
D03*
X4270000Y2090000D02*
D03*
X4310000Y570000D02*
D03*
Y690000D02*
D03*
Y800000D02*
D03*
X4980000Y690000D02*
D03*
X5090000Y650000D02*
D03*
X5300000D02*
D03*
X5430000D02*
D03*
X6200000Y340000D02*
D03*
X6130000Y220000D02*
D03*
X6020000Y170000D02*
D03*
X6260000Y1700000D02*
D03*
Y1440000D02*
D03*
X6160000Y1730000D02*
D03*
X3410000Y2020000D02*
D03*
X3990000Y1720000D02*
D03*
X160000Y2560000D02*
D03*
Y2300000D02*
D03*
Y2040000D02*
D03*
Y1780000D02*
D03*
Y1520000D02*
D03*
Y1290000D02*
D03*
X190000Y1110000D02*
D03*
X450000Y1060000D02*
D03*
X580000Y1130000D02*
D03*
X680000Y1220000D02*
D03*
X690000Y1360000D02*
D03*
X520000Y710000D02*
D03*
X2380000Y1690000D02*
D03*
X2280000Y1620000D02*
D03*
X2310000Y1770000D02*
D03*
X6270000Y1220000D02*
D03*
Y1330000D02*
D03*
X6190000Y2380000D02*
D03*
X4980000Y1840000D02*
D03*
X4810000Y1750000D02*
D03*
X4590000Y1710000D02*
D03*
X4480000Y1840000D02*
D03*
X3780000Y2310000D02*
D03*
X3020000Y1630000D02*
D03*
X3540000Y1200000D02*
D03*
X3100000Y1130000D02*
D03*
X4060000Y1210000D02*
D03*
X4150000D02*
D03*
X690000Y580000D02*
D03*
Y710000D02*
D03*
X1030000Y1150000D02*
D03*
X290000Y940000D02*
D03*
X480000Y1200000D02*
D03*
X1140000Y830000D02*
D03*
X1380000Y1240000D02*
D03*
X1170000Y1590000D02*
D03*
X2440000Y450000D02*
D03*
X3720000Y700000D02*
D03*
X5000000Y220000D02*
D03*
X5330000Y810000D02*
D03*
X2650000Y2100000D02*
D03*
X5140000Y2110000D02*
D03*
X6030000Y2140000D02*
D03*
X4460000Y1300000D02*
D03*
X4310000Y1130000D02*
D03*
X5130000Y2650000D02*
D03*
X5740000Y2730000D02*
D03*
X5600000Y1920000D02*
D03*
X5610000Y2060000D02*
D03*
X2770000Y2050000D02*
D03*
X2490000Y1770000D02*
D03*
X5020000Y2730000D02*
D03*
X5450000D02*
D03*
X5840000Y2770000D02*
D03*
X4980000Y2190000D02*
D03*
X5940000Y2770000D02*
D03*
X5750000Y2350000D02*
D03*
D57*
X5990000Y363000D02*
D03*
Y617000D02*
D03*
D58*
X3590000Y1655025D02*
D03*
Y2335026D02*
D03*
X3190000D02*
D03*
Y1655025D02*
D03*
D59*
X6020000Y1435000D02*
D03*
Y1500000D02*
D03*
Y1565000D02*
D03*
Y1630000D02*
D03*
Y1695000D02*
D03*
D60*
X692500Y712500D02*
D03*
Y1460000D02*
D03*
Y2212500D02*
D03*
%TF.MD5,4fc51a4ea3901c5fe061be57f4fc177b*%
M02*
