%TF.GenerationSoftware,Altium Limited,Altium Designer,20.2.6 (244)*%
G04 Layer_Color=0*
%FSLAX45Y45*%
%MOMM*%
%TF.SameCoordinates,BE144905-350C-4E41-9AB6-63F68E724E9C*%
%TF.FilePolarity,Positive*%
%TF.FileFunction,NonPlated,1,4,NPTH,Drill*%
%TF.Part,Single*%
G01*
G75*
G36*
X344351Y260217D02*
X334256D01*
X314453Y264155D01*
X295799Y271882D01*
X279011Y283100D01*
X264734Y297377D01*
X253517Y314164D01*
X245790Y332818D01*
X241851Y352621D01*
Y362717D01*
Y372812D01*
X245790Y392615D01*
X253517Y411268D01*
X264734Y428056D01*
X279011Y442333D01*
X295799Y453551D01*
X314453Y461277D01*
X334256Y465216D01*
X344351D01*
X354446D01*
X374249Y461277D01*
X392903Y453551D01*
X409691Y442333D01*
X423968Y428056D01*
X435185Y411268D01*
X442912Y392615D01*
X446851Y372812D01*
Y362717D01*
Y352621D01*
X442912Y332818D01*
X435185Y314164D01*
X423968Y297377D01*
X409691Y283100D01*
X392903Y271882D01*
X374249Y264155D01*
X354446Y260217D01*
X344351D01*
D01*
D02*
G37*
G36*
X1591870Y361260D02*
Y351164D01*
X1595809Y331362D01*
X1603535Y312708D01*
X1614753Y295920D01*
X1629030Y281643D01*
X1645818Y270425D01*
X1664471Y262699D01*
X1684274Y258760D01*
X1694370D01*
X1704465D01*
X1724268Y262699D01*
X1742922Y270425D01*
X1759709Y281643D01*
X1773987Y295920D01*
X1785204Y312708D01*
X1792931Y331362D01*
X1796870Y351164D01*
Y361260D01*
Y371355D01*
X1792931Y391158D01*
X1785204Y409812D01*
X1773987Y426600D01*
X1759709Y440877D01*
X1742922Y452094D01*
X1724268Y459821D01*
X1704465Y463760D01*
X1694370D01*
X1684274D01*
X1664471Y459821D01*
X1645818Y452094D01*
X1629030Y440877D01*
X1614753Y426600D01*
X1603535Y409812D01*
X1595809Y391158D01*
X1591870Y371355D01*
Y361260D01*
D01*
D02*
G37*
G36*
X1694370Y2458756D02*
X1684275D01*
X1664472Y2462695D01*
X1645818Y2470421D01*
X1629031Y2481639D01*
X1614753Y2495916D01*
X1603536Y2512704D01*
X1595809Y2531357D01*
X1591871Y2551160D01*
Y2561256D01*
Y2571351D01*
X1595809Y2591154D01*
X1603536Y2609808D01*
X1614753Y2626595D01*
X1629031Y2640873D01*
X1645818Y2652090D01*
X1664472Y2659817D01*
X1684275Y2663756D01*
X1694370D01*
X1704466D01*
X1724269Y2659817D01*
X1742922Y2652090D01*
X1759710Y2640873D01*
X1773987Y2626595D01*
X1785205Y2609808D01*
X1792931Y2591154D01*
X1796870Y2571351D01*
Y2561256D01*
Y2551160D01*
X1792931Y2531357D01*
X1785205Y2512704D01*
X1773987Y2495916D01*
X1759710Y2481639D01*
X1742922Y2470421D01*
X1724269Y2462695D01*
X1704466Y2458756D01*
X1694370D01*
D01*
D02*
G37*
G36*
X344372Y2460265D02*
X334276D01*
X314474Y2464204D01*
X295820Y2471930D01*
X279032Y2483148D01*
X264755Y2497425D01*
X253537Y2514213D01*
X245811Y2532866D01*
X241872Y2552669D01*
Y2562765D01*
Y2572860D01*
X245811Y2592663D01*
X253537Y2611317D01*
X264755Y2628104D01*
X279032Y2642382D01*
X295820Y2653599D01*
X314474Y2661326D01*
X334276Y2665265D01*
X344372D01*
X354467D01*
X374270Y2661326D01*
X392924Y2653599D01*
X409712Y2642382D01*
X423989Y2628104D01*
X435206Y2611317D01*
X442933Y2592663D01*
X446872Y2572860D01*
Y2562765D01*
Y2552669D01*
X442933Y2532866D01*
X435206Y2514213D01*
X423989Y2497425D01*
X409712Y2483148D01*
X392924Y2471930D01*
X374270Y2464204D01*
X354467Y2460265D01*
X344372D01*
D01*
D02*
G37*
%TF.MD5,28c79beb14ecee012d212b250dd3b7a3*%
M02*
